<?xml version="1.0" encoding="UTF-8" standalone="no"?>
<!DOCTYPE svg PUBLIC "-//W3C//DTD SVG 1.1//EN"
 "http://www.w3.org/Graphics/SVG/1.1/DTD/svg11.dtd">
<!-- Generated by graphviz version 2.47.3 (20210619.1520)
 -->
<!-- Title: dependencies Pages: 1 -->
<svg width="1910pt" height="247pt"
 viewBox="0.00 0.00 1910.00 246.80" xmlns="http://www.w3.org/2000/svg" xmlns:xlink="http://www.w3.org/1999/xlink">
<g id="graph0" class="graph" transform="scale(1 1) rotate(0) translate(4 242.8)">
<title>dependencies</title>
<polygon fill="white" stroke="transparent" points="-4,4 -4,-242.8 1906,-242.8 1906,4 -4,4"/>
<text text-anchor="middle" x="951" y="-8.2" font-family="sans-serif" font-size="14.00">dependencies</text>
<g id="clust1" class="cluster">
<title>cluster_CoreModule</title>
<polygon fill="none" stroke="black" stroke-dasharray="1,5" points="8,-32.8 8,-230.8 1894,-230.8 1894,-32.8 8,-32.8"/>
</g>
<g id="clust2" class="cluster">
<title>cluster_CoreModule_declarations</title>
<polygon fill="none" stroke="black" points="146,-40.8 146,-92.8 1886,-92.8 1886,-40.8 146,-40.8"/>
</g>
<g id="clust15" class="cluster">
<title>cluster_CoreModule_exports</title>
<polygon fill="none" stroke="black" points="344,-170.8 344,-222.8 1553,-222.8 1553,-170.8 344,-170.8"/>
</g>
<g id="clust14" class="cluster">
<title>cluster_CoreModule_imports</title>
<polygon fill="none" stroke="black" points="16,-40.8 16,-92.8 138,-92.8 138,-40.8 16,-40.8"/>
</g>
<!-- AudioPlayerComponent -->
<g id="node1" class="node">
<title>AudioPlayerComponent</title>
<polygon fill="#ffffb3" stroke="black" points="1878.09,-84.8 1725.91,-84.8 1725.91,-48.8 1878.09,-48.8 1878.09,-84.8"/>
<text text-anchor="middle" x="1802" y="-62.6" font-family="Times,serif" font-size="14.00">AudioPlayerComponent</text>
</g>
<!-- CoreModule -->
<g id="node12" class="node">
<title>CoreModule</title>
<polygon fill="#8dd3c7" stroke="black" points="990.26,-149.8 987.26,-153.8 966.26,-153.8 963.26,-149.8 903.74,-149.8 903.74,-113.8 990.26,-113.8 990.26,-149.8"/>
<text text-anchor="middle" x="947" y="-127.6" font-family="Times,serif" font-size="14.00">CoreModule</text>
</g>
<!-- AudioPlayerComponent&#45;&gt;CoreModule -->
<g id="edge1" class="edge">
<title>AudioPlayerComponent&#45;&gt;CoreModule</title>
<path fill="none" stroke="black" d="M1802,-85.11C1802,-104.95 1802,-133.8 1802,-133.8 1802,-133.8 1000.28,-133.8 1000.28,-133.8"/>
<polygon fill="black" stroke="black" points="1000.28,-130.3 990.28,-133.8 1000.28,-137.3 1000.28,-130.3"/>
</g>
<!-- CapslockDirective -->
<g id="node2" class="node">
<title>CapslockDirective</title>
<polygon fill="#ffffb3" stroke="black" points="1708.18,-84.8 1587.82,-84.8 1587.82,-48.8 1708.18,-48.8 1708.18,-84.8"/>
<text text-anchor="middle" x="1648" y="-62.6" font-family="Times,serif" font-size="14.00">CapslockDirective</text>
</g>
<!-- CapslockDirective&#45;&gt;CoreModule -->
<g id="edge2" class="edge">
<title>CapslockDirective&#45;&gt;CoreModule</title>
<path fill="none" stroke="black" d="M1648,-85.02C1648,-103.63 1648,-129.8 1648,-129.8 1648,-129.8 1000.32,-129.8 1000.32,-129.8"/>
<polygon fill="black" stroke="black" points="1000.32,-126.3 990.32,-129.8 1000.32,-133.3 1000.32,-126.3"/>
</g>
<!-- DragDropImageDirective -->
<g id="node3" class="node">
<title>DragDropImageDirective</title>
<polygon fill="#ffffb3" stroke="black" points="1569.81,-84.8 1410.19,-84.8 1410.19,-48.8 1569.81,-48.8 1569.81,-84.8"/>
<text text-anchor="middle" x="1490" y="-62.6" font-family="Times,serif" font-size="14.00">DragDropImageDirective</text>
</g>
<!-- DragDropImageDirective&#45;&gt;CoreModule -->
<g id="edge3" class="edge">
<title>DragDropImageDirective&#45;&gt;CoreModule</title>
<path fill="none" stroke="black" d="M1415.63,-84.82C1415.63,-102.17 1415.63,-125.8 1415.63,-125.8 1415.63,-125.8 1000.67,-125.8 1000.67,-125.8"/>
<polygon fill="black" stroke="black" points="1000.67,-122.3 990.67,-125.8 1000.67,-129.3 1000.67,-122.3"/>
</g>
<!-- FooterComponent -->
<g id="node4" class="node">
<title>FooterComponent</title>
<polygon fill="#ffffb3" stroke="black" points="1391.88,-84.8 1274.12,-84.8 1274.12,-48.8 1391.88,-48.8 1391.88,-84.8"/>
<text text-anchor="middle" x="1333" y="-62.6" font-family="Times,serif" font-size="14.00">FooterComponent</text>
</g>
<!-- FooterComponent&#45;&gt;CoreModule -->
<g id="edge4" class="edge">
<title>FooterComponent&#45;&gt;CoreModule</title>
<path fill="none" stroke="black" d="M1277.68,-84.81C1277.68,-100.85 1277.68,-121.8 1277.68,-121.8 1277.68,-121.8 1000.57,-121.8 1000.57,-121.8"/>
<polygon fill="black" stroke="black" points="1000.57,-118.3 990.57,-121.8 1000.57,-125.3 1000.57,-118.3"/>
</g>
<!-- HeaderComponent -->
<g id="node5" class="node">
<title>HeaderComponent</title>
<polygon fill="#ffffb3" stroke="black" points="1255.74,-84.8 1134.26,-84.8 1134.26,-48.8 1255.74,-48.8 1255.74,-84.8"/>
<text text-anchor="middle" x="1195" y="-62.6" font-family="Times,serif" font-size="14.00">HeaderComponent</text>
</g>
<!-- HeaderComponent&#45;&gt;CoreModule -->
<g id="edge5" class="edge">
<title>HeaderComponent&#45;&gt;CoreModule</title>
<path fill="none" stroke="black" d="M1216.71,-84.92C1216.71,-99.58 1216.71,-117.8 1216.71,-117.8 1216.71,-117.8 1000.33,-117.8 1000.33,-117.8"/>
<polygon fill="black" stroke="black" points="1000.33,-114.3 990.33,-117.8 1000.33,-121.3 1000.33,-114.3"/>
</g>
<!-- LandingHeaderComponent -->
<g id="node6" class="node">
<title>LandingHeaderComponent</title>
<polygon fill="#ffffb3" stroke="black" points="1116.4,-84.8 947.6,-84.8 947.6,-48.8 1116.4,-48.8 1116.4,-84.8"/>
<text text-anchor="middle" x="1032" y="-62.6" font-family="Times,serif" font-size="14.00">LandingHeaderComponent</text>
</g>
<!-- LandingHeaderComponent&#45;&gt;CoreModule -->
<g id="edge6" class="edge">
<title>LandingHeaderComponent&#45;&gt;CoreModule</title>
<path fill="none" stroke="black" d="M969.09,-84.91C969.09,-84.91 969.09,-103.79 969.09,-103.79"/>
<polygon fill="black" stroke="black" points="965.59,-103.79 969.09,-113.79 972.59,-103.79 965.59,-103.79"/>
</g>
<!-- PdfreaderComponent -->
<g id="node7" class="node">
<title>PdfreaderComponent</title>
<polygon fill="#ffffb3" stroke="black" points="929.74,-84.8 794.26,-84.8 794.26,-48.8 929.74,-48.8 929.74,-84.8"/>
<text text-anchor="middle" x="862" y="-62.6" font-family="Times,serif" font-size="14.00">PdfreaderComponent</text>
</g>
<!-- PdfreaderComponent&#45;&gt;CoreModule -->
<g id="edge7" class="edge">
<title>PdfreaderComponent&#45;&gt;CoreModule</title>
<path fill="none" stroke="black" d="M916.74,-84.91C916.74,-84.91 916.74,-103.79 916.74,-103.79"/>
<polygon fill="black" stroke="black" points="913.24,-103.79 916.74,-113.79 920.24,-103.79 913.24,-103.79"/>
</g>
<!-- SearchPipe -->
<g id="node8" class="node">
<title>SearchPipe</title>
<polygon fill="#ffffb3" stroke="black" points="776.47,-84.8 697.53,-84.8 697.53,-48.8 776.47,-48.8 776.47,-84.8"/>
<text text-anchor="middle" x="737" y="-62.6" font-family="Times,serif" font-size="14.00">SearchPipe</text>
</g>
<!-- SearchPipe&#45;&gt;CoreModule -->
<g id="edge8" class="edge">
<title>SearchPipe&#45;&gt;CoreModule</title>
<path fill="none" stroke="black" d="M747.33,-84.92C747.33,-99.58 747.33,-117.8 747.33,-117.8 747.33,-117.8 893.67,-117.8 893.67,-117.8"/>
<polygon fill="black" stroke="black" points="893.67,-121.3 903.67,-117.8 893.67,-114.3 893.67,-121.3"/>
</g>
<!-- StickyHeaderDirective -->
<g id="node9" class="node">
<title>StickyHeaderDirective</title>
<polygon fill="#ffffb3" stroke="black" points="679.27,-84.8 534.73,-84.8 534.73,-48.8 679.27,-48.8 679.27,-84.8"/>
<text text-anchor="middle" x="607" y="-62.6" font-family="Times,serif" font-size="14.00">StickyHeaderDirective</text>
</g>
<!-- StickyHeaderDirective&#45;&gt;CoreModule -->
<g id="edge9" class="edge">
<title>StickyHeaderDirective&#45;&gt;CoreModule</title>
<path fill="none" stroke="black" d="M675.51,-84.81C675.51,-100.85 675.51,-121.8 675.51,-121.8 675.51,-121.8 893.68,-121.8 893.68,-121.8"/>
<polygon fill="black" stroke="black" points="893.68,-125.3 903.68,-121.8 893.68,-118.3 893.68,-125.3"/>
</g>
<!-- ToolbarNotificationComponent -->
<g id="node10" class="node">
<title>ToolbarNotificationComponent</title>
<polygon fill="#ffffb3" stroke="black" points="516.8,-84.8 323.2,-84.8 323.2,-48.8 516.8,-48.8 516.8,-84.8"/>
<text text-anchor="middle" x="420" y="-62.6" font-family="Times,serif" font-size="14.00">ToolbarNotificationComponent</text>
</g>
<!-- ToolbarNotificationComponent&#45;&gt;CoreModule -->
<g id="edge10" class="edge">
<title>ToolbarNotificationComponent&#45;&gt;CoreModule</title>
<path fill="none" stroke="black" d="M511.53,-84.82C511.53,-102.17 511.53,-125.8 511.53,-125.8 511.53,-125.8 893.65,-125.8 893.65,-125.8"/>
<polygon fill="black" stroke="black" points="893.65,-129.3 903.65,-125.8 893.65,-122.3 893.65,-129.3"/>
</g>
<!-- VideoPlayerComponent -->
<g id="node11" class="node">
<title>VideoPlayerComponent</title>
<polygon fill="#ffffb3" stroke="black" points="305.81,-84.8 154.19,-84.8 154.19,-48.8 305.81,-48.8 305.81,-84.8"/>
<text text-anchor="middle" x="230" y="-62.6" font-family="Times,serif" font-size="14.00">VideoPlayerComponent</text>
</g>
<!-- VideoPlayerComponent&#45;&gt;CoreModule -->
<g id="edge11" class="edge">
<title>VideoPlayerComponent&#45;&gt;CoreModule</title>
<path fill="none" stroke="black" d="M230,-85.02C230,-103.63 230,-129.8 230,-129.8 230,-129.8 893.5,-129.8 893.5,-129.8"/>
<polygon fill="black" stroke="black" points="893.5,-133.3 903.5,-129.8 893.5,-126.3 893.5,-133.3"/>
</g>
<!-- CapslockDirective  -->
<g id="node14" class="node">
<title>CapslockDirective </title>
<polygon fill="#fb8072" stroke="black" points="1544.68,-214.8 1421.32,-214.8 1421.32,-178.8 1544.68,-178.8 1544.68,-214.8"/>
<text text-anchor="middle" x="1483" y="-192.6" font-family="Times,serif" font-size="14.00">CapslockDirective </text>
</g>
<!-- CoreModule&#45;&gt;CapslockDirective  -->
<g id="edge13" class="edge">
<title>CoreModule&#45;&gt;CapslockDirective </title>
<path fill="none" stroke="black" stroke-dasharray="5,2" d="M990.41,-137.8C1118.01,-137.8 1483,-137.8 1483,-137.8 1483,-137.8 1483,-168.78 1483,-168.78"/>
<polygon fill="black" stroke="black" points="1479.5,-168.78 1483,-178.78 1486.5,-168.78 1479.5,-168.78"/>
</g>
<!-- FooterComponent  -->
<g id="node15" class="node">
<title>FooterComponent </title>
<polygon fill="#fb8072" stroke="black" points="1402.88,-214.8 1281.12,-214.8 1281.12,-178.8 1402.88,-178.8 1402.88,-214.8"/>
<text text-anchor="middle" x="1342" y="-192.6" font-family="Times,serif" font-size="14.00">FooterComponent </text>
</g>
<!-- CoreModule&#45;&gt;FooterComponent  -->
<g id="edge14" class="edge">
<title>CoreModule&#45;&gt;FooterComponent </title>
<path fill="none" stroke="black" stroke-dasharray="5,2" d="M990.56,-141.8C1092.23,-141.8 1336.62,-141.8 1336.62,-141.8 1336.62,-141.8 1336.62,-168.79 1336.62,-168.79"/>
<polygon fill="black" stroke="black" points="1333.13,-168.79 1336.62,-178.79 1340.13,-168.79 1333.13,-168.79"/>
</g>
<!-- HeaderComponent  -->
<g id="node16" class="node">
<title>HeaderComponent </title>
<polygon fill="#fb8072" stroke="black" points="1263.74,-214.8 1138.26,-214.8 1138.26,-178.8 1263.74,-178.8 1263.74,-214.8"/>
<text text-anchor="middle" x="1201" y="-192.6" font-family="Times,serif" font-size="14.00">HeaderComponent </text>
</g>
<!-- CoreModule&#45;&gt;HeaderComponent  -->
<g id="edge15" class="edge">
<title>CoreModule&#45;&gt;HeaderComponent </title>
<path fill="none" stroke="black" stroke-dasharray="5,2" d="M990.36,-145.8C1057.15,-145.8 1177.54,-145.8 1177.54,-145.8 1177.54,-145.8 1177.54,-168.68 1177.54,-168.68"/>
<polygon fill="black" stroke="black" points="1174.04,-168.68 1177.54,-178.68 1181.04,-168.68 1174.04,-168.68"/>
</g>
<!-- LandingHeaderComponent  -->
<g id="node17" class="node">
<title>LandingHeaderComponent </title>
<polygon fill="#fb8072" stroke="black" points="1119.9,-214.8 948.1,-214.8 948.1,-178.8 1119.9,-178.8 1119.9,-214.8"/>
<text text-anchor="middle" x="1034" y="-192.6" font-family="Times,serif" font-size="14.00">LandingHeaderComponent </text>
</g>
<!-- CoreModule&#45;&gt;LandingHeaderComponent  -->
<g id="edge16" class="edge">
<title>CoreModule&#45;&gt;LandingHeaderComponent </title>
<path fill="none" stroke="black" stroke-dasharray="5,2" d="M969.22,-149.91C969.22,-149.91 969.22,-168.79 969.22,-168.79"/>
<polygon fill="black" stroke="black" points="965.72,-168.79 969.22,-178.79 972.72,-168.79 965.72,-168.79"/>
</g>
<!-- PdfreaderComponent  -->
<g id="node18" class="node">
<title>PdfreaderComponent </title>
<polygon fill="#fb8072" stroke="black" points="929.74,-214.8 790.26,-214.8 790.26,-178.8 929.74,-178.8 929.74,-214.8"/>
<text text-anchor="middle" x="860" y="-192.6" font-family="Times,serif" font-size="14.00">PdfreaderComponent </text>
</g>
<!-- CoreModule&#45;&gt;PdfreaderComponent  -->
<g id="edge17" class="edge">
<title>CoreModule&#45;&gt;PdfreaderComponent </title>
<path fill="none" stroke="black" stroke-dasharray="5,2" d="M916.62,-149.91C916.62,-149.91 916.62,-168.79 916.62,-168.79"/>
<polygon fill="black" stroke="black" points="913.12,-168.79 916.62,-178.79 920.12,-168.79 913.12,-168.79"/>
</g>
<!-- SearchPipe  -->
<g id="node19" class="node">
<title>SearchPipe </title>
<polygon fill="#fb8072" stroke="black" points="772.48,-214.8 689.52,-214.8 689.52,-178.8 772.48,-178.8 772.48,-214.8"/>
<text text-anchor="middle" x="731" y="-192.6" font-family="Times,serif" font-size="14.00">SearchPipe </text>
</g>
<!-- CoreModule&#45;&gt;SearchPipe  -->
<g id="edge18" class="edge">
<title>CoreModule&#45;&gt;SearchPipe </title>
<path fill="none" stroke="black" stroke-dasharray="5,2" d="M903.7,-145.8C838.44,-145.8 722.42,-145.8 722.42,-145.8 722.42,-145.8 722.42,-168.68 722.42,-168.68"/>
<polygon fill="black" stroke="black" points="718.92,-168.68 722.42,-178.68 725.92,-168.68 718.92,-168.68"/>
</g>
<!-- StickyHeaderDirective  -->
<g id="node20" class="node">
<title>StickyHeaderDirective </title>
<polygon fill="#fb8072" stroke="black" points="671.77,-214.8 524.23,-214.8 524.23,-178.8 671.77,-178.8 671.77,-214.8"/>
<text text-anchor="middle" x="598" y="-192.6" font-family="Times,serif" font-size="14.00">StickyHeaderDirective </text>
</g>
<!-- CoreModule&#45;&gt;StickyHeaderDirective  -->
<g id="edge19" class="edge">
<title>CoreModule&#45;&gt;StickyHeaderDirective </title>
<path fill="none" stroke="black" stroke-dasharray="5,2" d="M903.48,-141.8C811.01,-141.8 603.38,-141.8 603.38,-141.8 603.38,-141.8 603.38,-168.79 603.38,-168.79"/>
<polygon fill="black" stroke="black" points="599.88,-168.79 603.38,-178.79 606.88,-168.79 599.88,-168.79"/>
</g>
<!-- VideoPlayerComponent  -->
<g id="node21" class="node">
<title>VideoPlayerComponent </title>
<polygon fill="#fb8072" stroke="black" points="506.31,-214.8 351.69,-214.8 351.69,-178.8 506.31,-178.8 506.31,-214.8"/>
<text text-anchor="middle" x="429" y="-192.6" font-family="Times,serif" font-size="14.00">VideoPlayerComponent </text>
</g>
<!-- CoreModule&#45;&gt;VideoPlayerComponent  -->
<g id="edge20" class="edge">
<title>CoreModule&#45;&gt;VideoPlayerComponent </title>
<path fill="none" stroke="black" stroke-dasharray="5,2" d="M903.73,-137.8C779.23,-137.8 429,-137.8 429,-137.8 429,-137.8 429,-168.78 429,-168.78"/>
<polygon fill="black" stroke="black" points="425.5,-168.78 429,-178.78 432.5,-168.78 425.5,-168.78"/>
</g>
<!-- MaterialModule -->
<g id="node13" class="node">
<title>MaterialModule</title>
<polygon fill="#8dd3c7" stroke="black" points="130.47,-84.8 127.47,-88.8 106.47,-88.8 103.47,-84.8 23.53,-84.8 23.53,-48.8 130.47,-48.8 130.47,-84.8"/>
<text text-anchor="middle" x="77" y="-62.6" font-family="Times,serif" font-size="14.00">MaterialModule</text>
</g>
<!-- MaterialModule&#45;&gt;CoreModule -->
<g id="edge12" class="edge">
<title>MaterialModule&#45;&gt;CoreModule</title>
<path fill="none" stroke="black" d="M77,-85.11C77,-104.95 77,-133.8 77,-133.8 77,-133.8 893.56,-133.8 893.56,-133.8"/>
<polygon fill="black" stroke="black" points="893.56,-137.3 903.56,-133.8 893.56,-130.3 893.56,-137.3"/>
</g>
</g>
</svg>
