<?xml version="1.0" encoding="UTF-8" standalone="no"?>
<!DOCTYPE svg PUBLIC "-//W3C//DTD SVG 1.1//EN"
 "http://www.w3.org/Graphics/SVG/1.1/DTD/svg11.dtd">
<!-- Generated by graphviz version 2.47.3 (20210619.1520)
 -->
<!-- Title: dependencies Pages: 1 -->
<svg width="1910pt" height="247pt"
 viewBox="0.00 0.00 1910.00 246.80" xmlns="http://www.w3.org/2000/svg" xmlns:xlink="http://www.w3.org/1999/xlink">
<g id="graph0" class="graph" transform="scale(1 1) rotate(0) translate(4 242.8)">
<title>dependencies</title>
<polygon fill="white" stroke="transparent" points="-4,4 -4,-242.8 1906,-242.8 1906,4 -4,4"/>
<text text-anchor="middle" x="951" y="-8.2" font-family="sans-serif" font-size="14.00">dependencies</text>
<g id="clust1" class="cluster">
<title>cluster_CoreModule</title>
<polygon fill="none" stroke="black" stroke-dasharray="1,5" points="8,-32.8 8,-230.8 1894,-230.8 1894,-32.8 8,-32.8"/>
</g>
<g id="clust14" class="cluster">
<title>cluster_CoreModule_imports</title>
<polygon fill="none" stroke="black" points="1764,-40.8 1764,-92.8 1886,-92.8 1886,-40.8 1764,-40.8"/>
</g>
<g id="clust15" class="cluster">
<title>cluster_CoreModule_exports</title>
<polygon fill="none" stroke="black" points="380,-170.8 380,-222.8 1589,-222.8 1589,-170.8 380,-170.8"/>
</g>
<g id="clust2" class="cluster">
<title>cluster_CoreModule_declarations</title>
<polygon fill="none" stroke="black" points="16,-40.8 16,-92.8 1756,-92.8 1756,-40.8 16,-40.8"/>
</g>
<!-- AudioPlayerComponent -->
<g id="node1" class="node">
<title>AudioPlayerComponent</title>
<polygon fill="#ffffb3" stroke="black" points="1748.09,-84.8 1595.91,-84.8 1595.91,-48.8 1748.09,-48.8 1748.09,-84.8"/>
<text text-anchor="middle" x="1672" y="-62.6" font-family="Times,serif" font-size="14.00">AudioPlayerComponent</text>
</g>
<!-- CoreModule -->
<g id="node12" class="node">
<title>CoreModule</title>
<polygon fill="#8dd3c7" stroke="black" points="1026.26,-149.8 1023.26,-153.8 1002.26,-153.8 999.26,-149.8 939.74,-149.8 939.74,-113.8 1026.26,-113.8 1026.26,-149.8"/>
<text text-anchor="middle" x="983" y="-127.6" font-family="Times,serif" font-size="14.00">CoreModule</text>
</g>
<!-- AudioPlayerComponent&#45;&gt;CoreModule -->
<g id="edge1" class="edge">
<title>AudioPlayerComponent&#45;&gt;CoreModule</title>
<path fill="none" stroke="black" d="M1672,-85.02C1672,-103.63 1672,-129.8 1672,-129.8 1672,-129.8 1036.36,-129.8 1036.36,-129.8"/>
<polygon fill="black" stroke="black" points="1036.36,-126.3 1026.36,-129.8 1036.36,-133.3 1036.36,-126.3"/>
</g>
<!-- CapslockDirective -->
<g id="node2" class="node">
<title>CapslockDirective</title>
<polygon fill="#ffffb3" stroke="black" points="1578.18,-84.8 1457.82,-84.8 1457.82,-48.8 1578.18,-48.8 1578.18,-84.8"/>
<text text-anchor="middle" x="1518" y="-62.6" font-family="Times,serif" font-size="14.00">CapslockDirective</text>
</g>
<!-- CapslockDirective&#45;&gt;CoreModule -->
<g id="edge2" class="edge">
<title>CapslockDirective&#45;&gt;CoreModule</title>
<path fill="none" stroke="black" d="M1538.03,-84.82C1538.03,-102.17 1538.03,-125.8 1538.03,-125.8 1538.03,-125.8 1036.55,-125.8 1036.55,-125.8"/>
<polygon fill="black" stroke="black" points="1036.55,-122.3 1026.55,-125.8 1036.55,-129.3 1036.55,-122.3"/>
</g>
<!-- DragDropImageDirective -->
<g id="node3" class="node">
<title>DragDropImageDirective</title>
<polygon fill="#ffffb3" stroke="black" points="1439.81,-84.8 1280.19,-84.8 1280.19,-48.8 1439.81,-48.8 1439.81,-84.8"/>
<text text-anchor="middle" x="1360" y="-62.6" font-family="Times,serif" font-size="14.00">DragDropImageDirective</text>
</g>
<!-- DragDropImageDirective&#45;&gt;CoreModule -->
<g id="edge3" class="edge">
<title>DragDropImageDirective&#45;&gt;CoreModule</title>
<path fill="none" stroke="black" d="M1289.86,-84.81C1289.86,-100.85 1289.86,-121.8 1289.86,-121.8 1289.86,-121.8 1036.31,-121.8 1036.31,-121.8"/>
<polygon fill="black" stroke="black" points="1036.31,-118.3 1026.31,-121.8 1036.31,-125.3 1036.31,-118.3"/>
</g>
<!-- FooterComponent -->
<g id="node4" class="node">
<title>FooterComponent</title>
<polygon fill="#ffffb3" stroke="black" points="1261.88,-84.8 1144.12,-84.8 1144.12,-48.8 1261.88,-48.8 1261.88,-84.8"/>
<text text-anchor="middle" x="1203" y="-62.6" font-family="Times,serif" font-size="14.00">FooterComponent</text>
</g>
<!-- FooterComponent&#45;&gt;CoreModule -->
<g id="edge4" class="edge">
<title>FooterComponent&#45;&gt;CoreModule</title>
<path fill="none" stroke="black" d="M1150.01,-84.92C1150.01,-99.58 1150.01,-117.8 1150.01,-117.8 1150.01,-117.8 1036.44,-117.8 1036.44,-117.8"/>
<polygon fill="black" stroke="black" points="1036.44,-114.3 1026.44,-117.8 1036.44,-121.3 1036.44,-114.3"/>
</g>
<!-- HeaderComponent -->
<g id="node5" class="node">
<title>HeaderComponent</title>
<polygon fill="#ffffb3" stroke="black" points="1125.74,-84.8 1004.26,-84.8 1004.26,-48.8 1125.74,-48.8 1125.74,-84.8"/>
<text text-anchor="middle" x="1065" y="-62.6" font-family="Times,serif" font-size="14.00">HeaderComponent</text>
</g>
<!-- HeaderComponent&#45;&gt;CoreModule -->
<g id="edge5" class="edge">
<title>HeaderComponent&#45;&gt;CoreModule</title>
<path fill="none" stroke="black" d="M1015.25,-84.91C1015.25,-84.91 1015.25,-103.79 1015.25,-103.79"/>
<polygon fill="black" stroke="black" points="1011.75,-103.79 1015.25,-113.79 1018.75,-103.79 1011.75,-103.79"/>
</g>
<!-- LandingHeaderComponent -->
<g id="node6" class="node">
<title>LandingHeaderComponent</title>
<polygon fill="#ffffb3" stroke="black" points="986.4,-84.8 817.6,-84.8 817.6,-48.8 986.4,-48.8 986.4,-84.8"/>
<text text-anchor="middle" x="902" y="-62.6" font-family="Times,serif" font-size="14.00">LandingHeaderComponent</text>
</g>
<!-- LandingHeaderComponent&#45;&gt;CoreModule -->
<g id="edge6" class="edge">
<title>LandingHeaderComponent&#45;&gt;CoreModule</title>
<path fill="none" stroke="black" d="M962.91,-84.91C962.91,-84.91 962.91,-103.79 962.91,-103.79"/>
<polygon fill="black" stroke="black" points="959.41,-103.79 962.91,-113.79 966.41,-103.79 959.41,-103.79"/>
</g>
<!-- PdfreaderComponent -->
<g id="node7" class="node">
<title>PdfreaderComponent</title>
<polygon fill="#ffffb3" stroke="black" points="799.74,-84.8 664.26,-84.8 664.26,-48.8 799.74,-48.8 799.74,-84.8"/>
<text text-anchor="middle" x="732" y="-62.6" font-family="Times,serif" font-size="14.00">PdfreaderComponent</text>
</g>
<!-- PdfreaderComponent&#45;&gt;CoreModule -->
<g id="edge7" class="edge">
<title>PdfreaderComponent&#45;&gt;CoreModule</title>
<path fill="none" stroke="black" d="M762.82,-84.92C762.82,-99.58 762.82,-117.8 762.82,-117.8 762.82,-117.8 929.5,-117.8 929.5,-117.8"/>
<polygon fill="black" stroke="black" points="929.5,-121.3 939.5,-117.8 929.5,-114.3 929.5,-121.3"/>
</g>
<!-- SearchPipe -->
<g id="node8" class="node">
<title>SearchPipe</title>
<polygon fill="#ffffb3" stroke="black" points="646.47,-84.8 567.53,-84.8 567.53,-48.8 646.47,-48.8 646.47,-84.8"/>
<text text-anchor="middle" x="607" y="-62.6" font-family="Times,serif" font-size="14.00">SearchPipe</text>
</g>
<!-- SearchPipe&#45;&gt;CoreModule -->
<g id="edge8" class="edge">
<title>SearchPipe&#45;&gt;CoreModule</title>
<path fill="none" stroke="black" d="M607,-84.81C607,-100.85 607,-121.8 607,-121.8 607,-121.8 929.5,-121.8 929.5,-121.8"/>
<polygon fill="black" stroke="black" points="929.5,-125.3 939.5,-121.8 929.5,-118.3 929.5,-125.3"/>
</g>
<!-- StickyHeaderDirective -->
<g id="node9" class="node">
<title>StickyHeaderDirective</title>
<polygon fill="#ffffb3" stroke="black" points="549.27,-84.8 404.73,-84.8 404.73,-48.8 549.27,-48.8 549.27,-84.8"/>
<text text-anchor="middle" x="477" y="-62.6" font-family="Times,serif" font-size="14.00">StickyHeaderDirective</text>
</g>
<!-- StickyHeaderDirective&#45;&gt;CoreModule -->
<g id="edge9" class="edge">
<title>StickyHeaderDirective&#45;&gt;CoreModule</title>
<path fill="none" stroke="black" d="M496.56,-84.82C496.56,-102.17 496.56,-125.8 496.56,-125.8 496.56,-125.8 929.4,-125.8 929.4,-125.8"/>
<polygon fill="black" stroke="black" points="929.4,-129.3 939.4,-125.8 929.4,-122.3 929.4,-129.3"/>
</g>
<!-- ToolbarNotificationComponent -->
<g id="node10" class="node">
<title>ToolbarNotificationComponent</title>
<polygon fill="#ffffb3" stroke="black" points="386.8,-84.8 193.2,-84.8 193.2,-48.8 386.8,-48.8 386.8,-84.8"/>
<text text-anchor="middle" x="290" y="-62.6" font-family="Times,serif" font-size="14.00">ToolbarNotificationComponent</text>
</g>
<!-- ToolbarNotificationComponent&#45;&gt;CoreModule -->
<g id="edge10" class="edge">
<title>ToolbarNotificationComponent&#45;&gt;CoreModule</title>
<path fill="none" stroke="black" d="M290,-85.02C290,-103.63 290,-129.8 290,-129.8 290,-129.8 929.65,-129.8 929.65,-129.8"/>
<polygon fill="black" stroke="black" points="929.65,-133.3 939.65,-129.8 929.65,-126.3 929.65,-133.3"/>
</g>
<!-- VideoPlayerComponent -->
<g id="node11" class="node">
<title>VideoPlayerComponent</title>
<polygon fill="#ffffb3" stroke="black" points="175.81,-84.8 24.19,-84.8 24.19,-48.8 175.81,-48.8 175.81,-84.8"/>
<text text-anchor="middle" x="100" y="-62.6" font-family="Times,serif" font-size="14.00">VideoPlayerComponent</text>
</g>
<!-- VideoPlayerComponent&#45;&gt;CoreModule -->
<g id="edge11" class="edge">
<title>VideoPlayerComponent&#45;&gt;CoreModule</title>
<path fill="none" stroke="black" d="M100,-85.11C100,-104.95 100,-133.8 100,-133.8 100,-133.8 929.51,-133.8 929.51,-133.8"/>
<polygon fill="black" stroke="black" points="929.51,-137.3 939.51,-133.8 929.51,-130.3 929.51,-137.3"/>
</g>
<!-- CapslockDirective  -->
<g id="node14" class="node">
<title>CapslockDirective </title>
<polygon fill="#fb8072" stroke="black" points="1580.68,-214.8 1457.32,-214.8 1457.32,-178.8 1580.68,-178.8 1580.68,-214.8"/>
<text text-anchor="middle" x="1519" y="-192.6" font-family="Times,serif" font-size="14.00">CapslockDirective </text>
</g>
<!-- CoreModule&#45;&gt;CapslockDirective  -->
<g id="edge13" class="edge">
<title>CoreModule&#45;&gt;CapslockDirective </title>
<path fill="none" stroke="black" stroke-dasharray="5,2" d="M1026.46,-137.8C1150.61,-137.8 1497.97,-137.8 1497.97,-137.8 1497.97,-137.8 1497.97,-168.78 1497.97,-168.78"/>
<polygon fill="black" stroke="black" points="1494.47,-168.78 1497.97,-178.78 1501.47,-168.78 1494.47,-168.78"/>
</g>
<!-- FooterComponent  -->
<g id="node15" class="node">
<title>FooterComponent </title>
<polygon fill="#fb8072" stroke="black" points="1438.88,-214.8 1317.12,-214.8 1317.12,-178.8 1438.88,-178.8 1438.88,-214.8"/>
<text text-anchor="middle" x="1378" y="-192.6" font-family="Times,serif" font-size="14.00">FooterComponent </text>
</g>
<!-- CoreModule&#45;&gt;FooterComponent  -->
<g id="edge14" class="edge">
<title>CoreModule&#45;&gt;FooterComponent </title>
<path fill="none" stroke="black" stroke-dasharray="5,2" d="M1026.4,-141.8C1129.01,-141.8 1378,-141.8 1378,-141.8 1378,-141.8 1378,-168.79 1378,-168.79"/>
<polygon fill="black" stroke="black" points="1374.5,-168.79 1378,-178.79 1381.5,-168.79 1374.5,-168.79"/>
</g>
<!-- HeaderComponent  -->
<g id="node16" class="node">
<title>HeaderComponent </title>
<polygon fill="#fb8072" stroke="black" points="1299.74,-214.8 1174.26,-214.8 1174.26,-178.8 1299.74,-178.8 1299.74,-214.8"/>
<text text-anchor="middle" x="1237" y="-192.6" font-family="Times,serif" font-size="14.00">HeaderComponent </text>
</g>
<!-- CoreModule&#45;&gt;HeaderComponent  -->
<g id="edge15" class="edge">
<title>CoreModule&#45;&gt;HeaderComponent </title>
<path fill="none" stroke="black" stroke-dasharray="5,2" d="M1026.41,-145.8C1094.35,-145.8 1218.16,-145.8 1218.16,-145.8 1218.16,-145.8 1218.16,-168.68 1218.16,-168.68"/>
<polygon fill="black" stroke="black" points="1214.66,-168.68 1218.16,-178.68 1221.66,-168.68 1214.66,-168.68"/>
</g>
<!-- LandingHeaderComponent  -->
<g id="node17" class="node">
<title>LandingHeaderComponent </title>
<polygon fill="#fb8072" stroke="black" points="1155.9,-214.8 984.1,-214.8 984.1,-178.8 1155.9,-178.8 1155.9,-214.8"/>
<text text-anchor="middle" x="1070" y="-192.6" font-family="Times,serif" font-size="14.00">LandingHeaderComponent </text>
</g>
<!-- CoreModule&#45;&gt;LandingHeaderComponent  -->
<g id="edge16" class="edge">
<title>CoreModule&#45;&gt;LandingHeaderComponent </title>
<path fill="none" stroke="black" stroke-dasharray="5,2" d="M1005.22,-149.91C1005.22,-149.91 1005.22,-168.79 1005.22,-168.79"/>
<polygon fill="black" stroke="black" points="1001.72,-168.79 1005.22,-178.79 1008.72,-168.79 1001.72,-168.79"/>
</g>
<!-- PdfreaderComponent  -->
<g id="node18" class="node">
<title>PdfreaderComponent </title>
<polygon fill="#fb8072" stroke="black" points="965.74,-214.8 826.26,-214.8 826.26,-178.8 965.74,-178.8 965.74,-214.8"/>
<text text-anchor="middle" x="896" y="-192.6" font-family="Times,serif" font-size="14.00">PdfreaderComponent </text>
</g>
<!-- CoreModule&#45;&gt;PdfreaderComponent  -->
<g id="edge17" class="edge">
<title>CoreModule&#45;&gt;PdfreaderComponent </title>
<path fill="none" stroke="black" stroke-dasharray="5,2" d="M952.62,-149.91C952.62,-149.91 952.62,-168.79 952.62,-168.79"/>
<polygon fill="black" stroke="black" points="949.12,-168.79 952.62,-178.79 956.12,-168.79 949.12,-168.79"/>
</g>
<!-- SearchPipe  -->
<g id="node19" class="node">
<title>SearchPipe </title>
<polygon fill="#fb8072" stroke="black" points="808.48,-214.8 725.52,-214.8 725.52,-178.8 808.48,-178.8 808.48,-214.8"/>
<text text-anchor="middle" x="767" y="-192.6" font-family="Times,serif" font-size="14.00">SearchPipe </text>
</g>
<!-- CoreModule&#45;&gt;SearchPipe  -->
<g id="edge18" class="edge">
<title>CoreModule&#45;&gt;SearchPipe </title>
<path fill="none" stroke="black" stroke-dasharray="5,2" d="M939.68,-145.8C886.72,-145.8 804.05,-145.8 804.05,-145.8 804.05,-145.8 804.05,-168.68 804.05,-168.68"/>
<polygon fill="black" stroke="black" points="800.55,-168.68 804.05,-178.68 807.55,-168.68 800.55,-168.68"/>
</g>
<!-- StickyHeaderDirective  -->
<g id="node20" class="node">
<title>StickyHeaderDirective </title>
<polygon fill="#fb8072" stroke="black" points="707.77,-214.8 560.23,-214.8 560.23,-178.8 707.77,-178.8 707.77,-214.8"/>
<text text-anchor="middle" x="634" y="-192.6" font-family="Times,serif" font-size="14.00">StickyHeaderDirective </text>
</g>
<!-- CoreModule&#45;&gt;StickyHeaderDirective  -->
<g id="edge19" class="edge">
<title>CoreModule&#45;&gt;StickyHeaderDirective </title>
<path fill="none" stroke="black" stroke-dasharray="5,2" d="M939.5,-141.8C857,-141.8 686.01,-141.8 686.01,-141.8 686.01,-141.8 686.01,-168.79 686.01,-168.79"/>
<polygon fill="black" stroke="black" points="682.51,-168.79 686.01,-178.79 689.51,-168.79 682.51,-168.79"/>
</g>
<!-- VideoPlayerComponent  -->
<g id="node21" class="node">
<title>VideoPlayerComponent </title>
<polygon fill="#fb8072" stroke="black" points="542.31,-214.8 387.69,-214.8 387.69,-178.8 542.31,-178.8 542.31,-214.8"/>
<text text-anchor="middle" x="465" y="-192.6" font-family="Times,serif" font-size="14.00">VideoPlayerComponent </text>
</g>
<!-- CoreModule&#45;&gt;VideoPlayerComponent  -->
<g id="edge20" class="edge">
<title>CoreModule&#45;&gt;VideoPlayerComponent </title>
<path fill="none" stroke="black" stroke-dasharray="5,2" d="M939.44,-137.8C812.31,-137.8 450.71,-137.8 450.71,-137.8 450.71,-137.8 450.71,-168.78 450.71,-168.78"/>
<polygon fill="black" stroke="black" points="447.21,-168.78 450.71,-178.78 454.21,-168.78 447.21,-168.78"/>
</g>
<!-- MaterialModule -->
<g id="node13" class="node">
<title>MaterialModule</title>
<polygon fill="#8dd3c7" stroke="black" points="1878.47,-84.8 1875.47,-88.8 1854.47,-88.8 1851.47,-84.8 1771.53,-84.8 1771.53,-48.8 1878.47,-48.8 1878.47,-84.8"/>
<text text-anchor="middle" x="1825" y="-62.6" font-family="Times,serif" font-size="14.00">MaterialModule</text>
</g>
<!-- MaterialModule&#45;&gt;CoreModule -->
<g id="edge12" class="edge">
<title>MaterialModule&#45;&gt;CoreModule</title>
<path fill="none" stroke="black" d="M1825,-85.11C1825,-104.95 1825,-133.8 1825,-133.8 1825,-133.8 1036.5,-133.8 1036.5,-133.8"/>
<polygon fill="black" stroke="black" points="1036.5,-130.3 1026.5,-133.8 1036.5,-137.3 1036.5,-130.3"/>
</g>
</g>
</svg>
