<svg xmlns="http://www.w3.org/2000/svg" xmlns:xlink="http://www.w3.org/1999/xlink" width="1280" height="600" viewBox="0 0 1366 1069">
  <defs>
    <linearGradient id="linear-gradient" x1="0.038" y1="0.5" x2="1" y2="0.5" gradientUnits="objectBoundingBox">
      <stop offset="0" stop-color="#e1ecf6"/>
      <stop offset="1" stop-color="#eff4f8"/>
    </linearGradient>
    <linearGradient id="linear-gradient-9" x1="0.5" x2="0.5" y2="1" gradientUnits="objectBoundingBox">
      <stop offset="0" stop-color="#bfd8f9"/>
      <stop offset="1" stop-color="#8c9bea"/>
    </linearGradient>
    <linearGradient id="linear-gradient-10" x1="0.5" x2="0.5" y2="1" gradientUnits="objectBoundingBox">
      <stop offset="0" stop-color="#c3dcfa"/>
      <stop offset="1" stop-color="#8896e9"/>
    </linearGradient>
    <linearGradient id="linear-gradient-11" x1="0.5" x2="0.5" y2="1" gradientUnits="objectBoundingBox">
      <stop offset="0" stop-color="#da5259"/>
      <stop offset="1" stop-color="#ff7076"/>
    </linearGradient>
  </defs>
  <g id="Group_7615" data-name="Group 7615" transform="translate(0 -13)">
    <rect id="Rectangle_2667" data-name="Rectangle 2667" width="74" height="28" transform="translate(497 190)" fill="url(#linear-gradient)"/>
    <rect id="Rectangle_2672" data-name="Rectangle 2672" width="60" height="25" transform="translate(152 290)" fill="url(#linear-gradient)"/>
    <rect id="Rectangle_2673" data-name="Rectangle 2673" width="74" height="25" transform="translate(115 319)" fill="url(#linear-gradient)"/>
    <rect id="Rectangle_2674" data-name="Rectangle 2674" width="37" height="25" transform="translate(115 350)" fill="url(#linear-gradient)"/>
    <rect id="Rectangle_2668" data-name="Rectangle 2668" width="72" height="26" transform="translate(829 195)" fill="url(#linear-gradient)"/>
    <rect id="Rectangle_2669" data-name="Rectangle 2669" width="52" height="27" transform="translate(829 134)" fill="url(#linear-gradient)"/>
    <rect id="Rectangle_2670" data-name="Rectangle 2670" width="57" height="24" transform="translate(1174 360)" fill="url(#linear-gradient)"/>
    <rect id="Rectangle_2671" data-name="Rectangle 2671" width="57" height="24" transform="translate(1199 388)" fill="url(#linear-gradient)"/>
    <g id="Group_7609" data-name="Group 7609" transform="translate(0 -24)">
      <g id="Group_7602" data-name="Group 7602" transform="translate(0 15)">
        <text id="_403" data-name="403" transform="translate(203 627)" fill="#ebf1f6" stroke="#ebf1f6" stroke-width="50" font-size="530" font-family="Roboto-Regular, Roboto" letter-spacing="0.074em"><tspan x="0" y="0">403</tspan></text>
        <path id="Path_7244" data-name="Path 7244" d="M3583.205,6699.181s164.666-71.025,100.722-112.637" transform="translate(-3222 -6134)" fill="none" stroke="#bdcdd8" stroke-width="2" stroke-dasharray="6 4"/>
        <path id="Path_7245" data-name="Path 7245" d="M3583.205,6594.434s-80.906,20.508-106.541-10.254-4.1-61.012,17.432-72.8" transform="translate(-3221 -6134)" fill="none" stroke="#bdcdd8" stroke-width="2" stroke-dasharray="6 4"/>
        <path id="Path_7246" data-name="Path 7246" d="M3684.253,6465.5s25.128-23.255-29.46-32.787-129.1,0-167.23-38.125" transform="translate(-3222 -6134)" fill="none" stroke="#bccdd8" stroke-width="2" stroke-dasharray="6 4"/>
      </g>
      <g id="Group_7608" data-name="Group 7608" transform="translate(-198 -4)">
        <g id="Group_7607" data-name="Group 7607">
          <g id="Rectangle_2675" data-name="Rectangle 2675" transform="translate(792 301)" fill="#fff" stroke="#6e7e9d" stroke-width="5">
            <path d="M93.762,0h0A85.238,85.238,0,0,1,179,85.238V285a0,0,0,0,1,0,0H0a0,0,0,0,1,0,0V93.762A93.762,93.762,0,0,1,93.762,0Z" stroke="none"/>
            <path d="M93.744,2.5h0A82.756,82.756,0,0,1,176.5,85.256V280.378a2.122,2.122,0,0,1-2.122,2.122H4.622A2.122,2.122,0,0,1,2.5,280.378V93.744A91.244,91.244,0,0,1,93.744,2.5Z" fill="none"/>
          </g>
          <line id="Line_88" data-name="Line 88" y2="274" transform="translate(880.5 306.5)" fill="none" stroke="#ecebf2" stroke-width="2"/>
          <line id="Line_89" data-name="Line 89" y2="251" transform="translate(826.5 329.5)" fill="none" stroke="#ecebf2" stroke-width="2"/>
          <line id="Line_90" data-name="Line 90" y2="258" transform="translate(933.5 322.5)" fill="none" stroke="#ecebf2" stroke-width="2"/>
          <g id="Group_7603" data-name="Group 7603" transform="translate(-3)">
            <g id="Ellipse_297" data-name="Ellipse 297" transform="translate(853 361)" fill="#fff" stroke="#6e7e9d" stroke-width="2">
              <circle cx="32" cy="32" r="32" stroke="none"/>
              <circle cx="32" cy="32" r="31" fill="none"/>
            </g>
            <g id="Ellipse_298" data-name="Ellipse 298" transform="translate(860 368)" fill="#fff" stroke="#6e7e9d" stroke-width="1">
              <circle cx="25" cy="25" r="25" stroke="none"/>
              <circle cx="25" cy="25" r="24.5" fill="none"/>
            </g>
          </g>
          <g id="Group_7605" data-name="Group 7605" transform="translate(0 10)">
            <g id="Ellipse_300" data-name="Ellipse 300" transform="translate(821 456)" fill="#fff" stroke="#6e7e9d" stroke-width="1">
              <circle cx="5" cy="5" r="5" stroke="none"/>
              <circle cx="5" cy="5" r="4.5" fill="none"/>
            </g>
            <g id="Ellipse_301" data-name="Ellipse 301" transform="translate(825 459)" fill="#6e7e9d" stroke="#6e7e9d" stroke-width="1">
              <ellipse cx="1" cy="2" rx="1" ry="2" stroke="none"/>
              <ellipse cx="1" cy="2" rx="0.5" ry="1.5" fill="none"/>
            </g>
          </g>
          <g id="Group_7604" data-name="Group 7604" transform="translate(6 4.328)">
            <g id="Ellipse_299" data-name="Ellipse 299" transform="translate(815 484.672)" fill="#fff" stroke="#6e7e9d" stroke-width="1">
              <ellipse cx="6.5" cy="7" rx="6.5" ry="7" stroke="none"/>
              <ellipse cx="6.5" cy="7" rx="6" ry="6.5" fill="none"/>
            </g>
            <line id="Line_87" data-name="Line 87" x2="12.131" transform="translate(821.369 491.975)" fill="none" stroke="#6e7e9d" stroke-linecap="round" stroke-width="3"/>
          </g>
          <g id="Group_7606" data-name="Group 7606" transform="translate(69.217 -109.59) rotate(7)">
            <rect id="Rectangle_2676" data-name="Rectangle 2676" width="45" height="18" transform="translate(905 453)" fill="#7082a0"/>
            <text id="CLOSE" transform="translate(912 466)" fill="#fff" font-size="10" font-family="Roboto-Regular, Roboto"><tspan x="0" y="0">CLOSE</tspan></text>
          </g>
        </g>
        <path id="Path_7247" data-name="Path 7247" d="M4143.338,6585.5l12.027-15.327,17.233,19.388" transform="translate(-3222 -6134)" fill="none" stroke="#7082a0" stroke-width="0.5"/>
        <g id="Ellipse_302" data-name="Ellipse 302" transform="translate(932.5 436)" fill="#fff" stroke="#7082a0" stroke-width="1">
          <circle cx="1" cy="1" r="1" stroke="none"/>
          <circle cx="1" cy="1" r="0.5" fill="none"/>
        </g>
      </g>
    </g>
    <path id="Path_7266" data-name="Path 7266" d="M3739.438,6697.275l-4.488,7.181,7,3.411,3.949-8.437-5.744-2.154" transform="translate(-3222 -6134)" fill="#edaa90"/>
    <path id="Path_7268" data-name="Path 7268" d="M3734.978,6704.329a22.471,22.471,0,0,1-4.177,0c-1.307-.245-1.879,3.841-1.879,4.413s1.552,3.023,3.268,4.494,5.965,3.1,6.455,3.35,2.86-3.676,3.35-4.739,2.288-3.758,2.451-4.821-.817-.817-2.451,0-3.268-.653-3.922-1.471S3734.978,6704.329,3734.978,6704.329Z" transform="translate(-3222 -6134)" fill="url(#linear-gradient-9)"/>
    <path id="Path_7260" data-name="Path 7260" d="M3771.848,6620.446c-.138,3.729-2.624,10.081,3.176,12.7s8.838,2.071,8.838,2.071v4.143s4.971-3.176,8.561-2.071c-.276-6.214,0-10.909,0-10.909s-.138-9.114-1.1-10.495-5.8-3.728-5.8-3.728h-5.8S3771.986,6616.717,3771.848,6620.446Z" transform="translate(-3222 -6134)" fill="#fbd2ba"/>
    <path id="Path_7264" data-name="Path 7264" d="M3736.358,6696.53l9.8,4.695,9.528-20.161-5.938-10.081h-5.523Z" transform="translate(-3222 -6134)" fill="#2b4276"/>
    <path id="Path_7265" data-name="Path 7265" d="M3727.935,6695.977l-.342.684-3.387,6.773,5.8,2.209,4.971-9.666-4.971-1.381" transform="translate(-3222 -6134)" fill="#fbd2ba"/>
    <path id="Path_7259" data-name="Path 7259" d="M3778.213,6623.675s-12.386-5.206-15.438-10.95-.718-8.976,2.513-10.053,4.667,4.128,15.438,2.333,17.413,5.745,14.9,15.618-3.949,12.386-6.283,12.386-5.924-3.231-5.565-4.129,3.052-6.1,3.231-8.257-2.872-4.308-4.488-4.488-4.308,1.077-4.308,3.59Z" transform="translate(-3222 -6134)" fill="#363366"/>
    <path id="Path_7263" data-name="Path 7263" d="M3727.053,6695.3l8.258,3.411,13.284-25.132s17.413,22.618,22.8,29.081,23.337,23.517,38.236,5.745c-30.876-11.489-31.774-14.361-31.774-14.361v-12.925l.9-12.566s-19.746-16.336-22.26-18.131-12.925-5.565-18.31,8.437C3734.592,6670.53,3727.053,6695.3,3727.053,6695.3Z" transform="translate(-3222 -6134)" fill="#3a4d91"/>
    <path id="Path_7262" data-name="Path 7262" d="M3747.517,6658.862s16.515,11.848,21.362,15.079,6.821,1.616,6.642.718,0-6.821,0-6.821h8.437s.18,9.694-1.257,15.438-9.335,4.487-12.746,1.256-26.388-23.336-26.388-23.336Z" transform="translate(-3222 -6134)" fill="#fbd2ba"/>
    <g id="Rectangle_2677" data-name="Rectangle 2677" transform="matrix(0.695, -0.719, 0.719, 0.695, 507.244, 514.084)" fill="#fff" stroke="#89bee5" stroke-width="2">
      <rect width="17" height="23" rx="4" stroke="none"/>
      <rect x="1" y="1" width="15" height="21" rx="3" fill="none"/>
    </g>
    <path id="Path_7261" data-name="Path 7261" d="M3772.829,6668.376s-2.872-16.156,2.693-22.619,14-8.258,20.105-7.719,14.182-.179,15.977,26.209,1.795,39.492-4.667,43.442-22.8.718-34.107-12.027c0-1.077,1.257-6.821,2.693-8.257,6.1.359,8.437-6.643,8.976-10.412a41.126,41.126,0,0,0,0-8.616Z" transform="translate(-3222 -6134)" fill="#16c0c8"/>
    <path id="Path_7267" data-name="Path 7267" d="M3730.65,6704.132c.245-1.144.4,8.041-.911,10.329s-6.373,2.86-8.661.491-20.019-9.233-21.571-12.011.49-5.8,4.412-3.922a49.859,49.859,0,0,0,8.089,2.942l.735-1.471,4.576.408-.735,1.716s2.941-.082,5.474,0,3.187,2.043,4.085,2.942S3730.4,6705.276,3730.65,6704.132Z" transform="translate(-3222 -6134)" fill="url(#linear-gradient-10)"/>
    <line id="Line_91" data-name="Line 91" x2="1017" transform="translate(174.5 582.5)" fill="none" stroke="#b5cadb" stroke-width="10"/>
    <rect id="Rectangle_2678" data-name="Rectangle 2678" width="1366" height="495" transform="translate(0 587)" fill="#fff"/>
    <g id="Group_7612" data-name="Group 7612">
      <path id="Path_7248" data-name="Path 7248" d="M4047.835,6533.729s-7,19.208,11.489,21a37.208,37.208,0,0,1,0,6.822h10.232v-21.9h-8.078l-8.078-7.54Z" transform="translate(-3222 -6134)" fill="#fec6a4"/>
      <ellipse id="Ellipse_303" data-name="Ellipse 303" cx="56" cy="9" rx="56" ry="9" transform="translate(777 613)" fill="#ebedef"/>
      <path id="Path_7249" data-name="Path 7249" d="M4061.658,6544.859s-5.744-7.719-10.771-10.053-10.771-6.1-8.8-14.361,9.155-10.053,14.9-3.59,3.949,5.206,8.258,6.821,17.772,9.335,9.694,22.8c-3.59,5.385-6.642,6.283-6.642,4.667s.9-5.386,0-8.258S4063.273,6539.653,4061.658,6544.859Z" transform="translate(-3222 -6134)" fill="#3a3667"/>
      <path id="Path_7251" data-name="Path 7251" d="M4052.986,6568.514v-7.18l6.352-.553h14.637s5.385,2.485,4.557,7.733S4052.986,6568.514,4052.986,6568.514Z" transform="translate(-3222 -6134)" fill="#f56e76"/>
      <g id="Group_7611" data-name="Group 7611">
        <path id="Path_7255" data-name="Path 7255" d="M4073.842,6735.577v8.866l6.628,3.314h2.348l-1.381-14.637Z" transform="translate(-3222 -6134)" fill="#fec6a4"/>
        <path id="Path_7256" data-name="Path 7256" d="M4048.019,6734.363v10.909s-.276,1.381-3.038,2.209-7.181,1.381-7.733,1.657-2.486-.69-2.486-.69l.552-1.8a22.533,22.533,0,0,1,2.486-2.347,7.869,7.869,0,0,0,1.795-2.209v-8.838l4-2.624Z" transform="translate(-3222 -6134)" fill="#fec6a4"/>
        <path id="Path_7257" data-name="Path 7257" d="M4046.69,6743.633c-.106-.956,1.7-.531,2.868,0s.956,6.161.744,8.285-4.355,2.549-12.428,2.549-22.731.212-25.068,0-3.4-4.461,1.168-4.036,9.879-.106,12.959-2.018,6.267-4.25,8.6-4.78,2.974-.637,3.505,1.063,2.974,1.805,4.461,1.7S4046.8,6744.589,4046.69,6743.633Z" transform="translate(-3222 -6134)" fill="#393567"/>
        <path id="Path_7258" data-name="Path 7258" d="M4072.289,6743.064c-.956.038-4.78,4.924-12.64,6.836s-6.9,2.655-6.9,4.143,21.35.956,25.281.956,6.9-.212,6.9-.956-.213-8.179-.744-9.241-.956-.85-1.7-.85.531.637,0,1.806-2.337,1.168-4.461.744-2.868-1.274-3.4-2.549S4073.245,6743.026,4072.289,6743.064Z" transform="translate(-3222 -6134)" fill="#393567"/>
      </g>
      <path id="Path_7254" data-name="Path 7254" d="M4060.766,6666.22s0,14.361,1.077,22.8.538,8.976,4.847,23.516a154.207,154.207,0,0,1,5.385,24.414s10.052-1.795,10.232-2.333-4.129-29.44-5.924-39.672,1.077-21.721,1.975-31.594,2.154-25.491,2.154-25.491a52.454,52.454,0,0,0-7.36,5.744C4070.281,6646.473,4060.766,6666.22,4060.766,6666.22Z" transform="translate(-3222 -6134)" fill="url(#linear-gradient-11)"/>
      <path id="Path_7253" data-name="Path 7253" d="M4040.072,6637.89s-6.067,26.393-3.944,53.394,3.944,44.293,3.944,44.293h8.494s3.944-38.529,3.944-45.81,2.73-12.742,8.191-21.236,15.776-24.877,16.382-27.3-10.011-.607-18.809,0S4040.072,6637.89,4040.072,6637.89Z" transform="translate(-3222 -6134)" fill="#ff7076"/>
      <path id="Path_7252" data-name="Path 7252" d="M4006.731,6589.234c-.9-.539-3.231.152-3.59-1.1s.9-2.514,1.436-3.231a.631.631,0,0,1,1.077,0s.718-2.513,0-4.128,1.975.358,4.488,4.128,10.232,11.31,13.284,14.182,6.642,3.052,7.36,1.975,3.77-4.667,3.77-4.667l9.693,5.234s-7.718,11.641-10.95,13.795-5.206,1.077-8.617-2.873-13.463-18.489-14.541-20.285A8.382,8.382,0,0,0,4006.731,6589.234Z" transform="translate(-3222 -6134)" fill="#fec6a4"/>
      <path id="Path_7250" data-name="Path 7250" d="M4033.1,6595.3s6.076,4.557,8.561,5.938,2.347,3.452,1.8,4.143-1.933,9.252-3.314,16.985-1.933,12.98-.828,14.637,12.29,8.285,33.417,4.971c5.385-1.381,8.423-3.039,9.114-3.867s-1.657-26.513,0-36.869c.48-3,1.24-6.587,1.884-10.614,1.414-8.825,1.9-18.806-5.06-23.217-3.59-2.762-20.161-1.381-25.408,0s-12.98,15.742-16.156,20.989S4033.1,6595.3,4033.1,6595.3Z" transform="translate(-3222 -6134)" fill="#393668"/>
    </g>
    <g id="send" transform="translate(234.054 231.389) rotate(-19)">
      <path id="Path_7272" data-name="Path 7272" d="M.257,45.215a.523.523,0,0,1,.51-.057L29.458,56.737l3.4,1.41L22.586,62.3h-.011v.006L19.828,71.9a.566.566,0,0,1-.946.244l-5.721-5.852L5.44,69.329a1.118,1.118,0,0,1-1.529-.872L.013,45.8A.558.558,0,0,1,.257,45.215Zm16.637,19.56-.011-.04-.017.006Z" transform="translate(0 -45.117)" fill="#92b0ff"/>
      <path id="Path_7273" data-name="Path 7273" d="M217.776,352.487l5.721,5.852a.623.623,0,0,1-.142-.255l-1.847-7.115-.028-.034-2.458,1.031-1.1.465Z" transform="translate(-204.615 -331.311)" fill="#5575cb"/>
      <path id="Path_7274" data-name="Path 7274" d="M160.132,47.124l16.65,19.5.017-.006.011.04,1.847,7.115a.622.622,0,0,0,.142.255.566.566,0,0,0,.946-.244l2.747-9.59v-.006h.006v-.006Z" transform="translate(-159.917 -46.995)" fill="#1f3777"/>
    </g>
  </g>
</svg>
