<svg xmlns="http://www.w3.org/2000/svg" width="316.591" height="162.827" viewBox="0 0 316.591 162.827">
  <g id="Group_379" data-name="Group 379" transform="translate(-1884.215 -705.768)">
    <g id="Group_366" data-name="Group 366" transform="translate(1896.297 718.16)">
      <path id="Path_1564" data-name="Path 1564" d="M2142.414,755.551c-26.374-24.282-62.541-39.262-102.44-39.262a152.809,152.809,0,0,0-76.43,20.2,145.3,145.3,0,0,0-29.791,22.68C1909,783.69,1893.82,816.788,1893.82,853.2h94.992a46.127,46.127,0,0,1,13.255-32.193,51.059,51.059,0,0,1,13.844-10.117,53.692,53.692,0,0,1,24.062-5.62h0a52.36,52.36,0,0,1,40.371,18.484,45.838,45.838,0,0,1,10.791,29.445h94.991C2186.13,814.965,2169.4,780.388,2142.414,755.551Z" transform="translate(-1893.82 -716.289)" fill="#00b300"/>
    </g>
    <g id="Group_367" data-name="Group 367" transform="translate(1896.297 760.208)">
      <path id="Path_1565" data-name="Path 1565" d="M1933.619,735.53l68.086,62.392a46.812,46.812,0,0,0-13.211,32.474H1893.82C1893.82,793.66,1908.947,760.273,1933.619,735.53Z" transform="translate(-1893.82 -735.53)" fill="#e7001b"/>
    </g>
    <g id="Group_368" data-name="Group 368" transform="translate(1936.077 718.157)">
      <path id="Path_1566" data-name="Path 1566" d="M2017.382,716.288v89.768a52.136,52.136,0,0,0-37.78,15.875l-68.087-62.392C1938.07,732.905,1975.68,716.288,2017.382,716.288Z" transform="translate(-1911.516 -716.288)" fill="#ffcf00"/>
    </g>
    <g id="Group_369" data-name="Group 369" transform="translate(2042.706 718.16)">
      <path id="Path_1567" data-name="Path 1567" d="M2060.714,755.9,1998.857,824.7a51.931,51.931,0,0,0-40.236-18.647l0-89.768C1998.383,716.289,2034.429,731.4,2060.714,755.9Z" transform="translate(-1958.618 -716.289)" fill="#f29100"/>
    </g>
    <path id="Path_1568" data-name="Path 1568" d="M2039.2,716.821c-75.657,0-137.79,59.559-144.708,135.651h27.816c5.587-61.785,55.777-110.143,116.892-110.143s111.3,48.358,116.89,110.143H2183.9C2176.989,776.38,2114.854,716.821,2039.2,716.821Z" transform="translate(3.313 2.535)" fill="#1d1d1b" opacity="0.3"/>
    <path id="Path_1569" data-name="Path 1569" d="M2042.141,714.79c-78.584,0-143.123,61.562-150.306,140.217h28.893c5.8-63.864,57.935-113.85,121.413-113.85s115.607,49.986,121.41,113.85h28.893C2185.262,776.352,2120.723,714.79,2042.141,714.79Z" transform="translate(0 0)" fill="#e5e5e5"/>
    <path id="Path_1570" data-name="Path 1570" d="M2051.477,808.972a59.907,59.907,0,0,0-119.6,0Z" transform="translate(50.462 46.035)" fill="#fff"/>
    <path id="Path_1571" data-name="Path 1571" d="M2038.489,805.339a50.78,50.78,0,0,0-101.385,0Z" transform="translate(54.342 49.677)" fill="#e5e5e5"/>
    <path id="Path_13075" data-name="Path 13075" d="M2012.042,792.873a37.534,37.534,0,0,0-74.937,0Z" transform="translate(67.567 62.161)"/>
    <path id="Path_13076" data-name="Path 13076" d="M1983.654,779.492a23.315,23.315,0,0,0-46.55,0Z" transform="translate(81.761 75.582)" fill="#8a9b8e"/>
    <line id="Line_18" data-name="Line 18" y1="63.498" x2="57.492" transform="translate(2087.304 756.07)" fill="none" stroke="#fff" stroke-width="0.5"/>
    <line id="Line_19" data-name="Line 19" y1="86.667" transform="translate(2042.817 715.53)" fill="none" stroke="#fff" stroke-width="0.5"/>
    <line id="Line_20" data-name="Line 20" x1="62.211" y1="58.35" transform="translate(1936.351 759.916)" fill="none" stroke="#fff" stroke-width="0.5"/>
    <g id="Group_372" data-name="Group 372" transform="translate(1971.863 726.183)">
      <g id="Group_371" data-name="Group 371">
        <path id="Path_1579" data-name="Path 1579" d="M1930.9,732.435l.888-.766a1.66,1.66,0,0,0,.667-1.133,1.55,1.55,0,0,0-.423-1.108,1.371,1.371,0,0,0-.989-.528,1.56,1.56,0,0,0-1.079.438,1.635,1.635,0,0,0-.573.958,1.11,1.11,0,0,0,.268.964l-1.667,1.443a2.688,2.688,0,0,1-.665-1.488,3.1,3.1,0,0,1,.285-1.675,4.389,4.389,0,0,1,1.151-1.513,4.171,4.171,0,0,1,2.642-1.171,2.887,2.887,0,0,1,2.277,1.106,2.342,2.342,0,0,1,.566,1.367,3.016,3.016,0,0,1-.279,1.544,2.588,2.588,0,0,1,3.107.744,2.917,2.917,0,0,1,.738,2.5,4.339,4.339,0,0,1-1.578,2.547,4.118,4.118,0,0,1-2.632,1.117,2.867,2.867,0,0,1-2.318-1.061l1.668-1.446a1.268,1.268,0,0,0,1.025.465,1.708,1.708,0,0,0,1.133-.456,1.737,1.737,0,0,0,.661-1.122,1.445,1.445,0,0,0-.385-1.126,1.551,1.551,0,0,0-2.474-.058l-.884.762Z" transform="translate(-1927.302 -711.126)" fill="#6f6f6e"/>
        <path id="Path_1580" data-name="Path 1580" d="M1936.3,727.934l-3.556,2.408-1-1.472,3.559-2.41Z" transform="translate(-1921.76 -711.62)" fill="#6f6f6e"/>
        <path id="Path_1581" data-name="Path 1581" d="M1940.368,728.555l1.122-.58.813,1.582-1.12.578,1.107,2.136-1.963,1.014-1.1-2.138-4.051,2.093-.726-1.189.755-8.63,1.983-1.025Zm-4.145,2.14,2.185-1.128-1.8-3.484-.014.29Z" transform="translate(-1918.383 -716.692)" fill="#6f6f6e"/>
        <path id="Path_1582" data-name="Path 1582" d="M1942.743,724.989l-4.024,1.5-.625-1.664,4.026-1.508Z" transform="translate(-1913.834 -715.536)" fill="#6f6f6e"/>
        <path id="Path_1583" data-name="Path 1583" d="M1941.41,726.977l-.72-5.64,6.054-1.479.436,1.789-4.293,1.048.3,2.387a3.472,3.472,0,0,1,1.526-.8,3.2,3.2,0,0,1,2.65.366,3.933,3.933,0,0,1,1.527,2.464,4,4,0,0,1,.018,1.98,3.206,3.206,0,0,1-.953,1.591,4.073,4.073,0,0,1-1.83.931,4.311,4.311,0,0,1-1.915.047,3.347,3.347,0,0,1-1.6-.793,3.126,3.126,0,0,1-.915-1.513l2.122-.517a1.633,1.633,0,0,0,.727.935,1.527,1.527,0,0,0,1.149.115,1.355,1.355,0,0,0,.992-.8,2.5,2.5,0,0,0,.033-1.576,2.072,2.072,0,0,0-.8-1.3,1.711,1.711,0,0,0-1.4-.175,1.909,1.909,0,0,0-1.14.7l-.162.245Z" transform="translate(-1910.594 -719.858)" fill="#6f6f6e"/>
      </g>
    </g>
    <g id="Group_374" data-name="Group 374" transform="translate(2075.194 729.876)">
      <g id="Group_373" data-name="Group 373">
        <path id="Path_1584" data-name="Path 1584" d="M1980.529,721.724l-.379,1.776-.21-.045a3.746,3.746,0,0,0-2.518.259,3.17,3.17,0,0,0-1.509,1.826,3.017,3.017,0,0,1,2.376-.416,2.839,2.839,0,0,1,2.039,1.5,4.162,4.162,0,0,1,.266,2.853,4.068,4.068,0,0,1-.868,1.819,3.362,3.362,0,0,1-1.585,1.061,3.824,3.824,0,0,1-2,.072,3.6,3.6,0,0,1-2.52-1.785,4.748,4.748,0,0,1-.377-3.413l.167-.778a7.115,7.115,0,0,1,1.335-2.983,5.027,5.027,0,0,1,2.365-1.688,5.762,5.762,0,0,1,3.062-.133Zm-3.268,5a1.772,1.772,0,0,0-1,.07,1.678,1.678,0,0,0-.78.587l-.142.657a2.972,2.972,0,0,0,.067,1.778,1.4,1.4,0,0,0,1.066.861,1.384,1.384,0,0,0,1.239-.308,2.266,2.266,0,0,0,.733-1.328,2.289,2.289,0,0,0-.126-1.522A1.451,1.451,0,0,0,1977.26,726.723Z" transform="translate(-1973.097 -721.501)" fill="#6f6f6e"/>
        <path id="Path_1585" data-name="Path 1585" d="M1981.309,727.543l-4.069-1.385.573-1.686,4.069,1.385Z" transform="translate(-1967.927 -717.793)" fill="#6f6f6e"/>
        <path id="Path_1586" data-name="Path 1586" d="M1989.823,727.7l-8.145,7.059-2.1-1,7.915-6.562-4.988-2.387.769-1.605,7.081,3.39Z" transform="translate(-1965.009 -719.387)" fill="#6f6f6e"/>
        <path id="Path_1587" data-name="Path 1587" d="M1987.353,731.209l-3.628-2.3.953-1.5,3.631,2.3Z" transform="translate(-1959.834 -714.135)" fill="#6f6f6e"/>
        <path id="Path_1588" data-name="Path 1588" d="M1995.157,733.274a2.6,2.6,0,0,1-1.221.856,2.918,2.918,0,0,1-1.5.072,3.206,3.206,0,0,1,.317,1.641,2.754,2.754,0,0,1-.649,1.544,2.911,2.911,0,0,1-2.257,1.178,4.812,4.812,0,0,1-4.253-3.471,2.9,2.9,0,0,1,.69-2.452,2.75,2.75,0,0,1,1.382-.951,3.192,3.192,0,0,1,1.666-.022,2.87,2.87,0,0,1-.231-1.477,2.606,2.606,0,0,1,.6-1.367,2.887,2.887,0,0,1,2.163-1.155,4.354,4.354,0,0,1,3.99,3.244A2.867,2.867,0,0,1,1995.157,733.274Zm-4.662,2.59a1.61,1.61,0,0,0,.407-1.162,1.684,1.684,0,0,0-1.745-1.427,1.8,1.8,0,0,0-1.463,1.785,1.716,1.716,0,0,0,1.749,1.448A1.6,1.6,0,0,0,1990.494,735.863Zm2.884-3.9a1.545,1.545,0,0,0,.393-1.025,1.4,1.4,0,0,0-1.49-1.23,1.511,1.511,0,0,0-.933.6,1.585,1.585,0,0,0-.409,1.045,1.361,1.361,0,0,0,1.5,1.223A1.623,1.623,0,0,0,1993.379,731.963Z" transform="translate(-1957.562 -713.806)" fill="#6f6f6e"/>
      </g>
    </g>
    <g id="Group_376" data-name="Group 376" transform="translate(2158.45 799.045)">
      <g id="Group_375" data-name="Group 375">
        <path id="Path_1589" data-name="Path 1589" d="M2015.71,759.208a2.784,2.784,0,0,1-1.688-1.389,2.97,2.97,0,0,1-.2-2.558,3.994,3.994,0,0,1,2-2.055,4.251,4.251,0,0,1,2-.513,3.493,3.493,0,0,1,1.875.519,3.7,3.7,0,0,1,1.347,1.466,3.507,3.507,0,0,1,.422,1.985,3.6,3.6,0,0,1-.777,1.913,5.726,5.726,0,0,1-1.866,1.524l-.721.38a6.428,6.428,0,0,1-4.507.811,5.237,5.237,0,0,1-3.325-2.677l-.26-.477,1.63-.856.236.429Q2013.321,760.2,2015.71,759.208Zm.056-1.695a1.544,1.544,0,0,0,.672.688,1.855,1.855,0,0,0,.859.207l.8-.425a3.047,3.047,0,0,0,1.342-1.189,1.329,1.329,0,0,0,.013-1.3,1.293,1.293,0,0,0-1.045-.683,2.592,2.592,0,0,0-1.549.333,2.5,2.5,0,0,0-1.126,1.063A1.354,1.354,0,0,0,2015.766,757.513Z" transform="translate(-2010.002 -752.693)" fill="#6f6f6e"/>
        <path id="Path_1590" data-name="Path 1590" d="M2014.676,761.839l-1.54-4.013,1.661-.641,1.54,4.015Z" transform="translate(-2006.092 -747.086)" fill="#6f6f6e"/>
        <path id="Path_1591" data-name="Path 1591" d="M2013.365,766.782l-.54-2.138,8.243-2.091-1.439-2.351,1.74-.441,2.726,4.057.061.229Z" transform="translate(-2006.479 -743.872)" fill="#6f6f6e"/>
        <path id="Path_1592" data-name="Path 1592" d="M2018.658,771.823a5.608,5.608,0,0,1-3.608-.575,3.326,3.326,0,0,1-1.513-2.646,3.363,3.363,0,0,1,.895-2.891,5.478,5.478,0,0,1,3.314-1.347l2.032-.218a5.549,5.549,0,0,1,3.619.585,3.82,3.82,0,0,1,.6,5.528,5.447,5.447,0,0,1-3.307,1.347Zm2-2.434a4.1,4.1,0,0,0,1.963-.589,1.285,1.285,0,0,0,.5-1.241,1.258,1.258,0,0,0-.722-1.079,3.772,3.772,0,0,0-1.906-.191l-2.69.29a4.248,4.248,0,0,0-1.97.582,1.258,1.258,0,0,0-.53,1.25,1.236,1.236,0,0,0,.756,1.095,4.184,4.184,0,0,0,1.969.164Z" transform="translate(-2005.627 -738.472)" fill="#6f6f6e"/>
      </g>
    </g>
    <g id="Group_378" data-name="Group 378" transform="translate(1912.017 797.546)">
      <g id="Group_377" data-name="Group 377">
        <path id="Path_1593" data-name="Path 1593" d="M1911.819,761.738l-.378,2.172-8.378-1.454.353,2.736-1.767-.306-.837-4.82.041-.234Z" transform="translate(-1900.813 -742.186)" fill="#6f6f6e"/>
        <path id="Path_1594" data-name="Path 1594" d="M1906.6,757.028l-1.23,4.118-1.7-.508,1.228-4.12Z" transform="translate(-1897.255 -746.322)" fill="#6f6f6e"/>
        <path id="Path_1595" data-name="Path 1595" d="M1915.007,755.188l-3.026,6.991-1.387-.6-2.088-4.824a9,9,0,0,0-.864-1.565,2.272,2.272,0,0,0-.908-.782,1.713,1.713,0,0,0-1.218-.117,1.352,1.352,0,0,0-.814.814,1.448,1.448,0,0,0,.007,1.286,2.027,2.027,0,0,0,1.07.933l-.877,2.034a3.652,3.652,0,0,1-1.511-1.182,3.4,3.4,0,0,1-.666-1.78,4.189,4.189,0,0,1,.357-2.034,3.952,3.952,0,0,1,1.819-2.12,2.915,2.915,0,0,1,2.515.052,3.753,3.753,0,0,1,1.371,1.059,9.428,9.428,0,0,1,1.245,2.135l1.441,3.379,1.9-4.386Z" transform="translate(-1898.444 -751.982)" fill="#6f6f6e"/>
      </g>
    </g>
  </g>
</svg>
