<svg xmlns="http://www.w3.org/2000/svg" width="20" height="20" viewBox="0 0 20 20">
  <g id="Group_2317" data-name="Group 2317" transform="translate(0 0)">
    <path id="Path_14730" data-name="Path 14730" d="M10.4.4a10,10,0,1,0,10,10,10,10,0,0,0-10-10Zm2.395,13.808Z" transform="translate(-0.399 -0.4)" fill="#ce5858"/>
    <path id="Path_14847" data-name="Path 14847" d="M13.4,10.661a.636.636,0,0,1-.6-.666V8.268l-3.773,4.2a.559.559,0,0,1-.852,0L6.2,10.268,3.024,13.8a.561.561,0,0,1-.852,0,.723.723,0,0,1,0-.946l3.6-4a.559.559,0,0,1,.852,0l1.974,2.2L11.95,7.329H10.4A.67.67,0,0,1,10.4,6h3a.549.549,0,0,1,.228.053.637.637,0,0,1,.324.36A.73.73,0,0,1,14,6.662V9.995A.636.636,0,0,1,13.4,10.661Z" transform="translate(1.754 0.004)" fill="#fff"/>
  </g>
</svg>
