<svg xmlns="http://www.w3.org/2000/svg" width="40" height="40" viewBox="0 0 40 40">
  <g id="Group_16214" data-name="Group 16214" transform="translate(-3 -5)">
    <path id="Path_16101" data-name="Path 16101" d="M20,0A20,20,0,1,1,0,20,20,20,0,0,1,20,0Z" transform="translate(3 5)" fill="#ffb74d"/>
    <g id="Group_16902" data-name="Group 16902" transform="translate(11.023 12.998)">
      <path id="Path_16720" data-name="Path 16720" d="M42.027,398.1h2.362a.47.47,0,0,1,.469.469V402.6a.47.47,0,0,1-.469.469H42.027a.47.47,0,0,1-.469-.469v-4.027A.47.47,0,0,1,42.027,398.1Z" transform="translate(-39.632 -379.438)" fill="#fe646f" fill-rule="evenodd"/>
      <path id="Path_16721" data-name="Path 16721" d="M76.747,398.1h1.181a.47.47,0,0,1,.469.469V402.6a.47.47,0,0,1-.469.469H76.747Z" transform="translate(-73.171 -379.438)" fill="#fd4755" fill-rule="evenodd"/>
      <path id="Path_16722" data-name="Path 16722" d="M172.71,279.361h2.362a.47.47,0,0,1,.469.469v9.593a.47.47,0,0,1-.469.469H172.71a.47.47,0,0,1-.469-.469V279.83A.47.47,0,0,1,172.71,279.361Z" transform="translate(-164.188 -266.263)" fill="#ffe177" fill-rule="evenodd"/>
      <path id="Path_16723" data-name="Path 16723" d="M207.431,279.361h1.181a.47.47,0,0,1,.469.469v9.593a.47.47,0,0,1-.469.469h-1.181Z" transform="translate(-197.729 -266.263)" fill="#ffd064" fill-rule="evenodd"/>
      <path id="Path_16724" data-name="Path 16724" d="M303.394,327.36h2.362a.47.47,0,0,1,.469.469v7.343a.47.47,0,0,1-.469.469h-2.362a.47.47,0,0,1-.469-.469v-7.343A.47.47,0,0,1,303.394,327.36Z" transform="translate(-288.746 -312.012)" fill="#6cf5c2" fill-rule="evenodd"/>
      <path id="Path_16725" data-name="Path 16725" d="M338.115,327.36H339.3a.47.47,0,0,1,.469.469v7.343a.47.47,0,0,1-.469.469h-1.181Z" transform="translate(-322.287 -312.012)" fill="#00e499" fill-rule="evenodd"/>
      <path id="Path_16726" data-name="Path 16726" d="M434.076,187.04h2.362a.47.47,0,0,1,.469.469V201.43a.47.47,0,0,1-.469.469h-2.362a.47.47,0,0,1-.469-.469V187.509A.47.47,0,0,1,434.076,187.04Z" transform="translate(-413.302 -178.27)" fill="#8ac9fe" fill-rule="evenodd"/>
      <path id="Path_16727" data-name="Path 16727" d="M468.8,187.04h1.181a.47.47,0,0,1,.469.469V201.43a.47.47,0,0,1-.469.469H468.8Z" transform="translate(-446.842 -178.27)" fill="#60b7ff" fill-rule="evenodd"/>
      <g id="Group_16902-2" data-name="Group 16902" transform="translate(2.161 3.177)">
        <circle id="Ellipse_618" data-name="Ellipse 618" cx="1.415" cy="1.415" r="1.415" transform="translate(0 9.172)" fill="#fd4755"/>
        <circle id="Ellipse_619" data-name="Ellipse 619" cx="1.415" cy="1.415" r="1.415" transform="translate(6.126 4.402)" fill="#ffd064"/>
        <circle id="Ellipse_620" data-name="Ellipse 620" cx="1.415" cy="1.415" r="1.415" transform="translate(12.253 5.688)" fill="#00e499"/>
        <circle id="Ellipse_621" data-name="Ellipse 621" cx="1.415" cy="1.415" r="1.415" transform="translate(18.171 0.453) rotate(-9.213)" fill="#60b7ff"/>
      </g>
      <g id="Group_16903" data-name="Group 16903" transform="translate(0.353 0.377)">
        <path id="Path_16728" data-name="Path 16728" d="M12.649,8.672a3.377,3.377,0,0,1,1.232.511l.657-.292.566.566-.292.657a3.375,3.375,0,0,1,.511,1.232l.67.258v.8l-.67.258a3.377,3.377,0,0,1-.511,1.232l.292.657-.566.566-.657-.292a3.375,3.375,0,0,1-1.232.511l-.258.67h-.8l-.258-.67a3.377,3.377,0,0,1-1.232-.511l-.657.292-.566-.566.292-.657a3.375,3.375,0,0,1-.511-1.232l-.67-.258v-.8l.67-.258a3.375,3.375,0,0,1,.511-1.232l-.292-.657.566-.566.657.292a3.376,3.376,0,0,1,1.232-.511L11.591,8h.8l.258.67Zm-.658,1.565A1.767,1.767,0,1,0,13.758,12,1.767,1.767,0,0,0,11.991,10.237Z" transform="translate(-7.989 -8.002)" fill="#eceff1" fill-rule="evenodd"/>
        <path id="Path_16729" data-name="Path 16729" d="M94.014,8.672a3.377,3.377,0,0,1,1.232.511l.657-.292.566.566-.292.657a3.375,3.375,0,0,1,.511,1.232l.67.258v.8l-.67.258a3.377,3.377,0,0,1-.511,1.232l.292.657-.566.566-.657-.292a3.376,3.376,0,0,1-1.232.511l-.258.67h-.4V13.771a1.767,1.767,0,1,0,0-3.534V8h.4Z" transform="translate(-89.354 -8.002)" fill="#d1d1d6" fill-rule="evenodd"/>
      </g>
      <path id="Path_16730" data-name="Path 16730" d="M9.7,7.954a1.04,1.04,0,1,1-1.042,1.04A1.041,1.041,0,0,1,9.7,7.954ZM3.575,14.8a1.04,1.04,0,1,1,1.042-1.04A1.041,1.041,0,0,1,3.575,14.8ZM15.83,9.24a1.04,1.04,0,1,1-1.042,1.04A1.041,1.041,0,0,1,15.83,9.24Zm6.126-5.479A1.04,1.04,0,1,1,20.915,4.8a1.041,1.041,0,0,1,1.042-1.04ZM7.912,8.994a1.773,1.773,0,0,0,.179.78l-3.364,2.62a1.793,1.793,0,1,0,.46.591l3.366-2.62a1.787,1.787,0,0,0,2.785-.644l2.7.567a1.79,1.79,0,0,0,3.581-.008,1.774,1.774,0,0,0-.237-.887L20.9,6.247a1.795,1.795,0,1,0-.5-.559L16.883,8.835A1.771,1.771,0,0,0,15.83,8.49a1.792,1.792,0,0,0-1.637,1.064l-2.7-.567a1.79,1.79,0,0,0-3.581.007Zm3.065,14.26H8.428V13.473h2.55v9.781Zm.376-10.531a.375.375,0,0,1,.374.375V23.629a.375.375,0,0,1-.374.375h-3.3a.375.375,0,0,1-.376-.375V13.1a.375.375,0,0,1,.376-.375ZM17.1,23.254h-2.55V15.723H17.1v7.531Zm.376-8.281a.375.375,0,0,1,.374.375v8.281A.375.375,0,0,1,17.48,24h-3.3a.375.375,0,0,1-.376-.375V15.348a.375.375,0,0,1,.376-.375ZM4.851,23.254H2.3V19.039h2.55v4.214Zm.374-4.964h-3.3a.375.375,0,0,0-.376.375v4.964A.375.375,0,0,0,1.928,24h3.3a.375.375,0,0,0,.376-.375V18.664a.375.375,0,0,0-.376-.375Zm18,4.964H20.68V9.145h2.55V23.254ZM23.6,8.4a.375.375,0,0,1,.376.375V23.629A.375.375,0,0,1,23.6,24h-3.3a.375.375,0,0,1-.376-.375V8.77a.375.375,0,0,1,.376-.375h3.3ZM4.356,2.987A1.392,1.392,0,1,1,2.963,4.379,1.393,1.393,0,0,1,4.356,2.987Zm0,3.534A2.142,2.142,0,1,1,6.5,4.379,2.145,2.145,0,0,1,4.356,6.521ZM1.846,6.06a3,3,0,0,1-.453-1.1.381.381,0,0,0-.234-.278L.729,4.522V4.236l.429-.165a.373.373,0,0,0,.234-.277,3,3,0,0,1,.453-1.1.376.376,0,0,0,.031-.361l-.186-.421.2-.2.422.188a.379.379,0,0,0,.363-.031A2.987,2.987,0,0,1,3.77,1.415a.374.374,0,0,0,.276-.233l.166-.43H4.5l.166.43a.374.374,0,0,0,.279.233,3,3,0,0,1,1.095.454A.374.374,0,0,0,6.4,1.9l.422-.188.2.2-.188.421a.376.376,0,0,0,.031.361,2.97,2.97,0,0,1,.456,1.1.374.374,0,0,0,.232.277l.431.165v.285l-.431.165a.375.375,0,0,0-.232.278,2.974,2.974,0,0,1-.456,1.1.375.375,0,0,0-.031.361l.188.422-.2.2L6.4,6.857a.375.375,0,0,0-.36.031,2.993,2.993,0,0,1-1.095.454.374.374,0,0,0-.279.233l-.166.43H4.212l-.166-.43a.375.375,0,0,0-.276-.233,2.984,2.984,0,0,1-1.095-.454.38.38,0,0,0-.363-.031l-.422.188-.2-.2.186-.421a.376.376,0,0,0-.031-.361Zm.115,1.774.473-.21a3.751,3.751,0,0,0,.986.408l.186.483a.374.374,0,0,0,.349.241h.8a.374.374,0,0,0,.349-.241l.186-.483a3.689,3.689,0,0,0,.984-.408l.473.21a.376.376,0,0,0,.418-.077l.566-.566a.371.371,0,0,0,.077-.417L7.6,6.3a3.637,3.637,0,0,0,.407-.985l.484-.186a.374.374,0,0,0,.241-.35v-.8a.374.374,0,0,0-.241-.35L8.01,3.443A3.723,3.723,0,0,0,7.6,2.458l.21-.474a.371.371,0,0,0-.077-.417L7.167,1A.376.376,0,0,0,6.749.924l-.473.21A3.713,3.713,0,0,0,5.292.726L5.106.242A.375.375,0,0,0,4.754,0h-.8a.374.374,0,0,0-.349.24L3.42.726a3.757,3.757,0,0,0-.986.408L1.961.924A.376.376,0,0,0,1.543,1l-.566.565A.379.379,0,0,0,.9,1.984l.21.474A3.793,3.793,0,0,0,.7,3.443l-.484.186a.377.377,0,0,0-.241.35v.8a.377.377,0,0,0,.241.35L.7,5.315a3.791,3.791,0,0,0,.407.985L.9,6.774a.379.379,0,0,0,.077.417l.566.566A.377.377,0,0,0,1.961,7.834Z" fill-rule="evenodd"/>
    </g>
  </g>
</svg>
