<svg xmlns="http://www.w3.org/2000/svg" width="72.12" height="75.273" viewBox="0 0 72.12 75.273">
  <path id="Completed" d="M49.869,75.273a2.062,2.062,0,0,1-1.662-.869L34.584,55.125a2.056,2.056,0,0,1,2.737-2.949l12.571,7.542L68.756,44.127a2.058,2.058,0,0,1,2.969,2.8l-20.18,27.5a2.049,2.049,0,0,1-1.658.84ZM4.111,69.918A4.113,4.113,0,0,1,0,65.8V4.112A4.112,4.112,0,0,1,4.111,0H55.522a4.112,4.112,0,0,1,4.111,4.112V46.333l-8.228,6.8V8.226H8.223V61.693H34.186L40,69.918ZM17.476,47.3a4.112,4.112,0,0,1,0-8.225H42.155a4.112,4.112,0,0,1,0,8.225Zm0-12.339a4.112,4.112,0,0,1,0-8.225H42.155a4.112,4.112,0,0,1,0,8.225Zm0-12.337a4.112,4.112,0,0,1,0-8.225H42.155a4.112,4.112,0,0,1,0,8.225Z"/>
</svg>
