<svg xmlns="http://www.w3.org/2000/svg" width="29.753" height="36.026" viewBox="0 0 29.753 36.026"><defs><style>.a{fill:#444547;}.b{fill:#313133;}.c{fill:#ffb90f;}.d{fill:#ffd64c;}.e{fill:#fff;}</style></defs><g transform="translate(-2653.272 -52.448)"><g transform="translate(2658.675 72.452)"><path class="a" d="M3216.455,813.709c-1.067,3.6-3.948,5.408-6.565,4.123l3.771,11.9,2.128-5.7,4.438,1.585Z" transform="translate(-3200.237 -813.709)"/><path class="a" d="M2873.578,823.748a6.542,6.542,0,0,1-2.909-3.872l-3.263,11.978,4.372-1.917,2.342,5.536,3.191-11.715A3.834,3.834,0,0,1,2873.578,823.748Z" transform="translate(-2867.406 -819.702)"/><path class="b" d="M3210.675,820.309a12.585,12.585,0,0,0,7.105-2.418l-1.326-4.183c-1.067,3.6-3.948,5.408-6.565,4.123Z" transform="translate(-3200.237 -813.709)"/><path class="b" d="M2944.253,823.748a6.542,6.542,0,0,1-2.909-3.872l-1.213,4.453a12.607,12.607,0,0,0,7.162,1.97l.692-2.541A3.834,3.834,0,0,1,2944.253,823.748Z" transform="translate(-2938.081 -819.702)"/></g><path class="c" d="M10.415.018a10.817,10.817,0,0,1,10.64,10.64,10.229,10.229,0,0,1-10.4,10.4A10.817,10.817,0,0,1,.018,10.415,10.229,10.229,0,0,1,10.415.018Z" transform="translate(2653.247 67.325) rotate(-45)"/><path class="d" d="M2854.162,266.257a1.562,1.562,0,0,0-.479.366,9.654,9.654,0,0,0,.251-1.208,1.316,1.316,0,0,0,1.12-.369,1.6,1.6,0,0,0,.562-.946,1.372,1.372,0,0,0-1.162.372,1.6,1.6,0,0,0-.479.634,12.121,12.121,0,0,0,.078-1.277c0-.042,0-.083,0-.124a1.384,1.384,0,0,0,1.049-.624,1.691,1.691,0,0,0,.375-1.057,1.442,1.442,0,0,0-1.068.635,1.7,1.7,0,0,0-.359.771,9.762,9.762,0,0,0-.145-1.438,1.477,1.477,0,0,0,.88-.844,1.75,1.75,0,0,0,.17-1.121,1.538,1.538,0,0,0-.927.87,1.834,1.834,0,0,0-.2.7,8.578,8.578,0,0,0-.383-1.254,1.578,1.578,0,0,0,.674-1.01,1.761,1.761,0,0,0-.041-1.136,1.646,1.646,0,0,0-.745,1.067,1.954,1.954,0,0,0-.078.634,7.784,7.784,0,0,0-.589-1.051,1.668,1.668,0,0,0,.462-1.135.666.666,0,1,0-.781.116,1.975,1.975,0,0,0,.037.624,7.408,7.408,0,0,0-.776-.864,1.739,1.739,0,0,0,.25-1.232,1.661,1.661,0,0,0-.449-1.019,1.815,1.815,0,0,0-.294,1.315,1.866,1.866,0,0,0,.176.65,7.4,7.4,0,0,0-.953-.684,1.768,1.768,0,0,0,.027-1.291,1.565,1.565,0,0,0-.629-.892,1.849,1.849,0,0,0-.044,1.355,1.72,1.72,0,0,0,.342.655,7.7,7.7,0,0,0-1.111-.492,1.753,1.753,0,0,0-.211-1.284,1.46,1.46,0,0,0-.78-.726,1.829,1.829,0,0,0,.208,1.335,1.586,1.586,0,0,0,.47.572q-.188-.058-.381-.107l-.308.074q.3.077.6.177a1.384,1.384,0,0,0-.807.511,1.668,1.668,0,0,0-.439,1.025,1.415,1.415,0,0,0,1.1-.55,1.669,1.669,0,0,0,.436-.878,7.708,7.708,0,0,1,1.008.476,1.35,1.35,0,0,0-.776.311,1.57,1.57,0,0,0-.62.9,1.356,1.356,0,0,0,1.182-.28,1.559,1.559,0,0,0,.573-.716,7.745,7.745,0,0,1,.88.653,1.32,1.32,0,0,0-.782.13,1.464,1.464,0,0,0-.773.736,1.335,1.335,0,0,0,1.208,0,1.452,1.452,0,0,0,.686-.557,7.844,7.844,0,0,1,.75.837,1.312,1.312,0,0,0-.793-.058,1.373,1.373,0,0,0-.892.539,1.526,1.526,0,0,0,1.96-.1,8.013,8.013,0,0,1,.584,1,1.341,1.341,0,0,0-.774-.248,1.306,1.306,0,0,0-.973.32,1.417,1.417,0,0,0,1.1.553,1.307,1.307,0,0,0,.836-.2,8.27,8.27,0,0,1,.376,1.113,1.414,1.414,0,0,0-.705-.417,1.272,1.272,0,0,0-1.011.086,1.5,1.5,0,0,0,.977.8,1.284,1.284,0,0,0,.847,0,8.737,8.737,0,0,1,.152,1.144,1.531,1.531,0,0,0-.6-.543,1.278,1.278,0,0,0-1-.152,1.61,1.61,0,0,0,.808,1.009,1.3,1.3,0,0,0,.813.2q0,.094,0,.19-.005.5-.047.964a1.636,1.636,0,0,0-.482-.67,1.319,1.319,0,0,0-.954-.383,1.715,1.715,0,0,0,.6,1.175,1.363,1.363,0,0,0,.775.388,9.26,9.26,0,0,1-.26,1.256,1.7,1.7,0,0,0-.365-.909,1.4,1.4,0,0,0-.863-.6,1.8,1.8,0,0,0,.372,1.29,1.449,1.449,0,0,0,.743.582,7.225,7.225,0,0,1-.558,1.263,1.745,1.745,0,0,0-.174-1.09,1.5,1.5,0,0,0-.733-.785,1.845,1.845,0,0,0,.125,1.349,1.551,1.551,0,0,0,.644.758,6.349,6.349,0,0,1-.782,1.018,1.767,1.767,0,0,0,.008-1.036,1.6,1.6,0,0,0-.572-.939,1.843,1.843,0,0,0-.128,1.348,1.655,1.655,0,0,0,.458.861,6.508,6.508,0,0,1-.842.679,1.843,1.843,0,0,0,.119-.846,1.686,1.686,0,0,0-.385-1.052,1.8,1.8,0,0,0-.375,1.289,1.754,1.754,0,0,0,.236.864,7.654,7.654,0,0,1-1.074.515,1.767,1.767,0,0,0,.286-.817,1.747,1.747,0,0,0-.182-1.119,1.714,1.714,0,0,0-.606,1.173,1.79,1.79,0,0,0,.076.915,9.777,9.777,0,0,1-1.466.355,1.535,1.535,0,0,0,.751-.941,1.763,1.763,0,0,0,.047-1.136,1.6,1.6,0,0,0-.825.991,1.815,1.815,0,0,0-.075,1.1l-.072.011h-.01v0q-.415.061-.84.093a1.595,1.595,0,0,1-1.7,0q-.426-.032-.84-.093v0h-.01l-.072-.011a1.819,1.819,0,0,0-.076-1.1,1.6,1.6,0,0,0-.825-.99,1.764,1.764,0,0,0,.047,1.136,1.536,1.536,0,0,0,.751.941,9.77,9.77,0,0,1-1.465-.355,1.788,1.788,0,0,0,.076-.915,1.713,1.713,0,0,0-.605-1.174,2.032,2.032,0,0,0,.1,1.936,7.626,7.626,0,0,1-1.074-.515,1.751,1.751,0,0,0,.235-.864,1.792,1.792,0,0,0-.375-1.289,1.689,1.689,0,0,0-.385,1.052,1.834,1.834,0,0,0,.119.846,6.547,6.547,0,0,1-.842-.679,1.655,1.655,0,0,0,.458-.861,1.841,1.841,0,0,0-.128-1.348,1.6,1.6,0,0,0-.571.939,1.771,1.771,0,0,0,.008,1.036,6.375,6.375,0,0,1-.782-1.018,1.55,1.55,0,0,0,.644-.758,1.843,1.843,0,0,0,.125-1.349,1.5,1.5,0,0,0-.733.785,1.746,1.746,0,0,0-.174,1.09,7.225,7.225,0,0,1-.558-1.263,1.446,1.446,0,0,0,.743-.582,1.8,1.8,0,0,0,.372-1.29,1.4,1.4,0,0,0-.863.6,1.7,1.7,0,0,0-.365.909,9.189,9.189,0,0,1-.26-1.256,1.365,1.365,0,0,0,.775-.388,1.714,1.714,0,0,0,.6-1.175,1.32,1.32,0,0,0-.954.383,1.634,1.634,0,0,0-.482.67q-.041-.464-.047-.964,0-.1,0-.19a1.3,1.3,0,0,0,.812-.2,1.612,1.612,0,0,0,.808-1.009,1.277,1.277,0,0,0-1,.152,1.528,1.528,0,0,0-.6.542,8.737,8.737,0,0,1,.152-1.144,1.284,1.284,0,0,0,.847,0,1.5,1.5,0,0,0,.977-.8,1.271,1.271,0,0,0-1.011-.086,1.413,1.413,0,0,0-.705.417,8.27,8.27,0,0,1,.376-1.113,1.307,1.307,0,0,0,.836.2,1.418,1.418,0,0,0,1.1-.553,1.3,1.3,0,0,0-.973-.32,1.34,1.34,0,0,0-.774.248,7.928,7.928,0,0,1,.584-1,1.223,1.223,0,1,0,1.067-.435,1.309,1.309,0,0,0-.792.057,7.84,7.84,0,0,1,.749-.836,1.453,1.453,0,0,0,.686.557,1.334,1.334,0,0,0,1.209,0,1.466,1.466,0,0,0-.773-.735,1.319,1.319,0,0,0-.782-.13,7.792,7.792,0,0,1,.88-.653,1.56,1.56,0,0,0,.573.716,1.356,1.356,0,0,0,1.182.28,1.569,1.569,0,0,0-.62-.9,1.351,1.351,0,0,0-.777-.311,7.715,7.715,0,0,1,1.009-.476,1.67,1.67,0,0,0,.436.878,1.414,1.414,0,0,0,1.1.55,1.662,1.662,0,0,0-.44-1.025,1.384,1.384,0,0,0-.807-.51q.293-.1.6-.177l-.308-.074c-.129.033-.256.069-.381.107a1.59,1.59,0,0,0,.47-.572,1.83,1.83,0,0,0,.208-1.335,1.461,1.461,0,0,0-.78.726,1.753,1.753,0,0,0-.21,1.284,7.646,7.646,0,0,0-1.11.492,1.726,1.726,0,0,0,.341-.655,1.846,1.846,0,0,0-.044-1.355,1.563,1.563,0,0,0-.628.892,1.767,1.767,0,0,0,.026,1.291,7.372,7.372,0,0,0-.952.684,1.883,1.883,0,0,0,.176-.65,1.816,1.816,0,0,0-.294-1.315,1.663,1.663,0,0,0-.449,1.019,1.739,1.739,0,0,0,.25,1.232,7.451,7.451,0,0,0-.776.864,1.968,1.968,0,0,0,.038-.624.666.666,0,1,0-.782-.116,1.671,1.671,0,0,0,.462,1.135,7.758,7.758,0,0,0-.589,1.051,1.968,1.968,0,0,0-.079-.634,1.645,1.645,0,0,0-.745-1.067,1.761,1.761,0,0,0-.041,1.136,1.576,1.576,0,0,0,.674,1.01,8.547,8.547,0,0,0-.383,1.254,1.823,1.823,0,0,0-.2-.7,1.541,1.541,0,0,0-.927-.87,1.745,1.745,0,0,0,.17,1.121,1.476,1.476,0,0,0,.88.844,9.794,9.794,0,0,0-.146,1.438,1.69,1.69,0,0,0-.359-.77,1.44,1.44,0,0,0-1.068-.635,1.7,1.7,0,0,0,.375,1.057,1.386,1.386,0,0,0,1.049.624c0,.041,0,.082,0,.124a12.127,12.127,0,0,0,.079,1.278,1.6,1.6,0,0,0-.48-.634,1.372,1.372,0,0,0-1.162-.372,1.6,1.6,0,0,0,.562.946,1.315,1.315,0,0,0,1.12.369,9.7,9.7,0,0,0,.251,1.208,1.567,1.567,0,0,0-.479-.367,1.339,1.339,0,0,0-1.206-.093,1.5,1.5,0,0,0,.725.795,1.273,1.273,0,0,0,1.1.121,7.925,7.925,0,0,0,.43,1.031,1.592,1.592,0,0,0-.434-.176,1.344,1.344,0,0,0-1.2.19,1.4,1.4,0,0,0,.856.608,1.27,1.27,0,0,0,1.056-.113,6.953,6.953,0,0,0,.63.876,1.569,1.569,0,0,0-.433-.064,1.394,1.394,0,0,0-1.135.465,1.328,1.328,0,0,0,.951.395,1.309,1.309,0,0,0,1.019-.362,6.947,6.947,0,0,0,.859.724,1.453,1.453,0,0,0-.522.029,1.473,1.473,0,0,0-1.024.72,1.279,1.279,0,0,0,1,.165,1.4,1.4,0,0,0,.961-.637,7.706,7.706,0,0,0,.991.514,1.653,1.653,0,0,0-.389.134,1.575,1.575,0,0,0-.868.943,1.268,1.268,0,0,0,1.011-.073,1.475,1.475,0,0,0,.8-.79q.424.148.868.256c-.039.027-.078.057-.118.09a1.69,1.69,0,0,0-.657,1.138,1.306,1.306,0,0,0,.971-.327,1.578,1.578,0,0,0,.555-.75q.46.075.933.11a1.849,1.849,0,0,1,.417.08c-.607.421-1.143,1.007-1.721,1.391l.46.216c.643-.428,1.1-1.05,1.7-1.41.6.359,1.055.984,1.7,1.413l.461-.216c-.579-.385-1.117-.974-1.726-1.4a1.854,1.854,0,0,1,.423-.082q.472-.036.932-.11a1.582,1.582,0,0,0,.555.75,1.309,1.309,0,0,0,.971.326,1.691,1.691,0,0,0-.657-1.138c-.041-.032-.08-.062-.118-.09q.443-.107.868-.256a1.475,1.475,0,0,0,.8.79,1.27,1.27,0,0,0,1.012.073,1.576,1.576,0,0,0-.868-.943,1.655,1.655,0,0,0-.389-.134,7.725,7.725,0,0,0,.992-.514,1.393,1.393,0,0,0,.961.637,1.279,1.279,0,0,0,1-.165,1.473,1.473,0,0,0-1.024-.72,1.452,1.452,0,0,0-.522-.029,6.893,6.893,0,0,0,.859-.724,1.309,1.309,0,0,0,1.018.362,1.327,1.327,0,0,0,.951-.395,1.392,1.392,0,0,0-1.135-.465,1.573,1.573,0,0,0-.433.064,6.953,6.953,0,0,0,.631-.876,1.27,1.27,0,0,0,1.056.113,1.4,1.4,0,0,0,.856-.608,1.345,1.345,0,0,0-1.2-.19,1.6,1.6,0,0,0-.433.176,7.856,7.856,0,0,0,.429-1.031,1.274,1.274,0,0,0,1.1-.121,1.5,1.5,0,0,0,.725-.795A1.339,1.339,0,0,0,2854.162,266.257Z" transform="translate(-177.29 -196.079)"/><path class="e" d="M3212.149,316.243l.113,1.6,1.558-.388-1.488.6.85,1.362-1.032-1.229-1.032,1.229.85-1.362-1.489-.6,1.558.388Z" transform="translate(-542.197 -256.543)"/></g></svg>