<svg xmlns="http://www.w3.org/2000/svg" width="3" height="10" viewBox="0 0 3 10"><defs><style>.a{fill:#626262;}</style></defs><g transform="translate(-6.5 -3.5)"><path class="a" d="M9.416,6.9l-2.748.316-.1.418.54.091c.353.077.422.194.346.516L6.57,12.05c-.233.986.126,1.45.97,1.45A2.6,2.6,0,0,0,9.3,12.842l.106-.457a1.408,1.408,0,0,1-.823.271c-.33,0-.45-.212-.365-.586ZM9.5,4.6A1.153,1.153,0,0,1,8.3,5.7,1.153,1.153,0,0,1,7.1,4.6,1.153,1.153,0,0,1,8.3,3.5,1.153,1.153,0,0,1,9.5,4.6Z" transform="translate(0)"/></g></svg>