<svg id="Group_2234" data-name="Group 2234" xmlns="http://www.w3.org/2000/svg" xmlns:xlink="http://www.w3.org/1999/xlink" width="172.658" height="172.658" viewBox="0 0 172.658 172.658">
  <defs>
    <clipPath id="clip-path">
      <rect id="Rectangle_851" data-name="Rectangle 851" width="172.658" height="172.658" fill="none"/>
    </clipPath>
    <clipPath id="clip-path-2">
      <path id="Path_14735" data-name="Path 14735" d="M98.251,39.9c-14.4,22.276-19.3,52.346-12.3,78.055,11.5,42.182,62.561,53.621,100.337,46.117a74.721,74.721,0,0,0,40.386-22.341c22-23.5,28.635-60.376,13.691-92.362C228.519,24,200.482,1.2,171.876.058Q170.418,0,168.963,0c-28.208,0-55.416,16.229-70.713,39.9" transform="translate(-82.799)" fill="none"/>
    </clipPath>
    <linearGradient id="linear-gradient" x1="0.135" y1="0.851" x2="0.135" y2="0.851" gradientUnits="objectBoundingBox">
      <stop offset="0" stop-color="#f0f0f0"/>
      <stop offset="1" stop-color="#e9effd"/>
    </linearGradient>
    <clipPath id="clip-path-4">
      <rect id="Rectangle_761" data-name="Rectangle 761" width="44.703" height="18.015" fill="none"/>
    </clipPath>
    <clipPath id="clip-path-5">
      <rect id="Rectangle_762" data-name="Rectangle 762" width="46.113" height="19.123" fill="none"/>
    </clipPath>
    <clipPath id="clip-path-6">
      <rect id="Rectangle_763" data-name="Rectangle 763" width="27.631" height="11.288" fill="none"/>
    </clipPath>
    <clipPath id="clip-path-7">
      <rect id="Rectangle_764" data-name="Rectangle 764" width="23.39" height="12.726" fill="none"/>
    </clipPath>
    <clipPath id="clip-path-8">
      <path id="Path_14751" data-name="Path 14751" d="M1135.842,2140.8l-3.728,26.056h43.254l-5.634-26.056Z" transform="translate(-1132.114 -2140.803)" fill="none"/>
    </clipPath>
    <linearGradient id="linear-gradient-2" x1="-2.092" y1="1.068" x2="-2.09" y2="1.068" gradientUnits="objectBoundingBox">
      <stop offset="0" stop-color="#09005d"/>
      <stop offset="1" stop-color="#1a0f91"/>
    </linearGradient>
    <clipPath id="clip-path-9">
      <path id="Path_14752" data-name="Path 14752" d="M8.255,647.657A8.5,8.5,0,0,0,0,656.209v77.555a11.7,11.7,0,0,0,11.318,11.762c27.97.73,125.8,2.5,152.422,2.1a8.6,8.6,0,0,0,8.415-8.41c.513-18.017,1.347-61.342-1.738-81.456a8.836,8.836,0,0,0-8.411-7.54c-20.865-.676-105.361-2.661-142.425-2.661-4.566,0-8.407.03-11.326.1" transform="translate(0 -647.561)" fill="none"/>
    </clipPath>
    <linearGradient id="linear-gradient-3" x1="-0.315" y1="0.959" x2="-0.315" y2="0.959" xlink:href="#linear-gradient-2"/>
    <clipPath id="clip-path-11">
      <path id="Path_14756" data-name="Path 14756" d="M975.421,2521.784l-61.029,1.928a2.621,2.621,0,0,0-2.57,1.737l-.812,3.253c-.333,1.332.959,2.572,2.679,2.572h63.305c1.748,0,3.045-1.278,2.665-2.624l-1.464-5.182a2.669,2.669,0,0,0-2.664-1.686l-.11,0" transform="translate(-910.958 -2521.782)" fill="none"/>
    </clipPath>
    <linearGradient id="linear-gradient-4" x1="-0.793" y1="1.666" x2="-0.792" y2="1.666" xlink:href="#linear-gradient-2"/>
    <clipPath id="clip-path-13">
      <rect id="Rectangle_777" data-name="Rectangle 777" width="43.056" height="69.758" fill="none"/>
    </clipPath>
    <clipPath id="clip-path-14">
      <rect id="Rectangle_780" data-name="Rectangle 780" width="3.905" height="36.507" fill="none"/>
    </clipPath>
    <linearGradient id="linear-gradient-5" x1="-2.134" y1="3.862" x2="-2.132" y2="3.862" gradientUnits="objectBoundingBox">
      <stop offset="0" stop-color="#4f52ff"/>
      <stop offset="1" stop-color="#4042e2"/>
    </linearGradient>
    <clipPath id="clip-path-15">
      <rect id="Rectangle_782" data-name="Rectangle 782" width="3.905" height="23.96" fill="none"/>
    </clipPath>
    <linearGradient id="linear-gradient-6" x1="-3.691" y1="4.759" x2="-3.688" y2="4.759" xlink:href="#linear-gradient-5"/>
    <clipPath id="clip-path-16">
      <rect id="Rectangle_784" data-name="Rectangle 784" width="3.905" height="54.969" fill="none"/>
    </clipPath>
    <linearGradient id="linear-gradient-7" x1="-1.541" y1="3.195" x2="-1.54" y2="3.195" xlink:href="#linear-gradient-5"/>
    <clipPath id="clip-path-17">
      <rect id="Rectangle_786" data-name="Rectangle 786" width="3.905" height="13.206" fill="none"/>
    </clipPath>
    <linearGradient id="linear-gradient-8" x1="-7.625" y1="6.385" x2="-7.621" y2="6.385" xlink:href="#linear-gradient-5"/>
    <clipPath id="clip-path-18">
      <rect id="Rectangle_788" data-name="Rectangle 788" width="3.905" height="47.62" fill="none"/>
    </clipPath>
    <linearGradient id="linear-gradient-9" x1="-2.142" y1="3.407" x2="-2.141" y2="3.407" xlink:href="#linear-gradient-5"/>
    <clipPath id="clip-path-19">
      <rect id="Rectangle_790" data-name="Rectangle 790" width="3.905" height="39.375" fill="none"/>
    </clipPath>
    <linearGradient id="linear-gradient-10" x1="-2.848" y1="3.724" x2="-2.846" y2="3.724" xlink:href="#linear-gradient-5"/>
    <clipPath id="clip-path-20">
      <rect id="Rectangle_792" data-name="Rectangle 792" width="3.905" height="30.413" fill="none"/>
    </clipPath>
    <linearGradient id="linear-gradient-11" x1="-4.002" y1="4.224" x2="-4" y2="4.224" xlink:href="#linear-gradient-5"/>
    <clipPath id="clip-path-22">
      <rect id="Rectangle_793" data-name="Rectangle 793" width="18.974" height="19.216" fill="none"/>
    </clipPath>
    <clipPath id="clip-path-23">
      <path id="Path_14760" data-name="Path 14760" d="M233.551,935.055a5.518,5.518,0,0,1,.417,2.113,5.405,5.405,0,1,1-10.81,0,5.518,5.518,0,0,1,.417-2.113h-4.269a9.763,9.763,0,0,0-.23,2.113,9.488,9.488,0,1,0,18.974,0,9.762,9.762,0,0,0-.23-2.113Z" transform="translate(-219.077 -935.055)" fill="none"/>
    </clipPath>
    <linearGradient id="linear-gradient-12" x1="-0.63" y1="5.354" x2="-0.627" y2="5.354" gradientUnits="objectBoundingBox">
      <stop offset="0" stop-color="#ff928e"/>
      <stop offset="1" stop-color="#fe7062"/>
    </linearGradient>
    <clipPath id="clip-path-24">
      <path id="Path_14761" data-name="Path 14761" d="M223.159,823.118a5.405,5.405,0,1,1,5.4,5.474,5.44,5.44,0,0,1-5.4-5.474m-4.082,0a9.488,9.488,0,1,0,9.487-9.608,9.548,9.548,0,0,0-9.487,9.608" transform="translate(-219.077 -813.51)" fill="none"/>
    </clipPath>
    <clipPath id="clip-path-27">
      <path id="Path_14763" data-name="Path 14763" d="M602.983,866.128a5.405,5.405,0,1,1,5.4,5.474,5.44,5.44,0,0,1-5.4-5.474m-1.315-6.781a9.487,9.487,0,1,0,13.441,0Z" transform="translate(-598.901 -859.346)" fill="none"/>
    </clipPath>
    <linearGradient id="linear-gradient-13" x1="-1.412" y1="4.942" x2="-1.41" y2="4.942" xlink:href="#linear-gradient-12"/>
    <clipPath id="clip-path-28">
      <path id="Path_14764" data-name="Path 14764" d="M602.983,823.118a5.405,5.405,0,1,1,5.4,5.474,5.44,5.44,0,0,1-5.4-5.474m-4.082,0a9.488,9.488,0,1,0,9.487-9.608,9.548,9.548,0,0,0-9.487,9.608" transform="translate(-598.901 -813.51)" fill="none"/>
    </clipPath>
    <clipPath id="clip-path-31">
      <path id="Path_14766" data-name="Path 14766" d="M1004.712,1032.99a5.356,5.356,0,0,1-7.533,0h-4.9a9.442,9.442,0,0,0,17.323,0Z" transform="translate(-992.284 -1032.99)" fill="none"/>
    </clipPath>
    <linearGradient id="linear-gradient-14" x1="-4.317" y1="6.488" x2="-4.313" y2="6.488" xlink:href="#linear-gradient-12"/>
    <clipPath id="clip-path-32">
      <path id="Path_14767" data-name="Path 14767" d="M982.807,823.118a5.405,5.405,0,1,1,5.4,5.474,5.44,5.44,0,0,1-5.4-5.474m-4.082,0a9.488,9.488,0,1,0,9.487-9.608,9.548,9.548,0,0,0-9.487,9.608" transform="translate(-978.725 -813.51)" fill="none"/>
    </clipPath>
    <clipPath id="clip-path-34">
      <rect id="Rectangle_802" data-name="Rectangle 802" width="65.227" height="36.555" fill="none"/>
    </clipPath>
    <clipPath id="clip-path-35">
      <rect id="Rectangle_803" data-name="Rectangle 803" width="60.665" height="28.081" fill="none"/>
    </clipPath>
    <clipPath id="clip-path-36">
      <path id="Path_14770" data-name="Path 14770" d="M414.582,1554.12a1.72,1.72,0,1,0,1.72-1.742,1.731,1.731,0,0,0-1.72,1.742" transform="translate(-414.582 -1552.379)" fill="none"/>
    </clipPath>
    <linearGradient id="linear-gradient-15" x1="-5.705" y1="17.587" x2="-5.691" y2="17.587" gradientUnits="objectBoundingBox">
      <stop offset="0" stop-color="#febbba"/>
      <stop offset="1" stop-color="#ff928e"/>
    </linearGradient>
    <clipPath id="clip-path-37">
      <path id="Path_14771" data-name="Path 14771" d="M515.758,1682.3a1.133,1.133,0,1,0,1.133-1.147,1.14,1.14,0,0,0-1.133,1.147" transform="translate(-515.758 -1681.151)" fill="none"/>
    </clipPath>
    <linearGradient id="linear-gradient-16" x1="-10.867" y1="23.904" x2="-10.846" y2="23.904" xlink:href="#linear-gradient-15"/>
    <clipPath id="clip-path-38">
      <path id="Path_14772" data-name="Path 14772" d="M641.165,1553.526a1.133,1.133,0,1,0,1.133-1.147,1.14,1.14,0,0,0-1.133,1.147" transform="translate(-641.165 -1552.379)" fill="none"/>
    </clipPath>
    <linearGradient id="linear-gradient-17" x1="-13.535" y1="26.643" x2="-13.513" y2="26.643" xlink:href="#linear-gradient-15"/>
    <clipPath id="clip-path-39">
      <path id="Path_14773" data-name="Path 14773" d="M767.745,1686.416a1.133,1.133,0,1,0,1.133-1.147,1.14,1.14,0,0,0-1.133,1.147" transform="translate(-767.745 -1685.269)" fill="none"/>
    </clipPath>
    <linearGradient id="linear-gradient-18" x1="-16.227" y1="23.816" x2="-16.206" y2="23.816" xlink:href="#linear-gradient-15"/>
    <clipPath id="clip-path-40">
      <path id="Path_14774" data-name="Path 14774" d="M952.029,1488.424a1.133,1.133,0,1,0,1.133-1.147,1.14,1.14,0,0,0-1.133,1.147" transform="translate(-952.029 -1487.277)" fill="none"/>
    </clipPath>
    <linearGradient id="linear-gradient-19" x1="-20.147" y1="28.028" x2="-20.126" y2="28.028" xlink:href="#linear-gradient-15"/>
    <clipPath id="clip-path-41">
      <path id="Path_14775" data-name="Path 14775" d="M1083.029,1620.53a1.133,1.133,0,1,0,1.133-1.147,1.14,1.14,0,0,0-1.133,1.147" transform="translate(-1083.029 -1619.383)" fill="none"/>
    </clipPath>
    <linearGradient id="linear-gradient-20" x1="-22.934" y1="25.218" x2="-22.913" y2="25.218" xlink:href="#linear-gradient-5"/>
    <clipPath id="clip-path-43">
      <rect id="Rectangle_817" data-name="Rectangle 817" width="19.209" height="9.674" fill="none"/>
    </clipPath>
    <clipPath id="clip-path-46">
      <path id="Path_14785" data-name="Path 14785" d="M2302.037,1265.6a7.72,7.72,0,1,0,7.719-7.818,7.769,7.769,0,0,0-7.719,7.818" transform="translate(-2302.037 -1257.78)" fill="none"/>
    </clipPath>
    <linearGradient id="linear-gradient-21" x1="-9.079" y1="6.082" x2="-9.075" y2="6.082" gradientUnits="objectBoundingBox">
      <stop offset="0" stop-color="#dae3fe"/>
      <stop offset="1" stop-color="#e9effd"/>
    </linearGradient>
    <clipPath id="clip-path-48">
      <rect id="Rectangle_822" data-name="Rectangle 822" width="15.439" height="2.896" fill="none"/>
    </clipPath>
    <clipPath id="clip-path-49">
      <path id="Path_14788" data-name="Path 14788" d="M2301.494,858.127a7.72,7.72,0,1,0,7.719-7.818,7.769,7.769,0,0,0-7.719,7.818" transform="translate(-2301.494 -850.309)" fill="none"/>
    </clipPath>
    <linearGradient id="linear-gradient-22" x1="-9.077" y1="7.689" x2="-9.073" y2="7.689" xlink:href="#linear-gradient-21"/>
    <clipPath id="clip-path-51">
      <rect id="Rectangle_825" data-name="Rectangle 825" width="15.438" height="2.896" fill="none"/>
    </clipPath>
    <clipPath id="clip-path-52">
      <rect id="Rectangle_826" data-name="Rectangle 826" width="15.438" height="15.635" fill="none"/>
    </clipPath>
    <clipPath id="clip-path-53">
      <path id="Path_14792" data-name="Path 14792" d="M2328.906,1698.335a6.254,6.254,0,0,0,6.214,6.293,6.187,6.187,0,0,0,5.118-2.724l-1.018-.746a4.936,4.936,0,0,1-4.1,2.2,5.022,5.022,0,0,1,0-10.043c.084,0,.167,0,.25.006v-1.273c-.083,0-.167-.005-.25-.005a6.254,6.254,0,0,0-6.214,6.293" transform="translate(-2328.906 -1692.042)" fill="none"/>
    </clipPath>
    <linearGradient id="linear-gradient-23" x1="-8.291" y1="4.142" x2="-8.287" y2="4.142" gradientUnits="objectBoundingBox">
      <stop offset="0" stop-color="#fdf53f"/>
      <stop offset="1" stop-color="#d93c65"/>
    </linearGradient>
    <clipPath id="clip-path-56">
      <path id="Path_14794" data-name="Path 14794" d="M2304.184,2708.55l-8.784,4.089a.944.944,0,0,0-.479.511.424.424,0,0,0,.369.581c1.908.086,7.226-.118,9.712-.222a1.3,1.3,0,0,0,1.231-1.411c-.163-1.891-.5-3.8-.5-3.8Z" transform="translate(-2294.891 -2708.296)" fill="none"/>
    </clipPath>
    <linearGradient id="linear-gradient-24" x1="-11.475" y1="0.743" x2="-11.47" y2="0.743" xlink:href="#linear-gradient-2"/>
    <clipPath id="clip-path-57">
      <path id="Path_14795" data-name="Path 14795" d="M2430.554,2686.921a2.768,2.768,0,0,0,2.59.092l.268-2.285-2.22-.353Z" transform="translate(-2430.554 -2684.375)" fill="none"/>
    </clipPath>
    <linearGradient id="linear-gradient-25" x1="-51.795" y1="2.119" x2="-51.773" y2="2.119" xlink:href="#linear-gradient-15"/>
    <clipPath id="clip-path-58">
      <path id="Path_14796" data-name="Path 14796" d="M2436.063,1993.539c.115.6.62,29.772-2.459,42.847a.445.445,0,0,0,.257.516,7.539,7.539,0,0,0,2.508.516.755.755,0,0,0,.749-.548c.881-3.034,5.1-18.232,5.649-32.751.615-16.224,0-.552,0-.552l-.361-10.028Z" transform="translate(-2433.592 -1993.538)" fill="none"/>
    </clipPath>
    <linearGradient id="linear-gradient-26" x1="-15.074" y1="1.118" x2="-15.068" y2="1.118" xlink:href="#linear-gradient-5"/>
    <clipPath id="clip-path-59">
      <path id="Path_14797" data-name="Path 14797" d="M2582.624,2724.564a6.729,6.729,0,0,0-1.541,3.666.789.789,0,0,0,.775.884h.107c.993,0,2.2-.1,2.99-.18a.793.793,0,0,0,.69-.952,13.861,13.861,0,0,0-1.044-3.526Z" transform="translate(-2581.078 -2724.457)" fill="none"/>
    </clipPath>
    <linearGradient id="linear-gradient-27" x1="-23.73" y1="0.85" x2="-23.72" y2="0.85" xlink:href="#linear-gradient-2"/>
    <clipPath id="clip-path-60">
      <path id="Path_14798" data-name="Path 14798" d="M2606.091,2678.343a2.184,2.184,0,0,0,1.842-.128l.625-3.455-2.168-.134Z" transform="translate(-2606.091 -2674.625)" fill="none"/>
    </clipPath>
    <linearGradient id="linear-gradient-28" x1="-64.321" y1="1.906" x2="-64.296" y2="1.906" xlink:href="#linear-gradient-15"/>
    <clipPath id="clip-path-61">
      <path id="Path_14799" data-name="Path 14799" d="M2470.343,1987.192l4.555,3.279a1.975,1.975,0,0,1,.752,1.09c2.347,8.7,2.1,30.7,2.236,34.286a.632.632,0,0,0,.45.584,4.533,4.533,0,0,0,1.97.08.686.686,0,0,0,.551-.525c1.034-4.433,4.1-27.086,1.58-42.479l-12.443-1.615Z" transform="translate(-2469.994 -1981.891)" fill="none"/>
    </clipPath>
    <linearGradient id="linear-gradient-29" x1="-10.052" y1="1.127" x2="-10.048" y2="1.127" xlink:href="#linear-gradient-5"/>
    <clipPath id="clip-path-62">
      <path id="Path_14800" data-name="Path 14800" d="M2231.843,1521.583a24.635,24.635,0,0,0,9.227,2.966s4.531,15.639,5.5,21.2c0,0,6.591,2.5,12.434.949,0,0,1.856-15.334-.393-28.629a70.116,70.116,0,0,0-15.875-2.007,25.016,25.016,0,0,1-7.7-1.25,16.476,16.476,0,0,1-3.2,6.776" transform="translate(-2231.843 -1514.807)" fill="none"/>
    </clipPath>
    <linearGradient id="linear-gradient-30" x1="-3.244" y1="2.144" x2="-3.243" y2="2.144" xlink:href="#linear-gradient-12"/>
    <clipPath id="clip-path-63">
      <path id="Path_14801" data-name="Path 14801" d="M2044.632,1343.67s1.469,11.131,11.4,16.785a16.487,16.487,0,0,0,3.2-6.776c-5.983-1.883-11.807-5.736-12.918-10.487a1.406,1.406,0,0,0-.535-.1,1.441,1.441,0,0,0-1.145.579" transform="translate(-2044.632 -1343.091)" fill="none"/>
    </clipPath>
    <linearGradient id="linear-gradient-31" x1="-8.528" y1="5.174" x2="-8.524" y2="5.174" xlink:href="#linear-gradient-15"/>
    <clipPath id="clip-path-64">
      <path id="Path_14802" data-name="Path 14802" d="M1991.945,1224.82l1.447,1.527a7.126,7.126,0,0,0-.845,1.692,2.076,2.076,0,0,0,.2,1.511c.254.464.6,1.066.928,1.537a1.994,1.994,0,0,0,1.5.9c-.078.25.821.63,1.35-.391.019-.49.313-2.587.024-2.986a38.847,38.847,0,0,0-4.521-4.787.725.725,0,0,0-.089,1" transform="translate(-1991.785 -1223.821)" fill="none"/>
    </clipPath>
    <linearGradient id="linear-gradient-32" x1="-14.295" y1="9.583" x2="-14.288" y2="9.583" xlink:href="#linear-gradient-15"/>
    <clipPath id="clip-path-65">
      <path id="Path_14803" data-name="Path 14803" d="M2023.957,1281.7a15.51,15.51,0,0,1,.689,2.721l1.176-1.321-.414-1.127-1.318-1.132c-.274.142-.426.376-.132.86" transform="translate(-2023.797 -1280.837)" fill="none"/>
    </clipPath>
    <linearGradient id="linear-gradient-33" x1="-32.727" y1="22.414" x2="-32.711" y2="22.414" xlink:href="#linear-gradient-15"/>
    <clipPath id="clip-path-66">
      <path id="Path_14804" data-name="Path 14804" d="M2623.973,1575.02s4.455,2.36,4.976,5.264a16.522,16.522,0,0,1,6.129-1.664c-1.159-6.151-8.209-11-8.209-11Z" transform="translate(-2623.973 -1567.619)" fill="none"/>
    </clipPath>
    <linearGradient id="linear-gradient-34" x1="-10.341" y1="5.3" x2="-10.338" y2="5.3" xlink:href="#linear-gradient-12"/>
    <clipPath id="clip-path-67">
      <path id="Path_14805" data-name="Path 14805" d="M2517.771,1747.7a3.07,3.07,0,0,1-.551,2.363c-2.67,3.868-10.585-.662-10.585-.662l-1.048,1.976s12.724,9.146,17.4.479a8.581,8.581,0,0,0,.911-5.819,16.515,16.515,0,0,0-6.128,1.664" transform="translate(-2505.587 -1746.036)" fill="none"/>
    </clipPath>
    <linearGradient id="linear-gradient-35" x1="-8.175" y1="4.486" x2="-8.172" y2="4.486" xlink:href="#linear-gradient-15"/>
    <clipPath id="clip-path-68">
      <path id="Path_14806" data-name="Path 14806" d="M2214.061,1625.253a.447.447,0,0,0-.361.643c1.245,2.55,6.364,12.924,8.928,16.322a.441.441,0,0,0,.356.177l10.023-.094a.446.446,0,0,0,.42-.57l-4.32-15.278a.442.442,0,0,0-.372-.321c-.782-.093-3.051-.352-5.669-.576-2.337-.2-4.954-.372-7.042-.372-.731,0-1.4.021-1.964.069" transform="translate(-2213.654 -1625.184)" fill="none"/>
    </clipPath>
    <linearGradient id="linear-gradient-36" x1="-6.33" y1="3.198" x2="-6.327" y2="3.198" xlink:href="#linear-gradient-2"/>
    <clipPath id="clip-path-69">
      <path id="Path_14807" data-name="Path 14807" d="M2305.155,1601.416l.31.951a.225.225,0,0,0,.183.154l3.014.408a.226.226,0,0,0,.248-.277l-.191-.831a.227.227,0,0,0-.182-.173l-3.132-.529a.222.222,0,0,0-.038,0,.227.227,0,0,0-.213.3" transform="translate(-2305.144 -1601.117)" fill="none"/>
    </clipPath>
    <linearGradient id="linear-gradient-37" x1="-33.798" y1="28.034" x2="-33.783" y2="28.034" xlink:href="#linear-gradient-5"/>
    <clipPath id="clip-path-70">
      <path id="Path_14808" data-name="Path 14808" d="M2281.163,1616.919l.4,1.7a.312.312,0,0,0,.287.241l6.181.315a.313.313,0,0,0,.321-.374l-.258-1.361a.312.312,0,0,0-.273-.254l-6.326-.65h-.032a.314.314,0,0,0-.3.388" transform="translate(-2281.155 -1616.531)" fill="none"/>
    </clipPath>
    <linearGradient id="linear-gradient-38" x1="-18.23" y1="19.229" x2="-18.222" y2="19.229" xlink:href="#linear-gradient-5"/>
    <clipPath id="clip-path-71">
      <path id="Path_14809" data-name="Path 14809" d="M2437.009,1749.236a22.729,22.729,0,0,0-3.417.922.9.9,0,0,0,1.285.785l-.739.579s.105.927,1.112.432l-.687.768a.8.8,0,0,0,1.173.273c.384-.253.664.216,1.136.686a2.261,2.261,0,0,0,2.059.728,11.249,11.249,0,0,0,.359-3.4c-.219-.8-.625-1.814-1.857-1.814a2.626,2.626,0,0,0-.424.036" transform="translate(-2433.592 -1749.2)" fill="none"/>
    </clipPath>
    <linearGradient id="linear-gradient-39" x1="-24.945" y1="12.101" x2="-24.934" y2="12.101" xlink:href="#linear-gradient-15"/>
    <clipPath id="clip-path-72">
      <path id="Path_14810" data-name="Path 14810" d="M2456.064,1434.435l.778,6.087a1.2,1.2,0,0,0,.543.853,5.585,5.585,0,0,0,5.855.4.254.254,0,0,0,.114-.305l-2.4-7.033Z" transform="translate(-2456.064 -1434.435)" fill="none"/>
    </clipPath>
    <linearGradient id="linear-gradient-40" x1="-20.403" y1="9.607" x2="-20.395" y2="9.607" xlink:href="#linear-gradient-15"/>
    <clipPath id="clip-path-73">
      <path id="Path_14811" data-name="Path 14811" d="M2412.121,1309.868c-.073.1-2.329,8.068-2.329,8.068l4.519,1.208,3.247-7.229s-2.806-2.491-4.5-2.492a1.077,1.077,0,0,0-.936.444" transform="translate(-2409.792 -1309.424)" fill="none"/>
    </clipPath>
    <linearGradient id="linear-gradient-41" x1="-18.357" y1="9.293" x2="-18.349" y2="9.293" xlink:href="#linear-gradient-15"/>
    <clipPath id="clip-path-74">
      <path id="Path_14812" data-name="Path 14812" d="M2398.921,1261.9c-.135,1.444,2.042,2.017,3.327,1.932.944-.063,1.644.856,1.949,1.348a.689.689,0,0,1,.063.6l-1.395,3.884a.663.663,0,0,1-.086.165c-.2.28-.911,1.117-1.736.329a5.927,5.927,0,0,0-1.969-1.463.67.67,0,0,0-.833.471,25.671,25.671,0,0,0-.761,3.665.675.675,0,0,0,.538.74,18.379,18.379,0,0,0,4.182.392.67.67,0,0,0,.571-.391c.464-1,1.774-3.8,2.264-4.529.455-.68,1.537-.67,2.033-.625a.67.67,0,0,0,.513-.173,1.509,1.509,0,0,0,.118-2.345.687.687,0,0,1,.03-.948,1.516,1.516,0,0,0,.157-2.2,2.077,2.077,0,0,0-2.437-.666.693.693,0,0,1-.8-.263.441.441,0,0,0-.392-.2.655.655,0,0,1-.663-.659,1.74,1.74,0,0,0-1.318-1.774,2.457,2.457,0,0,0-.765-.127c-1.529,0-2.478,1.606-2.6,2.853" transform="translate(-2397.476 -1259.05)" fill="none"/>
    </clipPath>
    <linearGradient id="linear-gradient-42" x1="-7.653" y1="5.36" x2="-7.649" y2="5.36" xlink:href="#linear-gradient-2"/>
    <clipPath id="clip-path-75">
      <path id="Path_14813" data-name="Path 14813" d="M2514.315,1401.65c-1.031.113-1.374,2.618-1.374,2.618s1.073,1.273,2.363-.466c.976-1.316.152-2.162-.809-2.162a1.665,1.665,0,0,0-.18.01" transform="translate(-2512.941 -1401.64)" fill="none"/>
    </clipPath>
    <linearGradient id="linear-gradient-43" x1="-39.438" y1="19.837" x2="-39.422" y2="19.837" xlink:href="#linear-gradient-15"/>
  </defs>
  <g id="Group_2233" data-name="Group 2233" clip-path="url(#clip-path)">
    <g id="Group_2063" data-name="Group 2063" transform="translate(5.041)">
      <g id="Group_2062" data-name="Group 2062" clip-path="url(#clip-path-2)">
        <path id="Path_14814" data-name="Path 14814" d="M1.554,1.556,247.555,0,246,245.886,0,247.442Z" transform="translate(-90.593 80.361) rotate(-43.21)" fill="url(#linear-gradient)"/>
      </g>
    </g>
    <g id="Group_2077" data-name="Group 2077">
      <g id="Group_2076" data-name="Group 2076" clip-path="url(#clip-path)">
        <g id="Group_2066" data-name="Group 2066" transform="translate(4.423 5.026)" opacity="0.3">
          <g id="Group_2065" data-name="Group 2065">
            <g id="Group_2064" data-name="Group 2064" clip-path="url(#clip-path-4)">
              <path id="Path_14736" data-name="Path 14736" d="M143.437,94.415a.613.613,0,0,1-.848-.212c-.343-.574-.715-1.142-1.108-1.688a.631.631,0,0,1,.126-.867l.01-.007a.613.613,0,0,1,.863.138c.413.574.8,1.172,1.166,1.777a.631.631,0,0,1-.155.822.6.6,0,0,1-.054.037m-4.044-4.422c-.462-.486-.948-.957-1.446-1.4a.631.631,0,0,1-.057-.883.612.612,0,0,1,.872-.058c.524.466,1.036.961,1.522,1.473a.629.629,0,0,1-.073.933.612.612,0,0,1-.817-.065M135.361,86.6c-.555-.369-1.133-.718-1.718-1.037a.63.63,0,0,1-.251-.848.614.614,0,0,1,.837-.254c.616.336,1.225.7,1.809,1.092a.631.631,0,0,1,.178.866.621.621,0,0,1-.143.156.612.612,0,0,1-.712.024m-4.68-2.393c-.623-.234-1.264-.443-1.9-.622a.627.627,0,0,1-.431-.77.617.617,0,0,1,.76-.437c.674.189,1.349.409,2,.655a.629.629,0,0,1,.159,1.085.611.611,0,0,1-.588.088m-5.09-1.278c-.658-.088-1.328-.148-1.993-.18a.626.626,0,0,1,.058-1.25c.7.033,1.405.1,2.1.189a.628.628,0,0,1,.292,1.119.61.61,0,0,1-.454.121m-5.242-.105c-.661.062-1.328.153-1.983.271a.618.618,0,0,1-.717-.506.625.625,0,0,1,.5-.726c.688-.125,1.391-.221,2.087-.285a.62.62,0,0,1,.672.566.628.628,0,0,1-.243.556.61.61,0,0,1-.316.124M101.068,95.4a.63.63,0,0,1-.249-.848c.333-.622.7-1.239,1.082-1.831a.613.613,0,0,1,.856-.178.63.63,0,0,1,.176.866c-.366.563-.712,1.148-1.027,1.739a.621.621,0,0,1-.17.2.611.611,0,0,1-.667.051m14.152-11.5c-.631.209-1.261.448-1.872.712a.615.615,0,0,1-.81-.331.63.63,0,0,1,.327-.82c.643-.277,1.307-.529,1.971-.749a.616.616,0,0,1,.779.4.63.63,0,0,1-.214.693.616.616,0,0,1-.181.1m-11.186,6.955a.631.631,0,0,1-.055-.883c.462-.531.952-1.049,1.458-1.539a.611.611,0,0,1,.873.019.631.631,0,0,1-.019.885c-.48.466-.947.958-1.385,1.463a.626.626,0,0,1-.091.086.612.612,0,0,1-.781-.03m6.422-4.747c-.569.347-1.13.723-1.668,1.118a.612.612,0,0,1-.863-.139.631.631,0,0,1,.127-.866l.011-.008c.567-.416,1.158-.812,1.756-1.177a.614.614,0,0,1,.848.214.631.631,0,0,1-.156.821c-.017.013-.036.026-.055.038" transform="translate(-99.033 -81.5)" fill="#91b3fa"/>
              <path id="Path_14737" data-name="Path 14737" d="M73.631,340.111a.622.622,0,0,0,.214-.3c.1-.307.205-.616.317-.921a.628.628,0,0,0-.364-.8.615.615,0,0,0-.794.369c-.117.32-.229.646-.333.968a.627.627,0,0,0,.4.789.611.611,0,0,0,.565-.1" transform="translate(-72.64 -322.224)" fill="#91b3fa"/>
            </g>
          </g>
        </g>
        <g id="Group_2069" data-name="Group 2069" transform="translate(5.597 35.846)" opacity="0.3">
          <g id="Group_2068" data-name="Group 2068">
            <g id="Group_2067" data-name="Group 2067" clip-path="url(#clip-path-5)">
              <path id="Path_14738" data-name="Path 14738" d="M93.361,649.032a.631.631,0,0,0,.172-.792c-.15-.285-.3-.577-.435-.87a.614.614,0,0,0-.824-.293.628.628,0,0,0-.289.835c.146.308.3.616.458.916a.614.614,0,0,0,.836.258.634.634,0,0,0,.083-.054" transform="translate(-91.923 -642.964)" fill="#91b3fa"/>
              <path id="Path_14739" data-name="Path 14739" d="M161.773,657.917a.613.613,0,0,1-.859-.164.631.631,0,0,1,.162-.869c.536-.371,1.065-.771,1.579-1.193a.613.613,0,0,1,.869.092.631.631,0,0,1-.09.88q-.334.274-.673.535c-.323.248-.655.49-.987.719m3.251-3.549a.631.631,0,0,1-.028-.884c.448-.484.881-.992,1.286-1.51a.612.612,0,0,1,.868-.1.631.631,0,0,1,.1.878c-.427.546-.882,1.081-1.353,1.59a.619.619,0,0,1-.078.071.612.612,0,0,1-.795-.043m-6.154,5.274c-.615.31-1.252.6-1.893.855a.615.615,0,0,1-.8-.351.629.629,0,0,1,.347-.812c.609-.244,1.213-.517,1.8-.812a.614.614,0,0,1,.828.281.626.626,0,0,1-.278.839m9.439-9.483a.63.63,0,0,1-.219-.856c.332-.571.643-1.163.926-1.759a.614.614,0,0,1,.824-.293.629.629,0,0,1,.29.834c-.3.628-.626,1.252-.975,1.853a.623.623,0,0,1-.159.181.612.612,0,0,1-.686.04m-14.536,11.373c-.667.166-1.35.3-2.031.413a.625.625,0,0,1-.192-1.236c.647-.1,1.3-.235,1.929-.392a.617.617,0,0,1,.747.459.63.63,0,0,1-.227.648.613.613,0,0,1-.226.109m-5.383.712c-.688.014-1.385,0-2.071-.046a.625.625,0,0,1,.078-1.248c.652.042,1.314.056,1.968.043a.627.627,0,0,1,.385,1.124.609.609,0,0,1-.36.126m-5.408-.493c-.675-.138-1.352-.307-2.012-.5a.627.627,0,0,1-.421-.775.616.616,0,0,1,.766-.426c.627.185,1.27.345,1.912.477a.628.628,0,0,1,.251,1.112.611.611,0,0,1-.5.115m-5.173-1.676c-.629-.284-1.253-.6-1.856-.936a.63.63,0,0,1-.242-.85.614.614,0,0,1,.839-.245c.572.32,1.164.619,1.762.889a.629.629,0,0,1,.312.826.621.621,0,0,1-.191.243.611.611,0,0,1-.625.073m-4.686-2.787c-.55-.417-1.09-.863-1.605-1.327a.631.631,0,0,1-.051-.883.613.613,0,0,1,.872-.052c.489.44,1,.864,1.524,1.26a.63.63,0,0,1,0,1,.612.612,0,0,1-.743,0m-3.963-3.758c-.33-.389-.652-.794-.957-1.2q-.166-.222-.326-.446a.624.624,0,0,1,.138-.873.613.613,0,0,1,.863.14q.152.213.31.424c.29.388.6.772.91,1.142a.631.631,0,0,1-.067.882l-.03.024a.612.612,0,0,1-.841-.092" transform="translate(-125.576 -643.126)" fill="#91b3fa"/>
              <path id="Path_14740" data-name="Path 14740" d="M825.351,583.395a.623.623,0,0,0,.215-.307c.1-.323.2-.653.289-.983a.627.627,0,0,0-.431-.769.617.617,0,0,0-.76.437c-.085.314-.178.628-.274.934a.627.627,0,0,0,.4.786.611.611,0,0,0,.562-.1" transform="translate(-779.764 -581.312)" fill="#91b3fa"/>
            </g>
          </g>
        </g>
        <path id="Path_14741" data-name="Path 14741" d="M188.4,196.309a.292.292,0,0,0-.185-.283l-3.278-1.281a15.626,15.626,0,0,0-1.728-4.707l1.651-3.138a.3.3,0,0,0-.043-.337l-2.87-3.126a.286.286,0,0,0-.328-.068l-3.21,1.44a15.215,15.215,0,0,0-4.51-2.087l-1.024-3.4a.289.289,0,0,0-.266-.207l-4.212-.155a.288.288,0,0,0-.28.187l-1.265,3.32a15.185,15.185,0,0,0-4.648,1.75l-3.1-1.672a.286.286,0,0,0-.332.044l-3.086,2.907a.3.3,0,0,0-.067.333l1.422,3.251a15.592,15.592,0,0,0-2.061,4.568l-3.361,1.037a.292.292,0,0,0-.2.269l-.153,4.265a.293.293,0,0,0,.184.283l3.278,1.281a15.623,15.623,0,0,0,1.728,4.707l-1.651,3.138a.3.3,0,0,0,.043.337l2.87,3.126a.286.286,0,0,0,.328.068l3.21-1.44a15.212,15.212,0,0,0,4.51,2.087l1.024,3.4a.289.289,0,0,0,.266.207l4.212.155a.289.289,0,0,0,.28-.187l1.265-3.32a15.185,15.185,0,0,0,4.648-1.75l3.1,1.672a.286.286,0,0,0,.332-.044l3.086-2.906a.3.3,0,0,0,.067-.333l-1.422-3.251a15.6,15.6,0,0,0,2.061-4.568l3.361-1.037a.292.292,0,0,0,.2-.269Z" transform="translate(-142.054 -167.921)" fill="#91b3fa"/>
        <path id="Path_14742" data-name="Path 14742" d="M392.9,422.415a4.213,4.213,0,0,1-5.752-1.7,4.31,4.31,0,0,1-.353-3.264,4.22,4.22,0,0,1,7.781-.863,4.332,4.332,0,0,1-1.154,5.482,4.253,4.253,0,0,1-.522.342m-5.156-4.682a3.305,3.305,0,0,0,.271,2.5,3.231,3.231,0,0,0,4.41,1.3,3.315,3.315,0,0,0,1.285-4.466,3.231,3.231,0,0,0-4.41-1.3,3.262,3.262,0,0,0-1.556,1.964" transform="translate(-363.085 -388.813)" fill="#bdd0fb"/>
        <path id="Path_14743" data-name="Path 14743" d="M300.384,331.727a10.637,10.637,0,0,0,.82-.7q.124-.117.245-.238a10.576,10.576,0,0,0,1.087-1.281l.013-.019.037-.053.072-.1a.253.253,0,0,0-.005-.294.249.249,0,0,0-.056-.054.245.245,0,0,0-.344.062,10.063,10.063,0,0,1-1.387,1.614,9.845,9.845,0,0,1-14.023-.516,10.17,10.17,0,0,1-.657-.792,10.145,10.145,0,0,1,1.166-13.41,9.845,9.845,0,0,1,14.023.516,10.077,10.077,0,0,1,2.44,4.748.25.25,0,0,0,.045.1.246.246,0,0,0,.248.094.25.25,0,0,0,.19-.3,10.579,10.579,0,0,0-2.561-4.985,10.337,10.337,0,0,0-14.721-.542,10.651,10.651,0,0,0-1.224,14.078,10.788,10.788,0,0,0,.689.831,10.323,10.323,0,0,0,13.9,1.239" transform="translate(-266.421 -293.474)" fill="#bdd0fb"/>
        <g id="Group_2072" data-name="Group 2072" transform="translate(48.031 6.949)" opacity="0.3">
          <g id="Group_2071" data-name="Group 2071">
            <g id="Group_2070" data-name="Group 2070" clip-path="url(#clip-path-6)">
              <path id="Path_14744" data-name="Path 14744" d="M1225.117,270.328a.389.389,0,0,0,.126-.445c-.115-.307-.24-.614-.373-.913a.38.38,0,0,0-.5-.194.388.388,0,0,0-.191.511c.127.285.246.578.356.871a.379.379,0,0,0,.587.171" transform="translate(-1197.637 -259.119)" fill="#91b3fa"/>
              <path id="Path_14745" data-name="Path 14745" d="M815.009,121.253a.379.379,0,0,1-.524-.13,16.055,16.055,0,0,0-.9-1.34q-.1-.136-.207-.27a.383.383,0,1,1,.6-.479q.11.141.216.283a16.783,16.783,0,0,1,.944,1.405.39.39,0,0,1-.1.508l-.032.022m-2.923-3.2a15.88,15.88,0,0,0-1.458-1.291.39.39,0,0,1-.069-.542.379.379,0,0,1,.535-.07,16.6,16.6,0,0,1,1.529,1.354.39.39,0,0,1,0,.547.386.386,0,0,1-.041.036.378.378,0,0,1-.5-.034m-3.063-2.39a15.587,15.587,0,0,0-1.727-.889.388.388,0,0,1-.2-.508.379.379,0,0,1,.5-.2,16.371,16.371,0,0,1,1.812.932.389.389,0,0,1,.037.641.378.378,0,0,1-.424.025m-3.55-1.555a15.575,15.575,0,0,0-1.889-.433.386.386,0,0,1,.122-.763,16.359,16.359,0,0,1,1.981.455.388.388,0,0,1,.123.679.377.377,0,0,1-.338.063m-3.817-.63a15.7,15.7,0,0,0-1.936.044.386.386,0,0,1-.064-.77,16.5,16.5,0,0,1,2.03-.046.388.388,0,0,1,.215.694.377.377,0,0,1-.245.078m-3.852.328a15.488,15.488,0,0,0-1.865.521.38.38,0,0,1-.485-.24.388.388,0,0,1,.237-.491,16.258,16.258,0,0,1,1.957-.546.382.382,0,0,1,.452.3.389.389,0,0,1-.143.388.378.378,0,0,1-.152.07m-3.655,1.271a15.637,15.637,0,0,0-1.684.969.379.379,0,0,1-.528-.112.391.391,0,0,1,.111-.535,16.492,16.492,0,0,1,1.766-1.016.38.38,0,0,1,.51.177.387.387,0,0,1-.175.517m-5.177,3.518a.39.39,0,0,1-.021-.546,16.692,16.692,0,0,1,1.266-1.244c.067-.06.135-.118.2-.177a.375.375,0,0,1,.538.047.39.39,0,0,1-.046.544c-.064.054-.128.11-.192.167a15.93,15.93,0,0,0-1.209,1.188.378.378,0,0,1-.539.021" transform="translate(-788.85 -112.691)" fill="#91b3fa"/>
            </g>
          </g>
        </g>
        <g id="Group_2075" data-name="Group 2075" transform="translate(52.736 27.59)" opacity="0.3">
          <g id="Group_2074" data-name="Group 2074">
            <g id="Group_2073" data-name="Group 2073" clip-path="url(#clip-path-7)">
              <path id="Path_14746" data-name="Path 14746" d="M883.385,499.038a16.578,16.578,0,0,1-1.676,1.1.379.379,0,0,1-.52-.147.391.391,0,0,1,.145-.526,15.765,15.765,0,0,0,1.6-1.049.378.378,0,0,1,.533.082.39.39,0,0,1-.077.537l0,0m1-1.313a.39.39,0,0,1,.016-.546,16.033,16.033,0,0,0,1.307-1.405.379.379,0,0,1,.537-.049.39.39,0,0,1,.048.544,16.8,16.8,0,0,1-1.37,1.472.387.387,0,0,1-.031.027.378.378,0,0,1-.508-.044m-4.468,3.3a16.43,16.43,0,0,1-1.889.657.381.381,0,0,1-.469-.269.387.387,0,0,1,.266-.476,15.7,15.7,0,0,0,1.8-.626.38.38,0,0,1,.5.21.39.39,0,0,1-.122.455.379.379,0,0,1-.085.049m7.035-6.27a.389.389,0,0,1-.114-.534,15.927,15.927,0,0,0,.933-1.683.38.38,0,0,1,.509-.18.389.389,0,0,1,.177.516,16.638,16.638,0,0,1-.979,1.765.387.387,0,0,1-.09.1.378.378,0,0,1-.437.017M876.07,502.1a16.383,16.383,0,0,1-1.99.177.386.386,0,0,1-.021-.773,15.508,15.508,0,0,0,1.9-.169.382.382,0,0,1,.434.325.388.388,0,0,1-.147.365.378.378,0,0,1-.174.074m-3.986.111a16.481,16.481,0,0,1-1.974-.31.386.386,0,0,1-.292-.459.381.381,0,0,1,.454-.3,15.749,15.749,0,0,0,1.883.3.388.388,0,0,1,.194.693.376.376,0,0,1-.266.077m-3.9-.859a16.37,16.37,0,0,1-1.844-.781.389.389,0,0,1-.174-.517.38.38,0,0,1,.511-.176,15.485,15.485,0,0,0,1.758.745.387.387,0,0,1,.235.492.382.382,0,0,1-.13.181.378.378,0,0,1-.356.057" transform="translate(-866.129 -489.551)" fill="#91b3fa"/>
              <path id="Path_14747" data-name="Path 14747" d="M1233.758,449.046a.385.385,0,0,0,.131-.184c.1-.313.2-.631.287-.944a.387.387,0,0,0-.266-.475.382.382,0,0,0-.469.27c-.081.3-.173.6-.274.9a.388.388,0,0,0,.238.49.378.378,0,0,0,.354-.058" transform="translate(-1210.799 -447.43)" fill="#91b3fa"/>
            </g>
          </g>
        </g>
        <path id="Path_14748" data-name="Path 14748" d="M808.573,189.276a.2.2,0,0,0-.123-.19l-2.193-.857a10.458,10.458,0,0,0-1.157-3.15l1.1-2.1a.2.2,0,0,0-.029-.225l-1.92-2.091a.191.191,0,0,0-.22-.046l-2.148.964a10.182,10.182,0,0,0-3.018-1.4l-.685-2.278a.194.194,0,0,0-.178-.138l-2.818-.1a.193.193,0,0,0-.187.125l-.847,2.221a10.159,10.159,0,0,0-3.11,1.171l-2.073-1.119a.191.191,0,0,0-.222.029l-2.065,1.945a.2.2,0,0,0-.045.222l.952,2.176a10.432,10.432,0,0,0-1.379,3.056l-2.249.694a.2.2,0,0,0-.137.18l-.1,2.854a.2.2,0,0,0,.123.19l2.193.857a10.451,10.451,0,0,0,1.157,3.15l-1.105,2.1a.2.2,0,0,0,.029.225l1.92,2.092a.192.192,0,0,0,.22.046l2.148-.964a10.18,10.18,0,0,0,3.018,1.4l.685,2.278a.193.193,0,0,0,.178.138l2.818.1a.193.193,0,0,0,.187-.125l.846-2.221a10.16,10.16,0,0,0,3.11-1.171l2.073,1.119a.192.192,0,0,0,.222-.029l2.065-1.945a.2.2,0,0,0,.045-.222l-.952-2.176A10.433,10.433,0,0,0,806.085,193l2.249-.694a.2.2,0,0,0,.137-.18Z" transform="translate(-736.003 -166.708)" fill="#91b3fa"/>
        <path id="Path_14749" data-name="Path 14749" d="M944.682,339.836a2.833,2.833,0,0,1-2.2.244,2.872,2.872,0,0,1-1.722-1.4,2.946,2.946,0,0,1,1.142-3.968,2.87,2.87,0,0,1,3.918,1.156,2.936,2.936,0,0,1,.241,2.223,2.9,2.9,0,0,1-1.023,1.509,2.942,2.942,0,0,1-.359.236m-3.249-1.528a2.114,2.114,0,0,0,1.267,1.03,2.086,2.086,0,0,0,1.615-.179,2.134,2.134,0,0,0,1.017-1.283,2.16,2.16,0,0,0-.177-1.635,2.111,2.111,0,0,0-2.882-.851,2.147,2.147,0,0,0-.262.172,2.171,2.171,0,0,0-.579,2.747" transform="translate(-883.15 -313.735)" fill="#bdd0fb"/>
        <path id="Path_14750" data-name="Path 14750" d="M880.31,276.673a7.3,7.3,0,0,0,1.526-1.59l.038-.055a.388.388,0,0,0-.095-.538.379.379,0,0,0-.531.1,6.5,6.5,0,0,1-.9,1.045h0l-.055.051a6.33,6.33,0,0,1-4.494,1.688h-.014l-.044,0a6.347,6.347,0,0,1-4.471-2.071,6.563,6.563,0,0,1,.33-9.194,6.366,6.366,0,0,1,9.078.334,6.52,6.52,0,0,1,1.579,3.074.384.384,0,0,0,.069.153.379.379,0,0,0,.383.145.387.387,0,0,0,.294-.458,7.3,7.3,0,0,0-1.767-3.439,7.123,7.123,0,0,0-10.156-.374,7.348,7.348,0,0,0-.845,9.712,7.408,7.408,0,0,0,.475.573,7.131,7.131,0,0,0,9.6.85" transform="translate(-815.891 -247.336)" fill="#bdd0fb"/>
      </g>
    </g>
    <g id="Group_2079" data-name="Group 2079" transform="translate(68.931 132.01)">
      <g id="Group_2078" data-name="Group 2078" clip-path="url(#clip-path-8)">
        <path id="Path_14815" data-name="Path 14815" d="M.136.1,35.5,0l-.136,48.024L0,48.123Z" transform="matrix(0.229, -0.973, 0.973, 0.229, -5.856, 24.804)" fill="url(#linear-gradient-2)"/>
      </g>
    </g>
    <g id="Group_2081" data-name="Group 2081" transform="translate(0 39.931)">
      <g id="Group_2080" data-name="Group 2080" clip-path="url(#clip-path-9)">
        <path id="Path_14816" data-name="Path 14816" d="M.095.057,107.832,0l-.095,177.51L0,177.567Z" transform="translate(-4.213 100.382) rotate(-87.599)" fill="url(#linear-gradient-3)"/>
      </g>
    </g>
    <g id="Group_2083" data-name="Group 2083">
      <g id="Group_2082" data-name="Group 2082" clip-path="url(#clip-path)">
        <path id="Path_14753" data-name="Path 14753" d="M78.918,701.681v73.683a6.776,6.776,0,0,0,6.63,6.816l148.474,1.858a6.591,6.591,0,0,0,6.648-6.609l.248-73.024a4.824,4.824,0,0,0-4.674-4.868l-152.01-3.11a5.222,5.222,0,0,0-5.317,5.255" transform="translate(-74.113 -653.48)" fill="#91b3fa"/>
        <path id="Path_14754" data-name="Path 14754" d="M238.613,2117.108h0l-162.87-2.81a.207.207,0,0,1-.2-.212.21.21,0,0,1,.209-.2l162.87,2.81a.209.209,0,0,1,0,.417" transform="translate(-70.937 -1983.531)" fill="#91b3fa"/>
        <path id="Path_14755" data-name="Path 14755" d="M1413.47,2163.307a1.925,1.925,0,1,1,1.9-1.924,1.915,1.915,0,0,1-1.9,1.924m0-3.432a1.508,1.508,0,1,0,1.489,1.508,1.5,1.5,0,0,0-1.489-1.508" transform="translate(-1325.624 -2026.298)" fill="#91b3fa"/>
      </g>
    </g>
    <g id="Group_2085" data-name="Group 2085" transform="translate(55.466 155.502)">
      <g id="Group_2084" data-name="Group 2084" clip-path="url(#clip-path-11)">
        <rect id="Rectangle_769" data-name="Rectangle 769" width="69.504" height="10.628" transform="translate(-0.434 0.002) rotate(-0.939)" fill="url(#linear-gradient-4)"/>
      </g>
    </g>
    <g id="Group_2090" data-name="Group 2090">
      <g id="Group_2089" data-name="Group 2089" clip-path="url(#clip-path)">
        <path id="Path_14757" data-name="Path 14757" d="M1512.34,2560.438a.209.209,0,0,1,0-.417l2.615-.039a.212.212,0,0,1,.209.205.208.208,0,0,1-.2.212l-2.615.038Z" transform="translate(-1420.064 -2402.124)" fill="#91b3fa"/>
        <path id="Path_14758" data-name="Path 14758" d="M947.132,2566.805a.168.168,0,0,1-.033,0,.208.208,0,0,1-.171-.239l.373-2.366a2.618,2.618,0,0,1,2.54-2.227l27.738-.411h0a.209.209,0,0,1,0,.417l-27.738.411a2.2,2.2,0,0,0-2.139,1.876l-.373,2.366a.207.207,0,0,1-.2.176" transform="translate(-889.271 -2403.605)" fill="#91b3fa"/>
        <g id="Group_2088" data-name="Group 2088" transform="translate(87.232 53.351)" opacity="0.53">
          <g id="Group_2087" data-name="Group 2087">
            <g id="Group_2086" data-name="Group 2086" clip-path="url(#clip-path-13)">
              <rect id="Rectangle_770" data-name="Rectangle 770" width="3.905" height="69.758" transform="translate(0)" fill="#fff"/>
              <rect id="Rectangle_771" data-name="Rectangle 771" width="3.905" height="69.758" transform="translate(6.525)" fill="#fff"/>
              <rect id="Rectangle_772" data-name="Rectangle 772" width="3.905" height="69.758" transform="translate(13.05)" fill="#fff"/>
              <rect id="Rectangle_773" data-name="Rectangle 773" width="3.905" height="69.758" transform="translate(19.576)" fill="#fff"/>
              <rect id="Rectangle_774" data-name="Rectangle 774" width="3.905" height="69.758" transform="translate(26.101)" fill="#fff"/>
              <rect id="Rectangle_775" data-name="Rectangle 775" width="3.905" height="69.758" transform="translate(32.626)" fill="#fff"/>
              <rect id="Rectangle_776" data-name="Rectangle 776" width="3.905" height="69.758" transform="translate(39.151)" fill="#fff"/>
            </g>
          </g>
        </g>
      </g>
    </g>
    <g id="Group_2092" data-name="Group 2092" transform="translate(87.233 86.602)">
      <g id="Group_2091" data-name="Group 2091" clip-path="url(#clip-path-14)">
        <path id="Path_14817" data-name="Path 14817" d="M.1.175,34.307,0l-.1,19.965L0,20.14Z" transform="translate(-14.832 28.928) rotate(-62.872)" fill="url(#linear-gradient-5)"/>
      </g>
    </g>
    <g id="Group_2094" data-name="Group 2094" transform="translate(93.758 99.149)">
      <g id="Group_2093" data-name="Group 2093" clip-path="url(#clip-path-15)">
        <path id="Path_14818" data-name="Path 14818" d="M.074.118,23.141,0l-.074,14.3L0,14.419Z" transform="translate(-9.74 18.99) rotate(-62.872)" fill="url(#linear-gradient-6)"/>
      </g>
    </g>
    <g id="Group_2096" data-name="Group 2096" transform="translate(100.283 68.14)">
      <g id="Group_2095" data-name="Group 2095" clip-path="url(#clip-path-16)">
        <path id="Path_14819" data-name="Path 14819" d="M.146.259,50.738,0l-.146,28.3L0,28.559Z" transform="translate(-22.324 43.552) rotate(-62.872)" fill="url(#linear-gradient-7)"/>
      </g>
    </g>
    <g id="Group_2098" data-name="Group 2098" transform="translate(106.808 109.904)">
      <g id="Group_2097" data-name="Group 2097" clip-path="url(#clip-path-17)">
        <path id="Path_14820" data-name="Path 14820" d="M.049.069,13.57,0l-.049,9.446L0,9.515Z" transform="translate(-5.375 10.472) rotate(-62.872)" fill="url(#linear-gradient-8)"/>
      </g>
    </g>
    <g id="Group_2100" data-name="Group 2100" transform="translate(113.333 75.489)">
      <g id="Group_2099" data-name="Group 2099" clip-path="url(#clip-path-18)">
        <path id="Path_14821" data-name="Path 14821" d="M.129.226,44.2,0l-.129,24.982L0,25.208Z" transform="translate(-19.341 37.731) rotate(-62.872)" fill="url(#linear-gradient-9)"/>
      </g>
    </g>
    <g id="Group_2102" data-name="Group 2102" transform="translate(119.858 83.734)">
      <g id="Group_2101" data-name="Group 2101" clip-path="url(#clip-path-19)">
        <path id="Path_14822" data-name="Path 14822" d="M.11.188,36.86,0l-.11,21.26L0,21.448Z" transform="translate(-15.995 31.2) rotate(-62.872)" fill="url(#linear-gradient-10)"/>
      </g>
    </g>
    <g id="Group_2104" data-name="Group 2104" transform="translate(126.383 92.696)">
      <g id="Group_2103" data-name="Group 2103" clip-path="url(#clip-path-20)">
        <path id="Path_14823" data-name="Path 14823" d="M.089.148,28.884,0l-.089,17.214L0,17.362Z" transform="translate(-12.358 24.101) rotate(-62.872)" fill="url(#linear-gradient-11)"/>
      </g>
    </g>
    <g id="Group_2109" data-name="Group 2109">
      <g id="Group_2108" data-name="Group 2108" clip-path="url(#clip-path)">
        <g id="Group_2107" data-name="Group 2107" transform="translate(13.339 50.164)" opacity="0.57">
          <g id="Group_2106" data-name="Group 2106">
            <g id="Group_2105" data-name="Group 2105" clip-path="url(#clip-path-22)">
              <path id="Path_14759" data-name="Path 14759" d="M228.564,813.509a9.609,9.609,0,1,0,9.487,9.608,9.548,9.548,0,0,0-9.487-9.608m0,15.082a5.474,5.474,0,1,1,5.4-5.474,5.44,5.44,0,0,1-5.4,5.474" transform="translate(-219.077 -813.509)" fill="#fff"/>
            </g>
          </g>
        </g>
      </g>
    </g>
    <g id="Group_2111" data-name="Group 2111" transform="translate(13.339 57.659)">
      <g id="Group_2110" data-name="Group 2110" clip-path="url(#clip-path-23)">
        <path id="Path_14824" data-name="Path 14824" d="M.131.119,20.515,0l-.131,22.29L0,22.41Z" transform="translate(-5.538 8.096) rotate(-55.991)" fill="url(#linear-gradient-12)"/>
      </g>
    </g>
    <g id="Group_2120" data-name="Group 2120">
      <g id="Group_2119" data-name="Group 2119" clip-path="url(#clip-path)">
        <g id="Group_2118" data-name="Group 2118" transform="translate(36.465 50.164)" opacity="0.57">
          <g id="Group_2117" data-name="Group 2117">
            <g id="Group_2116" data-name="Group 2116" clip-path="url(#clip-path-22)">
              <path id="Path_14762" data-name="Path 14762" d="M608.388,813.509a9.609,9.609,0,1,0,9.487,9.608,9.548,9.548,0,0,0-9.487-9.608m0,15.082a5.474,5.474,0,1,1,5.4-5.474,5.44,5.44,0,0,1-5.4,5.474" transform="translate(-598.901 -813.509)" fill="#fff"/>
            </g>
          </g>
        </g>
      </g>
    </g>
    <g id="Group_2122" data-name="Group 2122" transform="translate(36.465 52.99)">
      <g id="Group_2121" data-name="Group 2121" clip-path="url(#clip-path-27)">
        <path id="Path_14825" data-name="Path 14825" d="M.147.142,24.385,0l-.147,24.879L0,25.021Z" transform="translate(-7.703 11.304) rotate(-55.991)" fill="url(#linear-gradient-13)"/>
      </g>
    </g>
    <g id="Group_2131" data-name="Group 2131">
      <g id="Group_2130" data-name="Group 2130" clip-path="url(#clip-path)">
        <g id="Group_2129" data-name="Group 2129" transform="translate(59.592 50.164)" opacity="0.57">
          <g id="Group_2128" data-name="Group 2128">
            <g id="Group_2127" data-name="Group 2127" clip-path="url(#clip-path-22)">
              <path id="Path_14765" data-name="Path 14765" d="M988.212,813.509a9.609,9.609,0,1,0,9.487,9.608,9.548,9.548,0,0,0-9.487-9.608m0,15.082a5.474,5.474,0,1,1,5.405-5.474,5.44,5.44,0,0,1-5.405,5.474" transform="translate(-978.725 -813.509)" fill="#fff"/>
            </g>
          </g>
        </g>
      </g>
    </g>
    <g id="Group_2133" data-name="Group 2133" transform="translate(60.417 63.698)">
      <g id="Group_2132" data-name="Group 2132" clip-path="url(#clip-path-31)">
        <path id="Path_14826" data-name="Path 14826" d="M.1.085,14.569,0l-.1,17.567L0,17.652Z" transform="matrix(0.559, -0.829, 0.829, 0.559, -2.729, 3.943)" fill="url(#linear-gradient-14)"/>
      </g>
    </g>
    <g id="Group_2145" data-name="Group 2145">
      <g id="Group_2144" data-name="Group 2144" clip-path="url(#clip-path)">
        <g id="Group_2140" data-name="Group 2140" transform="translate(13.339 86.94)" opacity="0.44">
          <g id="Group_2139" data-name="Group 2139">
            <g id="Group_2138" data-name="Group 2138" clip-path="url(#clip-path-34)">
              <path id="Path_14768" data-name="Path 14768" d="M282.1,1446.466,221.246,1446a2.2,2.2,0,0,1-2.169-2.213v-31.665a2.2,2.2,0,0,1,2.185-2.213h60.856a2.2,2.2,0,0,1,2.185,2.213v32.128a2.2,2.2,0,0,1-2.2,2.213" transform="translate(-219.077 -1409.911)" fill="#fff"/>
            </g>
          </g>
        </g>
        <g id="Group_2143" data-name="Group 2143" transform="translate(15.62 92.858)" opacity="0.44">
          <g id="Group_2142" data-name="Group 2142">
            <g id="Group_2141" data-name="Group 2141" clip-path="url(#clip-path-35)">
              <path id="Path_14769" data-name="Path 14769" d="M307.84,1514.26l-7.825-8.379-11.221,12.36-7.917-8.652-7.425,8.5-5.694-7.006-11.222,11.832v8.556a2.046,2.046,0,0,0,2.017,2.058l56.6.431a2.046,2.046,0,0,0,2.048-2.059v-23.278Z" transform="translate(-256.535 -1505.881)" fill="#fff"/>
            </g>
          </g>
        </g>
        <rect id="Rectangle_804" data-name="Rectangle 804" width="0.206" height="19.935" transform="translate(66.972 101.004)" fill="#fff"/>
        <rect id="Rectangle_805" data-name="Rectangle 805" width="0.206" height="27.966" transform="translate(58.996 92.858)" fill="#fff"/>
        <rect id="Rectangle_806" data-name="Rectangle 806" width="0.206" height="15.671" transform="translate(47.776 105.067)" fill="#fff"/>
        <rect id="Rectangle_807" data-name="Rectangle 807" width="0.206" height="23.866" transform="translate(40.069 96.872)" fill="#fff"/>
        <rect id="Rectangle_808" data-name="Rectangle 808" width="0.206" height="15.925" transform="translate(32.433 104.813)" fill="#fff"/>
        <rect id="Rectangle_809" data-name="Rectangle 809" width="0.206" height="23.119" transform="translate(26.859 97.467)" fill="#fff"/>
      </g>
    </g>
    <g id="Group_2147" data-name="Group 2147" transform="translate(25.243 95.725)">
      <g id="Group_2146" data-name="Group 2146" clip-path="url(#clip-path-36)">
        <path id="Path_14827" data-name="Path 14827" d="M.017.017,4.412,0,4.395,4.351,0,4.367Z" transform="translate(-1.046 3.15) rotate(-71.697)" fill="url(#linear-gradient-15)"/>
      </g>
    </g>
    <g id="Group_2149" data-name="Group 2149" transform="translate(31.403 103.666)">
      <g id="Group_2148" data-name="Group 2148" clip-path="url(#clip-path-37)">
        <path id="Path_14828" data-name="Path 14828" d="M.011.011,2.906,0,2.9,2.866,0,2.877Z" transform="translate(-0.689 2.075) rotate(-71.697)" fill="url(#linear-gradient-16)"/>
      </g>
    </g>
    <g id="Group_2151" data-name="Group 2151" transform="translate(39.039 95.725)">
      <g id="Group_2150" data-name="Group 2150" clip-path="url(#clip-path-38)">
        <path id="Path_14829" data-name="Path 14829" d="M.011.011,2.906,0,2.9,2.866,0,2.877Z" transform="matrix(0.314, -0.949, 0.949, 0.314, -0.689, 2.075)" fill="url(#linear-gradient-17)"/>
      </g>
    </g>
    <g id="Group_2153" data-name="Group 2153" transform="translate(46.746 103.92)">
      <g id="Group_2152" data-name="Group 2152" clip-path="url(#clip-path-39)">
        <path id="Path_14830" data-name="Path 14830" d="M.011.011,2.906,0,2.9,2.866,0,2.877Z" transform="translate(-0.689 2.075) rotate(-71.697)" fill="url(#linear-gradient-18)"/>
      </g>
    </g>
    <g id="Group_2155" data-name="Group 2155" transform="translate(57.966 91.711)">
      <g id="Group_2154" data-name="Group 2154" clip-path="url(#clip-path-40)">
        <path id="Path_14831" data-name="Path 14831" d="M.011.011,2.906,0,2.9,2.866,0,2.877Z" transform="translate(-0.689 2.075) rotate(-71.697)" fill="url(#linear-gradient-19)"/>
      </g>
    </g>
    <g id="Group_2157" data-name="Group 2157" transform="translate(65.943 99.857)">
      <g id="Group_2156" data-name="Group 2156" clip-path="url(#clip-path-41)">
        <path id="Path_14832" data-name="Path 14832" d="M.011.011,2.906,0,2.9,2.866,0,2.877Z" transform="matrix(0.314, -0.949, 0.949, 0.314, -0.689, 2.075)" fill="url(#linear-gradient-20)"/>
      </g>
    </g>
    <g id="Group_2168" data-name="Group 2168">
      <g id="Group_2167" data-name="Group 2167" clip-path="url(#clip-path)">
        <g id="Group_2160" data-name="Group 2160" transform="translate(12.977 73.776)" opacity="0.48">
          <g id="Group_2159" data-name="Group 2159">
            <g id="Group_2158" data-name="Group 2158" clip-path="url(#clip-path-43)">
              <path id="Path_14776" data-name="Path 14776" d="M231.086,1324.418H214.4c-.7,0-1.264.4-1.264.891s.566.891,1.264.891h16.682c.7,0,1.264-.4,1.264-.891s-.566-.891-1.264-.891" transform="translate(-213.14 -1316.526)" fill="#fff"/>
              <path id="Path_14777" data-name="Path 14777" d="M231.086,1260.424H214.4c-.7,0-1.264.4-1.264.891s.566.891,1.264.891h16.682c.7,0,1.264-.4,1.264-.891s-.566-.891-1.264-.891" transform="translate(-213.14 -1256.478)" fill="#fff"/>
              <path id="Path_14778" data-name="Path 14778" d="M231.086,1196.431H214.4c-.7,0-1.264.4-1.264.891s.566.891,1.264.891h16.682c.7,0,1.264-.4,1.264-.891s-.566-.891-1.264-.891" transform="translate(-213.14 -1196.431)" fill="#fff"/>
            </g>
          </g>
        </g>
        <g id="Group_2163" data-name="Group 2163" transform="translate(36.167 73.776)" opacity="0.48">
          <g id="Group_2162" data-name="Group 2162">
            <g id="Group_2161" data-name="Group 2161" clip-path="url(#clip-path-43)">
              <path id="Path_14779" data-name="Path 14779" d="M611.944,1324.418H595.262c-.7,0-1.264.4-1.264.891s.566.891,1.264.891h16.682c.7,0,1.264-.4,1.264-.891s-.566-.891-1.264-.891" transform="translate(-593.998 -1316.526)" fill="#fff"/>
              <path id="Path_14780" data-name="Path 14780" d="M611.944,1260.424H595.262c-.7,0-1.264.4-1.264.891s.566.891,1.264.891h16.682c.7,0,1.264-.4,1.264-.891s-.566-.891-1.264-.891" transform="translate(-593.998 -1256.478)" fill="#fff"/>
              <path id="Path_14781" data-name="Path 14781" d="M611.944,1196.431H595.262c-.7,0-1.264.4-1.264.891s.566.891,1.264.891h16.682c.7,0,1.264-.4,1.264-.891s-.566-.891-1.264-.891" transform="translate(-593.998 -1196.431)" fill="#fff"/>
            </g>
          </g>
        </g>
        <g id="Group_2166" data-name="Group 2166" transform="translate(59.356 73.776)" opacity="0.48">
          <g id="Group_2165" data-name="Group 2165">
            <g id="Group_2164" data-name="Group 2164" clip-path="url(#clip-path-43)">
              <path id="Path_14782" data-name="Path 14782" d="M992.8,1324.418H976.121c-.7,0-1.264.4-1.264.891s.566.891,1.264.891H992.8c.7,0,1.264-.4,1.264-.891s-.566-.891-1.264-.891" transform="translate(-974.857 -1316.526)" fill="#fff"/>
              <path id="Path_14783" data-name="Path 14783" d="M992.8,1260.424H976.121c-.7,0-1.264.4-1.264.891s.566.891,1.264.891H992.8c.7,0,1.264-.4,1.264-.891s-.566-.891-1.264-.891" transform="translate(-974.857 -1256.478)" fill="#fff"/>
              <path id="Path_14784" data-name="Path 14784" d="M992.8,1196.431H976.121c-.7,0-1.264.4-1.264.891s.566.891,1.264.891H992.8c.7,0,1.264-.4,1.264-.891s-.566-.891-1.264-.891" transform="translate(-974.857 -1196.431)" fill="#fff"/>
            </g>
          </g>
        </g>
      </g>
    </g>
    <g id="Group_2170" data-name="Group 2170" transform="translate(140.164 77.559)">
      <g id="Group_2169" data-name="Group 2169" clip-path="url(#clip-path-46)">
        <rect id="Rectangle_821" data-name="Rectangle 821" width="15.438" height="15.635" transform="translate(0 0)" fill="url(#linear-gradient-21)"/>
      </g>
    </g>
    <g id="Group_2175" data-name="Group 2175">
      <g id="Group_2174" data-name="Group 2174" clip-path="url(#clip-path)">
        <path id="Path_14786" data-name="Path 14786" d="M2337.555,1291.032a5.061,5.061,0,0,1,.372,1.908,4.959,4.959,0,1,1-4.958-5.021c.084,0,.167,0,.25.006v-1.273c-.083,0-.167-.005-.25-.005a6.294,6.294,0,1,0,6.214,6.293,6.339,6.339,0,0,0-.474-2.415Z" transform="translate(-2185.084 -1207.308)" fill="#91b3fa"/>
        <g id="Group_2173" data-name="Group 2173" transform="translate(140.219 96.505)" opacity="0.5">
          <g id="Group_2172" data-name="Group 2172">
            <g id="Group_2171" data-name="Group 2171" clip-path="url(#clip-path-48)">
              <path id="Path_14787" data-name="Path 14787" d="M2316.95,1565.035h-12.579a1.448,1.448,0,0,0,0,2.9h12.579a1.448,1.448,0,0,0,0-2.9" transform="translate(-2302.941 -1565.035)" fill="#fff"/>
            </g>
          </g>
        </g>
      </g>
    </g>
    <g id="Group_2177" data-name="Group 2177" transform="translate(140.131 52.433)">
      <g id="Group_2176" data-name="Group 2176" clip-path="url(#clip-path-49)">
        <rect id="Rectangle_824" data-name="Rectangle 824" width="15.438" height="15.635" transform="translate(0 0)" fill="url(#linear-gradient-22)"/>
      </g>
    </g>
    <g id="Group_2185" data-name="Group 2185">
      <g id="Group_2184" data-name="Group 2184" clip-path="url(#clip-path)">
        <path id="Path_14789" data-name="Path 14789" d="M2334.772,889.718a4.888,4.888,0,0,1-2.642.773,5.022,5.022,0,0,1,0-10.043q.126,0,.25.006v-1.273c-.083,0-.166-.005-.25-.005a6.294,6.294,0,0,0,0,12.587,6.129,6.129,0,0,0,3.265-.938Z" transform="translate(-2184.298 -824.963)" fill="#91b3fa"/>
        <g id="Group_2180" data-name="Group 2180" transform="translate(140.253 71.379)" opacity="0.5">
          <g id="Group_2179" data-name="Group 2179">
            <g id="Group_2178" data-name="Group 2178" clip-path="url(#clip-path-51)">
              <path id="Path_14790" data-name="Path 14790" d="M2317.495,1157.565h-12.579a1.448,1.448,0,0,0,0,2.9h12.579a1.448,1.448,0,0,0,0-2.9" transform="translate(-2303.487 -1157.564)" fill="#fff"/>
            </g>
          </g>
        </g>
        <g id="Group_2183" data-name="Group 2183" transform="translate(140.192 102.813)" opacity="0.91">
          <g id="Group_2182" data-name="Group 2182">
            <g id="Group_2181" data-name="Group 2181" clip-path="url(#clip-path-52)">
              <path id="Path_14791" data-name="Path 14791" d="M2317.928,1675.142a7.72,7.72,0,1,1-7.719-7.818,7.769,7.769,0,0,1,7.719,7.818" transform="translate(-2302.49 -1667.324)" fill="#fff"/>
            </g>
          </g>
        </g>
      </g>
    </g>
    <g id="Group_2187" data-name="Group 2187" transform="translate(141.8 104.337)">
      <g id="Group_2186" data-name="Group 2186" clip-path="url(#clip-path-53)">
        <path id="Path_14833" data-name="Path 14833" d="M.107.107,16.984,0l-.107,16.929L0,17.035Z" transform="matrix(0.725, -0.688, 0.688, 0.725, -6.357, 5.961)" fill="url(#linear-gradient-23)"/>
      </g>
    </g>
    <g id="Group_2192" data-name="Group 2192">
      <g id="Group_2191" data-name="Group 2191" clip-path="url(#clip-path)">
        <g id="Group_2190" data-name="Group 2190" transform="translate(140.192 121.504)" opacity="0.5">
          <g id="Group_2189" data-name="Group 2189">
            <g id="Group_2188" data-name="Group 2188" clip-path="url(#clip-path-51)">
              <path id="Path_14793" data-name="Path 14793" d="M2303.92,1973.326H2316.5a1.448,1.448,0,0,0,0-2.9H2303.92a1.448,1.448,0,0,0,0,2.9" transform="translate(-2302.49 -1970.43)" fill="#fff"/>
            </g>
          </g>
        </g>
      </g>
    </g>
    <g id="Group_2194" data-name="Group 2194" transform="translate(139.729 167.003)">
      <g id="Group_2193" data-name="Group 2193" clip-path="url(#clip-path-56)">
        <path id="Path_14834" data-name="Path 14834" d="M.075.077,12.287,0l-.075,11.865L0,11.942Z" transform="matrix(0.736, -0.677, 0.677, 0.736, -2.9, 2.523)" fill="url(#linear-gradient-24)"/>
      </g>
    </g>
    <g id="Group_2196" data-name="Group 2196" transform="translate(147.989 165.528)">
      <g id="Group_2195" data-name="Group 2195" clip-path="url(#clip-path-57)">
        <rect id="Rectangle_832" data-name="Rectangle 832" width="2.857" height="3.363" transform="translate(0)" fill="url(#linear-gradient-25)"/>
      </g>
    </g>
    <g id="Group_2198" data-name="Group 2198" transform="translate(148.174 122.929)">
      <g id="Group_2197" data-name="Group 2197" clip-path="url(#clip-path-58)">
        <rect id="Rectangle_833" data-name="Rectangle 833" width="9.827" height="49.535" transform="translate(-0.038 -5.643)" fill="url(#linear-gradient-26)"/>
      </g>
    </g>
    <g id="Group_2200" data-name="Group 2200" transform="translate(157.154 168)">
      <g id="Group_2199" data-name="Group 2199" clip-path="url(#clip-path-59)">
        <path id="Path_14835" data-name="Path 14835" d="M.042.042,6.661,0,6.62,6.62,0,6.662Z" transform="translate(-2.401 2.131) rotate(-42.594)" fill="url(#linear-gradient-27)"/>
      </g>
    </g>
    <g id="Group_2202" data-name="Group 2202" transform="translate(158.677 164.927)">
      <g id="Group_2201" data-name="Group 2201" clip-path="url(#clip-path-60)">
        <rect id="Rectangle_835" data-name="Rectangle 835" width="2.467" height="4.055" fill="url(#linear-gradient-28)"/>
      </g>
    </g>
    <g id="Group_2204" data-name="Group 2204" transform="translate(150.391 122.211)">
      <g id="Group_2203" data-name="Group 2203" clip-path="url(#clip-path-61)">
        <rect id="Rectangle_836" data-name="Rectangle 836" width="14.961" height="44.76" fill="url(#linear-gradient-29)"/>
      </g>
    </g>
    <g id="Group_2206" data-name="Group 2206" transform="translate(135.89 93.409)">
      <g id="Group_2205" data-name="Group 2205" clip-path="url(#clip-path-62)">
        <path id="Path_14836" data-name="Path 14836" d="M.136.146,40.773,0l-.136,37.59L0,37.736Z" transform="translate(-9.58 30.549) rotate(-72.646)" fill="url(#linear-gradient-30)"/>
      </g>
    </g>
    <g id="Group_2208" data-name="Group 2208" transform="translate(124.492 82.82)">
      <g id="Group_2207" data-name="Group 2207" clip-path="url(#clip-path-63)">
        <rect id="Rectangle_838" data-name="Rectangle 838" width="14.597" height="17.364" transform="translate(0 0)" fill="url(#linear-gradient-31)"/>
      </g>
    </g>
    <g id="Group_2210" data-name="Group 2210" transform="translate(121.274 75.465)">
      <g id="Group_2209" data-name="Group 2209" clip-path="url(#clip-path-64)">
        <path id="Path_14837" data-name="Path 14837" d="M.047.039,8.424,0,8.377,10.2,0,10.235Z" transform="translate(-3.512 1.407) rotate(-23.726)" fill="url(#linear-gradient-32)"/>
      </g>
    </g>
    <g id="Group_2212" data-name="Group 2212" transform="translate(123.223 78.981)">
      <g id="Group_2211" data-name="Group 2211" clip-path="url(#clip-path-65)">
        <path id="Path_14838" data-name="Path 14838" d="M.024.022,3.775,0,3.751,4.177,0,4.2Z" transform="translate(-1.782 1.059) rotate(-33.04)" fill="url(#linear-gradient-33)"/>
      </g>
    </g>
    <g id="Group_2214" data-name="Group 2214" transform="translate(159.766 96.665)">
      <g id="Group_2213" data-name="Group 2213" clip-path="url(#clip-path-66)">
        <path id="Path_14839" data-name="Path 14839" d="M.052.055,15.478,0l-.052,14.345L0,14.4Z" transform="translate(-3.629 11.572) rotate(-72.646)" fill="url(#linear-gradient-34)"/>
      </g>
    </g>
    <g id="Group_2216" data-name="Group 2216" transform="translate(152.558 107.667)">
      <g id="Group_2215" data-name="Group 2215" clip-path="url(#clip-path-67)">
        <rect id="Rectangle_842" data-name="Rectangle 842" width="18.662" height="14.486" fill="url(#linear-gradient-35)"/>
      </g>
    </g>
    <g id="Group_2218" data-name="Group 2218" transform="translate(134.783 100.215)">
      <g id="Group_2217" data-name="Group 2217" clip-path="url(#clip-path-68)">
        <path id="Path_14840" data-name="Path 14840" d="M.068.061,21.505,0l-.068,23.378L0,23.439Z" transform="translate(-4.025 16.327) rotate(-76.504)" fill="url(#linear-gradient-36)"/>
      </g>
    </g>
    <g id="Group_2220" data-name="Group 2220" transform="translate(140.354 98.731)">
      <g id="Group_2219" data-name="Group 2219" clip-path="url(#clip-path-69)">
        <path id="Path_14841" data-name="Path 14841" d="M.007.011,4.157,0,4.15,2.65,0,2.661Z" transform="matrix(0.975, -0.222, 0.222, 0.975, -0.439, 0.081)" fill="url(#linear-gradient-37)"/>
      </g>
    </g>
    <g id="Group_2222" data-name="Group 2222" transform="translate(138.893 99.681)">
      <g id="Group_2221" data-name="Group 2221" clip-path="url(#clip-path-70)">
        <path id="Path_14842" data-name="Path 14842" d="M.008.016,7.618,0,7.61,3.824,0,3.84Z" transform="translate(-0.473 0.057) rotate(-9.462)" fill="url(#linear-gradient-38)"/>
      </g>
    </g>
    <g id="Group_2224" data-name="Group 2224" transform="translate(148.174 107.862)">
      <g id="Group_2223" data-name="Group 2223" clip-path="url(#clip-path-71)">
        <rect id="Rectangle_846" data-name="Rectangle 846" width="5.94" height="5.355" transform="translate(0)" fill="url(#linear-gradient-39)"/>
      </g>
    </g>
    <g id="Group_2226" data-name="Group 2226" transform="translate(149.543 88.452)">
      <g id="Group_2225" data-name="Group 2225" clip-path="url(#clip-path-72)">
        <rect id="Rectangle_847" data-name="Rectangle 847" width="7.329" height="8.765" fill="url(#linear-gradient-40)"/>
      </g>
    </g>
    <g id="Group_2228" data-name="Group 2228" transform="translate(146.725 80.744)">
      <g id="Group_2227" data-name="Group 2227" clip-path="url(#clip-path-73)">
        <rect id="Rectangle_848" data-name="Rectangle 848" width="7.984" height="9.898" transform="matrix(1, -0.023, 0.023, 1, -0.223, 0.005)" fill="url(#linear-gradient-41)"/>
      </g>
    </g>
    <g id="Group_2230" data-name="Group 2230" transform="translate(145.975 77.638)">
      <g id="Group_2229" data-name="Group 2229" clip-path="url(#clip-path-74)">
        <path id="Path_14843" data-name="Path 14843" d="M.108.112,18.855,0l-.108,17.861L0,17.974Z" transform="translate(-7.21 9.897) rotate(-54.249)" fill="url(#linear-gradient-42)"/>
      </g>
    </g>
    <g id="Group_2232" data-name="Group 2232" transform="translate(153.006 86.43)">
      <g id="Group_2231" data-name="Group 2231" clip-path="url(#clip-path-75)">
        <path id="Path_14844" data-name="Path 14844" d="M.008.007,3.882,0,3.874,4.357,0,4.364Z" transform="matrix(0.989, -0.148, 0.148, 0.989, -0.573, 0.08)" fill="url(#linear-gradient-43)"/>
      </g>
    </g>
  </g>
</svg>
