<svg xmlns="http://www.w3.org/2000/svg" width="58.269" height="50" viewBox="0 0 58.269 50">
  <g id="Group_13393" data-name="Group 13393" transform="translate(-408.999 -264.2)">
    <path id="Path_10409" data-name="Path 10409" d="M53.414,72H4.856C2.175,72,0,74.667,0,77.952v38.1C0,119.333,2.175,122,4.856,122H53.414a3.693,3.693,0,0,0,.813-.087c2.337-.479,4.047-2.961,4.043-5.865v-38.1C58.266,74.667,56.094,72,53.414,72ZM4.856,119.619a3.224,3.224,0,0,1-2.9-3.257l19.363-15.519,19.691,18.776Zm51.471-3.571a3.429,3.429,0,0,1-2.438,3.52,2.168,2.168,0,0,1-.476.051H44.171L31.3,107.344,42.81,96.065l13.517,9.942Zm0-12.817L43.231,93.6a.83.83,0,0,0-1.107.09l-12.4,12.155-7.764-7.4a.83.83,0,0,0-1.127-.057L1.942,113.526V77.952c0-1.972,1.3-3.571,2.913-3.571H53.414c1.609,0,2.913,1.6,2.913,3.571Z" transform="translate(408.999 192.2)" fill="#898989"/>
    <path id="Path_10410" data-name="Path 10410" d="M198.526,120a6.526,6.526,0,1,0,6.526,6.526A6.526,6.526,0,0,0,198.526,120Zm0,10.877a4.351,4.351,0,1,1,4.351-4.351A4.351,4.351,0,0,1,198.526,130.877Z" transform="translate(239.78 159.726)" fill="#898989"/>
  </g>
</svg>
