<svg xmlns="http://www.w3.org/2000/svg" width="33.003" height="39.254" viewBox="0 0 33.003 39.254">
  <path id="Icon_awesome-file-image" data-name="Icon awesome-file-image" d="M33,9.349v.465H22V0h.521a2.2,2.2,0,0,1,1.458.539L32.4,8.048A1.746,1.746,0,0,1,33,9.349ZM21.314,12.267a1.967,1.967,0,0,1-2.063-1.84V0H2.063A1.961,1.961,0,0,0,0,1.84V37.414a1.961,1.961,0,0,0,2.063,1.84H30.94A1.961,1.961,0,0,0,33,37.414V12.267ZM9.673,13.494a3.922,3.922,0,0,1,4.125,3.68,3.922,3.922,0,0,1-4.125,3.68,3.922,3.922,0,0,1-4.125-3.68A3.922,3.922,0,0,1,9.673,13.494Zm17.876,18.4h-22l.042-3.717,3.4-3.03a1.067,1.067,0,0,1,1.417.037l3.4,3.03,8.9-7.936a1.122,1.122,0,0,1,1.459,0l3.4,3.03Z" fill="#1f3777"/>
</svg>
