<svg xmlns="http://www.w3.org/2000/svg" xmlns:xlink="http://www.w3.org/1999/xlink" width="155" height="120" viewBox="0 0 155 120">
  <defs>
    <clipPath id="clip-path">
      <path id="Path_14129" data-name="Path 14129" d="M34.37-.037A34.146,34.146,0,1,1,.189,34.074,34.146,34.146,0,0,1,34.37-.037Z" transform="matrix(0.157, -0.988, 0.988, 0.157, 0, 67.905)" fill="none"/>
    </clipPath>
    <clipPath id="clip-Web_1920_1">
      <rect width="155" height="120"/>
    </clipPath>
  </defs>
  <g id="Web_1920_1" data-name="Web 1920 – 1" clip-path="url(#clip-Web_1920_1)">
    <g id="Group_15718" data-name="Group 15718" transform="translate(-102.024 -135.777)">
      <g id="Group_1" data-name="Group 1">
        <path id="Path_14031" data-name="Path 14031" d="M162.28,292.2a39.587,39.587,0,0,0,5.343,6.728" transform="translate(-21.935 -80.68)" fill="none" stroke="#2e2e2e" stroke-width="0.5" stroke-dasharray="5"/>
        <path id="Path_14032" data-name="Path 14032" d="M195.852,155.382a53.727,53.727,0,0,0-13.011,5.24" transform="translate(-32.609 -10.109)" fill="none" stroke="#2e2e2e" stroke-width="0.5" stroke-dasharray="5"/>
        <path id="Path_14033" data-name="Path 14033" d="M282.92,157.3a56.4,56.4,0,0,0-15.026-4.6" transform="translate(-76.762 -8.728)" fill="none" stroke="#2e2e2e" stroke-width="0.5" stroke-dasharray="5"/>
        <path id="Path_14034" data-name="Path 14034" d="M345.893,225.629a38.612,38.612,0,0,0-1.926-12.855" transform="translate(-116.253 -39.712)" fill="none" stroke="#2e2e2e" stroke-width="0.5" stroke-dasharray="5"/>
        <path id="Path_14035" data-name="Path 14035" d="M324.911,291.7a48.423,48.423,0,0,0,5.292-7.5" transform="translate(-106.361 -76.551)" fill="none" stroke="#2e2e2e" stroke-width="0.5" stroke-dasharray="5"/>
        <g id="Group_15692" data-name="Group 15692" transform="translate(218.231 185.104)">
          <path id="Path_14036" data-name="Path 14036" d="M336.442,251.323a7.082,7.082,0,0,0-1.282,9.873,6.968,6.968,0,0,0,9.871.594,7.082,7.082,0,0,0,1.282-9.873,6.968,6.968,0,0,0-9.871-.594Z" transform="translate(-329.153 -243.791)" fill="#e25f37"/>
          <path id="Path_14037" data-name="Path 14037" d="M324.674,237.9a1.768,1.768,0,0,0-.374,1.735,13.8,13.8,0,0,0,1.483,3.8,67.226,67.226,0,0,0,14.606,17.8c2.618,2.109,4.366,2.829,5.194,2.14a1.034,1.034,0,0,0,.2-.236l.005-.008a1.959,1.959,0,0,0,.192-1.288,3.39,3.39,0,0,0-.453-2.184A46.383,46.383,0,0,0,340.1,250.8q-1.569-2.055-3.322-3.957-.447-.485-.911-.954a52.772,52.772,0,0,0-6.006-5.853C327.25,237.927,325.5,237.207,324.674,237.9Zm2.8,1.668a22.87,22.87,0,0,1,2.161,1.573c1,.817,1.915,1.738,2.867,2.612a.33.33,0,0,0,.019.039,15.518,15.518,0,0,0,1.808,1.949c.628.631,1.24,1.279,1.844,1.935a57.919,57.919,0,0,1,5.737,7.389c.847,1.288,1.648,2.611,2.4,3.955.157.28.337.566.508.859a8.926,8.926,0,0,1,.581,1.863c.009.051.012.1.018.144a1.042,1.042,0,0,1-.525.7,9.032,9.032,0,0,1-2.1-1.137,21.514,21.514,0,0,1-2.584-1.99,55.585,55.585,0,0,1-4.183-4.293c-1.445-1.587-2.87-3.195-4.214-4.871a50.09,50.09,0,0,1-3.712-5.23,26.4,26.4,0,0,1-1.472-2.7,10.208,10.208,0,0,1-1.14-2.724.745.745,0,0,1,.175-.653c.413-.345,1.423.328,1.813.577Z" transform="translate(-324.246 -237.643)" fill="#161421"/>
          <path id="Path_14038" data-name="Path 14038" d="M343.708,254.7a48.516,48.516,0,0,1,4.892,6.821,7.045,7.045,0,0,0,.981-9.6,6.934,6.934,0,0,0-9.588-.808A32.062,32.062,0,0,1,343.708,254.7Z" transform="translate(-332.421 -243.796)" fill="#5daabb"/>
        </g>
        <g id="Group_15693" data-name="Group 15693" transform="translate(166.713 135.782)">
          <path id="Path_14039" data-name="Path 14039" d="M238.33,136.253a.487.487,0,0,0-.721-.416l-.432.2a.652.652,0,0,0-.313.106l-.213.144a13.373,13.373,0,0,0-5.66,4.721c-1.229,1.985-1.835,5.027-.4,7.069a20.306,20.306,0,0,0-.514,2.894c-.035.33-.066.659-.09.987-.1-.152-.194-.3-.3-.453a22.59,22.59,0,0,0-2.21-2.757,1.011,1.011,0,0,1-.228-.314,1.184,1.184,0,0,1-.052-.354,5.64,5.64,0,0,0-.989-2.315q-.287-.506-.619-.983a10.813,10.813,0,0,0-1.351-1.59,6.709,6.709,0,0,0-2.786-1.654,11.286,11.286,0,0,0-3.515-.332.835.835,0,0,0-.709,1.245,18.675,18.675,0,0,0,3.965,4.909,8.321,8.321,0,0,0,4.6,1.626,4.409,4.409,0,0,1,.691.069c.352.373.7.749,1.034,1.137q.75.868,1.413,1.8c.171.279.349.555.538.824.155.254.31.508.474.754-.05.307-.1.614-.142.922-.08.629.92.635.988,0v-.01a15.687,15.687,0,0,0,.6-3.141c.151-1.039.318-2.082.566-3.1a12.56,12.56,0,0,0,5.256-4.513C238.569,141.533,238.538,138.738,238.33,136.253Z" transform="translate(-217.113 -135.782)" fill="#ffcb4e"/>
          <path id="Path_14040" data-name="Path 14040" d="M249.113,148.7a13.416,13.416,0,0,0-2.961,6.59c-.018.123.165.178.189.052a14.578,14.578,0,0,1,2.96-6.453C249.407,148.759,249.225,148.569,249.113,148.7Z" transform="translate(-232.187 -142.423)"/>
          <path id="Path_14041" data-name="Path 14041" d="M233.451,159.09a10.389,10.389,0,0,1-3.792-2.976c-.1-.123-.264.051-.171.172a9.876,9.876,0,0,0,3.872,2.961C233.465,159.295,233.557,159.138,233.451,159.09Z" transform="translate(-223.522 -146.248)"/>
        </g>
        <g id="Group_15697" data-name="Group 15697" transform="translate(206.561 146.183)">
          <g id="Group_15694" data-name="Group 15694" transform="translate(0 0.261)">
            <path id="Path_14042" data-name="Path 14042" d="M324.545,177.132l-11.682,7.12-12.885-18.663,12.389-7.551a1.623,1.623,0,0,1,2.16.432l10.726,15.538a2.178,2.178,0,0,1-.708,3.124Z" transform="translate(-299.978 -157.801)" fill="#e25f37"/>
          </g>
          <path id="Path_14043" data-name="Path 14043" d="M328.092,176.089l-10.973,6.639-12.818-18.7,10.973-6.639a.86.86,0,0,1,1.145.233l11.921,17.4a.75.75,0,0,1-.248,1.067Z" transform="translate(-302.222 -157.262)" fill="#5daabb"/>
          <path id="Path_14044" data-name="Path 14044" d="M321.316,169.442c-.162.112-.325.213-.455.3q-1.761,1.219-3.634,2.287a2.552,2.552,0,0,1-.99.388c-.693.067-1.364-.566-1.142-1.214a2.362,2.362,0,0,1,1.13-1.094c.984-.728,2.132-1.357,3.191-1.986a2.38,2.38,0,0,1,1.565-.411,1.4,1.4,0,0,1,.84.476C322.242,168.7,321.786,169.117,321.316,169.442Z" transform="translate(-307.803 -162.642)" fill="#161421"/>
          <path id="Path_14045" data-name="Path 14045" d="M302.694,176.694l-.166.037a1.014,1.014,0,0,0-.183.069q-.164.074-.324.153c-.107.053-.206.1-.307.159a1.7,1.7,0,0,0-.335.207.217.217,0,0,0-.021.3.253.253,0,0,0,.311.061,2.3,2.3,0,0,0,.31-.22l.034-.025q-.025.018.007,0l.071-.049c.047-.033.1-.065.143-.1q.144-.1.291-.186a2.343,2.343,0,0,0,.283-.214C302.9,176.8,302.8,176.671,302.694,176.694Z" transform="translate(-300.669 -167.283)" fill="#4080ca"/>
          <path id="Path_14046" data-name="Path 14046" d="M307.76,183.907a.136.136,0,0,0-.175-.045,2.034,2.034,0,0,1-.323.092,2.232,2.232,0,0,0-.358.131c-.1.045-.207.092-.309.144-.139.07-.335.144-.368.306a.236.236,0,0,0,.045.213.278.278,0,0,0,.2.1c.163.019.3-.13.415-.218l.067-.048h0l.035-.024c.006,0,.076-.054.034-.025l.035-.024.079-.054c.1-.068.2-.132.3-.208a1.167,1.167,0,0,1,.275-.171.118.118,0,0,0,.048-.169Z" transform="translate(-303.218 -170.975)" fill="#4080ca"/>
          <g id="Group_15695" data-name="Group 15695" transform="translate(3.723 14.28)">
            <path id="Path_14047" data-name="Path 14047" d="M310.785,187.869h-.011C310.8,187.871,310.8,187.87,310.785,187.869Z" transform="translate(-309.306 -187.328)" fill="#4080ca"/>
            <path id="Path_14048" data-name="Path 14048" d="M309.342,186.773c-.332-.089-.637.138-.91.284a4.268,4.268,0,0,0-.378.214l-.186.124a.357.357,0,0,0-.142.178.1.1,0,0,0,.074.125.37.37,0,0,0,.2.007c.063-.015.125-.035.188-.053a4.312,4.312,0,0,0,.415-.148l.37-.146.059-.023c.024-.008.047-.017.071-.024l.057-.015h.039a.289.289,0,0,0,.333-.186.273.273,0,0,0-.19-.337Z" transform="translate(-307.72 -186.753)" fill="#4080ca"/>
            <path id="Path_14049" data-name="Path 14049" d="M310.788,187.867Z" transform="translate(-309.313 -187.327)" fill="#4080ca"/>
          </g>
          <g id="Group_15696" data-name="Group 15696" transform="translate(1.626 10.981)">
            <path id="Path_14050" data-name="Path 14050" d="M306.425,181.056h-.011C306.439,181.058,306.438,181.057,306.425,181.056Z" transform="translate(-304.945 -180.515)" fill="#4080ca"/>
            <path id="Path_14051" data-name="Path 14051" d="M304.981,179.96c-.331-.089-.637.138-.91.284a4.2,4.2,0,0,0-.378.215l-.186.124a.36.36,0,0,0-.142.178.1.1,0,0,0,.074.124.37.37,0,0,0,.2.007c.063-.015.125-.035.188-.053a4.314,4.314,0,0,0,.415-.148l.37-.146.059-.023c.024-.008.047-.017.071-.024l.056-.015h.044a.289.289,0,0,0,.332-.186.272.272,0,0,0-.193-.337Z" transform="translate(-303.36 -179.94)" fill="#4080ca"/>
            <path id="Path_14052" data-name="Path 14052" d="M306.427,181.054Z" transform="translate(-304.952 -180.514)" fill="#4080ca"/>
          </g>
          <path id="Path_14053" data-name="Path 14053" d="M311.718,189.287a.245.245,0,0,0-.214-.042,1.3,1.3,0,0,0-.193.035c-.117.033-.232.084-.346.125a5.641,5.641,0,0,0-.723.292.277.277,0,0,0-.111.387.3.3,0,0,0,.179.132.38.38,0,0,0,.233-.027,5.371,5.371,0,0,0,.667-.344,3.209,3.209,0,0,0,.346-.206,1.31,1.31,0,0,0,.138-.115C311.755,189.465,311.8,189.353,311.718,189.287Z" transform="translate(-305.228 -173.755)" fill="#4080ca"/>
          <path id="Path_14054" data-name="Path 14054" d="M315.023,194.691a.662.662,0,0,0-.378.1c-.109.048-.221.092-.327.144s-.211.108-.316.163a1.342,1.342,0,0,0-.353.211.251.251,0,0,0-.045.311.285.285,0,0,0,.308.12,1.3,1.3,0,0,0,.354-.211l.3-.217c.1-.07.189-.152.283-.228.046-.037.092-.075.136-.115a.32.32,0,0,0,.111-.151.107.107,0,0,0-.073-.127Z" transform="translate(-307.033 -176.564)" fill="#4080ca"/>
          <path id="Path_14055" data-name="Path 14055" d="M317.422,198.257a.794.794,0,0,0-.412.161c-.12.073-.244.141-.369.206-.248.127-.5.241-.75.374a.259.259,0,0,0-.118.331.285.285,0,0,0,.333.156,3.192,3.192,0,0,0,.807-.417c.126-.088.25-.179.37-.275a.669.669,0,0,0,.284-.354.148.148,0,0,0-.145-.182Z" transform="translate(-308.166 -178.407)" fill="#4080ca"/>
          <path id="Path_14056" data-name="Path 14056" d="M321.465,203.708c-.138.048-.277.094-.411.153a2.98,2.98,0,0,0-.37.2c-.116.071-.23.146-.34.224a1.326,1.326,0,0,0-.2.155.6.6,0,0,0-.092.115.379.379,0,0,0-.035.158.187.187,0,0,0,.191.182.452.452,0,0,0,.141-.018.592.592,0,0,0,.138-.08,1.551,1.551,0,0,0,.159-.137c.1-.093.2-.183.3-.269s.21-.159.309-.244.2-.18.314-.262C321.663,203.822,321.571,203.671,321.465,203.708Z" transform="translate(-310.382 -181.215)" fill="#4080ca"/>
          <path id="Path_14057" data-name="Path 14057" d="M324.057,207.748a.172.172,0,0,0-.142-.025c-.066.022-.137.028-.2.054a1.466,1.466,0,0,0-.149.075q-.155.082-.3.173c-.1.059-.191.12-.283.185a1.262,1.262,0,0,0-.17.132.594.594,0,0,0-.088.1.325.325,0,0,0-.038.123.206.206,0,0,0,.038.18.213.213,0,0,0,.171.082.444.444,0,0,0,.235-.062,1.812,1.812,0,0,0,.177-.137q.126-.111.258-.217c.084-.068.169-.133.257-.2l.011-.008.032-.022c.034-.024.07-.046.1-.071a.525.525,0,0,0,.071-.079l.007-.008h0l.037-.03a.143.143,0,0,0,.045-.113.111.111,0,0,0-.064-.132Z" transform="translate(-311.761 -183.286)" fill="#4080ca"/>
        </g>
        <g id="Group_15701" data-name="Group 15701" transform="translate(130.752 143.343)">
          <g id="Group_15698" data-name="Group 15698">
            <path id="Path_14058" data-name="Path 14058" d="M158.029,165.493,157,163.611a2.885,2.885,0,0,1-.1-2.586q.381-1.413.761-2.827c.064-.24,1-3.856,1.037-3.849a1,1,0,0,0,.464-.021.183.183,0,0,0,.055-.013,1.055,1.055,0,0,0,.591-1.514,1.025,1.025,0,0,0-.629-.5c-.435-.17-.889-.293-1.334-.432s-.893-.275-1.337-.422a1.138,1.138,0,0,0-1.4.783,1.2,1.2,0,0,0,.543,1.317l-2.353,7.9a.521.521,0,0,1-.245.306L142.6,167.566a.522.522,0,0,0,.108.956l9.487,2.724c2.974.854,5.979,1.6,8.892,2.616a2.979,2.979,0,0,0,.581.16c2.226.3-.342-2.666-.75-3.336-.546-.9-1.051-1.819-1.554-2.743Z" transform="translate(-142.331 -151.398)" fill="#f5634d"/>
            <path id="Path_14059" data-name="Path 14059" d="M161.838,184.038c-.437-.761-.838-1.542-1.238-2.325l-.128-.251-8.99-2.581-4.578,2.7a.451.451,0,0,0,.077.816l7.721,2.217c2.421.7,4.868,1.3,7.237,2.132a2.318,2.318,0,0,0,.473.129C164.228,187.106,162.164,184.606,161.838,184.038Z" transform="translate(-144.589 -165.574)" fill="#5daabb"/>
          </g>
          <path id="Path_14060" data-name="Path 14060" d="M157.223,181.942a.431.431,0,0,0-.054-.074l-.009-.011a6.1,6.1,0,0,0-.065-.05.555.555,0,0,0-.076-.033h-.013a.366.366,0,0,0-.1-.013.589.589,0,0,0-.088.011H156.8a.768.768,0,0,0-.078.032l-.013.007-.013.009a.759.759,0,0,0-.066.052l-.011.011a.713.713,0,0,0-.052.068h0l-.029.068v.023a.13.13,0,0,0-.006.019.349.349,0,0,0,.032.248.32.32,0,0,0,.064.08.362.362,0,0,0,.084.061.422.422,0,0,0,.1.037.4.4,0,0,0,.108.01.6.6,0,0,0,.083-.012.456.456,0,0,0,.078-.031.132.132,0,0,0,.023-.013c.02-.014.038-.029.057-.044l.015-.014a.7.7,0,0,0,.046-.06l.009-.013.006-.012a.626.626,0,0,0,.03-.072.325.325,0,0,0,.01-.057.312.312,0,0,0,0-.059.429.429,0,0,0-.058-.168Z" transform="translate(-149.694 -167.057)" fill="#b2e3d9"/>
          <g id="Group_15699" data-name="Group 15699" transform="translate(11.829 15.348)">
            <path id="Path_14061" data-name="Path 14061" d="M167.943,183.26a.606.606,0,0,0-.455-.162.742.742,0,0,0-.264.073.43.43,0,0,0-.073.044.382.382,0,0,0-.139.2.2.2,0,0,0,0,.025.42.42,0,0,0-.01.5.645.645,0,0,0,.266.262.681.681,0,0,0,.4.086.528.528,0,0,0,.4-.25.633.633,0,0,0-.125-.778Zm-.382.593h-.016l-.038-.01-.027-.01h-.006a.6.6,0,0,1-.062-.037l-.025-.022c-.014-.015-.026-.03-.039-.046h0c0-.007-.009-.015-.012-.022h.011a.39.39,0,0,0,.114-.064h0l-.036.028a.476.476,0,0,1,.058-.034l.044-.012h.033l.023.006a.5.5,0,0,1,.056.033l.023.021h0l-.009-.014h0l.011.016c.009.011.015.022.008.012l.01.018a.04.04,0,0,0,.006.025.329.329,0,0,1,0,.038.049.049,0,0,1-.007.031.257.257,0,0,1-.014.025l-.014.015-.013.007-.017.005h-.012a.183.183,0,0,1-.049-.009Z" transform="translate(-166.93 -183.096)" fill="#b2e3d9"/>
            <path id="Path_14062" data-name="Path 14062" d="M168.453,184.3l-.007-.011h0l.01.014Z" transform="translate(-167.716 -183.709)" fill="#b2e3d9"/>
          </g>
          <path id="Path_14063" data-name="Path 14063" d="M161.446,188.209a.243.243,0,0,0-.073-.122.313.313,0,0,0-.13-.073.2.2,0,0,0-.078-.01.373.373,0,0,0-.078.013.336.336,0,0,0-.07.031.278.278,0,0,0-.03.023.242.242,0,0,0-.03.025.146.146,0,0,0-.041.064.153.153,0,0,0-.017.077.226.226,0,0,0,.059.142l.04.031a.193.193,0,0,0,.1.028h.032l.021.009h.013a.427.427,0,0,0,.056.007h.016a.342.342,0,0,0,.058-.009l.015-.006a.253.253,0,0,0,.054-.025l.037-.028a.137.137,0,0,0,.037-.059.089.089,0,0,0,.012-.046.137.137,0,0,0,0-.072Z" transform="translate(-151.97 -170.279)" fill="#b2e3d9"/>
          <g id="Group_15700" data-name="Group 15700" transform="translate(11.488 11.923)">
            <path id="Path_14064" data-name="Path 14064" d="M168.167,177.493h0C168.167,177.475,168.164,177.478,168.167,177.493Z" transform="translate(-167.231 -176.774)" fill="#b2e3d9"/>
            <path id="Path_14065" data-name="Path 14065" d="M168.113,177.63h0l.01-.015Z" transform="translate(-167.203 -176.844)" fill="#b2e3d9"/>
            <path id="Path_14066" data-name="Path 14066" d="M167.629,176.6a.747.747,0,0,0-.7-.576.715.715,0,0,0-.5.185.578.578,0,0,0-.143.185.461.461,0,0,0-.043.348.242.242,0,0,0,.046.072.48.48,0,0,0,.043.127.7.7,0,0,0,.322.28.794.794,0,0,0,.49.075.621.621,0,0,0,.356-.206.582.582,0,0,0,.129-.49Zm-.494.205h0l-.007.011a.037.037,0,0,1,.007-.011l-.015.016-.015.014-.026.017-.024.013-.035.01-.032.007h-.039a.285.285,0,0,1-.05,0l-.032-.006a.852.852,0,0,1-.109-.032h-.014l-.055-.028h-.006l.006-.006c.01-.019.023-.036.034-.055l.026-.062h0c.005-.01.026-.041.026-.043l.015-.017a.459.459,0,0,1,.046-.042c-.063.057-.012.011.013,0h.032a.465.465,0,0,1,.069,0l.058.015a.545.545,0,0,1,.05.029l.029.019h.005a.445.445,0,0,1,.033.034l.01.014a.361.361,0,0,1,.018.033l.005.02v.008h0v.005l-.007.023v.011l-.005.008s-.006-.01-.012-.01Z" transform="translate(-166.221 -176.022)" fill="#b2e3d9"/>
          </g>
          <path id="Path_14067" data-name="Path 14067" d="M171.826,188.487a.318.318,0,0,0-.081-.14l-.064-.049a.311.311,0,0,0-.159-.043.232.232,0,0,0-.121.027.287.287,0,0,0-.165.165.243.243,0,0,0-.027.123l.012.084a.317.317,0,0,0,.081.14l.064.049a.316.316,0,0,0,.159.044.322.322,0,0,0,.314-.315Z" transform="translate(-157.321 -170.408)" fill="#b2e3d9"/>
          <path id="Path_14068" data-name="Path 14068" d="M169.741,169.681a.275.275,0,0,0-.274-.281l-.073.01a.273.273,0,0,0-.121.071l-.043.056a.27.27,0,0,0-.038.139v.026a.208.208,0,0,0,.024.107.213.213,0,0,0,.057.09.211.211,0,0,0,.089.057.2.2,0,0,0,.106.024l.074-.01a.271.271,0,0,0,.121-.071l.043-.056a.276.276,0,0,0,.038-.14Z" transform="translate(-156.275 -160.686)" fill="#b2e3d9"/>
          <path id="Path_14069" data-name="Path 14069" d="M171.18,167.719a.254.254,0,1,0,.254.254A.254.254,0,0,0,171.18,167.719Z" transform="translate(-157.18 -159.816)" fill="#b2e3d9"/>
        </g>
        <g id="Group_15702" data-name="Group 15702" transform="translate(122.039 235.274)">
          <path id="Path_14070" data-name="Path 14070" d="M116.1,360.478q40.349.715,80.71.616c2.194-.005,4.594-.073,6.253-1.269a1.077,1.077,0,0,0-.913-1.3.932.932,0,0,0,.828-.3,4.379,4.379,0,0,1-1.1-1.725,2.771,2.771,0,0,0,.044-3.184l.742-.63-.848-.914a2.6,2.6,0,0,0,1.2-.75l-1.038-1.174a2.888,2.888,0,0,0,1.513-1.16,14.136,14.136,0,0,1-1.513-.853c1.179-1.6,1.035-2.206-1.254-2.776-2.437-.606-5.28-.466-7.8-.587q-8.227-.392-16.462-.618-16.265-.446-32.542-.242a240.268,240.268,0,0,0-28.179,1.622,16.077,16.077,0,0,0-4.32,1,6.61,6.61,0,0,0-3.891,7.829c.906,2.952,3.954,5.273,7.455,6.158C115.206,360.577,115.622,360.469,116.1,360.478Z" transform="translate(-105.8 -342.441)" fill="#e9e9eb"/>
          <path id="Path_14071" data-name="Path 14071" d="M111.428,359.792c-.184-1.427-1-2.761-1.147-4.224a17.014,17.014,0,0,1,.069-5.039,6.936,6.936,0,0,1,3.518-5.043,2.137,2.137,0,0,0,.62-.362c1.034-1.017-1.314-1.015-1.732-.923-4.093.9-8.056,7.6-6.287,11.527.648,1.437,2.354,2.568,3.661,3.6.19.15.371.3.54.445a9.053,9.053,0,0,0,.866.685C111.493,360.238,111.456,360.015,111.428,359.792Z" transform="translate(-105.159 -342.755)" fill="#2e2e2e"/>
          <path id="Path_14072" data-name="Path 14072" d="M202.644,359.122c-6.448-.424-13.06-.075-19.524-.053l-19.926.067c-14.506.048-29.1.525-43.561-.274a33.415,33.415,0,0,1-9.554-1.466,4.89,4.89,0,0,1-1.966-1.143c-2.483-2.653-.966-8.84,1.735-10.786a7.818,7.818,0,0,1,4.166-1.122c3.291-.2,5.845.077,9.047-.008,3.812-.1,8.236.2,12.049.139,7.523-.118,15.047-.12,22.57-.146,8.143-.027,16.3.137,24.446.225,3.074.186,6.2.151,9.234.2q3.508.063,7.013.036a19.379,19.379,0,0,0,4.27-.194v-2.11a20.032,20.032,0,0,0-4.27-.27c-1.558-.044-3.116-.072-4.674-.1-11.963-.793-24.056-.69-36.02-.642q-11,.044-21.989.262c-4.187.08-8.528.377-12.694.213-2.913-.115-5.8-.585-8.715-.677-2.038-.064-5.541-.148-7.13,1.381a5.83,5.83,0,0,0-1.011,1.487,18.154,18.154,0,0,0-1.848,10,7.073,7.073,0,0,0,1.511,4.294c2.03,2.158,5.351,2.611,8.121,2.843l4.546.381c3.406.285,6.688-.148,10.095-.148h74.079Z" transform="translate(-104.212 -341.256)" fill="#5daabb"/>
          <path id="Path_14073" data-name="Path 14073" d="M226.143,352.966c-9.257.117-18.513.283-27.771.349q-13.815.1-27.633.054-7.8-.035-15.588-.113a.123.123,0,1,0,0,.244q13.886.151,27.775.143,13.816-.007,27.632-.2c5.2-.068,10.392-.133,15.585-.268a.107.107,0,1,0,0-.209Z" transform="translate(-130.582 -347.296)" fill="#c2c6d1"/>
          <path id="Path_14074" data-name="Path 14074" d="M213.858,359.44q-15.543-.087-31.086-.072-15.464.018-30.928.143c-5.813.048-11.634.054-17.445.2a.15.15,0,0,0,0,.3c5.18,0,10.362-.11,15.542-.164s10.361-.1,15.542-.133q15.464-.1,30.928-.088,8.724.007,17.447.06a.125.125,0,1,0,0-.246Z" transform="translate(-119.793 -350.596)" fill="#c2c6d1"/>
          <path id="Path_14075" data-name="Path 14075" d="M132.4,366.647l-1.121.1c-.1.009-.191.064-.186.154a.174.174,0,0,0,.186.155l1.121-.1c.1-.009.191-.065.186-.155a.174.174,0,0,0-.186-.154Z" transform="translate(-118.164 -354.352)" fill="#c2c6d1"/>
          <path id="Path_14076" data-name="Path 14076" d="M202.815,366.141q-11.456-.174-22.913-.145c-7.639.019-15.276.116-22.913.245q-6.418.109-12.833.277a.013.013,0,1,0,0,.025q11.454-.234,22.91-.3t22.914.02q6.418.044,12.836.134a.13.13,0,1,0,0-.256Z" transform="translate(-124.94 -354.014)" fill="#c2c6d1"/>
          <path id="Path_14077" data-name="Path 14077" d="M280.055,366.306q-2.617-.033-5.231.107c-.163.009-.164.221,0,.213q2.613-.137,5.231-.1a.111.111,0,1,0,0-.22Z" transform="translate(-192.717 -354.173)" fill="#c2c6d1"/>
          <path id="Path_14078" data-name="Path 14078" d="M259.288,369.619q-7.463-.15-14.924-.3-2.129-.037-4.255-.058c-.18,0-.178.226,0,.231,4.973.161,9.949.263,14.924.381l4.255.1a.182.182,0,1,0,0-.354Z" transform="translate(-174.689 -355.703)" fill="#c2c6d1"/>
          <path id="Path_14079" data-name="Path 14079" d="M183.424,370.332c-5.325.235-10.657.363-15.989.442s-10.666.079-16,.013c-3-.037-5.991-.107-8.986-.165-.214,0-.212.267,0,.275,5.327.192,10.665.234,16,.223s10.667-.1,16-.269q4.491-.15,8.98-.357A.082.082,0,1,0,183.424,370.332Z" transform="translate(-123.98 -356.253)" fill="#c2c6d1"/>
          <path id="Path_14080" data-name="Path 14080" d="M245.535,374.811c-5.5-.058-11-.082-16.5-.173q-8.218-.136-16.433-.385c-3.1-.094-6.2-.189-9.292-.334-.193-.009-.194.244,0,.25,5.5.164,10.99.372,16.488.509q8.217.2,16.436.3c3.1.036,6.2.065,9.3.051a.109.109,0,1,0,0-.218Z" transform="translate(-155.581 -358.103)" fill="#c2c6d1"/>
          <path id="Path_14081" data-name="Path 14081" d="M295.538,369.455q-3.737.064-7.473.151a.081.081,0,1,0,0,.16q3.736-.023,7.473-.057a.128.128,0,1,0,0-.254Z" transform="translate(-199.606 -355.801)" fill="#c2c6d1"/>
          <path id="Path_14082" data-name="Path 14082" d="M134.2,353.823a56.527,56.527,0,0,1-9.838.188c-.138-.009-.136.168,0,.179a54.818,54.818,0,0,0,9.838-.136C134.379,354.036,134.381,353.8,134.2,353.823Z" transform="translate(-114.62 -347.737)" fill="#c2c6d1"/>
          <path id="Path_14083" data-name="Path 14083" d="M213.806,356.633q-15.325-.107-30.651-.06-15.247.048-30.493.249c-5.733.076-11.466.169-17.2.245a.119.119,0,1,0,0,.235c10.213-.246,20.431-.359,30.647-.445q15.246-.128,30.494-.1,8.6.015,17.2.078a.1.1,0,1,0,0-.2Z" transform="translate(-120.365 -349.148)" fill="#c2c6d1"/>
        </g>
        <g id="Group_15705" data-name="Group 15705" transform="translate(131.635 222.933)">
          <g id="Group_15704" data-name="Group 15704">
            <path id="Path_14084" data-name="Path 14084" d="M194.346,328.821H111.03a15.467,15.467,0,0,1-2.457,0c-1.468-.249-.736-.59-.481-2.2.026-.167-.116-.373-.275-.317l.532-.549-.433-.5.411-.538c-.2,0-.3-.272-.248-.471s.194-.366.237-.567-.088-.467-.289-.434a.846.846,0,0,0,.3-1.234c.188-.262.728-.27.692-.591-.028-.249-.391-.273-.556-.461a.487.487,0,0,1,.123-.663,1.39,1.39,0,0,1,.705-.225l-1.374-1.228c1.489-1.213,6.994-.358,8.97-.358h77.455c4.9,0,8.881,2.313,8.881,5.166S199.25,328.821,194.346,328.821Z" transform="translate(-105.899 -317.021)" fill="#e9e9eb"/>
            <path id="Path_14085" data-name="Path 14085" d="M297.962,318.968v10.17A4.772,4.772,0,0,0,302.1,324.6v-1.1A4.772,4.772,0,0,0,297.962,318.968Z" transform="translate(-204.677 -317.419)" fill="#2e2e2e"/>
            <g id="Group_15703" data-name="Group 15703">
              <path id="Path_14086" data-name="Path 14086" d="M191.671,329.173c-5.184.492-10.676-.152-15.873-.152H105.284c-1.88,0-1.094-1.818.45-1.81l81.267.4c3.773.019,7.708,0,11.082-1.7,1.208-.609,2.144-2.828,2.057-4.173a3.347,3.347,0,0,0-2.181-2.682,18.063,18.063,0,0,0-4.779-1.2c-7.948-.147-14.688.387-22.636.24-20.633-.381-41.268-.762-61.9-.723-.822,0-3.728.488-4.342.015-.8-.613.018-1.611.989-1.611H184.9c4.091,0,8.222-.214,12.2.937a8.232,8.232,0,0,1,3.87,2.132c3.424,3.732.385,8.122-3.6,9.252a32.1,32.1,0,0,1-4.036.866Q192.508,329.1,191.671,329.173Z" transform="translate(-103.973 -315.769)" fill="#e25f37"/>
            </g>
          </g>
          <path id="Path_14087" data-name="Path 14087" d="M289.361,326.435l-3.362-.1a.112.112,0,0,0,0,.223l3.362.156C289.542,326.727,289.542,326.44,289.361,326.435Z" transform="translate(-198.411 -321.221)" fill="#c2c6d1"/>
          <path id="Path_14088" data-name="Path 14088" d="M212.109,326.519q-12.449.017-24.9,0-12.385-.01-24.771-.025c-4.658-.006-9.315,0-13.973.045a.117.117,0,1,0,0,.234c8.3.079,16.6.038,24.9.031l24.771-.019q6.987-.006,13.973.007a.136.136,0,1,0,0-.273Z" transform="translate(-127.013 -321.299)" fill="#c2c6d1"/>
          <path id="Path_14089" data-name="Path 14089" d="M280.266,331.736q-3.612,0-7.224.016a.117.117,0,1,0,0,.234q3.612.017,7.224.015a.133.133,0,0,0,0-.265Z" transform="translate(-191.683 -324.004)" fill="#c2c6d1"/>
          <path id="Path_14090" data-name="Path 14090" d="M188.5,331.683q-13.2.033-26.408.01l-26.274-.013c-4.94,0-9.882-.055-14.821.015a.135.135,0,1,0,0,.269c4.4.061,8.8.018,13.2.016l13.2-.007,26.274-.013q7.41,0,14.821.016a.147.147,0,1,0,.008-.293Z" transform="translate(-112.744 -323.964)" fill="#c2c6d1"/>
          <path id="Path_14091" data-name="Path 14091" d="M158.8,335.421c-1.7-.052-3.4-.013-5.106.021a.07.07,0,0,0,0,.14c1.7.034,3.4.074,5.106.021a.091.091,0,1,0,0-.182Z" transform="translate(-129.751 -325.892)" fill="#c2c6d1"/>
          <path id="Path_14092" data-name="Path 14092" d="M222.711,335.517c-3.522-.074-7.048-.031-10.57-.026s-7.047.013-10.57.016q-10.51.009-21.02.024l-11.892.019a.127.127,0,0,0,0,.253l21.14.032,21.02.025c3.963.007,7.93.06,11.892-.023a.161.161,0,0,0,0-.32Z" transform="translate(-137.49 -325.932)" fill="#c2c6d1"/>
          <path id="Path_14093" data-name="Path 14093" d="M130.518,336.257c-1.99-.081-3.994-.028-5.986-.011l-6.046.05c-1.137.01-2.275.02-3.412.039a.1.1,0,0,0,0,.2c4.009.067,8.022.093,12.032.1,1.137,0,2.276.025,3.412-.021a.179.179,0,0,0,0-.357Z" transform="translate(-109.687 -326.314)" fill="#c2c6d1"/>
          <path id="Path_14094" data-name="Path 14094" d="M126.669,326.235c-2.407-.031-4.817.011-7.224.025s-4.816.023-7.223.028a.1.1,0,0,0,0,.208q3.612.008,7.223.028c2.407.014,4.817.057,7.224.025a.157.157,0,0,0,0-.314Z" transform="translate(-108.204 -321.161)" fill="#c2c6d1"/>
          <path id="Path_14095" data-name="Path 14095" d="M204.5,322.741c-5.357-.086-10.721-.011-16.079-.01s-10.719.006-16.079.01l-31.994.023q-9.024.007-18.047.036a.127.127,0,1,0,0,.254q16.078.049,32.157.046l31.994.023c6.014,0,12.034.087,18.047-.01a.186.186,0,0,0,0-.372Z" transform="translate(-113.424 -319.344)" fill="#c2c6d1"/>
        </g>
        <g id="Group_15706" data-name="Group 15706" transform="translate(124.09 177.586)">
          <path id="Path_14096" data-name="Path 14096" d="M227.71,266.747c.027-.069.043-43.02.043-43.02a1.523,1.523,0,0,0-1.415-1.611h-71.3a1.523,1.523,0,0,0-1.415,1.611v43.02Z" transform="translate(-141.533 -222.116)" fill="#2e2e2e"/>
          <path id="Rectangle_35" data-name="Rectangle 35" d="M2.922,0H67.933a2.922,2.922,0,0,1,2.922,2.922V43H0V2.922A2.922,2.922,0,0,1,2.922,0Z" transform="translate(13.792 1.591)" fill="#fff"/>
          <path id="Path_14097" data-name="Path 14097" d="M217.818,312.6H130.073a1.6,1.6,0,0,1-1.6-1.607h0a1.6,1.6,0,0,1,1.6-1.608h87.669a1.64,1.64,0,0,1,1.634,1.646h0a1.563,1.563,0,0,1-1.558,1.569Z" transform="translate(-128.477 -267.129)" fill="#2e2e2e"/>
          <path id="Path_14098" data-name="Path 14098" d="M229.91,223.387a.468.468,0,1,1-.136-.332.467.467,0,0,1,.136.332Z" transform="translate(-180.648 -222.529)"/>
        </g>
        <g id="Group_15714" data-name="Group 15714" transform="translate(140.911 154.156)">
          <g id="Group_15707" data-name="Group 15707" transform="translate(4.849 5.221)">
            <path id="Path_14099" data-name="Path 14099" d="M185.745,244.909h34.393c2.561,0,5.173.151,7.73,0,4.643-.274,7.173-6.326,9.674-9.717,4.6-6.242,5.043-16.107,3.71-23.657-1.387-7.856-5.289-15.552-11.955-20.133-8.67-5.957-17.929-7.609-28.181-6.625-6.6.633-12.6,4.7-17.3,9.174-4.756,4.522-7.313,10.321-9.276,16.455-1.223,3.824-1.159,8.6-.651,12.574a34.636,34.636,0,0,0,7.543,17.532C182.1,241.337,184.651,244.909,185.745,244.909Z" transform="translate(-173.543 -184.511)" fill="#5daabb"/>
          </g>
          <g id="Group_15713" data-name="Group 15713">
            <g id="Group_15712" data-name="Group 15712" clip-path="url(#clip-path)">
              <g id="Group_15710" data-name="Group 15710" transform="translate(13.125 9.09)">
                <g id="Group_15708" data-name="Group 15708">
                  <path id="Path_14100" data-name="Path 14100" d="M194.942,237.337a20.011,20.011,0,0,1,.045-2.778c.057-3.151-1.3-6.124-2.432-9.062-.538-1.4-2.032-3.308-1.773-4.794a6.438,6.438,0,0,1,1.631-2.912,6.52,6.52,0,0,1,1.717-1.569c2.243-1.255,5.045.2,7.584-.173,8.213-1.211,7.379-12.131.655-14.822-2.223-.89-5.157-1.118-6.106-3.33-.984-2.293,1.306-4.877,3.753-5.294s4.883.557,7.28,1.2a28.291,28.291,0,0,0,11.694.633,2.3,2.3,0,0,1,.972-.018c.868.243,1.1,1.361,1.1,2.268a10.81,10.81,0,0,1-1.809,6.353,6.388,6.388,0,0,1-5.745,2.757c-.968-.122-2.053-.49-2.842.088a2.874,2.874,0,0,0-.843,1.335c-2.288,5.789,5.461,7.409.6,13.485-2.007,2.51-4.441,3.374-5.734,6.532-1.226,3-.508,6.486-1.939,9.48-.651,1.362-1.692,2.583-1.9,4.08C200.083,246.353,195.275,240.064,194.942,237.337Z" transform="translate(-190.753 -192.502)" fill="#ffcb4e"/>
                </g>
                <g id="Group_15709" data-name="Group 15709" transform="translate(33.083 19.326)">
                  <path id="Path_14101" data-name="Path 14101" d="M267.331,269.618c.527-.356,1.035-.751,1.548-1.118,3.158-2.256,6.935-3.49,10.16-5.647a21.686,21.686,0,0,0,9.11-20.91c-.224-1.42-.854-3.079-2.261-3.327a6.554,6.554,0,0,1-1.545-.18c-.477-.21-2.3,1.223-1.814,1.042a3.125,3.125,0,0,1-3.809.366,12.072,12.072,0,0,1-3-2.845c-1.114-1.262-3.629-4.362-5.425-4.571a2.429,2.429,0,0,0-1.675.522,3.8,3.8,0,0,0-1.509,3.308c.066.814.381,1.7-.045,2.4a4.764,4.764,0,0,1-.609.675c-1.762,1.926.023,4.851.767,6.8a11.178,11.178,0,0,1-1.98,11.1c-1.379,1.574-3.217,2.758-4.282,4.562a12.422,12.422,0,0,0-1.339,5.028,4.988,4.988,0,0,0,.255,2.8Z" transform="translate(-259.551 -232.415)" fill="#ffcb4e"/>
                </g>
              </g>
              <g id="Group_15711" data-name="Group 15711" transform="translate(-0.726 -7.138)" opacity="0.52">
                <path id="Path_14102" data-name="Path 14102" d="M184.7,231.744a83.614,83.614,0,0,1-.4-10.223,75.325,75.325,0,0,1,3.873-22.357,63.5,63.5,0,0,1,9.775-18.371A60.505,60.505,0,0,1,212.2,167.419a53.026,53.026,0,0,1,17.737-7.723q1.173-.264,2.358-.469c.155-.027.089-.263-.065-.237A51.952,51.952,0,0,0,214,165.877a60.148,60.148,0,0,0-14.86,12.879A63.156,63.156,0,0,0,188.8,196.367a73.966,73.966,0,0,0-4.758,22.34,84.013,84.013,0,0,0,.258,13.037Z" transform="translate(-173.348 -158.988)"/>
                <path id="Path_14103" data-name="Path 14103" d="M204.172,234.447c.013-2.679.082-5.358.256-8.036a76.541,76.541,0,0,1,4.515-22.316,65.855,65.855,0,0,1,9.4-16.72A68.249,68.249,0,0,1,231.9,174.11a64.878,64.878,0,0,1,16.75-8.918q1.106-.392,2.226-.744c.136-.043.078-.257-.059-.215a62.887,62.887,0,0,0-17.216,8.276,67.918,67.918,0,0,0-14.078,12.828,66.81,66.81,0,0,0-9.99,16.313,72.2,72.2,0,0,0-5.222,21.491c-.364,3.76-.507,7.532-.529,11.307Z" transform="translate(-183.665 -161.69)"/>
                <path id="Path_14104" data-name="Path 14104" d="M249.214,240.792a99.189,99.189,0,0,0,6.672-10.67A100.783,100.783,0,0,0,262.92,213.8a98.932,98.932,0,0,0,4.031-17.258,90.272,90.272,0,0,0,.807-17.689q-.064-1.11-.159-2.217c-.012-.137-.221-.14-.214,0a102.753,102.753,0,0,1-.538,17.653,99.592,99.592,0,0,1-3.693,17.341A101.24,101.24,0,0,1,256.508,228a99.582,99.582,0,0,1-7.823,12.8Z" transform="translate(-206.976 -168.036)"/>
                <path id="Path_14105" data-name="Path 14105" d="M279.951,244.057a83.879,83.879,0,0,0,4.476-7.434,86.173,86.173,0,0,0,6.685-16.418,83.988,83.988,0,0,0,3.137-17.434,78.065,78.065,0,0,0-.73-17.668q-.171-1.094-.374-2.183c-.02-.108-.182-.062-.163.045a79.187,79.187,0,0,1,1.078,17.659,83.385,83.385,0,0,1-2.745,17.464,86.08,86.08,0,0,1-6.266,16.477,84.752,84.752,0,0,1-5.577,9.492Z" transform="translate(-222.958 -171.3)"/>
                <path id="Path_14106" data-name="Path 14106" d="M181.387,233.432a57.888,57.888,0,0,0,11.371,6.7c-.322.823-.635,1.649-.955,2.473h.335c.214-.549.423-1.1.637-1.65.091-.232.185-.463.276-.7.98.429,1.968.839,2.971,1.212,1.118.416,2.251.786,3.391,1.133H200.6q-1.155-.325-2.3-.7c-1.741-.568-3.448-1.229-5.124-1.962q2.209-5.629,4.5-11.224,1.961.98,3.962,1.872a93.834,93.834,0,0,0,14.69,5.115,92.218,92.218,0,0,0,15.33,2.585q.961.08,1.923.128c.235.011.233-.352,0-.367a91.134,91.134,0,0,1-30.1-7.014q-2.887-1.209-5.689-2.611c.317-.775.629-1.553.948-2.327q2.631-6.376,5.377-12.7,2.181.967,4.371,1.914c4.468,1.934,8.951,3.841,13.35,5.932a121.993,121.993,0,0,1,12.773,6.96q.777.491,1.542,1c.1.069.2-.1.1-.167a95.1,95.1,0,0,0-12.649-7.3c-4.372-2.145-8.843-4.073-13.316-5.992-2.019-.867-4.037-1.735-6.048-2.62.257-.6.509-1.192.768-1.786q2.5-5.728,5.082-11.418a106.169,106.169,0,0,1,10.411,7.028,84.788,84.788,0,0,1,12.761,12.034A70.088,70.088,0,0,1,242.84,233.4c.315.636.622,1.275.929,1.916.087.183.341.023.266-.157a62.5,62.5,0,0,0-9.134-14.816,82.268,82.268,0,0,0-12.379-12.289,104.689,104.689,0,0,0-12.277-8.476c.432-.951.855-1.9,1.292-2.853q1.268-2.759,2.562-5.5a87.486,87.486,0,0,1,9.066,6.153,131.586,131.586,0,0,1,11.476,10.083c3.69,3.6,7.227,7.346,10.772,11.087.447.471.9.939,1.355,1.4.142.142.348-.071.218-.219-1.71-1.954-3.517-3.829-5.308-5.707q-2.71-2.841-5.488-5.613a141.7,141.7,0,0,0-11.441-10.3,88.924,88.924,0,0,0-10.476-7.25q2.023-4.311,4.089-8.6.428-.884.857-1.767c.063-.129-.128-.242-.191-.113q-2.519,5.162-4.958,10.363c-.429-.249-.86-.5-1.294-.737a62.931,62.931,0,0,0-13.377-5.582c-5.043-1.418-10.224-2.283-15.246-3.784q-.941-.281-1.871-.593c-.083-.028-.118.1-.036.131,4.935,1.717,10.073,2.688,15.109,4.042a66.229,66.229,0,0,1,13.731,5.327c.949.5,1.884,1.024,2.81,1.563-.592,1.26-1.191,2.517-1.777,3.78q-1.05,2.277-2.093,4.564c-.993-.587-1.991-1.165-3-1.723a150.307,150.307,0,0,0-16.895-7.98,89.035,89.035,0,0,0-18.722-5.489q-1.121-.183-2.247-.325c-.184-.024-.183.268,0,.291a80.8,80.8,0,0,1,18.67,4.966,152.431,152.431,0,0,1,17.127,7.833q2.485,1.327,4.91,2.768-2.2,4.822-4.354,9.669c-.521,1.18-1.029,2.366-1.544,3.549-2.4-1.057-4.785-2.138-7.144-3.28-4.692-2.27-9.284-4.747-13.812-7.331s-9-5.278-13.466-7.982l-1.687-1.023c-.073-.044-.138.07-.066.115,4.467,2.74,8.935,5.48,13.46,8.122,4.5,2.629,9.062,5.163,13.722,7.5,2.921,1.465,5.89,2.828,8.876,4.153q-2.352,5.413-4.632,10.855c-.576,1.38-1.139,2.766-1.707,4.15q-4.011-2.018-7.824-4.4a95.235,95.235,0,0,1-12.467-9.308,91.558,91.558,0,0,1-10.71-11.2q-.607-.754-1.2-1.521c-.045-.059-.149.02-.1.08a90.458,90.458,0,0,0,10.448,11.551,93.168,93.168,0,0,0,12.251,9.618,95.246,95.246,0,0,0,9.481,5.477q-2.126,5.183-4.186,10.392c-.111.282-.218.566-.328.848a58,58,0,0,1-9.62-5.416,60.522,60.522,0,0,1-11.835-10.881A59.654,59.654,0,0,1,162.9,210q-.436-.959-.836-1.936c-.026-.064-.131-.036-.1.03a59.22,59.22,0,0,0,7.96,13.972A60.115,60.115,0,0,0,181.387,233.432Z" transform="translate(-161.948 -169.844)"/>
              </g>
            </g>
          </g>
        </g>
        <g id="Group_15715" data-name="Group 15715" transform="translate(125.088 184.745)">
          <path id="Path_14107" data-name="Path 14107" d="M157.956,275.492a1.877,1.877,0,0,1-1.1,2.364,1.852,1.852,0,0,1-2.539-.535,1.877,1.877,0,0,1,1.1-2.363A1.853,1.853,0,0,1,157.956,275.492Z" transform="translate(-142.816 -256.394)" fill="#00b7d7"/>
          <path id="Path_14108" data-name="Path 14108" d="M145.19,245.321c.012-.071.023-.141.034-.212a7.363,7.363,0,0,0-1.426-5.687,6.249,6.249,0,0,0-4.206-2.463,8.394,8.394,0,0,0-8.833,9.727c.478,1.948,1.567,2.86,3.3,3.865a12.291,12.291,0,0,1,5.193,5.385.947.947,0,0,0,.337.434,1.113,1.113,0,0,0,.7.053q.775-.111,1.541-.289a7.594,7.594,0,0,0,2.8-1.147c2.43-1.774.881-3.626.374-5.655a10.146,10.146,0,0,1,.186-4.011Z" transform="translate(-130.553 -236.902)" fill="#f7d33a"/>
          <path id="Path_14109" data-name="Path 14109" d="M147.376,262.961a65.644,65.644,0,0,0-5.226-7.456,1.411,1.411,0,0,0,1.761.375,1.132,1.132,0,0,0,.394-1.655c-.093-.1-.269-.179-.374-.076a.264.264,0,0,0-.063.192,1.05,1.05,0,0,0,1.493.856,1.065,1.065,0,0,0,.262-1.712.289.289,0,0,0-.239-.075c-.148.038-.185.23-.154.37a1.088,1.088,0,0,0,1.383.688,1.538,1.538,0,0,0,1.03-1.328.4.4,0,0,0-.083-.323c-.147-.144-.438-.029-.539.161a.944.944,0,0,0-.033.614,30.313,30.313,0,0,0,2.828,8.446" transform="translate(-136.573 -245.077)" fill="none" stroke="#000" stroke-width="0.5"/>
          <path id="Path_14110" data-name="Path 14110" d="M155.1,272.175a5.535,5.535,0,0,1-4.416,1.893,2.253,2.253,0,0,1-.592-.083,2.788,2.788,0,0,1-1.347-1.294c-.234-.361-.222-.486-.456-.847.066.1.792-.368.941-.426.312-.121.613-.307.911-.458l2.2-1.1,2.772-1.392a6.726,6.726,0,0,1,.548,1.887,2.869,2.869,0,0,1-.547,1.8Z" transform="translate(-139.76 -253.182)" fill="#e25f37"/>
          <path id="Path_14111" data-name="Path 14111" d="M154.587,267.685c-.646.273-1.27.653-1.891.981-.584.308-1.17.609-1.754.917s-1.173.6-1.755.914c-.314.167-.63.329-.941.5-.227.125-.488.23-.558.484a.129.129,0,0,0,.052.157.74.74,0,0,0,.621-.065c.329-.127.652-.289.974-.434.647-.292,1.284-.609,1.921-.922s1.268-.641,1.9-.972a19.612,19.612,0,0,0,1.817-1.011C155.336,267.986,154.948,267.533,154.587,267.685Z" transform="translate(-139.445 -252.764)"/>
          <path id="Path_14112" data-name="Path 14112" d="M135.921,245.625a.358.358,0,0,0-.484,0,5.2,5.2,0,0,0-1.475,2.5,4.456,4.456,0,0,0-.107,1.482,4.909,4.909,0,0,0,.121.747,1.174,1.174,0,0,0,.294.678.183.183,0,0,0,.237-.056,1.137,1.137,0,0,0,.073-.647c-.007-.24-.023-.48-.026-.72a5.208,5.208,0,0,1,.131-1.345,4.924,4.924,0,0,1,1.191-2.169.326.326,0,0,0,.045-.47Z" transform="translate(-132.256 -241.351)" fill="#fff"/>
        </g>
        <path id="Path_14113" data-name="Path 14113" d="M164.437,288.6a25.274,25.274,0,0,0,7.075,8.306" transform="translate(-23.055 -78.821)" fill="none" stroke="#2e2e2e" stroke-width="0.5" stroke-dasharray="5"/>
        <path id="Path_14114" data-name="Path 14114" d="M150.666,199.21a37.586,37.586,0,0,0-2.924,15.884" transform="translate(-14.38 -32.716)" fill="none" stroke="#2e2e2e" stroke-width="0.5" stroke-dasharray="5"/>
        <g id="Group_15717" data-name="Group 15717" transform="translate(120.026 138.362)">
          <path id="Path_14115" data-name="Path 14115" d="M124.885,279.728l-1.859-1-1.875.973.373-2.09-1.5-1.495,2.09-.288.949-1.9.918,1.912,2.085.322-1.522,1.47Z" transform="translate(-120.026 -209.616)" fill="#b2e3d9"/>
          <path id="Path_14116" data-name="Path 14116" d="M196,175.615l-2.166-1.169-2.185,1.134.435-2.436L190.34,171.4l2.435-.336,1.106-2.211,1.07,2.228,2.43.376-1.774,1.713Z" transform="translate(-156.528 -155.421)" fill="#b2e3d9"/>
          <path id="Path_14117" data-name="Path 14117" d="M282.109,147.87l-2.166-1.169-2.185,1.134.435-2.436-1.746-1.742,2.435-.336,1.106-2.211,1.07,2.228,2.43.376-1.774,1.713Z" transform="translate(-201.227 -141.11)" fill="#b2e3d9"/>
          <path id="Path_14118" data-name="Path 14118" d="M359.576,234.452l-1.051-.567-1.06.55.211-1.182-.847-.845,1.181-.163.536-1.072.519,1.081,1.179.182-.861.831Z" transform="translate(-242.956 -187.564)" fill="#b2e3d9"/>
          <path id="Path_14119" data-name="Path 14119" d="M213.077,177.139a1.424,1.424,0,0,0-1.52-.684,1.763,1.763,0,0,0-.847.51,1.076,1.076,0,0,0-.316.834,1.1,1.1,0,0,0,.024.4,1.29,1.29,0,0,0,.59.743,1.493,1.493,0,0,0,1.824-.165,1.441,1.441,0,0,0,.245-1.638Zm-1.4,1.385-.058-.012c-.025-.006-.05-.014-.075-.021a.612.612,0,0,1-.116-.053.263.263,0,0,0-.032-.051.566.566,0,0,1-.126-.253.51.51,0,0,1,0-.29.839.839,0,0,1,.372-.485.521.521,0,0,1,.262-.069.5.5,0,0,1,.261.067.658.658,0,0,1,.062.042l.018.016.061.062.014.014v.008a1.035,1.035,0,0,1,.082.139l.006.016a.929.929,0,0,1,.029.094q.007.028.012.055c0,.006.005.055.005.057v.059s-.013.1,0,.04a.562.562,0,0,1-.11.267.76.76,0,0,1-.421.281.4.4,0,0,1-.106.019,1.318,1.318,0,0,1-.14,0Z" transform="translate(-166.934 -159.326)" fill="#b2e3d9"/>
          <path id="Path_14120" data-name="Path 14120" d="M132.725,209.837a2.21,2.21,0,0,0-1.76-1.76.138.138,0,0,0-.1-.058,4.134,4.134,0,0,0-2.807.641,3.4,3.4,0,0,0-1.4,2.337,2.721,2.721,0,0,0,.846,2.485,2.862,2.862,0,0,0,.343.336c1.241.97,3.209.319,4.112-.794a3.79,3.79,0,0,0,.766-3.187Zm-2.185,3.429a2.294,2.294,0,0,1-2.172.015,2,2,0,0,1-.3-.216,2.534,2.534,0,0,1,.152-3.2c.823-.9,2.871-1.644,3.585-.236a2.927,2.927,0,0,1-1.264,3.637Z" transform="translate(-123.448 -175.609)" fill="#b2e3d9"/>
          <g id="Group_15716" data-name="Group 15716" transform="translate(92.587 40.667)">
            <path id="Path_14121" data-name="Path 14121" d="M312.58,257.27Z" transform="translate(-312.572 -241.691)" fill="#b2e3d9"/>
            <path id="Path_14122" data-name="Path 14122" d="M332.037,225.363a1.024,1.024,0,0,0-1.242-.1,1.166,1.166,0,0,0-.12.113h0a1.1,1.1,0,0,0-.3.435c-.008.02-.009.042-.015.062a1.18,1.18,0,0,0,.03,1.032,1.037,1.037,0,0,0,1.135.448,1.206,1.206,0,0,0,.862-.846A1.118,1.118,0,0,0,332.037,225.363Z" transform="translate(-321.745 -225.096)" fill="#b2e3d9"/>
            <path id="Path_14123" data-name="Path 14123" d="M312.621,257.187h0v0h0Z" transform="translate(-312.592 -241.641)" fill="#b2e3d9"/>
            <path id="Path_14124" data-name="Path 14124" d="M312.57,257.27h-.006Z" transform="translate(-312.564 -241.691)" fill="#b2e3d9"/>
            <path id="Path_14125" data-name="Path 14125" d="M312.615,257.208h0V257.2Z" transform="translate(-312.59 -241.658)" fill="#b2e3d9"/>
            <path id="Path_14126" data-name="Path 14126" d="M312.623,257.2Z" transform="translate(-312.594 -241.656)" fill="#b2e3d9"/>
            <path id="Path_14127" data-name="Path 14127" d="M312.622,257.2Z" transform="translate(-312.594 -241.657)" fill="#b2e3d9"/>
          </g>
          <path id="Path_14128" data-name="Path 14128" d="M323.2,278.874a1.457,1.457,0,0,0-.977-.37,2.519,2.519,0,0,0-1.294.33,1.915,1.915,0,0,0-.678.887,1.842,1.842,0,0,0,.431,2,1.7,1.7,0,0,0,2.057.173,2.212,2.212,0,0,0,.989-1.936,1.535,1.535,0,0,0-.528-1.084Zm-2.063,1.476a1.333,1.333,0,0,1,.2-.488.79.79,0,0,1,.219-.225.773.773,0,0,1,.982.2c.349.563-.225,1.1-.741,1.243-.6.169-.753-.28-.662-.73Z" transform="translate(-223.9 -211.977)" fill="#b2e3d9"/>
        </g>
      </g>
    </g>
  </g>
</svg>
