<svg xmlns="http://www.w3.org/2000/svg" xmlns:xlink="http://www.w3.org/1999/xlink" width="155" height="120" viewBox="0 0 155 120">
  <defs>
    <clipPath id="clip-Web_1920_4">
      <rect width="155" height="120"/>
    </clipPath>
  </defs>
  <g id="Web_1920_4" data-name="Web 1920 – 4" clip-path="url(#clip-Web_1920_4)">
    <g id="Group_14975" data-name="Group 14975" transform="translate(-201.494 -1023)">
      <path id="Path_13737" data-name="Path 13737" d="M522.164,1402.64a32.142,32.142,0,0,1-8.982,5.259l4.348.818-17.962,21.172-35.8,10.3L421.4,1485.35l33.374-.011,17.005-27.291,34.069-20.233,13.232-28.186,2.819,3.411a32.139,32.139,0,0,1,.265-10.4Z" transform="translate(-187.442 -346.589)" fill="#013d5d"/>
      <path id="Path_13738" data-name="Path 13738" d="M267.969,1899.04s-1.94-3.477-2.412-4.216-1.7-3.676-1.745-3.792.847-1.506.648-1.553-.419.733-.631.64-.832-1.972-.952-1.879c-.226.174.334,1.165.213,1.228s-.486-1.09-.722-1.056.45,1.056.384,1.147-.779-.873-.908-.668c-.07.112.656.841.516.909s-.785-.4-.853-.267.6.322.8.688.538.524.679,1.2.351,3.131,1.072,4.355,2.306,3.933,2.306,3.933Z" transform="translate(-39.73 -795.323)" fill="#f79c8d"/>
      <path id="Path_13739" data-name="Path 13739" d="M320.864,2015.19a17.4,17.4,0,0,1,2.464,3.244c.319.932-.311,2.265-1.181,2.323s-2.806-4.1-2.806-4.1Z" transform="translate(-93.162 -912.58)" fill="#3190c1"/>
      <path id="Path_13740" data-name="Path 13740" d="M413.521,2114.74c-.156-.131-.345-.071-.887-.322a3.276,3.276,0,0,0-.5-.151.062.062,0,0,1-.048-.045c-.165-.623-.887-3.506-.966-4.337-.081-.85-.629-4.453-.713-5a.063.063,0,0,0-.028-.043.064.064,0,0,0-.051-.008l-1.575.439a.063.063,0,0,0-.045.074c.1.429.7,3.126.88,4.491a43.048,43.048,0,0,0,1.8,4.8v.006a.136.136,0,0,0,.135.117h1.755C413.338,2114.77,413.57,2114.78,413.521,2114.74Z" transform="translate(-175.713 -995.348)" fill="#f48c7f"/>
      <path id="Path_13741" data-name="Path 13741" d="M404.389,2055.62c-.838-2.542-1.775-2.434-1.775-2.434l.725,5.344c.517-.141,1.191-.456,1.708-.6a23.286,23.286,0,0,0-.658-2.31Z" transform="translate(-170.087 -947.666)" fill="#013d5d"/>
      <path id="Path_13742" data-name="Path 13742" d="M350.318,1970.25c-.256-1.672-1.769-2.874-3.351-2.063a3.751,3.751,0,0,0-1.083.868c-.664.853-.834,1.906-1.52,2.734a6.765,6.765,0,0,0,.92.584l.427-.57-.147.711a10.427,10.427,0,0,0,4.613.916,8.865,8.865,0,0,0,.141-3.18Z" transform="translate(-116.276 -868.93)" fill="#013d5d"/>
      <path id="Path_13743" data-name="Path 13743" d="M381.107,2203.5a6.753,6.753,0,0,0-1.207-.669c-.05-.024-.233-.141-.3-.181a2.332,2.332,0,0,1-.48-.425,2.4,2.4,0,0,1-.235-1.043c.079-.88,1.355-15,1.624-16.522a14.512,14.512,0,0,0-.145-3.983l-.984-.371-1.869,6.478.147,4.931a13.18,13.18,0,0,0-.5,2.271c-.056.849.635,7.743.635,7.743h0a3.618,3.618,0,0,1-.037.609c-.051.258-.333.789-.2,1.031a.651.651,0,0,0,.278.3l3.358.054C381.375,2203.73,381.254,2203.61,381.107,2203.5Z" transform="translate(-146.572 -1064.985)" fill="#f48c7f"/>
      <path id="Path_13744" data-name="Path 13744" d="M301.18,2171.92a11.008,11.008,0,0,0-1.444,3.215c-.278,1.456.2,5.93-.33,7.838-.289,1.033-1.385,2.628-1.551,3.962s-.746,5.187-.746,5.187h0a3.4,3.4,0,0,1-.4,1.137,3.348,3.348,0,0,0-.439.58,1.708,1.708,0,0,0,.059,1.325c.077.169,0,.168.17.222a1.078,1.078,0,0,0,1.3-.609,3.1,3.1,0,0,0,.254-1.12,5.229,5.229,0,0,1,.184-1.184h0l3.728-9.144,2.7-7.891.691-4.064Z" transform="translate(-71.742 -1056.735)" fill="#f79c8d"/>
      <path id="Path_13745" data-name="Path 13745" d="M296.508,2466.75a1.653,1.653,0,0,1-1.623-.68,1.788,1.788,0,0,0-.154,1.329c.133.29.521.282.827.293a.8.8,0,0,0,.734-.45A2.711,2.711,0,0,0,296.508,2466.75Z" transform="translate(-70.36 -1328.97)" fill="#3190c1"/>
      <path id="Path_13746" data-name="Path 13746" d="M383.922,2472.57a3.033,3.033,0,0,1-1.912-.075,1.551,1.551,0,0,0-.154.8c.082.238.2.292.3.295.811.021,2.972.05,3.59.059a.1.1,0,0,0,.078-.167,16.189,16.189,0,0,0-1.9-.912Z" transform="translate(-150.895 -1334.906)" fill="#3190c1"/>
      <path id="Path_13747" data-name="Path 13747" d="M339.6,2184.36l.21.014h.011l.208.012h.013l.21.01h.011l.214.008a13.851,13.851,0,0,0,2.41-.091c.322-3.22.441-6.158.56-6.809a13.259,13.259,0,0,0-.252-4.067l-.258-.046.163-.922-4.331.546a10.828,10.828,0,0,0-1.5,3.215c-.289,1.456.212,5.93-.344,7.838C336.923,2184.07,338.159,2184.26,339.6,2184.36Z" transform="translate(-109.403 -1057.75)" fill="#ff61a4"/>
      <path id="Path_13748" data-name="Path 13748" d="M346.934,2047.15s-1.544-.1-2.155.569,1.355,5.946,1.466,6.8a12.3,12.3,0,0,1-.566,3.107s3.627.731,4.664.044c0,0,.111-6.107,0-6.714a17.971,17.971,0,0,0-1.259-3.316,8.586,8.586,0,0,0-2.15-.49Z" transform="translate(-116.552 -942.066)" fill="#3190c1"/>
      <path id="Path_13749" data-name="Path 13749" d="M374.355,2019.66s-.008.046-.022.123a11.764,11.764,0,0,1-.513,1.945c-.216.41.741,1.718,1.662,1.558.274-.047-.232-1.2-.207-1.324l.174-.88.108-.548.179-.909Z" transform="translate(-143.459 -916.676)" fill="#f7a491"/>
      <path id="Path_13750" data-name="Path 13750" d="M380.418,2019.78l.022-.123,1.381-.035-.179.909-.107.545a1.291,1.291,0,0,1-.659-.331,1.743,1.743,0,0,1-.5-.744C380.393,2019.92,380.407,2019.84,380.418,2019.78Z" transform="translate(-149.544 -916.682)" fill="#f47458"/>
      <path id="Path_13751" data-name="Path 13751" d="M375.065,1978.76a1.243,1.243,0,0,0-1.059.453,2.469,2.469,0,0,0,.166,3.053c1.013.889,2.015-.117,2.163-1.184S376.542,1978.72,375.065,1978.76Z" transform="translate(-143.24 -878.933)" fill="#f7a491"/>
      <path id="Path_13752" data-name="Path 13752" d="M407.28,2002c-.121.236-.324.366-.453.291s-.136-.326-.015-.562.324-.366.453-.292S407.4,2001.77,407.28,2002Z" transform="translate(-173.885 -899.87)" fill="#f7a491"/>
      <path id="Path_13753" data-name="Path 13753" d="M367.761,1976.31s-.869,1.555-1.491,1.627-.7.9-.7.9.222-1.9.838-2.271a2.283,2.283,0,0,1,1.353-.256Z" transform="translate(-135.863 -876.664)" fill="#013d5d"/>
      <path id="Path_13754" data-name="Path 13754" d="M369.052,1997.67c.051.276-.051.529-.227.566s-.36-.158-.41-.434.051-.529.227-.566S369,1997.39,369.052,1997.67Z" transform="translate(-138.483 -896)" fill="#f7a491"/>
      <path id="Path_13755" data-name="Path 13755" d="M386.944,2016.15l.941.185a.419.419,0,0,1-.508.284C386.87,2016.53,386.944,2016.15,386.944,2016.15Z" transform="translate(-155.608 -913.473)" fill="#fff"/>
      <g id="Group_14965" data-name="Group 14965" transform="translate(289.802 1105.918)">
        <rect id="Rectangle_25" data-name="Rectangle 25" width="0.393" height="8.997" transform="matrix(-0.983, 0.186, -0.186, -0.983, 19.462, 32.867)" fill="#3190c1"/>
        <path id="Path_13756" data-name="Path 13756" d="M1164.19,2381.14h-.464l1.729-8.955.386.073Z" transform="translate(-1162.963 -2348.155)" fill="#3190c1"/>
        <path id="Path_13757" data-name="Path 13757" d="M1341.93,2381.14h-.464l1.729-8.955.386.073Z" transform="translate(-1327.159 -2348.155)" fill="#3190c1"/>
        <path id="Path_13758" data-name="Path 13758" d="M1205.08,2381.62h.377l-1.658-8.919-.386.073Z" transform="translate(-1199.628 -2348.643)" fill="#184655"/>
        <path id="Path_13759" data-name="Path 13759" d="M1165.86,2116.93c2.06.221,4.725.453,7.4,4.994,2.925,4.963,1.385,12.376-.923,14.437s-9.848,4.6-16.185.8c0,0-3.827-2.308-1.863-6.138,3.022-5.894,2.6-7.123,3.946-9.433S1161.49,2116.46,1165.86,2116.93Z" transform="translate(-1153.734 -2112.308)" fill="#7be0fd"/>
        <path id="Path_13760" data-name="Path 13760" d="M1188.34,2126.81c-1.826-3.1-3.648-4.191-5.275-4.643a13.638,13.638,0,0,1,1.906,2.573c2.925,4.963,1.385,12.376-.923,14.437-2.047,1.827-8.208,4.033-14,1.854a5.881,5.881,0,0,0,1.18,1.011c6.338,3.808,13.877,1.264,16.185-.8S1191.26,2131.77,1188.34,2126.81Z" transform="translate(-1168.805 -2117.192)" fill="#3ed5fc"/>
        <path id="Path_13761" data-name="Path 13761" d="M1219.71,2216.53l-.529,1.588,1.613-.635Z" transform="translate(-1214.197 -2204.366)" fill="#f79c8d"/>
        <path id="Path_13762" data-name="Path 13762" d="M1221.43,2154.52c-.107,0-.4.1-.833.915a30.353,30.353,0,0,0-1.355,4.168l2.4.891.308-.654.508-5.032S1221.46,2154.52,1221.43,2154.52Z" transform="translate(-1214.251 -2147.081)" fill="#dff0f4"/>
        <path id="Path_13763" data-name="Path 13763" d="M1249.28,2148.59a14.745,14.745,0,0,0-3.174.452,26.241,26.241,0,0,0,.522,8.732,13.5,13.5,0,0,1-.2,3.5l7.115-.094s-.843-6.418-.525-7.455a28.823,28.823,0,0,0,.325-4.649l-1.6-.275a16.134,16.134,0,0,0-2.463-.211Z" transform="translate(-1238.927 -2141.609)" fill="#eefbff"/>
        <path id="Path_13764" data-name="Path 13764" d="M1293.56,2435.84a9.525,9.525,0,0,1-.447,2.312c-.29.5.015,1.354.03,1.471s.609.284,1.554.184.929-.318.853-.668-.579-.8-.609-1.136a8.7,8.7,0,0,1,.289-1.538Z" transform="translate(-1282.373 -2406.963)" fill="#f7a491"/>
        <path id="Path_13765" data-name="Path 13765" d="M1184.49,2294.05s-4.912-.272-6.008.39.2,2.021.2,2.021a34.217,34.217,0,0,0,10.693,2.117c1.585.091,1.722-4.119,1.425-4.468S1184.49,2294.05,1184.49,2294.05Z" transform="translate(-1176.186 -2275.874)" fill="#ff61a4"/>
        <path id="Path_13766" data-name="Path 13766" d="M1293.57,2469.29c.973-.1.852-.579.774-.941a3.179,3.179,0,0,0-.495-.745,1.623,1.623,0,0,1-.651.315,2.443,2.443,0,0,1-1.423-.286,4.662,4.662,0,0,0-.13,1.25A2.831,2.831,0,0,0,1293.57,2469.29Z" transform="translate(-1281.133 -2436.306)" fill="#013d5d"/>
        <path id="Path_13767" data-name="Path 13767" d="M1295.75,2298.14c-.2,1.48-1.168,8.847-1.168,8.847l2.254.279s2.772-9.616,2.63-11.086-1.18-1.594-1.18-1.594S1296.27,2294.22,1295.75,2298.14Z" transform="translate(-1283.847 -2276.464)" fill="#ff9ac5"/>
        <path id="Path_13768" data-name="Path 13768" d="M1243.68,2162.1c-.665-.249-.991,5.725-1.08,8.184a28.969,28.969,0,0,1-3.743-.037c-.24-.018-.8-.22-1.034-.251a2.407,2.407,0,0,0-.588-.028,11.139,11.139,0,0,0-1.377.618c-.13.136-.482.479-.423.628s.677-.414.677-.414l.3-.169c-.376.366-1.093.848-.99,1.023s.748-.318,1.209-.651c-.4.356-.887.993-.773,1.092s.66-.648,1.258-.86c.221-.079.442.139.616.166a1.252,1.252,0,0,0,.451.025l.647-.183c.22.02.226.15.448.2.258.055.682.113,1.011.193a17.519,17.519,0,0,0,3.1.675C1245.15,2172.31,1245.26,2162.69,1243.68,2162.1Z" transform="translate(-1229.192 -2154.083)" fill="#f7a491"/>
        <path id="Path_13769" data-name="Path 13769" d="M1327.72,2160.95c.125-2.519.106-5.623-1.31-6.153-.559-.209-1.544,1.048-1.367,6.2a10.691,10.691,0,0,0,2.677-.047Z" transform="translate(-1311.971 -2147.316)" fill="#eefbff"/>
        <path id="Path_13770" data-name="Path 13770" d="M1185.61,2456.16a1.219,1.219,0,0,1-.156,1.044c-.352.416-1.816.823-2.008,1.049a.631.631,0,0,0-.177.417l4.108-.113-.045-1.236-.189-.888Z" transform="translate(-1181.015 -2425.734)" fill="#f7a491"/>
        <path id="Path_13771" data-name="Path 13771" d="M1177.51,2471.44s1.055.426,1.565.174.494-.322.642-.228a4.755,4.755,0,0,1,.2,1.357l-4.619.031c-.321-.008-.484-.243-.223-.445a3.781,3.781,0,0,1,.5-.3A14.47,14.47,0,0,1,1177.51,2471.44Z" transform="translate(-1173.332 -2439.761)" fill="#013d5d"/>
        <path id="Path_13772" data-name="Path 13772" d="M1172.19,2296.43a1.7,1.7,0,0,0-2.31-1.01,2.258,2.258,0,0,0-1.155,2.975c.382,1.253,2.9,8.621,2.987,9.634l2.01.013s-.365-5.834-.455-7.244A13.621,13.621,0,0,0,1172.19,2296.43Z" transform="translate(-1167.447 -2277.096)" fill="#ff9ac5"/>
        <path id="Path_13773" data-name="Path 13773" d="M1167.91,2221.58h6.718a.438.438,0,0,1,.405.272l2.068,5.045h3.7a.187.187,0,0,1,.188.188h0a.187.187,0,0,1-.187.187h-10.541a.736.736,0,0,1-.671-.434l-2.083-4.64a.438.438,0,0,1,.4-.618Z" transform="translate(-1166.422 -2209.034)" fill="#013d5d"/>
        <path id="Path_13774" data-name="Path 13774" d="M1220.56,2254.21a.37.37,0,1,0,.277-.482.4.4,0,0,0-.277.482Z" transform="translate(-1215.462 -2238.719)" fill="#fff"/>
        <path id="Path_13775" data-name="Path 13775" d="M1276.89,2119.13l.329,2.166s-1.2,2.58-1.917,2.356c-.6-.188-.231-2.47-.231-2.47a6.255,6.255,0,0,0,.229-1.839C1275.2,2118.73,1276.89,2119.13,1276.89,2119.13Z" transform="translate(-1265.722 -2114.273)" fill="#f7a491"/>
        <path id="Path_13776" data-name="Path 13776" d="M1278.94,2119.34c-.1-.613,1.59-.213,1.59-.213l.027.18a1,1,0,0,1-.183.3,2.223,2.223,0,0,1-1.476.668A3.355,3.355,0,0,0,1278.94,2119.34Z" transform="translate(-1269.358 -2114.273)" fill="#f47458" opacity="0.2"/>
        <g id="Group_14964" data-name="Group 14964" transform="translate(8.565)">
          <path id="Path_13777" data-name="Path 13777" d="M1269,2072.27c.048-.017.383,2.467-.253,3.151s-1.873.907-2.317.369c-.491-.6-.466-3.266.521-3.969S1269,2072.27,1269,2072.27Z" transform="translate(-1266.118 -2070.479)" fill="#f7a491"/>
          <path id="Path_13778" data-name="Path 13778" d="M1271.6,2056.95a2.741,2.741,0,0,1,1.44.821c.347.041.818.232,1.3,1.038a2.015,2.015,0,0,1-.54,2.626,1.57,1.57,0,0,0-.687,1.16l-.11-.322a1.8,1.8,0,0,1-.087-.758,1.477,1.477,0,0,1,.113-.456c.167-.36-.36-.6-.508-.9-.114-.23-.119-.757-.3-1.138l-.214-.291a1.363,1.363,0,0,0-.978-.276C1270.56,2058.57,1270.62,2056.75,1271.6,2056.95Z" transform="translate(-1270.394 -2056.938)" fill="#013d5d"/>
          <path id="Path_13779" data-name="Path 13779" d="M1294.56,2098.52c-.005.3.133.551.308.554s.321-.24.326-.544-.133-.551-.308-.554S1294.57,2098.21,1294.56,2098.52Z" transform="translate(-1292.395 -2094.845)" fill="#f7a491"/>
        </g>
        <path id="Path_13780" data-name="Path 13780" d="M1271.7,2115.53l-.958-.05a.419.419,0,0,0,.424.4C1271.68,2115.92,1271.7,2115.53,1271.7,2115.53Z" transform="translate(-1261.828 -2111.017)" fill="#fff"/>
      </g>
      <g id="Group_14966" data-name="Group 14966" transform="translate(318.716 1094.491)">
        <path id="Path_13781" data-name="Path 13781" d="M1533.01,1924.57c.1.429.293,1.108.293,1.108-.015.187-.07.963-.136,1.914l1.4-.56a15.13,15.13,0,0,1,.046-1.645c.053-.08.141.02.57-.594a1.2,1.2,0,0,0,.147-.493s.026-.389-.062-.426a.181.181,0,0,0-.219.089c-.032.067-.024.224-.055.291a.484.484,0,0,1-.319.144,5.2,5.2,0,0,1,.011-1.152s.047-.325.072-.432c.021-.091.1-.357.1-.357s.1-.386-.023-.416c-.071-.017-.251.3-.374.629a6.718,6.718,0,0,1-.246.734c-.089-.012-.042-.641-.042-.641a2.009,2.009,0,0,0,.087-.424c.084-.167.14-.476-.008-.5a2.573,2.573,0,0,0-.222.388s-.077.277-.121.406a7.524,7.524,0,0,0-.132.747c-.034.132-.065.078-.079.083a3.3,3.3,0,0,1,.03-.428,2.529,2.529,0,0,1,.032-.415,3.024,3.024,0,0,0,.06-.438c.024-.325-.181-.292-.252.005-.027.113-.055.237-.084.362-.11.488-.107.958-.16.962a3.526,3.526,0,0,1-.023-.851s-.1-.474-.209-.034a3.835,3.835,0,0,0-.106.944,3.7,3.7,0,0,0,.024,1Z" transform="translate(-1532.956 -1920.71)" fill="#f8a492"/>
        <path id="Path_13782" data-name="Path 13782" d="M1700.23,1909.73c-.1.429-.293,1.108-.293,1.108.015.187.07.963.136,1.914l-1.4-.56a15.1,15.1,0,0,0-.046-1.645c-.053-.08-.141.02-.57-.594a1.2,1.2,0,0,1-.147-.493s-.026-.389.062-.426a.182.182,0,0,1,.219.089c.032.067.024.224.055.291a.485.485,0,0,0,.319.144,5.215,5.215,0,0,0-.011-1.152s-.047-.325-.072-.432c-.021-.091-.1-.357-.1-.357s-.1-.386.023-.416c.071-.017.251.3.374.629a6.752,6.752,0,0,0,.246.734c.089-.012.042-.641.042-.641a2.009,2.009,0,0,1-.087-.424c-.084-.167-.14-.476.008-.5a2.548,2.548,0,0,1,.222.388s.077.276.121.406a7.56,7.56,0,0,1,.132.746c.034.132.065.078.079.083a3.349,3.349,0,0,0-.03-.428,2.54,2.54,0,0,0-.032-.415,3.039,3.039,0,0,1-.06-.438c-.024-.325.181-.292.252,0,.027.113.055.237.084.362.11.488.107.958.16.962a3.538,3.538,0,0,0,.023-.851s.1-.474.209-.034a3.835,3.835,0,0,1,.106.944,3.7,3.7,0,0,1-.024,1Z" transform="translate(-1685.334 -1907.002)" fill="#f8a492"/>
        <path id="Path_13783" data-name="Path 13783" d="M1664.51,2421.41a10.66,10.66,0,0,0,.969,1.079c.193.118-.086,1.515-.612,1.607-.3.052-.461-.275-.461-.275l.085-.4-1.108-1.141Z" transform="translate(-1653.443 -2382.206)" fill="#f7a491"/>
        <path id="Path_13784" data-name="Path 13784" d="M1610.87,2424.53a10.7,10.7,0,0,0,.823,1.194c.177.142-.279,1.492-.813,1.515-.3.013-.422-.332-.422-.332l.136-.388-.953-1.273Z" transform="translate(-1603.797 -2385.084)" fill="#f7a491"/>
        <path id="Path_13785" data-name="Path 13785" d="M1610.49,2439.66a8.134,8.134,0,0,1-.574.662,6.843,6.843,0,0,1-.6.481s-.379.688-.483.929a4,4,0,0,0-.453,1.43c.012.1.228.2.408.142a9.517,9.517,0,0,0,2.906-2.452C1611.98,2440.31,1610.49,2439.66,1610.49,2439.66Z" transform="translate(-1602.637 -2399.061)" fill="#013d5d"/>
        <path id="Path_13786" data-name="Path 13786" d="M1555.29,2222.73c.07-.2.136-.375.2-.544.8.174,1.7.365,2.622.562l.113,3.393c0-.262-.7,5.411-.7,5.411s1.8,3.982,3.029,6.3a4.249,4.249,0,0,1-1.473,1.262c-1.91-2.289-4.408-6.478-4.512-7.174C1554.51,2231.54,1554.45,2225.06,1555.29,2222.73Z" transform="translate(-1552.893 -2198.162)" fill="#dff0f4"/>
        <path id="Path_13787" data-name="Path 13787" d="M1605.66,2230.52c-.243,2.644-.784,7.7-.739,8.1.136.507,2.543,5.183,2.976,5.864a2.92,2.92,0,0,1-1.449,1.233c-.113.031-4.085-5.623-4.3-6.071a26.052,26.052,0,0,1-.66-6.7l-.113-3.393C1602.91,2229.89,1604.33,2230.21,1605.66,2230.52Z" transform="translate(-1596.158 -2204.977)" fill="#eefbff"/>
        <path id="Path_13788" data-name="Path 13788" d="M1559.76,2084.09l1.815.249s1.452.026,1.632.026,1.323,6.631,1.653,9.123.074,2.933.074,2.933a15.971,15.971,0,0,1-4,.367,13.063,13.063,0,0,1-3.763-1.113s1.514-4.789,1.814-6.284S1559.76,2084.09,1559.76,2084.09Z" transform="translate(-1555.325 -2070.593)" fill="#013d5d"/>
        <path id="Path_13789" data-name="Path 13789" d="M1532.99,1975.68a51.876,51.876,0,0,0,.07,5.315c.271.549,3.319,4.444,3.319,4.444s-1.456,6.093-2.068,8.2c-.062.212-.334,1.581-.334,1.714,0,.3,1.288.672,1.441.649.137-.02,1.261-5.816,1.978-8.653a8.118,8.118,0,0,1,1.231-2.68l.5-.709-3.829-3.838s-.472-4.272-.472-4.626C1534.82,1975.4,1533.18,1975.33,1532.99,1975.68Z" transform="translate(-1532.956 -1970.2)" fill="#3190c1"/>
        <path id="Path_13790" data-name="Path 13790" d="M1618.79,1967.12l4.775-4.866s.665-4.6.713-4.774,1.232-.262,1.71-.309a32.226,32.226,0,0,1-.309,5.724c-.27.974-3.88,5.408-3.88,5.408a14.749,14.749,0,0,0-.491,4.164c.259,2.927.956,6.952.831,7.078-.776.489-3.755.541-3.943.238C1616.11,1976.44,1618.79,1967.12,1618.79,1967.12Z" transform="translate(-1610.966 -1953.351)" fill="#3190c1"/>
        <path id="Path_13791" data-name="Path 13791" d="M1670.21,2435.1a8.148,8.148,0,0,1-.484.729,6.783,6.783,0,0,1-.53.553s-.288.731-.36.982a4.244,4.244,0,0,0-.267,1.528c.024.094.23.273.4.162a12.667,12.667,0,0,0,2.591-2.928C1671.77,2435.56,1670.21,2435.1,1670.21,2435.1Z" transform="translate(-1658.215 -2394.855)" fill="#013d5d"/>
        <path id="Path_13792" data-name="Path 13792" d="M1597.34,2004.13a4.9,4.9,0,0,0,.609-.012,2.841,2.841,0,0,1,.689,0,1.553,1.553,0,0,1,1.1.788c.233.577,1.066.49.079,2.678-1.117,2.476-2.422,1.665-2.44,1.609s-.645-2.1-.645-2.1-.781.774-.768.74S1594.9,2004.04,1597.34,2004.13Z" transform="translate(-1590.95 -1996.697)" fill="#013d5d"/>
        <path id="Path_13793" data-name="Path 13793" d="M1612.43,2057.07l-.13.969s-.292,1.4.083,1.664,1.595-1.7,1.595-1.7l-.129-2.454Z" transform="translate(-1606.155 -2044.228)" fill="#f7a491"/>
        <path id="Path_13794" data-name="Path 13794" d="M1615.44,2056.34a2.778,2.778,0,0,1-1.571,1.551l.11-.821,1.419-1.526Z" transform="translate(-1607.703 -2044.228)" fill="#f47458"/>
        <path id="Path_13795" data-name="Path 13795" d="M1600.96,2017.08a1.292,1.292,0,0,0-1.853.7,9.809,9.809,0,0,0-.337,1.2c-.233,1.107.133,2.3.636,2.393a2.424,2.424,0,0,0,2.384-1.926,2.139,2.139,0,0,0-.83-2.367Z" transform="translate(-1593.687 -2008.54)" fill="#f7a491"/>
        <path id="Path_13796" data-name="Path 13796" d="M1633.96,2046.26a.376.376,0,1,0,.447-.375.416.416,0,0,0-.447.375Z" transform="translate(-1626.255 -2035.296)" fill="#f7a491"/>
        <path id="Path_13797" data-name="Path 13797" d="M1608.28,2015.27s-.624-.074-.7-.521a1.842,1.842,0,0,0-1.618-1.559c-1.086-.035,1.148-.479,1.225-.45l1,.371s.491.855.493.929-.058.853-.058.853Z" transform="translate(-1600.126 -2004.684)" fill="#013d5d"/>
        <path id="Path_13798" data-name="Path 13798" d="M1605.16,2058.53l-1.113-.193a.494.494,0,0,0,.438.528C1605.08,2058.98,1605.16,2058.53,1605.16,2058.53Z" transform="translate(-1598.626 -2046.801)" fill="#fff"/>
      </g>
      <g id="Group_14969" data-name="Group 14969" transform="translate(267.488 1098.035)">
        <path id="Path_13799" data-name="Path 13799" d="M880.409,2112.53a1.14,1.14,0,0,0,.12.29,11,11,0,0,0,1.143,1.521l.618-1.392s-.1-.437-.275-1.062A3.572,3.572,0,0,0,880.409,2112.53Z" transform="translate(-878.937 -2099.815)" fill="#f8a492"/>
        <path id="Path_13800" data-name="Path 13800" d="M866.461,2045.49s-3.446,1.484-3.557,1.456a9.159,9.159,0,0,1-1.428-4.376,1.967,1.967,0,0,1,2.137-1.917c.569.117.56.275,1.4,1.5a14.1,14.1,0,0,1,1.448,3.337Z" transform="translate(-861.446 -2033.988)" fill="#dff0f4"/>
        <path id="Path_13801" data-name="Path 13801" d="M962.688,2453.57s-.082,1.353-.082,1.356a7.442,7.442,0,0,0-.148.752c0,.587,2.787-.5,2.162-.758-.057-.024-.353-.2-.371-.4-.029-.308-.1-.93-.1-.93Z" transform="translate(-954.732 -2415.463)" fill="#f7a491"/>
        <path id="Path_13802" data-name="Path 13802" d="M963.416,2470.93s-.654.179-.989.224-.777-.333-1.014-.231c-.261.112-.251,1.124-.251,1.124a22.215,22.215,0,0,0,4.495-.01C966.048,2471.92,964.754,2471.35,963.416,2470.93Z" transform="translate(-953.536 -2431.472)" fill="#fe544e"/>
        <path id="Path_13803" data-name="Path 13803" d="M887.9,2453.57s-.082,1.353-.082,1.356a7.43,7.43,0,0,0-.148.752c0,.587,2.787-.5,2.162-.758-.057-.024-.441-.334-.459-.534-.029-.308-.014-.8-.014-.8Z" transform="translate(-885.64 -2415.463)" fill="#f7a491"/>
        <path id="Path_13804" data-name="Path 13804" d="M888.374,2470.93s-.654.179-.989.224-.777-.333-1.014-.231c-.261.112-.271,1.124-.271,1.124s3.524.336,4.516-.01C891,2471.9,889.712,2471.35,888.374,2470.93Z" transform="translate(-884.194 -2431.472)" fill="#fe544e"/>
        <g id="Group_14967" data-name="Group 14967" transform="translate(3.107 2.838)">
          <path id="Path_13805" data-name="Path 13805" d="M901.865,2001.37l2.454-3.438c.01-.03.033-.092.067-.186.124-.341.381-1.051.6-1.757v-.008c.07-.247.22-.677.364-1.094.16-.463.359-1.038.367-1.136l-.033-.087a7.929,7.929,0,0,1-.255-1.032c-.027-.154-.055-.528.128-.528.288,0,.151.374.283.607a5.879,5.879,0,0,0,.2-.779l.048-.731c.009-.055-.049-.458.153-.458h.01c.181.013.177.442.253,1.167.024-.083.048-.184.066-.276a2.646,2.646,0,0,1,.061-.383c-.036-.2-.015-.521.2-.491.108.015.1.46.1.46,0,.061-.008.531,0,.624.022-.158.108-.831.277-.831.14,0,.151.181.148.324,0,.085-.09.814-.095.9.066-.11.144-.753.209-.753.273,0,.174.914.074,1.152a1.03,1.03,0,0,0-.031.127,2.241,2.241,0,0,1-.234.68c-.171.293-.408.759-.444.831-.026.146-.109.669-.212,1.328-.044.282-.093.591-.143.911h0c-.009.069-.06.29-.255,1.116a9.889,9.889,0,0,1-.305,1.2c-.115.2-2.761,3.8-2.874,3.95l-.066.09Z" transform="translate(-901.865 -1990.746)" fill="#f7a491"/>
          <path id="Path_13806" data-name="Path 13806" d="M955.046,2018.54s-.2-.509-.554-.51a.408.408,0,0,1,.368.063A.7.7,0,0,1,955.046,2018.54Z" transform="translate(-950.481 -2015.936)" fill="#f47458"/>
        </g>
        <g id="Group_14968" data-name="Group 14968">
          <path id="Path_13807" data-name="Path 13807" d="M890.256,2010.63l-.316,2s1.2.967,1.906.763c.589-.171.185-.941.185-.941a5,5,0,0,1-.217-1.626C891.909,2010.26,890.256,2010.63,890.256,2010.63Z" transform="translate(-887.742 -2006.166)" fill="#f7a491"/>
          <path id="Path_13808" data-name="Path 13808" d="M893.576,2011.23a4.914,4.914,0,0,0,1.363.384,2.655,2.655,0,0,1-.032-.794c.044-.258-.284-.319-.65-.31-.479.041-.907.116-.907.116l-.061.384a.989.989,0,0,0,.287.22Z" transform="translate(-890.834 -2006.168)" fill="#fe875e"/>
          <path id="Path_13809" data-name="Path 13809" d="M874.113,1968.79c-.05,0,.476,2.232,1.289,2.616s2.026.184,2.254-.417c.252-.665-.667-2.942-1.81-3.231S874.113,1968.79,874.113,1968.79Z" transform="translate(-873.118 -1966.633)" fill="#f7a491"/>
          <path id="Path_13810" data-name="Path 13810" d="M863.031,1953.62a2.562,2.562,0,0,0-1.048,1.158,1.649,1.649,0,0,0-.851,1.3,1.829,1.829,0,0,0,1.377,2.077,1.248,1.248,0,0,1,.948.784l.093-.584a2.313,2.313,0,0,0-.457-.764c-.275-.255.13-.626.166-.929.027-.233-.144-.686-.107-1.068a2.638,2.638,0,0,1,.906-.862C864.823,1954.44,863.865,1953.14,863.031,1953.62Z" transform="translate(-861.095 -1953.513)" fill="#ffc359"/>
          <path id="Path_13811" data-name="Path 13811" d="M883.313,1995.38c.106.258.063.514-.1.572s-.376-.1-.482-.362-.063-.514.1-.572S883.206,1995.13,883.313,1995.38Z" transform="translate(-881.031 -1991.846)" fill="#f7a491"/>
        </g>
        <path id="Path_13812" data-name="Path 13812" d="M930.786,2105.1l4.734-.772s-.539-1.356-.731-1.356-3.579,1.479-3.579,1.479l-.269.541Z" transform="translate(-925.474 -2091.583)" fill="#f8a492"/>
        <path id="Path_13813" data-name="Path 13813" d="M889.194,2170.86a15.593,15.593,0,0,0-.28,4.014c.192,1.731.208,7.88.208,7.88l-.734,9.839,1.742.038s2.066-9.834,2.028-9.582.693-6.924.693-6.924l-2.463-5.482Z" transform="translate(-886.307 -2154.092)" fill="#3ed5fc"/>
        <path id="Path_13814" data-name="Path 13814" d="M903.617,2162.88a7.718,7.718,0,0,0,.077,2.957c.385.9,3.3,9.748,3.34,10.469s1.008,8.694,1.008,8.694l2.026-.057.438-8.864-.918-11.14-.891-2.817Z" transform="translate(-900.268 -2146.224)" fill="#7be0fd"/>
        <path id="Path_13815" data-name="Path 13815" d="M889.94,2030.42a1.82,1.82,0,0,0,.966.29,3.21,3.21,0,0,0,1.125-.468l-.092-.31s-1.206-.176-1.236-.157S889.94,2030.42,889.94,2030.42Z" transform="translate(-887.742 -2023.965)" fill="#f7a491"/>
        <path id="Path_13816" data-name="Path 13816" d="M959.812,2081.79s1.791,1.69,2.6,1.4,1.143-1.275-.829-2.718C959.817,2079.18,959.812,2081.79,959.812,2081.79Z" transform="translate(-952.288 -2070.466)" fill="#f8a492"/>
        <path id="Path_13817" data-name="Path 13817" d="M876.221,2042.66c-.266-1.447-2.194-5.951-2.348-6.78-.075-.4-1.115-.412-2.1-.36-1.046.056-2.086.188-2.086.188a3.183,3.183,0,0,0-1.334.534c-.408.382-.516,1.438.07,3.442.462,1.582,1.036,2.451,1.319,3.6.057.387.107.768.172,1.214.1,1.723,0,4,0,4s5.042,1.046,6.928-.541C876.837,2047.96,876.494,2044.14,876.221,2042.66Z" transform="translate(-867.484 -2029.247)" fill="#eefbff"/>
        <path id="Path_13818" data-name="Path 13818" d="M924.223,2040.25s-1.979,1.633-2.094,1.633c-.074,0-2.823-2.022-3.458-3.683a1.452,1.452,0,0,1,1.225-1.943c.583,0,.841.152,2,1.126a14.742,14.742,0,0,1,2.327,2.867Z" transform="translate(-914.2 -2029.949)" fill="#dff0f4"/>
      </g>
      <path id="Path_13819" data-name="Path 13819" d="M859.282,1450.67c-.484-.327-.979-.636-1.457-.972a.423.423,0,0,1-.154-.323c.063-.673.164-1.343.222-2.017a.358.358,0,0,1,.249-.372c.662-.259,1.318-.536,1.976-.807.107-.044.212-.092.4-.171l-.943-3.031c-.847.168-1.619.308-2.384.48a.469.469,0,0,1-.591-.221c-.355-.511-.781-.973-1.163-1.466a.384.384,0,0,1-.05-.317c.26-.673.519-1.348.82-2a.407.407,0,0,0-.21-.63,1.959,1.959,0,0,1-.294-.229l-1.46-.785a1.007,1.007,0,0,1-.183-.038c-.594-.243-.479-.238-.816.257-.411.6-.811,1.214-1.163,1.742l-2.637-.247-1.029-2.5a10.137,10.137,0,0,0-3.022.939c.167.833.328,1.645.494,2.456a.28.28,0,0,1-.122.34c-.558.418-1.107.85-1.635,1.305a.33.33,0,0,1-.414.063c-.675-.284-1.357-.552-2.034-.834a.284.284,0,0,0-.4.1,9.04,9.04,0,0,0-1.251,2.425c-.062.171.02.245.149.329.6.388,1.184.79,1.783,1.174a.356.356,0,0,1,.191.429c-.119.771-.194,1.549-.292,2.387l-2.4.987a9.451,9.451,0,0,0,.919,3.065l2.59-.532c.5.575.949,1.122,1.432,1.636a.453.453,0,0,1,.108.582c-.285.64-.544,1.292-.807,1.942-.052.128-.154.278.046.384l2.446,1.292c.173.091.283.033.388-.13.39-.608.807-1.2,1.187-1.812.147-.237.3-.246.55-.213a16.615,16.615,0,0,0,1.83.165.4.4,0,0,1,.449.309c.286.753.6,1.494.9,2.225a9.068,9.068,0,0,0,3.073-.956c-.168-.8-.329-1.613-.513-2.42a.344.344,0,0,1,.168-.41c.5-.392.969-.819,1.463-1.216a.418.418,0,0,1,.347-.066c.6.236,1.2.493,1.793.75.332.144.466.2.594.117l1.393-2.59C859.818,1451.04,859.673,1450.94,859.282,1450.67Zm-5.176-.908a4.759,4.759,0,0,1-6.446,1.938h0a4.76,4.76,0,0,1-1.938-6.446h0a4.76,4.76,0,0,1,6.446-1.938h0A4.76,4.76,0,0,1,854.106,1449.762Z" transform="translate(-573.621 -378.629)" fill="#3ed5fc"/>
      <path id="Path_13820" data-name="Path 13820" d="M497.579,1579.31c-.783.076-1.563.18-2.347.241a.57.57,0,0,1-.437-.2c-.513-.753-.982-1.535-1.5-2.284a.482.482,0,0,1-.061-.6c.466-.837.908-1.687,1.359-2.533.073-.137.141-.277.264-.518l-3.581-2.338c-.735.9-1.416,1.71-2.063,2.545a.631.631,0,0,1-.8.278c-.807-.226-1.646-.34-2.466-.524a.517.517,0,0,1-.323-.286c-.308-.922-.618-1.845-.869-2.784-.12-.45-.34-.564-.759-.474a2.653,2.653,0,0,1-.5.014l-2.189.438a1.341,1.341,0,0,1-.222.118c-.825.257-.7.164-.627.968.092.979.2,1.957.288,2.807l-2.95,2.008-3.212-1.71a13.653,13.653,0,0,0-2.331,3.569c.888.721,1.752,1.427,2.621,2.125a.378.378,0,0,1,.166.458c-.221.913-.42,1.833-.578,2.759a.445.445,0,0,1-.376.421c-.945.285-1.883.591-2.827.88a.383.383,0,0,0-.331.448,12.18,12.18,0,0,0,.782,3.592c.082.23.231.237.437.213.952-.109,1.908-.2,2.859-.312a.48.48,0,0,1,.566.281c.538.9,1.128,1.774,1.745,2.729l-1.641,3.082a12.73,12.73,0,0,0,3.584,2.394l2.233-2.776c1.011.169,1.947.35,2.891.47a.611.611,0,0,1,.612.511c.254.909.544,1.808.828,2.709.056.178.078.421.377.359l3.648-.758c.258-.054.322-.208.291-.468-.116-.966-.19-1.937-.322-2.9-.051-.372.1-.516.388-.693a22.375,22.375,0,0,0,2.042-1.4.537.537,0,0,1,.731-.065c.943.536,1.907,1.036,2.842,1.538a12.207,12.207,0,0,0,2.37-3.629c-.862-.688-1.727-1.393-2.61-2.073a.463.463,0,0,1-.177-.57c.181-.835.3-1.682.475-2.519a.564.564,0,0,1,.3-.367c.829-.272,1.667-.516,2.505-.759.468-.136.658-.189.717-.388l-.777-3.885C498.448,1579.23,498.212,1579.25,497.579,1579.31Zm-6.153,3.5a6.411,6.411,0,0,1-5.029,7.544h0a6.411,6.411,0,0,1-7.544-5.03h0a6.411,6.411,0,0,1,5.029-7.544h0a6.411,6.411,0,0,1,7.544,5.029Z" transform="translate(-233.182 -501.225)" fill="#3190c1"/>
      <path id="Path_13821" data-name="Path 13821" d="M620.621,1328.73c-.314-.149-.633-.287-.943-.442a.251.251,0,0,1-.12-.176c-.023-.4-.023-.8-.049-1.206a.213.213,0,0,1,.113-.241c.366-.211.727-.433,1.09-.651.059-.035.116-.073.217-.136l-.825-1.7c-.483.174-.924.326-1.359.495a.279.279,0,0,1-.367-.077c-.254-.269-.546-.5-.815-.758a.228.228,0,0,1-.057-.182c.093-.419.185-.839.3-1.251.057-.2,0-.291-.18-.352a1.153,1.153,0,0,1-.193-.109l-.928-.331a.583.583,0,0,1-.111-.006c-.371-.09-.3-.1-.457.224-.188.392-.369.786-.528,1.128l-1.573.09-.828-1.377a6.037,6.037,0,0,0-1.693.822c.172.475.339.938.51,1.4a.167.167,0,0,1-.041.211c-.291.3-.575.6-.845.913a.2.2,0,0,1-.238.074c-.422-.107-.847-.2-1.27-.309a.169.169,0,0,0-.227.094,5.377,5.377,0,0,0-.519,1.537c-.021.106.034.142.117.18.385.175.767.359,1.153.531a.212.212,0,0,1,.151.235c0,.464.024.928.041,1.429l-1.321.794a5.622,5.622,0,0,0,.814,1.72l1.476-.544c.345.294.658.575.988.834a.27.27,0,0,1,.116.333c-.11.4-.2.808-.3,1.214-.019.08-.066.177.061.221l1.553.542c.11.038.169-.006.216-.111.175-.392.368-.776.536-1.171.065-.152.157-.172.3-.174a9.844,9.844,0,0,0,1.091-.066.237.237,0,0,1,.292.142c.235.417.487.825.727,1.228a5.387,5.387,0,0,0,1.721-.836c-.17-.456-.337-.919-.518-1.377a.2.2,0,0,1,.062-.256c.258-.275.5-.568.752-.846a.248.248,0,0,1,.2-.07c.376.085.748.183,1.121.281.208.055.292.078.359.016l.588-1.647C620.968,1328.89,620.874,1328.85,620.621,1328.73Zm-3.124-.072a2.83,2.83,0,0,1-3.617,1.714h0a2.83,2.83,0,0,1-1.714-3.617h0a2.831,2.831,0,0,1,3.617-1.714h0A2.831,2.831,0,0,1,617.5,1328.658Z" transform="translate(-360.44 -272.008)" fill="#ffc359"/>
      <path id="Path_13822" data-name="Path 13822" d="M683.637,2349.91h-.932c.123-4.065.231-10.238.026-10.585a.149.149,0,0,0,.062.047l.756-.2c.122.062.2.1.221,1.827.013.89.008,2.118-.015,3.651C683.716,2347.25,683.637,2349.88,683.637,2349.91Z" transform="translate(-428.819 -1211.739)" fill="#dff0f4"/>
      <path id="Path_13823" data-name="Path 13823" d="M648.208,2479.42h-6.285a.524.524,0,0,0-.524.524h0a.092.092,0,0,0,.092.092h7.15a.092.092,0,0,0,.092-.092h0a.524.524,0,0,0-.525-.524Z" transform="translate(-390.662 -1341.303)" fill="#dff0f4"/>
      <path id="Path_13824" data-name="Path 13824" d="M679.263,2472.64h-.77a.412.412,0,0,0-.412.413h0a.412.412,0,0,0,.412.412h.77a.412.412,0,0,0,.412-.412h0a.413.413,0,0,0-.412-.414Z" transform="translate(-424.548 -1335.037)" fill="#dff0f4"/>
      <rect id="Rectangle_26" data-name="Rectangle 26" width="0.372" height="18.53" transform="translate(232.049 1120.191)" fill="#eefbff"/>
      <path id="Path_13825" data-name="Path 13825" d="M647.078,2068.02a4.986,4.986,0,0,1,.456-2.4,2.038,2.038,0,0,1,1.817-1.035c2.271,0,2.56,3,4.006,4.156.442.354.936.642,1.354,1.023,1.544,1.408.848,4.016-.569,5.251a3.411,3.411,0,0,1-3.742.674,3.813,3.813,0,0,1-1.456-1.568,21.448,21.448,0,0,1-1.144-2.909A10.862,10.862,0,0,1,647.078,2068.02Z" transform="translate(-395.903 -958.17)" fill="#fe544e"/>
      <path id="Path_13826" data-name="Path 13826" d="M548.162,2166.51l4.943-1.378s1.041-1.4,2.381-3.275c.438.434.681,1.1,1.123,1.529l-3.272,3.619a.624.624,0,0,1-.462.206l-4.542.015-1.554.124v-1Z" transform="translate(-303.256 -1048.022)" fill="#f48c7f"/>
      <path id="Path_13827" data-name="Path 13827" d="M638.3,2157.47a21.73,21.73,0,0,0,2.133-2.5c.437-.756-.3-.264-1.047-.462-.284-.075-.212-1.739-.749-1.2a24.672,24.672,0,0,0-1.987,2.438Z" transform="translate(-386.274 -1040.039)" fill="#3190c1"/>
      <path id="Path_13828" data-name="Path 13828" d="M653.8,2143.67s1.522-.3,2.217.28-.149,5.741-.148,6.6a28.656,28.656,0,0,0,.477,3.272s-4.614.807-5.347-.477c0,0-.208-4.893-.177-5.508a17.073,17.073,0,0,1,.9-3.4,8.654,8.654,0,0,1,2.078-.767Z" transform="translate(-399.359 -1031.071)" fill="#3ed5fc"/>
      <path id="Path_13829" data-name="Path 13829" d="M673.275,2113.3s.008.046.022.123a11.7,11.7,0,0,0,.515,1.943c.217.409-.743,1.716-1.667,1.556-.275-.048.233-1.2.208-1.322l-.175-.879-.108-.547-.179-.908Z" transform="translate(-418.829 -1003.152)" fill="#f7a491"/>
      <path id="Path_13830" data-name="Path 13830" d="M673.3,2113.42c-.014-.077-.022-.123-.022-.123l-1.385-.034.179.908.108.544a1.3,1.3,0,0,0,.661-.331,1.742,1.742,0,0,0,.5-.743C673.322,2113.55,673.308,2113.48,673.3,2113.42Z" transform="translate(-418.829 -1003.159)" fill="#f47458"/>
      <path id="Path_13831" data-name="Path 13831" d="M661.514,2072.45a1.25,1.25,0,0,1,1.062.453,2.458,2.458,0,0,1-.166,3.049c-1.016.888-2.021-.117-2.17-1.183S660.033,2072.41,661.514,2072.45Z" transform="translate(-408 -965.458)" fill="#f7a491"/>
      <path id="Path_13832" data-name="Path 13832" d="M656.12,2095.66c.121.235.325.366.455.291s.137-.326.016-.561-.325-.366-.455-.291S656,2095.43,656.12,2095.66Z" transform="translate(-404.181 -986.368)" fill="#f7a491"/>
      <path id="Path_13833" data-name="Path 13833" d="M676.873,2070.01s.872,1.553,1.5,1.625.706.9.706.9-.223-1.9-.841-2.269a2.3,2.3,0,0,0-1.365-.256Z" transform="translate(-423.432 -963.191)" fill="#fe544e"/>
      <path id="Path_13834" data-name="Path 13834" d="M694.2,2091.33c-.051.276.051.529.228.565s.361-.158.412-.434-.051-.529-.228-.565S694.247,2091.06,694.2,2091.33Z" transform="translate(-439.422 -982.503)" fill="#f7a491"/>
      <g id="Group_14970" data-name="Group 14970" transform="translate(235.398 1122.247)">
        <path id="Path_13835" data-name="Path 13835" d="M617.346,2419.6a21.558,21.558,0,0,1,1.41,1.825,6.927,6.927,0,0,1-.222,1.887c-.167.146-.656.25-.5.414a4.87,4.87,0,0,0,1.64.064c.177-.01.4-1.422.469-1.629.1-.3.349-.98.257-1.19a1.767,1.767,0,0,0-.565-.509,16.71,16.71,0,0,1-1.543-1.908Z" transform="translate(-603.852 -2407.323)" fill="#f48c7f"/>
        <path id="Path_13836" data-name="Path 13836" d="M625.807,2443.46s-.94,2.648-1.309,2.776c-.1.034-.567.12-.655.327a.9.9,0,0,0,0,.271h1.96s.248-1.167.346-1.679a7.618,7.618,0,0,0,.461-1.366A3.171,3.171,0,0,0,625.807,2443.46Z" transform="translate(-609.843 -2430.331)" fill="#3190c1"/>
        <path id="Path_13837" data-name="Path 13837" d="M448.515,2433.08s-1.144,1.61-1.043,2.12c.054.273.294.63.156.886a.69.69,0,0,1-.3.321l-3.568.057c-.194,0-.066-.122.091-.237a7.208,7.208,0,0,1,1.283-.708c.053-.026.248-.149.318-.192a2.466,2.466,0,0,0,.51-.45c.256-.285,1.383-2.6,1.383-2.6Z" transform="translate(-443.41 -2419.998)" fill="#f7a491"/>
        <path id="Path_13838" data-name="Path 13838" d="M442.343,2471.38a3.236,3.236,0,0,0,2.031-.08,1.634,1.634,0,0,1,.163.848c-.087.252-.21.309-.319.312-.862.023-3.157.053-3.814.062a.107.107,0,0,1-.083-.176,17.343,17.343,0,0,1,2.022-.966Z" transform="translate(-440.295 -2456.045)" fill="#3190c1"/>
        <path id="Path_13839" data-name="Path 13839" d="M538.153,2274.34a25.554,25.554,0,0,0,1.777,1.873c.361.256,3.828,6.639,3.828,6.639l-1.235.9s-3.1-3.863-4.553-5.929c-1.23-1.747-.777-1.636-1.5-2.7a1.421,1.421,0,0,1,.217-1.852q.1-.089.214-.185c1.071-.893,8.411-1.9,8.411-1.9l4.7.46s-3.836,2.69-3.979,2.761-5.3.823-5.4.823S538.153,2274.34,538.153,2274.34Z" transform="translate(-528.911 -2271.194)" fill="#ff61a4"/>
        <path id="Path_13840" data-name="Path 13840" d="M501.436,2275.65s.8,2.416-.4,3.543-8.384,1-10.747,1c0,0-.966,2.649-1.074,3.078s-4.8,5.977-4.8,5.977l-1.288-.823s5.047-9.807,5.44-10.237,6.013-2.148,7.409-2.541S501.436,2275.65,501.436,2275.65Z" transform="translate(-479.863 -2275.147)" fill="#ff9ac5"/>
      </g>
      <path id="Path_13841" data-name="Path 13841" d="M584.054,2164.34l4.285-.948s1.55-1.991,3.038-3.705c.438.434.682,1.1,1.123,1.529l-3.272,3.619a.625.625,0,0,1-.461.206l-4.542.015-1.554.124v-1Z" transform="translate(-336.411 -1046.015)" fill="#f7a491"/>
      <path id="Path_13842" data-name="Path 13842" d="M674.19,2149.71a21.738,21.738,0,0,0,2.133-2.5c.437-.756.113-2.022-.637-2.221s-3.146,3-3.146,3Z" transform="translate(-419.43 -1032.443)" fill="#3190c1"/>
      <g id="Group_14971" data-name="Group 14971" transform="translate(238.375 1113.446)">
        <path id="Path_13843" data-name="Path 13843" d="M479.714,2156.73h7.068a.461.461,0,0,1,.426.286l2.176,5.308h3.9a.2.2,0,0,1,.2.2h0a.2.2,0,0,1-.2.2h-11.09a.773.773,0,0,1-.706-.457l-2.191-4.881a.461.461,0,0,1,.417-.656Z" transform="translate(-479.253 -2156.734)" fill="#013d5d"/>
        <path id="Path_13844" data-name="Path 13844" d="M535.115,2191.06a.389.389,0,1,0,.292-.507A.416.416,0,0,0,535.115,2191.06Z" transform="translate(-530.848 -2187.967)" fill="#fff"/>
      </g>
      <path id="Path_13845" data-name="Path 13845" d="M411.721,2236.2H390.606a.448.448,0,0,1-.448-.448h0a.448.448,0,0,1,.448-.448h21.116a.448.448,0,0,1,.448.448h0a.448.448,0,0,1-.449.448Z" transform="translate(-158.581 -1115.789)" fill="#eefbff"/>
      <path id="Path_13846" data-name="Path 13846" d="M672.677,2110.15l.958-.05a.419.419,0,0,1-.424.4C672.7,2110.54,672.677,2110.15,672.677,2110.15Z" transform="translate(-419.556 -1000.238)" fill="#fff"/>
      <path id="Path_13847" data-name="Path 13847" d="M626.555,2282.4l.432-1.8a2.92,2.92,0,0,1,2.711-2.227l5.477-.221.169-.558-5.668.229a3.473,3.473,0,0,0-3.224,2.649l-.46,1.913C626.149,2282.39,626.338,2282.4,626.555,2282.4Z" transform="translate(-376.43 -1154.861)" fill="#dff0f4"/>
      <path id="Path_13848" data-name="Path 13848" d="M617.377,2199.64s-7.525.129-8.31,0-1.124.855-.89,1.37.878.714,1.827.761,8.84.269,9.063.058c.182-.172,2.574-8.351,3.445-11.343a1.128,1.128,0,0,0-.767-1.4h0a1.129,1.129,0,0,0-1.4.756Z" transform="translate(-359.905 -1073.056)" fill="#7be0fd"/>
      <rect id="Rectangle_27" data-name="Rectangle 27" width="0.372" height="18.53" transform="translate(252.782 1120.191)" fill="#eefbff"/>
      <rect id="Rectangle_28" data-name="Rectangle 28" width="21.001" height="0.199" transform="translate(232.049 1121.391)" fill="#eefbff"/>
      <g id="Group_14973" data-name="Group 14973" transform="translate(284.552 1027)">
        <path id="Path_13849" data-name="Path 13849" d="M1385.75,1074.34s2.728,1.766,9.453,1.526c0,0-7.207,2.722-10.026,3.143l-1.16-4.581Z" transform="translate(-1361.212 -1070.729)" fill="#ff9ac5"/>
        <path id="Path_13850" data-name="Path 13850" d="M1393.77,1090.3a6.949,6.949,0,0,1-1.859,2.362l-.6-2.387.039-1.155Z" transform="translate(-1367.944 -1084.385)" fill="#ff61a4"/>
        <path id="Path_13851" data-name="Path 13851" d="M1287.55,1036.86s7.879-.532,9.1-.082l1.267,5a24.854,24.854,0,0,0-8.854,1.072Z" transform="translate(-1272.1 -1035.866)" fill="#ff9ac5"/>
        <path id="Path_13852" data-name="Path 13852" d="M1193.22,1758.57s-.38.62-.345.8a8.442,8.442,0,0,0,.742,2.254c.251.128.888.1.745.356a6.213,6.213,0,0,1-2.006.592c-.222.043-.937-1.631-1.089-1.866-.22-.34-.738-1.1-.689-1.39a2.248,2.248,0,0,1,.538-.806,3.544,3.544,0,0,0,.564-1.019Z" transform="translate(-1182.518 -1701.825)" fill="#f48c7f"/>
        <path id="Path_13853" data-name="Path 13853" d="M1296.05,1763.51s-.128,1.389-.128,1.392c.018.21.012.743.058.926.175.69,2.962-1.373,2.187-1.5a.761.761,0,0,1-.4-.412,1.667,1.667,0,0,1,.056-.881Z" transform="translate(-1279.836 -1706.937)" fill="#f7a491"/>
        <path id="Path_13854" data-name="Path 13854" d="M1227.69,1441.71s.805,2.227.814,2.261c.936,3.7,3.5,10.729,3.533,11.459.089,1.781-1.38,11.352-1.38,11.352l-2.037.264-.044-11-2-3.926-3.427-7.9Z" transform="translate(-1212.607 -1410.104)" fill="#dff0f4"/>
        <path id="Path_13855" data-name="Path 13855" d="M1199.45,1451.53l.173,2.26,1.241,9.169-1.66,9.689s.865,1.13,1.712,1.1l3.888-10.5.924-12.41-.778-2.508Z" transform="translate(-1190.486 -1416.22)" fill="#eefbff"/>
        <path id="Path_13856" data-name="Path 13856" d="M1187.17,1770.63s1.99,2.977,2.485,3.02c.131.011.738-.029.912.2a2.745,2.745,0,0,1,.164.414l-2.5.719s-.675-1.548-.956-2.15a9.709,9.709,0,0,1-1-1.544C1186.31,1771.13,1187.17,1770.63,1187.17,1770.63Z" transform="translate(-1178.546 -1713.95)" fill="#3190c1"/>
        <path id="Path_13857" data-name="Path 13857" d="M1295.06,1781.8l.076-1.3a3.187,3.187,0,0,0,1.189-.02,11.671,11.671,0,0,0,1.037-.543c1.617.113,2.9.042,2.778.494h0Z" transform="translate(-1279.038 -1722.558)" fill="#3190c1"/>
        <path id="Path_13858" data-name="Path 13858" d="M1345.76,1315.56l1.077.826c.207-.16.661-.833.955-1.043l-.984-1.073h0a.283.283,0,0,1-.115-.257.882.882,0,0,1,.027-.165c.031-.085.058-.186.089-.271s-.172-.255-.279-.286-.142.379-.188.5a13.284,13.284,0,0,0-.34,1.537Z" transform="translate(-1325.871 -1291.471)" fill="#f48c7f"/>
        <path id="Path_13859" data-name="Path 13859" d="M1221.73,1342.38c-.3-.323-.729-.5-1.046-.839l-4.778,3.29s-3.694-4.369-5.7-2.821a33.307,33.307,0,0,0,2.481,3.57c1.227,1.519,3.1,2.244,3.466,2.076C1216.57,1347.47,1221.62,1342.51,1221.73,1342.38Z" transform="translate(-1200.651 -1317.569)" fill="#ffc359"/>
        <path id="Path_13860" data-name="Path 13860" d="M1085,1173.79c.158.421.431,1.084.431,1.084.008.19.047.981.1,1.951l1.344-.736a15.364,15.364,0,0,1-.155-1.668c.044-.088.145,0,.5-.669a1.218,1.218,0,0,0,.088-.517s-.022-.4-.115-.422a.185.185,0,0,0-.211.117c-.024.072,0,.229-.02.3a.493.493,0,0,1-.3.185,5.3,5.3,0,0,1-.13-1.165s.008-.335.02-.445c.01-.094.061-.373.061-.373s.051-.4-.074-.417c-.073-.009-.217.33-.3.682a6.869,6.869,0,0,1-.159.772c-.092,0-.121-.643-.121-.643a2.052,2.052,0,0,0,.036-.439c.065-.179.083-.5-.069-.506a2.615,2.615,0,0,0-.177.419s-.044.289-.073.425a7.541,7.541,0,0,0-.042.77c-.018.138-.056.087-.07.094a3.38,3.38,0,0,1-.022-.436,2.578,2.578,0,0,1-.019-.423,3.11,3.11,0,0,0,.007-.45c-.016-.332-.219-.273-.254.036-.013.118-.027.246-.04.376-.052.506.009.981-.044.991a3.6,3.6,0,0,1-.128-.857s-.164-.466-.215-.009a3.9,3.9,0,0,0,.008.967A3.766,3.766,0,0,0,1085,1173.79Z" transform="translate(-1084.82 -1159.913)" fill="#f8a492"/>
        <path id="Path_13861" data-name="Path 13861" d="M1170.78,1259.18a.779.779,0,0,0-1.278.321.579.579,0,0,0-.735.287s-.834-.145-.884,1.083c0,0-.424-.028-.419.471a1.228,1.228,0,0,0,.3.8.6.6,0,0,0-.051.643.564.564,0,0,0,.462.394s.164.638.469.8a.923.923,0,0,0,.677.021.437.437,0,0,0,.469.268c.324-.071.693-.433,1.078-.337a3.953,3.953,0,0,0,1.32-.168,1.342,1.342,0,0,0,.56-1.662.806.806,0,0,0-.065-1.126,1.4,1.4,0,0,0-.535-1.474,1.867,1.867,0,0,0-1.363-.321Z" transform="translate(-1161.164 -1241.275)" fill="#013d5d"/>
        <path id="Path_13862" data-name="Path 13862" d="M1194.37,1342.09l-1.65-.849s-1.466.214-1.648.236-.524,6.852-.553,9.41.284,2.973.284,2.973a16.26,16.26,0,0,0,4.091-.119,13.288,13.288,0,0,0,3.666-1.584s-2.115-4.654-2.6-6.128S1194.37,1342.09,1194.37,1342.09Z" transform="translate(-1182.461 -1317.289)" fill="#ff61a4"/>
        <path id="Path_13863" data-name="Path 13863" d="M1095.53,1232.74l-5.42-4.332s-1.235-4.568-1.3-4.737-1.277-.114-1.766-.1a32.8,32.8,0,0,0,1.012,5.746c.392.951,4.581,4.99,4.581,4.99a15.011,15.011,0,0,1,1.005,4.147c.1,2.989-.116,7.141.026,7.254.844.4,3.86.088,4.013-.242C1099.37,1241.82,1095.53,1232.74,1095.53,1232.74Z" transform="translate(-1086.85 -1208.568)" fill="#ffc359"/>
        <path id="Path_13864" data-name="Path 13864" d="M1198.1,1313.24l.247.95s.46,1.356.117,1.67-1.8-1.506-1.8-1.506l-.167-2.463Z" transform="translate(-1187.985 -1290.181)" fill="#f7a491"/>
        <path id="Path_13865" data-name="Path 13865" d="M1196.55,1312.69a2.8,2.8,0,0,0,1.759,1.357l-.209-.805-1.6-1.349Z" transform="translate(-1187.985 -1290.181)" fill="#f47458"/>
        <path id="Path_13866" data-name="Path 13866" d="M1167.57,1284.34c.045.373.294.649.555.618s.437-.359.392-.732-.294-.649-.555-.618S1167.53,1283.96,1167.57,1284.34Z" transform="translate(-1161.259 -1264.047)" fill="#013d5d"/>
        <path id="Path_13867" data-name="Path 13867" d="M1183.97,1266.33c.026.214.3.357.623.318s.555-.243.529-.458-.3-.357-.623-.318S1183.94,1266.12,1183.97,1266.33Z" transform="translate(-1176.408 -1247.663)" fill="#013d5d"/>
        <path id="Path_13868" data-name="Path 13868" d="M1191.28,1275.22a1.3,1.3,0,0,1,1.813.824,9.806,9.806,0,0,1,.255,1.226c.157,1.126-.294,2.294-.806,2.356a2.434,2.434,0,0,1-2.261-2.092A2.151,2.151,0,0,1,1191.28,1275.22Z" transform="translate(-1182.216 -1256.183)" fill="#f7a491"/>
        <path id="Path_13869" data-name="Path 13869" d="M1186.85,1303.27a.379.379,0,1,1-.423-.406.419.419,0,0,1,.423.406Z" transform="translate(-1178.389 -1281.832)" fill="#f7a491"/>
        <path id="Path_13870" data-name="Path 13870" d="M1212.48,1262.95c.58.355.842.97.586,1.372a1.119,1.119,0,0,1-1.513.086c-.58-.355-.842-.97-.586-1.372a1.119,1.119,0,0,1,1.513-.086Z" transform="translate(-1201.263 -1244.745)" fill="#013d5d"/>
        <path id="Path_13871" data-name="Path 13871" d="M1202.48,1269.26c.022.182-.18.356-.451.389s-.509-.088-.531-.27.18-.356.451-.389S1202.46,1269.08,1202.48,1269.26Z" transform="translate(-1192.605 -1250.543)" fill="#013d5d"/>
        <path id="Path_13872" data-name="Path 13872" d="M1225.61,1284.11a.422.422,0,1,1-.471-.373.422.422,0,0,1,.471.373Z" transform="translate(-1214.102 -1264.168)" fill="#013d5d"/>
        <path id="Path_13873" data-name="Path 13873" d="M1223.7,1343.86s2.291,5.415,3.106,7.324c.088.207.531,1.556.548,1.691.036.3-1.219.836-1.377.832-.141,0-1.985-5.722-3.057-8.5a8.255,8.255,0,0,0-1.571-2.557l-.521-.43-.05-.161S1223.11,1342.27,1223.7,1343.86Z" transform="translate(-1210.42 -1318.05)" fill="#ffc359"/>
        <rect id="Rectangle_29" data-name="Rectangle 29" width="0.424" height="38.044" transform="matrix(0.969, -0.245, 0.245, 0.969, 15.007, 0.104)" fill="#3190c1"/>
        <g id="Group_14972" data-name="Group 14972" transform="translate(20.688 22.229)">
          <path id="Path_13874" data-name="Path 13874" d="M1357.7,1319.83a1.3,1.3,0,0,0-.075-.248.705.705,0,0,0-.142-.228.432.432,0,0,1-.072-.15.268.268,0,0,0-.032-.06h0a.6.6,0,0,0-.141-.136.629.629,0,0,1-.152-.165.455.455,0,0,0-.171-.15c-.068-.033-.12-.034-.144.008-.113.193-.676.811-.448,1.11a7.149,7.149,0,0,1,.491.628c.07.162.318.151.466.094a.564.564,0,0,0,.42-.7Z" transform="translate(-1356.264 -1318.666)" fill="#f7a491"/>
        </g>
      </g>
      <rect id="Rectangle_30" data-name="Rectangle 30" width="120" height="0.426" transform="translate(218.494 1138.574)" fill="#db9540"/>
      <g id="Group_14974" data-name="Group 14974" transform="translate(290.687 1039.088)">
        <path id="Path_13875" data-name="Path 13875" d="M1260.58,1231.42a.087.087,0,0,1,.136-.021c.059.062.12.122.18.183.133.135.134.144.154.141.047-.007.049-.093.047-.125a1.045,1.045,0,0,1-.019-.21.154.154,0,0,1,.259-.116c.1.085.2.176.3.268.008-.151.012-.3.022-.452a.06.06,0,0,1,.1-.044l.458.358c.023.018.122.116.151.1s.024-.121.026-.145c.014-.129.021-.175.077-.594a.07.07,0,0,1,.116-.034c.322.386.371.345.4.461a.033.033,0,0,1-.039.041c-.062-.006-.076-.012-.237-.168q-.062-.06-.122-.124c-.058.51-.061.641-.188.679-.089.027-.1,0-.622-.409,0,.159-.01.316-.017.475a.068.068,0,0,1-.041.061.068.068,0,0,1-.073-.011c-.371-.306-.369-.329-.409-.347,0,0,0-.028-.007.012-.011.067.053.212.006.333a.205.205,0,0,1-.272.133c-.066-.032-.084-.065-.282-.256a1.785,1.785,0,0,1-.225.352.274.274,0,0,1-.133.1.073.073,0,0,1-.091-.086C1260.29,1231.83,1260.42,1231.8,1260.58,1231.42Z" transform="translate(-1253.009 -1227.271)" fill="#ff9ac5"/>
        <path id="Path_13876" data-name="Path 13876" d="M1236.66,1199.25a2.4,2.4,0,0,0,.422.036c.028,0,.08.006.1-.022.044-.067-.07-.171-.121-.433-.022-.114-.078-.347.075-.393a.855.855,0,0,1,.257,0h.184c-.109-.426-.135-.4-.091-.5a.054.054,0,0,1,.073-.021c.086.057.061.045.2.581a.084.084,0,0,1-.077.106c-.083,0-.458-.032-.5-.028v.029a1.376,1.376,0,0,0,.125.489c.051.133.048.311-.121.349a1.665,1.665,0,0,1-.424-.01c.076.26.154.519.229.779a.092.092,0,0,1-.085.117c-.168-.015-.335-.024-.5-.032a1.556,1.556,0,0,0,.207.43c.067.1-.07.216-.221-.041a1.5,1.5,0,0,1-.193-.46.093.093,0,0,1,.085-.118c.166,0,.333.014.5.028-.073-.26-.143-.52-.216-.78a.085.085,0,0,1,.092-.106Z" transform="translate(-1230.788 -1196.97)" fill="#ffc359"/>
        <path id="Path_13877" data-name="Path 13877" d="M1189.85,1186.43a.085.085,0,0,1-.085-.08,1.98,1.98,0,0,1,0-.682c.024-.119.2-.074.181.042a2.413,2.413,0,0,0-.025.555,1.856,1.856,0,0,0,.4-.051.088.088,0,0,1,.112.081c-.009.147-.059.7-.065.707a.027.027,0,0,1,.015,0c.058.012.257-.03.347-.024s.134.144.139.227c.01.168-.115.354-.056.518s.306-.016.492.113c.143.1.094.268.035.533a.2.2,0,0,1-.094.161.044.044,0,0,1-.052-.006c-.071-.081-.034-.177.013-.419.006-.031.026-.083,0-.111-.072-.093-.282.039-.453-.072a.388.388,0,0,1-.13-.4c.017-.112.086-.251.05-.365-.1.005-.194.013-.29.01a.166.166,0,0,1-.182-.166,2.948,2.948,0,0,1,.024-.361c.006-.08.012-.159.019-.239a2.082,2.082,0,0,1-.4.029Z" transform="translate(-1187.878 -1185.597)" fill="#ff9ac5"/>
        <path id="Path_13878" data-name="Path 13878" d="M1272.54,1269.04c.4.514.024.764-.145.615a.141.141,0,0,1,.009-.229.058.058,0,0,1,.085.062c-.015.048.031.049.049.008s-.015-.125-.039-.174c-.057-.115-.13-.264-.271-.286-.211-.033-.439.177-.323.5a.569.569,0,0,0,1.055-.027.692.692,0,0,0-.246-.72c-.042-.033.009-.089.052-.07a.69.69,0,0,1,.317.866.7.7,0,0,1-.789.418.667.667,0,0,1-.576-.717.459.459,0,0,1,.822-.246Z" transform="translate(-1263.605 -1262.381)" fill="#eefbff"/>
        <path id="Path_13879" data-name="Path 13879" d="M1166.02,1214.92c.056.084.087.255-.026.308a.093.093,0,0,1-.135-.052c-.018-.06.015-.114-.039-.161a.125.125,0,0,0-.157.017.407.407,0,0,0-.029.473.315.315,0,0,0,.551.032.716.716,0,0,0,.078-.229c.011-.043.081-.063.1-.016a.424.424,0,0,1-.188.5.5.5,0,0,1-.545-.008.652.652,0,0,1-.254-.559C1165.4,1214.79,1165.84,1214.65,1166.02,1214.92Z" transform="translate(-1165.38 -1212.556)" fill="#ffc359"/>
      </g>
      <path id="Path_13880" data-name="Path 13880" d="M906.533,2001.31a.419.419,0,0,0,.569.123c.461-.229.277-.575.277-.575Z" transform="translate(-635.582 -899.356)" fill="#fff"/>
      <path id="Path_13881" data-name="Path 13881" d="M1212.53,1317.51a.419.419,0,0,0,.46.357c.514-.007.5-.4.5-.4Z" transform="translate(-918.251 -268.248)" fill="#fff"/>
    </g>
  </g>
</svg>
