<svg xmlns="http://www.w3.org/2000/svg" width="112.5" height="23" viewBox="0 0 112.5 23">
  <g id="Larsen__and_amp__Toubro__L_and_amp_T__00000002358622173985076240000011864372443158129545_" transform="translate(-336.2 -175)">
    <path id="Path_3102_00000018918288892992326410000008463703221491149474_" d="M347.7,176.5a10,10,0,0,1,.1,20l4.6-8.3h3.1l1.7-3.1h-7.9l-1.7,3.1h3l-4.6,8.2a10.028,10.028,0,0,1-1.3-19.5l-4.5,8.2h0l-1.7,3.1h7.9l1.7-3.1H342l4.7-8.6Zm0-1.5a11.5,11.5,0,1,1-11.5,11.5h0A11.566,11.566,0,0,1,347.7,175Z" fill="#606161" fill-rule="evenodd"/>
    <path id="Path_3103_00000003076338726548636070000010822710101060945040_" d="M364.1,189.6h4.3l.3-1.1h-2.8l1.1-5h-1.5Zm9.2-1.6.2,1.6h1.6l-.8-6.1h-2l-3.5,6.1h1.6l.9-1.6Zm-1.6-1,.7-1.3.6-1.2h0c0,.4.1.9.1,1.2l.1,1.3Zm4,2.6h1.5l.5-2.4h.5c.6,0,.9.2,1,1a5.9,5.9,0,0,0,.2,1.4H381c-.1-.3-.2-1.1-.3-1.7s-.3-1-.7-1.1h0c.9-.3,1.6-.8,1.6-1.7a1.206,1.206,0,0,0-.8-1.2,3.807,3.807,0,0,0-1.9-.4,6.154,6.154,0,0,0-1.9.2Zm2.6-5.1c.2,0,.4-.1.6,0,.6,0,1.1.2,1.1.7,0,.6-.6,1-1.4,1H378l.3-1.7Zm3.2,4.7a4.478,4.478,0,0,0,2.1.4c1.6,0,2.9-.7,2.9-2.1,0-.7-.6-1.2-1.4-1.6-.6-.3-1-.5-1-.9,0-.3.4-.6,1.1-.6a2.768,2.768,0,0,1,1.3.3l.5-1.1a3.168,3.168,0,0,0-1.7-.3c-1.6,0-2.8.8-2.8,2,0,.8.7,1.3,1.5,1.6.7.3,1,.5,1,.9,0,.5-.5.7-1.1.7a3.287,3.287,0,0,1-1.7-.4Zm10.4-3.3h-2.6l.3-1.3h2.7l.3-1.1h-4.3l-1.4,6.1h4.4l.2-1.1h-2.9l.3-1.5h2.6l.4-1.1Zm1.8,3.7.5-2.2c.2-1,.4-1.8.5-2.4h0a17.233,17.233,0,0,0,.7,2.1l1,2.5H398l1.4-6.1H398l-.5,2.2a8.329,8.329,0,0,0-.3,2.2h0a17.233,17.233,0,0,0-.7-2.1l-1-2.3h-1.8l-1.4,6.1Zm13.8,0a9.956,9.956,0,0,1-1-1.1,5.863,5.863,0,0,0,1.7-2.4h-1.4a5.373,5.373,0,0,1-1,1.6,12.7,12.7,0,0,1-1-1.2h0c1.2-.5,1.8-1,1.8-1.7,0-.8-.7-1.4-1.8-1.4a2.074,2.074,0,0,0-2.3,1.8,1.777,1.777,0,0,0,.4,1h0c-.9.4-1.7,1-1.7,1.9,0,1,.9,1.6,2.2,1.6a4.136,4.136,0,0,0,1.9-.5c.1.1.2.3.4.4Zm-3.7-.9c-.7,0-1.1-.4-1.1-.9a1.265,1.265,0,0,1,.7-1,10.018,10.018,0,0,0,1.3,1.5,1.221,1.221,0,0,1-.9.4Zm.8-4.5c.4,0,.6.2.6.5,0,.5-.5.8-1,1a1.135,1.135,0,0,1-.3-.8c-.1-.3.2-.7.7-.7Zm6.8,5.4h1.5l1.1-5h1.9l.3-1.1h-5.3l-.3,1.1h1.9l-1.1,5Zm8.2-6.3a4.109,4.109,0,0,0-2.6.9,3.935,3.935,0,0,0-1.3,2.9,2.609,2.609,0,0,0,2.9,2.6,4.388,4.388,0,0,0,2.7-.9,3.935,3.935,0,0,0,1.3-2.9,2.7,2.7,0,0,0-3-2.6Zm-.2,1.1a1.364,1.364,0,0,1,1.5,1.5,3.1,3.1,0,0,1-.9,2.2,1.746,1.746,0,0,1-1.2.4,1.368,1.368,0,0,1-1.5-1.5,3.1,3.1,0,0,1,.9-2.2A2.145,2.145,0,0,1,419.4,184.4Zm4.6-1-.8,3.4a2.768,2.768,0,0,0-.1.9c0,1.3.9,2,2.4,2,2,0,2.9-.9,3.3-2.8l.8-3.5h-1.5l-.8,3.5c-.3,1.1-.8,1.6-1.6,1.6a.871.871,0,0,1-1-.9,1.7,1.7,0,0,1,.1-.7l.8-3.5Zm5.4,6.1a10.868,10.868,0,0,0,1.8.1,6.164,6.164,0,0,0,2.7-.5,1.638,1.638,0,0,0,1-1.5,1.221,1.221,0,0,0-1.1-1.3h0c.8-.2,1.5-.7,1.5-1.5a1.327,1.327,0,0,0-.8-1.1,4.5,4.5,0,0,0-1.8-.3,12.1,12.1,0,0,0-1.9.1Zm2.7-5c.2,0,.4-.1.6,0,.6,0,1,.2,1,.6,0,.5-.6.8-1.4.8h-.5l.3-1.4Zm-.6,2.3h.5c.7,0,1.3.2,1.3.8,0,.7-.8,1-1.6,1h-.6l.4-1.8Zm4,2.8H437l.5-2.4h.5c.6,0,.9.2,1,1a5.9,5.9,0,0,0,.2,1.4h1.6c-.1-.3-.2-1.1-.3-1.7s-.3-1-.7-1.1h0c.9-.3,1.6-.8,1.6-1.7a1.206,1.206,0,0,0-.8-1.2,3.807,3.807,0,0,0-1.9-.4,6.154,6.154,0,0,0-1.9.2Zm2.6-5.1c.2,0,.4-.1.6,0,.6,0,1.1.2,1.1.7,0,.6-.6,1-1.4,1h-.6l.3-1.7Zm7.6-1.2a4.109,4.109,0,0,0-2.6.9,3.935,3.935,0,0,0-1.3,2.9,2.609,2.609,0,0,0,2.9,2.6,4.388,4.388,0,0,0,2.7-.9,3.935,3.935,0,0,0,1.3-2.9c0-1.5-1.1-2.6-3-2.6Zm-.1,1.1a1.364,1.364,0,0,1,1.5,1.5,3.1,3.1,0,0,1-.9,2.2,1.746,1.746,0,0,1-1.2.4,1.368,1.368,0,0,1-1.5-1.5,3.1,3.1,0,0,1,.9-2.2A2.145,2.145,0,0,1,445.6,184.4Z" fill="#606161"/>
  </g>
</svg>
