<svg xmlns="http://www.w3.org/2000/svg" width="40" height="40" viewBox="0 0 40 40">
  <g id="Group_16214" data-name="Group 16214" transform="translate(-3 -5)">
    <path id="Path_16101" data-name="Path 16101" d="M20,0A20,20,0,1,1,0,20,20,20,0,0,1,20,0Z" transform="translate(3 5)" fill="#ffb74d"/>
    <g id="Group_16906" data-name="Group 16906" transform="translate(11 13)">
      <rect id="Rectangle_3425" data-name="Rectangle 3425" width="2.35" height="3.797" transform="translate(7.325 4.346)" fill="#ffd9aa"/>
      <path id="Path_16731" data-name="Path 16731" d="M13.51,4.1a2.757,2.757,0,1,1-.25-1.13v.01a2.626,2.626,0,0,1,.25,1.12Z" transform="translate(-2.113)" fill="#ffd9aa"/>
      <path id="Path_16732" data-name="Path 16732" d="M13.26,2.97v.01l-3.67.73V5.28H8.29a2.74,2.74,0,1,1,4.97-2.31Z" transform="translate(-2.098)" fill="#57565c"/>
      <path id="Path_16733" data-name="Path 16733" d="M10.443,17.73l1.5,1.645-.666,5.342a.482.482,0,0,0-.008.1.819.819,0,0,0,1.614.2l1.285-5.068A1.6,1.6,0,0,0,14.109,19l-1.386-3.541H8.806Z" transform="translate(-2.318 -4.959)" fill="#416fb3"/>
      <path id="Path_16734" data-name="Path 16734" d="M7.377,25.641h0a.8.8,0,0,1-.791-.912l1.436-9.271h3.133l-3,9.552a.8.8,0,0,1-.778.631Z" transform="translate(-1.679 -4.96)" fill="#416fb3"/>
      <path id="Path_16735" data-name="Path 16735" d="M17.42,11.93a1.174,1.174,0,0,1-1.17,1.18H14.29l-1.57-1.18v3.53H8.02V9.98A1.566,1.566,0,0,1,9.59,8.41h1.8a1.451,1.451,0,0,1,.55.1,1.816,1.816,0,0,1,.43.24l2.51,2.01h1.37a1.165,1.165,0,0,1,1.17,1.17Z" transform="translate(-2.484 -2.359)" fill="#fbde53"/>
      <path id="Path_16736" data-name="Path 16736" d="M17.42,11.93a1.174,1.174,0,0,1-1.17,1.18H15.5V10.76h.75a1.165,1.165,0,0,1,1.17,1.17Z" transform="translate(-3.607 -2.54)" fill="#ffd9aa"/>
      <path id="Path_16737" data-name="Path 16737" d="M18.306,20v2.813H12.113v2.812H4.371v2.219H.5V31.5h24V20Z" transform="translate(0 -7)" fill="#d9d8da"/>
      <path id="Path_16738" data-name="Path 16738" d="M27.5,4.5l4-2-4-2Z" transform="translate(-7)" fill="#ed456a"/>
      <path id="Path_16739" data-name="Path 16739" d="M24.609,15.234H21.875V3.757L24.784,2.3c.006,0,.009-.009.016-.012l.033-.026a.379.379,0,0,0,.106-.116c.005-.009.016-.013.02-.022s0-.018.007-.027a.38.38,0,0,0,.021-.078A.382.382,0,0,0,25,1.952a.382.382,0,0,0-.009-.071.38.38,0,0,0-.021-.078.038.038,0,0,0-.007-.027.373.373,0,0,0-.028-.036.326.326,0,0,0-.112-.112.357.357,0,0,0-.035-.027L21.659.038h-.012A.385.385,0,0,0,21.57.016.4.4,0,0,0,21.5,0h-.014a.37.37,0,0,0-.066.013.391.391,0,0,0-.069.014.375.375,0,0,0-.073.041A.375.375,0,0,0,21.223.1a.385.385,0,0,0-.051.069.365.365,0,0,0-.034.042V.227a.391.391,0,0,0-.02.078A.391.391,0,0,0,21.1.384l-.009.007V15.234H18.359a.391.391,0,0,0-.391.391v1.807H12.109a.391.391,0,0,0-.391.391V19.63H10.444l1-3.945a1.636,1.636,0,0,0-.057-.984L10.33,12V10.1l.6.449a.391.391,0,0,0,.234.078h1.53a1.309,1.309,0,1,0,0-2.617H11.76L9.906,6.53A1.6,1.6,0,0,0,9.719,6.4V5.36a2.5,2.5,0,0,0,.973-3.236c0-.006-.006-.013-.011-.02A2.524,2.524,0,1,0,6.122,4.272v.006A2.537,2.537,0,0,0,7.1,5.36v.872A1.613,1.613,0,0,0,5.877,7.795v4.252L4.759,19.266a1.016,1.016,0,0,0,.02.364H4.3a.391.391,0,0,0-.391.391v1.343H.391A.391.391,0,0,0,0,21.754v2.855A.391.391,0,0,0,.391,25H24.609A.391.391,0,0,0,25,24.609V15.625A.391.391,0,0,0,24.609,15.234ZM21.875,1.023l1.861.93-1.861.93ZM12.5,8.8h.193a.527.527,0,0,1,0,1.055H12.5Zm-1.842,6.188a.845.845,0,0,1,.029.509l-1,3.96a.252.252,0,0,1-.488-.092l.52-4.173a.391.391,0,0,0-.1-.312L8.6,13.755l.4-1.287h.671Zm-2.2,4.645h-1.7l1.573-5.011.591.648-.494,3.967a.729.729,0,0,0-.014.156A.992.992,0,0,0,8.459,19.629ZM10.161,3.2a1.743,1.743,0,0,1-2.9,1.309h.234a.391.391,0,0,0,.391-.391v-.9l2.22-.44a1.73,1.73,0,0,1,.058.425ZM8.937,5.679v.5H7.882v-.5a2.466,2.466,0,0,0,1.055,0ZM6.749,3.731A1.725,1.725,0,0,1,6.658,3.2,1.744,1.744,0,0,1,9.722,2.056l-2.307.457A.391.391,0,0,0,7.1,2.9V3.73Zm-.09,4.062a.834.834,0,0,1,.832-.834H8.9a.835.835,0,0,1,.52.183l1.96,1.568a.391.391,0,0,0,.245.085h.1V9.85h-.425L8.95,8.092a.391.391,0,1,0-.469.625l1.087.814a.377.377,0,0,0-.02.1v2.057H6.658ZM6.6,12.468h1.58L5.991,19.453c-.043.2-.348.17-.4.105a.234.234,0,0,1-.055-.182ZM24.219,24.219H.781V22.144H4.3a.391.391,0,0,0,.391-.391V20.41h.955a1,1,0,0,0,.12.013c.026,0,.049-.011.078-.013H9.384c.023,0,.041.013.064.013s.05-.011.078-.013h2.584a.391.391,0,0,0,.391-.391V18.213h5.859a.391.391,0,0,0,.391-.391V16.016h5.469Z" transform="translate(0)"/>
    </g>
  </g>
</svg>
