<svg xmlns="http://www.w3.org/2000/svg" xmlns:xlink="http://www.w3.org/1999/xlink" width="339.347" height="190.371" viewBox="0 0 339.347 190.371">
  <defs>
    <clipPath id="clip-path">
      <rect id="Rectangle_3424" data-name="Rectangle 3424" width="294.461" height="132.43" fill="none"/>
    </clipPath>
    <clipPath id="clip-path-3">
      <rect id="Rectangle_3416" data-name="Rectangle 3416" width="42.795" height="69.102" fill="none"/>
    </clipPath>
    <clipPath id="clip-path-4">
      <rect id="Rectangle_3417" data-name="Rectangle 3417" width="61.815" height="32.694" fill="none"/>
    </clipPath>
    <clipPath id="clip-path-5">
      <rect id="Rectangle_3419" data-name="Rectangle 3419" width="1.941" height="3.086" fill="none"/>
    </clipPath>
    <clipPath id="clip-path-6">
      <rect id="Rectangle_3420" data-name="Rectangle 3420" width="1.754" height="3.112" fill="none"/>
    </clipPath>
    <clipPath id="clip-path-7">
      <rect id="Rectangle_3421" data-name="Rectangle 3421" width="1.388" height="1.595" fill="none"/>
    </clipPath>
  </defs>
  <g id="Group_16874" data-name="Group 16874" transform="translate(-1021.653 -577.093)">
    <g id="Group_16852" data-name="Group 16852" transform="translate(1031 546.323)">
      <g id="Group_16872" data-name="Group 16872">
        <g id="Group_16850" data-name="Group 16850" transform="translate(0 0)">
          <g id="Group_16873" data-name="Group 16873">
            <path id="Path_16468" data-name="Path 16468" d="M324.646,190.356c-21.776,0-298.965.028-298.965,0-.121-.227-62.157-23.845,7.781-91.529,23.624-22.862-7.516-40.231,16.067-59.6,27.1-22.26,41.209-3.879,71.346-13.973A50.018,50.018,0,0,0,136.892,16.2c12.489-10.266,29.586-14.923,47-15.972,33.674-2.016,71.569,9.324,91.126,25.9,3.937,3.338,21.841,20.606,7.728,44.342-8.911,14.986,28.419,29.3,41.684,46.412,33.725,43.509.525,72.907.219,73.474" transform="translate(-9.541 30.773)" fill="#ebf3fa"/>
            <g id="Group_16871" data-name="Group 16871" transform="translate(8.54 81.051)">
              <g id="Group_16870" data-name="Group 16870" clip-path="url(#clip-path)">
                <g id="Group_16869" data-name="Group 16869">
                  <g id="Group_16868" data-name="Group 16868" clip-path="url(#clip-path)">
                    <path id="Path_16486" data-name="Path 16486" d="M385.554,740.525c0,9.272-59.028,16.788-131.842,16.788S121.87,749.8,121.87,740.525s59.028-16.788,131.842-16.788,131.842,7.516,131.842,16.788" transform="translate(-105.774 -624.883)" fill="#b8d5dc"/>
                    <g id="Group_16855" data-name="Group 16855" transform="translate(221.781 20.852)" opacity="0.6">
                      <g id="Group_16854" data-name="Group 16854">
                        <g id="Group_16853" data-name="Group 16853" clip-path="url(#clip-path-3)">
                          <path id="Path_16487" data-name="Path 16487" d="M1679.236,221.111s19.556-74.533,38.092-68.045-23.356,46.81-28.412,68.7Z" transform="translate(-1679.236 -152.665)" fill="#acc9c5"/>
                        </g>
                      </g>
                    </g>
                    <path id="Path_16488" data-name="Path 16488" d="M1756.591,225.679s33.413-62.4,51.887-51.768-32.684,36.344-41.772,54.848Z" transform="translate(-1524.594 -149.104)" fill="#ccd39c"/>
                    <path id="Path_16489" data-name="Path 16489" d="M1796.189,283.5c6.061-12.9,16.7-24.563,24.566-32.073a162.688,162.688,0,0,1,15.77-13.342l-.3-.482A163.279,163.279,0,0,0,1820.4,251c-7.9,7.543-18.589,19.261-24.688,32.245Z" transform="translate(-1558.548 -205.152)" fill="#c2c68e"/>
                    <path id="Path_16490" data-name="Path 16490" d="M1741.387,464.831c-8.021,2.479-5.859,15.678-15.282,13.87-7.97-1.534-8.677-2.268-11.243.363a13.771,13.771,0,0,0-2.233,3.078,7.758,7.758,0,0,1-4.538,4c-14.383,3.789-35.692-18.026-21.292-31.9a9.4,9.4,0,0,1,4.362-1.9c9.484-2.294,12.76,2.242,19.566-10.484s18.119,4.024,24.508,2.953,11.925-3.554,17.381,3.441-3.206,14.106-11.228,16.578" transform="translate(-1459.862 -377.364)" fill="#acc9c5"/>
                    <g id="Group_16858" data-name="Group 16858" transform="translate(232.267 60.75)" opacity="0.5">
                      <g id="Group_16857" data-name="Group 16857">
                        <g id="Group_16856" data-name="Group 16856" clip-path="url(#clip-path-4)">
                          <path id="Path_16491" data-name="Path 16491" d="M1758.962,554.229l-.335-.469c.191-.16,19.635-16.024,61.767-20.08l.049.59c-41.974,4.041-61.29,19.8-61.481,19.959" transform="translate(-1758.627 -521.535)" fill="#68a1bf"/>
                          <path id="Path_16492" data-name="Path 16492" d="M1904.63,481.124c-5.895-5.013-7.135-9.236-7.185-9.413l.525-.173c.012.042,1.256,4.236,7,9.12Z" transform="translate(-1879.111 -467.882)" fill="#68a1bf"/>
                          <path id="Path_16493" data-name="Path 16493" d="M1952.906,464.316c-1.745-2.864-1.857-7.162-.326-12.428a41.192,41.192,0,0,1,2.845-7.123l.474.3c-.066.123-6.546,12.343-2.534,18.929Z" transform="translate(-1926.035 -444.765)" fill="#68a1bf"/>
                          <path id="Path_16494" data-name="Path 16494" d="M2038.486,565.938c-.7-.551-1.081-.915-1.1-.932l.366-.441c.08.077,8.126,7.724,19.244,6.572l.052.589c-8.959.928-15.962-3.734-18.565-5.789" transform="translate(-2000.572 -548.202)" fill="#68a1bf"/>
                          <path id="Path_16495" data-name="Path 16495" d="M2066.786,598.132a14.385,14.385,0,0,1-3.924-7.906,11.152,11.152,0,0,1,.043-3.755l.532.144a13.019,13.019,0,0,0,3.733,11.094Z" transform="translate(-2022.568 -567.116)" fill="#68a1bf"/>
                        </g>
                      </g>
                    </g>
                    <path id="Path_16496" data-name="Path 16496" d="M2040.344,71.783c1.361-2.31,2.574-2.443,3.571-1.759s1.4,1.926.04,4.236c-2.479,4.209-5.482,5-5.482,5s-.643-3.211,1.871-7.482" transform="translate(-1769.182 -60.147)" fill="#acc9c5"/>
                    <path id="Path_16497" data-name="Path 16497" d="M2053.576,408.993c2.657-.492,3.593.273,3.771,1.4s-.467,2.182-3.124,2.675c-4.841.9-7.5-.706-7.5-.706s1.946-2.456,6.857-3.366" transform="translate(-1776.404 -352.998)" fill="#acc9c5"/>
                    <path id="Path_16498" data-name="Path 16498" d="M305.752,90.637c-1.179,1.613-2,1.688-2.59,1.189s-.709-1.383.469-3c2.147-2.937,4.245-3.454,4.245-3.454a9.479,9.479,0,0,1-2.125,5.26" transform="translate(-262.746 -73.715)" fill="#acc9c5"/>
                    <path id="Path_16499" data-name="Path 16499" d="M230.325,215.082l-.346.109a55.406,55.406,0,0,0-6.327-13.31,71.994,71.994,0,0,0-25.523-24.152l.167-.344a72.36,72.36,0,0,1,25.663,24.293,55.781,55.781,0,0,1,6.367,13.4" transform="translate(-171.962 -153.155)" fill="#acc9c5"/>
                    <path id="Path_16500" data-name="Path 16500" d="M262.593,89.491l-.353-.076c2.57-13.844-6.25-25.626-6.339-25.743l.278-.247c.09.119,9.018,12.039,6.414,26.067" transform="translate(-222.103 -54.761)" fill="#acc9c5"/>
                    <path id="Path_16501" data-name="Path 16501" d="M208.294,219.591a11.863,11.863,0,0,1-6.687.668l.079-.379a11.3,11.3,0,0,0,7.966-1.432l.183.335a10.272,10.272,0,0,1-1.541.808" transform="translate(-174.98 -188.611)" fill="#acc9c5"/>
                    <path id="Path_16502" data-name="Path 16502" d="M145.15,157.224c2.4.981,2.9,1.883,2.635,2.636s-1.192,1.072-3.592.09c-4.372-1.787-6.006-4.014-6.006-4.014s2.527-.525,6.963,1.288" transform="translate(-119.936 -134.576)" fill="#acc9c5"/>
                    <path id="Path_16503" data-name="Path 16503" d="M159.225,220.1c2.562.154,3.291.852,3.249,1.656s-.837,1.41-3.4,1.255c-4.668-.281-6.848-1.873-6.848-1.873s2.263-1.324,7-1.038" transform="translate(-132.121 -190.006)" fill="#acc9c5"/>
                    <path id="Path_16504" data-name="Path 16504" d="M235.967,150.294c1.078,1.693.9,2.566.285,3.022s-1.434.322-2.511-1.371a9.765,9.765,0,0,1-1.8-5.4s2.033.62,4.025,3.749" transform="translate(-201.306 -126.529)" fill="#acc9c5"/>
                    <path id="Path_16505" data-name="Path 16505" d="M226.064,16.9c1.464,2.275,1.4,3.324.79,3.783s-1.545.155-3.009-2.12C221.179,14.416,221,11.581,221,11.581s2.359,1.111,5.065,5.316" transform="translate(-191.811 -9.999)" fill="#acc9c5"/>
                    <path id="Path_16506" data-name="Path 16506" d="M279.985,354.321s-28.052-57.465-42.211-48.663,26.7,34.011,34.376,51.019Z" transform="translate(-203.803 -263.117)" fill="#acc9c5"/>
                    <path id="Path_16507" data-name="Path 16507" d="M117.83,399.713s-33.561-43.4-46.522-32.518,29.768,23.37,39.085,36.361Z" transform="translate(-59.784 -315.528)" fill="#92bcb5"/>
                    <path id="Path_16508" data-name="Path 16508" d="M166.262,444.677c-6.284-9.1-15.956-16.573-22.963-21.242a123.053,123.053,0,0,0-13.843-8.035l.169-.415a123.482,123.482,0,0,1,13.895,8.064c7.038,4.69,16.756,12.2,23.079,21.357Z" transform="translate(-112.358 -358.303)" fill="#68a1bf"/>
                    <path id="Path_16509" data-name="Path 16509" d="M15.764,529.064c8.682.627,9.161,14.6,18.4,10.521,7.94-3.508,8.4-4.4,11.692-2.19a13.208,13.208,0,0,1,2.728,2.482,7.766,7.766,0,0,0,5.46,3.026c15.434.456,32.725-26.835,15.222-37.572a9.539,9.539,0,0,0-4.833-.9c-10.136-.092-12.553,5.309-22.08-6.054s-17.655,8.4-24.387,8.817S5.085,506.4.946,514.822s6.137,13.622,14.818,14.242" transform="translate(0 -427.267)" fill="#ccd39c"/>
                    <path id="Path_16510" data-name="Path 16510" d="M67.172,654.178l.247-.557c-.227-.117-23.277-11.686-67.058-5.84l.07.613c43.617-5.824,66.514,5.667,66.741,5.784" transform="translate(-0.313 -557.878)" fill="#c2c68e"/>
                    <path id="Path_16511" data-name="Path 16511" d="M278.973,531.775c4.991-6.507,5.4-11.107,5.412-11.3l-.57-.052c0,.046-.419,4.616-5.283,10.957Z" transform="translate(-241.746 -449.34)" fill="#c2c68e"/>
                    <path id="Path_16512" data-name="Path 16512" d="M235.366,530.729c1.2-3.333.438-7.742-2.194-12.748a41.294,41.294,0,0,0-4.349-6.589l-.423.415c.092.109,9.184,11.034,6.433,18.7Z" transform="translate(-198.235 -441.542)" fill="#c2c68e"/>
                    <path id="Path_16513" data-name="Path 16513" d="M76.014,648.625c.6-.728.916-1.189.93-1.21l-.463-.363c-.066.1-6.714,9.8-18.284,11.26l.067.613c9.323-1.176,15.514-7.589,17.751-10.3" transform="translate(-50.51 -558.672)" fill="#c2c68e"/>
                    <path id="Path_16514" data-name="Path 16514" d="M161.747,687.663a15.455,15.455,0,0,0,2.394-8.99,11.483,11.483,0,0,0-.807-3.818l-.514.273c.025.055,2.471,5.632-1.55,12.195Z" transform="translate(-139.971 -582.678)" fill="#c2c68e"/>
                    <rect id="Rectangle_3418" data-name="Rectangle 3418" width="101.401" height="101.16" transform="translate(97.237 11.455)" fill="#9bc2eb"/>
                    <path id="Path_16515" data-name="Path 16515" d="M408.176,11.456,358.254,0l3.362,118.967,46.559-6.352Z" transform="translate(-310.939 0)" fill="#8fb3e3"/>
                    <path id="Path_16516" data-name="Path 16516" d="M1504.008,11.456,1553.93,0l-3.362,118.967-46.559-6.352Z" transform="translate(-1305.37 0)" fill="#8fb3e3"/>
                    <path id="Path_16517" data-name="Path 16517" d="M1208.224,690.4h-.03l-35.145-.62a1.814,1.814,0,0,1-1.733-1.761l-.713-10.977a1.979,1.979,0,0,1,.481-1.435,1.7,1.7,0,0,1,1.247-.589l35.858-.73a1.688,1.688,0,0,1,1.248.518,1.941,1.941,0,0,1,.552,1.374V688.5a1.942,1.942,0,0,1-.551,1.373,1.7,1.7,0,0,1-1.216.52m-.024-.361a1.363,1.363,0,0,0,.995-.416,1.578,1.578,0,0,0,.446-1.116V676.178a1.577,1.577,0,0,0-.448-1.117,1.355,1.355,0,0,0-.97-.415h-.027l-35.858.73a1.362,1.362,0,0,0-1,.472,1.61,1.61,0,0,0-.391,1.167l.713,10.977a1.463,1.463,0,0,0,1.391,1.424Z" transform="translate(-1015.995 -582.186)" fill="#daebe8"/>
                    <path id="Path_16518" data-name="Path 16518" d="M1214.289,732.355h-12.7a.88.88,0,0,1-.747-.611.7.7,0,0,1,.746-.786l12.7.3a.548.548,0,0,1,0,1.093" transform="translate(-1042.236 -631.118)" fill="#daebe8"/>
                    <path id="Path_16519" data-name="Path 16519" d="M1210.99,715.3H1201.4a.676.676,0,0,1-.564-.491.543.543,0,0,1,.563-.631l9.588.244a.443.443,0,0,1,0,.878" transform="translate(-1042.237 -616.632)" fill="#daebe8"/>
                    <path id="Path_16520" data-name="Path 16520" d="M1210.99,753.017H1201.4a.676.676,0,0,1-.564-.491.543.543,0,0,1,.563-.631l9.588.244a.443.443,0,0,1,0,.878" transform="translate(-1042.237 -649.195)" fill="#daebe8"/>
                    <path id="Path_16521" data-name="Path 16521" d="M1188.382,623.821h-12.7a.88.88,0,0,1-.747-.611.7.7,0,0,1,.746-.786l12.7.3a.548.548,0,0,1,0,1.093" transform="translate(-1019.751 -537.408)" fill="#daebe8"/>
                    <path id="Path_16522" data-name="Path 16522" d="M1185.083,644.482H1175.5a.676.676,0,0,1-.564-.491.543.543,0,0,1,.563-.631l9.588.244a.443.443,0,0,1,0,.878" transform="translate(-1019.751 -555.484)" fill="#daebe8"/>
                    <path id="Path_16523" data-name="Path 16523" d="M585.216,207.545l1.708-3.956a.835.835,0,0,1,1.416-.119l2.282,2.27c.52.518,1.257.412,1.448-.207l1.314-4.269a.777.777,0,0,1,1.207-.394l1.258.743a.8.8,0,0,0,1.064-.124l.2-.248c.539-.667,1.694-.009,1.694.965v8.653a.763.763,0,0,1-.939.808l-11.788-2.532a1.241,1.241,0,0,1-.864-1.59" transform="translate(-507.859 -173.31)" fill="#ef8062"/>
                    <path id="Path_16524" data-name="Path 16524" d="M447.306,158.218a1.679,1.679,0,0,1-.373-.043l-33.968-4.664c-2.439-.145-2.567-1.714-2.846-5.147l-.037-.45-.713-11.133a1.666,1.666,0,0,1,.492-1.352,1.429,1.429,0,0,1,1.272-.333l35.858,6.974a2.334,2.334,0,0,1,1.764,2.237v12.326a1.6,1.6,0,0,1-.549,1.266,1.393,1.393,0,0,1-.9.319m-36.489-22.793a1.051,1.051,0,0,0-.724.274,1.287,1.287,0,0,0-.376,1.059l.713,11.13.037.447c.277,3.414.381,4.692,2.525,4.817H413l33.99,4.667.008,0a1.115,1.115,0,0,0,.987-.2,1.243,1.243,0,0,0,.419-.985V144.307a1.989,1.989,0,0,0-1.48-1.883l-35.858-6.974a1.325,1.325,0,0,0-.252-.025" transform="translate(-355.299 -116.616)" fill="#daebe8"/>
                    <path id="Path_16525" data-name="Path 16525" d="M453.055,195.342l-12.7-2.728a1.178,1.178,0,0,1-.747-.772c-.076-.627.466-.686.746-.626l12.7,3.033a.692.692,0,0,1,.508.656.414.414,0,0,1-.508.437" transform="translate(-381.54 -165.083)" fill="#daebe8"/>
                    <path id="Path_16526" data-name="Path 16526" d="M449.756,177.366l-9.587-2.059a.9.9,0,0,1-.564-.612.434.434,0,0,1,.563-.51l9.588,2.3a.541.541,0,0,1,.384.521.324.324,0,0,1-.384.357" transform="translate(-381.541 -150.381)" fill="#daebe8"/>
                    <path id="Path_16527" data-name="Path 16527" d="M449.756,215.079l-9.587-2.059a.9.9,0,0,1-.564-.612.434.434,0,0,1,.563-.51l9.588,2.3a.541.541,0,0,1,.384.521.324.324,0,0,1-.384.357" transform="translate(-381.541 -182.943)" fill="#daebe8"/>
                    <path id="Path_16528" data-name="Path 16528" d="M427.148,81.427l-12.7-2.728a1.178,1.178,0,0,1-.747-.772c-.076-.627.466-.686.746-.625l12.7,3.032a.692.692,0,0,1,.508.656.414.414,0,0,1-.508.437" transform="translate(-359.055 -66.727)" fill="#daebe8"/>
                    <path id="Path_16529" data-name="Path 16529" d="M423.849,101.164,414.262,99.1a.9.9,0,0,1-.564-.612.434.434,0,0,1,.563-.51l9.588,2.3a.541.541,0,0,1,.384.521.324.324,0,0,1-.384.357" transform="translate(-359.055 -84.588)" fill="#daebe8"/>
                    <path id="Path_16530" data-name="Path 16530" d="M1114.494,218.551a20.6,20.6,0,0,1-3.086,11.025s0,0,0,0a21.233,21.233,0,0,1-5.518,5.894c-.133.1-.268.194-.4.287a24.626,24.626,0,0,1-14.052,4.323,26.307,26.307,0,0,1-4.634-.408c-10.079-1.793-18.346-9.413-18.346-20.722,0-9.868,4.731-19.328,13.461-23.608a23.866,23.866,0,0,1,9.519-2.36c8.426-.38,16.353,5.184,20.351,13.535a27.813,27.813,0,0,1,2.709,12.031" transform="translate(-927.341 -166.61)" fill="#daebe8"/>
                    <path id="Path_16531" data-name="Path 16531" d="M1091.474,231.561l-4.675,23.151c-10.079-1.793-18.346-9.413-18.346-20.722,0-9.868,4.731-19.328,13.461-23.608Z" transform="translate(-927.341 -181.646)" fill="#366f90"/>
                    <path id="Path_16532" data-name="Path 16532" d="M1226.447,384.388A24.572,24.572,0,0,1,1211.993,389a26.311,26.311,0,0,1-4.634-.408l4.675-23.151Z" transform="translate(-1047.9 -315.524)" fill="#ef8062"/>
                    <path id="Path_16533" data-name="Path 16533" d="M1262.687,378.49a21.235,21.235,0,0,1-5.521,5.9c-.133.1-.268.194-.4.287l-14.011-19.236Z" transform="translate(-1078.62 -315.524)" fill="#acc9c5"/>
                    <path id="Path_16534" data-name="Path 16534" d="M1265.773,304.226a20.6,20.6,0,0,1-3.086,11.025s0,0,0,0L1242.753,302.2l20.311-10a27.815,27.815,0,0,1,2.709,12.031" transform="translate(-1078.62 -252.285)" fill="#b8d5dc"/>
                    <path id="Path_16535" data-name="Path 16535" d="M446.756,635.4a11.587,11.587,0,0,1-1.638,5.978v0a12.614,12.614,0,0,1-2.929,3.353c-.071.057-.142.114-.213.169a14,14,0,0,1-7.46,2.865,13.812,13.812,0,0,1-2.46-.029c-5.351-.544-9.739-4.254-9.739-10.258,0-5.239,2.511-10.453,7.146-13.078a13.454,13.454,0,0,1,5.053-1.639c4.473-.543,8.682,2.089,10.8,6.361a14.059,14.059,0,0,1,1.438,6.277" transform="translate(-366.538 -537.638)" fill="#daebe8"/>
                    <path id="Path_16536" data-name="Path 16536" d="M434.535,646.061l-2.482,12.48c-5.351-.544-9.739-4.254-9.739-10.258,0-5.239,2.511-10.453,7.146-13.078Z" transform="translate(-366.538 -548.443)" fill="#366f90"/>
                    <path id="Path_16537" data-name="Path 16537" d="M506.189,724.162a14,14,0,0,1-7.673,3.033,13.8,13.8,0,0,1-2.46-.029l2.482-12.48Z" transform="translate(-430.541 -617.069)" fill="#ef8062"/>
                    <path id="Path_16538" data-name="Path 16538" d="M525.429,720.808a12.617,12.617,0,0,1-2.931,3.354c-.071.057-.142.114-.213.169l-7.438-9.644Z" transform="translate(-446.849 -617.069)" fill="#acc9c5"/>
                    <path id="Path_16539" data-name="Path 16539" d="M527.067,676.054a11.587,11.587,0,0,1-1.638,5.978v0l-10.581-6.123,10.783-6.134a14.06,14.06,0,0,1,1.438,6.277" transform="translate(-446.849 -578.293)" fill="#b8d5dc"/>
                    <path id="Path_16540" data-name="Path 16540" d="M796.826,743.01h-6.258l.748-7.305h5.51Z" transform="translate(-686.155 -635.216)" fill="#daebe8"/>
                    <path id="Path_16541" data-name="Path 16541" d="M864.413,717.089h-6.258l-.582-11.406h6.84Z" transform="translate(-744.311 -609.295)" fill="#daebe8"/>
                    <path id="Path_16542" data-name="Path 16542" d="M939.651,682.2h-6.258l.7-16.925h5.555Z" transform="translate(-810.117 -574.407)" fill="#daebe8"/>
                    <path id="Path_16543" data-name="Path 16543" d="M1011.063,694.463h-6.258l.727-14.985h5.531Z" transform="translate(-872.098 -586.669)" fill="#daebe8"/>
                    <path id="Path_16544" data-name="Path 16544" d="M1082.475,623.477h-6.258V597.262h5.8Z" transform="translate(-934.079 -515.683)" fill="#daebe8"/>
                    <path id="Path_16545" data-name="Path 16545" d="M804.214,596.488l-.18-.23,7.978-6.686h5.512l6.257-4.94h8.12l6.962-6.214.187.224-7.043,6.286h-8.13l-6.257,4.94h-5.508Z" transform="translate(-697.843 -499.412)" fill="#ef8062"/>
                    <path id="Path_16546" data-name="Path 16546" d="M1051.128,578.83l-.266-.109.785-2.053-2.279,1-.111-.273,2.908-1.271Z" transform="translate(-910.678 -497.429)" fill="#ef8062"/>
                    <path id="Path_16547" data-name="Path 16547" d="M1245.209,254.834h-12.7a.88.88,0,0,1-.747-.611.7.7,0,0,1,.746-.786l12.7.3a.548.548,0,0,1,0,1.093" transform="translate(-1069.073 -218.82)" fill="#acc9c5"/>
                    <path id="Path_16548" data-name="Path 16548" d="M1241.91,275.5h-9.587a.676.676,0,0,1-.564-.491.543.543,0,0,1,.563-.631l9.588.244a.443.443,0,0,1,0,.878" transform="translate(-1069.073 -236.898)" fill="#acc9c5"/>
                    <path id="Path_16549" data-name="Path 16549" d="M1356.316,140.611h-12.7a.88.88,0,0,1-.747-.611.7.7,0,0,1,.746-.786l12.7.3a.548.548,0,0,1,0,1.093" transform="translate(-1165.505 -120.199)" fill="#daebe8"/>
                    <path id="Path_16550" data-name="Path 16550" d="M1353.016,161.273h-9.587a.675.675,0,0,1-.564-.491.543.543,0,0,1,.563-.631l9.588.244a.443.443,0,0,1,0,.878" transform="translate(-1165.505 -138.276)" fill="#daebe8"/>
                    <path id="Path_16551" data-name="Path 16551" d="M1537.287,458.359h-7.493c-.165,0-.419-.313-.441-.611-.045-.611.275-.786.44-.786l7.493.3c.165,0,.3.246.3.547s-.135.546-.3.546" transform="translate(-1327.364 -394.546)" fill="#366f90"/>
                    <path id="Path_16552" data-name="Path 16552" d="M1535.34,479.021h-5.656c-.125,0-.316-.252-.333-.491-.034-.491.208-.631.332-.631l5.656.244c.125,0,.226.2.226.439s-.1.439-.226.439" transform="translate(-1327.364 -412.624)" fill="#366f90"/>
                    <path id="Path_16553" data-name="Path 16553" d="M1558.65,126.122l-12.338,1.477a.728.728,0,0,1-.725-.478.76.76,0,0,1,.725-.813l12.339-1.2a.435.435,0,0,1,.494.446.581.581,0,0,1-.494.564" transform="translate(-1341.451 -108.02)" fill="#daebe8"/>
                    <path id="Path_16554" data-name="Path 16554" d="M1555.445,147.673l-9.313,1.114a.556.556,0,0,1-.548-.388.591.591,0,0,1,.547-.649l9.314-.889a.34.34,0,0,1,.373.361.453.453,0,0,1-.373.45" transform="translate(-1341.451 -126.8)" fill="#daebe8"/>
                    <path id="Path_16555" data-name="Path 16555" d="M1734.763,361.008l-12.338,1.477a.728.728,0,0,1-.725-.478.76.76,0,0,1,.725-.812l12.339-1.2a.435.435,0,0,1,.494.446.581.581,0,0,1-.494.564" transform="translate(-1494.304 -310.824)" fill="#daebe8"/>
                    <path id="Path_16556" data-name="Path 16556" d="M1731.558,382.559l-9.313,1.114a.556.556,0,0,1-.547-.388.591.591,0,0,1,.547-.649l9.313-.889a.34.34,0,0,1,.373.361.453.453,0,0,1-.373.45" transform="translate(-1494.304 -329.603)" fill="#daebe8"/>
                    <path id="Path_16557" data-name="Path 16557" d="M1772.463,528.538h-7.493c-.165,0-.419-.313-.441-.611-.045-.611.275-.786.44-.786l7.493.3c.165,0,.3.246.3.547s-.135.547-.3.547" transform="translate(-1531.479 -455.14)" fill="#366f90"/>
                    <path id="Path_16558" data-name="Path 16558" d="M1770.517,549.2h-5.656c-.125,0-.316-.252-.333-.491-.034-.491.208-.631.332-.631l5.656.244c.125,0,.226.2.226.439s-.1.439-.226.439" transform="translate(-1531.48 -473.216)" fill="#366f90"/>
                    <path id="Path_16559" data-name="Path 16559" d="M1709.615,776.945h-7.493c-.165,0-.419-.313-.441-.611-.045-.611.275-.786.44-.786l7.493.3c.165,0,.3.246.3.547s-.135.547-.3.547" transform="translate(-1476.933 -669.617)" fill="#366f90"/>
                    <path id="Path_16560" data-name="Path 16560" d="M1707.669,797.607h-5.656c-.125,0-.316-.252-.333-.491-.034-.491.208-.631.332-.631l5.656.244c.125,0,.226.2.226.439s-.1.439-.226.439" transform="translate(-1476.933 -687.694)" fill="#366f90"/>
                    <path id="Path_16561" data-name="Path 16561" d="M796.782,134.22h-12.7a.88.88,0,0,1-.747-.611.7.7,0,0,1,.746-.786l12.7.3a.548.548,0,0,1,0,1.093" transform="translate(-679.871 -114.681)" fill="#daebe8"/>
                    <path id="Path_16562" data-name="Path 16562" d="M796.782,175.182h-12.7a.88.88,0,0,1-.747-.611.7.7,0,0,1,.746-.786l12.7.3a.548.548,0,0,1,0,1.093" transform="translate(-679.871 -150.048)" fill="#daebe8"/>
                    <path id="Path_16563" data-name="Path 16563" d="M913.344,175.182h-8.091c-.178,0-.452-.313-.476-.611-.048-.611.3-.786.475-.786l8.092.3c.178,0,.324.246.324.547s-.146.546-.324.546" transform="translate(-785.276 -150.048)" fill="#daebe8"/>
                    <path id="Path_16564" data-name="Path 16564" d="M915.211,134.22h-9.854a.752.752,0,0,1-.579-.611.63.63,0,0,1,.579-.786l9.854.3c.217,0,.394.246.394.547s-.177.546-.394.546" transform="translate(-785.277 -114.681)" fill="#daebe8"/>
                    <path id="Path_16565" data-name="Path 16565" d="M1015.242,134.22H998.571c-.367,0-.932-.313-.98-.611-.1-.611.612-.786.979-.786l16.672.3a.557.557,0,1,1,0,1.093" transform="translate(-865.828 -114.681)" fill="#daebe8"/>
                    <path id="Path_16566" data-name="Path 16566" d="M801.37,155.057H784.338c-.375,0-.952-.291-1-.567-.1-.567.625-.729,1-.729l17.033.282c.375,0,.682.228.682.507s-.307.507-.682.507" transform="translate(-679.871 -132.758)" fill="#daebe8"/>
                    <path id="Path_16567" data-name="Path 16567" d="M960.469,155.057H943.438c-.375,0-.952-.291-1-.567-.1-.567.625-.729,1-.729l17.033.282c.375,0,.682.228.682.507s-.307.507-.682.507" transform="translate(-817.958 -132.758)" fill="#daebe8"/>
                    <path id="Path_16568" data-name="Path 16568" d="M793.853,229.24h-9.936a.756.756,0,0,1-.584-.611.632.632,0,0,1,.583-.786l9.937.3c.219,0,.4.246.4.547s-.179.546-.4.546" transform="translate(-679.871 -196.722)" fill="#daebe8"/>
                    <path id="Path_16569" data-name="Path 16569" d="M793.853,270.2h-9.936a.755.755,0,0,1-.584-.611.632.632,0,0,1,.583-.786l9.937.3c.219,0,.4.246.4.547s-.179.546-.4.546" transform="translate(-679.871 -232.088)" fill="#daebe8"/>
                    <path id="Path_16570" data-name="Path 16570" d="M885.039,270.2h-6.33c-.139,0-.354-.313-.372-.611-.038-.611.232-.786.372-.786l6.33.3c.139,0,.253.246.253.547s-.114.546-.253.546" transform="translate(-762.33 -232.088)" fill="#daebe8"/>
                    <path id="Path_16571" data-name="Path 16571" d="M886.5,229.24h-7.709c-.17,0-.431-.313-.453-.611-.046-.611.283-.786.453-.786l7.709.3c.17,0,.309.246.309.547s-.139.546-.309.546" transform="translate(-762.33 -196.722)" fill="#daebe8"/>
                    <path id="Path_16572" data-name="Path 16572" d="M964.754,229.24H951.712a.9.9,0,0,1-.767-.611.706.706,0,0,1,.766-.786l13.042.3a.547.547,0,0,1,0,1.093" transform="translate(-825.345 -196.722)" fill="#daebe8"/>
                    <path id="Path_16573" data-name="Path 16573" d="M797.441,250.076H784.117a.9.9,0,0,1-.783-.567c-.08-.567.489-.73.783-.73l13.325.282a.508.508,0,1,1,0,1.015" transform="translate(-679.87 -214.799)" fill="#daebe8"/>
                    <path id="Path_16574" data-name="Path 16574" d="M921.905,250.076H908.581a.9.9,0,0,1-.783-.567c-.08-.567.489-.73.783-.73l13.325.282a.508.508,0,1,1,0,1.015" transform="translate(-787.896 -214.799)" fill="#daebe8"/>
                    <path id="Path_16575" data-name="Path 16575" d="M422.9,336.6l-7.968-1.022a.656.656,0,0,1-.469-.443c-.048-.389.293-.455.468-.433l7.968,1.212a.389.389,0,0,1,.319.384.286.286,0,0,1-.319.3" transform="translate(-359.718 -288.985)" fill="#daebe8"/>
                    <path id="Path_16576" data-name="Path 16576" d="M422.9,362.3l-7.968-1.022a.656.656,0,0,1-.469-.444c-.048-.389.293-.455.468-.433l7.968,1.212a.389.389,0,0,1,.319.384.286.286,0,0,1-.319.3" transform="translate(-359.718 -311.17)" fill="#daebe8"/>
                    <path id="Path_16577" data-name="Path 16577" d="M496.016,371.228l-5.076-.651a.522.522,0,0,1-.3-.422c-.03-.387.186-.469.3-.455l5.076.842c.112.014.2.18.2.369s-.091.331-.2.317" transform="translate(-425.839 -319.202)" fill="#daebe8"/>
                    <path id="Path_16578" data-name="Path 16578" d="M497.188,345.73l-6.181-.793a.561.561,0,0,1-.363-.43c-.037-.388.227-.464.363-.446l6.182.983a.359.359,0,0,1,.247.375c0,.189-.111.329-.247.311" transform="translate(-425.839 -297.065)" fill="#daebe8"/>
                    <path id="Path_16579" data-name="Path 16579" d="M559.938,353.706l-10.458-1.341c-.23-.03-.584-.271-.615-.462-.063-.391.384-.444.614-.414l10.458,1.532a.454.454,0,0,1,.419.4c0,.188-.188.319-.419.289" transform="translate(-476.37 -303.473)" fill="#daebe8"/>
                    <path id="Path_16580" data-name="Path 16580" d="M425.774,350.149l-10.684-1.37c-.235-.03-.6-.259-.628-.437-.064-.364.392-.407.627-.377l10.685,1.547c.235.03.428.2.428.373s-.192.294-.428.263" transform="translate(-359.718 -300.431)" fill="#daebe8"/>
                    <path id="Path_16581" data-name="Path 16581" d="M525.578,362.523l-10.684-1.37c-.235-.03-.6-.259-.628-.437-.064-.364.392-.407.628-.377l10.685,1.547c.235.03.428.2.428.373s-.192.294-.428.263" transform="translate(-446.34 -311.114)" fill="#daebe8"/>
                    <path id="Path_16582" data-name="Path 16582" d="M421.059,395.9l-6.233-.8a.563.563,0,0,1-.366-.43c-.037-.388.229-.464.366-.446l6.233.99a.36.36,0,0,1,.249.375c0,.189-.112.329-.249.311" transform="translate(-359.718 -340.376)" fill="#daebe8"/>
                    <path id="Path_16583" data-name="Path 16583" d="M421.059,421.6l-6.233-.8a.563.563,0,0,1-.366-.43c-.037-.388.229-.464.366-.446l6.233.99a.36.36,0,0,1,.249.375c0,.189-.112.329-.249.311" transform="translate(-359.718 -362.562)" fill="#daebe8"/>
                    <path id="Path_16584" data-name="Path 16584" d="M478.261,428.578l-3.971-.509c-.087-.011-.222-.225-.233-.413-.024-.386.146-.474.233-.463l3.971.7c.087.011.159.175.159.363s-.071.334-.159.323" transform="translate(-411.445 -368.842)" fill="#daebe8"/>
                    <path id="Path_16585" data-name="Path 16585" d="M479.177,403.039l-4.836-.62c-.106-.014-.27-.231-.284-.42-.029-.387.178-.47.284-.456l4.836.811c.106.014.193.179.193.368s-.087.332-.193.318" transform="translate(-411.445 -346.695)" fill="#daebe8"/>
                    <path id="Path_16586" data-name="Path 16586" d="M528.266,409.284l-8.181-1.049a.669.669,0,0,1-.481-.445c-.049-.39.3-.454.48-.431l8.182,1.24a.394.394,0,0,1,.327.385.289.289,0,0,1-.327.3" transform="translate(-450.975 -351.715)" fill="#daebe8"/>
                    <path id="Path_16587" data-name="Path 16587" d="M423.31,409.348l-8.358-1.072a.673.673,0,0,1-.491-.419c-.05-.362.307-.418.491-.395l8.359,1.249a.384.384,0,0,1,.335.361.282.282,0,0,1-.335.275" transform="translate(-359.717 -351.804)" fill="#daebe8"/>
                    <path id="Path_16588" data-name="Path 16588" d="M501.387,419.028l-8.358-1.072a.672.672,0,0,1-.491-.419c-.05-.362.307-.418.491-.395l8.359,1.249a.384.384,0,0,1,.335.361.282.282,0,0,1-.335.275" transform="translate(-427.482 -360.162)" fill="#daebe8"/>
                    <path id="Path_16589" data-name="Path 16589" d="M878.393,358.949h-5.356a.407.407,0,0,1-.315-.329.34.34,0,0,1,.315-.424l5.356.164c.118,0,.214.132.214.294s-.1.294-.214.294" transform="translate(-757.458 -309.271)" fill="#daebe8"/>
                    <path id="Path_16590" data-name="Path 16590" d="M878.393,381.027h-5.356a.407.407,0,0,1-.315-.329.341.341,0,0,1,.315-.424l5.356.164c.118,0,.214.132.214.294s-.1.295-.214.295" transform="translate(-757.458 -328.333)" fill="#daebe8"/>
                    <path id="Path_16591" data-name="Path 16591" d="M927.542,381.027H924.13c-.075,0-.191-.169-.2-.329-.021-.329.125-.424.2-.424l3.412.164c.075,0,.137.132.137.294s-.062.295-.137.295" transform="translate(-801.902 -328.333)" fill="#daebe8"/>
                    <path id="Path_16592" data-name="Path 16592" d="M928.33,358.949h-4.155c-.092,0-.232-.169-.244-.329-.025-.329.153-.424.244-.424l4.155.164c.091,0,.166.132.166.294s-.075.294-.166.294" transform="translate(-801.902 -309.271)" fill="#daebe8"/>
                    <path id="Path_16593" data-name="Path 16593" d="M970.507,358.949h-7.029a.484.484,0,0,1-.413-.329.381.381,0,0,1,.413-.424l7.03.164a.295.295,0,0,1,0,.589" transform="translate(-835.867 -309.271)" fill="#daebe8"/>
                    <path id="Path_16594" data-name="Path 16594" d="M880.327,370.18h-7.181a.488.488,0,0,1-.422-.306c-.043-.306.264-.393.422-.393l7.182.152a.274.274,0,1,1,0,.547" transform="translate(-757.457 -319.014)" fill="#daebe8"/>
                    <path id="Path_16595" data-name="Path 16595" d="M947.413,370.18h-7.182a.488.488,0,0,1-.422-.306c-.043-.306.264-.393.422-.393l7.182.152a.274.274,0,1,1,0,.547" transform="translate(-815.683 -319.014)" fill="#daebe8"/>
                    <path id="Path_16596" data-name="Path 16596" d="M878.393,417.332h-5.356a.407.407,0,0,1-.315-.329.341.341,0,0,1,.315-.424l5.356.164c.118,0,.214.132.214.294s-.1.295-.214.295" transform="translate(-757.458 -359.679)" fill="#daebe8"/>
                    <path id="Path_16597" data-name="Path 16597" d="M878.393,439.41h-5.356a.407.407,0,0,1-.315-.329.341.341,0,0,1,.315-.424l5.356.164c.118,0,.214.133.214.295s-.1.295-.214.295" transform="translate(-757.458 -378.742)" fill="#daebe8"/>
                    <path id="Path_16598" data-name="Path 16598" d="M927.542,439.41H924.13c-.075,0-.191-.169-.2-.329-.021-.329.125-.424.2-.424l3.412.164c.075,0,.137.133.137.295s-.062.295-.137.295" transform="translate(-801.902 -378.742)" fill="#daebe8"/>
                    <path id="Path_16599" data-name="Path 16599" d="M928.33,417.332h-4.155c-.092,0-.232-.169-.244-.329-.025-.329.153-.424.244-.424l4.155.164c.091,0,.166.132.166.294s-.075.295-.166.295" transform="translate(-801.902 -359.679)" fill="#daebe8"/>
                    <path id="Path_16600" data-name="Path 16600" d="M970.507,417.332h-7.029a.484.484,0,0,1-.413-.329.381.381,0,0,1,.413-.424l7.03.164a.295.295,0,0,1,0,.589" transform="translate(-835.867 -359.679)" fill="#daebe8"/>
                    <path id="Path_16601" data-name="Path 16601" d="M880.327,428.564h-7.181a.488.488,0,0,1-.422-.306c-.043-.306.264-.393.422-.393l7.182.152a.274.274,0,1,1,0,.547" transform="translate(-757.457 -369.424)" fill="#daebe8"/>
                    <path id="Path_16602" data-name="Path 16602" d="M947.413,428.564h-7.182a.488.488,0,0,1-.422-.306c-.043-.306.264-.393.422-.393l7.182.152a.274.274,0,1,1,0,.547" transform="translate(-815.683 -369.424)" fill="#daebe8"/>
                    <path id="Path_16603" data-name="Path 16603" d="M878.393,471.879h-5.356a.407.407,0,0,1-.315-.329.34.34,0,0,1,.315-.423l5.356.164c.118,0,.214.133.214.294s-.1.295-.214.295" transform="translate(-757.458 -406.776)" fill="#daebe8"/>
                    <path id="Path_16604" data-name="Path 16604" d="M878.393,493.956h-5.356a.407.407,0,0,1-.315-.329.34.34,0,0,1,.315-.424l5.356.164c.118,0,.214.133.214.294s-.1.295-.214.295" transform="translate(-757.458 -425.837)" fill="#daebe8"/>
                    <path id="Path_16605" data-name="Path 16605" d="M927.542,493.956H924.13c-.075,0-.191-.169-.2-.329-.021-.329.125-.424.2-.424l3.412.164c.075,0,.137.133.137.294s-.062.295-.137.295" transform="translate(-801.902 -425.837)" fill="#daebe8"/>
                    <path id="Path_16606" data-name="Path 16606" d="M928.33,471.879h-4.155c-.092,0-.232-.169-.244-.329-.025-.329.153-.423.244-.423l4.155.164c.091,0,.166.133.166.294s-.075.295-.166.295" transform="translate(-801.902 -406.776)" fill="#daebe8"/>
                    <path id="Path_16607" data-name="Path 16607" d="M970.507,471.879h-7.029a.484.484,0,0,1-.413-.329.381.381,0,0,1,.413-.423l7.03.164a.295.295,0,0,1,0,.589" transform="translate(-835.867 -406.776)" fill="#daebe8"/>
                    <path id="Path_16608" data-name="Path 16608" d="M880.327,483.11h-7.181a.488.488,0,0,1-.422-.306c-.043-.306.264-.393.422-.393l7.182.152a.274.274,0,1,1,0,.547" transform="translate(-757.457 -416.519)" fill="#daebe8"/>
                    <path id="Path_16609" data-name="Path 16609" d="M947.413,483.11h-7.182a.488.488,0,0,1-.422-.306c-.043-.306.264-.393.422-.393l7.182.152a.274.274,0,1,1,0,.547" transform="translate(-815.683 -416.519)" fill="#daebe8"/>
                    <path id="Path_16610" data-name="Path 16610" d="M878.464,361.666H858.85a1.877,1.877,0,0,1-1.8-1.94V338a1.611,1.611,0,0,1,1.547-1.664h21.077a1.716,1.716,0,0,1,1.266.565,2.012,2.012,0,0,1,.521,1.444L880.6,359.46a2.216,2.216,0,0,1-2.141,2.206m-19.87-25.048A1.336,1.336,0,0,0,857.317,338v21.723a1.6,1.6,0,0,0,1.533,1.661h19.615a1.942,1.942,0,0,0,1.871-1.939l.854-21.112a1.726,1.726,0,0,0-.446-1.239,1.452,1.452,0,0,0-1.071-.479Z" transform="translate(-743.855 -290.399)" fill="#daebe8"/>
                    <path id="Path_16611" data-name="Path 16611" d="M1590.068,528.666c-.277,0-.553.014-.827.039-4.492.429-8.292,4.332-9.991,9.773-.188.6-.349,1.217-.483,1.851a21.929,21.929,0,0,0-.474,4.564c0,7.163,3.369,13.242,8.041,15.394a9.159,9.159,0,0,0,1.706.593,8.636,8.636,0,0,0,2.027.24c3.847,0,7.262-2.542,9.409-6.473a20.432,20.432,0,0,0,2.365-9.753c0-8.962-5.271-16.227-11.774-16.227m-.3,28a5.9,5.9,0,0,1-1.256-.136,6.143,6.143,0,0,1-1.3-.44c-3.3-1.533-5.693-5.968-5.693-11.2a16.553,16.553,0,0,1,.325-3.286c.094-.458.206-.906.336-1.34,1.21-4.048,3.962-6.929,7.2-7.139q.189-.014.382-.014c4.553,0,8.244,5.273,8.244,11.778a15.47,15.47,0,0,1-1.408,6.584v0c-1.482,3.133-3.991,5.193-6.836,5.193" transform="translate(-1369.845 -456.456)" fill="#daebe8"/>
                    <path id="Path_16612" data-name="Path 16612" d="M1592.5,533.377c-3.588.233-6.576,3.74-7.538,8.479l-3.079-1.278c1.355-6.39,5.487-11.148,10.474-11.624Z" transform="translate(-1372.956 -456.705)" fill="#ef8062"/>
                    <path id="Path_16613" data-name="Path 16613" d="M1588.511,618.561l-.469,4.344c-5.536-1.323-9.747-7.978-9.747-15.986a21.927,21.927,0,0,1,.474-4.564c.134-.634.3-1.252.483-1.851l2.932,1.789c-.13.434-.242.881-.336,1.34a16.562,16.562,0,0,0-.325,3.286c0,5.9,3.031,10.779,6.989,11.642" transform="translate(-1369.846 -518.483)" fill="#366f90"/>
                    <path id="Path_16614" data-name="Path 16614" d="M1652.319,698.848c-2.148,3.932-5.563,6.473-9.41,6.473a8.635,8.635,0,0,1-2.027-.24,9.154,9.154,0,0,1-1.706-.593l.88-4.192a6.132,6.132,0,0,0,1.3.44,5.9,5.9,0,0,0,1.256.136c2.845,0,5.354-2.06,6.836-5.193Z" transform="translate(-1422.686 -600.658)" fill="#acc9c5"/>
                    <path id="Path_16615" data-name="Path 16615" d="M1544.333,511.371l-4.453-4.807a4.669,4.669,0,0,0-3.447-1.541h-5.57v-.1h5.57a4.761,4.761,0,0,1,3.514,1.571l4.453,4.807Z" transform="translate(-1328.678 -435.959)" fill="#366f90"/>
                    <path id="Path_16616" data-name="Path 16616" d="M1527.826,502.914c0-.205.214-.359.4-.4.252-.05.344.166.344.371s-.154.427-.344.427a.438.438,0,0,1-.4-.4" transform="translate(-1326.042 -433.874)" fill="#366f90"/>
                    <path id="Path_16617" data-name="Path 16617" d="M1630.292,549.326c0-.205.214-.359.4-.4.252-.05.344.166.344.371s-.154.427-.344.427a.438.438,0,0,1-.4-.4" transform="translate(-1414.975 -473.947)" fill="#366f90"/>
                    <path id="Path_16618" data-name="Path 16618" d="M1706.02,508.091l-.084-.043,2.6-5.453a3.667,3.667,0,0,1,1.3-1.514,4.7,4.7,0,0,1,2.552-.761h5.57v.1h-5.57a4.608,4.608,0,0,0-2.5.747,3.568,3.568,0,0,0-1.267,1.475Z" transform="translate(-1480.629 -431.982)" fill="#366f90"/>
                    <path id="Path_16619" data-name="Path 16619" d="M1795.137,498.307c0-.205-.214-.359-.4-.4-.252-.049-.344.166-.344.371s.154.427.344.427a.438.438,0,0,0,.4-.4" transform="translate(-1557.402 -429.897)" fill="#366f90"/>
                    <path id="Path_16620" data-name="Path 16620" d="M1704.179,554.512c0-.2-.214-.359-.4-.4-.252-.049-.344.166-.344.371s.154.427.344.427a.438.438,0,0,0,.4-.4" transform="translate(-1478.457 -478.425)" fill="#366f90"/>
                    <path id="Path_16621" data-name="Path 16621" d="M1713.62,741.159l-2.6-5.453a3.568,3.568,0,0,0-1.267-1.475,4.607,4.607,0,0,0-2.5-.747h-5.57v-.1h5.57a4.7,4.7,0,0,1,2.552.761,3.666,3.666,0,0,1,1.3,1.514l2.6,5.453Z" transform="translate(-1476.933 -633.216)" fill="#366f90"/>
                    <path id="Path_16622" data-name="Path 16622" d="M1698.641,731.376c0-.205.214-.359.4-.4.252-.049.344.166.344.371s-.154.427-.344.427a.438.438,0,0,1-.4-.4" transform="translate(-1474.297 -631.131)" fill="#366f90"/>
                    <path id="Path_16623" data-name="Path 16623" d="M1789.6,787.581c0-.2.214-.359.4-.4.252-.05.344.166.344.371s-.154.427-.344.427a.438.438,0,0,1-.4-.4" transform="translate(-1553.242 -679.659)" fill="#366f90"/>
                    <path id="Path_16624" data-name="Path 16624" d="M423.183,540.065H415.69c-.165,0-.419-.313-.441-.611-.045-.611.275-.785.44-.785l7.493.3c.165,0,.3.246.3.547s-.135.547-.3.547" transform="translate(-360.402 -465.092)" fill="#366f90"/>
                    <path id="Path_16625" data-name="Path 16625" d="M421.237,560.726h-5.656c-.125,0-.316-.252-.333-.491-.034-.491.208-.631.332-.631l5.656.244c.124,0,.226.2.226.439s-.1.439-.226.439" transform="translate(-360.403 -483.169)" fill="#366f90"/>
                    <path id="Path_16626" data-name="Path 16626" d="M581.461,801.784l-5.238.478c-.115.01-.31-.229-.341-.471-.065-.5.149-.66.265-.67l5.255-.229c.115-.01.223.182.24.427s-.064.455-.18.466" transform="translate(-499.814 -691.498)" fill="#366f90"/>
                    <path id="Path_16627" data-name="Path 16627" d="M581.225,819.268l-3.954.361c-.087.008-.235-.186-.259-.38-.051-.4.111-.529.2-.537l3.967-.161c.087-.008.169.147.182.344s-.047.365-.134.373" transform="translate(-500.796 -706.745)" fill="#366f90"/>
                    <path id="Path_16628" data-name="Path 16628" d="M430.23,593.076l-4.453-4.807a4.669,4.669,0,0,0-3.447-1.541h-5.57v-.1h5.57a4.762,4.762,0,0,1,3.514,1.571l4.453,4.807Z" transform="translate(-361.717 -506.504)" fill="#366f90"/>
                    <path id="Path_16629" data-name="Path 16629" d="M413.723,584.62c0-.205.214-.359.4-.4.252-.05.344.166.344.371s-.154.427-.344.427a.438.438,0,0,1-.4-.4" transform="translate(-359.082 -504.42)" fill="#366f90"/>
                    <path id="Path_16630" data-name="Path 16630" d="M516.189,631.031c0-.2.214-.359.4-.4.252-.05.344.166.344.371s-.154.427-.344.427a.438.438,0,0,1-.4-.4" transform="translate(-448.015 -544.492)" fill="#366f90"/>
                    <path id="Path_16631" data-name="Path 16631" d="M585.327,729.127l-2.6-5.453a3.567,3.567,0,0,0-1.266-1.475,4.608,4.608,0,0,0-2.5-.747h-5.57v-.1h5.57a4.7,4.7,0,0,1,2.552.761,3.667,3.667,0,0,1,1.3,1.514l2.6,5.453Z" transform="translate(-497.657 -622.827)" fill="#366f90"/>
                    <path id="Path_16632" data-name="Path 16632" d="M570.348,719.344c0-.205.214-.359.4-.4.252-.05.344.166.344.371s-.154.427-.344.427a.438.438,0,0,1-.4-.4" transform="translate(-495.021 -620.742)" fill="#366f90"/>
                    <path id="Path_16633" data-name="Path 16633" d="M661.3,775.549c0-.205.214-.359.4-.4.252-.05.344.166.344.371s-.154.427-.344.427a.438.438,0,0,1-.4-.4" transform="translate(-573.965 -669.27)" fill="#366f90"/>
                    <path id="Path_16634" data-name="Path 16634" d="M1584.894,277.231l-4.321.416V265.034l4.321-.416Z" transform="translate(-1371.823 -228.474)" fill="#daebe8"/>
                    <path id="Path_16635" data-name="Path 16635" d="M1638.146,224.655l-4.321.416V204.926l4.321-.416Z" transform="translate(-1418.042 -176.576)" fill="#daebe8"/>
                    <path id="Path_16636" data-name="Path 16636" d="M1691.4,242.312l-4.321.416V226.16l4.321-.416Z" transform="translate(-1464.261 -194.91)" fill="#daebe8"/>
                    <path id="Path_16637" data-name="Path 16637" d="M1744.65,202.491l-4.321.416V180.824l4.321-.416Z" transform="translate(-1510.479 -155.766)" fill="#daebe8"/>
                    <path id="Path_16638" data-name="Path 16638" d="M1797.9,145.52l-4.321.416V115.625l4.321-.416Z" transform="translate(-1556.698 -99.473)" fill="#daebe8"/>
                    <path id="Path_16639" data-name="Path 16639" d="M1337.778,536.631s-2.276-.113-2.638-3.882c-.372-3.874,3.744,0,3.744,0Z" transform="translate(-1158.784 -458.496)" fill="#ffb27d"/>
                    <path id="Path_16640" data-name="Path 16640" d="M1348.851,481.592c-.139.059-2.442.733-3.462,4.482s2.4.793,2.4.793Z" transform="translate(-1167.536 -415.812)" fill="#ffb27d"/>
                    <path id="Path_16641" data-name="Path 16641" d="M1373.107,859.8s-.031,1.348-.876,1.728-3.292.723-2.378,1.59c.525.5,3,.176,3.7.176s1.354.328,1.873-.176c.571-.555,0-3.317,0-3.317a2.638,2.638,0,0,1-1.144.324,2.108,2.108,0,0,1-1.171-.324" transform="translate(-1188.758 -742.362)" fill="#331832"/>
                    <path id="Path_16642" data-name="Path 16642" d="M1446.561,859.8s-.031,1.348-.876,1.728-3.292.723-2.378,1.59c.525.5,3,.176,3.7.176s1.354.328,1.873-.176c.571-.555,0-3.317,0-3.317a2.639,2.639,0,0,1-1.144.324,2.108,2.108,0,0,1-1.171-.324" transform="translate(-1252.511 -742.36)" fill="#331832"/>
                    <path id="Path_16643" data-name="Path 16643" d="M1348.25,589.337a102.526,102.526,0,0,0,1.512,16.462c1.2,7.812,2.626,15.684,3.323,19.458a2.8,2.8,0,0,0,2.548,2.391l.67.029a2.4,2.4,0,0,0,2.343-2.677l-1.692-25.532-.417-8.4Z" transform="translate(-1170.179 -508.84)" fill="#764678"/>
                    <path id="Path_16644" data-name="Path 16644" d="M1359.757,607.423c-.077.686-3.673.6-8.076,0s-7.831-1.631-7.754-2.318,3.629-.77,8.032-.168,7.875,1.8,7.8,2.485" transform="translate(-1166.43 -521.962)" fill="#331832"/>
                    <path id="Path_16645" data-name="Path 16645" d="M1386.533,615.491l9.4,32.6a3.075,3.075,0,0,0,2.828,2.323l.565.01a2.27,2.27,0,0,0,2.111-2.756l-5.143-30.629a.981.981,0,0,0-.649-.755c-1.763-.549-9.286-2.139-9.113-.791" transform="translate(-1203.407 -530.966)" fill="#764678"/>
                    <path id="Path_16646" data-name="Path 16646" d="M1358.3,465.322a5.66,5.66,0,0,0-5.706-3.626c-4.456.173-7.82,6.493-8.654,20.077a26.162,26.162,0,0,1,15.843,2.3s.474-13.216-1.483-18.753" transform="translate(-1166.438 -398.629)" fill="#6da49a"/>
                    <path id="Path_16647" data-name="Path 16647" d="M1371.779,464.958l-3.157,2.181s-8.114.876-10.268.454a2.97,2.97,0,0,1-2.489-2.131,8.981,8.981,0,0,1,7.078-3.9,10.28,10.28,0,0,1,1.971.047,13.48,13.48,0,0,1,6.865,3.35" transform="translate(-1176.792 -398.493)" fill="#6da49a"/>
                    <path id="Path_16648" data-name="Path 16648" d="M1387.76,660.482l-2.022-6.634a6.217,6.217,0,0,0-2.633-3.507l.083-.143a6.382,6.382,0,0,1,2.7,3.6l2.022,6.634Z" transform="translate(-1200.435 -561.388)" fill="#020202"/>
                    <path id="Path_16649" data-name="Path 16649" d="M1382.722,430.608a3.031,3.031,0,0,1-.395,1.974c-.592,1.01.052,1.748.854,1.359s1.108.715,2.133.105-2.593-3.439-2.593-3.439" transform="translate(-1199.56 -371.792)" fill="#331832"/>
                    <path id="Path_16650" data-name="Path 16650" d="M1402.588,430.6a1.245,1.245,0,0,1-1-.793l-.552-1.384-.16-.4-.942-2.362.163,2.448.1,1.469.028.419a.66.66,0,0,1-.511.7h-.005c-.168.294-.4.893.293,1.13a2.632,2.632,0,0,0,2.6-1.23h-.007" transform="translate(-1214.687 -367.517)" fill="#ffb27d"/>
                    <path id="Path_16651" data-name="Path 16651" d="M1404,442.674c0,.014,0,.027,0,.041a1.523,1.523,0,0,1-.836,1.158l0,0-.214-1.6a1.359,1.359,0,0,1,.894.046.352.352,0,0,1,.163.361" transform="translate(-1217.654 -381.811)" fill="#673469"/>
                    <path id="Path_16652" data-name="Path 16652" d="M1385.665,410.586c0-1.567.954-2.838,2.131-2.838s2.131,1.271,2.131,2.838-.954,2.838-2.131,2.838-2.131-1.271-2.131-2.838" transform="translate(-1202.657 -352.054)" fill="#ffb27d"/>
                    <path id="Path_16653" data-name="Path 16653" d="M1410.147,425.389a.5.5,0,0,1-.754.057.668.668,0,0,1,.12-.844.5.5,0,0,1,.754-.057.667.667,0,0,1-.12.844" transform="translate(-1223.162 -366.429)" fill="#ffb27d"/>
                    <path id="Path_16654" data-name="Path 16654" d="M1393.111,440.338a4.31,4.31,0,0,0,1.456-.258.754.754,0,0,1-.728.826c-.458.03-.728-.568-.728-.568" transform="translate(-1209.119 -379.97)" fill="#e9633e"/>
                    <path id="Path_16655" data-name="Path 16655" d="M1393.111,440.338a.9.9,0,0,0,.587.156,1.654,1.654,0,0,0,.869-.414,6.5,6.5,0,0,1-1.456.258" transform="translate(-1209.119 -379.97)" fill="#fff"/>
                    <path id="Path_16656" data-name="Path 16656" d="M1400,427.757a.05.05,0,0,1-.032-.031.054.054,0,0,1,.027-.068.5.5,0,0,1,.628.151.056.056,0,0,1,0,.074.051.051,0,0,1-.069,0,.778.778,0,0,0-.521-.126.045.045,0,0,1-.031,0" transform="translate(-1215.071 -369.198)" fill="#080435"/>
                    <path id="Path_16657" data-name="Path 16657" d="M1401.145,431.538c0,.125-.061.228-.145.231s-.155-.1-.158-.221.061-.228.145-.231.155.1.158.221" transform="translate(-1215.828 -372.405)" fill="#080435"/>
                    <path id="Path_16658" data-name="Path 16658" d="M1386.781,428.994a.046.046,0,0,1-.041-.015.055.055,0,0,1,0-.074.5.5,0,0,1,.633-.118.054.054,0,0,1,.024.069.052.052,0,0,1-.064.026.78.78,0,0,0-.526.1.047.047,0,0,1-.028.014" transform="translate(-1203.578 -370.162)" fill="#080435"/>
                    <path id="Path_16659" data-name="Path 16659" d="M1389.378,432.513a.212.212,0,0,1-.053.273c-.077.037-.177-.025-.225-.139a.213.213,0,0,1,.053-.273c.077-.037.177.025.224.139" transform="translate(-1205.617 -373.307)" fill="#080435"/>
                    <path id="Path_16660" data-name="Path 16660" d="M1385.38,402.067a1.284,1.284,0,0,0,1.185,1.152c1.139.168,1.925.688,1.772,1.574s-1.989,2.723-.64,3.435,1.062-.615,2.525-.308,1.727-1.8.72-3.025-.6-4.462-4.377-4.319-2.393,3.4-2.393,3.4a2.77,2.77,0,0,0,1.208-1.907" transform="translate(-1201.146 -345.859)" fill="#331832"/>
                    <path id="Path_16661" data-name="Path 16661" d="M1398.235,415.182a.83.83,0,0,1-.517-.539c-.175-.66.541-1.662,1.173-2.547.166-.232.322-.45.461-.659a1.623,1.623,0,0,0,.061-1.819,1.587,1.587,0,0,0-1.767-.6,2.023,2.023,0,0,1-1.553-.156,1.432,1.432,0,0,1-.475-.428l.026-.018a1.769,1.769,0,0,0,1.995.57,1.617,1.617,0,0,1,1.8.615,1.655,1.655,0,0,1-.061,1.856c-.139.209-.3.428-.461.66-.628.878-1.339,1.874-1.168,2.519a.788.788,0,0,0,.5.517Z" transform="translate(-1211.295 -352.631)" fill="#fff"/>
                    <path id="Path_16662" data-name="Path 16662" d="M1380.859,423.826a1.518,1.518,0,0,1-.752-1.021,1.986,1.986,0,0,1,.385-2.068.57.57,0,0,1,.554-.059,1.519,1.519,0,0,1,.752,1.019,1.991,1.991,0,0,1-.385,2.069.575.575,0,0,1-.326.1.624.624,0,0,1-.228-.044m.848-2.1a1.421,1.421,0,0,0-.695-.956.494.494,0,0,0-.471.049,1.884,1.884,0,0,0-.344,1.951,1.424,1.424,0,0,0,.695.956.5.5,0,0,0,.47-.049,1.885,1.885,0,0,0,.345-1.951" transform="translate(-1197.735 -363.179)" fill="#764678"/>
                    <g id="Group_16861" data-name="Group 16861" transform="translate(184.637 56.91)" opacity="0.3">
                      <g id="Group_16860" data-name="Group 16860">
                        <g id="Group_16859" data-name="Group 16859" clip-path="url(#clip-path-5)">
                          <path id="Path_16663" data-name="Path 16663" d="M1399.887,417.719a1.836,1.836,0,0,1-.61,1.943c-.508.263-1.058-.181-1.229-.991a1.836,1.836,0,0,1,.61-1.943c.508-.263,1.059.181,1.229.991" transform="translate(-1397.997 -416.653)" fill="#fff"/>
                        </g>
                      </g>
                    </g>
                    <g id="Group_16864" data-name="Group 16864" transform="translate(182.386 57.528)" opacity="0.3">
                      <g id="Group_16863" data-name="Group 16863">
                        <g id="Group_16862" data-name="Group 16862" clip-path="url(#clip-path-6)">
                          <path id="Path_16664" data-name="Path 16664" d="M1382.647,422.236a1.978,1.978,0,0,1-.51,1.971c-.453.275-.959-.162-1.13-.976a1.978,1.978,0,0,1,.51-1.971c.453-.275.959.162,1.13.976" transform="translate(-1380.95 -421.177)" fill="#fff"/>
                        </g>
                      </g>
                    </g>
                    <path id="Path_16665" data-name="Path 16665" d="M1397.453,418.34a1.521,1.521,0,0,1-.686-1.064,1.949,1.949,0,0,1,.677-2.084.731.731,0,0,1,.692.006,1.519,1.519,0,0,1,.684,1.062,1.945,1.945,0,0,1-.677,2.084.732.732,0,0,1-.34.086.766.766,0,0,1-.35-.09m.031-3.056a1.846,1.846,0,0,0-.625,1.969,1.444,1.444,0,0,0,.636,1,.66.66,0,0,0,.609,0,1.844,1.844,0,0,0,.625-1.969,1.446,1.446,0,0,0-.634-.994.644.644,0,0,0-.61-.006" transform="translate(-1212.245 -358.409)" fill="#764678"/>
                    <path id="Path_16666" data-name="Path 16666" d="M1392.459,428.894a.084.084,0,0,0,.056-.022.755.755,0,0,1,.635-.121.092.092,0,0,0,.1-.076.093.093,0,0,0-.07-.111.9.9,0,0,0-.782.16.1.1,0,0,0-.011.135.084.084,0,0,0,.068.036" transform="translate(-1208.477 -370.004)" fill="#764678"/>
                    <path id="Path_16667" data-name="Path 16667" d="M1449.791,485.828c.11.343-.716.985-1.844,1.434s-2.131.535-2.24.192.716-.985,1.844-1.434,2.131-.535,2.24-.192" transform="translate(-1254.76 -419.288)" fill="#331832"/>
                    <path id="Path_16668" data-name="Path 16668" d="M1417.825,500.161l-.038-2.49a.624.624,0,0,1,.552-.65,4.1,4.1,0,0,0,3.332-1.595c.851-1.3.762-3.319.524-4.719a1.434,1.434,0,0,1,.9-1.655,5.23,5.23,0,0,1,1.54-.566.625.625,0,0,1,.767.446,16.252,16.252,0,0,1,.4,2.477,9.792,9.792,0,0,1-1.269,6.176,7.365,7.365,0,0,1-6.074,3.205.617.617,0,0,1-.635-.63" transform="translate(-1230.537 -421.753)" fill="#ffb27d"/>
                    <g id="Group_16867" data-name="Group 16867" transform="translate(192.696 73.587)" opacity="0.5">
                      <g id="Group_16866" data-name="Group 16866">
                        <g id="Group_16865" data-name="Group 16865" clip-path="url(#clip-path-7)">
                          <path id="Path_16669" data-name="Path 16669" d="M1459.5,540.345a.444.444,0,0,1-.3-.107.827.827,0,0,1,.061-1.084.952.952,0,0,1,.617-.4.457.457,0,0,1,.36.1.827.827,0,0,1-.061,1.084.952.952,0,0,1-.617.4.574.574,0,0,1-.062,0m.442-1.432-.045,0a.8.8,0,0,0-.509.338c-.229.307-.267.7-.084.859a.306.306,0,0,0,.241.067.8.8,0,0,0,.509-.337c.229-.307.267-.7.084-.859a.293.293,0,0,0-.2-.069" transform="translate(-1459.023 -538.749)" fill="#ec865c"/>
                        </g>
                      </g>
                    </g>
                    <path id="Path_16670" data-name="Path 16670" d="M1360.513,612.732s-8.788-1.812-11.637-.957l1.366,2.186,5.079.31Z" transform="translate(-1170.727 -528.016)" fill="#764678"/>
                    <path id="Path_16671" data-name="Path 16671" d="M1347.56,515.741l-7.575,0a.371.371,0,0,1-.349-.27l-1.576-5.074a.391.391,0,0,1,.349-.519l7.285,0a.777.777,0,0,1,.732.565l1.484,4.779a.391.391,0,0,1-.349.519" transform="translate(-1161.322 -440.235)" fill="#331832"/>
                    <path id="Path_16672" data-name="Path 16672" d="M1343.961,515.743l-7.575,0a.371.371,0,0,1-.349-.27l-1.576-5.074a.391.391,0,0,1,.349-.519l7.285,0a.778.778,0,0,1,.732.565l1.484,4.779a.391.391,0,0,1-.349.519" transform="translate(-1158.198 -440.236)" fill="#331832"/>
                    <path id="Path_16673" data-name="Path 16673" d="M1366.325,528.425c0-.193.206-.271.385-.271a.533.533,0,0,1,.472.481c0,.291-.213.329-.393.329a.623.623,0,0,1-.464-.539" transform="translate(-1185.871 -456.014)" fill="#daebe8"/>
                    <path id="Path_16674" data-name="Path 16674" d="M1394.878,512.286a15.142,15.142,0,0,0-.617-1.987,1.052,1.052,0,0,0-.532-.552l.014-.05a1.078,1.078,0,0,1,.563.578,14.779,14.779,0,0,1,.621,2Z" transform="translate(-1209.656 -440.077)" fill="#366f90"/>
                    <path id="Path_16717" data-name="Path 16717" d="M0,0H.051L.031,1.992H-.019Z" transform="matrix(0.952, -0.306, 0.306, 0.952, 185.396, 72.769)" fill="#366f90"/>
                    <path id="Path_16675" data-name="Path 16675" d="M1334.507,520.526s-.126,1.065.709,1.166c1.064.129,2.522-.9,1.849-.992a6.774,6.774,0,0,0-1.473.038s2.226-.342,2.019-.853-2.118-.187-2.118-.187,2.145-.569,1.813-.974-2.068-.124-2.068-.124,2.119-.426,1.724-.886-1.459.017-1.946.1c-.461.079-.574.449-.488.958a1.74,1.74,0,0,0-.041.886c.049.12-.041.264-.041.359a3.823,3.823,0,0,0,.06.506" transform="translate(-1158.197 -446.831)" fill="#ffb27d"/>
                    <path id="Path_16676" data-name="Path 16676" d="M1398.456,533.878s-.561-1.835-1.523-2.284-2.5-.238-1.963.177a6.7,6.7,0,0,0,1.369.739s-1.8-.6-1.746-.088,1.62,1.023,1.62,1.023-2.192-.533-2-.064,1.862.862,1.862.862-2.058-.408-1.82.131,1.7.326,1.754.84.417,2.541,1.761,2.562Z" transform="translate(-1210.066 -458.768)" fill="#ffb27d"/>
                    <path id="Path_16677" data-name="Path 16677" d="M1410.976,540.06c-.13-.3-.641-.384-.646-.385l.013-.081c.023,0,.557.1.706.432Z" transform="translate(-1224.064 -465.892)" fill="#e9845c"/>
                    <path id="Path_16678" data-name="Path 16678" d="M1410.158,546.991a1.273,1.273,0,0,0-.78-.471l.011-.081a1.331,1.331,0,0,1,.834.5Z" transform="translate(-1223.238 -471.802)" fill="#e9845c"/>
                    <path id="Path_16679" data-name="Path 16679" d="M1409.077,552.793c-.114-.327-.721-.431-.727-.431l.012-.081c.027,0,.659.112.789.484Z" transform="translate(-1222.346 -476.846)" fill="#e9845c"/>
                    <path id="Path_16680" data-name="Path 16680" d="M1338.452,547.361a.656.656,0,0,1-.425-.11l.052-.062c.194.175.829.053,1.057-.008l.02.079a3.15,3.15,0,0,1-.7.1" transform="translate(-1161.31 -472.441)" fill="#e9845c"/>
                    <path id="Path_16681" data-name="Path 16681" d="M752.324,430.467a3.819,3.819,0,0,1-1.614-.618c-1.638-1.087-2.737-3.383-3.563-7.445a20.74,20.74,0,0,0-1.5-4.148l3.692-2.138a25.37,25.37,0,0,1,1.9,5.316c.287,1.411.439-7.5,1.146-8.338.433-.516,2.178.333,2.178.333a48.107,48.107,0,0,1,1.384,7.066,37.37,37.37,0,0,1,.307,5.259,9.285,9.285,0,0,1-.318,2.312,3.049,3.049,0,0,1-2.051,2.283,3.878,3.878,0,0,1-1.563.118" transform="translate(-647.166 -356.529)" fill="#ffb27d"/>
                    <path id="Path_16682" data-name="Path 16682" d="M795.054,532.6a1.3,1.3,0,0,1-.558-.114.381.381,0,0,1-.255-.317c0-.243.358-.434.816-.435a1.249,1.249,0,0,1,.562.114.381.381,0,0,1,.255.317c0,.243-.358.434-.816.435Zm0-.809v.057c-.416,0-.705.17-.7.32,0,.076.07.154.192.213a1.188,1.188,0,0,0,.51.1h0c.416,0,.705-.17.7-.32,0-.076-.07-.154-.192-.213a1.188,1.188,0,0,0-.51-.1h0Z" transform="translate(-689.343 -459.108)" fill="#e9845c"/>
                    <path id="Path_16683" data-name="Path 16683" d="M784.142,479.905a.056.056,0,0,1-.055-.051,10,10,0,0,1,.572-4.46.055.055,0,0,1,.074-.029.058.058,0,0,1,.028.076,9.861,9.861,0,0,0-.563,4.4.057.057,0,0,1-.048.064h-.007" transform="translate(-680.49 -410.432)" fill="#e9845c"/>
                    <path id="Path_16684" data-name="Path 16684" d="M797.534,405.478s2.244.206,3.122-.739,1.338-2.868.679-2.408a8.436,8.436,0,0,0-1.352,1.3s1.4-1.87.853-2.034-1.751,1.475-1.751,1.475,1.5-2.369.939-2.343-1.693,1.834-1.693,1.834,1.316-2.264.662-2.218-1.076,1.879-1.623,1.715-2.672-.728-2.672.928Z" transform="translate(-689.741 -345.662)" fill="#ffb27d"/>
                    <path id="Path_16685" data-name="Path 16685" d="M829.01,424.778a.048.048,0,0,1,0-.1c.358-.025.671-.593.674-.6a.046.046,0,0,1,.064-.018.049.049,0,0,1,.018.066c-.014.025-.341.619-.749.648h0" transform="translate(-719.48 -366.136)" fill="#e9845c"/>
                    <path id="Path_16686" data-name="Path 16686" d="M821.172,420.8a.047.047,0,0,1-.045-.035.049.049,0,0,1,.032-.06,1.588,1.588,0,0,0,.821-.721.046.046,0,0,1,.063-.02.049.049,0,0,1,.019.066,1.654,1.654,0,0,1-.878.768l-.013,0" transform="translate(-712.678 -362.601)" fill="#e9845c"/>
                    <path id="Path_16687" data-name="Path 16687" d="M815.865,417.03h-.009a.047.047,0,0,1-.046-.049.048.048,0,0,1,.048-.047h.007c.379,0,.746-.668.75-.675a.046.046,0,0,1,.064-.018.049.049,0,0,1,.018.066c-.016.03-.4.724-.831.724" transform="translate(-708.065 -359.381)" fill="#e9845c"/>
                    <path id="Path_16688" data-name="Path 16688" d="M710.787,838.791s.065,1.35.922,1.707,3.32.629,2.424,1.524c-.514.514-3,.264-3.7.284s-1.35.369-1.882-.122c-.586-.54-.083-3.326-.083-3.326a2.635,2.635,0,0,0,1.156.291,2.122,2.122,0,0,0,1.166-.359" transform="translate(-614.722 -724.222)" fill="#331832"/>
                    <path id="Path_16689" data-name="Path 16689" d="M707.446,538.667s.321,6.094-1.189,17.845c-1.091,8.484-2.415,17.039-3.067,21.141a3.048,3.048,0,0,1-2.69,2.665l-.723.052a2.579,2.579,0,0,1-2.606-2.821l1.139-27.657.224-9.1Z" transform="translate(-605.092 -465.091)" fill="#ef8062"/>
                    <path id="Path_16690" data-name="Path 16690" d="M650.043,840.5s.065,1.35.922,1.707,3.32.629,2.424,1.524c-.514.514-3,.264-3.7.284s-1.349.369-1.882-.122c-.586-.54-.083-3.326-.083-3.326a2.635,2.635,0,0,0,1.156.291,2.123,2.123,0,0,0,1.166-.359" transform="translate(-562.001 -725.698)" fill="#331832"/>
                    <path id="Path_16691" data-name="Path 16691" d="M646.7,540.377s.321,6.094-1.189,17.845c-1.091,8.484-2.415,17.039-3.067,21.141a3.048,3.048,0,0,1-2.69,2.665l-.724.052a2.579,2.579,0,0,1-2.606-2.821l1.139-27.657.224-9.1Z" transform="translate(-552.37 -466.568)" fill="#ef8062"/>
                    <path id="Path_16692" data-name="Path 16692" d="M640.966,577.5c.036.735,4.165.907,9.258.587s9.148-1.2,9.112-1.935-4.149-1.048-9.242-.728-9.164,1.34-9.128,2.075" transform="translate(-556.312 -496.718)" fill="#331832"/>
                    <path id="Path_16693" data-name="Path 16693" d="M639.222,412.566s.805-3.883,7.455-4.116c9.59-.336,8.939,9.2,10.188,23.635a55.819,55.819,0,0,0-18.38,1.167s-1.2-14.732.737-20.686" transform="translate(-553.841 -352.654)" fill="#764678"/>
                    <path id="Path_16694" data-name="Path 16694" d="M627.784,411.888l4.409,2.468s9.535.656,12.048.133a4.153,4.153,0,0,0,3.156-2.544,13.57,13.57,0,0,0-7.355-3.594,12.79,12.79,0,0,0-1.341-.125,12.184,12.184,0,0,0-2.309.117c-5.776.873-8.608,3.546-8.608,3.546" transform="translate(-544.871 -352.457)" fill="#764678"/>
                    <path id="Path_16695" data-name="Path 16695" d="M687.825,368.76l.458-1.764.133-.513.785-3.019.187,2.975.112,1.786.036.565c.024.384.243.458.515.784.11.132.815.932.048,1.325-.956.49-2.782-.156-3.493-1.052.005,0,1.07-.517,1.218-1.087" transform="translate(-595.925 -313.819)" fill="#ffb27d"/>
                    <path id="Path_16696" data-name="Path 16696" d="M662.443,583.159s-5.567-1.593-16.947,1.148l-.044,1.779,16.785.152Z" transform="translate(-560.206 -503.108)" fill="#ef8062"/>
                    <path id="Path_16697" data-name="Path 16697" d="M626.429,433.764c-.354.573.216,1.669,1.274,2.447s2.2.944,2.557.371-.216-1.669-1.274-2.447-2.2-.944-2.557-.371" transform="translate(-543.604 -374.222)" fill="#331832"/>
                    <path id="Path_16698" data-name="Path 16698" d="M595.49,461.8c.281-4.764.979-11.864,2.944-17.306a16.925,16.925,0,0,1,1.009-2.427c.292-.557-.285-1.745-1.162-2.294a2.335,2.335,0,0,0-2.274-.118,14.908,14.908,0,0,0-1.2,2.739,61.214,61.214,0,0,0-3.466,19.342Z" transform="translate(-513.245 -379.4)" fill="#ffb27d"/>
                    <path id="Path_16699" data-name="Path 16699" d="M712.263,351.187a4.2,4.2,0,0,1,.3,1.6c0,.929-1.258-1.074-1.258-1.074Z" transform="translate(-617.365 -303.219)" fill="#5c305d"/>
                    <path id="Path_16700" data-name="Path 16700" d="M690.048,350.174c-.537-1.675-2.016-2.643-3.3-2.162s-1.895,2.228-1.358,3.9,2.016,2.643,3.3,2.162,1.895-2.228,1.358-3.9" transform="translate(-594.697 -300.37)" fill="#ffb27d"/>
                    <path id="Path_16701" data-name="Path 16701" d="M671.074,338.511l1.144-.39a.9.9,0,0,0,.553-.553c.162-.458.411-.73,1.51-.927a2.439,2.439,0,0,0,2.135-2.154.838.838,0,0,0-1.43-.679c-.621.533-.5-.463-1.187-.414-1.282.092-1.318,1.181-2.345,1.373-1.346.253-3.534,1.882-1.914,4.172Z" transform="translate(-580.615 -287.854)" fill="#331832"/>
                    <path id="Path_16702" data-name="Path 16702" d="M701.536,369.238a.057.057,0,0,0,.015-.045.051.051,0,0,0-.055-.047.549.549,0,0,0-.5.472.055.055,0,0,0,.036.066c.027.008.048-.012.061-.038a.873.873,0,0,1,.414-.392.049.049,0,0,0,.029-.015" transform="translate(-608.414 -318.724)" fill="#080435"/>
                    <path id="Path_16703" data-name="Path 16703" d="M704.255,373.249c.054.115.16.174.237.132a.22.22,0,0,0,.042-.285c-.054-.115-.16-.174-.237-.131a.22.22,0,0,0-.042.284" transform="translate(-611.216 -322.01)" fill="#080435"/>
                    <path id="Path_16704" data-name="Path 16704" d="M715.26,364.809a.039.039,0,0,0,.021-.032.066.066,0,0,0-.033-.067.337.337,0,0,0-.487.172.068.068,0,0,0,.013.074.035.035,0,0,0,.056,0,.5.5,0,0,1,.4-.143.031.031,0,0,0,.025,0" transform="translate(-620.356 -314.854)" fill="#080435"/>
                    <path id="Path_16705" data-name="Path 16705" d="M715.97,368.871c.009.128.087.226.173.219s.149-.117.139-.246-.087-.227-.173-.219-.149.117-.139.245" transform="translate(-621.409 -318.275)" fill="#080435"/>
                    <path id="Path_16706" data-name="Path 16706" d="M673.314,368.007s1.165,1.7,2.336,1.586c0,0-1.2-1.228.586-2.534a6,6,0,0,0-2.923.948" transform="translate(-584.388 -316.923)" fill="#5c305d"/>
                    <path id="Path_16707" data-name="Path 16707" d="M684.671,372.6a.5.5,0,0,0,.672-.277.561.561,0,0,0-.331-.69.5.5,0,0,0-.672.277.562.562,0,0,0,.331.69" transform="translate(-593.933 -320.836)" fill="#ffb27d"/>
                    <path id="Path_16708" data-name="Path 16708" d="M690.385,367.059s.144,1.613.5,1.845a5.06,5.06,0,0,0,3.188-.661,2.145,2.145,0,0,1-1.178,2.425,2.652,2.652,0,0,1-.939.2,1.878,1.878,0,0,1-1.731-.711,6.609,6.609,0,0,1-.112-1.433,1.435,1.435,0,0,0-.5-1.009,1.947,1.947,0,0,1,.77-.661" transform="translate(-598.536 -316.923)" fill="#5c305d"/>
                    <path id="Path_16709" data-name="Path 16709" d="M710.1,334.051a.376.376,0,0,1-.352-.266l.066-.02a.306.306,0,0,0,.4.2l.017.069a.52.52,0,0,1-.129.017" transform="translate(-616.01 -288.177)" fill="#331832"/>
                    <path id="Path_16710" data-name="Path 16710" d="M711.456,339.679l-.017-.031a4.455,4.455,0,0,0,.688-.5,1.5,1.5,0,0,0,.612-1.13c-.027-.239-.094-.385-.2-.448-.171-.1-.421.027-.64.137l-.1.049-.014-.032.1-.049c.228-.113.485-.241.672-.136.12.068.193.224.221.475.1.854-1.259,1.637-1.317,1.67" transform="translate(-617.477 -291.397)" fill="#fff"/>
                    <path id="Path_16711" data-name="Path 16711" d="M683.865,339.092l0-.035a2.421,2.421,0,0,0,2-1.142l.031.016a2.457,2.457,0,0,1-2.032,1.162" transform="translate(-593.543 -291.759)" fill="#fff"/>
                    <path id="Path_16712" data-name="Path 16712" d="M712.486,383.662a.268.268,0,0,1-.152.329c-.114.025-.23-.081-.26-.238a.268.268,0,0,1,.152-.329c.114-.025.23.081.26.238" transform="translate(-618.022 -331.05)" fill="#fff"/>
                    <path id="Path_16713" data-name="Path 16713" d="M608.607,511.2a.446.446,0,0,1-.063,0c-.347-.052-.566-.5-.5-1.027a1.119,1.119,0,0,1,.366-.734.486.486,0,0,1,.373-.111c.347.051.566.5.5,1.027a1.119,1.119,0,0,1-.366.734.5.5,0,0,1-.31.116m.115-1.708a.347.347,0,0,0-.209.08.943.943,0,0,0-.3.618h0c-.053.414.11.8.356.832a.328.328,0,0,0,.247-.078.943.943,0,0,0,.3-.618c.053-.415-.11-.8-.356-.832a.256.256,0,0,0-.039,0" transform="translate(-527.728 -439.749)" fill="#ec865c"/>
                    <path id="Path_16714" data-name="Path 16714" d="M587.247,591.17s3.555.115,3.676.392c.279.64.565,2.036.833,2.682.116.28.446,1.251.2,1.411-.211.14-.814-.5-1.067-.839-.352,1.985-1.36,4.726-1.236.493h-.006c-.083.422-.5,3.07-1.065,2.987-.433-.063-.117-2.554.012-3.25l-.018-.006c-.188.695-.5,2.779-1,2.656-.42-.1-.032-3-.032-3s-.53,2.356-.887,1.905c-.327-.414.113-2.636.244-3.31.136-.7.342-2.126.342-2.126" transform="translate(-509.077 -510.423)" fill="#ffb27d"/>
                    <path id="Path_16715" data-name="Path 16715" d="M755.368,435.649a9.616,9.616,0,0,0-1.271-2.4l.089-.07a9.753,9.753,0,0,1,1.289,2.437Z" transform="translate(-654.502 -374.013)" fill="#331832"/>
                    <path id="Path_16716" data-name="Path 16716" d="M702.665,623.8l-.111-.015c.006-.05.625-5.044,1.091-6.837.47-1.81,2.636-3.372,2.657-3.387l.063.1a7.529,7.529,0,0,0-2.613,3.322c-.464,1.786-1.082,6.772-1.088,6.822" transform="translate(-609.766 -529.757)" fill="#331832"/>
                  </g>
                </g>
              </g>
            </g>
          </g>
        </g>
      </g>
    </g>
  </g>
</svg>
