<svg xmlns="http://www.w3.org/2000/svg" width="99.706" height="94.888" viewBox="0 0 99.706 94.888">
  <path id="Next_Activity" data-name="Next Activity" d="M56.923,73.521A21.366,21.366,0,1,1,78.288,94.887,21.366,21.366,0,0,1,56.923,73.521ZM80.662,87.765v2.2A16.651,16.651,0,0,0,94.734,75.9h-2.2a2.374,2.374,0,1,1,0-4.748h2.2A16.651,16.651,0,0,0,80.662,57.076v2.2a2.374,2.374,0,0,1-4.748,0v-2.2A16.652,16.652,0,0,0,61.843,71.147h2.2a2.374,2.374,0,0,1,0,4.748h-2.2A16.652,16.652,0,0,0,75.914,89.966v-2.2a2.374,2.374,0,0,1,4.748,0Zm-65.627-11.8a2.374,2.374,0,0,1-2.374-2.374V67.26H55.389a23.809,23.809,0,0,0-.715,8.7Zm62.191-.319L70.9,72.48a2.374,2.374,0,0,1,2.123-4.247l4.8,2.4,5.121-5.121A2.374,2.374,0,1,1,86.3,68.869L79.967,75.2a2.373,2.373,0,0,1-2.74.445ZM2.374,64.886A2.374,2.374,0,0,1,.067,61.952L8.468,27.3H87.737L82.205,50.107a23.743,23.743,0,0,0-26.03,14.779Zm41.149-9.5A2.374,2.374,0,0,0,45.9,57.764h6.331a2.374,2.374,0,0,0,0-4.748H45.9A2.374,2.374,0,0,0,43.523,55.39Zm-15.826,0a2.374,2.374,0,0,0,2.374,2.374H36.4a2.374,2.374,0,0,0,0-4.748H30.07A2.374,2.374,0,0,0,27.7,55.39Zm-15.826,0a2.374,2.374,0,0,0,2.374,2.374h6.331a2.374,2.374,0,0,0,0-4.748H14.244A2.374,2.374,0,0,0,11.87,55.39Zm49.061-9.5a2.374,2.374,0,0,0,2.374,2.374h6.33a2.374,2.374,0,1,0,0-4.748h-6.33A2.374,2.374,0,0,0,60.932,45.894Zm-15.826,0a2.374,2.374,0,0,0,2.374,2.374h6.33a2.374,2.374,0,1,0,0-4.748h-6.33A2.374,2.374,0,0,0,45.106,45.894Zm-15.826,0a2.374,2.374,0,0,0,2.374,2.374h6.331a2.374,2.374,0,0,0,0-4.748H31.653A2.374,2.374,0,0,0,29.279,45.894Zm-15.826,0a2.374,2.374,0,0,0,2.374,2.374h6.331a2.374,2.374,0,0,0,0-4.748H15.827A2.374,2.374,0,0,0,13.453,45.894ZM64.1,36.4a2.374,2.374,0,0,0,2.374,2.374H72.8a2.374,2.374,0,0,0,0-4.748h-6.33A2.374,2.374,0,0,0,64.1,36.4Zm-15.826,0a2.374,2.374,0,0,0,2.374,2.374h6.33a2.374,2.374,0,1,0,0-4.748h-6.33A2.374,2.374,0,0,0,48.271,36.4Zm-15.826,0a2.374,2.374,0,0,0,2.374,2.374h6.33a2.374,2.374,0,1,0,0-4.748h-6.33A2.374,2.374,0,0,0,32.444,36.4Zm-15.826,0a2.374,2.374,0,0,0,2.374,2.374h6.33a2.374,2.374,0,1,0,0-4.748h-6.33A2.374,2.374,0,0,0,16.618,36.4ZM94.167,55.89v-45.6a4.715,4.715,0,0,0-.639-2.374h3.8a2.374,2.374,0,0,1,2.374,2.374v53A23.872,23.872,0,0,0,94.167,55.89Zm-9.64-5.274,7.266-29.971V54.009A23.655,23.655,0,0,0,84.527,50.616ZM9.044,24.924l3.684-15.2a2.374,2.374,0,0,1,2.308-1.815h1.392A12.652,12.652,0,0,0,28.862,22.946a4.748,4.748,0,1,0,0-9.5,3.161,3.161,0,0,1-2.086-5.539h13.6A12.652,12.652,0,0,0,52.81,22.946a4.748,4.748,0,1,0,0-9.5,3.161,3.161,0,0,1-2.087-5.539h13.6A12.653,12.653,0,0,0,76.758,22.946a4.748,4.748,0,1,0,0-9.5,3.161,3.161,0,0,1-2.087-5.539H89.419a2.374,2.374,0,0,1,2.307,2.933l-3.412,14.08Zm67.714-4.352A10.285,10.285,0,1,1,85.879,5.537H79.608a5.539,5.539,0,1,0-2.85,10.287,2.374,2.374,0,1,1,0,4.748Zm-23.949,0A10.285,10.285,0,1,1,61.93,5.537H55.659A5.539,5.539,0,1,0,52.81,15.824a2.374,2.374,0,0,1,0,4.748Zm-23.947,0A10.286,10.286,0,1,1,37.983,5.537H31.712a5.539,5.539,0,1,0-2.85,10.287,2.374,2.374,0,1,1,0,4.748Z" transform="translate(0 0)"/>
</svg>
