<svg xmlns="http://www.w3.org/2000/svg" width="115.041" height="115.041" viewBox="0 0 115.041 115.041"><defs><style>.a{fill:#e2e2e2;opacity:0.35;}.b,.c{fill:none;stroke:#666;}.b{stroke-linecap:round;stroke-linejoin:round;stroke-width:1.592px;}.c{stroke-miterlimit:10;}.d{fill:#ffc400;}.e{fill:#777;}</style></defs><g transform="translate(-469.525 -375.154)"><circle class="a" cx="57.521" cy="57.521" r="57.521" transform="translate(469.525 375.154)"/><g transform="translate(5.525 37.154)"><g transform="translate(-642.436 -80)"><g transform="translate(636.863 42.846)"><line class="b" x2="38.598" transform="translate(505.55 452.2)"/><line class="b" x2="38.598" transform="translate(505.55 458.46)"/><line class="b" x2="32.338" transform="translate(505.55 464.72)"/><path class="b" d="M558.462,445.341c6.237,0,5.619,5.642,5.619,5.642a2.506,2.506,0,0,1-.011-.287,5.515,5.515,0,0,1,5.509-5.531c-5.619,0-5.509-5.951-5.509-5.951C564.07,445,558.45,445.341,558.462,445.341Z"/><circle class="c" cx="3.036" cy="3.036" r="3.036" transform="translate(573.223 429.321)"/><path class="b" d="M474.627,416.649c6.238,0,5.62,5.642,5.62,5.642a2.5,2.5,0,0,1-.011-.287,5.515,5.515,0,0,1,5.509-5.531c-5.619,0-5.509-5.951-5.509-5.951C480.236,416.307,474.616,416.649,474.627,416.649Z"/><circle class="c" cx="3.036" cy="3.036" r="3.036" transform="translate(489.389 400.63)"/><circle class="d" cx="12.5" cy="12.5" r="12.5" transform="translate(521.137 421.154)"/></g><g transform="translate(1150.141 459.369)"><path class="e" d="M-992.6,474.717h-20.6a2.219,2.219,0,0,0-2.2,2.235v11.319a2.219,2.219,0,0,0,2.2,2.235h.977v3.178a1.479,1.479,0,0,0,1.464,1.49h5.567a1.48,1.48,0,0,0,1.465-1.49v-3.178H-992.6a2.219,2.219,0,0,0,2.2-2.235V476.952A2.219,2.219,0,0,0-992.6,474.717Zm-12.6,18.966h-5.567v-4.32a3.012,3.012,0,0,1,2.784-3.226,3.011,3.011,0,0,1,2.783,3.226Zm-4.785-11.071a2.021,2.021,0,0,1,2-2.037,2.022,2.022,0,0,1,2,2.037,2.021,2.021,0,0,1-2,2.035A2.021,2.021,0,0,1-1009.985,482.612Zm18.115,5.659a.739.739,0,0,1-.732.745h-11.146a5.111,5.111,0,0,0-1.1-2.859,4.214,4.214,0,0,0-.914-.837,3.54,3.54,0,0,0,1.25-2.708,3.5,3.5,0,0,0-3.467-3.526,3.5,3.5,0,0,0-3.467,3.526,3.545,3.545,0,0,0,1.25,2.708,4.2,4.2,0,0,0-.913.837,5.111,5.111,0,0,0-1.106,2.859h-.989a.739.739,0,0,1-.732-.745V476.952a.739.739,0,0,1,.732-.745h20.6a.739.739,0,0,1,.732.745Z" transform="translate(1015.405 -474.717)"/><path class="e" d="M-998.966,477.645h-3.459a.648.648,0,0,0-.649.649.649.649,0,0,0,.649.648h3.459a.648.648,0,0,0,.647-.648A.647.647,0,0,0-998.966,477.645Z" transform="translate(1020.508 -473.632)"/><path class="e" d="M-998.966,479.987h-3.459a.648.648,0,0,0-.649.648.649.649,0,0,0,.649.648h3.459a.648.648,0,0,0,.647-.648A.647.647,0,0,0-998.966,479.987Z" transform="translate(1020.508 -472.764)"/><path class="e" d="M-998.966,482.329h-3.459a.648.648,0,0,0-.649.648.649.649,0,0,0,.649.648h3.459a.648.648,0,0,0,.647-.648A.647.647,0,0,0-998.966,482.329Z" transform="translate(1020.508 -471.896)"/><circle class="e" cx="0.648" cy="0.648" r="0.648" transform="translate(13.425 10.432)"/><circle class="e" cx="0.648" cy="0.648" r="0.648" transform="translate(13.425 7.222)"/><circle class="e" cx="0.648" cy="0.648" r="0.648" transform="translate(13.425 4.013)"/></g></g></g></g></svg>