<svg xmlns="http://www.w3.org/2000/svg" width="115.041" height="115.041" viewBox="0 0 115.041 115.041"><defs><style>.a{fill:#fff;opacity:0.5;}.b{fill:#ffc400;}.c,.d{fill:none;stroke:#666;}.c{stroke-linecap:round;stroke-linejoin:round;stroke-width:1.592px;}.d{stroke-miterlimit:10;}</style></defs><g transform="translate(-469.441 -375.154)"><circle class="a" cx="57.521" cy="57.521" r="57.521" transform="translate(469.441 375.154)"/><path class="b" d="M512.362,418.14h37.272a.546.546,0,0,1,.552.552V445a.546.546,0,0,1-.552.552H512.362a.546.546,0,0,1-.552-.552V418.692A.554.554,0,0,1,512.362,418.14Z"/><path class="c" d="M506.1,411.7h37.273a.547.547,0,0,1,.552.552v26.31a.547.547,0,0,1-.552.552H506.1a.547.547,0,0,1-.552-.552v-26.31A.554.554,0,0,1,506.1,411.7Z"/><path class="c" d="M521.614,421.838v8.2l6.249-4.295Z"/><line class="c" x2="38.598" transform="translate(505.55 452.2)"/><line class="c" x2="38.598" transform="translate(505.55 458.46)"/><line class="c" x2="32.338" transform="translate(505.55 464.72)"/><path class="c" d="M558.462,445.341c6.237,0,5.619,5.642,5.619,5.642a2.506,2.506,0,0,1-.011-.287,5.515,5.515,0,0,1,5.509-5.531c-5.619,0-5.509-5.951-5.509-5.951C564.07,445,558.45,445.341,558.462,445.341Z"/><circle class="d" cx="3.036" cy="3.036" r="3.036" transform="translate(573.223 429.321)"/><path class="c" d="M474.627,416.649c6.238,0,5.62,5.642,5.62,5.642a2.5,2.5,0,0,1-.011-.287,5.515,5.515,0,0,1,5.509-5.531c-5.619,0-5.509-5.951-5.509-5.951C480.236,416.307,474.616,416.649,474.627,416.649Z"/><circle class="d" cx="3.036" cy="3.036" r="3.036" transform="translate(489.389 400.63)"/></g></svg>