<svg xmlns="http://www.w3.org/2000/svg" width="115.041" height="115.041" viewBox="0 0 115.041 115.041"><defs><style>.a{fill:#fff;opacity:0.5;}.b,.c,.e{fill:none;}.b,.c{stroke:#666;}.b{stroke-linecap:round;stroke-linejoin:round;stroke-width:1.592px;}.c{stroke-miterlimit:10;}.d{fill:#ffc400;}.f{fill:#777;}</style></defs><g transform="translate(-463.48 -338)"><circle class="a" cx="57.521" cy="57.521" r="57.521" transform="translate(463.48 338)"/><g transform="translate(-642.436 -80)"><g transform="translate(636.863 42.846)"><line class="b" x2="38.598" transform="translate(505.55 452.2)"/><line class="b" x2="38.598" transform="translate(505.55 458.46)"/><line class="b" x2="32.338" transform="translate(505.55 464.72)"/><path class="b" d="M558.462,445.341c6.237,0,5.619,5.642,5.619,5.642a2.506,2.506,0,0,1-.011-.287,5.515,5.515,0,0,1,5.509-5.531c-5.619,0-5.509-5.951-5.509-5.951C564.07,445,558.45,445.341,558.462,445.341Z"/><circle class="c" cx="3.036" cy="3.036" r="3.036" transform="translate(573.223 429.321)"/><path class="b" d="M474.627,416.649c6.238,0,5.62,5.642,5.62,5.642a2.5,2.5,0,0,1-.011-.287,5.515,5.515,0,0,1,5.509-5.531c-5.619,0-5.509-5.951-5.509-5.951C480.236,416.307,474.616,416.649,474.627,416.649Z"/><circle class="c" cx="3.036" cy="3.036" r="3.036" transform="translate(489.389 400.63)"/><circle class="d" cx="12.5" cy="12.5" r="12.5" transform="translate(521.137 421.154)"/></g><g transform="translate(1148.333 451.333)"><path class="e" d="M0,0H30.291V30.291H0Z"/><path class="f" d="M23.928,15.858a9.836,9.836,0,0,0,.088-1.237,9.836,9.836,0,0,0-.088-1.237L26.591,11.3a.637.637,0,0,0,.151-.808L24.218,6.127a.63.63,0,0,0-.555-.316.59.59,0,0,0-.215.038L20.306,7.112a9.221,9.221,0,0,0-2.133-1.237l-.48-3.345A.615.615,0,0,0,17.075,2H12.026a.615.615,0,0,0-.618.53l-.48,3.345A9.7,9.7,0,0,0,8.8,7.112L5.652,5.85a.715.715,0,0,0-.227-.038.625.625,0,0,0-.543.316L2.358,10.494a.622.622,0,0,0,.151.808l2.663,2.083a10.009,10.009,0,0,0-.088,1.237,10.009,10.009,0,0,0,.088,1.237L2.51,17.941a.637.637,0,0,0-.151.808l2.524,4.367a.63.63,0,0,0,.555.316.59.59,0,0,0,.215-.038L8.8,22.131a9.221,9.221,0,0,0,2.133,1.237l.48,3.345a.615.615,0,0,0,.618.53h5.049a.615.615,0,0,0,.618-.53l.48-3.345a9.7,9.7,0,0,0,2.133-1.237l3.143,1.262a.715.715,0,0,0,.227.038.625.625,0,0,0,.543-.316l2.524-4.367a.637.637,0,0,0-.151-.808Zm-2.5-2.158a6.743,6.743,0,0,1,.063.921c0,.265-.025.543-.063.921l-.177,1.426,1.123.883,1.363,1.06-.883,1.527-1.6-.644-1.313-.53-1.136.858a7.392,7.392,0,0,1-1.578.921l-1.338.543-.2,1.426-.252,1.7H13.667l-.24-1.7-.2-1.426-1.338-.543a7.161,7.161,0,0,1-1.552-.9l-1.149-.883-1.338.543-1.6.644-.883-1.527,1.363-1.06,1.123-.883-.177-1.426c-.038-.391-.063-.682-.063-.934s.025-.543.063-.921l.177-1.426L6.725,11.39,5.362,10.33,6.246,8.8l1.6.644,1.313.53L10.3,9.118A7.392,7.392,0,0,1,11.875,8.2l1.338-.543.2-1.426.252-1.7h1.754l.24,1.7.2,1.426L17.2,8.2a7.161,7.161,0,0,1,1.552.9l1.149.883,1.338-.543,1.6-.644.883,1.527-1.35,1.073-1.123.883.177,1.426ZM14.55,9.573A5.049,5.049,0,1,0,19.6,14.621,5.047,5.047,0,0,0,14.55,9.573Zm0,7.573a2.524,2.524,0,1,1,2.524-2.524A2.532,2.532,0,0,1,14.55,17.146Z" transform="translate(0.595 0.524)"/></g></g></g></svg>