<svg xmlns="http://www.w3.org/2000/svg" width="115.041" height="115.041" viewBox="0 0 115.041 115.041"><defs><style>.a{fill:#e2e2e2;opacity:0.35;}.b{fill:#ffc400;}.c,.d{fill:none;stroke:#666;}.c{stroke-linecap:round;stroke-linejoin:round;stroke-width:1.592px;}.d{stroke-miterlimit:10;}.e{fill:#666;}</style></defs><g transform="translate(-625.5 -300.671)"><path class="a" d="M57.521,0A57.521,57.521,0,1,1,0,57.521,57.521,57.521,0,0,1,57.521,0Z" transform="translate(625.5 300.671)"/><g transform="translate(155.974 -74.482)"><circle class="b" cx="12.5" cy="12.5" r="12.5" transform="translate(521.526 422.154)"/><line class="c" x2="38.598" transform="translate(505.55 452.2)"/><line class="c" x2="38.598" transform="translate(505.55 458.46)"/><line class="c" x2="32.338" transform="translate(505.55 464.72)"/><path class="c" d="M558.462,445.341c6.237,0,5.619,5.642,5.619,5.642a2.506,2.506,0,0,1-.011-.287,5.515,5.515,0,0,1,5.509-5.531c-5.619,0-5.509-5.951-5.509-5.951C564.07,445,558.45,445.341,558.462,445.341Z"/><circle class="d" cx="3.036" cy="3.036" r="3.036" transform="translate(573.223 429.321)"/><path class="c" d="M474.627,416.649c6.238,0,5.62,5.642,5.62,5.642a2.5,2.5,0,0,1-.011-.287,5.515,5.515,0,0,1,5.509-5.531c-5.619,0-5.509-5.951-5.509-5.951C480.236,416.307,474.616,416.649,474.627,416.649Z"/><circle class="d" cx="3.036" cy="3.036" r="3.036" transform="translate(489.389 400.63)"/><g transform="translate(478.642 407.154)"><path class="e" d="M25,1.79H15.219a2.962,2.962,0,0,0-5.44,0H0V30.555H25ZM7.693,3.582h3.845V2.69a.964.964,0,0,1,1.923,0v.891h3.846V5.371H7.688ZM23.077,28.765H1.923V3.582H5.769V7.158H19.231V3.582h3.846Zm0,0" transform="translate(33.884 0.001)"/><path class="e" d="M64.631,160.785l-3.7,4.321-6.238,7.3-1.684,5.905,5.052-1.968L68,164.728Zm-7.425,13.929-1.684.656.561-1.968,5.975-6.983,1.123,1.312Zm6.2-9.339-.225-.259,1.451-1.7,1.123,1.312-1.451,1.7Zm0,0" transform="translate(-14.144 -152.51)"/></g></g></g></svg>