<svg xmlns="http://www.w3.org/2000/svg" width="115.041" height="115.041" viewBox="0 0 115.041 115.041">
  <g id="Group_14551" data-name="Group 14551" transform="translate(-463.48 -338)">
    <circle id="Ellipse_1" data-name="Ellipse 1" cx="57.521" cy="57.521" r="57.521" transform="translate(463.48 338)" fill="#fff" opacity="0.5"/>
    <g id="Group_14544" data-name="Group 14544" transform="translate(-642.436 -80)">
      <g id="Group_1" data-name="Group 1" transform="translate(636.863 42.846)">
        <line id="Line_9" data-name="Line 9" x2="38.598" transform="translate(505.55 452.2)" fill="none" stroke="#666" stroke-linecap="round" stroke-linejoin="round" stroke-width="1.592"/>
        <line id="Line_10" data-name="Line 10" x2="38.598" transform="translate(505.55 458.46)" fill="none" stroke="#666" stroke-linecap="round" stroke-linejoin="round" stroke-width="1.592"/>
        <line id="Line_11" data-name="Line 11" x2="32.338" transform="translate(505.55 464.72)" fill="none" stroke="#666" stroke-linecap="round" stroke-linejoin="round" stroke-width="1.592"/>
        <g id="Group_143" data-name="Group 143">
          <path id="Path_53" data-name="Path 53" d="M558.462,445.341c6.237,0,5.619,5.642,5.619,5.642a2.506,2.506,0,0,1-.011-.287,5.515,5.515,0,0,1,5.509-5.531c-5.619,0-5.509-5.951-5.509-5.951C564.07,445,558.45,445.341,558.462,445.341Z" fill="none" stroke="#666" stroke-linecap="round" stroke-linejoin="round" stroke-width="1.592"/>
          <circle id="Ellipse_17" data-name="Ellipse 17" cx="3.036" cy="3.036" r="3.036" transform="translate(573.223 429.321)" fill="none" stroke="#666" stroke-width="1"/>
        </g>
        <g id="Group_143-2" data-name="Group 143">
          <path id="Path_53-2" data-name="Path 53" d="M474.627,416.649c6.238,0,5.62,5.642,5.62,5.642a2.5,2.5,0,0,1-.011-.287,5.515,5.515,0,0,1,5.509-5.531c-5.619,0-5.509-5.951-5.509-5.951C480.236,416.307,474.616,416.649,474.627,416.649Z" fill="none" stroke="#666" stroke-linecap="round" stroke-linejoin="round" stroke-width="1.592"/>
          <circle id="Ellipse_17-2" data-name="Ellipse 17" cx="3.036" cy="3.036" r="3.036" transform="translate(489.389 400.63)" fill="none" stroke="#666" stroke-width="1"/>
        </g>
        <circle id="Ellipse_604" data-name="Ellipse 604" cx="12.5" cy="12.5" r="12.5" transform="translate(521.137 421.154)" fill="#ffc400"/>
      </g>
      <path id="Union_64-2" data-name="Union 64-2" d="M-1344.122,278.669h-.345a2.432,2.432,0,0,1-2.466-2.384v-2.757a2.288,2.288,0,0,0-.809-1.756,8.176,8.176,0,0,1-2.593-8.405A8.67,8.67,0,0,1-1342,257.2a8.6,8.6,0,0,1,8.06,5.382,8.165,8.165,0,0,1-2.346,9.211,2.284,2.284,0,0,0-.787,1.743v2.754a2.433,2.433,0,0,1-2.463,2.387h-.347a2.476,2.476,0,0,1-3.4.828,2.47,2.47,0,0,1-.829-.828Zm-.345-2.386h4.926V275.09h-4.926Zm0-2.387h4.926v-1.191h-4.926Zm6.248-3.577c.1-.1.183-.214.293-.31a5.835,5.835,0,0,0,1.68-6.577,6.235,6.235,0,0,0-8.145-3.376,6.24,6.24,0,0,0-3.371,3.365A5.831,5.831,0,0,0-1346.09,270a3.684,3.684,0,0,1,.292.322h3.177v-3.092l-2.25-2.178.872-.844,2,1.939,1.991-1.929.872.844-2.254,2.184v3.075Zm8.941-3.661-1.61-.165a.79.79,0,0,1-.722-.853v-.009a.8.8,0,0,1,.89-.7l1.61.162a.785.785,0,0,1,.7.857.785.785,0,0,1-.788.708.734.734,0,0,1-.088,0Zm-26.493-.7a.792.792,0,0,1,.715-.864h.007l1.618-.161a.8.8,0,0,1,.89.7.792.792,0,0,1-.713.862h-.008l-1.612.165h-.085A.8.8,0,0,1-1355.771,265.96Zm2.664-4.041-1.544-.479a.781.781,0,0,1-.525-.971l.008-.024a.816.816,0,0,1,1.016-.5l1.538.485a.779.779,0,0,1,.525.969l-.006.017h0a.783.783,0,0,1-.4.457.829.829,0,0,1-.623.046Zm21.009-.623a.781.781,0,0,1,.548-.872l1.541-.479a.814.814,0,0,1,1.019.5.778.778,0,0,1-.5.981l-.019.006-1.538.486a.823.823,0,0,1-.25.037.8.8,0,0,1-.8-.658Zm-2.1-4.66,1.208-1.047a.828.828,0,0,1,1.12.078.768.768,0,0,1-.033,1.086h0l-1.2,1.048h0a.827.827,0,0,1-.54.2C-1333.878,258-1334.53,256.926-1334.2,256.637Zm-16.841,1.164-1.2-1.048a.773.773,0,0,1-.277-.757.794.794,0,0,1,.555-.6.827.827,0,0,1,.8.192l1.2,1.049a.767.767,0,0,1,.085,1.082l-.024.027a.828.828,0,0,1-1.143.057Zm12.893-2.833a.763.763,0,0,1-.059-.748l.659-1.433a.823.823,0,0,1,1.049-.357.776.776,0,0,1,.428,1l-.656,1.427a.805.805,0,0,1-.676.463.816.816,0,0,1-.747-.356Zm-9.283-.114-.658-1.432a.774.774,0,0,1,.386-1.025l.023-.009a.819.819,0,0,1,1.068.4l.661,1.435a.774.774,0,0,1-.386,1.025l-.023.01A.818.818,0,0,1-1347.43,254.854Zm4.54-1.268v-1.568a.808.808,0,0,1,.853-.764.81.81,0,0,1,.765.764v1.57a.81.81,0,0,1-.854.764.81.81,0,0,1-.764-.764Z" transform="translate(2507.061 197.621)" fill="#666"/>
    </g>
  </g>
</svg>
