<svg xmlns="http://www.w3.org/2000/svg" width="115.041" height="115.041" viewBox="0 0 115.041 115.041"><defs><style>.a{fill:rgba(226,226,226,0.35);}.b{fill:#ffc400;}.c,.d{fill:none;stroke:#666;}.c{stroke-linecap:round;stroke-linejoin:round;stroke-width:1.592px;}.d{stroke-miterlimit:10;}.e{fill:#666;}</style></defs><g transform="translate(-626 -300.672)"><path class="a" d="M57.521,0A57.521,57.521,0,1,1,0,57.521,57.521,57.521,0,0,1,57.521,0Z" transform="translate(626 300.672)"/><g transform="translate(155.974 -74.482)"><circle class="b" cx="12.5" cy="12.5" r="12.5" transform="translate(521.526 422.154)"/><line class="c" x2="38.598" transform="translate(505.55 452.2)"/><line class="c" x2="38.598" transform="translate(505.55 458.46)"/><line class="c" x2="32.338" transform="translate(505.55 464.72)"/><path class="c" d="M558.462,445.341c6.237,0,5.619,5.642,5.619,5.642a2.506,2.506,0,0,1-.011-.287,5.515,5.515,0,0,1,5.509-5.531c-5.619,0-5.509-5.951-5.509-5.951C564.07,445,558.45,445.341,558.462,445.341Z"/><circle class="d" cx="3.036" cy="3.036" r="3.036" transform="translate(573.223 429.321)"/><path class="c" d="M474.627,416.649c6.238,0,5.62,5.642,5.62,5.642a2.5,2.5,0,0,1-.011-.287,5.515,5.515,0,0,1,5.509-5.531c-5.619,0-5.509-5.951-5.509-5.951C480.236,416.307,474.616,416.649,474.627,416.649Z"/><circle class="d" cx="3.036" cy="3.036" r="3.036" transform="translate(489.389 400.63)"/><g transform="translate(512.044 405.321)"><path class="e" d="M16.017,3.576a8.927,8.927,0,0,1,8.7,7.024,9.033,9.033,0,0,1-4.878,10.118v6.04H10.922V22.894H9.648a2.525,2.525,0,0,1-1.8-.752A2.581,2.581,0,0,1,7.1,20.318V16.455H5.19a.658.658,0,0,1-.577-.359.672.672,0,0,1,.042-.684L7.1,12.153a8.96,8.96,0,0,1,8.916-8.577m0-2.576A11.524,11.524,0,0,0,4.629,11.187L2.642,13.879a3.151,3.151,0,0,0-.331,3.336,3.19,3.19,0,0,0,2.242,1.752v1.352A5.142,5.142,0,0,0,8.374,25.3v4.031H22.386V22.211a11.452,11.452,0,0,0,5.1-9.621A11.546,11.546,0,0,0,16.017,1m3.949,10.844V11.3a1.069,1.069,0,0,0-.076-.489l1.134-.85c.089-.052.089-.232.089-.361L20.067,7.852a.281.281,0,0,0-.357-.116l-1.261.541a2.208,2.208,0,0,0-.828-.541l-.2-1.327c-.038-.18-.127-.258-.28-.258H15.112a.229.229,0,0,0-.18.072.235.235,0,0,0-.062.185l-.178,1.327a2.605,2.605,0,0,0-.841.541l-1.312-.541c-.115-.064-.217,0-.293.116L11.227,9.6c-.064.18-.064.309.064.361l1.07.85c0,.18-.038.361-.038.489,0,.18.038.361.038.541l-1.07.837c-.127.064-.127.18-.064.309l1.019,1.8c.076.129.178.129.293.129l1.261-.554a2.539,2.539,0,0,0,.892.489l.178,1.391a.229.229,0,0,0,.242.206h2.025a.279.279,0,0,0,.28-.206l.2-1.391a2.22,2.22,0,0,0,.828-.477l1.261.541c.127,0,.293,0,.357-.129l1.044-1.8c0-.129,0-.245-.089-.309l-1.057-.837m-3.821,1.327A1.851,1.851,0,0,1,14.335,11.3a1.8,1.8,0,0,1,.524-1.3,1.763,1.763,0,0,1,1.285-.52,1.8,1.8,0,0,1,1.291.522,1.84,1.84,0,0,1,.544,1.294,1.864,1.864,0,0,1-1.834,1.867Z" transform="translate(0)"/></g></g></g></svg>