<svg xmlns="http://www.w3.org/2000/svg" width="115.041" height="115.041" viewBox="0 0 115.041 115.041"><defs><style>.a{fill:rgba(226,226,226,0.35);}.b{fill:#ffc400;}.c,.d{fill:none;stroke:#666;}.c{stroke-linecap:round;stroke-linejoin:round;stroke-width:1.592px;}.d{stroke-miterlimit:10;}.e{fill:#666;}</style></defs><g transform="translate(-626 -300.672)"><path class="a" d="M57.521,0A57.521,57.521,0,1,1,0,57.521,57.521,57.521,0,0,1,57.521,0Z" transform="translate(626 300.672)"/><g transform="translate(155.974 -74.483)"><circle class="b" cx="12.5" cy="12.5" r="12.5" transform="translate(521.526 422.154)"/><line class="c" x2="38.598" transform="translate(505.55 452.2)"/><line class="c" x2="38.598" transform="translate(505.55 458.46)"/><line class="c" x2="32.338" transform="translate(505.55 464.72)"/><path class="c" d="M558.462,445.341c6.237,0,5.619,5.642,5.619,5.642a2.506,2.506,0,0,1-.011-.287,5.515,5.515,0,0,1,5.509-5.531c-5.619,0-5.509-5.951-5.509-5.951C564.07,445,558.45,445.341,558.462,445.341Z"/><circle class="d" cx="3.036" cy="3.036" r="3.036" transform="translate(573.223 429.321)"/><path class="c" d="M474.627,416.649c6.238,0,5.62,5.642,5.62,5.642a2.5,2.5,0,0,1-.011-.287,5.515,5.515,0,0,1,5.509-5.531c-5.619,0-5.509-5.951-5.509-5.951C480.236,416.307,474.616,416.649,474.627,416.649Z"/><circle class="d" cx="3.036" cy="3.036" r="3.036" transform="translate(489.389 400.63)"/><g transform="translate(515.026 411.487)"><path class="e" d="M11.827,13.7v1.953a5.866,5.866,0,0,0-5.871,5.86H4A7.821,7.821,0,0,1,11.827,13.7Zm0-.977A5.86,5.86,0,1,1,17.7,6.86,5.865,5.865,0,0,1,11.827,12.721Zm0-1.953A3.907,3.907,0,1,0,7.914,6.86a3.91,3.91,0,0,0,3.914,3.907Zm2.544,7.63a3.423,3.423,0,0,1,0-1.585l-.971-.56.978-1.692.971.56a3.426,3.426,0,0,1,1.37-.793V13.209h1.957v1.118a3.418,3.418,0,0,1,1.375.793l.971-.56L22,16.253l-.971.56a3.423,3.423,0,0,1,0,1.584l.971.56-.978,1.692-.971-.56a3.426,3.426,0,0,1-1.37.793V22H16.719V20.882a3.426,3.426,0,0,1-1.37-.793l-.971.56L13.4,18.956l.971-.559Zm3.327.672A1.465,1.465,0,1,0,16.23,17.6,1.466,1.466,0,0,0,17.7,19.07Z"/></g></g></g></svg>