<svg xmlns="http://www.w3.org/2000/svg" width="115.041" height="115.041" viewBox="0 0 115.041 115.041"><defs><style>.a{fill:#e2e2e2;opacity:0.35;}.b{fill:#ffc400;}.c,.d{fill:none;}.c,.d,.e{stroke:#666;}.c{stroke-linecap:round;stroke-linejoin:round;stroke-width:1.592px;}.d{stroke-miterlimit:10;}.e{fill:#666;stroke-width:0.25px;}</style></defs><g transform="translate(-469.525 -375.154)"><circle class="a" cx="57.521" cy="57.521" r="57.521" transform="translate(469.525 375.154)"/><circle class="b" cx="12.5" cy="12.5" r="12.5" transform="translate(521.526 422.154)"/><line class="c" x2="38.598" transform="translate(505.55 452.2)"/><line class="c" x2="38.598" transform="translate(505.55 458.46)"/><line class="c" x2="32.338" transform="translate(505.55 464.72)"/><path class="c" d="M558.462,445.341c6.237,0,5.619,5.642,5.619,5.642a2.506,2.506,0,0,1-.011-.287,5.515,5.515,0,0,1,5.509-5.531c-5.619,0-5.509-5.951-5.509-5.951C564.07,445,558.45,445.341,558.462,445.341Z"/><circle class="d" cx="3.036" cy="3.036" r="3.036" transform="translate(573.223 429.321)"/><path class="c" d="M474.627,416.649c6.238,0,5.62,5.642,5.62,5.642a2.5,2.5,0,0,1-.011-.287,5.515,5.515,0,0,1,5.509-5.531c-5.619,0-5.509-5.951-5.509-5.951C480.236,416.307,474.616,416.649,474.627,416.649Z"/><circle class="d" cx="3.036" cy="3.036" r="3.036" transform="translate(489.389 400.63)"/><g transform="translate(512.525 414.154)"><path class="e" d="M22.5,9.8V2.5a1.251,1.251,0,0,0-1.25-1.25h-.417A1.251,1.251,0,0,0,19.583,0H12.5a1.656,1.656,0,0,0-1.25.576A1.656,1.656,0,0,0,10,0H2.917a1.251,1.251,0,0,0-1.25,1.25H1.25A1.251,1.251,0,0,0,0,2.5V17.917a1.251,1.251,0,0,0,1.25,1.25H15V21.25A3.754,3.754,0,0,0,18.75,25h2.5A3.754,3.754,0,0,0,25,21.25V13.333A3.753,3.753,0,0,0,22.5,9.8ZM20.833,2.083h.417a.417.417,0,0,1,.417.417V9.608a3.749,3.749,0,0,0-.417-.025h-.417ZM4.167.833h2.5V6.312L5.742,5.156a.416.416,0,0,0-.651,0L4.167,6.312V.833ZM2.5,1.25A.417.417,0,0,1,2.917.833h.417V7.5a.417.417,0,0,0,.742.26L5.417,6.084,6.758,7.76A.417.417,0,0,0,7.5,7.5V.833H10a.834.834,0,0,1,.833.833V15.258A1.643,1.643,0,0,0,9.96,15H2.5Zm0,14.583H9.96a.9.9,0,0,1,.863.833H2.5Zm12.5,2.5H1.25a.417.417,0,0,1-.417-.417V2.5a.417.417,0,0,1,.417-.417h.417v15a.417.417,0,0,0,.417.417H15Zm0-1.667H11.676a.9.9,0,0,1,.865-.833H15ZM15,15H12.542a1.646,1.646,0,0,0-.875.258V1.667A.834.834,0,0,1,12.5.833h7.083A.417.417,0,0,1,20,1.25V9.583H18.75A3.754,3.754,0,0,0,15,13.333Zm4.583-4.583v5.417h-3.75v-2.5a2.92,2.92,0,0,1,2.917-2.917ZM24.167,21.25a2.92,2.92,0,0,1-2.917,2.917h-2.5a2.92,2.92,0,0,1-2.917-2.917V16.667h8.333V21.25Zm0-5.417h-3.75V10.417h.833a2.92,2.92,0,0,1,2.917,2.917Z"/></g></g></svg>