<svg xmlns="http://www.w3.org/2000/svg" width="57.184" height="51.302" viewBox="0 0 57.184 51.302">
  <path id="Path_10651" data-name="Path 10651" d="M56.7,41.053c-2.035-3.7-10.948-6.05-18.819-6.5q-1.067-1.149-2.174-2.418c-6.764-7.778-9.5-19.081-10.526-25.069-.122-1.269-.255-2.324-.368-3.109-.091-.625-.283-1.929-1.631-1.929a1.537,1.537,0,0,0-1.145.518,2.093,2.093,0,0,0-.324,1.83c.1.786.24,1.837.445,3.037.576,6.079.848,17.655-3.8,26.849q-.727,1.438-1.449,2.756C8.2,39.569,1.18,44.11.15,47.877a3.736,3.736,0,0,0,.914,3.683,5.289,5.289,0,0,0,3.931,1.773c4.119,0,8.814-4.613,13.955-13.708a43.919,43.919,0,0,1,6.758-1.25c.856-.087,2.24-.269,3.092-.4a42.134,42.134,0,0,1,7.726-.42C42.836,44.152,48,47.5,51.863,47.5A5.382,5.382,0,0,0,56.7,44.63,3.565,3.565,0,0,0,56.7,41.053ZM4.993,50.276a2.31,2.31,0,0,1-1.734-.83.68.68,0,0,1-.178-.757c.53-1.94,4.987-5.265,11.5-7.678C10.9,46.85,7.379,50.276,4.993,50.276ZM28.332,34.957c-.809.125-2.122.3-2.934.382a44.242,44.242,0,0,0-4.523.7c.064-.125.128-.252.192-.379a43.7,43.7,0,0,0,4.218-16.109,45.065,45.065,0,0,0,8.138,14.6c.1.113.2.228.3.344A41.867,41.867,0,0,0,28.332,34.957ZM54.05,43.129A2.373,2.373,0,0,1,51.8,44.445h0c-2.417,0-6.133-2.3-10.582-6.52,6.885.87,11.927,2.966,12.832,4.609A.5.5,0,0,1,54.05,43.129Z" transform="translate(0 -2.031)" fill="#898989"/>
</svg>
