<svg xmlns="http://www.w3.org/2000/svg" width="99.75" height="99.75" viewBox="0 0 99.75 99.75">
  <path id="Pending_activities" data-name="Pending activities" d="M43.641,71.7A28.055,28.055,0,1,1,71.7,99.751,28.089,28.089,0,0,1,43.641,71.7ZM68.579,59.227V71.7a3.14,3.14,0,0,0,.91,2.207l9.352,9.352a3.119,3.119,0,0,0,4.414-4.408l-8.441-8.441V59.227a3.117,3.117,0,1,0-6.234,0ZM0,84.165a3.118,3.118,0,0,1,3.117-3.117H6.234V69.557A27.881,27.881,0,0,1,14.451,49.72l6.078-6.079-6.078-6.079A27.87,27.87,0,0,1,6.234,17.724V6.234H3.117A3.117,3.117,0,0,1,3.117,0h56.11a3.117,3.117,0,0,1,0,6.234H56.11v11.49a27.846,27.846,0,0,1-8.217,19.832l-6.079,6.085,4.776,4.775a34.57,34.57,0,0,0-3.841,4.975L35.2,45.848a3.123,3.123,0,0,1,0-4.408l8.285-8.286a21.689,21.689,0,0,0,6.39-15.43V6.234H12.469v11.49a21.678,21.678,0,0,0,6.39,15.43l8.285,8.279a3.131,3.131,0,0,1,0,4.414l-8.285,8.279a21.689,21.689,0,0,0-6.39,15.43v11.49l26.266-.006a33.758,33.758,0,0,0,2.456,6.234l-38.074.006A3.118,3.118,0,0,1,0,84.165Zm18.7-9.345V69.557a15.45,15.45,0,0,1,4.563-11.016l7.905-7.905,7.905,7.9c.249.249.436.549.667.81A34.041,34.041,0,0,0,37.406,71.7c0,1.054.062,2.095.156,3.123Zm4.563-46.072A15.508,15.508,0,0,1,18.7,17.724V12.469H43.641v5.256a15.487,15.487,0,0,1-4.564,11.023l-7.905,7.905Z"/>
</svg>
