<svg xmlns="http://www.w3.org/2000/svg" width="46" height="26.613" viewBox="0 0 46 26.613"><defs><style>.a{fill:#ffb90f;}.b{fill:#ffa814;}.c{fill:#313133;}.d{fill:#e4e0ca;}.e{fill:#fff;}</style></defs><g transform="translate(-2565.372 -1649.395)"><path class="a" d="M3467.568,1884.363v-11.847h13.616l-4.822,5.924,4.822,5.924Z" transform="translate(-869.813 -215.188)"/><path class="a" d="M2578.989,1872.517v11.847h-13.616l4.822-5.924-4.822-5.924Z" transform="translate(0 -215.188)"/><path class="b" d="M3434.219,1883a14.269,14.269,0,0,0-.095-10.488h-3.636v11.847h3.128A14.417,14.417,0,0,0,3434.219,1883Z" transform="translate(-833.97 -215.188)"/><path class="b" d="M2847.144,1872.756a14.286,14.286,0,0,0,.6,11.609h3.188v-11.847h-3.7C2847.207,1872.6,2847.175,1872.676,2847.144,1872.756Z" transform="translate(-270.71 -215.188)"/><ellipse class="c" cx="11.45" cy="11.545" rx="11.45" ry="11.545" transform="translate(2576.892 1651.156)"/><path class="a" d="M9.409-.034a9.328,9.328,0,0,1,9.375,9.375,9.491,9.491,0,0,1-9.443,9.443A9.328,9.328,0,0,1-.034,9.409,9.491,9.491,0,0,1,9.409-.034Z" transform="translate(2575.083 1662.702) rotate(-45)"/><path class="d" d="M3003.45,1804.072l1.526,4.657a.419.419,0,0,0,.4.285l4.982-.013a.41.41,0,0,1,.247.744l-4.039,2.865a.407.407,0,0,0-.152.461l1.552,4.649a.417.417,0,0,1-.645.46l-4.023-2.886a.425.425,0,0,0-.494,0l-4.022,2.886a.417.417,0,0,1-.645-.46l1.552-4.649a.407.407,0,0,0-.152-.461l-4.039-2.865a.41.41,0,0,1,.247-.744l4.981.013a.419.419,0,0,0,.4-.285l1.526-4.657A.421.421,0,0,1,3003.45,1804.072Z" transform="translate(-414.533 -148.818)"/><path class="e" d="M3184.2,1770.108l.087,1.236,1.2-.3-1.148.464.656,1.051-.8-.949-.8.949.656-1.051-1.148-.464,1.2.3Z" transform="translate(-595.29 -116.413)"/></g></svg>