<svg xmlns="http://www.w3.org/2000/svg" width="36.466" height="40.379" viewBox="0 0 36.466 40.379">
  <g id="ppt" transform="translate(-63.5 -15.5)">
    <path id="Path_2116" data-name="Path 2116" d="M184,150.354A6.354,6.354,0,1,0,190.354,144a.635.635,0,0,0-.635.635v5.083h-5.083A.635.635,0,0,0,184,150.354Zm6.354.635a.635.635,0,0,0,.635-.635v-5.044a5.083,5.083,0,1,1-5.679,5.679Z" transform="translate(-107.809 -117.332)" fill="#1f3777" stroke="#1f3777" stroke-width="1"/>
    <path id="Path_2117" data-name="Path 2117" d="M152.635,118.99h5.719a.635.635,0,0,0,.635-.635v-5.719a.635.635,0,0,0-.635-.635A6.361,6.361,0,0,0,152,118.354.635.635,0,0,0,152.635,118.99Zm5.083-5.679v4.408h-4.408A5.094,5.094,0,0,1,157.719,113.311Z" transform="translate(-79.534 -88.068)" fill="#1f3777" stroke="#1f3777" stroke-width="1"/>
    <path id="Path_2118" data-name="Path 2118" d="M90.383,16.192A.789.789,0,0,0,89.861,16H69.172A4.915,4.915,0,0,0,64,20.594V50.785a4.915,4.915,0,0,0,5.172,4.594H94.294a4.915,4.915,0,0,0,5.172-4.594V24.532a.621.621,0,0,0-.216-.464Zm.216,2.049,6.344,5.635H94.294A3.51,3.51,0,0,1,90.6,20.594Zm-21.427-.928h19.95v3.282a4.915,4.915,0,0,0,5.172,4.594h3.694V43.566H65.478V20.594A3.51,3.51,0,0,1,69.172,17.313ZM94.294,54.067H69.172a3.51,3.51,0,0,1-3.694-3.282V44.878h32.51v5.907a3.51,3.51,0,0,1-3.694,3.282Z" transform="translate(0 0)" fill="#1f3777" stroke="#1f3777" stroke-width="1"/>
    <path id="Path_2119" data-name="Path 2119" d="M233.906,384h-1.271a.635.635,0,0,0-.635.635v5.083a.635.635,0,1,0,1.271,0v-1.906h.635a1.906,1.906,0,0,0,0-3.812Zm0,2.542h-.635v-1.271h.635a.635.635,0,0,1,0,1.271Z" transform="translate(-152.173 -337.516)" fill="#1f3777" stroke="#1f3777" stroke-width="1"/>
    <path id="Path_2120" data-name="Path 2120" d="M169.906,384h-1.271a.635.635,0,0,0-.635.635v5.083a.635.635,0,1,0,1.271,0v-1.906h.635a1.906,1.906,0,0,0,0-3.812Zm0,2.542h-.635v-1.271h.635a.635.635,0,0,1,0,1.271Z" transform="translate(-94.203 -337.516)" fill="#1f3777" stroke="#1f3777" stroke-width="1"/>
    <path id="Path_2121" data-name="Path 2121" d="M299.177,384h-2.542a.635.635,0,0,0,0,1.271h.635v4.448a.635.635,0,1,0,1.271,0v-4.448h.635a.635.635,0,1,0,0-1.271Z" transform="translate(-210.144 -337.516)" fill="#1f3777" stroke="#1f3777" stroke-width="1"/>
  </g>
</svg>
