<svg xmlns="http://www.w3.org/2000/svg" width="49.034" height="49.251" viewBox="0 0 49.034 49.251">
  <g id="quiz" transform="translate(0.501 0.501)">
    <path id="Path_2122" data-name="Path 2122" d="M136.4,40.117H138v1.5h-1.6Zm0,0" transform="translate(-122.766 -36.108)" fill="#1f3777" stroke="#1f3777" stroke-width="1"/>
    <path id="Path_2123" data-name="Path 2123" d="M168.492,40.117h1.6v1.5h-1.6Zm0,0" transform="translate(-151.652 -36.108)" fill="#1f3777" stroke="#1f3777" stroke-width="1"/>
    <path id="Path_2124" data-name="Path 2124" d="M200.586,40.117h1.6v1.5h-1.6Zm0,0" transform="translate(-180.539 -36.108)" fill="#1f3777" stroke="#1f3777" stroke-width="1"/>
    <path id="Path_2125" data-name="Path 2125" d="M11.126,39.193H24.368l2.356-2.356-2.356-2.355H11.126V1.5H30.472v8.821H40V8.409L31.585,0H9.622V34.482H0v4.711H4.711V35.985H23.746l.852.852-.852.852H6.415v1.5H9.622V43.2H28.869V41.7H11.126ZM31.976,2.516l6.3,6.3h-6.3ZM3.207,37.69H1.5v-1.7h1.7Zm0,0" fill="#1f3777" stroke="#1f3777" stroke-width="1"/>
    <path id="Path_2126" data-name="Path 2126" d="M200.586,120.352h16.039v1.5H200.586Zm0,0" transform="translate(-180.539 -109.031)" fill="#1f3777" stroke="#1f3777" stroke-width="1"/>
    <path id="Path_2127" data-name="Path 2127" d="M200.586,80.234h8.821v1.5h-8.821Zm0,0" transform="translate(-180.539 -72.216)" fill="#1f3777" stroke="#1f3777" stroke-width="1"/>
    <path id="Path_2128" data-name="Path 2128" d="M136.4,80.234h4.811v1.5H136.4Zm0,0" transform="translate(-122.766 -72.216)" fill="#1f3777" stroke="#1f3777" stroke-width="1"/>
    <path id="Path_2129" data-name="Path 2129" d="M200.586,152.445h8.821v1.5h-8.821Zm0,0" transform="translate(-180.539 -138.105)" fill="#1f3777" stroke="#1f3777" stroke-width="1"/>
    <path id="Path_2130" data-name="Path 2130" d="M141.11,120.352H136.4v4.712h4.712Zm-1.5,3.208h-1.7v-1.7h1.7Zm0,0" transform="translate(-122.766 -109.08)" fill="#1f3777" stroke="#1f3777" stroke-width="1"/>
    <path id="Path_2131" data-name="Path 2131" d="M200.586,192.563h16.039v1.5H200.586Zm0,0" transform="translate(-180.539 -174.45)" fill="#1f3777" stroke="#1f3777" stroke-width="1"/>
    <path id="Path_2132" data-name="Path 2132" d="M200.586,224.656h8.821v1.5h-8.821Zm0,0" transform="translate(-180.539 -203.524)" fill="#1f3777" stroke="#1f3777" stroke-width="1"/>
    <path id="Path_2133" data-name="Path 2133" d="M141.11,192.563H136.4v4.712h4.712Zm-1.5,3.208h-1.7v-1.7h1.7Zm0,0" transform="translate(-122.766 -174.528)" fill="#1f3777" stroke="#1f3777" stroke-width="1"/>
    <path id="Path_2134" data-name="Path 2134" d="M200.586,264.777h16.039v1.5H200.586Zm0,0" transform="translate(-180.539 -239.871)" fill="#1f3777" stroke="#1f3777" stroke-width="1"/>
    <path id="Path_2135" data-name="Path 2135" d="M200.586,296.871h8.821v1.5h-8.821Zm0,0" transform="translate(-180.539 -268.946)" fill="#1f3777" stroke="#1f3777" stroke-width="1"/>
    <path id="Path_2136" data-name="Path 2136" d="M136.4,269.488h4.712v-4.711H136.4Zm1.5-3.208h1.7v1.7h-1.7Zm0,0" transform="translate(-122.766 -239.978)" fill="#1f3777" stroke="#1f3777" stroke-width="1"/>
    <path id="Path_2137" data-name="Path 2137" d="M343.051,368.578a5.563,5.563,0,1,0,5.563,5.563A5.57,5.57,0,0,0,343.051,368.578Zm0,9.623a4.06,4.06,0,1,1,4.06-4.06A4.065,4.065,0,0,1,343.051,378.2Zm0,0" transform="translate(-303.758 -334.662)" fill="#1f3777" stroke="#1f3777" stroke-width="1"/>
    <path id="Path_2138" data-name="Path 2138" d="M314.642,141.086V119.352h-1.5v21.734a8.79,8.79,0,1,0,1.5,0Zm-.7,16.006a7.267,7.267,0,1,1,7.267-7.268A7.276,7.276,0,0,1,313.941,157.092Zm0,0" transform="translate(-274.647 -110.345)" fill="#1f3777" stroke="#1f3777" stroke-width="1"/>
    <path id="Path_2139" data-name="Path 2139" d="M372.894,402.266l-1.359,1.383,1.051,1.064,1.812-1.824v-2.717h-1.5Zm0,0" transform="translate(-334.402 -363.098)" fill="#1f3777" stroke="#1f3777" stroke-width="1"/>
  </g>
</svg>
