<svg xmlns="http://www.w3.org/2000/svg" width="33.002" height="39.254" viewBox="0 0 33.002 39.254">
  <path id="Icon_awesome-file-video" data-name="Icon awesome-file-video" d="M33,9.349v.465H22V0h.521a2.2,2.2,0,0,1,1.459.539L32.4,8.048a1.746,1.746,0,0,1,.6,1.3ZM19.251,10.427V0H2.063A1.961,1.961,0,0,0,0,1.84V37.414a1.961,1.961,0,0,0,2.063,1.84H30.94A1.961,1.961,0,0,0,33,37.414V12.267H21.314A1.967,1.967,0,0,1,19.251,10.427ZM27.5,21.469v8.584c0,1.644-2.23,2.453-3.521,1.3l-4.729-4.217v2.918a1.961,1.961,0,0,1-2.063,1.84H7.563A1.961,1.961,0,0,1,5.5,30.054V21.467a1.961,1.961,0,0,1,2.063-1.84h9.626a1.961,1.961,0,0,1,2.063,1.84v2.918l4.729-4.218C25.271,19.017,27.5,19.823,27.5,21.469Z" fill="#1f3777"/>
</svg>
