<svg id="play-button" xmlns="http://www.w3.org/2000/svg" width="50.014" height="50.014" viewBox="0 0 50.014 50.014">
  <g id="Group_13239" data-name="Group 13239">
    <g id="Group_13238" data-name="Group 13238">
      <path id="Path_10412" data-name="Path 10412" d="M25.007,0A25.007,25.007,0,1,0,50.014,25.007,25.007,25.007,0,0,0,25.007,0Zm0,46.442A21.435,21.435,0,1,1,46.442,25.007,21.435,21.435,0,0,1,25.007,46.442Z" fill="#898989"/>
    </g>
  </g>
  <g id="Group_13241" data-name="Group 13241" transform="translate(17.862 16.075)">
    <g id="Group_13240" data-name="Group 13240">
      <path id="Path_10413" data-name="Path 10413" d="M188.342,161.723a1.786,1.786,0,0,0-.8-.8l-14.29-7.145a1.786,1.786,0,0,0-2.585,1.6v14.29a1.786,1.786,0,0,0,2.585,1.6l14.29-7.145A1.786,1.786,0,0,0,188.342,161.723Zm-14.1,5.052v-8.51l8.51,4.255Z" transform="translate(-170.666 -153.587)" fill="#898989"/>
    </g>
  </g>
</svg>
