<svg xmlns="http://www.w3.org/2000/svg" width="87.102" height="87.104" viewBox="0 0 87.102 87.104">
  <path id="View_all_activities" data-name="View all activities" d="M3.629,87.1A3.629,3.629,0,0,1,0,83.474v-61.7a3.629,3.629,0,0,1,3.629-3.629H36.746a3.629,3.629,0,0,1,2.647,1.147l5.73,6.114H62.94L53.676,41.286l-3.929-3.929a3.63,3.63,0,0,0-5.47.389l-8.829,11.77-8.03-5.353A3.629,3.629,0,0,0,22.5,45L11.613,59.521l5.807,4.355,8.829-11.77,8.03,5.354a3.629,3.629,0,0,0,4.916-.842l8.377-11.169,4.3,4.3a3.629,3.629,0,0,0,5.7-.738l13.77-23.6h12.13A3.629,3.629,0,0,1,87.1,29.035V83.474A3.629,3.629,0,0,1,83.473,87.1Zm39.922-7.259H79.844V72.586H43.551ZM54.439,68.957H79.844V61.7H54.439Zm8.5-43.551L72.371,9.238,66.208,10.78l-1.76-7.042L78.964.109a3.63,3.63,0,0,1,4.4,2.641l3.629,14.517-7.042,1.76-1.467-5.866L71.344,25.406Z"/>
</svg>
