<svg id="Group_16409" data-name="Group 16409" xmlns="http://www.w3.org/2000/svg" xmlns:xlink="http://www.w3.org/1999/xlink" width="212.04" height="215.35" viewBox="0 0 212.04 215.35">
  <defs>
    <clipPath id="clip-path">
      <rect id="Rectangle_3451" data-name="Rectangle 3451" width="212.04" height="215.35" fill="none"/>
    </clipPath>
    <clipPath id="clip-path-2">
      <path id="Path_16447" data-name="Path 16447" d="M91.523,31.028c-45.761,5.982-68.276,43.282-72.538,50A125.872,125.872,0,0,0,0,147.027v.153c.014,22.326,6.409,44.364,21.046,61.578,19.857,23.351,47.321,28.929,61.53,31.815,9.622,1.954,54.9,9.957,93.157-17.5a76.656,76.656,0,0,0,11.729-9.875c15.565-16.386,24.565-43.531,24.578-71.948v-.119c-.014-31.785-11.272-65.148-37.162-86.839-19.544-16.374-45.307-24.162-69.414-24.161a107.738,107.738,0,0,0-13.941.894" transform="translate(0 -30.134)" fill="none"/>
    </clipPath>
    <linearGradient id="linear-gradient" x1="0.151" y1="0.838" x2="0.151" y2="0.838" gradientUnits="objectBoundingBox">
      <stop offset="0" stop-color="#dae3fe"/>
      <stop offset="1" stop-color="#e9effd"/>
    </linearGradient>
    <clipPath id="clip-path-4">
      <rect id="Rectangle_3411" data-name="Rectangle 3411" width="56.049" height="100.332" fill="none"/>
    </clipPath>
    <clipPath id="clip-path-5">
      <rect id="Rectangle_3412" data-name="Rectangle 3412" width="56.127" height="30.775" fill="none"/>
    </clipPath>
    <clipPath id="clip-path-6">
      <path id="Path_16452" data-name="Path 16452" d="M736.92,36.852c-20.294,8.42-37.517,30.7-30.777,53.458,2.189,7.393,1.039,15.549,8.4,18.762,3.985,1.738,14.837,2.773,18.963,1.4,10.966-3.641,18.175-13.606,12.21-24.657-1.91-3.539-4.382-6.772-6.031-10.439s-2.4-8.021-.72-11.674c3.3-7.171,14.266-9.45,21.377-9.235A24.882,24.882,0,0,1,780.86,66c5.629,8.875,7.055,19.67,6.231,29.973-.881,11.024-5.529,19.442-12.5,27.9-6,7.281-12.6,14.27-16.587,22.819-3.659,7.849-4.855,16.545-5.02,25.131-.032,1.664-8.309,17.348-8.273,22.139.005.677,9.387,2.919,10.064,2.927l17.22.192a1.373,1.373,0,0,0,1.39-1.354c.262-23.311,7.432-45.536,25.583-61.192,6.6-5.7,13.717-10.336,18.853-17.526,7.32-10.248,10.931-20.334,9.888-32.982-.952-11.552-4.755-23.11-12.285-32.072C807.334,42.317,795.489,36.3,783.179,33.7a90.832,90.832,0,0,0-17.918-1.942l-.692,0a72.658,72.658,0,0,0-27.649,5.092" transform="translate(-704.657 -31.76)" fill="none"/>
    </clipPath>
    <linearGradient id="linear-gradient-2" x1="-0.052" y1="1.121" x2="-0.052" y2="1.121" gradientUnits="objectBoundingBox">
      <stop offset="0" stop-color="#e1473d"/>
      <stop offset="1" stop-color="#e9605a"/>
    </linearGradient>
    <clipPath id="clip-path-7">
      <path id="Path_16453" data-name="Path 16453" d="M1253.435,2300.077c0,8.4.027,14.145,7.5,16.844,2.059.744,9.935.722,12.251.722,10.719,0,16.661-9.484,16.661-20.2s-11.353-18.626-22.072-18.626-14.339,10.542-14.339,21.262" transform="translate(-1253.435 -2278.815)" fill="none"/>
    </clipPath>
    <linearGradient id="linear-gradient-3" x1="-1.666" y1="0.888" x2="-1.665" y2="0.888" xlink:href="#linear-gradient-2"/>
    <clipPath id="clip-path-8">
      <path id="Path_16454" data-name="Path 16454" d="M643.809,0A72.622,72.622,0,0,0,616.23,5.092c-20.294,8.42-37.517,30.7-30.777,53.458,2.19,7.393,7.252,16.7,14.617,19.912a18.011,18.011,0,0,0,12.75.253c10.966-3.641,18.175-13.606,12.21-24.657-1.91-3.539-4.382-6.772-6.031-10.439s-2.4-8.021-.72-11.674c3.3-7.171,14.266-9.45,21.377-9.235A24.883,24.883,0,0,1,660.17,34.236c5.629,8.875,7.055,19.67,6.231,29.973-.882,11.024-5.529,19.442-12.5,27.9-6,7.281-12.6,14.27-16.588,22.819-3.659,7.848-4.855,16.545-5.02,25.131-.032,1.664.528,19.043.564,23.835a1.24,1.24,0,0,0,1.227,1.231l17.22.193a1.373,1.373,0,0,0,1.39-1.354c.262-23.311,7.432-45.536,25.583-61.192,6.6-5.7,13.717-10.336,18.853-17.526,7.32-10.248,10.931-20.334,9.889-32.982-.952-11.552-4.755-23.11-12.285-32.072C686.645,10.556,674.8,4.541,662.489,1.945A90.838,90.838,0,0,0,644.57,0l-.621,0Z" transform="translate(-583.967)" fill="none"/>
    </clipPath>
    <linearGradient id="linear-gradient-4" x1="0.001" y1="1.139" x2="0.001" y2="1.139" gradientUnits="objectBoundingBox">
      <stop offset="0" stop-color="#ff928e"/>
      <stop offset="1" stop-color="#fe7062"/>
    </linearGradient>
    <clipPath id="clip-path-9">
      <path id="Path_16455" data-name="Path 16455" d="M1132.745,2290.552a19.409,19.409,0,1,0,19.409-19.409,19.409,19.409,0,0,0-19.409,19.409" transform="translate(-1132.745 -2271.143)" fill="none"/>
    </clipPath>
    <linearGradient id="linear-gradient-5" x1="-1.443" y1="0.888" x2="-1.442" y2="0.888" xlink:href="#linear-gradient-4"/>
    <clipPath id="clip-path-11">
      <rect id="Rectangle_3418" data-name="Rectangle 3418" width="77.76" height="50.388" fill="none"/>
    </clipPath>
    <clipPath id="clip-path-12">
      <rect id="Rectangle_3419" data-name="Rectangle 3419" width="3.225" height="5.857" fill="none"/>
    </clipPath>
    <clipPath id="clip-path-13">
      <rect id="Rectangle_3420" data-name="Rectangle 3420" width="6.993" height="2.046" fill="none"/>
    </clipPath>
    <clipPath id="clip-path-14">
      <rect id="Rectangle_3421" data-name="Rectangle 3421" width="8.077" height="25.091" fill="none"/>
    </clipPath>
    <clipPath id="clip-path-15">
      <rect id="Rectangle_3422" data-name="Rectangle 3422" width="38.469" height="24.749" fill="none"/>
    </clipPath>
    <clipPath id="clip-path-16">
      <rect id="Rectangle_3423" data-name="Rectangle 3423" width="40.079" height="25.762" fill="none"/>
    </clipPath>
    <clipPath id="clip-path-17">
      <rect id="Rectangle_3424" data-name="Rectangle 3424" width="26.443" height="10.045" fill="none"/>
    </clipPath>
    <clipPath id="clip-path-18">
      <rect id="Rectangle_3425" data-name="Rectangle 3425" width="17.729" height="17.209" fill="none"/>
    </clipPath>
    <clipPath id="clip-path-19">
      <rect id="Rectangle_3426" data-name="Rectangle 3426" width="64.278" height="32.33" fill="none"/>
    </clipPath>
    <clipPath id="clip-path-20">
      <path id="Path_16478" data-name="Path 16478" d="M1979.006,582.286l-47.933,1.794a.774.774,0,0,0-.826.7l.018.421a.77.77,0,0,0,.87.623l47.935-1.75a.774.774,0,0,0,.827-.7l-.02-.465a.76.76,0,0,0-.829-.623h-.042" transform="translate(-1930.247 -582.285)" fill="none"/>
    </clipPath>
    <linearGradient id="linear-gradient-6" x1="-2.988" y1="48.036" x2="-2.986" y2="48.036" xlink:href="#linear-gradient"/>
    <clipPath id="clip-path-21">
      <path id="Path_16479" data-name="Path 16479" d="M1923.242,740.069l-47.934,1.785a.78.78,0,0,0-.824.719l.019.436a.778.778,0,0,0,.87.646l47.936-1.74a.781.781,0,0,0,.826-.719l-.021-.481a.769.769,0,0,0-.832-.647h-.04" transform="translate(-1874.483 -740.068)" fill="none"/>
    </clipPath>
    <linearGradient id="linear-gradient-7" x1="-2.901" y1="43.963" x2="-2.9" y2="43.963" xlink:href="#linear-gradient"/>
    <clipPath id="clip-path-22">
      <path id="Path_16480" data-name="Path 16480" d="M1928.845,806.069l-53.436,2.018c-.525.02-.939.347-.922.73l.019.441c.016.378.448.668.967.649l53.438-1.972c.525-.019.94-.347.923-.73l-.021-.486c-.016-.366-.421-.65-.919-.65h-.05" transform="translate(-1874.487 -806.068)" fill="none"/>
    </clipPath>
    <linearGradient id="linear-gradient-8" x1="-2.603" y1="39.763" x2="-2.602" y2="39.763" xlink:href="#linear-gradient"/>
    <clipPath id="clip-path-23">
      <path id="Path_16481" data-name="Path 16481" d="M1903.808,675.317l-26.126.762c-.257.008-.448.36-.427.785l.024.49c.021.421.242.754.5.747l26.128-.711c.257-.007.449-.359.428-.785l-.027-.541c-.021-.416-.238-.747-.488-.747h-.008" transform="translate(-1877.254 -675.317)" fill="none"/>
    </clipPath>
    <linearGradient id="linear-gradient-9" x1="-5.323" y1="58.568" x2="-5.321" y2="58.568" xlink:href="#linear-gradient"/>
    <clipPath id="clip-path-24">
      <path id="Path_16482" data-name="Path 16482" d="M2295.593,663.577l-24.694.708c-.242.007-.423.359-.4.784l.024.49c.021.421.231.754.471.748l24.7-.657c.242-.007.423-.358.4-.784l-.027-.541c-.021-.417-.228-.748-.465-.748h-.007" transform="translate(-2270.495 -663.577)" fill="none"/>
    </clipPath>
    <linearGradient id="linear-gradient-10" x1="-6.811" y1="60.061" x2="-6.808" y2="60.061" xlink:href="#linear-gradient"/>
    <clipPath id="clip-path-25">
      <path id="Path_16483" data-name="Path 16483" d="M619.045,2690.017a1.908,1.908,0,0,0,1.825,2.067c3.688.154,11.575.452,14.406.326a.621.621,0,0,0,.546-.85,1.389,1.389,0,0,0-.711-.749l-13.029-5.988-2.3-.372s-.494,2.8-.736,5.566" transform="translate(-619.038 -2684.451)" fill="none"/>
    </clipPath>
    <linearGradient id="linear-gradient-11" x1="-2.706" y1="0.769" x2="-2.702" y2="0.769" gradientUnits="objectBoundingBox">
      <stop offset="0" stop-color="#09005d"/>
      <stop offset="1" stop-color="#1a0f91"/>
    </linearGradient>
    <clipPath id="clip-path-26">
      <path id="Path_16484" data-name="Path 16484" d="M623.444,2656.879l.4,3.346s2.282,1.063,3.841-.134l-.945-3.729Z" transform="translate(-623.444 -2656.362)" fill="none"/>
    </clipPath>
    <linearGradient id="linear-gradient-12" x1="-11.314" y1="2.242" x2="-11.296" y2="2.242" gradientUnits="objectBoundingBox">
      <stop offset="0" stop-color="#febbba"/>
      <stop offset="1" stop-color="#ff928e"/>
    </linearGradient>
    <clipPath id="clip-path-27">
      <path id="Path_16485" data-name="Path 16485" d="M493.188,1859.861s-.912-22.951,0,.809c.816,21.263,7.072,43.523,8.378,47.965a1.12,1.12,0,0,0,1.111.8,11.316,11.316,0,0,0,3.72-.756.65.65,0,0,0,.381-.756c-4.567-19.148-3.819-61.877-3.647-62.751l-9.407,0Z" transform="translate(-492.782 -1845.174)" fill="none"/>
    </clipPath>
    <linearGradient id="linear-gradient-13" x1="-0.167" y1="1.329" x2="-0.165" y2="1.329" xlink:href="#linear-gradient-11"/>
    <clipPath id="clip-path-28">
      <path id="Path_16486" data-name="Path 16486" d="M413.423,2708.59a1.164,1.164,0,0,0,1.024,1.394c1.218.12,3.092.274,4.593.263a1.161,1.161,0,0,0,1.149-1.295,9.79,9.79,0,0,0-2.285-5.368l-2.934-.159a20.13,20.13,0,0,0-1.548,5.165" transform="translate(-413.399 -2703.425)" fill="none"/>
    </clipPath>
    <linearGradient id="linear-gradient-14" x1="-3.104" y1="0.911" x2="-3.097" y2="0.911" xlink:href="#linear-gradient-11"/>
    <clipPath id="clip-path-29">
      <path id="Path_16487" data-name="Path 16487" d="M424.854,2645.11l.928,5.06a3.271,3.271,0,0,0,2.731.188l-.443-5.444Z" transform="translate(-424.854 -2644.913)" fill="none"/>
    </clipPath>
    <linearGradient id="linear-gradient-15" x1="-8.93" y1="2.008" x2="-8.909" y2="2.008" xlink:href="#linear-gradient-12"/>
    <clipPath id="clip-path-30">
      <path id="Path_16488" data-name="Path 16488" d="M375.012,1833.862c-3.736,22.544.81,55.72,2.343,62.213a1.012,1.012,0,0,0,.818.769,6.8,6.8,0,0,0,2.922-.117.928.928,0,0,0,.667-.854c.206-5.25-.165-37.477,3.316-50.214a2.893,2.893,0,0,1,1.116-1.6l6.756-4.8.518-7.763Z" transform="translate(-373.574 -1831.497)" fill="none"/>
    </clipPath>
    <linearGradient id="linear-gradient-16" x1="-0.069" y1="1.235" x2="-0.068" y2="1.235" xlink:href="#linear-gradient-11"/>
    <clipPath id="clip-path-31">
      <path id="Path_16489" data-name="Path 16489" d="M399.333,1284.873c-11.195-.185-23.547,2.939-23.547,2.939-3.337,19.471-.584,41.929-.584,41.929,8.667,2.273,18.443-1.39,18.443-1.39,1.44-8.138,8.161-31.042,8.161-31.042a36.875,36.875,0,0,0,13.686-4.343,24,24,0,0,1-4.744-9.923,37.561,37.561,0,0,1-11.416,1.83" transform="translate(-374.135 -1283.043)" fill="none"/>
    </clipPath>
    <linearGradient id="linear-gradient-17" x1="-0.26" y1="1.991" x2="-0.259" y2="1.991" gradientUnits="objectBoundingBox">
      <stop offset="0" stop-color="#4f52ff"/>
      <stop offset="1" stop-color="#4042e2"/>
    </linearGradient>
    <clipPath id="clip-path-32">
      <path id="Path_16490" data-name="Path 16490" d="M869.351,1081.56c-1.647,6.959-10.285,12.6-19.16,15.359a24,24,0,0,0,4.744,9.923c14.728-8.281,16.907-24.582,16.907-24.582a2.149,2.149,0,0,0-1.7-.848,2.1,2.1,0,0,0-.793.148" transform="translate(-850.191 -1081.412)" fill="none"/>
    </clipPath>
    <linearGradient id="linear-gradient-18" x1="-1.946" y1="4.643" x2="-1.944" y2="4.643" xlink:href="#linear-gradient-12"/>
    <clipPath id="clip-path-33">
      <path id="Path_16491" data-name="Path 16491" d="M1099.495,948.374c-.428.584.007,3.656.035,4.373.785,1.5,2.117.939,2,.573a2.97,2.97,0,0,0,2.231-1.317c.486-.691,1-1.573,1.377-2.252a3.007,3.007,0,0,0,.3-2.214,10.394,10.394,0,0,0-1.253-2.477l2.146-2.236a1.053,1.053,0,0,0-.132-1.463,57.21,57.21,0,0,0-6.706,7.011" transform="translate(-1099.307 -941.363)" fill="none"/>
    </clipPath>
    <linearGradient id="linear-gradient-19" x1="-5.478" y1="12.173" x2="-5.473" y2="12.173" xlink:href="#linear-gradient-12"/>
    <clipPath id="clip-path-34">
      <path id="Path_16492" data-name="Path 16492" d="M1117.74,1009.97l-.614,1.651,1.744,1.935a22.505,22.505,0,0,1,1.022-3.984c.436-.709.21-1.052-.2-1.259Z" transform="translate(-1117.126 -1008.312)" fill="none"/>
    </clipPath>
    <linearGradient id="linear-gradient-20" x1="-13.801" y1="26.509" x2="-13.788" y2="26.509" xlink:href="#linear-gradient-12"/>
    <clipPath id="clip-path-35">
      <path id="Path_16493" data-name="Path 16493" d="M237.289,1361.168a24.747,24.747,0,0,1,9.09,2.436c.773-4.253,7.38-7.709,7.38-7.709l-4.294-10.84s-10.456,7.1-12.176,16.113" transform="translate(-237.289 -1345.055)" fill="none"/>
    </clipPath>
    <linearGradient id="linear-gradient-21" x1="-0.589" y1="4.857" x2="-0.586" y2="4.857" xlink:href="#linear-gradient-17"/>
    <clipPath id="clip-path-36">
      <path id="Path_16494" data-name="Path 16494" d="M235.779,1563.076c6.939,12.693,25.81-.7,25.81-.7l-1.554-2.895s-11.74,6.635-15.7.97a4.453,4.453,0,0,1-.816-3.46,24.747,24.747,0,0,0-9.09-2.436,12.433,12.433,0,0,0,1.351,8.523" transform="translate(-234.189 -1554.553)" fill="none"/>
    </clipPath>
    <linearGradient id="linear-gradient-22" x1="-0.641" y1="4.514" x2="-0.638" y2="4.514" xlink:href="#linear-gradient-12"/>
    <clipPath id="clip-path-38">
      <path id="Path_16498" data-name="Path 16498" d="M564.078,1560.926c-.36,1.3.532,4.972.532,4.972a3.376,3.376,0,0,0,3.054-1.067c.7-.687,1.117-1.375,1.685-1a1.188,1.188,0,0,0,1.739-.4l-1.019-1.125c1.493.725,1.649-.633,1.649-.633l-1.1-.848a1.331,1.331,0,0,0,1.906-1.149,34,34,0,0,0-5.068-1.351,3.975,3.975,0,0,0-.628-.053c-1.828,0-2.429,1.48-2.754,2.657" transform="translate(-563.993 -1558.269)" fill="none"/>
    </clipPath>
    <linearGradient id="linear-gradient-23" x1="-4.892" y1="12.178" x2="-4.884" y2="12.178" xlink:href="#linear-gradient-12"/>
    <clipPath id="clip-path-39">
      <path id="Path_16499" data-name="Path 16499" d="M511.325,1188.669l-3.562,10.3a.371.371,0,0,0,.169.447,8.373,8.373,0,0,0,8.685-.584,1.748,1.748,0,0,0,.8-1.248l1.153-8.916Z" transform="translate(-507.742 -1188.669)" fill="none"/>
    </clipPath>
    <linearGradient id="linear-gradient-24" x1="-3.589" y1="9.654" x2="-3.582" y2="9.654" xlink:href="#linear-gradient-12"/>
    <clipPath id="clip-path-40">
      <path id="Path_16500" data-name="Path 16500" d="M536.387,1067.374l2.958,7.95c4.233,2.416,9.081,2.629,9.582-.345s-3.41-10.337-3.41-10.337Z" transform="translate(-536.387 -1064.642)" fill="none"/>
    </clipPath>
    <linearGradient id="linear-gradient-25" x1="-2.131" y1="7.52" x2="-2.127" y2="7.52" xlink:href="#linear-gradient-12"/>
    <clipPath id="clip-path-41">
      <path id="Path_16501" data-name="Path 16501" d="M478.345,996.595a.3.3,0,0,1-.481,0,3.129,3.129,0,0,0-3.811-1.238,2.87,2.87,0,0,0-1.965,2.773.3.3,0,0,1-.358.309,3.5,3.5,0,0,0-4.086,1.905c-.834,1.833-.292,2.871.2,3.379a.3.3,0,0,1-.13.5,1.821,1.821,0,0,0-1.285,2.078c.106,1.925,2.258,1.755,2.87,1.667a.3.3,0,0,1,.27.1c.525.581,2.892,3.049,5.453,3.347a.306.306,0,0,0,.321-.4l-1.109-3.222a.305.305,0,0,1,.165-.378l.55-.243a.3.3,0,0,0,.132-.444,7.919,7.919,0,0,1-1.088-2.31s-.7-.45,1.79-1.047,6.21-1.523,6.992-3.645c.556-1.509-.359-4.685-2.134-4.685-.659,0-1.435.437-2.3,1.559" transform="translate(-466.427 -995.036)" fill="none"/>
    </clipPath>
    <linearGradient id="linear-gradient-26" x1="-1.36" y1="5.994" x2="-1.357" y2="5.994" xlink:href="#linear-gradient-11"/>
    <clipPath id="clip-path-42">
      <path id="Path_16502" data-name="Path 16502" d="M544.087,1147.057c-.2,1.609,2.508,2.331,3.851,1.731l-.862-1.429a5.588,5.588,0,0,0-2.267-.946.657.657,0,0,0-.721.645" transform="translate(-544.076 -1146.412)" fill="none"/>
    </clipPath>
    <linearGradient id="linear-gradient-27" x1="-8.891" y1="25.585" x2="-8.875" y2="25.585" xlink:href="#linear-gradient-12"/>
  </defs>
  <g id="Group_16408" data-name="Group 16408" clip-path="url(#clip-path)">
    <g id="Group_16316" data-name="Group 16316" transform="translate(0 2.318)">
      <g id="Group_16315" data-name="Group 16315" clip-path="url(#clip-path-2)">
        <rect id="Rectangle_3410" data-name="Rectangle 3410" width="303.38" height="304.648" transform="translate(-107.661 86.687) rotate(-38.841)" fill="url(#linear-gradient)"/>
      </g>
    </g>
    <g id="Group_16324" data-name="Group 16324">
      <g id="Group_16323" data-name="Group 16323" clip-path="url(#clip-path)">
        <path id="Path_16448" data-name="Path 16448" d="M1735.7,1207.35a1.372,1.372,0,0,1-.92-.543c-3.229-4.352-26.711-38.412,4.54-69.545,29.667-29.555,43.115-35.624,44.9-52.989a2.037,2.037,0,0,1,3.853-.687c6.741,13.663,17.244,45.546-17.513,66.472-38.341,23.084-35.2,48.389-33.344,55.58a1.377,1.377,0,0,1-1.519,1.712" transform="translate(-1590.74 -999.199)" fill="#91b3fa"/>
        <path id="Path_16449" data-name="Path 16449" d="M1918.406,2250.23a1.984,1.984,0,0,1-1.7-1.662c-.915-5.922-3.163-28.054,13.141-33.923,17.949-6.46,32.439,10.256,45.633-2.828a1,1,0,0,1,1.7.875c-1.175,6.834-6.405,22.665-29.677,25.85-24.908,3.41-27.711,6.267-27.208,9.812a1.671,1.671,0,0,1-1.887,1.876Z" transform="translate(-1768.695 -2041.431)" fill="#91b3fa"/>
        <g id="Group_16319" data-name="Group 16319" transform="translate(136.575 102.233)" opacity="0.47">
          <g id="Group_16318" data-name="Group 16318">
            <g id="Group_16317" data-name="Group 16317" clip-path="url(#clip-path-4)">
              <path id="Path_16450" data-name="Path 16450" d="M1831.8,1329.8a25.572,25.572,0,0,1-1.192,3.7,37.469,37.469,0,0,1-1.615,3.511,46.05,46.05,0,0,1-4.141,6.535,54.165,54.165,0,0,1-11.046,10.825,70.663,70.663,0,0,1-6.481,4.2,58.918,58.918,0,0,0-6.152,4.121,64.818,64.818,0,0,0-10.654,10.291,55.25,55.25,0,0,0-12.2,26.657,51.858,51.858,0,0,0-.083,14.838,61.379,61.379,0,0,0,3.931,14.443.486.486,0,0,1-.889.389,58.1,58.1,0,0,1-4.692-14.57,50.55,50.55,0,0,1-.437-15.4,52.9,52.9,0,0,1,4.157-14.893,60.046,60.046,0,0,1,8.081-13.193,64.724,64.724,0,0,1,11.061-10.813,61.735,61.735,0,0,1,6.432-4.342,70.981,70.981,0,0,0,6.285-3.988,59.61,59.61,0,0,0,10.933-9.971,52.112,52.112,0,0,0,4.422-5.975,39.32,39.32,0,0,0,3.422-6.6l.011-.03a.443.443,0,0,1,.845.261" transform="translate(-1775.763 -1329.254)" fill="#fff"/>
            </g>
          </g>
        </g>
        <g id="Group_16322" data-name="Group 16322" transform="translate(148.654 174.503)" opacity="0.47">
          <g id="Group_16321" data-name="Group 16321">
            <g id="Group_16320" data-name="Group 16320" clip-path="url(#clip-path-5)">
              <path id="Path_16451" data-name="Path 16451" d="M1932.833,2299.188a1.576,1.576,0,0,0,.045-.618l-.019-.611-.014-1.22q0-1.22.054-2.439c.072-1.625.211-3.248.428-4.863a36.452,36.452,0,0,1,2.476-9.469,17.285,17.285,0,0,1,6.066-7.759,13.381,13.381,0,0,1,4.647-1.912,17.021,17.021,0,0,1,4.992-.253c6.484.752,12.839,2,19.211,3a33.916,33.916,0,0,0,9.509.47,14.156,14.156,0,0,0,2.278-.521,11.976,11.976,0,0,0,2.127-.95,15,15,0,0,0,3.611-3.005l0,0a.4.4,0,0,1,.591.525,15.836,15.836,0,0,1-3.753,3.255,12.911,12.911,0,0,1-2.274,1.075,15.109,15.109,0,0,1-2.435.612,34.782,34.782,0,0,1-9.819-.367c-3.22-.458-6.4-1.055-9.589-1.571s-6.4-1.018-9.565-1.389a15.9,15.9,0,0,0-4.669.193,12.3,12.3,0,0,0-4.292,1.721,16.337,16.337,0,0,0-5.839,7.231,35.676,35.676,0,0,0-2.586,9.214c-.244,1.588-.41,3.19-.511,4.8q-.075,1.2-.1,2.412l-.008,1.207.008.6a1.308,1.308,0,0,0,.094.594.367.367,0,1,1-.672.047Z" transform="translate(-1932.81 -2268.908)" fill="#fff"/>
            </g>
          </g>
        </g>
      </g>
    </g>
    <g id="Group_16326" data-name="Group 16326" transform="translate(54.196 2.443)">
      <g id="Group_16325" data-name="Group 16325" clip-path="url(#clip-path-6)">
        <rect id="Rectangle_3414" data-name="Rectangle 3414" width="205.688" height="209.73" transform="matrix(0.761, -0.649, 0.649, 0.761, -86.872, 69.568)" fill="url(#linear-gradient-2)"/>
      </g>
    </g>
    <g id="Group_16328" data-name="Group 16328" transform="translate(96.402 175.265)">
      <g id="Group_16327" data-name="Group 16327" clip-path="url(#clip-path-7)">
        <rect id="Rectangle_3415" data-name="Rectangle 3415" width="52.913" height="53.187" transform="matrix(0.761, -0.649, 0.649, 0.761, -19.18, 16.348)" fill="url(#linear-gradient-3)"/>
      </g>
    </g>
    <g id="Group_16330" data-name="Group 16330" transform="translate(44.913)">
      <g id="Group_16329" data-name="Group 16329" clip-path="url(#clip-path-8)">
        <rect id="Rectangle_3416" data-name="Rectangle 3416" width="209.01" height="207.554" transform="matrix(0.687, -0.727, 0.727, 0.687, -87.781, 87.392)" fill="url(#linear-gradient-4)"/>
      </g>
    </g>
    <g id="Group_16332" data-name="Group 16332" transform="translate(87.12 174.675)">
      <g id="Group_16331" data-name="Group 16331" clip-path="url(#clip-path-9)">
        <rect id="Rectangle_3417" data-name="Rectangle 3417" width="54.83" height="54.83" transform="matrix(0.671, -0.741, 0.741, 0.671, -19.313, 21.341)" fill="url(#linear-gradient-5)"/>
      </g>
    </g>
    <g id="Group_16361" data-name="Group 16361">
      <g id="Group_16360" data-name="Group 16360" clip-path="url(#clip-path)">
        <g id="Group_16335" data-name="Group 16335" transform="translate(51.822 5.933)" opacity="0.63">
          <g id="Group_16334" data-name="Group 16334">
            <g id="Group_16333" data-name="Group 16333" clip-path="url(#clip-path-11)">
              <path id="Path_16456" data-name="Path 16456" d="M674.8,127.528a.249.249,0,0,1-.243-.2c-1.36-6.142-1.56-15.759,5.213-26.7A47.267,47.267,0,0,1,707.328,79.4c12.483-3.649,27.3-2.867,44.051,2.322a.249.249,0,0,1-.147.476c-32.175-9.97-57.4-3.328-71.042,18.7-6.685,10.8-6.49,20.279-5.15,26.33a.249.249,0,0,1-.189.3.245.245,0,0,1-.054.006" transform="translate(-673.795 -77.14)" fill="#fff"/>
            </g>
          </g>
        </g>
        <g id="Group_16338" data-name="Group 16338" transform="translate(53.931 60.346)" opacity="0.63">
          <g id="Group_16337" data-name="Group 16337">
            <g id="Group_16336" data-name="Group 16336" clip-path="url(#clip-path-12)">
              <path id="Path_16457" data-name="Path 16457" d="M704.187,790.477a.248.248,0,0,1-.2-.1,24.993,24.993,0,0,1-2.758-5.417.249.249,0,0,1,.466-.178,25.015,25.015,0,0,0,2.7,5.3.249.249,0,0,1-.2.4" transform="translate(-701.21 -784.62)" fill="#fff"/>
            </g>
          </g>
        </g>
        <g id="Group_16341" data-name="Group 16341" transform="translate(106.28 179.459)" opacity="0.63">
          <g id="Group_16340" data-name="Group 16340">
            <g id="Group_16339" data-name="Group 16339" clip-path="url(#clip-path-13)">
              <path id="Path_16458" data-name="Path 16458" d="M1388.612,2335.389a.245.245,0,0,1-.112-.027,13.979,13.979,0,0,0-6.382-1.52.249.249,0,0,1,0-.5,14.473,14.473,0,0,1,6.608,1.574.249.249,0,0,1-.113.471" transform="translate(-1381.868 -2333.343)" fill="#fff"/>
            </g>
          </g>
        </g>
        <g id="Group_16344" data-name="Group 16344" transform="translate(91.904 181.164)" opacity="0.63">
          <g id="Group_16343" data-name="Group 16343">
            <g id="Group_16342" data-name="Group 16342" clip-path="url(#clip-path-14)">
              <path id="Path_16459" data-name="Path 16459" d="M1201.533,2380.6a.245.245,0,0,1-.139-.043,14.63,14.63,0,0,1,1.262-25.018.249.249,0,0,1,.236.439,14.131,14.131,0,0,0-1.22,24.167.249.249,0,0,1-.14.455" transform="translate(-1194.946 -2355.51)" fill="#fff"/>
            </g>
          </g>
        </g>
        <g id="Group_16347" data-name="Group 16347" transform="translate(3.626 30.24)" opacity="0.3">
          <g id="Group_16346" data-name="Group 16346">
            <g id="Group_16345" data-name="Group 16345" clip-path="url(#clip-path-15)">
              <path id="Path_16460" data-name="Path 16460" d="M88.544,399.255a.587.587,0,0,1-.826.087c-.49-.4-1-.778-1.529-1.133a.587.587,0,0,1-.163-.806l.006-.01a.587.587,0,0,1,.816-.157c.552.374,1.094.775,1.609,1.193a.587.587,0,0,1,.123.776.572.572,0,0,1-.036.05m-5.027-2.6c-.568-.28-1.153-.539-1.74-.769a.587.587,0,1,1,.429-1.094c.617.242,1.233.514,1.831.809a.587.587,0,0,1,.267.787.58.58,0,0,1-.034.061.587.587,0,0,1-.752.206m-4.688-1.694c-.614-.147-1.242-.268-1.867-.361a.587.587,0,1,1,.173-1.162c.658.1,1.32.226,1.966.38a.587.587,0,1,1-.272,1.143m-4.949-.6c-.632-.006-1.272.016-1.9.065a.587.587,0,0,1-.09-1.171c.663-.051,1.337-.074,2-.069a.587.587,0,0,1-.01,1.175m-4.96.515c-.616.135-1.236.3-1.84.485a.587.587,0,1,1-.347-1.122c.636-.2,1.288-.368,1.936-.51a.587.587,0,1,1,.251,1.147m-4.722,1.6c-.572.268-1.14.564-1.687.88a.587.587,0,0,1-.587-1.018c.576-.332,1.174-.644,1.776-.926a.587.587,0,1,1,.5,1.064M50.96,413.807a.587.587,0,0,1-.493-.668c.1-.657.229-1.319.384-1.967a.587.587,0,1,1,1.142.275c-.148.615-.271,1.243-.365,1.867a.587.587,0,0,1-.668.493m8.99-14.73c-.5.388-.985.8-1.447,1.233a.587.587,0,1,1-.8-.861c.487-.452,1-.889,1.524-1.3a.587.587,0,1,1,.722.926m-7.789,9.754a.587.587,0,0,1-.331-.762c.244-.618.518-1.234.813-1.83a.587.587,0,1,1,1.053.522c-.281.567-.541,1.152-.773,1.74a.594.594,0,0,1-.054.1.588.588,0,0,1-.708.226m4.231-6.266c-.4.49-.78,1-1.136,1.526a.587.587,0,0,1-.978-.65l.007-.01c.374-.551.777-1.091,1.2-1.606a.587.587,0,0,1,.949.69c-.011.017-.024.034-.037.051" transform="translate(-50.205 -393.182)" fill="#91b3fa"/>
              <path id="Path_16461" data-name="Path 16461" d="M48.238,689.336a.585.585,0,0,0,.094-.338c-.01-.3-.013-.611-.01-.915a.587.587,0,1,0-1.175-.011c0,.32,0,.644.011.963a.587.587,0,0,0,1.08.3" transform="translate(-47.147 -664.854)" fill="#91b3fa"/>
            </g>
          </g>
        </g>
        <g id="Group_16350" data-name="Group 16350" transform="translate(10.46 51.361)" opacity="0.3">
          <g id="Group_16349" data-name="Group 16349">
            <g id="Group_16348" data-name="Group 16348" clip-path="url(#clip-path-16)">
              <path id="Path_16462" data-name="Path 16462" d="M137.768,904.264a.588.588,0,0,0-.1-.755c-.225-.2-.449-.414-.666-.628a.587.587,0,1,0-.823.838c.229.225.465.447.7.661a.588.588,0,0,0,.83-.042.6.6,0,0,0,.057-.074" transform="translate(-136.003 -884.646)" fill="#91b3fa"/>
              <path id="Path_16463" data-name="Path 16463" d="M209.253,732.77a.587.587,0,0,1-.953-.688c.362-.5.707-1.025,1.032-1.563a.587.587,0,0,1,1.006.607q-.211.35-.432.69c-.21.323-.43.644-.654.954m1.777-4.184a.587.587,0,0,1-.307-.772c.246-.572.471-1.16.669-1.749a.587.587,0,1,1,1.114.373c-.208.62-.444,1.24-.7,1.841a.587.587,0,0,1-.772.307m-3.824,6.645c-.451.473-.929.932-1.42,1.366a.587.587,0,1,1-.778-.88c.466-.412.92-.849,1.349-1.3a.587.587,0,0,1,.85.811m5.419-11.423a.587.587,0,0,1-.469-.686c.115-.611.2-1.234.267-1.853a.587.587,0,1,1,1.169.118c-.066.651-.161,1.307-.281,1.951a.586.586,0,0,1-.686.469m-9.376,14.738c-.544.362-1.111.7-1.685,1.02a.587.587,0,1,1-.566-1.029c.546-.3,1.084-.626,1.6-.969a.587.587,0,1,1,.65.978m-4.588,2.367c-.611.235-1.24.446-1.867.628a.587.587,0,1,1-.328-1.128c.6-.173,1.194-.374,1.774-.6a.587.587,0,1,1,.421,1.1m-4.995,1.311c-.648.1-1.308.165-1.96.207a.587.587,0,1,1-.074-1.172c.62-.039,1.246-.105,1.862-.2a.587.587,0,1,1,.172,1.162m-5.162.19c-.653-.048-1.312-.125-1.958-.228a.587.587,0,1,1,.185-1.16c.613.1,1.239.171,1.86.216a.587.587,0,0,1-.087,1.172m-5.08-.949c-.625-.19-1.25-.41-1.859-.653A.587.587,0,1,1,182,739.72c.578.231,1.172.44,1.765.621a.587.587,0,1,1-.343,1.123m-4.742-2.039c-.419-.237-.836-.49-1.239-.752q-.219-.142-.434-.289a.581.581,0,0,1-.155-.816.587.587,0,0,1,.816-.155q.2.139.412.274c.383.249.779.49,1.178.715a.587.587,0,0,1,.222.8l-.019.031a.587.587,0,0,1-.782.19" transform="translate(-173.617 -716.67)" fill="#91b3fa"/>
              <path id="Path_16464" data-name="Path 16464" d="M642.274,669.64a.585.585,0,0,0,.094-.341c-.012-.318-.03-.641-.055-.962a.587.587,0,0,0-1.171.091c.024.3.041.612.052.913a.587.587,0,0,0,1.08.3" transform="translate(-602.29 -667.796)" fill="#91b3fa"/>
            </g>
          </g>
        </g>
        <path id="Path_16465" data-name="Path 16465" d="M157.678,481.254a.275.275,0,0,0-.255-.191l-3.34-.073a14.556,14.556,0,0,0-3.047-3.6l.477-3.3a.275.275,0,0,0-.146-.283l-3.563-1.834a.274.274,0,0,0-.315.046l-2.412,2.309a14.555,14.555,0,0,0-4.7-.387l-2-2.676a.275.275,0,0,0-.3-.1l-3.817,1.223a.274.274,0,0,0-.191.255l-.073,3.34a14.55,14.55,0,0,0-3.6,3.047l-3.3-.477a.274.274,0,0,0-.283.146l-1.834,3.564a.275.275,0,0,0,.046.315l2.309,2.412a14.553,14.553,0,0,0-.388,4.7l-2.676,2a.274.274,0,0,0-.1.3l1.223,3.817a.275.275,0,0,0,.255.191l3.341.073a14.552,14.552,0,0,0,3.047,3.6l-.477,3.3a.275.275,0,0,0,.146.283l3.564,1.834a.275.275,0,0,0,.315-.046l2.412-2.309a14.555,14.555,0,0,0,4.7.388l2,2.676a.275.275,0,0,0,.3.1l3.817-1.223a.274.274,0,0,0,.191-.255l.073-3.34a14.553,14.553,0,0,0,3.6-3.047l3.3.477a.275.275,0,0,0,.283-.146L158.1,494.8a.274.274,0,0,0-.046-.315l-2.309-2.412a14.558,14.558,0,0,0,.387-4.7l2.676-2a.275.275,0,0,0,.1-.3Z" transform="translate(-114.601 -434.913)" fill="#91b3fa"/>
        <path id="Path_16466" data-name="Path 16466" d="M304.823,651.492a4.026,4.026,0,1,1,.358-.471,4.033,4.033,0,0,1-.358.471m-6.1-2.47a3.089,3.089,0,1,0,.766-2.237,3.141,3.141,0,0,0-.277.365,3.067,3.067,0,0,0-.489,1.872" transform="translate(-274.87 -595.209)" fill="#bdd0fb"/>
        <path id="Path_16467" data-name="Path 16467" d="M238.426,583.947a10.1,10.1,0,0,0,.511-.88q.074-.143.143-.289a9.975,9.975,0,0,0,.564-1.483l.006-.021.017-.059c.011-.038.021-.077.032-.115a.235.235,0,1,0-.454-.122,9.446,9.446,0,0,1-8.262,6.95,9.378,9.378,0,0,1-5.172-1,9.583,9.583,0,0,1-.84-.487,9.436,9.436,0,1,1,13.172-12.886.235.235,0,1,0,.4-.248,9.906,9.906,0,1,0-13.828,13.527,10.126,10.126,0,0,0,.882.512,9.908,9.908,0,0,0,12.83-3.394" transform="translate(-203.281 -524.896)" fill="#bdd0fb"/>
        <g id="Group_16353" data-name="Group 16353" transform="translate(39.517 22.019)" opacity="0.3">
          <g id="Group_16352" data-name="Group 16352">
            <g id="Group_16351" data-name="Group 16351" clip-path="url(#clip-path-17)">
              <path id="Path_16468" data-name="Path 16468" d="M841.521,347.852a.362.362,0,0,0-.029-.434c-.2-.234-.411-.465-.625-.686a.363.363,0,1,0-.521.5c.2.211.4.431.6.654a.363.363,0,0,0,.512.039.367.367,0,0,0,.068-.078" transform="translate(-815.137 -341.981)" fill="#91b3fa"/>
              <path id="Path_16469" data-name="Path 16469" d="M538.165,290.25a.363.363,0,0,1-.51.055,15.074,15.074,0,0,0-1.233-.893q-.134-.087-.271-.172a.363.363,0,0,1-.117-.5.376.376,0,0,1,.5-.117q.143.089.284.18a15.75,15.75,0,0,1,1.292.937.363.363,0,0,1,.077.48c-.007.01-.014.02-.022.03m-3.636-1.884a15.044,15.044,0,0,0-1.716-.67.363.363,0,1,1,.222-.691,15.713,15.713,0,0,1,1.8.7.363.363,0,0,1,.177.482.383.383,0,0,1-.025.046.363.363,0,0,1-.456.131m-3.5-1.122a14.909,14.909,0,0,0-1.828-.227.363.363,0,0,1,.045-.724,15.649,15.649,0,0,1,1.917.238.363.363,0,0,1-.134.713m-3.671-.227a14.968,14.968,0,0,0-1.828.227.363.363,0,0,1-.134-.713,15.728,15.728,0,0,1,1.917-.238.363.363,0,1,1,.045.724m-3.615.676a15.128,15.128,0,0,0-1.718.664.363.363,0,1,1-.3-.66,15.879,15.879,0,0,1,1.8-.7.363.363,0,0,1,.22.692m-3.341,1.533a14.874,14.874,0,0,0-1.5,1.062.363.363,0,0,1-.455-.566,15.616,15.616,0,0,1,1.576-1.114.363.363,0,0,1,.381.617m-2.864,2.3a14.918,14.918,0,0,0-1.2,1.4.363.363,0,0,1-.58-.437,15.715,15.715,0,0,1,1.255-1.468.363.363,0,1,1,.521.5m-3.509,4.779a.362.362,0,0,1-.193-.475,15.792,15.792,0,0,1,.736-1.508c.041-.075.083-.148.125-.222a.363.363,0,0,1,.628.363c-.04.069-.079.138-.118.209a15.047,15.047,0,0,0-.7,1.44.363.363,0,0,1-.475.193" transform="translate(-513.806 -286.292)" fill="#91b3fa"/>
            </g>
          </g>
        </g>
        <g id="Group_16356" data-name="Group 16356" transform="translate(51.918 36.123)" opacity="0.3">
          <g id="Group_16355" data-name="Group 16355">
            <g id="Group_16354" data-name="Group 16354" clip-path="url(#clip-path-18)">
              <path id="Path_16470" data-name="Path 16470" d="M690.117,513.257a15.824,15.824,0,0,1-1.149,1.512.363.363,0,1,1-.55-.473,14.966,14.966,0,0,0,1.1-1.442.363.363,0,0,1,.606.4l0,0m.471-1.481a.362.362,0,0,1-.159-.487,15.152,15.152,0,0,0,.721-1.663.363.363,0,0,1,.682.248,15.874,15.874,0,0,1-.756,1.743.367.367,0,0,1-.02.034.363.363,0,0,1-.468.125m-2.945,4.356a15.737,15.737,0,0,1-1.481,1.19.363.363,0,0,1-.42-.592,15.065,15.065,0,0,0,1.413-1.135.363.363,0,1,1,.488.537m4.293-7.808a.363.363,0,0,1-.272-.435,14.906,14.906,0,0,0,.3-1.787.363.363,0,1,1,.722.076,15.536,15.536,0,0,1-.313,1.875.363.363,0,0,1-.435.272m-7.388,10a15.79,15.79,0,0,1-1.723.8.363.363,0,0,1-.265-.676,14.923,14.923,0,0,0,1.643-.762.363.363,0,0,1,.345.639m-3.53,1.385a15.878,15.878,0,0,1-1.865.364.363.363,0,0,1-.1-.719,15.152,15.152,0,0,0,1.779-.347.363.363,0,0,1,.181.7m-3.76.5a15.664,15.664,0,0,1-1.9-.094.363.363,0,0,1,.08-.721,14.822,14.822,0,0,0,1.81.09.363.363,0,0,1,.367.359.359.359,0,0,1-.058.2.363.363,0,0,1-.3.166" transform="translate(-675.038 -502.999)" fill="#91b3fa"/>
              <path id="Path_16471" data-name="Path 16471" d="M896.264,471.139a.361.361,0,0,0,.058-.2c-.006-.31-.021-.622-.044-.926a.363.363,0,1,0-.724.056c.023.29.037.588.042.884a.363.363,0,0,0,.667.191" transform="translate(-878.593 -469.673)" fill="#91b3fa"/>
            </g>
          </g>
        </g>
        <path id="Path_16472" data-name="Path 16472" d="M571.646,344.455a.184.184,0,0,0-.171-.128l-2.235-.049a9.743,9.743,0,0,0-2.039-2.408l.319-2.211a.184.184,0,0,0-.1-.19l-2.385-1.227a.184.184,0,0,0-.211.031l-1.614,1.545a9.735,9.735,0,0,0-3.145-.259l-1.339-1.79a.184.184,0,0,0-.2-.065l-2.554.818a.184.184,0,0,0-.128.171l-.049,2.235a9.74,9.74,0,0,0-2.408,2.039l-2.211-.319a.184.184,0,0,0-.19.1l-1.227,2.384a.184.184,0,0,0,.031.211l1.545,1.614a9.735,9.735,0,0,0-.259,3.145l-1.791,1.339a.184.184,0,0,0-.065.2l.818,2.554a.183.183,0,0,0,.171.128l2.235.049a9.735,9.735,0,0,0,2.039,2.408l-.319,2.212a.184.184,0,0,0,.1.189l2.385,1.227a.184.184,0,0,0,.211-.031l1.614-1.545a9.74,9.74,0,0,0,3.145.259l1.339,1.79a.184.184,0,0,0,.2.065l2.554-.818a.184.184,0,0,0,.128-.171l.049-2.235a9.739,9.739,0,0,0,2.408-2.039l2.211.319a.184.184,0,0,0,.19-.1l1.227-2.385a.184.184,0,0,0-.031-.211L570.35,351.7a9.737,9.737,0,0,0,.259-3.145l1.79-1.339a.183.183,0,0,0,.065-.2Z" transform="translate(-506.97 -311.721)" fill="#91b3fa"/>
        <path id="Path_16473" data-name="Path 16473" d="M669.586,457.821a2.736,2.736,0,1,1,.246-.324,2.8,2.8,0,0,1-.246.324m-3.393-.3a2.019,2.019,0,1,0-.179-2.849,2.052,2.052,0,0,0-.179.236,2.022,2.022,0,0,0,.358,2.613" transform="translate(-613.656 -418.403)" fill="#bdd0fb"/>
        <path id="Path_16474" data-name="Path 16474" d="M623.386,410.759q.188-.289.349-.6a6.886,6.886,0,0,0,.509-1.3l.016-.06a.363.363,0,0,0-.152-.4.363.363,0,0,0-.548.21,6.133,6.133,0,0,1-.47,1.213h0l-.033.063a6.049,6.049,0,0,1-2,2.223,6.142,6.142,0,0,1-1.479.719l-.013,0-.04.013a6.069,6.069,0,0,1-4.659-.386,6.175,6.175,0,0,1-.544-.315,6.109,6.109,0,1,1,8.527-8.342.359.359,0,0,0,.111.113.363.363,0,0,0,.506-.5,6.835,6.835,0,1,0-9.54,9.333,6.944,6.944,0,0,0,.608.353,6.844,6.844,0,0,0,8.855-2.348" transform="translate(-563.842 -369.415)" fill="#bdd0fb"/>
        <path id="Path_16475" data-name="Path 16475" d="M1685.551,857.776,1675,868.568l12.655-3.38Z" transform="translate(-1546.176 -791.804)" fill="#91b3fa"/>
        <path id="Path_16476" data-name="Path 16476" d="M1874.944,542.852,1815,545.761a2.7,2.7,0,0,1-2.829-2.695V518.405a4.962,4.962,0,0,1,4.808-4.959L1871,511.774a7.285,7.285,0,0,1,7.285,7.285v20.282a3.516,3.516,0,0,1-3.345,3.512" transform="translate(-1672.795 -472.413)" fill="#91b3fa"/>
        <g id="Group_16359" data-name="Group 16359" transform="translate(140.296 40.028)" opacity="0.85">
          <g id="Group_16358" data-name="Group 16358">
            <g id="Group_16357" data-name="Group 16357" clip-path="url(#clip-path-19)">
              <path id="Path_16477" data-name="Path 16477" d="M1827.843,552.784a3.706,3.706,0,0,1-3.7-3.707V526.85a4.85,4.85,0,0,1,4.781-4.816l52.31-1.58a7.109,7.109,0,0,1,7.187,7.013v19.163a3.485,3.485,0,0,1-3.363,3.448l-57.034,2.7c-.06,0-.121,0-.181,0m53.394-32.069-52.306,1.58a4.592,4.592,0,0,0-4.529,4.556v22.227a3.446,3.446,0,0,0,3.609,3.443l57.033-2.7a3.225,3.225,0,0,0,3.115-3.188V527.468a6.847,6.847,0,0,0-6.923-6.753" transform="translate(-1824.142 -520.455)" fill="#fff"/>
            </g>
          </g>
        </g>
      </g>
    </g>
    <g id="Group_16363" data-name="Group 16363" transform="translate(148.456 44.784)">
      <g id="Group_16362" data-name="Group 16362" clip-path="url(#clip-path-20)">
        <rect id="Rectangle_3428" data-name="Rectangle 3428" width="49.68" height="3.551" transform="translate(-0.015 0)" fill="url(#linear-gradient-6)"/>
      </g>
    </g>
    <g id="Group_16365" data-name="Group 16365" transform="translate(144.168 56.919)">
      <g id="Group_16364" data-name="Group 16364" clip-path="url(#clip-path-21)">
        <rect id="Rectangle_3429" data-name="Rectangle 3429" width="49.683" height="3.604" transform="translate(-0.016 0)" fill="url(#linear-gradient-7)"/>
      </g>
    </g>
    <g id="Group_16367" data-name="Group 16367" transform="translate(144.168 61.995)">
      <g id="Group_16366" data-name="Group 16366" clip-path="url(#clip-path-22)">
        <rect id="Rectangle_3430" data-name="Rectangle 3430" width="55.38" height="3.857" transform="translate(-0.016)" fill="url(#linear-gradient-8)"/>
      </g>
    </g>
    <g id="Group_16369" data-name="Group 16369" transform="translate(144.381 51.939)">
      <g id="Group_16368" data-name="Group 16368" clip-path="url(#clip-path-23)">
        <rect id="Rectangle_3431" data-name="Rectangle 3431" width="27.118" height="2.79" transform="translate(-0.019 0)" fill="url(#linear-gradient-9)"/>
      </g>
    </g>
    <g id="Group_16371" data-name="Group 16371" transform="translate(174.625 51.036)">
      <g id="Group_16370" data-name="Group 16370" clip-path="url(#clip-path-24)">
        <rect id="Rectangle_3432" data-name="Rectangle 3432" width="25.636" height="2.736" transform="translate(-0.019 0)" fill="url(#linear-gradient-10)"/>
      </g>
    </g>
    <g id="Group_16373" data-name="Group 16373" transform="translate(47.611 206.463)">
      <g id="Group_16372" data-name="Group 16372" clip-path="url(#clip-path-25)">
        <rect id="Rectangle_3433" data-name="Rectangle 3433" width="17.477" height="18.008" transform="translate(-4.116 4.382) rotate(-47.406)" fill="url(#linear-gradient-11)"/>
      </g>
    </g>
    <g id="Group_16375" data-name="Group 16375" transform="translate(47.949 204.302)">
      <g id="Group_16374" data-name="Group 16374" clip-path="url(#clip-path-26)">
        <rect id="Rectangle_3434" data-name="Rectangle 3434" width="4.238" height="4.925" fill="url(#linear-gradient-12)"/>
      </g>
    </g>
    <g id="Group_16377" data-name="Group 16377" transform="translate(37.9 141.913)">
      <g id="Group_16376" data-name="Group 16376" clip-path="url(#clip-path-27)">
        <rect id="Rectangle_3435" data-name="Rectangle 3435" width="67.03" height="54.799" transform="translate(-35.165 38.711) rotate(-53.58)" fill="url(#linear-gradient-13)"/>
      </g>
    </g>
    <g id="Group_16379" data-name="Group 16379" transform="translate(31.795 207.922)">
      <g id="Group_16378" data-name="Group 16378" clip-path="url(#clip-path-28)">
        <rect id="Rectangle_3436" data-name="Rectangle 3436" width="9.759" height="9.768" transform="translate(-3.518 3.703) rotate(-47.406)" fill="url(#linear-gradient-14)"/>
      </g>
    </g>
    <g id="Group_16381" data-name="Group 16381" transform="translate(32.676 203.422)">
      <g id="Group_16380" data-name="Group 16380" clip-path="url(#clip-path-29)">
        <rect id="Rectangle_3437" data-name="Rectangle 3437" width="3.659" height="5.939" transform="translate(0)" fill="url(#linear-gradient-15)"/>
      </g>
    </g>
    <g id="Group_16383" data-name="Group 16383" transform="translate(28.732 140.861)">
      <g id="Group_16382" data-name="Group 16382" clip-path="url(#clip-path-30)">
        <rect id="Rectangle_3438" data-name="Rectangle 3438" width="65.924" height="56.776" transform="translate(-33.615 42.447) rotate(-53.58)" fill="url(#linear-gradient-16)"/>
      </g>
    </g>
    <g id="Group_16385" data-name="Group 16385" transform="translate(28.775 98.68)">
      <g id="Group_16384" data-name="Group 16384" clip-path="url(#clip-path-31)">
        <rect id="Rectangle_3439" data-name="Rectangle 3439" width="63.961" height="61.81" transform="matrix(0.502, -0.865, 0.865, 0.502, -22.947, 36.631)" fill="url(#linear-gradient-17)"/>
      </g>
    </g>
    <g id="Group_16387" data-name="Group 16387" transform="translate(65.389 83.172)">
      <g id="Group_16386" data-name="Group 16386" clip-path="url(#clip-path-32)">
        <rect id="Rectangle_3440" data-name="Rectangle 3440" width="31.155" height="28.837" transform="translate(-7.929 22.655) rotate(-70.71)" fill="url(#linear-gradient-18)"/>
      </g>
    </g>
    <g id="Group_16389" data-name="Group 16389" transform="translate(84.548 72.401)">
      <g id="Group_16388" data-name="Group 16388" clip-path="url(#clip-path-33)">
        <rect id="Rectangle_3441" data-name="Rectangle 3441" width="14.761" height="11.695" transform="translate(-4.257 11.475) rotate(-70.71)" fill="url(#linear-gradient-19)"/>
      </g>
    </g>
    <g id="Group_16391" data-name="Group 16391" transform="translate(85.919 77.55)">
      <g id="Group_16390" data-name="Group 16390" clip-path="url(#clip-path-34)">
        <rect id="Rectangle_3442" data-name="Rectangle 3442" width="6.12" height="5.197" transform="translate(-2.087 4.209) rotate(-63.631)" fill="url(#linear-gradient-20)"/>
      </g>
    </g>
    <g id="Group_16393" data-name="Group 16393" transform="translate(18.25 103.449)">
      <g id="Group_16392" data-name="Group 16392" clip-path="url(#clip-path-35)">
        <rect id="Rectangle_3443" data-name="Rectangle 3443" width="24.31" height="23.556" transform="translate(-8.053 13.875) rotate(-59.868)" fill="url(#linear-gradient-21)"/>
      </g>
    </g>
    <g id="Group_16395" data-name="Group 16395" transform="translate(18.012 119.562)">
      <g id="Group_16394" data-name="Group 16394" clip-path="url(#clip-path-36)">
        <rect id="Rectangle_3444" data-name="Rectangle 3444" width="27.68" height="21.216" transform="translate(-0.28)" fill="url(#linear-gradient-22)"/>
      </g>
    </g>
    <g id="Group_16397" data-name="Group 16397">
      <g id="Group_16396" data-name="Group 16396" clip-path="url(#clip-path)">
        <path id="Path_16495" data-name="Path 16495" d="M551.593,1436.884,558,1414.508a.652.652,0,0,1,.552-.47c1.161-.135,4.525-.516,8.408-.844a95.443,95.443,0,0,1,13.357-.444.655.655,0,0,1,.535.942c-1.846,3.735-9.44,18.928-13.243,23.9a.656.656,0,0,1-.528.259l-14.866-.138a.655.655,0,0,1-.623-.835" transform="translate(-509.146 -1304.002)" fill="#91b3fa"/>
        <path id="Path_16496" data-name="Path 16496" d="M753.59,1385.167l4.645-.774a.334.334,0,0,1,.371.433l-.46,1.393a.333.333,0,0,1-.272.226l-4.47.6a.334.334,0,0,1-.369-.406l.285-1.217a.334.334,0,0,1,.27-.253" transform="translate(-695.111 -1277.915)" fill="#bdd0fb"/>
        <path id="Path_16497" data-name="Path 16497" d="M715.027,1405.807l.383-1.993a.461.461,0,0,1,.406-.371l9.383-.952a.461.461,0,0,1,.495.566l-.6,2.484a.461.461,0,0,1-.425.353l-9.169.462a.461.461,0,0,1-.476-.547" transform="translate(-660.026 -1294.621)" fill="#bdd0fb"/>
      </g>
    </g>
    <g id="Group_16399" data-name="Group 16399" transform="translate(43.377 119.847)">
      <g id="Group_16398" data-name="Group 16398" clip-path="url(#clip-path-38)">
        <rect id="Rectangle_3446" data-name="Rectangle 3446" width="8.81" height="7.842" transform="translate(-0.274)" fill="url(#linear-gradient-23)"/>
      </g>
    </g>
    <g id="Group_16401" data-name="Group 16401" transform="translate(39.051 91.421)">
      <g id="Group_16400" data-name="Group 16400" clip-path="url(#clip-path-39)">
        <rect id="Rectangle_3447" data-name="Rectangle 3447" width="10.871" height="12.837" transform="translate(-0.038)" fill="url(#linear-gradient-24)"/>
      </g>
    </g>
    <g id="Group_16403" data-name="Group 16403" transform="translate(41.254 81.882)">
      <g id="Group_16402" data-name="Group 16402" clip-path="url(#clip-path-40)">
        <rect id="Rectangle_3448" data-name="Rectangle 3448" width="18.155" height="18.065" transform="matrix(0.521, -0.854, 0.854, 0.521, -5.917, 9.702)" fill="url(#linear-gradient-25)"/>
      </g>
    </g>
    <g id="Group_16405" data-name="Group 16405" transform="translate(35.873 76.529)">
      <g id="Group_16404" data-name="Group 16404" clip-path="url(#clip-path-41)">
        <rect id="Rectangle_3449" data-name="Rectangle 3449" width="23.816" height="23.822" transform="matrix(0.62, -0.785, 0.785, 0.62, -8.31, 9.898)" fill="url(#linear-gradient-26)"/>
      </g>
    </g>
    <g id="Group_16407" data-name="Group 16407" transform="translate(41.845 88.171)">
      <g id="Group_16406" data-name="Group 16406" clip-path="url(#clip-path-42)">
        <rect id="Rectangle_3450" data-name="Rectangle 3450" width="4.651" height="5.011" transform="matrix(0.521, -0.854, 0.854, 0.521, -1.515, 2.169)" fill="url(#linear-gradient-27)"/>
      </g>
    </g>
  </g>
</svg>
