<svg xmlns="http://www.w3.org/2000/svg" width="24" height="24" viewBox="0 0 24 24">
  <path id="Application-based_training" data-name="Application-based training" d="M1.2,24a.4.4,0,0,1-.388-.3l-.8-3.2A.4.4,0,0,1,0,20.4V15.6a.4.4,0,0,1,.221-.358l2.7-1.35A2.391,2.391,0,0,1,2.4,12.4V9.777a1.778,1.778,0,0,1,.8-1.483V2.4H2.4A.4.4,0,0,1,2,2V.4A.4.4,0,0,1,2.4,0H23.6a.4.4,0,0,1,.4.4V2a.4.4,0,0,1-.4.4h-.8V20a1.2,1.2,0,0,1-1.2,1.2H18.534L17.04,22.32a.4.4,0,0,1-.24.08H11.2a.4.4,0,0,1-.283-.117l-1.161-1.16-.982,2.618A.4.4,0,0,1,8.4,24ZM.8,15.848v4.5L1.513,23.2h6.61l1.1-2.941a.4.4,0,0,1,.657-.142L11.366,21.6H13.6v-.985l-2.222-1.482A.4.4,0,0,1,11.253,19L9.713,16.3l-1.776-.888L5.145,20.2a.4.4,0,0,1-.691,0L1.663,15.416Zm13.6,4.719V21.6h2.267l1.19-.892L17.386,20h-.638l-.414.622-.666-.444.652-.978h-.553ZM16.8,18.4a.4.4,0,0,1,.4.4v.4h.4a.4.4,0,0,1,.332.178l.682,1.022H21.6A.4.4,0,0,0,22,20V2.4H4V8.009a1.77,1.77,0,0,1,.738.083l1.05.35A2.061,2.061,0,0,1,7.2,10.4v2a2.382,2.382,0,0,1-.522,1.492l3.5,1.751a.4.4,0,0,1,.168.159L11.9,18.52l2.049,1.365,1.368-1.368A.4.4,0,0,1,15.6,18.4ZM3.962,17.77,4.8,19.207l.838-1.436L4.953,16.4H4.648Zm1.676-1.789.481.963,1.1-1.887-1.01-.505ZM2.38,15.058l1.1,1.887.482-.963L3.39,14.553Zm2.291.543h.258l.338-.846a2.392,2.392,0,0,1-.935,0ZM3.2,12.4a1.6,1.6,0,1,0,3.2,0V10.8H3.2Zm0-2.623V10H6.335a1.265,1.265,0,0,0-.8-.8L4.486,8.85A.978.978,0,0,0,3.2,9.777ZM2.8,1.6H23.2V.8H2.8ZM20.5,16.409V15.65h.759v.759ZM14.8,16.4a.4.4,0,0,1-.32-.16L13.4,14.8a4.8,4.8,0,0,1-4.21-6.681L8.2,6.8H6.4V6h2a.4.4,0,0,1,.32.16l.886,1.181a4.8,4.8,0,0,1,5.51-1.9l.964-1.286A.4.4,0,0,1,16.4,4h3.2v.8h-3l-.729.972a4.8,4.8,0,0,1-1.516,8.969L15,15.6h4.6v.8ZM13.6,14A4,4,0,0,0,16.7,7.47l-2.813,2.813a.4.4,0,0,1-.283.117H9.62A4.007,4.007,0,0,0,13.6,14ZM9.62,9.6H13.2V6.02A4.007,4.007,0,0,0,9.62,9.6ZM14,9.035,16.13,6.9A3.982,3.982,0,0,0,14,6.02ZM20.5,14.892v-.759h.759v.759Zm-2.657,0v-.759h1.9v.759ZM4.934,6.921V6.162h.759v.759ZM20.5,6.542V5.782h.759v.759Zm-2.657,0V5.782h1.9v.759ZM6.452,5.023V4.264h1.9v.759Zm-1.518,0V4.264h.759v.759ZM20.5,4.644V3.885h.759v.759Z" fill="#004072"/>
</svg>
