<svg xmlns="http://www.w3.org/2000/svg" width="31.305" height="24" viewBox="0 0 31.305 24">
  <path id="Available_Courses" data-name="Available Courses" d="M.522,24A.522.522,0,0,1,0,23.479V2.609a.522.522,0,0,1,.522-.522H2.087V.522A.522.522,0,0,1,2.609,0H13.565a2.606,2.606,0,0,1,2.087,1.059A2.607,2.607,0,0,1,17.739,0H28.7a.522.522,0,0,1,.517.522V2.087h1.566a.522.522,0,0,1,.522.522V23.478a.522.522,0,0,1-.522.522Zm15.746-1.043H30.261l0-19.827H29.222V21.392a.522.522,0,0,1-.522.522H17.739A1.57,1.57,0,0,0,16.268,22.957Zm-15.225,0H15.036a1.57,1.57,0,0,0-1.472-1.043H2.609a.522.522,0,0,1-.522-.522V3.13H1.043Zm14.609-1.028.015-.016h-.031Zm.522-19.32v18.8a2.566,2.566,0,0,1,1.565-.537H28.174V1.044H17.739A1.57,1.57,0,0,0,16.174,2.609ZM3.13,20.87H13.565a2.566,2.566,0,0,1,1.565.537V2.608a1.57,1.57,0,0,0-1.565-1.565H3.13Zm19.9-1.3-1.565-2.608a.525.525,0,0,1-.073-.266V4.174a2.087,2.087,0,1,1,4.173,0V16.7a.525.525,0,0,1-.073.266l-1.562,2.608a.521.521,0,0,1-.9,0Zm-.411-2.719.86,1.44.861-1.44-.861-.573Zm-.184-1.13.522-.35V8.347H24V15.37l.522.35V7.3H22.433Zm0-9.46h2.087V5.217H22.433Zm0-2.087h2.087a1.044,1.044,0,1,0-2.087,0ZM7.3,7.826V6.783h6.783V7.826Zm-3.129,0V6.783H6.26V7.826Zm6.782-2.087V4.7h3.13V5.739Zm-6.782,0V4.7H9.913V5.739Zm0-2.087V2.609h9.913V3.652Z" fill="#ffc107"/>
</svg>
