<svg id="award" xmlns="http://www.w3.org/2000/svg" width="30.875" height="25.032" viewBox="0 0 30.875 25.032">
  <g id="Group_2262" data-name="Group 2262" transform="translate(6.194 5.349)">
    <g id="Group_2261" data-name="Group 2261" transform="translate(0 0)">
      <path id="Path_1982" data-name="Path 1982" d="M120.751,137.141H103.17a.453.453,0,1,0,0,.905h17.582a.453.453,0,1,0,0-.905Z" transform="translate(-102.717 -137.141)"/>
    </g>
  </g>
  <g id="Group_2264" data-name="Group 2264" transform="translate(6.194 10.277)">
    <g id="Group_2263" data-name="Group 2263">
      <path id="Path_1983" data-name="Path 1983" d="M120.751,218.869H103.17a.453.453,0,0,0,0,.905h17.582a.453.453,0,0,0,0-.905Z" transform="translate(-102.717 -218.869)"/>
    </g>
  </g>
  <g id="Group_2266" data-name="Group 2266" transform="translate(11.958 13.476)">
    <g id="Group_2265" data-name="Group 2265">
      <path id="Path_1984" data-name="Path 1984" d="M204.807,271.909h-6.054a.453.453,0,1,0,0,.905h6.054a.453.453,0,0,0,0-.905Z" transform="translate(-198.301 -271.909)"/>
    </g>
  </g>
  <g id="Group_2268" data-name="Group 2268" transform="translate(10.661 7.803)">
    <g id="Group_2267" data-name="Group 2267">
      <path id="Path_1985" data-name="Path 1985" d="M190.364,177.838H177.25a.453.453,0,0,0,0,.905h13.114a.453.453,0,0,0,0-.905Z" transform="translate(-176.797 -177.838)"/>
    </g>
  </g>
  <g id="Group_2270" data-name="Group 2270" transform="translate(6.194 7.803)">
    <g id="Group_2269" data-name="Group 2269" transform="translate(0 0)">
      <path id="Path_1986" data-name="Path 1986" d="M105.531,177.837H103.17a.453.453,0,1,0,0,.905h2.361a.453.453,0,1,0,0-.905Z" transform="translate(-102.717 -177.837)"/>
    </g>
  </g>
  <g id="Group_2272" data-name="Group 2272" transform="translate(2.17 2.259)">
    <g id="Group_2271" data-name="Group 2271" transform="translate(0 0)">
      <path id="Path_1987" data-name="Path 1987" d="M62.353,88.237a.557.557,0,0,0-.393-.16h0a1.708,1.708,0,0,1-1.71-1.633.556.556,0,0,0-.557-.531H38.7a.556.556,0,0,0-.557.531,1.722,1.722,0,0,1-1.631,1.631.556.556,0,0,0-.531.557v11.7a.556.556,0,0,0,.531.557,1.722,1.722,0,0,1,1.631,1.631.556.556,0,0,0,.557.531H52.066a.453.453,0,0,0,0-.905H39.015a2.6,2.6,0,0,0-2.125-2.125V88.943a2.6,2.6,0,0,0,2.125-2.125H59.382a2.611,2.611,0,0,0,2.233,2.141v7.687a.453.453,0,0,0,.905,0V88.635A.553.553,0,0,0,62.353,88.237Z" transform="translate(-35.985 -85.913)"/>
    </g>
  </g>
  <g id="Group_2274" data-name="Group 2274">
    <g id="Group_2273" data-name="Group 2273" transform="translate(0 0)">
      <path id="Path_1988" data-name="Path 1988" d="M29.619,48.445H1.256A1.258,1.258,0,0,0,0,49.7V68.846A1.258,1.258,0,0,0,1.256,70.1h19l-.673,1.409a.538.538,0,0,0,.571.762l1.252-.2.7,1.147a.537.537,0,0,0,.459.258h.027a.537.537,0,0,0,.458-.305l1.214-2.543,1.214,2.543a.537.537,0,0,0,.458.306h.028a.537.537,0,0,0,.459-.258l.7-1.147,1.252.2a.538.538,0,0,0,.57-.762L28.268,70.1h1.351a1.258,1.258,0,0,0,1.256-1.256V49.7A1.258,1.258,0,0,0,29.619,48.445Zm-7.1,23.723-.474-.778a.536.536,0,0,0-.544-.251l-.8.129.847-1.775a1.613,1.613,0,0,0,1.3.478.707.707,0,0,1,.476.128,1.606,1.606,0,0,0,.141.088Zm1.846-2.684h0a.711.711,0,0,1-.207,0h-.005a.706.706,0,0,1-.3-.122,1.612,1.612,0,0,0-.934-.3q-.076,0-.152.007a.707.707,0,0,1-.709-.41,1.612,1.612,0,0,0-.209-.336l-.011-.015-.013-.017-.016-.018a1.611,1.611,0,0,0-.545-.409.707.707,0,0,1-.41-.709,1.613,1.613,0,0,0-.291-1.086.707.707,0,0,1,0-.819,1.612,1.612,0,0,0,.291-1.086.708.708,0,0,1,.41-.709,1.612,1.612,0,0,0,.8-.8.708.708,0,0,1,.709-.41,1.613,1.613,0,0,0,1.086-.291.708.708,0,0,1,.819,0,1.614,1.614,0,0,0,1.086.291.707.707,0,0,1,.71.41,1.612,1.612,0,0,0,.795.795.708.708,0,0,1,.41.709,1.613,1.613,0,0,0,.291,1.086.707.707,0,0,1,0,.819,1.613,1.613,0,0,0-.291,1.086.708.708,0,0,1-.41.71,1.611,1.611,0,0,0-.544.408l-.018.02-.012.014-.013.017a1.61,1.61,0,0,0-.208.336.708.708,0,0,1-.71.41,1.615,1.615,0,0,0-1.086.291A.706.706,0,0,1,24.369,69.484Zm2.648,1.655a.536.536,0,0,0-.544.251L26,72.168l-.945-1.98A1.615,1.615,0,0,0,25.2,70.1a.706.706,0,0,1,.476-.128,1.613,1.613,0,0,0,1.3-.478l.847,1.775Zm2.952-2.294a.352.352,0,0,1-.351.351H27.836l-.233-.489.036-.018a1.614,1.614,0,0,0,.934-1.618A.707.707,0,0,1,28.7,66.6a1.613,1.613,0,0,0,0-1.868.707.707,0,0,1-.128-.476,1.614,1.614,0,0,0-.934-1.618.708.708,0,0,1-.349-.349,1.614,1.614,0,0,0-1.618-.934.706.706,0,0,1-.476-.128,1.613,1.613,0,0,0-1.868,0,.707.707,0,0,1-.476.128,1.613,1.613,0,0,0-1.618.934.707.707,0,0,1-.349.349,1.614,1.614,0,0,0-.934,1.618.707.707,0,0,1-.128.476,1.613,1.613,0,0,0,0,1.868.707.707,0,0,1,.128.476,1.613,1.613,0,0,0,.934,1.618l.036.018-.233.489H1.256a.352.352,0,0,1-.351-.351V49.7a.352.352,0,0,1,.351-.351H29.619a.352.352,0,0,1,.351.351V68.846Z" transform="translate(0 -48.445)"/>
    </g>
  </g>
  <g id="Group_2276" data-name="Group 2276" transform="translate(21.416 14.404)">
    <g id="Group_2275" data-name="Group 2275" transform="translate(0 0)">
      <path id="Path_1989" data-name="Path 1989" d="M357.955,287.312a2.812,2.812,0,1,0,2.812,2.812A2.815,2.815,0,0,0,357.955,287.312Zm0,4.719a1.907,1.907,0,1,1,1.907-1.907A1.909,1.909,0,0,1,357.955,292.031Z" transform="translate(-355.143 -287.312)"/>
    </g>
  </g>
</svg>
