<svg xmlns="http://www.w3.org/2000/svg" width="62" height="49.541" viewBox="0 0 62 49.541">
  <path id="Courses_Published" data-name="Courses Published" d="M48,49.541a2,2,0,0,1-2-2v-24a2,2,0,0,1,2-2H60a2,2,0,0,1,2,2v24a2,2,0,0,1-2,2Zm3.009-2.974a1,1,0,0,0,1,1h4.009a1,1,0,0,0,0-2H52.01a1,1,0,0,0-1,1Zm0-3.006a1,1,0,0,0,1,1h4.009a1,1,0,0,0,0-2H52.01a1,1,0,0,0-1,1Zm0-3.007a1,1,0,0,0,1,1h4.009a1,1,0,0,0,0-2H52.01a1,1,0,0,0-1,1Zm2.2-16.634L47.2,31.937a1,1,0,0,0,.8,1.6h3.006v4.009a1,1,0,0,0,1,1h4.009a1,1,0,0,0,1-1V33.539h3.006a1,1,0,0,0,.8-1.6l-6.013-8.017a1.039,1.039,0,0,0-1.6,0ZM2.75,39.244A2.757,2.757,0,0,1,0,36.5V2.748A2.756,2.756,0,0,1,2.75,0H45.886a2.755,2.755,0,0,1,2.75,2.748V20.041H47.449V9.99H1.186V29.525H44.5v1.186H1.186V36.5A1.569,1.569,0,0,0,2.75,38.058H44.5v1.185H2.75ZM1.186,2.748V8.8H47.449V2.748a1.565,1.565,0,0,0-1.563-1.561H2.75A1.567,1.567,0,0,0,1.186,2.748Zm10.32,32.291V34.8H10.63a.593.593,0,1,1,0-1.186h.876v-.241a.593.593,0,0,1,1.186,0v.241H44.5V34.8H12.693v.234a.593.593,0,0,1-1.186,0ZM6.677,34.8a.593.593,0,0,1,0-1.186h.584a.593.593,0,0,1,0,1.186Zm-2.966,0a.593.593,0,1,1,0-1.186H4.3a.593.593,0,0,1,0,1.186ZM21.323,24.44a.8.8,0,0,1-.4-.686v-9.76a.79.79,0,0,1,1.186-.685l8.453,4.88a.791.791,0,0,1,0,1.37L22.113,24.44A.794.794,0,0,1,21.323,24.44Zm.79-1.37,7.267-4.2-7.267-4.195ZM14.8,4.918A2.285,2.285,0,1,1,17.088,7.2,2.285,2.285,0,0,1,14.8,4.918Zm1.186,0a1.1,1.1,0,1,0,1.1-1.1,1.1,1.1,0,0,0-1.1,1.1Zm-7.174,0A2.286,2.286,0,1,1,11.1,7.2,2.286,2.286,0,0,1,8.812,4.918Zm1.186,0a1.1,1.1,0,1,0,1.1-1.1,1.1,1.1,0,0,0-1.1,1.1Zm-7.286,0A2.285,2.285,0,1,1,5,7.2,2.285,2.285,0,0,1,2.712,4.918Zm1.186,0A1.1,1.1,0,1,0,5,3.82a1.1,1.1,0,0,0-1.1,1.1ZM26.013,5.4a.593.593,0,1,1,0-1.186H45.444a.593.593,0,0,1,0,1.186Z" fill="#04d004"/>
</svg>
