<svg xmlns="http://www.w3.org/2000/svg" width="103.24" height="88.598" viewBox="0 0 103.24 88.598">
  <g id="Group_4164" data-name="Group 4164" opacity="0.7">
    <g id="computer" transform="translate(0)">
      <g id="Group_4154" data-name="Group 4154" transform="translate(0 12.123)">
        <path id="Path_2435" data-name="Path 2435" d="M221.286,419.871a1.288,1.288,0,0,1-1.046.537H204.787a1.29,1.29,0,0,1-1.221-1.7L207,408.517a1.289,1.289,0,0,1,1.221-.877h8.585a1.289,1.289,0,0,1,1.221.877l3.434,10.191A1.288,1.288,0,0,1,221.286,419.871Z" transform="translate(-168.556 -349.767)" fill="#a8b3ba"/>
        <path id="Path_2436" data-name="Path 2436" d="M260.59,419.871a1.288,1.288,0,0,1-1.046.537h-5.16a1.29,1.29,0,0,0,1.221-1.7l-3.434-10.191a1.289,1.289,0,0,0-1.221-.877h5.16a1.29,1.29,0,0,1,1.221.877l3.434,10.191A1.288,1.288,0,0,1,260.59,419.871Z" transform="translate(-207.86 -349.767)" fill="#879299"/>
        <path id="Path_2437" data-name="Path 2437" d="M87.915,76.642v48.365a6.047,6.047,0,0,1-6.041,6.041H6.041A6.047,6.047,0,0,1,0,125.008V76.642A6.049,6.049,0,0,1,6.041,70.6H81.874a6.049,6.049,0,0,1,6.041,6.042Z" transform="translate(0 -70.6)" fill="#555760"/>
        <path id="Path_2438" data-name="Path 2438" d="M451.816,76.642v48.365a6.047,6.047,0,0,1-6.041,6.041H439.34a6.041,6.041,0,0,0,6.041-6.041V76.642A6.041,6.041,0,0,0,439.34,70.6h6.436a6.049,6.049,0,0,1,6.041,6.042Z" transform="translate(-363.901 -70.6)" fill="#36383f"/>
        <path id="Path_2439" data-name="Path 2439" d="M37.476,108.105h75.045v47.57H37.476Z" transform="translate(-31.041 -101.665)" fill="#eef6ff"/>
        <path id="Path_2440" data-name="Path 2440" d="M444.524,108.105h5.151v47.57h-5.151Z" transform="translate(-368.195 -101.665)" fill="#dae6ef"/>
        <path id="Path_2441" data-name="Path 2441" d="M192.975,470.858a3.865,3.865,0,0,1-3.86,3.869H163.87a3.863,3.863,0,0,1,0-7.727h25.245A3.863,3.863,0,0,1,192.975,470.858Z" transform="translate(-132.535 -398.935)" fill="#555760"/>
        <path id="Path_2442" data-name="Path 2442" d="M308.521,470.858a3.865,3.865,0,0,1-3.86,3.869H299.51a3.863,3.863,0,0,0,0-7.727h5.151A3.863,3.863,0,0,1,308.521,470.858Z" transform="translate(-248.081 -398.935)" fill="#36383f"/>
      </g>
      <path id="Path_2443" data-name="Path 2443" d="M183.192,158.306a1.289,1.289,0,0,1-.639,1.114L164.8,169.788a1.29,1.29,0,0,1-1.3,0L145.749,159.42a1.289,1.289,0,0,1-.639-1.114l.033-17.98a1.287,1.287,0,0,1,1.288-1.286h35.441a1.287,1.287,0,0,1,1.288,1.286Z" transform="translate(-120.193 -115.166)" fill="#555760"/>
      <path id="Path_2444" data-name="Path 2444" d="M278.172,158.306a1.289,1.289,0,0,1-.639,1.114L259.78,169.788l13.457-10.368a1.4,1.4,0,0,0,.489-1.114l-.024-17.98a1.168,1.168,0,0,0-.987-1.286h4.136a1.287,1.287,0,0,1,1.288,1.286Z" transform="translate(-215.173 -115.166)" fill="#36383f"/>
      <path id="Path_2445" data-name="Path 2445" d="M396.949,110.173V123.5a.811.811,0,0,0,.811.811h3.485a.811.811,0,0,0,.811-.811V107.19Z" transform="translate(-328.789 -88.784)" fill="#36383f"/>
      <path id="Path_2446" data-name="Path 2446" d="M139,18.406a1.29,1.29,0,0,1-.639,1.113L109.056,36.636a1.29,1.29,0,0,1-1.3,0L78.449,19.518a1.288,1.288,0,0,1,0-2.225L107.758.175a1.29,1.29,0,0,1,1.3,0l29.309,17.118A1.29,1.29,0,0,1,139,18.406Z" transform="translate(-64.449 0)" fill="#52deff"/>
      <path id="Path_2447" data-name="Path 2447" d="M289.728,19.25a1.29,1.29,0,0,1-.639,1.113L259.78,37.481l22.047-17.118a1.521,1.521,0,0,0,0-2.225L259.78,1.02l29.309,17.118a1.29,1.29,0,0,1,.639,1.113Z" transform="translate(-215.173 -0.845)" fill="#55baff"/>
    </g>
    <g id="Group_4157" data-name="Group 4157" transform="translate(61.633 46.991)">
      <path id="Path_2449" data-name="Path 2449" d="M-2375.7-1622.665l-5.936,19.589-21.369-5.342v-22.557h11.872Z" transform="translate(2411.986 1639.229)" fill="#fff" stroke="#707070" stroke-width="1"/>
      <g id="interface_1_" data-name="interface (1)" transform="translate(0 0)">
        <g id="Group_4151" data-name="Group 4151">
          <path id="Path_2432" data-name="Path 2432" d="M20.8,0a20.8,20.8,0,1,0,20.8,20.8A20.827,20.827,0,0,0,20.8,0Zm8.27,21.532-12.135,7.8A.867.867,0,0,1,15.6,28.6V13a.867.867,0,0,1,1.336-.729l12.135,7.8a.867.867,0,0,1,0,1.458Z" fill="#1f3777"/>
        </g>
      </g>
    </g>
  </g>
</svg>
