<svg xmlns="http://www.w3.org/2000/svg" width="31.749" height="29.633" viewBox="0 0 31.749 29.633">
  <g id="Group_2628" data-name="Group 2628" transform="translate(0 0)">
    <circle id="Ellipse_194" data-name="Ellipse 194" cx="1" cy="1" r="1" transform="translate(4.874 25.815)"/>
    <circle id="Ellipse_197" data-name="Ellipse 197" cx="1" cy="1" r="1" transform="translate(1.874 25.815)"/>
    <circle id="Ellipse_195" data-name="Ellipse 195" cx="1" cy="1" r="1" transform="translate(7.874 25.815)"/>
    <circle id="Ellipse_198" data-name="Ellipse 198" cx="1" cy="1" r="1" transform="translate(15.874 10.815)"/>
    <path id="Path_2032" data-name="Path 2032" d="M10.583,323.232v-2.7a.529.529,0,0,0-.9-.374l-3.02,3.02H2.646A2.649,2.649,0,0,0,0,325.825v1.058a2.649,2.649,0,0,0,2.646,2.646h7.408a2.649,2.649,0,0,0,2.646-2.646v-1.058A2.65,2.65,0,0,0,10.583,323.232Zm1.058,3.651a1.587,1.587,0,0,1-1.587,1.587H2.646a1.587,1.587,0,0,1-1.587-1.587v-1.058a1.587,1.587,0,0,1,1.587-1.587H6.879a.529.529,0,0,0,.374-.155l2.272-2.272v1.9a.529.529,0,0,0,.529.529,1.587,1.587,0,0,1,1.587,1.587Z" transform="translate(0 -299.896)"/>
    <path id="Path_2033" data-name="Path 2033" d="M165.228,18.116h-9.683a.533.533,0,0,1-.33-.116l-2.355-1.885a.529.529,0,0,0-.86.413v3.7a4.763,4.763,0,0,0,2.646,4.26v4.56L152.211,32.3a1.058,1.058,0,0,0,.847,1.693h1.587v1.587a4.238,4.238,0,0,0,4.233,4.233h3.175V45.1a.529.529,0,0,0,.529.529h6.879a.529.529,0,0,0,.529-.529V34.738l.865-.865a9.281,9.281,0,0,0,2.392-4,12.061,12.061,0,0,0,.448-3.291A8.477,8.477,0,0,0,165.228,18.116Zm3.7,26.458h-5.821V39.282a.529.529,0,0,0-.529-.529h-3.7a3.178,3.178,0,0,1-3.175-3.175V33.461a.529.529,0,0,0-.529-.529h-2.117l2.54-3.387a.529.529,0,0,0,.106-.317V24.995h6.879V32.4h1.2a6.359,6.359,0,0,0,5.153,2.646ZM163.64,31.345V28.7H164.7a1.058,1.058,0,0,1,1.058,1.058v.529a1.058,1.058,0,0,1-1.058,1.058Zm8.588-1.76a8.225,8.225,0,0,1-2.122,3.542l-.865.865h-.31a5.3,5.3,0,0,1-3.81-1.63,2.12,2.12,0,0,0,1.693-2.074v-.529A2.117,2.117,0,0,0,164.7,27.64H163.64V24.466a.529.529,0,0,0-.529-.529h-6.35a3.708,3.708,0,0,1-3.7-3.7v-2.6l1.5,1.2a1.588,1.588,0,0,0,.991.348h9.684a7.417,7.417,0,0,1,7.408,7.408A11.015,11.015,0,0,1,172.229,29.584Z" transform="translate(-141.945 -15.999)"/>
  </g>
</svg>
