<svg xmlns="http://www.w3.org/2000/svg" width="22.981" height="19.015" viewBox="0 0 22.981 19.015">
  <g id="Group_2632" data-name="Group 2632" transform="translate(-1297 -1101)">
    <path id="Path_1954" data-name="Path 1954" d="M154.241,150h-3.812a.43.43,0,0,0-.428.428v8.138a.43.43,0,0,0,.428.428h3.812a.43.43,0,0,0,.428-.428v-8.138A.43.43,0,0,0,154.241,150Zm-.471,8.138h-2.913v-7.282h2.913Z" transform="translate(1156.188 960.663)"/>
    <path id="Path_1955" data-name="Path 1955" d="M303.241,48h-3.812a.511.511,0,0,0-.428.563V65.01a.511.511,0,0,0,.428.563h3.812a.511.511,0,0,0,.428-.563V48.563A.511.511,0,0,0,303.241,48Zm-.428,16.447h-2.956V49.127h2.956Z" transform="translate(1016.313 1053)"/>
    <path id="Path_1956" data-name="Path 1956" d="M4.241,220H.428a.43.43,0,0,0-.428.428v5.14A.43.43,0,0,0,.428,226H4.241a.43.43,0,0,0,.428-.428v-5.14A.43.43,0,0,0,4.241,220Zm-.428,5.14H.857v-4.283H3.812Z" transform="translate(1297 894.018)"/>
  </g>
</svg>
