<svg xmlns="http://www.w3.org/2000/svg" width="35" height="35" viewBox="0 0 35 35">
  <g id="Group_1294" data-name="Group 1294" transform="translate(0.478 0.478)">
    <g id="Rectangle_1973" data-name="Rectangle 1973" transform="translate(-0.478 -0.478)" fill="#fff" stroke="#fff" stroke-width="1">
      <rect width="10" height="10" stroke="none"/>
      <rect x="0.5" y="0.5" width="9" height="9" fill="none"/>
    </g>
    <g id="Rectangle_1974" data-name="Rectangle 1974" transform="translate(12.522 -0.478)" fill="#fff" stroke="#fff" stroke-width="1">
      <rect width="9" height="10" stroke="none"/>
      <rect x="0.5" y="0.5" width="8" height="9" fill="none"/>
    </g>
    <g id="Rectangle_1977" data-name="Rectangle 1977" transform="translate(24.522 -0.478)" fill="#fff" stroke="#fff" stroke-width="1">
      <rect width="10" height="10" stroke="none"/>
      <rect x="0.5" y="0.5" width="9" height="9" fill="none"/>
    </g>
    <g id="Rectangle_1980" data-name="Rectangle 1980" transform="translate(12.522 24.522)" fill="#fff" stroke="#fff" stroke-width="1">
      <rect width="9" height="10" stroke="none"/>
      <rect x="0.5" y="0.5" width="8" height="9" fill="none"/>
    </g>
    <g id="Rectangle_1978" data-name="Rectangle 1978" transform="translate(24.522 12.522)" fill="#fff" stroke="#fff" stroke-width="1">
      <rect width="10" height="9" stroke="none"/>
      <rect x="0.5" y="0.5" width="9" height="8" fill="none"/>
    </g>
    <g id="Rectangle_1981" data-name="Rectangle 1981" transform="translate(24.522 24.522)" fill="#fff" stroke="#fff" stroke-width="1">
      <rect width="10" height="10" stroke="none"/>
      <rect x="0.5" y="0.5" width="9" height="9" fill="none"/>
    </g>
    <g id="Rectangle_1979" data-name="Rectangle 1979" transform="translate(-0.478 24.522)" fill="#fff" stroke="#fff" stroke-width="1">
      <rect width="10" height="10" stroke="none"/>
      <rect x="0.5" y="0.5" width="9" height="9" fill="none"/>
    </g>
  </g>
</svg>
