<svg xmlns="http://www.w3.org/2000/svg" width="24" height="21.913" viewBox="0 0 24 21.913">
  <path id="Language" d="M15.783,21.913h-.522a.391.391,0,0,1-.391-.391V17.609H12.521a3.135,3.135,0,0,1-3.131-3.131V13.3H8.217a.783.783,0,0,1-.626-1.252l1.8-2.4V6.28a3.522,3.522,0,0,1-1.956-3.15V.391A.392.392,0,0,1,8.071.086L8.088.1A.392.392,0,0,1,8.593.086L10.335,1.48a.4.4,0,0,0,.244.086H17.74A6.267,6.267,0,0,1,24,7.826a8.9,8.9,0,0,1-.331,2.433A6.857,6.857,0,0,1,21.9,13.218l-.639.639v7.664a.391.391,0,0,1-.391.391Zm0-5.087a.391.391,0,0,1,.391.391V21.13h3.782V14.087a4.7,4.7,0,0,1-3.811-1.957h-.884V6.652H10.7V9.783a.392.392,0,0,1-.078.235l-1.878,2.5H10.3a.391.391,0,0,1,.391.391v1.566a2.35,2.35,0,0,0,2.348,2.347h2.739Zm1.566-8.217a1.565,1.565,0,0,1,1.565,1.566v.391A1.567,1.567,0,0,1,17.661,12.1,3.919,3.919,0,0,0,20.2,13.293l.627-.628a6.086,6.086,0,0,0,1.57-2.619,8.168,8.168,0,0,0,.3-2.22,5.485,5.485,0,0,0-5.479-5.478h-7.16a1.171,1.171,0,0,1-.733-.258L8.74,1.624V3.131A2.742,2.742,0,0,0,11.479,5.87h4.7a.391.391,0,0,1,.392.391V8.608h.782Zm-.523,2.739a.783.783,0,0,0,.783-.782v-.391a.783.783,0,0,0-.783-.782h-.259v1.956ZM2.479,21.913H1.956A1.959,1.959,0,0,1,0,19.956v-.782a1.958,1.958,0,0,1,1.956-1.956h2.97l2.232-2.232A.391.391,0,0,1,7.7,14.97a.391.391,0,0,1,.652.291v2a1.96,1.96,0,0,1,1.566,1.918v.782a1.96,1.96,0,0,1-1.957,1.957ZM1.305,19.174v.782A1.174,1.174,0,0,0,2.479,21.13h5a1.174,1.174,0,0,0,1.132-1.174v-.782A1.174,1.174,0,0,0,7.435,18a.391.391,0,0,1-.391-.391v-.881L5.886,17.885A.392.392,0,0,1,5.61,18H2.479A1.174,1.174,0,0,0,1.305,19.174Zm5.518,1.347a.739.739,0,1,1,0-1.384.739.739,0,1,1,0,1.384Zm-2.218,0a.739.739,0,1,1,0-1.384.739.739,0,1,1,0,1.384Zm-2.218,0a.739.739,0,1,1,0-1.384.739.739,0,1,1,0,1.384ZM12.739,9.428a.74.74,0,1,1,0-1.384.739.739,0,1,1,0,1.384Z" transform="translate(0 0)" fill="#004072"/>
</svg>
