<svg xmlns="http://www.w3.org/2000/svg" width="40.365" height="27.407" viewBox="0 0 40.365 27.407">
  <path id="New_Registrations" data-name="New Registrations" d="M27.3,20.876a6.531,6.531,0,1,1,6.531,6.531A6.531,6.531,0,0,1,27.3,20.876Zm1.959,0,3.266,3.27,5.879-5.882-.921-.927-3.649,3.648-1.309,1.31-2.345-2.339ZM2.426,22.69A2.433,2.433,0,0,1,0,20.256V18.8a5.841,5.841,0,0,1,5.835-5.834h.421a7.8,7.8,0,0,0,6.934,0h.421A5.841,5.841,0,0,1,19.445,18.8v1.46a2.437,2.437,0,0,1-2.434,2.434Zm23.6-1.624H21.036c0-.037.008-.076.014-.117a1.724,1.724,0,0,0,.017-.2V18.8a7.366,7.366,0,0,0-2.012-5.053,5.687,5.687,0,0,1,2.824-.781h.194a6.311,6.311,0,0,0,4.478,0h.186a5.668,5.668,0,0,1,3.7,1.373A6.494,6.494,0,0,0,26,20.506c0,.2.007.385.024.559v0ZM24.3,11.35a4.863,4.863,0,1,1,.008,0ZM5.71,9.688a5.669,5.669,0,1,1,4.01,1.662A5.672,5.672,0,0,1,5.71,9.688Z" fill="#fff"/>
</svg>
