<svg xmlns="http://www.w3.org/2000/svg" width="23.082" height="24" viewBox="0 0 23.082 24">
  <path id="Video_Player" data-name="Video Player" d="M2935.076,2324a.47.47,0,1,1,0-.937h6.155a1.756,1.756,0,0,0,1.826-1.672v-6.379H2923v6.379a1.755,1.755,0,0,0,1.826,1.672h6.155a.471.471,0,1,1,0,.937h-6.155a2.741,2.741,0,0,1-2.851-2.609v-11.168l-.859-2.711a2.4,2.4,0,0,1,.244-1.983,2.8,2.8,0,0,1,1.7-1.249l15.761-4.177a3.066,3.066,0,0,1,.789-.1,2.845,2.845,0,0,1,2.743,1.883l.879,2.775a.437.437,0,0,1-.044.357.509.509,0,0,1-.307.224l-16.786,4.45h17.477a.491.491,0,0,1,.512.469v11.234a2.74,2.74,0,0,1-2.851,2.609Zm3.475-9.925h4.507v-3.449h-2.33Zm-4.014,0h2.831l2.176-3.449h-2.831Zm-4.014,0h2.831l2.177-3.449H2932.7Zm-4.014,0h2.83l2.177-3.449h-2.831Zm-3.513,0h2.33l2.177-3.449H2923Zm.347-8.894a1.8,1.8,0,0,0-1.09.8,1.539,1.539,0,0,0-.157,1.27l.736,2.325,4.522-1.2-3.644-3.2a.486.486,0,0,1-.067-.072Zm1.426-.378,3.645,3.2a.51.51,0,0,1,.067.073l2.73-.725-3.644-3.2a.4.4,0,0,1-.067-.072Zm3.855-1.021,3.645,3.2a.516.516,0,0,1,.067.073l2.731-.724-3.644-3.2a.518.518,0,0,1-.069-.073Zm3.855-1.022,3.646,3.2a.5.5,0,0,1,.067.072l2.73-.724-3.644-3.2a.478.478,0,0,1-.067-.072ZM2939.1,2301l-2.769.734,3.644,3.2a.494.494,0,0,1,.068.072l2.055-.544-.737-2.325a1.824,1.824,0,0,0-1.759-1.207A1.97,1.97,0,0,0,2939.1,2301Zm-7.72,20.925a.485.485,0,0,1-.243-.42v-4.926a.486.486,0,0,1,.728-.421l4.266,2.463a.485.485,0,0,1,0,.841l-4.266,2.463a.485.485,0,0,1-.485,0Zm.728-1.261,2.809-1.622-2.809-1.622Z" transform="translate(-2921 -2300.001)"/>
</svg>
