<svg xmlns="http://www.w3.org/2000/svg" width="24.001" height="24" viewBox="0 0 24.001 24">
  <path id="qualification" d="M2934.84,2324h-.012a.8.8,0,0,1-.736-.5l-.692-1.657-.7,1.663a.8.8,0,0,1-.733.5h-.01a.8.8,0,0,1-.736-.485l-.133-.3-.306.131a.8.8,0,0,1-1.057-1.027l.781-1.873a62.542,62.542,0,0,0-8.24.751.439.439,0,0,1-.072.007c-.28,0-1.2-.317-1.2-4.4s.92-4.4,1.2-4.4a.418.418,0,0,1,.072.006,72.925,72.925,0,0,0,21.457,0,.4.4,0,0,1,.072-.007c.28,0,1.2.317,1.2,4.4s-.92,4.4-1.2,4.4a.4.4,0,0,1-.07,0,60.965,60.965,0,0,0-7.429-.72l.766,1.836a.8.8,0,0,1-1.06,1.031l-.3-.129-.134.307a.794.794,0,0,1-.729.48Zm-3.169-1.472.292.672.861-2.059a2.8,2.8,0,0,1-1.413-.772l-.938,2.249.673-.3a.4.4,0,0,1,.525.208Zm2.3-1.388.858,2.053.3-.665a.4.4,0,0,1,.524-.208l.672.288-.936-2.24a2.8,2.8,0,0,1-1.409.772Zm-2.576-2.74a2,2,0,1,0,2-2,2,2,0,0,0-2,2Zm3.707-4.427a11.118,11.118,0,0,1,.286,2.464,2.783,2.783,0,0,1,.539,3.154l.028.069a64.867,64.867,0,0,1,7.76.72,13.6,13.6,0,0,0,0-7.16,66.838,66.838,0,0,1-8.6.75Zm-11.7,2.827a11.161,11.161,0,0,1-.392,3.468h0a69.654,69.654,0,0,1,7.844-.636l.018-.042a2.77,2.77,0,0,1,.128-2.621v-.169a10.311,10.311,0,0,0-.326-2.836,70.119,70.119,0,0,1-7.666-.634,11.166,11.166,0,0,1,.394,3.469Zm-1.6,0a1.723,1.723,0,1,0,.4-3.4,11.225,11.225,0,0,0-.4,3.4Zm9.984-.683a2.776,2.776,0,0,1,2.784-.259,8.393,8.393,0,0,0-.288-1.871c-.418.007-.843.012-1.28.012q-.764,0-1.491-.015a10.8,10.8,0,0,1,.272,2.136ZM2927,2310v-2.494l-5.468-1.954a.8.8,0,0,1,0-1.5l11.193-4a.821.821,0,0,1,.546,0l11.2,4h0a.8.8,0,0,1,0,1.5l-2,.715a1.182,1.182,0,0,1,.13.532v1.2a.8.8,0,0,1-.8.8h-.8a.8.8,0,0,1-.8-.8v-.92l-1.2.426V2310c0,1.555-5.386,1.6-6,1.6S2927,2311.55,2927,2310Zm.834,0c.347.311,2.206.8,5.166.8s4.819-.489,5.166-.8c-.348-.311-2.207-.8-5.166-.8s-4.82.49-5.17.8Zm10.366-.88v-3.485c-.24-.308-2.126-.835-5.2-.835s-4.96.527-5.2.835v3.485A19.138,19.138,0,0,1,2938.2,2309.12Zm2.8-2.32v1.2h.8v-1.2a.4.4,0,0,0-.8,0Zm-2-1.2v1.057l1.388-.5a1.2,1.2,0,0,1,.612-.489v-2.017l-7.994-2.857-11.205,4,5.2,1.856V2305.6c0-1.555,5.386-1.6,6-1.6S2939,2304.04,2939,2305.6Zm2.8.058,2.4-.857-2.4-.857Z" transform="translate(-2920.999 -2300.005)" fill="#004072"/>
</svg>
