<svg xmlns="http://www.w3.org/2000/svg" width="25" height="25.007" viewBox="0 0 25 25.007">
  <path id="Self-paced" d="M13.376,23.954a.64.64,0,0,1-.881-.586V11.847a.637.637,0,0,1,.294-.545c2.725-1.7,7.14-2.171,9.361-2.3a1.331,1.331,0,0,1,.275.012L22.631,9A1.282,1.282,0,0,1,24,10.272V20.717a1.278,1.278,0,0,1-1.217,1.268c-2,.107-6.06.5-8.864,1.941a.659.659,0,0,1-.3.074A.65.65,0,0,1,13.376,23.954Zm-2.75,0a.649.649,0,0,1-.541-.028c-2.8-1.441-6.862-1.834-8.868-1.942A1.277,1.277,0,0,1,0,20.716V10.272A1.281,1.281,0,0,1,1.369,9l.2.012A1.335,1.335,0,0,1,1.849,9c2.221.129,6.635.6,9.361,2.3a.626.626,0,0,1,.295.537V23.369a.633.633,0,0,1-.639.63A.651.651,0,0,1,10.626,23.953ZM12,8.994Q11.88,9,11.759,9A4.456,4.456,0,0,1,7.35,4.5,4.456,4.456,0,0,1,11.759,0q.121,0,.24.007T12.24,0a4.455,4.455,0,0,1,4.41,4.5A4.455,4.455,0,0,1,12.24,9Q12.119,9,12,8.994Z" transform="translate(0.5 0.5)" fill="none" stroke="#004072" stroke-width="1"/>
</svg>
