<svg xmlns="http://www.w3.org/2000/svg" width="24" height="23.681" viewBox="0 0 24 23.681">
  <path id="Skill_Level" data-name="Skill Level" d="M9,23.681a.633.633,0,0,1-.674-.574V6.323A.632.632,0,0,1,9,5.748H15a.632.632,0,0,1,.674.574V23.107a.633.633,0,0,1-.674.574Zm.674-1.149h4.657V6.9H9.672Zm-9,1.024A.678.678,0,0,1,0,22.88V13.825a.676.676,0,0,1,.674-.674H6.68a.676.676,0,0,1,.674.674V22.88a.678.678,0,0,1-.674.676Zm.674-1.351H5.938V14.5H1.349Zm15.971,1.34a.721.721,0,0,1-.674-.756V.754A.719.719,0,0,1,17.32,0h6.006A.719.719,0,0,1,24,.754V22.79a.721.721,0,0,1-.674.756Zm.674-1.51h4.657V1.51H17.994Z"/>
</svg>
