<svg xmlns="http://www.w3.org/2000/svg" width="32.411" height="22.687" viewBox="0 0 32.411 22.687">
  <path id="Total_Learners" data-name="Total Learners" d="M9.723,13.594a5.669,5.669,0,1,0-4.012-1.66,5.672,5.672,0,0,0,4.012,1.66Zm3.889,1.621h-.42a7.831,7.831,0,0,1-6.938,0h-.42A5.835,5.835,0,0,0,0,21.047v1.459a2.431,2.431,0,0,0,2.431,2.431H17.016a2.431,2.431,0,0,0,2.431-2.431V21.048a5.835,5.835,0,0,0-5.834-5.834Zm10.7-1.621A4.862,4.862,0,1,0,19.45,8.732a4.862,4.862,0,0,0,4.862,4.862Zm2.431,1.621h-.192a6.386,6.386,0,0,1-4.477,0h-.192a5.625,5.625,0,0,0-2.821.78,7.411,7.411,0,0,1,2.01,5.054v1.945c0,.111-.025.218-.03.324H29.98a2.431,2.431,0,0,0,2.431-2.431,5.669,5.669,0,0,0-5.672-5.672Z" transform="translate(0 -2.25)" fill="#203bbea8"/>
</svg>
