<svg xmlns="http://www.w3.org/2000/svg" width="29.654" height="29.899" viewBox="0 0 29.654 29.899">
  <path id="Total_Enrolments" data-name="Total Enrolments" d="M16.285,28.036v-.015l-.7-2.767-13.909-.1A1.681,1.681,0,0,1,0,23.474V1.679A1.681,1.681,0,0,1,1.68,0h26.3a1.681,1.681,0,0,1,1.675,1.679V23.474a1.681,1.681,0,0,1-1.67,1.679l-1.485.081v2.047A2.621,2.621,0,0,1,23.884,29.9H18.778A2.6,2.6,0,0,1,16.285,28.036ZM15.5,22.715a12.939,12.939,0,0,1,.725,2.085l.771,3.031a1.877,1.877,0,0,0,1.807,1.34h5.09a1.892,1.892,0,0,0,1.889-1.89l0-4.116a.593.593,0,1,0-1.186,0V24.4a.365.365,0,0,1-.729,0V22.6a.585.585,0,0,0-1.157-.128v1.555a.365.365,0,0,1-.365.365h-.014a.365.365,0,0,1-.365-.365V22.592a1.373,1.373,0,0,1,.014-.192v-.41a.544.544,0,0,0-1.088,0v2.038a.365.365,0,1,1-.729,0V22.54a.371.371,0,0,1-.015-.1V15.962a.686.686,0,1,0-1.373,0v9.91a.365.365,0,0,1-.729,0V24.518l-.627-.908a2.4,2.4,0,0,0-1.975-1.037ZM.725,23.471a.949.949,0,0,0,.95.95l13.709.1a12.045,12.045,0,0,0-.558-1.509l-.06-.137a.731.731,0,0,1,.668-1.031A3.128,3.128,0,0,1,18.009,23.2l.027.04V15.962a1.415,1.415,0,1,1,2.83,0v4.884a1.269,1.269,0,0,1,1.722.625,1.312,1.312,0,0,1,1.878.58A1.321,1.321,0,0,1,26.5,23.167V24.5l1.46-.076h.015a.952.952,0,0,0,.95-.95V6.1H.725Zm0-21.792V5.371h28.2V1.679a.951.951,0,0,0-.95-.95H1.68A.951.951,0,0,0,.729,1.679ZM4.137,21.292a.532.532,0,0,1-.531-.531V17.276a.533.533,0,0,1,.531-.531H5.882a.365.365,0,1,1,0,.729H4.335v3.087H7.43V19.58a.365.365,0,0,1,.729-.005v1.187a.531.531,0,0,1-.531.531Zm9.019-.546H11.911a.365.365,0,1,1,0-.729h1.245a.365.365,0,1,1,.02.73Zm-7.3-1.409-.671-.544a.365.365,0,0,1,.459-.567l.558.453,1.74-2.091a.365.365,0,0,1,.561.466L6.647,19.288l-.014.014a.579.579,0,0,1-.772.034Zm17.315-1.612a.365.365,0,0,1,0-.729h2.963a.365.365,0,0,1,0,.729Zm-11.264,0a.365.365,0,0,1,0-.729h4.621a.365.365,0,0,1,0,.729ZM4.137,13.561a.532.532,0,0,1-.531-.53V9.545a.533.533,0,0,1,.531-.531H5.882a.365.365,0,0,1,0,.729H4.335v3.09H7.43V11.85a.365.365,0,1,1,.729,0v1.18a.533.533,0,0,1-.531.531Zm7.442-.721a.365.365,0,0,1,.332-.553H26.141a.365.365,0,0,1,0,.729H11.892A.365.365,0,0,1,11.579,12.84ZM5.86,11.6l-.671-.543a.365.365,0,0,1,.093-.635.363.363,0,0,1,.366.068l.558.452,1.741-2.09a.364.364,0,1,1,.56.465L6.647,11.555l-.014.014a.579.579,0,0,1-.772.034ZM11.911,10a.365.365,0,0,1,0-.729H26.141a.365.365,0,0,1,0,.729ZM9.021,3a1.4,1.4,0,1,1,1.4,1.4A1.4,1.4,0,0,1,9.021,3Zm.731,0a.669.669,0,1,0,.67-.67A.669.669,0,0,0,9.752,3.005ZM5.336,3a1.4,1.4,0,1,1,1.4,1.4A1.4,1.4,0,0,1,5.336,3Zm.731,0a.669.669,0,1,0,.669-.67A.669.669,0,0,0,6.067,3.005ZM1.653,3a1.4,1.4,0,1,1,1.4,1.4A1.4,1.4,0,0,1,1.653,3Zm.731,0a.669.669,0,1,0,.669-.67A.669.669,0,0,0,2.384,3.005Zm13.147.119a.365.365,0,0,1,.332-.553H27.71a.365.365,0,0,1,0,.729H15.844A.363.363,0,0,1,15.531,3.124Z" fill="#af4811d9"/>
</svg>
