<svg xmlns="http://www.w3.org/2000/svg" width="22" height="13.334" viewBox="0 0 22 13.334">
  <path id="Trending_Up" d="M.611,13.334a.58.58,0,0,1-.432-.2.711.711,0,0,1,0-.943L6.9,4.863a.576.576,0,0,1,.864,0l4.457,4.861,7.692-8.391H16.5a.586.586,0,0,1-.432-.2A.7.7,0,0,1,15.89.666.691.691,0,0,1,16.069.2.579.579,0,0,1,16.5,0h4.89a.579.579,0,0,1,.432.2A.691.691,0,0,1,22,.666V6a.7.7,0,0,1-.179.471.58.58,0,0,1-.864,0A.7.7,0,0,1,20.779,6V2.275l-8.124,8.863a.576.576,0,0,1-.864,0L7.334,6.275l-6.29,6.863A.58.58,0,0,1,.611,13.334Z" fill="#67d4b1"/>
</svg>
