<svg xmlns="http://www.w3.org/2000/svg" width="696.67" height="142.16" viewBox="0 0 696.67 142.16">
  <g id="Larsen__and_amp__Toubro__L_and_amp_T_" transform="translate(-335 -174)">
    <path id="Path_3102" data-name="Path 3102" d="M406.08,183.04a62.033,62.033,0,0,1,.89,124.06l28.64-51.71h19.5l10.56-19.07H416.66L406.1,255.39h18.3l-28.21,50.93a62.053,62.053,0,0,1-8.06-120.65l-28.04,50.64h-.01l-10.56,19.07h49.02l10.56-19.07H371.3l29.37-53.04c1.79-.14,3.59-.23,5.41-.23Zm0-9.04A71.08,71.08,0,1,1,335,245.08,71.088,71.088,0,0,1,406.08,174Z" fill="#fff" fill-rule="evenodd"/>
    <path id="Path_3103" data-name="Path 3103" d="M507.65,264.11h26.66l1.59-7.12H518.77l6.88-30.96h-9.52l-8.48,38.08Zm57.15-9.88.93,9.89h9.99l-5.23-38.08H558.25l-21.71,38.08h10.13l5.29-9.89Zm-10.05-6.22,4.43-8.19c1.19-2.2,2.45-5.14,3.57-7.46h.13c.2,2.32.46,5.37.66,7.46l.86,8.19Zm24.61,16.1h9.46l3.31-15.03h2.91c3.77,0,5.62,1.41,6.02,6.04a53.679,53.679,0,0,0,1.32,8.98h9.79c-.79-1.58-1.19-6.55-1.72-10.79-.46-3.45-1.59-5.99-4.23-6.95v-.23c5.69-1.58,10.12-5.08,10.12-10.73,0-3.56-2.05-5.99-4.96-7.46-3.11-1.64-7.47-2.2-11.71-2.2a63.887,63.887,0,0,0-11.91,1.02l-8.4,37.35Zm16.54-31.63a18.113,18.113,0,0,1,3.7-.28c3.77,0,6.81,1.36,6.81,4.41,0,3.73-3.77,6.38-8.93,6.38h-3.97l2.39-10.51Zm19.58,29.49c2.12,1.36,6.55,2.66,12.77,2.78,9.92,0,18.12-4.42,18.12-12.89,0-4.52-3.44-7.63-8.86-10.06-3.77-1.81-6.48-3.16-6.48-5.37,0-2.09,2.32-4.01,6.75-4.01a20.259,20.259,0,0,1,8.33,1.69l2.98-6.72c-1.92-.96-5.09-1.98-10.52-1.98-9.72,0-17.59,4.69-17.59,12.37,0,4.97,4.5,7.91,9.26,10.11,4.1,1.81,6.02,3.22,6.02,5.37,0,2.99-3.37,4.46-7.08,4.46a23.7,23.7,0,0,1-10.52-2.43l-3.18,6.68Zm64.3-20.85H663.9l1.85-8.14h16.8l1.59-6.95H657.75l-8.47,38.08H676.6l1.52-6.95H660.33l2.05-9.21h15.87l1.53-6.83Zm11.39,22.99,2.91-13.33c1.32-5.99,2.38-11.36,2.91-15.08l.2-.06a105.718,105.718,0,0,0,4.37,13.28l6.22,15.2h9.86l8.4-38.08h-8.86l-3.04,13.84a79.215,79.215,0,0,0-2.05,13.67h-.2a126.624,126.624,0,0,0-4.03-12.99l-5.89-14.52H690.79l-8.47,38.08h8.85Zm85.26,0a86.664,86.664,0,0,1-6.48-7.12c5.09-4.07,8.14-8.98,10.52-14.8h-8.73a28.375,28.375,0,0,1-6.15,9.66c-1.79-2.09-4.23-4.92-5.95-7.29v-.17c7.14-2.82,11.05-6.1,11.05-10.51,0-5.08-4.63-8.47-11.31-8.47-8.2,0-13.96,4.75-13.96,10.9a11.248,11.248,0,0,0,2.45,6.44l-.07.17c-5.75,2.26-10.72,5.93-10.72,11.75,0,6.16,5.49,10.06,13.76,10.06a21.109,21.109,0,0,0,11.91-3.23c.86.9,1.52,1.75,2.45,2.6h11.23Zm-22.95-5.48c-4.43,0-6.75-2.43-6.75-5.37,0-2.88,2.38-4.75,4.37-5.99,2.58,3.45,5.62,7.01,7.87,9.55a8.533,8.533,0,0,1-5.42,1.81Zm5.09-27.96c2.51,0,3.64,1.52,3.64,3.28,0,2.82-2.85,4.92-6.29,6.27a7.259,7.259,0,0,1-1.98-4.69,4.669,4.669,0,0,1,4.56-4.86Zm41.95,33.44h9.53l6.81-30.96h11.91l1.59-7.12H797.22l-1.65,7.12h11.77l-6.82,30.96Zm50.87-38.69a25.646,25.646,0,0,0-16.27,5.42,23.476,23.476,0,0,0-8.2,18.02c0,8.87,6.48,15.88,18.06,15.88a25.4,25.4,0,0,0,16.47-5.49,23.52,23.52,0,0,0,7.94-17.97c-.01-9.08-6.23-15.86-18-15.86Zm-1.12,6.78c7.01,0,9,4.58,9,9.32,0,4.41-1.92,10.68-5.42,13.67a11.874,11.874,0,0,1-7.47,2.77c-6.48,0-9.33-4.01-9.33-9.38,0-4.58,1.98-10.45,5.56-13.5a11.681,11.681,0,0,1,7.66-2.88Zm28.44-6.16-4.7,21.24a25.429,25.429,0,0,0-.66,5.31c0,8.14,5.62,12.21,14.82,12.16,12.1,0,18.06-5.55,20.64-17.07l4.83-21.64h-9.52l-4.9,21.98c-1.59,7.06-4.89,9.89-9.85,9.89-4.3,0-6.48-2.37-6.48-5.42a18.713,18.713,0,0,1,.46-4.52l4.9-21.92h-9.54Zm33.94,37.62a69.858,69.858,0,0,0,11.25.74c7.41,0,13.03-.97,16.8-3.12,3.51-1.98,6.09-4.97,6.09-9.04,0-4.18-2.71-7.17-7.01-8.3v-.17c4.83-1.19,9-4.24,9-9.04,0-3.22-2.18-5.65-5.16-6.95-2.98-1.52-6.42-2.03-11.05-2.03a77.015,77.015,0,0,0-11.71.9l-8.21,37.01Zm16.41-31.29a18.614,18.614,0,0,1,3.7-.28c3.64,0,6.28,1.19,6.28,3.95,0,3.22-3.57,5.14-8.8,5.14h-3.17l1.99-8.81Zm-3.44,14.74h2.98c4.43,0,8.14,1.13,8.14,4.92,0,4.24-4.7,5.99-9.86,5.99a36.2,36.2,0,0,1-3.64-.17l2.38-10.74Zm24.28,17h9.46l3.31-15.03h2.91c3.77,0,5.62,1.41,6.02,6.04a53.679,53.679,0,0,0,1.32,8.98h9.79c-.79-1.58-1.19-6.55-1.72-10.79-.46-3.45-1.59-5.99-4.23-6.95v-.23c5.69-1.58,10.12-5.08,10.12-10.73,0-3.56-2.05-5.99-4.96-7.46-3.11-1.64-7.47-2.2-11.71-2.2a63.887,63.887,0,0,0-11.91,1.02l-8.4,37.35Zm16.53-31.63a18.113,18.113,0,0,1,3.7-.28c3.77,0,6.81,1.36,6.81,4.41,0,3.73-3.77,6.38-8.93,6.38h-3.97l2.39-10.51Zm47.24-7.06a25.646,25.646,0,0,0-16.27,5.42,23.476,23.476,0,0,0-8.2,18.02c0,8.87,6.48,15.88,18.06,15.88a25.4,25.4,0,0,0,16.47-5.49,23.52,23.52,0,0,0,7.94-17.97c-.01-9.08-6.23-15.86-18-15.86Zm-1.13,6.78c7.01,0,9,4.58,9,9.32,0,4.41-1.92,10.68-5.42,13.67a11.88,11.88,0,0,1-7.48,2.77c-6.48,0-9.33-4.01-9.33-9.38,0-4.58,1.98-10.45,5.56-13.5a11.768,11.768,0,0,1,7.67-2.88Z" fill="#fff"/>
  </g>
</svg>
