<?xml version="1.0" encoding="UTF-8" standalone="no"?>
<!DOCTYPE svg PUBLIC "-//W3C//DTD SVG 1.1//EN"
 "http://www.w3.org/Graphics/SVG/1.1/DTD/svg11.dtd">
<!-- Generated by graphviz version 2.47.3 (20210619.1520)
 -->
<!-- Title: dependencies Pages: 1 -->
<svg width="761pt" height="174pt"
 viewBox="0.00 0.00 761.00 173.80" xmlns="http://www.w3.org/2000/svg" xmlns:xlink="http://www.w3.org/1999/xlink">
<g id="graph0" class="graph" transform="scale(1 1) rotate(0) translate(4 169.8)">
<title>dependencies</title>
<polygon fill="white" stroke="transparent" points="-4,4 -4,-169.8 757,-169.8 757,4 -4,4"/>
<text text-anchor="middle" x="376.5" y="-8.2" font-family="sans-serif" font-size="14.00">dependencies</text>
<g id="clust1" class="cluster">
<title>cluster_KnowledgeresourcesModule</title>
<polygon fill="none" stroke="black" stroke-dasharray="1,5" points="8,-32.8 8,-157.8 745,-157.8 745,-32.8 8,-32.8"/>
</g>
<g id="clust2" class="cluster">
<title>cluster_KnowledgeresourcesModule_declarations</title>
<polygon fill="none" stroke="black" points="251,-40.8 251,-92.8 737,-92.8 737,-40.8 251,-40.8"/>
</g>
<g id="clust5" class="cluster">
<title>cluster_KnowledgeresourcesModule_imports</title>
<polygon fill="none" stroke="black" points="16,-40.8 16,-92.8 243,-92.8 243,-40.8 16,-40.8"/>
</g>
<!-- KnowledgeLandingPageComponent -->
<g id="node1" class="node">
<title>KnowledgeLandingPageComponent</title>
<polygon fill="#ffffb3" stroke="black" points="728.74,-84.8 509.26,-84.8 509.26,-48.8 728.74,-48.8 728.74,-84.8"/>
<text text-anchor="middle" x="619" y="-62.6" font-family="Times,serif" font-size="14.00">KnowledgeLandingPageComponent</text>
</g>
<!-- KnowledgeresourcesModule -->
<g id="node3" class="node">
<title>KnowledgeresourcesModule</title>
<polygon fill="#8dd3c7" stroke="black" points="371.44,-149.8 368.44,-153.8 347.44,-153.8 344.44,-149.8 194.56,-149.8 194.56,-113.8 371.44,-113.8 371.44,-149.8"/>
<text text-anchor="middle" x="283" y="-127.6" font-family="Times,serif" font-size="14.00">KnowledgeresourcesModule</text>
</g>
<!-- KnowledgeLandingPageComponent&#45;&gt;KnowledgeresourcesModule -->
<g id="edge1" class="edge">
<title>KnowledgeLandingPageComponent&#45;&gt;KnowledgeresourcesModule</title>
<path fill="none" stroke="black" d="M619,-84.91C619,-104.14 619,-131.8 619,-131.8 619,-131.8 381.72,-131.8 381.72,-131.8"/>
<polygon fill="black" stroke="black" points="381.72,-128.3 371.72,-131.8 381.72,-135.3 381.72,-128.3"/>
</g>
<!-- KnowledgeResourceHomeComponent -->
<g id="node2" class="node">
<title>KnowledgeResourceHomeComponent</title>
<polygon fill="#ffffb3" stroke="black" points="491.16,-84.8 258.84,-84.8 258.84,-48.8 491.16,-48.8 491.16,-84.8"/>
<text text-anchor="middle" x="375" y="-62.6" font-family="Times,serif" font-size="14.00">KnowledgeResourceHomeComponent</text>
</g>
<!-- KnowledgeResourceHomeComponent&#45;&gt;KnowledgeresourcesModule -->
<g id="edge2" class="edge">
<title>KnowledgeResourceHomeComponent&#45;&gt;KnowledgeresourcesModule</title>
<path fill="none" stroke="black" d="M315.19,-84.91C315.19,-84.91 315.19,-103.79 315.19,-103.79"/>
<polygon fill="black" stroke="black" points="311.69,-103.79 315.19,-113.79 318.69,-103.79 311.69,-103.79"/>
</g>
<!-- CoreModule -->
<g id="node4" class="node">
<title>CoreModule</title>
<polygon fill="#8dd3c7" stroke="black" points="235.26,-84.8 232.26,-88.8 211.26,-88.8 208.26,-84.8 148.74,-84.8 148.74,-48.8 235.26,-48.8 235.26,-84.8"/>
<text text-anchor="middle" x="192" y="-62.6" font-family="Times,serif" font-size="14.00">CoreModule</text>
</g>
<!-- CoreModule&#45;&gt;KnowledgeresourcesModule -->
<g id="edge3" class="edge">
<title>CoreModule&#45;&gt;KnowledgeresourcesModule</title>
<path fill="none" stroke="black" d="M214.96,-84.91C214.96,-84.91 214.96,-103.79 214.96,-103.79"/>
<polygon fill="black" stroke="black" points="211.46,-103.79 214.96,-113.79 218.46,-103.79 211.46,-103.79"/>
</g>
<!-- MaterialModule -->
<g id="node5" class="node">
<title>MaterialModule</title>
<polygon fill="#8dd3c7" stroke="black" points="130.47,-84.8 127.47,-88.8 106.47,-88.8 103.47,-84.8 23.53,-84.8 23.53,-48.8 130.47,-48.8 130.47,-84.8"/>
<text text-anchor="middle" x="77" y="-62.6" font-family="Times,serif" font-size="14.00">MaterialModule</text>
</g>
<!-- MaterialModule&#45;&gt;KnowledgeresourcesModule -->
<g id="edge4" class="edge">
<title>MaterialModule&#45;&gt;KnowledgeresourcesModule</title>
<path fill="none" stroke="black" d="M77,-84.91C77,-104.14 77,-131.8 77,-131.8 77,-131.8 184.44,-131.8 184.44,-131.8"/>
<polygon fill="black" stroke="black" points="184.44,-135.3 194.44,-131.8 184.44,-128.3 184.44,-135.3"/>
</g>
</g>
</svg>
