<?xml version="1.0" encoding="UTF-8" standalone="no"?>
<!DOCTYPE svg PUBLIC "-//W3C//DTD SVG 1.1//EN"
 "http://www.w3.org/Graphics/SVG/1.1/DTD/svg11.dtd">
<!-- Generated by graphviz version 2.47.3 (20210619.1520)
 -->
<!-- Title: dependencies Pages: 1 -->
<svg width="761pt" height="174pt"
 viewBox="0.00 0.00 761.00 173.80" xmlns="http://www.w3.org/2000/svg" xmlns:xlink="http://www.w3.org/1999/xlink">
<g id="graph0" class="graph" transform="scale(1 1) rotate(0) translate(4 169.8)">
<title>dependencies</title>
<polygon fill="white" stroke="transparent" points="-4,4 -4,-169.8 757,-169.8 757,4 -4,4"/>
<text text-anchor="middle" x="376.5" y="-8.2" font-family="sans-serif" font-size="14.00">dependencies</text>
<g id="clust1" class="cluster">
<title>cluster_KnowledgeresourcesModule</title>
<polygon fill="none" stroke="black" stroke-dasharray="1,5" points="8,-32.8 8,-157.8 745,-157.8 745,-32.8 8,-32.8"/>
</g>
<g id="clust5" class="cluster">
<title>cluster_KnowledgeresourcesModule_imports</title>
<polygon fill="none" stroke="black" points="510,-40.8 510,-92.8 737,-92.8 737,-40.8 510,-40.8"/>
</g>
<g id="clust2" class="cluster">
<title>cluster_KnowledgeresourcesModule_declarations</title>
<polygon fill="none" stroke="black" points="16,-40.8 16,-92.8 502,-92.8 502,-40.8 16,-40.8"/>
</g>
<!-- KnowledgeLandingPageComponent -->
<g id="node1" class="node">
<title>KnowledgeLandingPageComponent</title>
<polygon fill="#ffffb3" stroke="black" points="493.74,-84.8 274.26,-84.8 274.26,-48.8 493.74,-48.8 493.74,-84.8"/>
<text text-anchor="middle" x="384" y="-62.6" font-family="Times,serif" font-size="14.00">KnowledgeLandingPageComponent</text>
</g>
<!-- KnowledgeresourcesModule -->
<g id="node3" class="node">
<title>KnowledgeresourcesModule</title>
<polygon fill="#8dd3c7" stroke="black" points="565.44,-149.8 562.44,-153.8 541.44,-153.8 538.44,-149.8 388.56,-149.8 388.56,-113.8 565.44,-113.8 565.44,-149.8"/>
<text text-anchor="middle" x="477" y="-127.6" font-family="Times,serif" font-size="14.00">KnowledgeresourcesModule</text>
</g>
<!-- KnowledgeLandingPageComponent&#45;&gt;KnowledgeresourcesModule -->
<g id="edge1" class="edge">
<title>KnowledgeLandingPageComponent&#45;&gt;KnowledgeresourcesModule</title>
<path fill="none" stroke="black" d="M441.2,-84.91C441.2,-84.91 441.2,-103.79 441.2,-103.79"/>
<polygon fill="black" stroke="black" points="437.7,-103.79 441.2,-113.79 444.7,-103.79 437.7,-103.79"/>
</g>
<!-- KnowledgeResourceHomeComponent -->
<g id="node2" class="node">
<title>KnowledgeResourceHomeComponent</title>
<polygon fill="#ffffb3" stroke="black" points="256.16,-84.8 23.84,-84.8 23.84,-48.8 256.16,-48.8 256.16,-84.8"/>
<text text-anchor="middle" x="140" y="-62.6" font-family="Times,serif" font-size="14.00">KnowledgeResourceHomeComponent</text>
</g>
<!-- KnowledgeResourceHomeComponent&#45;&gt;KnowledgeresourcesModule -->
<g id="edge2" class="edge">
<title>KnowledgeResourceHomeComponent&#45;&gt;KnowledgeresourcesModule</title>
<path fill="none" stroke="black" d="M140,-84.91C140,-104.14 140,-131.8 140,-131.8 140,-131.8 378.46,-131.8 378.46,-131.8"/>
<polygon fill="black" stroke="black" points="378.46,-135.3 388.46,-131.8 378.46,-128.3 378.46,-135.3"/>
</g>
<!-- CoreModule -->
<g id="node4" class="node">
<title>CoreModule</title>
<polygon fill="#8dd3c7" stroke="black" points="729.26,-84.8 726.26,-88.8 705.26,-88.8 702.26,-84.8 642.74,-84.8 642.74,-48.8 729.26,-48.8 729.26,-84.8"/>
<text text-anchor="middle" x="686" y="-62.6" font-family="Times,serif" font-size="14.00">CoreModule</text>
</g>
<!-- CoreModule&#45;&gt;KnowledgeresourcesModule -->
<g id="edge3" class="edge">
<title>CoreModule&#45;&gt;KnowledgeresourcesModule</title>
<path fill="none" stroke="black" d="M686,-84.91C686,-104.14 686,-131.8 686,-131.8 686,-131.8 575.63,-131.8 575.63,-131.8"/>
<polygon fill="black" stroke="black" points="575.63,-128.3 565.63,-131.8 575.63,-135.3 575.63,-128.3"/>
</g>
<!-- MaterialModule -->
<g id="node5" class="node">
<title>MaterialModule</title>
<polygon fill="#8dd3c7" stroke="black" points="624.47,-84.8 621.47,-88.8 600.47,-88.8 597.47,-84.8 517.53,-84.8 517.53,-48.8 624.47,-48.8 624.47,-84.8"/>
<text text-anchor="middle" x="571" y="-62.6" font-family="Times,serif" font-size="14.00">MaterialModule</text>
</g>
<!-- MaterialModule&#45;&gt;KnowledgeresourcesModule -->
<g id="edge4" class="edge">
<title>MaterialModule&#45;&gt;KnowledgeresourcesModule</title>
<path fill="none" stroke="black" d="M541.49,-84.91C541.49,-84.91 541.49,-103.79 541.49,-103.79"/>
<polygon fill="black" stroke="black" points="537.99,-103.79 541.49,-113.79 544.99,-103.79 537.99,-103.79"/>
</g>
</g>
</svg>
