<svg xmlns="http://www.w3.org/2000/svg" width="13" height="16" viewBox="0 0 13 16">
  <path id="Excel_Icon" d="M.813,16a.809.809,0,0,1-.576-.225A.724.724,0,0,1,0,15.23V.77A.723.723,0,0,1,.237.225.805.805,0,0,1,.813,0H8.4A2.045,2.045,0,0,1,9.14.161a1.983,1.983,0,0,1,.644.384l2.64,2.5a1.866,1.866,0,0,1,.407.609A1.777,1.777,0,0,1,13,4.361V15.23a.724.724,0,0,1-.237.545.809.809,0,0,1-.576.225Zm.271-1.027H11.916V5.131H8.4a.806.806,0,0,1-.575-.224.721.721,0,0,1-.237-.545V1.027h-6.5ZM8.666,4.1h3.182a.868.868,0,0,0-.186-.328L9.014,1.267a.925.925,0,0,0-.347-.176Zm.224,6.8a1.138,1.138,0,0,1-.489-.384.936.936,0,0,1-.173-.554H8.7a.613.613,0,0,0,.238.509,1.006,1.006,0,0,0,.636.187.915.915,0,0,0,.569-.152.49.49,0,0,0,.2-.412.482.482,0,0,0-.184-.4,2.1,2.1,0,0,0-.663-.282,2.206,2.206,0,0,1-.878-.427.815.815,0,0,1-.274-.624.86.86,0,0,1,.336-.695A1.337,1.337,0,0,1,9.55,7.4a1.459,1.459,0,0,1,.653.142,1.068,1.068,0,0,1,.444.391,1,1,0,0,1,.158.544h-.471a.649.649,0,0,0-.205-.509A.834.834,0,0,0,9.55,7.78a.856.856,0,0,0-.541.153.509.509,0,0,0-.194.425A.461.461,0,0,0,9,8.726,1.814,1.814,0,0,0,9.626,9a2.906,2.906,0,0,1,.694.275,1.05,1.05,0,0,1,.371.35.89.89,0,0,1,.121.472.83.83,0,0,1-.337.692,1.44,1.44,0,0,1-.9.259A1.676,1.676,0,0,1,8.89,10.908ZM5.756,11V7.446h.472v3.171H7.912V11Zm-1.1,0L3.781,9.613,2.9,11H2.348L3.5,9.208,2.374,7.446h.55l.857,1.362.852-1.362h.552L4.062,9.208,5.211,11Z" fill="#3eaa32"/>
</svg>
