<svg xmlns="http://www.w3.org/2000/svg" width="12.98" height="16" viewBox="0 0 12.98 16">
  <path id="PDF_Icon" d="M.811,16a.8.8,0,0,1-.574-.224A.727.727,0,0,1,0,15.231V.77A.727.727,0,0,1,.237.224.8.8,0,0,1,.811,0H8.383a2.038,2.038,0,0,1,.744.16,1.974,1.974,0,0,1,.642.385l2.637,2.5a1.87,1.87,0,0,1,.406.609,1.771,1.771,0,0,1,.168.706V15.231a.723.723,0,0,1-.237.545.8.8,0,0,1-.574.224Zm.271-1.026H11.9V5.131H8.383a.8.8,0,0,1-.574-.224.727.727,0,0,1-.237-.545V1.026H1.082ZM8.654,4.1h3.177a.857.857,0,0,0-.185-.328L9,1.266a.954.954,0,0,0-.346-.176ZM2.6,12.682l-.186-.088c-.005-.005-.021-.017-.047-.037a.294.294,0,0,1-.047-.265,1.586,1.586,0,0,1,.436-.674,3.746,3.746,0,0,1,1.024-.711.117.117,0,0,1,.179.045.04.04,0,0,1,.015.029q.4-.626.831-1.451a10.973,10.973,0,0,0,.81-1.93,5.656,5.656,0,0,1-.238-1.174,2.75,2.75,0,0,1,.05-.94c.058-.2.166-.294.327-.294h.171A.336.336,0,0,1,6.2,5.3a.563.563,0,0,1,.069.5.16.16,0,0,1-.031.059.2.2,0,0,1,.007.058v.221a9.112,9.112,0,0,1-.108,1.414A3.706,3.706,0,0,0,7.268,9.308a6.012,6.012,0,0,0,.653.413,7.947,7.947,0,0,1,.908-.052q1.142,0,1.374.361a.342.342,0,0,1,.016.383.02.02,0,0,1-.008.014l-.015.015v.007q-.047.279-.552.28a3.365,3.365,0,0,1-.893-.148,5.8,5.8,0,0,1-1.01-.391A14.642,14.642,0,0,0,4.7,10.8q-1.19,1.933-1.88,1.933a.473.473,0,0,1-.22-.051Zm.579-.891a2.427,2.427,0,0,0-.384.545A3.322,3.322,0,0,0,3.86,11.172a4.3,4.3,0,0,0-.679.619ZM5.273,9.816q-.234.413-.349.611a11.949,11.949,0,0,1,2.2-.6.987.987,0,0,1-.1-.069,1.31,1.31,0,0,1-.124-.1,3.916,3.916,0,0,1-.986-1.3A9.573,9.573,0,0,1,5.273,9.816Zm4.542.523a.836.836,0,0,0,.139-.007.028.028,0,0,0-.015-.022,1.945,1.945,0,0,0-1.087-.176,3.067,3.067,0,0,0,.963.2Zm-3.929-4.8v.014a2.084,2.084,0,0,0-.015.973c.005-.035.023-.143.055-.325,0-.014.018-.12.054-.317a.175.175,0,0,1,.031-.059A.022.022,0,0,1,6,5.817.02.02,0,0,0,6,5.8a.013.013,0,0,1,0-.011.415.415,0,0,0-.1-.265.022.022,0,0,1-.014.015Z" fill="#ff4a4a"/>
</svg>
