<svg xmlns="http://www.w3.org/2000/svg" width="12.649" height="15.594" viewBox="0 0 12.649 15.594">
  <path id="Word_Icon" d="M-6459.211-16444.408a.767.767,0,0,1-.558-.219.7.7,0,0,1-.231-.527v-14.1a.719.719,0,0,1,.231-.533.784.784,0,0,1,.558-.219h7.382a2.006,2.006,0,0,1,.723.158,2.009,2.009,0,0,1,.628.375l2.569,2.438a1.789,1.789,0,0,1,.393.594,1.7,1.7,0,0,1,.165.688v10.6a.688.688,0,0,1-.231.527.767.767,0,0,1-.558.219Zm.264-1h10.542V-16455h-3.425a.793.793,0,0,1-.562-.219.706.706,0,0,1-.231-.531V-16459h-6.325Zm7.382-10.592h3.094a.8.8,0,0,0-.182-.322l-2.578-2.445a.874.874,0,0,0-.334-.17Zm-1.438,7.711-.657-2.371a.59.59,0,0,1-.029-.127c-.008-.059-.017-.088-.017-.1l-.017-.115h-.021a.756.756,0,0,1-.012.115.862.862,0,0,1-.05.227l-.661,2.371h-.818l-.847-3.234h-.359v-.52h1.545v.52h-.462l.508,2.145a1.126,1.126,0,0,1,.037.223l.013.1h.021l.021-.1c0-.016.008-.053.017-.1s.017-.09.025-.119l.739-2.664h.587l.744,2.664c.008.029.016.07.024.119s.017.088.021.1l.016.1h.021l.012-.1a1.175,1.175,0,0,1,.033-.223l.512-2.145h-.467v-.52h1.549v.52h-.363l-.843,3.234Z" transform="translate(6460 16460.002)" fill="#004072"/>
</svg>
