<?xml version="1.0" standalone="no"?>
<!DOCTYPE svg PUBLIC "-//W3C//DTD SVG 1.1//EN" "http://www.w3.org/Graphics/SVG/1.1/DTD/svg11.dtd" >
<svg xmlns="http://www.w3.org/2000/svg">
<metadata>Generated by IcoMoon</metadata>
<defs>
<font id="icomoon" horiz-adv-x="1024">
<font-face units-per-em="1024" ascent="960" descent="-64" />
<missing-glyph horiz-adv-x="1024" />
<glyph unicode="&#x20;" horiz-adv-x="512" d="" />
<glyph unicode="&#xe900;" glyph-name="Activities" horiz-adv-x="1029" d="M509.962 262.515l43.678 14.559c14.559 4.853 29.118 9.706 43.678 19.412l38.825 24.265 24.265 38.825c9.706 14.559 14.559 29.118 19.412 43.678l14.559 43.678-14.559 48.531c-4.853 14.559-9.706 29.118-14.559 43.678l-24.265 43.678-38.825 24.265c-14.559 9.706-33.972 14.559-48.531 19.412l-43.678 14.559-48.531-9.706c-19.412-4.853-33.972-14.559-48.531-19.412l-43.678-24.265-24.265-43.678c-9.706-14.559-14.559-33.972-19.412-48.531l-9.706-48.531 14.559-43.678c4.853-19.412 9.706-33.972 19.412-48.531l24.265-38.825 43.678-24.265c14.559-9.706 29.118-14.559 48.531-19.412l43.678-9.706zM548.786 136.335h-77.649c-14.559 0-24.265 9.706-24.265 24.265v48.531c-24.265 4.853-43.678 14.559-63.090 24.265l-33.972-33.972c-9.706-9.706-24.265-9.706-33.972 0l-53.384 53.384c-9.706 9.706-9.706 24.265 0 33.972l29.118 33.972c-9.706 19.412-19.412 43.678-29.118 63.090h-38.825c-14.559 0-24.265 14.559-24.265 24.265v77.649c0 14.559 9.706 24.265 24.265 24.265h38.825c4.853 24.265 14.559 48.531 29.118 67.943l-29.118 29.118c-9.706 9.706-9.706 24.265 0 33.972l53.384 53.384c9.706 9.706 24.265 9.706 33.972 0l29.118-29.118c19.412 14.559 43.678 24.265 67.943 29.118v38.825c0 14.559 9.706 24.265 24.265 24.265h77.649c14.559 0 24.265-9.706 24.265-24.265v-43.678c19.412-4.853 43.678-14.559 63.090-29.118l29.118 29.118c9.706 9.706 24.265 9.706 33.972 0l53.384-53.384c9.706-9.706 9.706-24.265 0-33.972l-33.972-33.972c9.706-19.412 19.412-38.825 24.265-63.090h48.531c14.559 0 24.265-9.706 24.265-24.265v-77.649c0-14.559-9.706-24.265-24.265-24.265h-53.384c-4.853-19.412-14.559-38.825-24.265-58.237l38.825-38.825c9.706-9.706 9.706-24.265 0-33.972l-53.384-53.384c-9.706-9.706-24.265-9.706-33.972 0l-38.825 38.825c-19.412-9.706-38.825-19.412-58.237-24.265v-53.384c4.853-4.853-9.706-19.412-19.412-19.412 0 0 0 0 0 0v0zM502.828 293.866c-92.209 0-165.005 72.796-165.005 160.152s72.796 165.005 165.005 165.005c92.209 0 165.005-72.796 165.005-165.005s-77.649-160.152-165.005-160.152zM502.828 555.933c-53.384 0-97.062-43.678-97.062-97.062s43.678-97.062 97.062-97.062 97.062 43.678 97.062 97.062-43.678 97.062-97.062 97.062zM515.785 858.085c-29.118 0-53.384 24.265-53.384 48.531s24.265 53.384 53.384 53.384 53.384-24.265 53.384-53.384-29.118-48.531-53.384-48.531zM515.785 921.175c-9.706 0-14.559-4.853-14.559-14.559s4.853-14.559 14.559-14.559c9.706 0 14.559 4.853 14.559 14.559-4.853 9.706-9.706 14.559-14.559 14.559zM515.785-57.303c-29.118 0-53.384 24.265-53.384 48.531s24.265 53.384 53.384 53.384 53.384-24.265 53.384-53.384-29.118-48.531-53.384-48.531zM515.785 5.787c-9.706 0-14.559-4.853-14.559-14.559s4.853-14.559 14.559-14.559c9.706 0 14.559 4.853 14.559 14.559s-9.706 14.559-14.559 14.559zM53.384 398.741c-29.118 0-53.384 24.265-53.384 48.531s24.265 53.384 53.384 53.384 53.384-24.265 53.384-53.384-29.118-48.531-53.384-48.531zM53.384 461.831c-9.706 0-14.559-4.853-14.559-14.559s4.853-14.559 14.559-14.559c9.706 0 14.559 4.853 14.559 14.559-4.853 9.706-9.706 14.559-14.559 14.559zM978.187 398.741c-29.118 0-53.384 24.265-53.384 48.531s24.265 53.384 53.384 53.384 53.384-24.265 53.384-53.384-29.118-48.531-53.384-48.531zM978.187 461.831c-9.706 0-14.559-4.853-14.559-14.559s4.853-14.559 14.559-14.559 14.559 4.853 14.559 14.559c0 9.706-9.706 14.559-14.559 14.559zM422.854 886.443c2.514-9.375-0.917-15.319-4.348-21.264l-67.12-68.241c-11.549-13.145-25.611-16.916-34.069-4.11-4.688-1.257-5.944 3.431-7.201 8.118l-26.393 98.438c-3.77 14.063 3.091 25.951 17.154 29.722 4.688 1.257 9.375 2.514 15.319-0.917l92.256-25.509c5.944-3.431 13.145-11.549 14.402-16.236zM724.322 12.824l-24.265 58.237c121.327 53.384 208.682 165.005 232.948 296.038l63.090-9.706c-24.265-155.299-126.18-281.479-271.773-344.569zM607.261 9.459c-2.514 9.375 0.917 15.319 4.348 21.264l67.12 68.241c11.549 13.145 25.611 16.916 34.069 4.11 4.688 1.257 5.944-3.431 7.201-8.118l26.393-98.438c3.77-14.063-3.091-25.951-17.154-29.722-4.688-1.257-9.375-2.514-15.319 0.917l-92.256 25.509c-5.944 3.431-13.145 11.549-14.402 16.236zM422.849-36.726c-150.445 29.118-281.479 131.033-344.569 271.773l58.237 24.265c58.237-116.474 169.858-203.829 300.891-228.095l-14.559-67.943zM76.565 355.748c9.375 2.514 15.319-0.917 21.264-4.348l68.241-67.12c13.145-11.549 16.916-25.611 4.11-34.069 1.257-4.688-3.431-5.944-8.118-7.201l-98.438-26.393c-14.063-3.77-25.951 3.091-29.722 17.154-1.257 4.688-2.514 9.375 0.917 15.319l25.509 92.256c3.431 5.944 11.549 13.145 16.236 14.402zM888.745 631.738c-53.384 121.327-165.005 208.682-296.038 232.948l9.706 63.090c155.299-24.265 286.332-126.18 349.422-266.919l-63.090-29.118zM953.549 540.107c-9.375-2.514-15.319 0.917-21.264 4.348l-68.241 67.12c-13.145 11.549-16.916 25.611-4.11 34.069-1.257 4.688 3.431 5.944 8.118 7.201l98.438 26.393c14.063 3.77 25.951-3.091 29.722-17.154 1.257-4.688 2.514-9.375-0.917-15.319l-25.509-92.256c-3.431-5.944-11.549-13.145-16.236-14.402z" />
<glyph unicode="&#xe901;" glyph-name="gauge" horiz-adv-x="1099" d="M549.516 960c-0.518 0.002-1.132 0.003-1.746 0.003-76.521 0-149.297-16.030-215.155-44.916l3.444 1.347c-133.018-56.147-236.667-160.039-291.166-289.682l-1.326-3.554c-27.59-63.247-43.642-136.938-43.642-214.378 0-195.334 102.134-366.813 255.912-463.947l2.258-1.332c5.016-3.31 11.169-5.281 17.782-5.281 2.843 0 5.601 0.364 8.23 1.048l-0.227-0.050c9.132 1.972 16.719 7.459 21.423 14.942l0.081 0.139c3.315 5.018 5.289 11.176 5.289 17.795 0 2.855-0.367 5.625-1.057 8.264l0.050-0.227c-1.961 9.126-7.431 16.711-14.896 21.423l-0.138 0.081c-57.808 36.425-105.918 82.768-143.224 137.108l-1.067 1.644 36.585 21.504c7.771 4.287 13.454 11.553 15.549 20.219l0.044 0.215c0.849 2.819 1.337 6.058 1.337 9.412 0 6.236-1.689 12.077-4.635 17.092l0.086-0.159c-4.439 7.986-11.882 13.848-20.764 16.102l-0.228 0.049c-2.639 0.811-5.673 1.278-8.816 1.278-6.313 0-12.185-1.884-17.086-5.12l0.116 0.072-36.585-20.433c-11.667 23.906-22.31 52.151-30.36 81.469l-0.825 3.523c-7.333 26.321-12.645 57.134-14.857 88.801l-0.084 1.497h37.702c0.294-0.010 0.639-0.015 0.986-0.015 9.346 0 17.773 3.935 23.714 10.239l0.015 0.016c5.993 6.284 9.681 14.813 9.681 24.204s-3.688 17.919-9.695 24.218l0.013-0.014c-5.957 6.32-14.383 10.255-23.729 10.255-0.347 0-0.692-0.005-1.037-0.016l0.050 0.001h-37.702c4.509 65.436 21.892 125.855 49.626 180.104l-1.219-2.626 34.397-20.433c4.769-2.699 10.473-4.289 16.549-4.289 0.237 0 0.473 0.002 0.708 0.007l-0.035-0.001c18.796 0.027 34.023 15.271 34.023 34.071 0 12.449-6.677 23.339-16.646 29.284l-0.156 0.086-34.397 20.433c35.114 50.704 77.97 93.234 127.343 126.918l1.681 1.082 19.363-33.327c5.5-10.34 16.207-17.261 28.53-17.261 0.557 0 1.111 0.014 1.662 0.042l-0.077-0.003c6.302 0.059 12.222 1.636 17.43 4.382l-0.208-0.1c3.867 2.46 7.091 5.566 9.609 9.199l0.072 0.11c2.555 3.366 4.578 7.302 5.845 11.563l0.066 0.259c0.769 2.848 1.211 6.119 1.211 9.493 0 1.148-0.051 2.284-0.151 3.406l0.010-0.145c-0.393 5.057-2.076 9.655-4.717 13.55l0.063-0.098-19.503 33.094c23.851 11.665 51.93 22.146 81.112 29.921l3.321 0.753c25.249 6.962 55.4 12.558 86.282 15.677l2.387 0.195v-43.008c-0.011-0.32-0.018-0.696-0.018-1.074 0-9.325 3.917-17.735 10.196-23.674l0.015-0.014c6.217-5.995 14.689-9.688 24.024-9.688 0.243 0 0.486 0.003 0.728 0.007l-0.036-0.001c0.273-0.008 0.595-0.013 0.917-0.013 9.103 0 17.34 3.706 23.284 9.692l0.002 0.002c5.997 6.053 9.702 14.385 9.702 23.583 0 0.415-0.008 0.828-0.022 1.239l0.002-0.059v43.008c65.337-4.478 125.73-21.466 180.196-48.582l-2.764 1.245-19.363-32.256q-1.071-3.212-2.141-5.911c-0.694-1.695-1.261-3.682-1.606-5.744l-0.023-0.167c-0.341-1.777-0.537-3.821-0.537-5.911s0.195-4.134 0.569-6.115l-0.032 0.204c0.368-2.229 0.935-4.216 1.697-6.103l-0.068 0.191c0.854-2.1 1.759-3.876 2.793-5.564l-0.094 0.164c1.122-1.807 2.181-3.325 3.309-4.786l-0.098 0.132c1.206-1.574 2.441-2.971 3.766-4.278l0.005-0.005c1.478-1.438 3.288-2.542 5.304-3.185l0.096-0.026 4.282-2.141 4.282-1.629 4.282-0.559h4.282c0.462-0.022 1.004-0.034 1.549-0.034 2.533 0 5.004 0.267 7.386 0.773l-0.231-0.041c3.053 0.766 5.734 1.867 8.205 3.293l-0.153-0.081c2.852 1.672 5.318 3.456 7.598 5.448l-0.057-0.049c2.424 2.070 4.409 4.575 5.848 7.404l0.063 0.136 18.292 32.256c50.529-34.961 93.008-77.455 126.88-126.362l1.073-1.638-32.256-19.363c-4.143-2.030-7.571-4.951-10.139-8.53l-0.055-0.080c-2.398-3.399-4.403-7.314-5.817-11.5l-0.094-0.322c-0.912-2.658-1.438-5.721-1.438-8.906 0-1.605 0.134-3.179 0.39-4.711l-0.023 0.166c0.659-4.64 2.167-8.818 4.368-12.538l-0.086 0.157c3.304-5.43 7.854-9.801 13.269-12.8l0.182-0.093c4.812-2.678 10.55-4.262 16.657-4.282h0.006c3.059 0.002 6.027 0.392 8.856 1.124l-0.245-0.054c3.266 0.795 6.119 1.848 8.809 3.182l-0.244-0.11 32.256 18.292c25.956-51.372 42.956-111.431 47.259-174.974l0.078-1.434h-37.702c-18.47-0.701-33.178-15.843-33.178-34.42s14.708-33.72 33.114-34.418l0.064-0.002h37.655c-4.42-63.706-20.606-122.639-46.398-176.064l1.249 2.869-34.397 19.363c-4.946 3.139-10.97 5.003-17.429 5.003-3.175 0-6.244-0.45-9.148-1.29l0.232 0.057c-9.109-2.591-16.515-8.585-20.902-16.487l-0.090-0.176c-2.115-3.563-3.623-7.741-4.261-12.201l-0.021-0.181c-0.234-1.366-0.367-2.94-0.367-4.545 0-3.186 0.526-6.248 1.497-9.106l-0.059 0.199c1.509-4.509 3.513-8.423 6.008-11.967l-0.097 0.145c2.623-3.66 6.051-6.581 10.036-8.541l0.158-0.070 34.397-20.433c-39.207-57.552-88.739-105.035-146.323-140.771l-2.064-1.193c-7.517-4.667-12.965-12.060-14.99-20.768l-0.044-0.224c-0.602-2.416-0.948-5.191-0.948-8.046 0-6.779 1.948-13.102 5.314-18.442l-0.084 0.143c2.348-3.055 4.998-5.704 7.952-7.978l0.101-0.075c2.936-2.328 6.298-4.315 9.915-5.809l0.278-0.102c3.091-1.238 6.674-1.956 10.425-1.956 0.066 0 0.132 0 0.198 0.001h-0.010c0.075-0.001 0.163-0.001 0.252-0.001 6.823 0 13.176 2.014 18.497 5.48l-0.131-0.080c157.771 97.559 261.315 269.61 261.315 465.844 0 1.107-0.003 2.213-0.010 3.318l0.001-0.17c0.001 0.282 0.001 0.616 0.001 0.95 0 76.634-16.029 149.524-44.917 215.5l1.35-3.458c-55.824 133.198-159.474 237.089-288.951 291.905l-3.541 1.331c-62.297 27.423-134.925 43.385-211.282 43.385-0.797 0-1.594-0.002-2.39-0.005h0.122zM803.281 516.841c5.43 3.304 9.801 7.854 12.8 13.269l0.093 0.182c2.678 4.812 4.262 10.55 4.282 16.657v0.006c-0.061 6.302-1.638 12.222-4.382 17.431l0.1-0.209c-6.536 10.237-17.838 16.928-30.702 16.928-6.076 0-11.802-1.492-16.834-4.13l0.2 0.095-187.020-108.637c-9.466 5.988-20.966 9.58-33.299 9.681h-0.027c-37.899-0.413-68.528-30.961-69.073-68.789l-0.001-0.052c0.028-12.675 3.482-24.538 9.484-34.718l-0.175 0.321c6.042-10.65 14.624-19.232 24.949-25.104l0.325-0.17c9.859-5.829 21.722-9.283 34.39-9.309h0.007c37.8 0.542 68.298 31.041 68.84 68.789l0.001 0.052z" />
<glyph unicode="&#xe902;" glyph-name="monitor" horiz-adv-x="1213" d="M1136.78 960h-1061.004c-0.172 0.001-0.375 0.002-0.578 0.002-20.759 0-39.478-8.734-52.684-22.728l-0.033-0.035c-13.901-13.863-22.502-33.036-22.502-54.217 0-0.625 0.007-1.248 0.022-1.869l-0.002 0.092v-669.556c-0.004-0.278-0.006-0.607-0.006-0.936 0-21.253 8.591-40.499 22.49-54.455l-0.003 0.003c13.119-14.325 31.907-23.275 52.785-23.275 0.179 0 0.358 0.001 0.537 0.002h492.564v-118.132h-189.44c-0.056 0-0.123 0.001-0.189 0.001-10.461 0-19.872-4.493-26.41-11.656l-0.025-0.028c-6.961-7.145-11.254-16.918-11.254-27.695s4.293-20.549 11.262-27.703l-0.008 0.009c6.57-7.272 16.034-11.823 26.561-11.823 0.022 0 0.045 0 0.067 0h454.7c0.056 0 0.123-0.001 0.189-0.001 10.461 0 19.872 4.493 26.41 11.656l0.025 0.028c6.961 7.145 11.254 16.918 11.254 27.695s-4.293 20.549-11.262 27.703l0.008-0.009c-6.562 7.19-15.974 11.683-26.435 11.683-0.067 0-0.133 0-0.2-0.001h-189.43v118.179h492.591c0.151-0.001 0.33-0.002 0.509-0.002 20.878 0 39.666 8.949 52.737 23.221l0.049 0.054c13.896 13.954 22.487 33.2 22.487 54.453 0 0.329-0.002 0.658-0.006 0.986v-0.050 669.649c0.011 0.488 0.018 1.064 0.018 1.64 0 21.18-8.6 40.351-22.497 54.213l-0.002 0.002c-13.248 14.111-32.021 22.902-52.847 22.902-0.157 0-0.315-0.001-0.472-0.002h0.024zM1136.78 211.689h-1061.004v669.556h1061.004z" />
<glyph unicode="&#xe903;" glyph-name="AccountCircle" d="M512 874.667c-235.52 0-426.667-191.147-426.667-426.667s191.147-426.667 426.667-426.667 426.667 191.147 426.667 426.667-191.147 426.667-426.667 426.667zM301.653 180.053c18.347 38.4 130.133 75.947 210.347 75.947s192.427-37.547 210.347-75.947c-58.027-46.080-130.987-73.387-210.347-73.387s-152.32 27.307-210.347 73.387zM783.36 241.92c-61.013 74.24-209.067 99.413-271.36 99.413s-210.347-25.173-271.36-99.413c-43.52 57.173-69.973 128.427-69.973 206.080 0 188.16 153.173 341.333 341.333 341.333s341.333-153.173 341.333-341.333c0-77.653-26.453-148.907-69.973-206.080zM512 704c-82.773 0-149.333-66.56-149.333-149.333s66.56-149.333 149.333-149.333 149.333 66.56 149.333 149.333-66.56 149.333-149.333 149.333zM512 490.667c-35.413 0-64 28.587-64 64s28.587 64 64 64 64-28.587 64-64-28.587-64-64-64z" />
<glyph unicode="&#xe904;" glyph-name="Knowledge" horiz-adv-x="949" d="M403.669-21.333h-11.947c-47.070 0.145-85.188 38.264-85.333 85.319v98.574c0.001 0.138 0.001 0.302 0.001 0.465 0 24.775-10.857 47.014-28.072 62.22l-0.089 0.077c-61.577 54.889-100.167 134.431-100.167 222.986 0 143.847 101.824 263.912 237.326 292.049l1.934 0.336c17.506 3.8 37.617 5.977 58.235 5.977 0.527 0 1.053-0.001 1.579-0.004h-0.081c0.107 0 0.234 0 0.36 0 164.761 0 298.325-133.565 298.325-298.325 0-88.817-38.813-168.569-100.404-223.22l-0.308-0.269c-16.801-15.216-27.311-37.112-27.311-61.463 0-0.307 0.002-0.614 0.005-0.92v0.047-98.517c-0.145-47.070-38.264-85.188-85.319-85.333h-12.003c-14.821-25.67-42.129-42.669-73.408-42.669s-58.587 16.999-73.191 42.262l-0.217 0.407zM391.723 64h170.667v42.667h-170.667zM391.723 149.333h170.667v42.667h-170.667zM608.085 277.333c3.413 3.413 6.357 7.68 10.197 11.093 44.306 39.24 72.094 96.268 72.094 159.787 0 117.703-95.417 213.12-213.12 213.12-0.056 0-0.111 0-0.167 0h0.009c-0.143 0-0.313 0.001-0.483 0.001-117.632 0-212.992-95.36-212.992-212.992 0-63.373 27.677-120.282 71.604-159.298l0.218-0.19c3.513-3.547 6.836-7.303 9.941-11.239l0.214-0.281h110.080v110.549l-77.952 77.995 30.165 30.165 69.419-69.376 68.821 68.949 30.165-30.165-78.080-78.080v-110.037zM917.931 408.277l-55.808 5.888c-14.178 1.54-25.115 13.445-25.115 27.904 0 15.496 12.562 28.059 28.059 28.059 1.037 0 2.061-0.056 3.069-0.166l-0.125 0.011 55.808-5.845c14.12-1.607 24.989-13.486 24.989-27.905 0-15.44-12.465-27.97-27.881-28.074h-0.010c-1.024-0.043-2.005 0.043-2.987 0.128zM0 433.237c-0.097 0.879-0.153 1.898-0.153 2.93 0 14.486 10.954 26.413 25.030 27.95l0.125 0.011 56.064 5.803c0.883 0.099 1.907 0.155 2.944 0.155 15.496 0 28.059-12.562 28.059-28.059 0-14.459-10.937-26.364-24.99-27.893l-0.125-0.011-55.851-5.888c-0.981 0-2.005 0-2.944 0-0.075-0.001-0.165-0.001-0.254-0.001-14.423 0-26.306 10.877-27.894 24.875l-0.012 0.129zM92.288 577.749l-53.376 17.365c-11.357 3.774-19.403 14.302-19.403 26.709 0 15.511 12.574 28.085 28.085 28.085 3.104 0 6.090-0.503 8.881-1.433l-0.198 0.057 53.333-17.323c11.342-3.763 19.378-14.274 19.378-26.663 0-3.097-0.502-6.077-1.43-8.863l0.057 0.198c-3.745-11.346-14.251-19.389-26.635-19.389-3.108 0-6.097 0.506-8.89 1.441l0.197-0.057zM820.267 600.064c-0.221 1.322-0.347 2.846-0.347 4.399 0 12.388 8.036 22.899 19.179 26.605l0.198 0.057 53.376 17.408c2.587 0.87 5.565 1.371 8.661 1.371 15.485 0 28.038-12.553 28.038-28.038 0-12.389-8.035-22.901-19.179-26.61l-0.198-0.057-53.333-17.365c-2.526-0.839-5.435-1.323-8.456-1.323-0.027 0-0.054 0-0.081 0h0.004c-0.067-0.001-0.146-0.001-0.226-0.001-13.892 0-25.42 10.12-27.613 23.39l-0.022 0.163zM747.52 766.72l41.685 37.547c4.823 4.020 11.084 6.46 17.916 6.46 15.505 0 28.075-12.569 28.075-28.075 0-7.862-3.232-14.969-8.439-20.065l-0.005-0.005-41.685-37.504c-4.941-4.448-11.513-7.168-18.721-7.168-0.003 0-0.007 0-0.010 0v0c-7.68-0.043-30.336 38.443-18.816 48.811zM163.797 725.077l-41.685 37.504c-6.226 5.186-10.159 12.941-10.159 21.615 0 15.505 12.569 28.075 28.075 28.075 7.643 0 14.573-3.054 19.636-8.009l-0.005 0.005 41.685-37.547c5.707-5.155 9.278-12.582 9.278-20.843 0-15.492-12.559-28.051-28.051-28.051-7.231 0-13.824 2.736-18.798 7.23l0.024-0.022zM610.688 826.624c-2.832 4.306-4.517 9.586-4.517 15.259 0 4.131 0.893 8.053 2.498 11.584l-0.072-0.176 22.869 51.243c4.768 9.098 14.146 15.199 24.948 15.199 15.505 0 28.075-12.569 28.075-28.075 0-3.577-0.669-6.997-1.888-10.143l0.065 0.192-22.827-51.2c-4.475-9.89-14.256-16.646-25.616-16.646-9.822 0-18.465 5.052-23.471 12.699l-0.066 0.107zM289.109 830.464l-22.827 51.2c-1.432 3.255-2.265 7.049-2.265 11.038 0 15.482 12.55 28.032 28.032 28.032 11.204 0 20.872-6.573 25.36-16.073l0.072-0.171 22.827-51.2c1.641-3.457 2.599-7.511 2.599-11.789 0-15.482-12.55-28.032-28.032-28.032-11.493 0-21.37 6.916-25.697 16.814l-0.070 0.18zM446.421 875.819v56.149c0 15.493 12.56 28.053 28.053 28.053s28.053-12.56 28.053-28.053v0-56.149c0-15.493-12.56-28.053-28.053-28.053s-28.053 12.56-28.053 28.053v0z" />
<glyph unicode="&#xe905;" glyph-name="stack" horiz-adv-x="1025" d="M22.528 658.339l475.229-259.119c4.335-1.884 9.385-2.98 14.691-2.98 0.104 0 0.208 0 0.313 0.001h-0.016c0.013 0 0.029 0 0.045 0 2.827 0 5.571 0.357 8.189 1.027l-0.228-0.050q4.003 0.977 6.982 2.001l481.28 259.119c9.659 4.749 16.189 14.518 16.189 25.812 0 1.122-0.064 2.23-0.19 3.319l0.012-0.133c0 0.016 0 0.035 0 0.054 0 6.094-1.733 11.784-4.732 16.603l0.077-0.133c-3.002 4.964-7.263 8.896-12.347 11.419l-0.174 0.078-475.089 241.152c-4.214 2.205-9.205 3.499-14.499 3.499s-10.285-1.294-14.675-3.582l0.176 0.083-480.256-241.105c-5.335-2.668-9.718-6.543-12.911-11.285l-0.075-0.119c-3.259-4.637-5.21-10.399-5.213-16.616v-0.001c-0.026-0.47-0.041-1.021-0.041-1.575 0-12.028 6.966-22.429 17.083-27.39l0.18-0.080zM517.772 892.463l406.202-207.081-411.322-221.137-406.109 221.137zM1001.844 480.256l-94.906 48.035-68.049-37.236 80.058-41.007-411.183-220.812-406.202 221.091 85.039 43.008-68.049 37.236-101.050-50.316c-10.446-5.146-17.507-15.718-17.507-27.938 0-0.209 0.002-0.417 0.006-0.625v0.031c-0.054-0.666-0.085-1.443-0.085-2.226 0-11.539 6.707-21.511 16.435-26.23l0.173-0.076 475.229-259.119c4.647-2.466 10.15-3.94 15.992-4.003h0.020c0.077-0.001 0.168-0.001 0.259-0.001 2.575 0 5.066 0.357 7.426 1.025l-0.192-0.046c2.896 0.862 5.38 1.874 7.739 3.094l-0.245-0.115 480.256 259.119c10.199 5.48 17.016 16.075 17.016 28.261 0 12.572-7.255 23.449-17.807 28.674l-0.187 0.084zM1001.844 256.14l-90.065 44.032-68.049-37.236 75.031-37.236-411.183-221.091-406.202 221.091 79.127 36.026-68.143 37.329-95.046-43.008c-10.446-5.146-17.507-15.718-17.507-27.938 0-0.209 0.002-0.417 0.006-0.625v0.031c-0.054-0.666-0.085-1.443-0.085-2.226 0-11.539 6.707-21.511 16.435-26.23l0.173-0.076 475.229-259.119q2.979-0.977 5.492-2.001c1.404-0.585 3.071-1.099 4.795-1.457l0.185-0.032c1.601-0.326 3.442-0.512 5.326-0.512 0.059 0 0.117 0 0.176 0.001h-0.009c0.077-0.001 0.168-0.001 0.259-0.001 2.575 0 5.066 0.357 7.426 1.025l-0.192-0.046c2.896 0.862 5.38 1.874 7.739 3.094l-0.245-0.115 480.256 259.119c10.199 5.48 17.016 16.075 17.016 28.261 0 12.572-7.255 23.449-17.807 28.674l-0.187 0.084z" />
<glyph unicode="&#xe906;" glyph-name="Arrow" horiz-adv-x="1894" d="M21.403-42.597c13.16-13.261 31.395-21.47 51.547-21.47s38.387 8.209 51.543 21.466l0.005 0.005 822.517 825.879 822.517-825.879c13.27-13.522 31.737-21.904 52.162-21.904 40.351 0 73.063 32.711 73.063 73.063 0 20.537-8.473 39.094-22.114 52.368l-0.017 0.016-874.064 877.538c-13.16 13.261-31.395 21.47-51.547 21.47s-38.387-8.209-51.543-21.466l-0.005-0.005-874.064-877.538c-13.232-13.257-21.415-31.559-21.415-51.772s8.183-38.514 21.416-51.773l-0.001 0.001z" />
<glyph unicode="&#xe907;" glyph-name="Tick" horiz-adv-x="1311" d="M430.654 175.252l-296.673 296.673-105.271-95.701 392.374-401.944 851.738 861.308-105.271 95.701-736.897-756.037zM430.654-64l-430.654 430.654 133.981 133.981 296.673-296.673 746.467 756.037 133.981-133.981-880.449-890.019zM66.991 366.654l363.664-363.664 813.458 823.028-66.991 66.991-746.467-756.037-296.673 296.673-66.991-66.991z" />
<glyph unicode="&#xe908;" glyph-name="OpenNew" d="M0 54.17c0-0.020 0-0.044 0-0.068 0-65.263 52.906-118.17 118.17-118.17h630.101c65.263 0 118.17 52.906 118.17 118.17v0 315.119c0 21.754-17.635 39.39-39.39 39.39s-39.39-17.635-39.39-39.39v0-315.051c0-21.754-17.635-39.39-39.39-39.39h-630.101c-21.754 0-39.39 17.635-39.39 39.39v0 630.101c0 21.754 17.635 39.39 39.39 39.39v0h315.051c21.754 0 39.39 17.635 39.39 39.39s-17.635 39.39-39.39 39.39v0h-315.051c-65.263 0-118.17-52.906-118.17-118.17v0zM551.322 920.542c0 21.754 17.635 39.39 39.39 39.39h393.83c21.754 0 39.39-17.635 39.39-39.39v0-393.83c0-21.754-17.635-39.39-39.39-39.39s-39.39 17.635-39.39 39.39v0 354.441h-354.441c-21.754 0-39.39 17.635-39.39 39.39v0zM1013.965 949.965c6.195-6.18 10.028-14.726 10.028-24.166s-3.833-17.986-10.027-24.166l-546.134-546.134c-6.185-6.185-14.729-10.010-24.166-10.010-18.875 0-34.176 15.301-34.176 34.176 0 9.438 3.825 17.982 10.010 24.166v0l546.133 546.133c6.18 6.195 14.726 10.028 24.166 10.028s17.986-3.833 24.166-10.027l0.001-0.001z" />
<glyph unicode="&#xe909;" glyph-name="MenuList" horiz-adv-x="1536" d="M170.667 874.667c0-47.128-38.205-85.333-85.333-85.333s-85.333 38.205-85.333 85.333c0 47.128 38.205 85.333 85.333 85.333s85.333-38.205 85.333-85.333zM170.667 448c0-47.128-38.205-85.333-85.333-85.333s-85.333 38.205-85.333 85.333c0 47.128 38.205 85.333 85.333 85.333s85.333-38.205 85.333-85.333zM170.667 21.333c0-47.128-38.205-85.333-85.333-85.333s-85.333 38.205-85.333 85.333c0 47.128 38.205 85.333 85.333 85.333s85.333-38.205 85.333-85.333zM421.547 533.333h1034.24c44.301 0 80.213-35.913 80.213-80.213v-10.24c0-44.301-35.913-80.213-80.213-80.213h-1034.24c-44.301 0-80.213 35.913-80.213 80.213v10.24c0 44.301 35.913 80.213 80.213 80.213zM421.547 106.667h1034.24c44.301 0 80.213-35.913 80.213-80.213v-10.24c0-44.301-35.913-80.213-80.213-80.213h-1034.24c-44.301 0-80.213 35.913-80.213 80.213v10.24c0 44.301 35.913 80.213 80.213 80.213zM421.547 960h1034.24c44.301 0 80.213-35.913 80.213-80.213v-10.24c0-44.301-35.913-80.213-80.213-80.213h-1034.24c-44.301 0-80.213 35.913-80.213 80.213v10.24c0 44.301 35.913 80.213 80.213 80.213z" />
<glyph unicode="&#xe90a;" glyph-name="PdfFile" horiz-adv-x="819" d="M782.833 764.855c10.73-10.882 19.387-23.842 25.308-38.217l0.289-0.791c6.3-13.22 10.176-28.677 10.644-44.988l0.004-0.164v-695.448c0.003-0.197 0.005-0.43 0.005-0.663 0-13.502-5.745-25.663-14.923-34.172l-0.030-0.027c-9.078-8.901-21.526-14.395-35.256-14.395-0.347 0-0.694 0.004-1.039 0.011l0.052-0.001h-716.692c-0.294-0.006-0.64-0.010-0.988-0.010-13.731 0-26.178 5.494-35.265 14.403l0.008-0.008c-9.208 8.536-14.953 20.697-14.953 34.199 0 0.233 0.002 0.466 0.005 0.698v-0.035 925.301c-0.003 0.197-0.005 0.43-0.005 0.663 0 13.502 5.745 25.663 14.923 34.172l0.030 0.027c9.1 9.022 21.629 14.597 35.461 14.597 0.293 0 0.586-0.003 0.878-0.007l-0.044 0.001h477.573c17.054-0.435 33.126-4.159 47.762-10.557l-0.819 0.319c15.673-5.895 29.141-14.244 40.645-24.714l-0.101 0.090zM546.068 890.071v-192.893h200.52c-2.475 8.153-6.501 15.191-11.771 21.094l0.048-0.054-166.887 160.59c-6.136 5.054-13.447 8.931-21.445 11.163l-0.415 0.099zM750.838 1.68v629.819h-222.021c-0.294-0.006-0.64-0.010-0.988-0.010-13.731 0-26.178 5.494-35.265 14.403l0.008-0.008c-9.208 8.536-14.953 20.697-14.953 34.199 0 0.233 0.002 0.466 0.005 0.698v-0.035 213.421h-409.539v-892.538h682.752zM456.021 365.401c11.6-9.273 24.586-18.312 38.155-26.482l1.622-0.906c16.632 2.168 35.883 3.414 55.421 3.43h0.020q69.673 0 83.853-23.958c2.603-3.808 4.156-8.513 4.156-13.581 0-4.42-1.182-8.563-3.246-12.132l0.062 0.117c-0.023-0.386-0.195-0.728-0.46-0.972l-0.974-0.974v-0.512q-2.867-18.583-33.633-18.583c-19.677 0.635-38.317 4.165-55.804 10.177l1.335-0.399c-23.646 7.411-43.981 16.197-63.181 26.789l1.751-0.885c-68.765-7.075-131.72-21.395-191.544-42.373l5.819 1.777q-72.488-127.981-114.671-127.981c-0.036 0-0.078 0-0.121 0-4.826 0-9.356 1.272-13.271 3.5l0.133-0.070-11.365 5.887c-0.876 0.837-1.811 1.641-2.785 2.396l-0.082 0.061c-2.312 3.297-3.694 7.393-3.694 11.812 0 2.066 0.302 4.062 0.865 5.945l-0.038-0.147c5.327 17.551 14.477 32.589 26.526 44.75l-0.008-0.008c17.679 18.833 38.345 34.597 61.291 46.597l1.266 0.603c1.189 1.038 2.754 1.671 4.467 1.671 2.965 0 5.488-1.896 6.422-4.541l0.015-0.048c0.55-0.482 0.913-1.166 0.972-1.936l0.001-0.010q24.624 41.568 50.68 96.344c18.279 36.021 35.059 78.482 47.951 122.602l1.347 5.379c-6.809 22.618-11.917 49.157-14.326 76.472l-0.11 1.545c-0.762 6.495-1.197 14.019-1.197 21.645 0 14.417 1.555 28.471 4.506 42.004l-0.237-1.296q5.119 19.555 19.914 19.555h10.238c0.367 0.024 0.795 0.038 1.227 0.038 6.192 0 11.717-2.856 15.33-7.322l0.029-0.037c3.822-6.034 6.091-13.38 6.091-21.256 0-4.292-0.674-8.426-1.921-12.303l0.079 0.284c-0.388-1.49-1.042-2.791-1.912-3.915l0.018 0.025c0.297-1.040 0.468-2.235 0.468-3.469 0-0.148-0.002-0.296-0.007-0.443l0.001 0.021v-14.692c0-0.114 0-0.249 0-0.384 0-33.004-2.419-65.443-7.090-97.149l0.435 3.595c12.541-46.112 36.654-85.531 69.054-116.311l0.107-0.101zM183.115 164.369c27.304 20.225 49.246 46.131 64.352 76.075l0.56 1.225c-15.401-12.333-28.994-25.764-41.086-40.477l-0.38-0.477c-9.013-10.522-16.84-22.475-23.022-35.366l-0.424-0.981zM371.707 614.401c-2.605-10.462-4.099-22.473-4.099-34.833 0-10.519 1.082-20.786 3.142-30.694l-0.169 0.973q0.461 3.43 3.328 21.501 0 1.485 3.328 21.040c0.4 1.488 1.052 2.788 1.914 3.918l-0.020-0.027c-0.265 0.245-0.438 0.587-0.461 0.969v0.004c0.041 0.106 0.065 0.23 0.065 0.358s-0.024 0.252-0.067 0.365l0.002-0.007c-0.041 0.106-0.065 0.23-0.065 0.358s0.024 0.252 0.067 0.365l-0.002-0.007c-0.034 6.678-2.342 12.811-6.189 17.67l0.046-0.060c-0.023-0.386-0.195-0.728-0.46-0.972l-0.001-0.001v-0.973zM312.939 291.070c38.41 16.333 83.528 30.050 130.352 38.953l4.232 0.669c-2.327 1.582-4.329 3.113-6.245 4.743l0.102-0.084c-2.781 2.16-5.251 4.322-7.59 6.617l0.013-0.013c-25.161 23.799-45.475 52.429-59.501 84.441l-0.65 1.665c-12.139-37.718-25.458-69.593-41.062-100.104l1.746 3.76q-14.231-27.388-21.296-40.596zM619.018 298.902q-11.365 11.723-66.55 11.723c17.238-7.559 37.246-12.486 58.251-13.698l0.467-0.022c0.484-0.019 1.053-0.030 1.625-0.030 2.444 0 4.843 0.197 7.18 0.576l-0.256-0.034q0 0.512-0.973 1.485z" />
<glyph unicode="&#xe90b;" glyph-name="Notification" horiz-adv-x="840" d="M420.103-64c57.932 0.179 104.847 47.094 105.026 105.009v0.017h-210.051c0.179-57.932 47.094-104.847 105.009-105.026h0.017zM735.179 251.077v262.564c0 161.214-85.596 296.172-236.308 331.881v35.709c0 43.503-35.266 78.769-78.769 78.769s-78.769-35.266-78.769-78.769v0-35.709c-150.187-35.709-236.308-170.142-236.308-331.881v-262.564l-105.026-105.026v-52.513h840.205v52.513zM630.154 198.564h-420.103v315.077c0 130.232 79.294 236.308 210.051 236.308s210.051-106.076 210.051-236.308z" />
<glyph unicode="&#xe90c;" glyph-name="Next-Previous" d="M512 960c282.77 0 512-229.23 512-512s-229.23-512-512-512c-282.77 0-512 229.23-512 512v0c0 282.77 229.23 512 512 512v0zM219.409 411.409h444.348l-204.049-203.776 52.292-52.156 292.591 292.523-292.591 292.591-52.292-50.927 204.049-204.8h-444.348z" />
<glyph unicode="&#xe90d;" glyph-name="ImageFile" horiz-adv-x="819" d="M744.192 960h-669.184c-0.046 0-0.1 0-0.154 0-41.305 0-74.796-33.455-74.854-74.747v-874.502c0.058-41.297 33.549-74.752 74.854-74.752 0.054 0 0.108 0 0.162 0h669.227c0.046 0 0.1 0 0.154 0 41.305 0 74.796 33.455 74.854 74.747v874.502c-0.087 41.303-33.59 74.752-74.905 74.752-0.036 0-0.072 0-0.108 0h0.006zM744.192 10.65h-669.184v874.496h669.235zM191.386 315.238h440.013c0.185-0.005 0.402-0.007 0.62-0.007 14.735 0 26.716 11.788 27.027 26.448v0.029c0 0.024 0 0.052 0 0.080 0 7.459-3.122 14.19-8.13 18.956l-0.011 0.010-110.029 106.394c-5.041 4.8-11.878 7.753-19.405 7.753s-14.364-2.953-19.416-7.764l0.012 0.011-35.84-34.56-90.47 87.45c-5.036 4.811-11.874 7.773-19.405 7.773s-14.369-2.961-19.416-7.783l0.011 0.010-165.018-159.59c-4.857-4.722-7.871-11.319-7.871-18.62 0-7.475 3.159-14.211 8.215-18.948l0.014-0.013c4.96-4.67 11.628-7.574 18.974-7.68h0.021zM601.293 586.035c-0.147-29.24-23.884-52.887-53.145-52.887-29.352 0-53.146 23.794-53.146 53.146s23.794 53.146 53.146 53.146c14.778 0 28.148-6.032 37.78-15.768l0.005-0.005c9.495-9.604 15.361-22.814 15.361-37.394 0-0.084 0-0.167-0.001-0.251v0.013z" />
<glyph unicode="&#xe90e;" glyph-name="Fullscreen" d="M146.286 301.714h-146.286v-365.714h365.714v146.286h-219.429zM0 594.286h146.286v219.429h219.429v146.286h-365.714zM877.714 82.286h-219.429v-146.286h365.714v365.714h-146.286zM658.286 960v-146.286h219.429v-219.429h146.286v365.714z" />
<glyph unicode="&#xe90f;" glyph-name="Expand" d="M563.194 704.032h-102.387v-204.774h-204.839v-102.387h204.774v-204.774h102.387v204.774h204.774v102.323h-204.774zM512 960c-0.038 0-0.084 0-0.129 0-282.77 0-512-229.23-512-512s229.23-512 512-512c282.77 0 512 229.23 512 512v0c-0.11 282.68-229.201 511.817-511.854 512h-0.017zM512 38.387c-226.223 0-409.613 183.39-409.613 409.613s183.39 409.613 409.613 409.613c226.223 0 409.613-183.39 409.613-409.613v0c-0.293-226.105-183.508-409.32-409.585-409.613h-0.028z" />
<glyph unicode="&#xe910;" glyph-name="Collapse" d="M255.984 499.19v-102.38h512.033v102.38zM511.967 960c-282.752 0-511.967-229.216-511.967-511.967s229.216-511.967 511.967-511.967c282.752 0 511.967 229.216 511.967 511.967v0c-0.111 282.707-229.26 511.856-511.956 511.967h-0.011zM511.967 38.446c-226.209 0-409.587 183.378-409.587 409.587s183.378 409.587 409.587 409.587c226.209 0 409.587-183.378 409.587-409.587v0c-0.259-226.104-183.482-409.328-409.562-409.587h-0.025z" />
<glyph unicode="&#xe911;" glyph-name="Close" d="M1024 856.849l-103.151 103.151-408.849-408.849-408.849 408.849-103.151-103.151 408.849-408.849-408.849-408.849 103.151-103.151 408.849 408.849 408.849-408.849 103.151 103.151-408.849 408.849z" />
<glyph unicode="&#xe912;" glyph-name="Graduation" horiz-adv-x="1508" d="M1481.899 181.532h-73.956v654.222c0 68.267-56.889 125.156-125.156 125.156h-1058.133c-68.267 0-125.156-56.889-125.156-125.156v-654.222h-73.956c-11.378 0-22.756-11.378-22.756-22.756v0-96.711c0-68.267 56.889-125.156 125.156-125.156h1257.244c68.267 0 125.156 56.889 125.156 125.156v96.711c0 11.378-11.378 22.756-28.444 22.756 5.689 0 0 0 0 0zM150.699 835.755c0 39.822 34.133 73.956 73.956 73.956h1063.822c39.822 0 73.956-34.133 73.956-73.956v-654.222h-45.511v654.222c0 11.378-11.378 22.756-22.756 22.756v0h-1075.2c-11.378 0-22.756-11.378-22.756-22.756v-654.222h-45.511v654.222zM924.388 181.532h-676.978v631.467h1018.311v-631.467h-341.333zM895.943 130.332c-11.378-28.444-39.822-45.511-68.267-45.511h-147.911c-28.444 0-56.889 17.067-68.267 45.511h284.444zM1459.143 62.066c0-39.822-34.133-73.956-73.956-73.956h-1257.244c-39.822 0-73.956 34.133-73.956 73.956v68.267h512c11.378-56.889 62.578-96.711 119.467-96.711h147.911c56.889 0 108.089 39.822 119.467 96.711h512v-68.267zM708.21 318.066c-5.689 0-5.689 0-11.378 0-5.689 5.689-11.378 11.378-11.378 22.756v290.133c0 5.689 5.689 17.067 11.378 22.756s17.067 5.689 22.756 0l227.556-147.911c5.689-5.689 11.378-11.378 11.378-17.067s-5.689-17.067-11.378-17.067l-227.556-147.911c0-5.689-5.689-5.689-11.378-5.689zM730.965 591.132v-210.489l164.978 102.4-164.978 108.089z" />
<glyph unicode="&#xe913;" glyph-name="LedSession" horiz-adv-x="1274" d="M1214.512 870.281h-315.535c-5.953 41.674-47.628 77.395-89.302 77.395h-345.302c-41.674 0-83.349-29.767-89.302-77.395h-315.535c-29.767 0-53.581-23.814-47.628-53.581v-815.628c0-29.767 23.814-53.581 47.628-53.581h440.558c0 0 267.907 0 267.907 0h440.558c29.767 0 53.581 23.814 47.628 53.581v821.581c5.953 23.814-17.86 47.628-41.674 47.628zM708.465 911.955h95.256c29.767 0 53.581-29.767 53.581-59.535s-23.814-53.581-53.581-53.581h-95.256c23.814 29.767 23.814 77.395 0 113.116zM637.023 911.955c29.767 0 59.535-23.814 59.535-53.581s-23.814-59.535-53.581-59.535-59.535 23.814-59.535 53.581c0 0 0 0 0 0 0 29.767 23.814 59.535 53.581 59.535zM464.372 911.955h95.256c-23.814-35.721-23.814-77.395 0-113.116h-95.256c-29.767 0-53.581 29.767-53.581 59.535 0 23.814 23.814 53.581 53.581 53.581zM541.767-52.51h190.512c0 0-190.512 0-190.512 0zM1226.419 721.444h-845.395c-11.907 0-17.86-11.907-17.86-17.86 0-11.907 5.953-17.86 17.86-17.86h845.395v-541.767h-136.93c-11.907 0-17.86-11.907-17.86-17.86 0-11.907 5.953-17.86 17.86-17.86h136.93v-101.209c0-5.953-5.953-11.907-11.907-11.907 0 0 0 0 0 0h-1154.977c-5.953 0-11.907 5.953-11.907 11.907 0 0 0 0 0 0v101.209h952.558c11.907 0 17.86 11.907 17.86 17.86 0 11.907-5.953 17.86-17.86 17.86h-71.442c-11.907 41.674-47.628 71.442-89.302 77.395v0l-136.93 29.767c0 11.907 0 23.814 0 35.721 41.674 23.814 65.488 65.488 71.442 113.116 0 5.953 0 5.953 0 11.907s0 47.628 0 95.256c0 35.721-11.907 71.442-41.674 101.209-23.814 23.814-59.535 41.674-95.256 41.674v0c-35.721 0-71.442-17.86-95.256-41.674-23.814-29.767-41.674-65.488-41.674-101.209 0-47.628 0-83.349 0-95.256 0-5.953 0-5.953 0-11.907 5.953-47.628 35.721-89.302 71.442-113.116 0-11.907 0-23.814 0-35.721l-142.884-29.767c-41.674-11.907-71.442-41.674-89.302-77.395h-297.674v535.814h250.047c11.907 0 17.86 11.907 17.86 17.86 0 11.907-5.953 17.86-17.86 17.86h-244.093v101.209c0 5.953 5.953 11.907 11.907 11.907 0 0 0 0 0 0h315.535c5.953-41.674 47.628-77.395 89.302-77.395h339.349c41.674 0 83.349 29.767 89.302 77.395h315.535c5.953 0 11.907-5.953 11.907-11.907 0 0 0 0 0 0v-95.256h5.953zM541.767 501.165c0 29.767 11.907 53.581 29.767 71.442s41.674 29.767 71.442 29.767v0c23.814 0 53.581-11.907 71.442-29.767s29.767-47.628 29.767-71.442c0-41.674 0-83.349 0-95.256 0 0 0-5.953 0-5.953 0-23.814-23.814-53.581-65.488-89.302-11.907-5.953-23.814-11.907-35.721-11.907v0c-11.907 0-23.814 5.953-35.721 11.907-41.674 35.721-65.488 65.488-65.488 89.302v5.953c0 11.907 0 59.535 0 95.256v0zM672.744 239.211v0c-11.907-11.907-17.86-17.86-29.767-17.86v0c-11.907 0-17.86 5.953-29.767 11.907l-5.953 5.953c0 5.953 0 17.86 0 23.814 11.907-5.953 17.86-5.953 29.767-5.953v0c11.907 0 17.86 0 29.767 5.953 5.953-5.953 5.953-17.86 5.953-23.814v0zM583.442 215.397v0c17.86-17.86 35.721-29.767 59.535-29.767v0c23.814 0 41.674 11.907 53.581 23.814v0l142.884-29.767c23.814-5.953 41.674-23.814 53.581-41.674h-506.047c11.907 23.814 29.767 35.721 53.581 41.674l142.884 35.721zM625.116-64.417c-23.814 0-53.581 0-71.442 0h-17.86c-11.907 0-23.814 0-29.767 0v0h-446.512c-35.721 0-65.488 29.767-59.535 65.488v821.581c0 35.721 29.767 65.488 59.535 65.488h309.581c11.907 41.674 53.581 77.395 101.209 77.395h339.349c47.628 0 89.302-29.767 101.209-77.395h303.628c35.721 0 65.488-29.767 59.535-65.488v-815.628c0-35.721-29.767-65.488-59.535-65.488h-446.512c-11.907 0-23.814 0-29.767 0 0 0 0 0 0 0v0 0c-23.814-5.953-65.488-5.953-113.116-5.953zM500.093-40.603v0c5.953 0 11.907 0 17.86 0v0h5.953c35.721 0 101.209 0 244.093 0h446.512c23.814 0 41.674 17.86 35.721 41.674v821.581c0 23.814-17.86 41.674-35.721 41.674h-321.488v11.907c-5.953 35.721-41.674 65.488-77.395 65.488h-351.256c-35.721 0-71.442-29.767-77.395-65.488v-11.907h-327.442c-23.814 0-41.674-17.86-35.721-41.674v-815.628c0-23.814 17.86-41.674 41.674-41.674h434.605zM59.535-22.742c-11.907 0-23.814 11.907-23.814 23.814v113.116h964.465c0 0 0 0 5.953 0 0 0 0 5.953 0 5.953 0 5.953-5.953 5.953-5.953 5.953h-77.395v5.953c-11.907 35.721-41.674 65.488-77.395 71.442l-148.837 29.767v5.953c0 11.907 0 23.814 0 35.721v5.953l5.953 5.953c35.721 23.814 59.535 65.488 65.488 107.163 0 0 0 5.953 0 5.953 0 11.907 0 53.581 0 95.256 0 35.721-11.907 65.488-35.721 89.302s-53.581 35.721-89.302 35.721c-35.721 0-65.488-11.907-89.302-35.721s-35.721-59.535-35.721-89.302c0-53.581 0-83.349 0-95.256 0 0 0 0 0-5.953v-5.953c5.953-41.674 29.767-77.395 65.488-101.209l5.953-5.953v-5.953c0-11.907 0-23.814 0-35.721v-5.953l-148.837-29.767c-35.721-11.907-65.488-35.721-77.395-71.442v-5.953h-327.442v565.581h261.953c5.953 0 5.953 5.953 5.953 5.953 0 5.953-5.953 5.953-5.953 5.953h-261.953v113.116c0 11.907 11.907 23.814 23.814 23.814h321.488v-11.907c11.907-29.767 47.628-59.535 83.349-59.535h339.349c35.721 0 71.442 29.767 77.395 65.488v11.907h321.488c11.907 0 23.814-11.907 23.814-23.814v-113.116h-845.395c0 0 0 0-5.953 0 0 0 0-5.953 0-5.953 0-5.953 5.953-5.953 5.953-5.953h857.302v-565.581h-148.837c-5.953 0-5.953-5.953-5.953-5.953 0-5.953 5.953-5.953 5.953-5.953h148.837v-113.116c0-11.907-11.907-23.814-23.814-23.814h-1154.977zM59.535 90.374v-89.302c0 0 0 0 0 0h1149.023c0 0 0 0 0 0v89.302h-125.023c-17.86 0-29.767 11.907-29.767 29.767s11.907 29.767 29.767 29.767h125.023v517.953h-833.488c-17.86 0-29.767 11.907-29.767 29.767 0 5.953 0 17.86 5.953 23.814s11.907 11.907 23.814 11.907h833.488v89.302c0 0 0 0 0 0h-303.628c-11.907-41.674-53.581-77.395-101.209-77.395h-339.349c-47.628 0-89.302 29.767-101.209 77.395h-303.628c0 0 0 0 0 0v-89.302h238.14c17.86 0 29.767-11.907 29.767-29.767s-11.907-29.767-29.767-29.767h-238.14v-517.953h279.814c17.86 41.674 47.628 71.442 89.302 77.395h5.953l130.977 29.767c0 5.953 0 11.907 0 17.86-41.674 29.767-65.488 71.442-71.442 119.070 0 5.953 0 5.953 0 5.953v5.953c0 11.907 0 47.628 0 95.256 0 41.674 17.86 77.395 41.674 107.163 29.767 29.767 65.488 47.628 107.163 47.628s77.395-17.86 107.163-47.628c29.767-29.767 41.674-65.488 41.674-107.163 0-53.581 0-83.349 0-89.302s0-5.953 0-11.907c-5.953-47.628-35.721-95.256-71.442-119.070 0-5.953 0-11.907 0-17.86l130.977-29.767c41.674-11.907 77.395-41.674 95.256-77.395h59.535c17.86 0 29.767-11.907 29.767-29.767 0-5.953 0-17.86-5.953-23.814s-11.907-11.907-23.814-11.907l-946.605-5.953zM910.884 126.095h-541.767l5.953 17.86c11.907 23.814 35.721 41.674 59.535 47.628l148.837 29.767 5.953-5.953c11.907-11.907 29.767-23.814 47.628-23.814s35.721 5.953 47.628 23.814l5.953 5.953 148.837-29.767c29.767-5.953 47.628-23.814 65.488-47.628l5.953-17.86zM410.791 149.909h458.419c-11.907 11.907-23.814 17.86-35.721 17.86l-130.977 29.767c-17.86-17.86-35.721-23.814-59.535-29.767-23.814 0-47.628 11.907-59.535 29.767l-136.93-29.767c-17.86 0-29.767-5.953-35.721-17.86zM642.977 209.444c-17.86 0-29.767 5.953-35.721 17.86l-5.953 5.953v5.953c0 5.953 0 11.907 0 23.814v17.86l17.86-5.953c17.86-5.953 35.721-5.953 47.628 0l17.86 5.953v-17.86c0-5.953 0-11.907 0-23.814v-11.907h-5.953c-11.907-11.907-23.814-17.86-35.721-17.86zM625.116 245.165c5.953-5.953 11.907-5.953 17.86-11.907 5.953 0 11.907 5.953 17.86 5.953 0 0 0 0 0 5.953-11.907 0-23.814 0-35.721 0 0 0 0 0 0 0zM642.977 280.886c-17.86 0-29.767 5.953-41.674 17.86-29.767 23.814-71.442 65.488-71.442 101.209v5.953c0 11.907 0 47.628 0 95.256v0c0 29.767 11.907 59.535 29.767 83.349s47.628 35.721 77.395 35.721 59.535-11.907 77.395-35.721c23.814-23.814 29.767-53.581 29.767-83.349 0-35.721 0-83.349 0-95.256v-11.907c0-35.721-35.721-71.442-71.442-101.209 0-5.953-17.86-11.907-29.767-11.907zM553.674 501.165c0-23.814 0-83.349 0-95.256v-5.953c0-17.86 23.814-47.628 59.535-83.349 17.86-11.907 41.674-11.907 53.581 0 35.721 29.767 59.535 59.535 59.535 83.349v5.953c0 11.907 0 53.581 0 95.256 0 23.814-5.953 47.628-23.814 65.488-29.767 35.721-89.302 35.721-125.023 0-17.86-17.86-23.814-41.674-23.814-65.488v0zM637.023 786.932c-35.721 0-65.488 29.767-71.442 65.488 0 41.674 29.767 71.442 65.488 71.442 17.86 0 35.721-5.953 47.628-17.86s23.814-29.767 23.814-47.628c5.953-41.674-23.814-71.442-65.488-71.442 5.953 0 0 0 0 0zM637.023 900.048c0 0 0 0 0 0v0c-23.814 0-47.628-17.86-47.628-47.628 0-23.814 23.814-47.628 47.628-47.628s41.674 23.814 41.674 47.628c0 11.907-5.953 23.814-11.907 29.767-5.953 11.907-17.86 17.86-29.767 17.86zM708.465 786.932h-23.814l11.907 17.86c23.814 29.767 23.814 71.442 0 101.209l-11.907 17.86h119.070c17.86 0 35.721-5.953 47.628-23.814 11.907-11.907 17.86-29.767 17.86-47.628 0-35.721-29.767-65.488-65.488-65.488h-95.256zM732.279 810.746h77.395c23.814 0 41.674 17.86 41.674 41.674 0 11.907-5.953 23.814-11.907 29.767s-17.86 11.907-29.767 11.907h-77.395c11.907-23.814 11.907-59.535 0-83.349zM589.395 786.932h-119.070c-17.86 0-35.721 5.953-47.628 23.814-11.907 11.907-17.86 29.767-17.86 47.628 0 35.721 29.767 65.488 65.488 65.488v0h119.070l-11.907-17.86c-23.814-29.767-23.814-71.442 0-101.209l11.907-17.86zM464.372 900.048c-23.814 0-41.674-17.86-41.674-41.674 0-11.907 5.953-23.814 11.907-29.767s17.86-11.907 29.767-11.907h77.395c-11.907 29.767-11.907 59.535 0 89.302h-77.395z" />
<glyph unicode="&#xe914;" glyph-name="HamburgerMenu" d="M128 192h768v85.333h-768v-85.333zM128 405.333h768v85.333h-768v-85.333zM128 704v-85.333h768v85.333h-768z" />
<glyph unicode="&#xe915;" glyph-name="PlayCircle" d="M409.6 217.6l307.2 230.4-307.2 230.4zM512 960c-282.77 0-512-229.23-512-512s229.23-512 512-512c282.77 0 512 229.23 512 512v0c0 282.77-229.23 512-512 512v0zM512 38.4c-226.216 0-409.6 183.384-409.6 409.6s183.384 409.6 409.6 409.6c226.216 0 409.6-183.384 409.6-409.6v0c0-226.216-183.384-409.6-409.6-409.6v0z" />
<glyph unicode="&#xe916;" glyph-name="MonitorPlay" horiz-adv-x="1310" d="M879.387 555.666l-314.491 178.13c-4.171 2.312-9.146 3.673-14.44 3.673-4.517 0-8.803-0.991-12.652-2.768l0.187 0.078c-7.928-3.235-13.485-10.734-13.84-19.572l-0.001-0.043v-356.055c0.356-8.881 5.913-16.38 13.694-19.561l0.147-0.053c3.628-1.664 7.871-2.635 12.341-2.635 5.343 0 10.361 1.386 14.716 3.819l-0.153-0.079 314.491 178.13c6.997 3.355 11.743 10.383 11.743 18.519s-4.746 15.164-11.62 18.466l-0.123 0.053zM576.567 400.693v272.907l241.048-136.464zM1179.341 960h-1048.303c-72.337 0-131.038-49.856-131.038-111.28v-623.147c0-61.424 58.701-111.198 131.038-111.28h1048.303c72.337 0 131.038 49.856 131.038 111.28v623.147c0 61.424-58.701 111.28-131.038 111.28zM1257.964 225.573c-3.475-37.674-34.924-66.947-73.211-66.947-1.904 0-3.792 0.072-5.66 0.215l0.248-0.015h-1048.303c-1.619-0.127-3.506-0.199-5.41-0.199-38.294 0-69.748 29.283-73.191 66.679l-0.021 0.289v623.126c3.465 37.684 34.919 66.967 73.213 66.967 1.904 0 3.791-0.072 5.658-0.215l-0.248 0.015h1048.303c1.619 0.127 3.506 0.199 5.41 0.199 38.294 0 69.748-29.283 73.191-66.679l0.021-0.289zM891.058-41.478c-1.191-12.565-11.69-22.318-24.466-22.318-0.613 0-1.22 0.022-1.822 0.067l0.080-0.005h-419.321c-1.038-0.169-2.234-0.266-3.452-0.266-12.439 0-22.522 10.084-22.522 22.522s10.084 22.522 22.522 22.522c1.219 0 2.415-0.097 3.581-0.283l-0.128 0.017h419.321c0.521 0.039 1.129 0.062 1.741 0.062 12.777 0 23.275-9.752 24.459-22.219l0.008-0.099z" />
<glyph unicode="&#xe917;" glyph-name="Join" d="M746.123 682.123c-46.174 161.582-192.538 277.875-366.064 277.875-209.9 0-380.058-170.158-380.058-380.058 0-173.526 116.293-319.89 275.194-365.407l2.682-0.657c46.174-161.582 192.538-277.875 366.064-277.875 209.9 0 380.058 170.158 380.058 380.058 0 173.526-116.293 319.89-275.194 365.407l-2.682 0.657zM131.805 580.283c0.18 136.744 111.074 247.527 247.843 247.527 95.487 0 178.362-54 219.753-133.127l0.65-1.365c-174.991-21.156-312.263-158.591-332.989-331.837l-0.176-1.806c-80.705 41.975-134.877 124.962-134.877 220.601 0 0.050 0 0.101 0 0.151v-0.008zM626.809 562.946c-8.993-123.066-106.621-220.694-228.876-229.639l-0.81-0.048c9.013 123.174 106.817 220.86 229.231 229.641l0.797 0.046zM644.147 67.942c-95.536 0.051-178.424 54.148-219.753 133.371l-0.651 1.37c175.238 20.844 312.822 158.312 333.67 331.694l0.178 1.813c80.493-42.041 134.492-124.917 134.492-220.404 0-136.769-110.783-247.663-247.51-247.843h-0.017z" />
<glyph unicode="&#xe918;" glyph-name="BarGraph" horiz-adv-x="1170" d="M266.905-52.766h-210.008c-25.38 0-45.955 20.575-45.955 45.955v0 525.203c0 25.38 20.575 45.955 45.955 45.955v0h210.008c25.38 0 45.955-20.575 45.955-45.955v0-525.203c0-25.38-20.575-45.955-45.955-45.955v0zM102.852 39.071h118.098v433.074h-118.098zM56.897 553.114c-19.337 0-35.014-15.676-35.014-35.014v0-525.203c0-19.337 15.676-35.014 35.014-35.014v0h210.008c19.337 0 35.014 15.676 35.014 35.014v525.203c0 19.337-15.676 35.014-35.014 35.014v0h-210.008zM231.965 27.911h-140.054v455.176h139.981v-455.176zM56.824 574.997h210.081c31.407-0.041 56.856-25.49 56.897-56.893v-525.207c-0.041-31.407-25.49-56.856-56.893-56.897h-210.012c-31.407 0.041-56.856 25.49-56.897 56.893v525.207c0.041 31.407 25.49 56.856 56.893 56.897h0.004zM210.008 461.203h-96.214v-411.409h96.214zM689.84-52.766h-210.008c-25.38 0-45.955 20.575-45.955 45.955v0 909.914c0 25.38 20.575 45.955 45.955 45.955h210.008c25.38 0 45.955-20.575 45.955-45.955v0-909.914c0-25.38-20.575-45.955-45.955-45.955v0zM525.787 39.144h118.098v818.004h-118.098zM479.831 938.117c-19.337 0-35.014-15.676-35.014-35.014v0-909.914c0-19.337 15.676-35.014 35.014-35.014v0h210.008c19.337 0 35.014 15.676 35.014 35.014v0 909.914c0 19.337-15.676 35.014-35.014 35.014v0h-210.008zM654.899 28.202h-140.054v839.887h139.981v-839.96zM479.831 960h210.008c31.407-0.041 56.856-25.49 56.897-56.893v-909.918c-0.041-31.407-25.49-56.856-56.893-56.897h-210.012c-31.407 0.041-56.856 25.49-56.897 56.893v909.918c0.041 31.407 25.49 56.856 56.893 56.897h0.004zM633.016 846.206h-96.287v-796.193h96.214zM1112.774-52.766h-210.008c-25.38 0-45.955 20.575-45.955 45.955v0 629.952c0.041 25.364 20.592 45.914 45.951 45.955h210.012c25.38 0 45.955-20.575 45.955-45.955v0-629.952c0-25.38-20.575-45.955-45.955-45.955v0zM948.721 39.144h118.098v538.041h-118.098zM902.766 658.154c-19.337 0-35.014-15.676-35.014-35.014v0-629.952c0-19.337 15.676-35.014 35.014-35.014v0h210.008c19.337 0 35.014 15.676 35.014 35.014v0 629.952c0 19.337-15.676 35.014-35.014 35.014h-210.008zM1077.833 28.202h-140.054v559.925h139.981v-559.998zM902.766 680.038h210.008c31.407-0.041 56.856-25.49 56.897-56.893v-629.956c-0.041-31.407-25.49-56.856-56.893-56.897h-210.012c-31.407 0.041-56.856 25.49-56.897 56.893v629.956c0.041 31.407 25.49 56.856 56.893 56.897h0.004zM1055.95 566.244h-96.287v-516.231h96.214z" />
<glyph unicode="&#xe919;" glyph-name="Go" horiz-adv-x="1281" d="M1252.514 519.448l-394.798 411.7c-16.759 17.772-40.464 28.837-66.753 28.837s-49.994-11.065-66.711-28.792l-0.042-0.045c-17.133-18.12-27.667-42.636-27.667-69.613s10.533-51.493 27.712-69.66l-0.045 0.048 233.123-244.135h-862.922c-52.611-2.26-94.407-45.46-94.407-98.422s41.796-96.162 94.204-98.415l0.204-0.007h862.752l-233.123-242.854c-19.198-18.506-31.121-44.447-31.121-73.172 0-8.632 1.077-17.012 3.103-25.013l-0.151 0.702c8.284-35.022 34.74-62.301 68.634-71.63l0.68-0.16c6.79-1.785 14.586-2.81 22.621-2.81 28.289 0 53.61 12.706 70.568 32.723l0.111 0.135 393.689 410.505c17.397 18.199 28.162 42.867 28.34 70.047v0.035c0.018 0.692 0.028 1.506 0.028 2.323 0 26.535-10.705 50.57-28.032 68.021l0.006-0.006z" />
<glyph unicode="&#xe91a;" glyph-name="CourseProject" d="M477.698 775.667l75.731 75.731 363.212-363.212-75.731-75.731zM364.745 386.002l209.061 209.061 85.331-85.331-209.061-209.061zM636.448 853.020l75.731 75.731 280.526-280.526-75.731-75.731zM831.038 894.533l65.492 65.492 127.655-127.655-65.492-65.492zM108.307 406.336l75.731 75.731 363.212-363.212-75.731-75.731zM30.893 247.587l75.731 75.731 280.526-280.526-75.731-75.731zM0 63.676l65.108 65.108 127.655-127.655-65.108-65.108z" />
<glyph unicode="&#xe91b;" glyph-name="Progress" horiz-adv-x="1125" d="M867.292-64c-27.716 0.058-50.18 22.467-50.325 50.157v482.27c0.201 27.627 22.544 49.969 50.152 50.171h207.665c27.672-0.116 50.077-22.503 50.222-50.157v-482.065c0.001-0.141 0.002-0.307 0.002-0.473 0-13.703-5.579-26.104-14.59-35.053l-0.003-0.003c-9.066-9.048-21.582-14.644-35.404-14.644-0.152 0-0.304 0.001-0.456 0.002h0.023zM480.822-64c-27.683 0.115-50.1 22.496-50.273 50.154v348.142c0.087 27.656 22.468 50.055 50.109 50.171h207.709c27.663-0.087 50.062-22.504 50.12-50.165v-348.131c-0.087-27.709-22.556-50.142-50.271-50.171h-0.003zM92.56-64c-0.019 0-0.041 0-0.064 0-13.841 0-26.376 5.594-35.467 14.644l0.002-0.002c-9.047 9.051-14.642 21.552-14.642 35.36 0 0.060 0 0.119 0 0.179v-0.009 227.561c0 0.050 0 0.11 0 0.169 0 13.808 5.595 26.309 14.642 35.36v0c9.089 9.048 21.624 14.642 35.465 14.642 0.022 0 0.045 0 0.067 0h207.642c27.672-0.116 50.077-22.503 50.222-50.157v-227.575c0.001-0.141 0.002-0.307 0.002-0.473 0-13.703-5.579-26.104-14.59-35.053l-0.003-0.003c-9.066-9.048-21.582-14.644-35.404-14.644-0.152 0-0.304 0.001-0.456 0.002h0.023zM41.365 462.437c-12.057 0.645-22.727 6.092-30.22 14.447l-0.036 0.041c-6.905 7.691-11.128 17.913-11.128 29.121 0 0.867 0.025 1.729 0.075 2.584l-0.006-0.118c0.634 11.985 6.066 22.59 14.394 30.014l0.043 0.038c7.62 6.818 17.736 10.986 28.826 10.986 0.935 0 1.864-0.030 2.784-0.088l-0.126 0.006c252.192 4.889 488.143 69.873 695.545 181.155l-8.202-4.020c59.346 29.659 108.407 58.112 155.631 89.133l-5.733-3.535c3.993 2.765 9.010 8.754 4.864 13.311l-49.813 47.099c-13.515 13.055-9.573 27.184 9.164 31.536l233.141 54.983c18.84 4.147 30.103-6.86 25.956-24.881l-53.14-228.38c-4.352-17.816-18.84-21.963-32.355-8.908l-54.369 52.68c-2.597 2.077-5.929 3.334-9.554 3.334-4.273 0-8.138-1.745-10.922-4.561l-0.001-0.001c-48.184-32.802-104.19-65.748-162.322-95.098l-8.772-4.015c-206.529-110.413-450.442-178.677-709.484-187.101l-2.637-0.068c-12.338 0-19.608 0.358-21.502 0.358z" />
<glyph unicode="&#xe91c;" glyph-name="Collaborate" horiz-adv-x="819" d="M477.157 742.273v-419.961c-0.132-17.779-7.706-33.764-19.757-45.013l-0.036-0.034-338.194-318.878c-12.854-13.746-31.099-22.312-51.344-22.312-5.659 0-11.161 0.669-16.432 1.933l0.479-0.097c-24.333 5.259-43.402 23.396-49.919 46.767l-0.11 0.464c-1.157 4.473-1.821 9.607-1.821 14.897 0 19.686 9.199 37.223 23.532 48.547l0.13 0.099 318.196 300.313v393.274l-154.934-146.198c-12.854-13.746-31.099-22.312-51.344-22.312-5.659 0-11.161 0.669-16.432 1.933l0.479-0.097c-24.333 5.259-43.402 23.396-49.919 46.767l-0.11 0.464c-1.157 4.473-1.821 9.607-1.821 14.897 0 19.686 9.199 37.223 23.532 48.547l0.13 0.099 270.35 255.062c12.538 11.521 29.333 18.583 47.777 18.583s35.239-7.062 47.828-18.629l-0.051 0.046 270.145-255.198c14.464-11.424 23.662-28.961 23.662-48.647 0-5.29-0.664-10.424-1.914-15.325l0.093 0.428c-6.627-23.835-25.696-41.972-49.595-47.152l-0.435-0.079c-4.793-1.167-10.295-1.836-15.953-1.836-20.245 0-38.49 8.566-51.307 22.272l-0.037 0.040zM795.352 48.617l-135.209 127.565c-12.854 13.746-31.099 22.312-51.344 22.312-5.659 0-11.161-0.669-16.432-1.933l0.479 0.097c-24.333-5.259-43.402-23.396-49.919-46.767l-0.11-0.464c-1.157-4.473-1.821-9.607-1.821-14.897 0-19.686 9.199-37.223 23.532-48.547l0.13-0.099 135.209-127.565c12.854-13.746 31.099-22.312 51.344-22.312 5.659 0 11.161 0.669 16.432 1.933l-0.479-0.097c24.333 5.259 43.402 23.396 49.919 46.767l0.11 0.464c1.157 4.473 1.821 9.607 1.821 14.897 0 19.686-9.199 37.223-23.532 48.547l-0.13 0.099z" />
<glyph unicode="&#xe91d;" glyph-name="calendar" d="M813.824 881.216h-37.696v29.632c-0.98 26.267-22.511 47.19-48.928 47.19s-47.948-20.923-48.925-47.101l-0.003-0.089v-29.632h-336.064v29.184c0.010 0.363 0.015 0.791 0.015 1.219 0 25.537-19.731 46.465-44.78 48.371l-0.164 0.010c-0.001 0-0.001 0-0.002 0-26.792 0-48.512-21.72-48.512-48.512 0-0.158 0.001-0.315 0.002-0.472v0.024-29.632h-38.4c-116.128-0.472-210.115-94.594-210.368-210.728v-523.992c-0.005-0.536-0.008-1.169-0.008-1.803 0-114.608 92.294-207.659 206.612-208.884l0.116-0.001h608.704c0.002 0 0.005 0 0.008 0 114.541 0 207.517 92.328 208.567 206.62l0.001 0.1v527.936c-0.576 115.922-94.285 209.766-210.1 210.56h-0.076zM301.824 716.288c22.767 0.63 40.983 19.236 40.983 42.097 0 0.951-0.032 1.895-0.094 2.83l0.007-0.127v26.112h339.52v-25.6c0.036-27.048 21.971-48.96 49.024-48.96 0.068 0 0.135 0 0.203 0h-0.010c12.602 0.263 23.905 5.609 31.984 14.063l0.016 0.017c7.977 8.273 12.892 19.546 12.892 31.968 0 1.025-0.033 2.041-0.099 3.049l0.007-0.137v25.6h37.696c64.076-0.889 115.784-52.596 116.671-116.588l0.001-0.084 3.904-528.192c-0.848-63.971-52.355-115.635-116.184-116.735l-0.104-0.001h-609.088c-63.709 0.398-115.202 52.137-115.202 115.902 0 0.226 0.001 0.451 0.002 0.677v-0.035 528.384c-0.006 0.437-0.009 0.952-0.009 1.468 0 31.293 12.59 59.647 32.98 80.271l-0.011-0.011c21.024 21.343 50.239 34.565 82.543 34.565 0.389 0 0.777-0.002 1.164-0.006h41.669v-26.176c1.448-25.058 22.122-44.83 47.414-44.83 0.589 0 1.175 0.011 1.759 0.032l-0.084-0.002zM652.16 133.056h63.104c50.825 0.325 91.936 41.458 92.224 92.26v63.132c-0.324 50.803-41.421 91.9-92.193 92.224h-63.455c-50.811-0.36-91.9-41.472-92.224-92.257v-63.135c0.362-50.9 41.618-92.044 92.527-92.224h0.017z" />
<glyph unicode="&#xe91e;" glyph-name="Lock" d="M768 618.667h-42.667v85.333c0 117.76-95.573 213.333-213.333 213.333s-213.333-95.573-213.333-213.333v-85.333h-42.667c-46.933 0-85.333-38.4-85.333-85.333v-426.667c0-46.933 38.4-85.333 85.333-85.333h512c46.933 0 85.333 38.4 85.333 85.333v426.667c0 46.933-38.4 85.333-85.333 85.333zM384 704c0 70.827 57.173 128 128 128s128-57.173 128-128v-85.333h-256v85.333zM768 106.667h-512v426.667h512v-426.667zM512 234.667c46.933 0 85.333 38.4 85.333 85.333s-38.4 85.333-85.333 85.333-85.333-38.4-85.333-85.333 38.4-85.333 85.333-85.333z" />
<glyph unicode="&#xe91f;" glyph-name="Logout" d="M430.507 294.827l60.16-60.16 213.333 213.333-213.333 213.333-60.16-60.16 110.080-110.507h-412.587v-85.333h412.587l-110.080-110.507zM810.667 832h-597.333c-47.36 0-85.333-38.4-85.333-85.333v-170.667h85.333v170.667h597.333v-597.333h-597.333v170.667h-85.333v-170.667c0-46.933 37.973-85.333 85.333-85.333h597.333c46.933 0 85.333 38.4 85.333 85.333v597.333c0 46.933-38.4 85.333-85.333 85.333z" />
<glyph unicode="&#xe920;" glyph-name="ActivityCenter" d="M512 873.813c-235.093 0-425.813-190.72-425.813-425.813s190.72-425.813 425.813-425.813 425.813 190.72 425.813 425.813-190.72 425.813-425.813 425.813zM512 107.52c-187.733 0-340.48 152.747-340.48 340.48s152.747 340.48 340.48 340.48 340.48-152.747 340.48-340.48-152.747-340.48-340.48-340.48zM544 746.667l-192-362.667h133.973v-234.667l186.027 362.667h-128z" />
<glyph unicode="&#xe921;" glyph-name="MailOutline" d="M853.333 789.333h-682.667c-46.933 0-84.907-38.4-84.907-85.333l-0.427-512c0-46.933 38.4-85.333 85.333-85.333h682.667c46.933 0 85.333 38.4 85.333 85.333v512c0 46.933-38.4 85.333-85.333 85.333zM853.333 192h-682.667v426.667l341.333-213.333 341.333 213.333v-426.667zM512 490.667l-341.333 213.333h682.667l-341.333-213.333z" />
<glyph unicode="&#xe922;" glyph-name="VisibilityOff" d="M512 704c161.707 0 305.92-90.88 376.32-234.667-25.173-52.053-60.587-96.853-102.827-133.12l60.16-60.16c59.307 52.48 106.24 118.187 135.68 193.28-73.813 187.307-256 320-469.333 320-54.187 0-106.24-8.533-155.307-24.32l70.4-70.4c27.733 5.547 55.893 9.387 84.907 9.387zM466.347 655.36l88.32-88.32c24.32-10.667 43.947-30.293 54.613-54.613l88.32-88.32c3.413 14.507 5.973 29.867 5.973 45.653 0.427 105.813-85.76 191.573-191.573 191.573-15.787 0-30.72-2.133-45.653-5.973zM85.76 794.88l114.347-114.347c-69.547-54.613-124.587-127.147-157.44-211.2 73.813-187.307 256-320 469.333-320 64.853 0 127.147 12.373 184.32 34.987l145.92-145.92 60.16 60.16-756.48 756.907-60.16-60.587zM405.76 474.88l111.36-111.36c-1.707-0.427-3.413-0.853-5.12-0.853-58.88 0-106.667 47.787-106.667 106.667 0 2.133 0.427 3.413 0.427 5.547zM260.693 619.947l74.667-74.667c-9.813-23.467-15.36-49.067-15.36-75.947 0-105.813 86.187-192 192-192 26.88 0 52.48 5.547 75.52 15.36l41.813-41.813c-37.547-10.24-76.8-16.213-117.333-16.213-161.707 0-305.92 90.88-376.32 234.667 29.867 61.013 73.387 111.36 125.013 150.613z" />
<glyph unicode="&#xe923;" glyph-name="User" d="M512 708.267c49.493 0 89.6-40.107 89.6-89.6s-40.107-89.6-89.6-89.6-89.6 40.107-89.6 89.6 40.107 89.6 89.6 89.6zM512 324.267c126.72 0 260.267-62.293 260.267-89.6v-46.933h-520.533v46.933c0 27.307 133.547 89.6 260.267 89.6zM512 789.333c-94.293 0-170.667-76.373-170.667-170.667s76.373-170.667 170.667-170.667 170.667 76.373 170.667 170.667-76.373 170.667-170.667 170.667zM512 405.333c-113.92 0-341.333-57.173-341.333-170.667v-128h682.667v128c0 113.493-227.413 170.667-341.333 170.667z" />
<glyph unicode="&#xe924;" glyph-name="Phone" d="M279.040 746.667c2.56-37.973 8.96-75.093 19.2-110.507l-51.2-51.2c-17.493 51.2-28.587 105.387-32.427 161.707h64.427zM699.733 233.813c36.267-10.24 73.387-16.64 110.933-19.2v-63.573c-56.32 3.84-110.507 14.933-162.133 32l51.2 50.773zM320 832h-149.333c-23.467 0-42.667-19.2-42.667-42.667 0-400.64 324.693-725.333 725.333-725.333 23.467 0 42.667 19.2 42.667 42.667v148.907c0 23.467-19.2 42.667-42.667 42.667-52.907 0-104.533 8.533-152.32 24.32-4.267 1.707-8.96 2.133-13.227 2.133-11.093 0-21.76-4.267-30.293-12.373l-93.867-93.867c-120.747 61.867-219.733 160.427-281.173 281.173l93.867 93.867c11.947 11.947 15.36 28.587 10.667 43.52-15.787 47.787-24.32 98.987-24.32 152.32 0 23.467-19.2 42.667-42.667 42.667z" />
<glyph unicode="&#xe925;" glyph-name="Visibility" d="M512 704c161.707 0 305.92-90.88 376.32-234.667-70.4-143.787-214.613-234.667-376.32-234.667s-305.92 90.88-376.32 234.667c70.4 143.787 214.613 234.667 376.32 234.667zM512 789.333c-213.333 0-395.52-132.693-469.333-320 73.813-187.307 256-320 469.333-320s395.52 132.693 469.333 320c-73.813 187.307-256 320-469.333 320zM512 576c58.88 0 106.667-47.787 106.667-106.667s-47.787-106.667-106.667-106.667-106.667 47.787-106.667 106.667 47.787 106.667 106.667 106.667zM512 661.333c-105.813 0-192-86.187-192-192s86.187-192 192-192 192 86.187 192 192-86.187 192-192 192z" />
<glyph unicode="&#xe926;" glyph-name="SelfPaced" d="M512 576c94.293 0 170.667 76.373 170.667 170.667s-76.373 170.667-170.667 170.667-170.667-76.373-170.667-170.667 76.373-170.667 170.667-170.667zM512 832c46.933 0 85.333-38.4 85.333-85.333s-38.4-85.333-85.333-85.333-85.333 38.4-85.333 85.333 38.4 85.333 85.333 85.333zM512 467.2c-100.693 93.867-235.52 151.467-384 151.467v-469.333c148.48 0 283.307-57.6 384-151.467 100.693 93.44 235.52 151.467 384 151.467v469.333c-148.48 0-283.307-57.6-384-151.467zM810.667 229.12c-107.947-14.507-210.347-55.467-298.667-120.32-87.893 64.853-190.72 106.24-298.667 120.747v296.533c89.6-16.213 172.8-57.6 240.64-120.747l58.027-54.613 58.027 54.187c67.84 63.147 151.040 104.533 240.64 120.747v-296.533z" />
<glyph unicode="&#xe927;" glyph-name="bookmark" d="M833.334 960h-642.666c-16.568 0-30-13.432-30-30v-964c0-12.134 7.31-23.072 18.52-27.716 3.712-1.538 7.61-2.284 11.474-2.284 7.806 0 15.48 3.046 21.218 8.788l300.126 300.124 300.114-300.124c8.58-8.582 21.482-11.146 32.694-6.504 11.21 4.644 18.52 15.582 18.52 27.716v964c0 16.568-13.43 30-30 30z" />
<glyph unicode="&#xe928;" glyph-name="bookmark-o" d="M833.334 960h-642.668c-16.568 0-30-13.432-30-30v-964c0-12.134 7.31-23.072 18.52-27.716 3.712-1.538 7.61-2.284 11.474-2.284 7.808 0 15.48 3.046 21.22 8.788l300.126 300.122 300.114-300.122c8.58-8.58 21.484-11.146 32.694-6.504 11.21 4.644 18.52 15.582 18.52 27.716v964c0 16.568-13.432 30-30 30zM512.004 317.336c-7.956 0-15.586-3.16-21.212-8.788l-270.126-270.122v861.574h582.666v-861.57l-270.114 270.118c-5.626 5.628-13.256 8.788-21.214 8.788z" />
<glyph unicode="&#xe929;" glyph-name="sad" d="M0 448c0 282.77 229.23 512 512 512s512-229.23 512-512c0-282.77-229.23-512-512-512-0.18 0-0.36 0-0.54 0h0.028c-282.55 0.292-511.488 229.41-511.488 512v0zM102.4 448c0-226.216 183.384-409.6 409.6-409.6s409.6 183.384 409.6 409.6c0 226.216-183.384 409.6-409.6 409.6v0c-226.216 0-409.6-183.384-409.6-409.6v0zM688.64 166.4c-35.771 61.636-101.458 102.423-176.672 102.423s-140.901-40.787-176.15-101.45l-0.522-0.973h-85.696c42.233 105.546 143.64 178.745 262.144 178.745s219.91-73.199 261.473-176.849l0.671-1.896zM597.376 577.536c0 53.019 42.981 96 96 96s96-42.981 96-96c0-53.019-42.981-96-96-96v0c-53.019 0-96 42.981-96 96v0zM234.688 577.536c0 53.019 42.981 96 96 96s96-42.981 96-96c0-53.019-42.981-96-96-96v0c-53.019 0-96 42.981-96 96v0z" />
<glyph unicode="&#xe92a;" glyph-name="smile" d="M0 448c0.035 282.71 229.224 511.878 511.939 511.878 282.736 0 511.939-229.203 511.939-511.939s-229.203-511.939-511.939-511.939c-0.171 0-0.342 0-0.513 0h0.026c-282.504 0.173-511.453 229.228-511.453 511.757 0 0.085 0 0.171 0 0.256v-0.013zM102.388 448c0.035-226.163 183.384-409.49 409.551-409.49 226.189 0 409.551 183.362 409.551 409.551s-183.362 409.551-409.551 409.551v0c-0.018 0-0.039 0-0.061 0-226.155 0-409.49-183.335-409.49-409.49 0-0.043 0-0.085 0-0.128v0.006zM249.855 345.551h85.171c35.785-61.614 101.466-102.382 176.669-102.382s140.884 40.769 176.147 101.41l0.522 0.972h85.171c-42.012-105.808-143.501-179.257-262.144-179.257s-220.133 73.449-261.478 177.357l-0.667 1.9zM644.259 576.73c0 33.599 27.237 60.837 60.837 60.837s60.837-27.237 60.837-60.837c0-33.599-27.237-60.837-60.837-60.837v0c-0.018 0-0.039 0-0.061 0-33.599 0-60.837 27.237-60.837 60.837v0zM258.008 576.73c0 33.599 27.237 60.837 60.837 60.837s60.837-27.237 60.837-60.837c0-33.599-27.237-60.837-60.837-60.837v0c-33.599 0-60.837 27.237-60.837 60.837v0z" />
<glyph unicode="&#xe92b;" glyph-name="res-popout" d="M102.4 755.2h-102.4v-716.8c0.174-56.484 45.916-102.226 102.383-102.4h716.817v102.4h-716.8zM921.6 960h-614.4c-56.484-0.174-102.226-45.916-102.4-102.383v-614.417c0.174-56.484 45.916-102.226 102.383-102.4h614.417c56.484 0.174 102.226 45.916 102.4 102.383v614.417c-0.174 56.484-45.916 102.226-102.383 102.4h-0.017zM870.4 499.2h-512v102.4h512zM665.6 294.4h-307.2v102.4h307.2zM870.4 704h-512v102.4h512z" />
<glyph unicode="&#xe92c;" glyph-name="book-question" d="M469.333 608.756c-0.429-17.34-14.588-31.232-31.991-31.232-0.003 0-0.006 0-0.010 0h0.001c-32 0-32 32.043-32 32.043v0.384c0.025 2.046 0.148 4.031 0.366 5.988l-0.024-0.27c2.033 17.31 8.45 32.818 18.099 45.777l-0.179-0.252c19.371 26.155 54.187 45.312 110.293 44.331 40.533-0.725 76.501-17.707 99.029-45.653 22.912-28.459 30.635-66.987 15.445-104.917-15.445-38.613-50.389-53.973-70.485-62.763l-2.133-0.981c-11.947-5.248-17.621-7.979-21.035-10.709l-0.043-0.043v-30.891c0-0.006 0-0.014 0-0.021 0-17.673-14.327-32-32-32-17.666 0-31.988 14.315-32 31.978v32.001c0 22.315 10.752 38.272 24.021 48.939 10.667 8.533 24.107 14.421 33.536 18.603l1.621 0.725c23.125 10.197 34.133 16.512 39.125 28.971 2.080 4.633 3.291 10.042 3.291 15.734 0 9.633-3.47 18.455-9.228 25.285l0.048-0.059c-9.472 11.733-26.837 21.419-50.304 21.803-39.893 0.683-53.12-12.16-57.728-18.432-2.932-3.942-4.963-8.721-5.698-13.917l-0.019-0.163v-0.256zM522.667 289.524c23.564 0 42.667 19.103 42.667 42.667s-19.103 42.667-42.667 42.667v0c-23.564 0-42.667-19.103-42.667-42.667s19.103-42.667 42.667-42.667v0zM170.667 758.857c0 58.91 47.756 106.667 106.667 106.667v0h490.667c58.91 0 106.667-47.756 106.667-106.667v0-608c0-17.673-14.327-32-32-32v0h-608c0-23.564 19.103-42.667 42.667-42.667v0h565.333c17.673 0 32-14.327 32-32s-14.327-32-32-32v0h-565.333c-58.91 0-106.667 47.756-106.667 106.667v0 640zM234.667 758.857v-576h576v576c0 23.564-19.103 42.667-42.667 42.667v0h-490.667c-23.564 0-42.667-19.103-42.667-42.667v0z" />
<glyph unicode="&#xe92d;" glyph-name="Test" d="M997.582 637.746c-35.090 35.092-92.188 35.090-127.29-0.008-10.796-10.806-79.726-79.792-90.256-90.332v237.742c0 24.040-9.362 46.64-26.362 63.638l-84.85 84.854c-16.998 17-39.6 26.36-63.64 26.36h-515.148c-49.626 0-90-40.374-90-90v-844c0-49.626 40.374-90 90-90h600c49.626 0 90 40.374 90 90v266.738l217.544 217.728c35.174 35.172 35.182 92.104 0.002 127.28zM600.038 900c5.668 0 16.59 0.982 26.36-8.786l84.852-84.854c9.52-9.522 8.788-19.956 8.788-26.36h-120v120zM720.036 26c0-16.542-13.456-30-30-30h-600c-16.542 0-30 13.458-30 30v844c0 16.542 13.458 30 30 30h450v-150c0-16.568 13.432-30 30-30h150v-232.646c0 0-88.508-88.584-88.512-88.586l-42.406-42.408c-3.292-3.292-5.776-7.308-7.248-11.726l-42.428-127.28c-3.594-10.78-0.788-22.666 7.248-30.7 8.046-8.046 19.936-10.838 30.7-7.248l127.28 42.426c4.418 1.472 8.434 3.954 11.726 7.248l3.64 3.64v-206.72zM652.756 335.146l42.426-42.426-16.206-16.206-63.638-21.212 21.212 63.64 16.206 16.204zM737.6 335.156l-42.426 42.426c22.592 22.61 122.93 123.034 144.21 144.332l42.426-42.426-144.21-144.332zM955.146 552.884l-30.926-30.952-42.426 42.426 30.936 30.962c11.704 11.698 30.732 11.696 42.428 0 11.694-11.7 11.756-30.666-0.012-42.436zM570.036 660h-420c-16.568 0-30-13.432-30-30s13.432-30 30-30h420c16.568 0 30 13.432 30 30s-13.432 30-30 30zM450.036 540h-300c-16.568 0-30-13.432-30-30s13.432-30 30-30h300c16.568 0 30 13.432 30 30s-13.432 30-30 30zM450.036 420h-300c-16.568 0-30-13.432-30-30s13.432-30 30-30h300c16.568 0 30 13.432 30 30s-13.432 30-30 30zM450.036 300h-300c-16.568 0-30-13.432-30-30s13.432-30 30-30h300c16.568 0 30 13.432 30 30s-13.432 30-30 30zM570.036 116h-180c-16.568 0-30-13.432-30-30s13.432-30 30-30h180c16.568 0 30 13.432 30 30s-13.432 30-30 30z" />
<glyph unicode="&#xe92e;" glyph-name="Collection" horiz-adv-x="1007" d="M680.533 524.8l162.133-213.333h-501.333l125.867 160 87.467-106.667zM91.733 765.867v-727.467h727.467v-91.733h-727.467q-38.4 0-65.067 26.667t-26.667 65.067v727.467h91.733zM910.933 949.333q36.267 0 62.933-26.667t26.667-65.067v-637.867q0-36.267-26.667-62.933t-62.933-26.667h-637.867q-38.4 0-65.067 26.667t-26.667 62.933v637.867q0 38.4 26.667 65.067t65.067 26.667h637.867zM910.933 219.733v637.867h-637.867v-637.867h637.867z" />
<glyph unicode="&#xe92f;" glyph-name="Analytics" d="M152 480c24.219 0 46.219 9.633 62.414 25.25l88.297-44.148c-0.453-3.641-0.711-7.336-0.711-11.102 0-49.625 40.375-90 90-90s90 40.375 90 90c0 13.875-3.164 27.031-8.797 38.781l120.016 120.016c11.75-5.633 24.906-8.797 38.781-8.797 49.625 0 90 40.375 90 90 0 9.375-1.445 18.414-4.117 26.914l104.266 78.195c14.281-9.539 31.422-15.109 49.852-15.109 49.625 0 90 40.375 90 90s-40.375 90-90 90-90-40.375-90-90c0-9.375 1.445-18.414 4.117-26.914l-104.266-78.195c-14.281 9.539-31.422 15.109-49.852 15.109-49.625 0-90-40.375-90-90 0-13.875 3.164-27.031 8.797-38.781l-120.016-120.016c-11.75 5.633-24.906 8.797-38.781 8.797-24.219 0-46.219-9.633-62.414-25.25l-88.297 44.148c0.453 3.641 0.711 7.336 0.711 11.102 0 49.625-40.375 90-90 90s-90-40.375-90-90 40.375-90 90-90zM872 900c16.539 0 30-13.461 30-30s-13.461-30-30-30-30 13.461-30 30 13.461 30 30 30zM632 720c16.539 0 30-13.461 30-30s-13.461-30-30-30-30 13.461-30 30 13.461 30 30 30zM392 480c16.539 0 30-13.461 30-30s-13.461-30-30-30-30 13.461-30 30 13.461 30 30 30zM152 600c16.539 0 30-13.461 30-30s-13.461-30-30-30-30 13.461-30 30 13.461 30 30 30zM994-4h-32v634c0 16.57-13.43 30-30 30h-120c-16.57 0-30-13.43-30-30v-634h-60v454c0 16.57-13.43 30-30 30h-120c-16.57 0-30-13.43-30-30v-454h-60v214c0 16.57-13.43 30-30 30h-120c-16.57 0-30-13.43-30-30v-214h-60v334c0 16.57-13.43 30-30 30h-120c-16.57 0-30-13.43-30-30v-334h-32c-16.57 0-30-13.43-30-30s13.43-30 30-30h964c16.57 0 30 13.43 30 30s-13.43 30-30 30zM842 600h60v-604h-60zM602 420h60v-424h-60zM362 180h60v-184h-60zM122 300h60v-304h-60z" />
<glyph unicode="&#xe930;" glyph-name="Bell" horiz-adv-x="853" d="M320.013 42.671c0 0.084 0 0.184 0 0.284 0 7.459 0.778 14.737 2.257 21.756l-0.121-0.685h-300.793c-0.028 0-0.061 0-0.094 0-7.917 0-14.826 4.319-18.498 10.73l-0.055 0.104c-1.717 3.020-2.728 6.634-2.728 10.485 0 4.070 1.131 7.877 3.095 11.122l-0.054-0.096 73.232 122.088c32.454 53.188 51.669 117.533 51.669 186.367 0 0.108 0 0.216 0 0.324v-0.017 106.931c0.271 134.482 89.197 248.12 211.43 285.598l2.12 0.559v76.461c0 47.147 38.221 85.368 85.368 85.368s85.368-38.221 85.368-85.368v0-76.409c124.463-38.053 213.443-151.856 213.55-286.457v-106.944c0.013-68.935 19.224-133.381 52.578-188.285l-0.909 1.611 73.388-122.088c1.778-3.094 2.827-6.802 2.827-10.756s-1.049-7.662-2.883-10.862l0.056 0.107c-3.79-6.519-10.74-10.832-18.698-10.834h-300.846c1.354-6.418 2.132-13.795 2.136-21.352v-0.003c0-58.97-47.805-106.775-106.775-106.775s-106.775 47.805-106.775 106.775v0zM362.619 42.671c0.034-35.328 28.681-63.953 64.013-63.953 35.353 0 64.013 28.66 64.013 64.013 0 7.633-1.336 14.954-3.787 21.741l0.141-0.446h-120.578c-2.37-6.348-3.761-13.683-3.802-21.337v-0.018zM469.342 807.65v67.034c0 23.574-19.11 42.684-42.684 42.684s-42.684-19.11-42.684-42.684v0-67.034c12.826 1.94 27.626 3.048 42.684 3.048s29.858-1.108 44.322-3.247l-1.638 0.199z" />
<glyph unicode="&#xe931;" glyph-name="Dot_Menu" horiz-adv-x="256" d="M128.099 704.046c70.671 0.241 127.892 57.484 128.099 128.14v0.020c-0.413 70.519-57.555 127.554-128.076 127.795h-0.023c-70.544-0.24-127.686-57.276-128.099-127.755v-0.039c0.207-70.676 57.428-127.918 128.076-128.16h0.023zM128.099 576.251c-70.664-0.207-127.892-57.435-128.099-128.079v-0.020c0.207-70.664 57.435-127.892 128.079-128.099h0.020c70.664 0.207 127.892 57.435 128.099 128.079v0.020c-0.379 70.533-57.542 127.589-128.079 127.795h-0.020zM128.099 191.894c-70.664-0.207-127.892-57.435-128.099-128.079v-0.020c0.379-70.533 57.542-127.589 128.079-127.795h0.020c70.557 0.206 127.72 57.262 128.099 127.758v0.036c-0.379 70.533-57.542 127.589-128.079 127.795h-0.020z" />
<glyph unicode="&#xe932;" glyph-name="Nav_Hamburger" horiz-adv-x="1477" d="M59.217-64c-0.017 0-0.036 0-0.056 0-16.331 0-31.11 6.642-41.783 17.373l-0.003 0.003c-10.72 10.705-17.358 25.497-17.375 41.839v0.003c0 32.705 26.513 59.217 59.217 59.217v0h1153.853c32.666 0 59.147-26.481 59.147-59.146 0-0.025 0-0.050 0-0.075v0.004c0-0.038 0-0.082 0-0.127 0-16.296-6.614-31.046-17.303-41.715l-0.001-0.001c-10.676-10.733-25.455-17.375-41.786-17.375-0.020 0-0.039 0-0.059 0h0.003zM59.217 388.747c-16.345 0.018-31.137 6.655-41.842 17.375l-0.001 0.001c-10.73 10.725-17.369 25.543-17.375 41.912v0.001c0.040 32.689 26.529 59.177 59.214 59.217h1358.245c32.689-0.040 59.177-26.529 59.217-59.214v-0.004c-0.014-16.368-6.651-31.184-17.375-41.913v0c-10.705-10.72-25.497-17.358-41.839-17.375h-0.003zM59.217 841.494c-32.689 0.040-59.177 26.529-59.217 59.214v0.004c0.014 16.368 6.651 31.184 17.375 41.913v0c10.705 10.72 25.497 17.358 41.839 17.375h631.608c16.345-0.018 31.137-6.655 41.842-17.375l0.001-0.001c10.692-10.691 17.304-25.46 17.304-41.774 0-0.049 0-0.098 0-0.146v0.007c0-32.68-26.472-59.177-59.143-59.217h-0.004z" />
<glyph unicode="&#xe933;" glyph-name="Clock" d="M0 448.038c0.478 282.545 229.353 511.473 511.831 512.038h0.054c282.565-0.522 511.483-229.467 511.962-511.992v-0.046c-0.522-282.538-229.423-511.44-511.911-511.962h-0.051c-282.506 0.565-511.364 229.45-511.885 511.912v0.050zM79.305 448.038c0.305-238.8 193.786-432.308 432.546-432.657h0.034c238.827 0.305 432.352 193.829 432.657 432.627v0.030c-0.261 238.844-193.812 432.395-432.631 432.657h-0.026c-238.812-0.305-432.319-193.839-432.58-432.632v-0.025zM646.612 294.327l-158.687 118.958c-9.699 7.286-15.909 18.762-15.922 31.689v237.994c0.043 21.882 17.771 39.609 39.648 39.653h0.004c0.019 0 0.042 0 0.065 0 10.912 0 20.793-4.417 27.953-11.56l-0.001 0.001c7.142-7.135 11.559-16.996 11.559-27.889 0-0.072 0-0.144-0.001-0.216v0.011-218.089l142.918-107.169c9.457-7.306 15.489-18.649 15.489-31.402 0-8.907-2.942-17.126-7.907-23.739l0.073 0.102c-7.264-9.707-18.732-15.922-31.653-15.922-0.041 0-0.081 0-0.122 0h0.006c-0.055 0-0.119 0-0.184 0-8.739 0-16.813 2.843-23.349 7.655l0.109-0.076z" />
<glyph unicode="&#xe934;" glyph-name="Duration" horiz-adv-x="1025" d="M892.455 880.414h-92.026v47.568c0 17.683-14.335 32.017-32.017 32.017v0c-17.683 0-32.017-14.335-32.017-32.017v0-48.026h-448.24v48.026c0 17.683-14.335 32.017-32.017 32.017v0c-0.094 0.001-0.204 0.002-0.315 0.002-8.715 0-16.615-3.492-22.376-9.154l0.005 0.005c-5.657-5.756-9.149-13.656-9.149-22.372 0-0.111 0.001-0.221 0.002-0.332v0.017-48.026h-92.026c-72.932-0.052-132.041-59.161-132.094-132.088v-679.958c0.052-72.932 59.161-132.041 132.088-132.094h760.367c72.911 0.104 131.99 59.182 132.094 132.084v680.329c-0.104 72.925-59.245 132.002-132.185 132.002-0.032 0-0.064 0-0.097 0h0.005zM132.094 816.38h92.026v-32.017c0-17.683 14.335-32.017 32.017-32.017v0c17.683 0 32.017 14.335 32.017 32.017v0 32.017h448.24v-32.017c0-17.683 14.335-32.017 32.017-32.017v0c17.683 0 32.017 14.335 32.017 32.017v0 32.017h92.026c37.588 0 68.059-30.471 68.059-68.059v0-76.018h-896.48v76.018c0 37.588 30.471 68.059 68.059 68.059v0zM892.455-0.057h-760.362c-37.567 0.052-68.007 30.492-68.059 68.054v539.723h896.48v-539.718c-0.052-37.567-30.492-68.007-68.054-68.059h-0.005z" />
<glyph unicode="&#xe935;" glyph-name="Activities_New" horiz-adv-x="1030" d="M313.823-64v33.063h33.013v-33.063zM247.747-64v33.063h33.013v-33.063zM49.519 101.165v59.253l-21.323-21.373-23.38 23.33 61.209 61.259 61.259-61.259-23.38-23.33-21.373 21.373v-59.253c0.114-72.912 59.19-131.987 132.090-132.102h0.011v-33.063c-91.069 0.256-164.83 73.999-165.114 165.037v0.027zM390.685-63.95l38.482 128.238c12.66 41.37 46.918 72.383 89.302 80.167l0.706 0.108 108.421 19.768v8.579c-40.641 23.757-69.839 63.334-79.293 110.071l-0.179 1.059c-30.265 6.474-52.63 32.992-52.63 64.734 0 0.013 0 0.026 0 0.039v-0.002 126.884c0.035 112.306 91.085 203.334 203.395 203.334 56.126 0 106.942-22.733 143.743-59.494l-0.002 0.002 8.228-8.278c43.119-13.125 73.953-52.541 73.953-99.158 0-0.064 0-0.127 0-0.191v0.010-163.057c0-0.011 0-0.025 0-0.038 0-31.714-22.342-58.209-52.146-64.605l-0.434-0.078c-9.695-47.797-38.894-87.373-78.743-110.757l-0.779-0.423v-8.579l108.421-19.768c43.090-7.892 77.348-38.904 89.792-79.459l0.215-0.815 38.482-128.238zM525.195 112.353c-30.847-5.668-55.357-27.904-64.217-56.964l-0.153-0.583-25.738-85.693h550.18l-25.788 85.693c-8.963 29.655-33.473 51.906-63.816 57.47l-0.504 0.077-71.494 12.994-40.137-120.763-73.301 73.25-73.25-73.301-40.137 120.813zM735.313 99.409l33.715-33.665 21.925 65.524-10.486 1.907zM629.451 131.267l21.925-65.524 33.715 33.715-45.154 33.765zM710.177 121.885l48.165 36.023c-14.409-4.554-30.98-7.179-48.165-7.179s-33.756 2.624-49.335 7.494l1.17-0.315zM685.995 450.057c-27.976-28.156-65.484-46.812-107.276-50.721l-0.693-0.052v-83.335c0-72.972 59.155-132.127 132.127-132.127s132.127 59.155 132.127 132.127v0 82.532h-19.216c-51.656 0.169-98.075 22.444-130.318 57.856l-0.127 0.142zM875.342 320.464c9.962 5.733 16.562 16.32 16.562 28.447s-6.6 22.714-16.404 28.363l-0.158 0.084zM528.506 348.961c0.035-12.107 6.572-22.68 16.302-28.413l0.155-0.084v57.045c-9.906-5.784-16.456-16.364-16.456-28.474 0-0.008 0-0.016 0-0.025v0.001zM708.622 488.639c26.432-34.803 67.798-57.078 114.372-57.195h52.348v-18.864c6.264-1.64 11.756-3.958 16.811-6.939l-0.304 0.166v106.213c0 0.025 0 0.054 0 0.084 0 32.957-22.569 60.642-53.094 68.445l-0.489 0.106-4.415 1.054-14.55 14.6c-30.849 30.745-73.41 49.755-120.412 49.755-94.064 0-170.345-76.135-170.582-170.144v-70.263c4.737 2.833 10.213 5.153 16.014 6.675l0.443 0.099v18.864h16.506c0.111 0 0.243 0 0.374 0 39.388 0 75.041 15.993 100.819 41.84l32.765 32.865zM0 299.342v33.013h429.418v-33.013zM326.115 365.418h-95.326v33.013h198.177v-33.013zM0 365.418v33.013h198.177v-33.013zM0 431.443v33.013h429.418v-33.013zM162.405 530.532l-11.991 44.803c-3.412 1.355-6.873 2.81-10.335 4.365l-40.137-23.33-73.953 74.003 23.28 40.137c-1.605 3.462-3.010 6.873-4.315 10.335l-44.803 11.941v104.658l44.803 11.991c1.304 3.462 2.709 6.924 4.315 10.335l-23.28 40.137 73.953 73.953 40.137-23.28c3.462 1.555 6.924 3.010 10.335 4.265l11.991 45.154h104.608l11.991-44.853c3.462-1.304 6.924-2.759 10.285-4.315l40.137 23.28 74.053-73.953-23.33-40.137c1.605-3.412 3.010-6.873 4.315-10.335l44.803-11.991v-104.658l-44.803-11.941c-1.304-3.462-2.709-6.823-4.315-10.335l23.28-40.137-74.003-74.053-40.137 23.33c-3.412-1.555-6.823-3.010-10.285-4.365l-11.991-44.803zM146.952 613.064c6.208-3.286 13.574-6.427 21.212-8.974l1.064-0.308 8.579-2.81 10.034-37.378h53.934l10.034 37.378 8.529 2.81c8.716 2.864 16.098 6.023 23.149 9.726l-0.823-0.394 8.027 4.064 33.615-19.416 38.13 38.18-19.517 33.515 4.114 8.027c3.279 6.206 6.437 13.586 9.013 21.234l0.319 1.092 2.709 8.579 37.478 10.034v53.834l-37.478 10.034-2.709 8.579c-2.912 8.732-6.068 16.095-9.744 23.144l0.412-0.868-4.114 7.977 19.517 33.615-38.13 38.13-33.615-19.416-8.027 4.064c-6.236 3.333-13.617 6.508-21.277 9.077l-1.050 0.305-8.529 2.759-10.034 37.428h-53.934l-10.034-37.428-8.579-2.759c-8.702-2.893-16.066-6.066-23.101-9.779l0.825 0.397-8.027-4.064-33.615 19.416-38.13-38.13 19.517-33.615-4.114-7.977c-3.284-6.207-6.425-13.573-8.973-21.21l-0.308-1.066-2.759-8.579-37.428-10.034v-53.834l37.428-10.034 2.759-8.579c2.828-8.703 5.971-16.087 9.668-23.135l-0.386 0.809 4.114-8.027-19.517-33.515 38.13-38.18 33.615 19.416zM99.139 745.166c0.329 63.481 51.866 114.815 115.393 114.815 63.731 0 115.394-51.664 115.394-115.394 0-25.723-8.416-49.48-22.646-68.667l0.22 0.311-26.491 19.717c10.198 13.588 16.331 30.737 16.331 49.318 0 45.637-36.996 82.632-82.632 82.632s-82.632-36.996-82.632-82.632c0-45.637 36.996-82.632 82.632-82.632 19.034 0 36.566 6.436 50.536 17.25l-0.19-0.141 20.069-26.19c-19.315-15.086-43.941-24.189-70.692-24.189-63.731 0-115.394 51.664-115.394 115.394 0 0.143 0 0.287 0.001 0.43v-0.022zM896.865 733.526l23.43 23.43 21.323-21.373v59.152c-0.904 31.467-11.817 60.22-29.649 83.369l0.248-0.336c-23.017 30.010-58.888 49.166-99.234 49.166-1.219 0-2.434-0.017-3.645-0.052l0.178 0.004h-99.089v33.063h99.089c91.126-0.228 164.937-74.038 165.164-165.142v-59.174l21.423 21.373 23.33-23.43-61.259-61.259zM644.302 926.887v33.013h33.264v-33.013zM578.226 926.887v33.013h33.063v-33.013z" />
<glyph unicode="&#xe936;" glyph-name="QA" horiz-adv-x="1165" d="M968.083-54.035l-126.561 126.561h-190.671c-56.53 0.063-102.335 45.888-102.367 102.419v34.162h-158.782l-194.824-194.824c-6.156-6.177-14.671-9.999-24.080-9.999-4.738 0-9.249 0.969-13.346 2.72l0.222-0.084c-12.484 5.235-21.093 17.356-21.093 31.488 0 0.005 0 0.010 0 0.015v-0.001 170.685h-34.159c-56.51 0.063-102.304 45.857-102.367 102.361v546.11c0.063 56.521 45.85 102.328 102.358 102.422h821.49c56.53-0.063 102.335-45.888 102.367-102.419v-307.214h36.374c28.327-0.002 53.97-11.491 72.525-30.062l0.001-0.001c18.539-18.527 30.007-44.129 30.007-72.409 0-0.041 0-0.082 0-0.124v0.006-273.052c-0.063-56.521-45.85-102.328-102.358-102.422h-36.383v-102.201c-0.051-14.135-8.666-26.245-20.924-31.418l-0.225-0.084c-3.864-1.646-8.359-2.602-13.077-2.602-0.016 0-0.031 0-0.047 0h0.002c-9.403 0.002-17.916 3.81-24.084 9.966l0.001-0.001zM616.581 448v-273.052c0.031-18.834 15.275-34.096 34.098-34.159h204.85c0.018 0 0.039 0 0.060 0 9.412 0 17.929-3.831 24.076-10.019l78.23-78.23v54.090c0 0.016 0 0.036 0 0.055 0 18.835 15.269 34.104 34.104 34.104 0.019 0 0.039 0 0.058 0h70.53c18.84 0.063 34.096 15.319 34.159 34.153v273.058c-0.063 18.84-15.319 34.096-34.153 34.159h-411.909c-18.805-0.094-34.017-15.345-34.048-34.156v-0.003zM68.484 857.689v-546.104c0-18.866 15.294-34.159 34.159-34.159v0h68.318c18.842-0.032 34.104-15.313 34.104-34.159 0 0 0 0 0 0v0-122.353l146.491 146.491c6.139 6.124 14.611 9.91 23.968 9.91 0.060 0 0.12 0 0.18 0h172.946v170.907c0.126 56.485 45.882 102.241 102.355 102.367h307.223v307.211c0 0 0 0 0 0 0 18.846-15.262 34.128-34.101 34.159h-821.484c-0.066 0-0.144 0.001-0.222 0.001-18.866 0-34.159-15.294-34.159-34.159 0-0.059 0-0.117 0-0.176v0.009zM241.882 417.107c-17.092 0-30.948 13.856-30.948 30.948v0c0 17.092 13.856 30.948 30.948 30.948v0h187.682c17.092 0 30.948-13.856 30.948-30.948v0c0-17.092-13.856-30.948-30.948-30.948v0zM243.986 554.519c-17.092 0-30.948 13.856-30.948 30.948v0c0 17.092 13.856 30.948 30.948 30.948v0h249.578c17.092 0 30.948-13.856 30.948-30.948v0c0-17.092-13.856-30.948-30.948-30.948v0zM257.495 691.986c-17.092 0-30.948 13.856-30.948 30.948v0c0 17.092 13.856 30.948 30.948 30.948v0h497.107c17.092 0 30.948-13.856 30.948-30.948v0c0-17.092-13.856-30.948-30.948-30.948v0zM900.595 359.806l-70.92-70.92-24.526 24.526c-5.608 5.595-13.348 9.054-21.896 9.054s-16.288-3.459-21.897-9.055l0.001 0.001c-5.591-5.599-9.049-13.33-9.049-21.869s3.458-16.27 9.050-21.869v0l46.45-46.45c5.571-5.577 13.271-9.026 21.777-9.026 0.13 0 0.259 0.001 0.388 0.002h-0.020c0.11-0.001 0.239-0.002 0.369-0.002 8.505 0 16.205 3.45 21.776 9.026v0l92.844 92.844c5.591 5.599 9.049 13.33 9.049 21.869s-3.458 16.27-9.050 21.869v0c-5.594 5.61-13.33 9.081-21.877 9.081-0.094 0-0.189 0-0.283-0.001h0.014c-0.080 0.001-0.174 0.001-0.268 0.001-8.547 0-16.283-3.471-21.876-9.080l-0.001-0.001z" />
<glyph unicode="&#xe937;" glyph-name="Course_Progression" d="M608.545 960c58.5-59.803 118.116-118.675 174.708-180.293 13.678-15.704 22.514-35.946 23.998-58.2l0.016-0.3c2.792-73.206 2.001-146.552 0-219.804-0.326-12.659-12.147-25.038-18.616-37.511-6.795 12.147-19.267 24.107-19.5 36.394-1.862 74.463-0.931 148.925-0.931 227.809-41.094 0-79.116-0.326-117.418 0-53.52 0.558-73.951 21.361-74.463 75.673-0.326 37.231 0 74.183 0 113.788-13.962 0.931-25.643 2.28-37.231 2.28-150.461 0-300.968-0.977-451.429 0.838-37.231 0.465-47.796-11.449-47.61-48.075q1.908-423.785 0-847.57c0-38.907 11.728-51.984 50.169-49.611 46.074 2.885 92.473 0.698 142.503 0.698 0 50.123 0.838 96.429-0.326 142.689-0.652 25.457 8.703 36.906 34.718 36.114 30.623-1.024 61.339-1.536 91.868 0s43.747-8.796 42.164-41.047c-2.094-43.793-0.512-87.726-0.512-134.963l39.977-4.282v237.349c0 58.22 0 58.22 56.498 58.314 111.322 0 111.275 0 111.368-111.694q0-85.958 0.605-171.869c0.775-3.415 1.929-6.428 3.444-9.216l-0.093 0.187h35.928v368.916c0 62.362 0 62.362 63.666 62.362 104.201 0 104.201 0 104.201-105.783v-325.308h39.977v255.965c-0.47 3.816-0.739 8.233-0.739 12.714 0 6.74 0.607 13.338 1.77 19.743l-0.101-0.67c4.574 8.832 10.278 16.378 17.045 22.817l0.035 0.033c7.214-7.539 20.245-14.753 20.71-22.711 2.234-39.837 1.163-79.908 1.21-119.885v-168.565h85.167v523.658h-85.213c0.457-8.329 0.717-18.078 0.717-27.887 0-15.083-0.615-30.021-1.822-44.793l0.128 1.94c-1.35-9.913-13.45-18.616-20.617-27.551-6.097 8.936-12.193 17.871-18.15 26.946-0.605 0.931-0.233 2.606 0 3.909q5.026 52.263 10.239 104.573l149.856-0.558c2.897-0.3 5.535-0.842 8.072-1.614l-0.3 0.079v-591.931c-14.4-3.492-31.565-6.198-49.107-7.56l-1.155-0.072q-443.518-0.698-886.896-0.326c-67.901 0-86.004 17.638-86.051 84.143 0 285.192 0.512 570.29-0.652 855.482-0.389 3.088-0.611 6.662-0.611 10.287 0 31.069 16.307 58.33 40.829 73.69l0.364 0.212zM774.132-22.254v388.695h-85.632v-388.927zM483.309 228.684v-249.403h82.514v249.403zM359.328 112.988h-83.77v-133.753h83.77zM616.597 889.028c-0.517-10.77-0.812-23.391-0.812-36.082 0-19.794 0.717-39.42 2.127-58.854l-0.152 2.603c3.187-12.677 12.309-22.704 24.165-27.092l0.268-0.087c16.342-1.298 35.383-2.038 54.596-2.038 11.898 0 23.73 0.284 35.489 0.845l-1.661-0.063c-27.593 37.22-57.392 69.942-90.154 99.437l-0.597 0.529c-5.305 5.212-11.123 10.146-23.27 20.803zM275.791 794.926c3.909 53.799 8.377 57.429 59.012 50.635 102.443-17.109 182.584-95.587 201.963-195.732l0.249-1.547c9.634-53.753 4.933-60.035-49.238-65.806-45.329-124.492-114.672-175.732-218.315-161.351-86.114 12.858-152.33 83.328-158.525 170.391l-0.034 0.593c-8.656 94.474 49.378 166.657 164.888 202.817zM439.376 585.081c-43.561 0-84.143 1.117-124.632-0.419-28.528-1.070-38.581 10.611-37.604 38.395 1.443 41.094 0.372 82.281 0.372 124.166-71.597-8.702-126.524-69.112-126.524-142.351 0-2.46 0.062-4.905 0.184-7.335l-0.014 0.341c4.080-75.006 64.109-134.744 138.864-138.348l0.335-0.013c2.229-0.124 4.837-0.195 7.461-0.195 72.81 0 132.871 54.588 141.488 125.070l0.069 0.688zM321.12 803.442v-174.987h175.080c-8.177 93.21-81.865 166.882-174.355 174.982l-0.725 0.051zM326.844 371.978c56.917 0 113.974 1.35 170.845-0.931 13.962-0.605 27.412-13.171 41.047-20.198-12.891-6.469-25.69-18.616-38.674-18.616q-174.941-2.187-349.928 0c-12.286 0-24.433 13.217-36.626 20.291 12.798 6.469 25.364 18.104 38.395 18.616 58.267 1.815 116.627 0.838 174.941 0.838zM200.025 274.758c6.658 0.385 14.446 0.605 22.286 0.605 12.109 0 24.095-0.524 35.937-1.55l-1.539 0.107c8.237-1.163 15.218-11.169 22.804-17.173-6.515-7.12-12.752-20.058-19.546-20.431q-62.828-2.932-125.656 0c-7.214 0.326-13.962 12.612-20.803 19.407 7.214 6.376 13.962 17.219 21.734 18.104 11.927 0.927 25.828 1.455 39.853 1.455 8.784 0 17.52-0.207 26.203-0.617l-1.227 0.046z" />
<glyph unicode="&#xe938;" glyph-name="VILT" horiz-adv-x="1152" d="M213.632-64c-37.724 2.054-67.535 33.144-67.535 71.197 0 1.183 0.029 2.359 0.086 3.528l-0.006-0.165v159.104h-44.8c-56.626 3.117-101.363 49.794-101.363 106.92 0 1.742 0.042 3.474 0.124 5.195l-0.009-0.243v566.976c-0.073 1.477-0.115 3.208-0.115 4.949 0 57.113 44.744 103.776 101.090 106.847l0.273 0.012h949.44c56.574-3.218 101.232-49.88 101.232-106.973 0-1.723-0.041-3.437-0.121-5.14l0.009 0.241v-566.72c0.073-1.478 0.115-3.21 0.115-4.952 0-57.126-44.737-103.803-101.087-106.908l-0.275-0.012h-513.024v-159.040c0.049-0.985 0.076-2.139 0.076-3.299 0-38.087-29.839-69.205-67.414-71.253l-0.182-0.008zM213.632 226.752v-216.256h256.512l-0.512 216.256c0 79.424-48 161.6-128 161.6s-127.808-82.176-127.808-161.6zM501.632 565.056c0.007-0.585 0.011-1.276 0.011-1.967 0-52.591-22.102-100.019-57.524-133.503l-0.087-0.081c16.15-12.017 30.035-25.841 41.737-41.399l0.375-0.521c29.312-39.801 48.037-89.025 51.166-142.439l0.034-0.729h513.536c18.861 1.028 33.766 16.572 33.766 35.598 0 0.58-0.014 1.157-0.041 1.731l0.003-0.081-1.088 566.72c0.026 0.513 0.041 1.113 0.041 1.717 0 19.004-14.871 34.536-33.612 35.591l-0.093 0.004h-949.504c-18.834-1.059-33.705-16.591-33.705-35.595 0-0.604 0.015-1.204 0.045-1.801l-0.003 0.084v-566.72c-0.026-0.512-0.041-1.111-0.041-1.714 0-18.992 14.878-34.508 33.614-35.53l0.091-0.004h45.568c3.213 54.137 21.93 103.35 51.726 143.918l-0.526-0.75c12.041 16.094 25.907 29.919 41.513 41.539l0.535 0.381c-35.51 33.627-57.609 81.107-57.609 133.748 0 0.634 0.003 1.268 0.010 1.9l-0.001-0.097c-0.116 2.342-0.182 5.085-0.182 7.844 0 90.226 70.723 163.935 159.757 168.714l0.425 0.018c89.517-4.73 160.31-78.467 160.31-168.738 0-2.757-0.066-5.498-0.197-8.222l0.015 0.384zM249.92 565.056c-0.066-1.345-0.104-2.921-0.104-4.505 0-51.946 40.608-94.407 91.81-97.371l0.262-0.012c51.647 2.846 92.45 45.421 92.45 97.525 0 1.535-0.035 3.061-0.105 4.578l0.008-0.215c0.064 1.325 0.101 2.877 0.101 4.438 0 52.002-40.67 94.506-91.937 97.438l-0.259 0.012c-51.407-3.042-91.944-45.475-91.944-97.376 0-1.587 0.038-3.165 0.113-4.734l-0.008 0.222zM790.016 370.432c0 0 0 0 0 0-19.418 0-35.164 15.723-35.2 35.132v0.004c0.036 19.413 15.782 35.136 35.2 35.136 0 0 0 0 0 0h187.392c0.011 0 0.025 0 0.038 0 9.677 0 18.441-3.912 24.795-10.241l-0.001 0.001c6.329-6.382 10.24-15.171 10.24-24.873 0-0.008 0-0.016 0-0.024v0.001c-0.012-9.687-3.92-18.459-10.242-24.834l0.002 0.002c-6.361-6.349-15.135-10.282-24.828-10.304h-0.004zM612.672 405.568c0 0 0 0 0 0 0 19.383 15.694 35.099 35.068 35.136h0.004c0 0 0 0 0 0 19.418 0 35.164-15.723 35.2-35.132v-0.004c-0.036-19.413-15.782-35.136-35.2-35.136 0 0 0 0 0 0v0c-19.35 0.073-35.008 15.776-35.008 35.136 0 0 0 0 0 0v0zM790.016 530.176c0 0 0 0 0 0-19.418 0-35.164 15.723-35.2 35.132v0.004c0.036 19.413 15.782 35.136 35.2 35.136 0 0 0 0 0 0h187.392c9.7-0.007 18.478-3.944 24.832-10.304v0c6.328-6.363 10.24-15.135 10.24-24.82 0-0.004 0-0.008 0-0.013v0.001c0-0.007 0-0.015 0-0.023 0-9.702-3.911-18.491-10.242-24.875l0.002 0.002c-6.363-6.328-15.135-10.24-24.82-10.24-0.004 0-0.008 0-0.013 0h0.001zM612.672 565.44c0 0 0 0 0 0 0 19.383 15.694 35.099 35.068 35.136h0.004c0 0 0 0 0 0 19.418 0 35.164-15.723 35.2-35.132v-0.004c-0.036-19.413-15.782-35.136-35.2-35.136 0 0 0 0 0 0v0c-19.328 0.073-34.972 15.739-35.008 35.069v0.003zM612.672 725.44c0 0 0 0 0 0 0 19.383 15.694 35.099 35.068 35.136h0.004c0 0 0 0 0 0 19.418 0 35.164-15.723 35.2-35.132v-0.004c-0.036-19.413-15.782-35.136-35.2-35.136 0 0 0 0 0 0v0c-19.238 0.072-34.827 15.593-35.008 34.799v0.017zM790.016 690.368c0 0 0 0 0 0-19.418 0-35.164 15.723-35.2 35.132v0.004c0.036 19.413 15.782 35.136 35.2 35.136 0 0 0 0 0 0h187.392c0.011 0 0.025 0 0.038 0 9.677 0 18.441-3.912 24.795-10.241l-0.001 0.001c6.329-6.382 10.24-15.171 10.24-24.873 0-0.008 0-0.016 0-0.024v0.001c0-0.004 0-0.008 0-0.012 0-9.685-3.912-18.457-10.242-24.822l0.002 0.002c-6.361-6.349-15.135-10.282-24.828-10.304h-0.004z" />
<glyph unicode="&#xe939;" glyph-name="Search" d="M1017.752 2.368l-297.557 297.614c56.293 68.841 90.404 157.729 90.404 254.585 0 0.047 0 0.094 0 0.141v-0.007c-0.416 223.674-181.626 404.884-405.26 405.299h-0.039c-223.674-0.416-404.884-181.626-405.299-405.26v-0.039c0.416-223.674 181.626-404.884 405.26-405.299h0.039c0.061 0 0.133 0 0.205 0 96.842 0 185.711 34.135 255.231 91.030l-0.717-0.569 297.614-297.614c3.861-3.861 9.195-6.249 15.086-6.249s11.225 2.388 15.086 6.249l30.172 30.172c3.727 3.837 6.026 9.080 6.026 14.859 0 5.892-2.389 11.227-6.251 15.088v0zM405.074 234.571c-176.726 0.192-319.938 143.405-320.13 320.112v0.018c0.192 176.726 143.405 319.938 320.112 320.13h0.018c176.726-0.192 319.938-143.405 320.13-320.112v-0.018c-0.192-176.726-143.405-319.938-320.112-320.13h-0.018z" />
<glyph unicode="&#xe93a;" glyph-name="Assignments" horiz-adv-x="747" d="M740.605 764.318l-189.705 189.705c-3.691 3.692-8.789 5.975-14.421 5.977h-516.080c-11.266 0-20.398-9.133-20.398-20.398v0-983.203c0-11.266 9.133-20.398 20.398-20.398v0h705.785c11.266 0 20.398 9.133 20.398 20.398v0 793.498c-0.001 5.632-2.285 10.731-5.977 14.422v0zM556.876 890.36l120.045-120.065h-120.045zM705.785-23.203h-664.988v942.406h475.283v-169.307c0-11.266 9.133-20.398 20.398-20.398v0h169.307zM143.727 605.068h337.594c11.266 0 20.398 9.133 20.398 20.398s-9.133 20.398-20.398 20.398v0h-337.594c-11.266 0-20.398-9.133-20.398-20.398s9.133-20.398 20.398-20.398v0zM602.691 511.235h-458.964c-11.266 0-20.398-9.133-20.398-20.398s9.133-20.398 20.398-20.398v0h458.964c11.266 0 20.398 9.133 20.398 20.398s-9.133 20.398-20.398 20.398v0zM602.691 376.606h-458.964c-11.266 0-20.398-9.133-20.398-20.398s9.133-20.398 20.398-20.398v0h458.964c11.266 0 20.398 9.133 20.398 20.398s-9.133 20.398-20.398 20.398v0zM602.691 241.976h-458.964c-11.266 0-20.398-9.133-20.398-20.398s9.133-20.398 20.398-20.398v0h458.964c11.266 0 20.398 9.133 20.398 20.398s-9.133 20.398-20.398 20.398v0zM557.815 605.068h44.876c11.266 0 20.398 9.133 20.398 20.398s-9.133 20.398-20.398 20.398v0h-44.876c-11.266 0-20.398-9.133-20.398-20.398s9.133-20.398 20.398-20.398v0z" />
<glyph unicode="&#xe93b;" glyph-name="JoinIcon" horiz-adv-x="1016" d="M633.848 858.258c-5.166 2.427-8.678 7.587-8.678 13.567 0 8.253 6.69 14.943 14.943 14.943 2.599 0 5.043-0.663 7.172-1.83l64.104-32.043h244.477c32.944-0.065 59.633-26.754 59.698-59.691v-58.234c0-8.279-6.712-14.991-14.991-14.991s-14.991 6.712-14.991 14.991v0 58.209c-0.054 16.389-13.326 29.661-29.71 29.715h-184.441l40.765-20.402c4.942-2.501 8.271-7.541 8.271-13.359s-3.329-10.858-8.186-13.32l-0.085-0.039-54.545-27.253v-86.016c0.16 0.006 0.347 0.010 0.535 0.010 8.285 0 15.001-6.716 15.001-15.001s-6.716-15.001-15.001-15.001c-0.188 0-0.375 0.003-0.562 0.010l0.027-0.001h-30.116c-0.16-0.006-0.347-0.010-0.535-0.010-8.285 0-15.001 6.716-15.001 15.001s6.716 15.001 15.001 15.001c0.188 0 0.375-0.003 0.562-0.010l-0.027 0.001v70.977l-49.621-24.81v-148.652c-0.205-41.878-34.099-75.772-75.957-75.977h-216.824c-41.909 0.13-75.847 34.068-75.977 75.964v148.665l-134.262 67.122c-4.893 2.538-8.178 7.565-8.178 13.359s3.285 10.821 8.095 13.32l0.083 0.039 40.765 20.344h-155.962c-16.389-0.054-29.661-13.326-29.715-29.71v-361.626c0-8.279-6.712-14.991-14.991-14.991s-14.991 6.712-14.991 14.991v0 361.544c0.054 32.952 26.747 59.652 59.691 59.717h215.971l211.232 105.616c1.943 1.008 4.242 1.599 6.68 1.599s4.736-0.591 6.762-1.638l-0.082 0.039 86.187-43.036c5.382-2.346 9.075-7.62 9.075-13.756 0-8.264-6.699-14.963-14.963-14.963-2.751 0-5.328 0.742-7.543 2.038l0.071-0.038-79.546 39.811-206.613-103.307c-0.712-0.463-1.53-0.881-2.391-1.21l-0.090-0.030-69.564-34.773 278.639-139.32 278.639 139.32q-69.106 34.448-138.308 69.125zM985.601 259.432h-955.619v-20.135c0.097-16.357 13.352-29.585 29.71-29.639h896.251c16.363 0.054 29.618 13.282 29.715 29.63v20.144zM29.925 289.433h955.676v377.499c0 8.279 6.712 14.991 14.991 14.991s14.991-6.712 14.991-14.991v0-427.731c-0.097-32.919-26.774-59.575-59.691-59.64h-341.626l16.432-131.877h46.319c53.363-0.108 96.589-43.355 96.665-96.715v-0.007c0-0.006 0-0.012 0-0.019 0-8.253-6.69-14.943-14.943-14.943-0.007 0-0.013 0-0.020 0h-501.779c-0.011 0-0.025 0-0.038 0-8.267 0-14.971 6.697-14.982 14.962v0.001c0.13 53.366 43.356 96.592 96.71 96.722h46.274l16.489 131.877h-341.62c-32.924 0.065-59.6 26.721-59.698 59.631v124.347c0 8.279 6.712 14.991 14.991 14.991s14.991-6.712 14.991-14.991v0-74.202zM324.119 382.625c-8.285 0-15.001 6.716-15.001 15.001s6.716 15.001 15.001 15.001h154.397v9.924c0 8.279 6.712 14.991 14.991 14.991s14.991-6.712 14.991-14.991v0-9.924h389.675c8.285 0 15.001-6.716 15.001-15.001s-6.716-15.001-15.001-15.001h-389.618v-9.905c0-8.279-6.712-14.991-14.991-14.991s-14.991 6.712-14.991 14.991v0 9.905zM185.791 397.606l-53.438 30.841v-61.625zM124.892 467.343l98.192-56.701c4.613-2.594 7.678-7.457 7.678-13.036 0-5.51-2.989-10.321-7.434-12.901l-0.071-0.038-97.447-56.243c-2.317-1.59-5.182-2.539-8.268-2.539-0.045 0-0.091 0-0.136 0.001h0.007c-0.011 0-0.025 0-0.038 0-8.267 0-14.971 6.697-14.982 14.962v113.556c0.007 2.766 0.787 5.348 2.135 7.544l-0.036-0.063c2.629 4.472 7.416 7.426 12.893 7.426 2.79 0 5.401-0.767 7.634-2.101l-0.068 0.038zM647.97 693.613l-147.717-73.916c-1.946-0.995-4.245-1.578-6.68-1.578s-4.734 0.583-6.764 1.617l0.085-0.039-147.698 73.82v-133.594c0.097-25.351 20.639-45.873 45.988-45.937h216.925c25.326 0.129 45.825 20.614 45.975 45.923v133.608zM541.725 17.798c-8.279 0-14.991 6.712-14.991 14.991s6.712 14.991 14.991 14.991v0h58.686l-16.451 131.877h-152.412l-16.508-131.877h58.743c0.16 0.006 0.347 0.010 0.535 0.010 8.285 0 15.001-6.716 15.001-15.001s-6.716-15.001-15.001-15.001c-0.188 0-0.375 0.003-0.562 0.010l0.027-0.001h-135.216c-31.435-0.168-57.734-21.956-64.796-51.244l-0.093-0.457h468.305c-7.192 29.722-33.469 51.489-64.865 51.701h-0.024z" />
<glyph unicode="&#xe93c;" glyph-name="Filter" horiz-adv-x="1118" d="M335.040 29.615h-291.423c-24.137 0-43.705 19.567-43.705 43.705s19.567 43.705 43.705 43.705v0h291.423c18.81 54.902 69.976 93.665 130.196 93.665s111.386-38.763 129.908-92.699l0.288-0.966h478.653c24.137 0 43.705-19.567 43.705-43.705s-19.567-43.705-43.705-43.705v0h-478.828c-18.81-54.902-69.976-93.665-130.196-93.665s-111.386 38.763-129.908 92.699l-0.288 0.966zM429.879 108.284c-9.053-9.062-14.652-21.576-14.652-35.399 0-27.661 22.424-50.086 50.086-50.086s50.086 22.424 50.086 50.086c0 27.661-22.424 50.086-50.086 50.086-0.165 0-0.33-0.001-0.494-0.002h0.025c-13.622-0.032-25.962-5.497-34.971-14.343l0.008 0.007zM709.589 403.815h-665.971c-24.137 0-43.705 19.567-43.705 43.705s19.567 43.705 43.705 43.705v0h665.971c18.772 54.97 69.972 93.796 130.24 93.796s111.468-38.826 129.952-92.829l0.287-0.966h103.93c24.137 0 43.705-19.567 43.705-43.705s-19.567-43.705-43.705-43.705v0h-103.93c-18.772-54.97-69.972-93.796-130.24-93.796s-111.468 38.826-129.952 92.829l-0.287 0.966zM789.743 447.519c0.050-27.576 22.416-49.911 49.998-49.911 27.613 0 49.998 22.385 49.998 49.998s-22.385 49.998-49.998 49.998c-0.031 0-0.061 0-0.092 0h0.005c-27.446-0.099-49.675-22.297-49.823-49.722v-0.014zM147.722 778.888h-104.104c-24.137 0-43.705 19.567-43.705 43.705s19.567 43.705 43.705 43.705v0h104.104c18.81 54.902 69.976 93.665 130.196 93.665s111.386-38.763 129.908-92.699l0.288-0.966h665.884c24.137 0 43.705-19.567 43.705-43.705s-19.567-43.705-43.705-43.705v0h-665.884c-18.81-54.902-69.976-93.665-130.196-93.665s-111.386 38.763-129.908 92.699l-0.288 0.966zM227.876 822.593c0-0.026 0-0.057 0-0.087 0-27.613 22.385-49.998 49.998-49.998s49.998 22.385 49.998 49.998c0 27.613-22.385 49.998-49.998 49.998v0c-27.428-0.099-49.637-22.307-49.736-49.726v-0.010z" />
<glyph unicode="&#xe93d;" glyph-name="Timelapse" horiz-adv-x="1031" d="M424.049-63.341c-78.179 14.258-147.488 44.423-207.219 87.127l1.549-1.053c-24.465 17.426-45.97 35.567-65.9 55.296l0.043-0.043-0.461 0.593c-73.654 72.928-125.237 168.024-143.911 274.45l-0.446 3.068c-1.778 10.471-3.227 21.008-4.412 31.348-0.218 0.475-0.346 1.031-0.346 1.616 0 0.127 0.006 0.252 0.018 0.375l-0.001-0.016c-1.12 10.405-1.91 21.008-2.371 31.348v1.054c-0.347 7.043-0.545 15.295-0.545 23.594 0 103.364 30.695 199.558 83.467 279.966l-1.194-1.938c0.371 0.771 0.744 1.418 1.157 2.036l-0.038-0.060c3.556 5.4 7.244 10.932 10.998 16.267 1.976 3.029 4.347 6.586 6.586 9.615l1.778 2.173c69.202 92.165 167.002 159.549 280.081 189.202l3.562 0.794 1.515 0.395c13.171 3.293 26.343 6.125 39.514 8.364 26.769 4.962 57.571 7.8 89.035 7.8 106.84 0 206.037-32.722 288.116-88.692l-1.77 1.139 32.467 46.956c9.022 13.171 19.757 11.13 24.103-4.083l37.736-136.125c0.727-2.15 1.147-4.627 1.147-7.201 0-12.442-9.802-22.594-22.104-23.157l-0.051-0.002-140.735-12.579c-15.806-1.515-21.337 7.903-12.315 21.008l32.401 46.824c-67.497 45.474-150.643 72.586-240.122 72.586-91.874 0-177.073-28.583-247.188-77.342l1.422 0.936-1.449-1.054c-112.664-79.223-185.381-208.657-185.381-355.075 0-145.598 71.905-274.402 182.141-352.838l1.33-0.899c11.562-8.244 25.050-16.789 38.99-24.626l2.302-1.19c7.705-4.149 15.608-8.1 23.577-11.92l1.185-0.659c30.7-14.763 66.36-26.485 103.712-33.379l2.646-0.406c20.105-3.11 35.316-20.292 35.316-41.028 0-22.914-18.575-41.489-41.489-41.489-2.967 0-5.861 0.311-8.652 0.903l0.271-0.048zM560.569-29.821c-0.44 2.269-0.691 4.879-0.691 7.548 0 20.143 14.332 36.938 33.354 40.746l0.265 0.044c8.561 1.581 17.254 3.425 25.75 5.598v0c2.673 0.613 5.743 0.965 8.895 0.965 22.914 0 41.489-18.575 41.489-41.489 0-18.93-12.678-34.899-30.006-39.88l-0.293-0.072c-10.142-2.437-20.481-4.676-30.755-6.586-2.269-0.44-4.879-0.691-7.548-0.691-20.143 0-36.938 14.332-40.746 33.354l-0.044 0.265zM716.714 12.788c-3.505 5.952-5.575 13.112-5.575 20.756 0 15.256 8.247 28.586 20.527 35.774l0.196 0.106c7.639 4.347 15.081 9.022 22.457 13.896h-0.395c6.793 5.017 15.332 8.029 24.574 8.029 22.987 0 41.621-18.634 41.621-41.621 0-15.033-7.97-28.204-19.914-35.519l-0.182-0.104c-8.759-5.73-17.715-11.327-26.738-16.53-5.941-3.48-13.082-5.535-20.704-5.535-15.277 0-28.626 8.257-35.827 20.552l-0.106 0.196zM852.774 102.682c-1.163 0.775-2.173 1.554-3.125 2.397l0.030-0.026c-8.923 7.644-14.541 18.924-14.541 31.516 0 10.263 3.732 19.654 9.913 26.89l-0.048-0.057c5.598 6.586 11.261 13.632 16.53 20.613 7.651 10.099 19.652 16.556 33.162 16.556 20.809 0 38.040-15.319 41.030-35.295l0.028-0.228c0.265-1.766 0.417-3.803 0.417-5.876 0-9.376-3.1-18.027-8.331-24.985l0.077 0.107q-9.681-12.644-19.757-24.564c-7.634-8.963-18.93-14.61-31.544-14.61-8.934 0-17.206 2.833-23.968 7.649l0.127-0.086zM943.787 236.7c-3.5 1.389-6.515 3.026-9.3 4.97l0.146-0.097c-10.657 7.61-17.522 19.937-17.522 33.867 0 5.296 0.992 10.361 2.801 15.018l-0.097-0.283c3.161 8.232 6.059 16.596 8.693 24.96 5.238 17.293 21.034 29.665 39.72 29.665 22.878 0 41.424-18.546 41.424-41.424 0-4.675-0.774-9.169-2.202-13.361l0.086 0.292c-3.095-9.813-6.586-19.757-10.274-29.635-6.124-15.753-21.167-26.715-38.77-26.715-5.335 0-10.434 1.007-15.119 2.841l0.282-0.097zM777.5 249.871c-5.63 0.012-10.934 1.398-15.596 3.842l0.186-0.089-305.705 158.055v334.155c0 18.531 15.023 33.554 33.554 33.554s33.554-15.023 33.554-33.554v0-293.39l269.418-139.352c10.912-5.678 18.235-16.9 18.235-29.833 0-18.511-15.004-33.517-33.514-33.521v0zM967.429 397.192c-11.964 7.42-19.813 20.482-19.813 35.377 0 0.76 0.020 1.516 0.061 2.266l-0.004-0.105c0.395 8.627 0.329 17.518 0 26.343 0.006 22.909 18.579 41.479 41.489 41.479 21.751 0 39.593-16.738 41.348-38.037l0.010-0.149c0.395-10.471 0.527-21.074 0-31.479 0.002-0.141 0.003-0.309 0.003-0.476 0-22.914-18.575-41.489-41.489-41.489-8.125 0-15.705 2.336-22.104 6.372l0.171-0.101zM947.146 555.971c-9.849 4.971-17.306 13.478-20.791 23.812l-0.085 0.292c-2.766 8.43-5.795 16.662-8.759 25.091-2.24 4.938-3.546 10.708-3.546 16.783 0 22.914 18.575 41.489 41.489 41.489 17.879 0 33.116-11.309 38.95-27.164l0.093-0.288c4.215-9.813 7.508-19.757 10.8-29.569 1.345-3.919 2.122-8.435 2.122-13.132 0-23.023-18.664-41.687-41.687-41.687-6.773 0-13.17 1.615-18.824 4.482l0.238-0.109z" />
<glyph unicode="&#xe93e;" glyph-name="Timer" d="M1024 448c0-282.77-229.23-512-512-512s-512 229.23-512 512c0 282.77 229.23 512 512 512s512-229.23 512-512zM678.775 648.155v70.285h33.197c8.294 0 15.018 6.724 15.018 15.018s-6.724 15.018-15.018 15.018v0h-399.945c-8.294 0-15.018-6.724-15.018-15.018s6.724-15.018 15.018-15.018v0h33.197v-70.285c0.231-44.836 18.809-85.289 48.603-114.269l0.037-0.036 96.065-92.903-91.869-86.397c-30.768-29.117-49.917-70.239-49.917-115.835 0-0.082 0-0.164 0-0.246v0.013-60.8h-36.48c-8.294 0-15.018-6.724-15.018-15.018s6.724-15.018 15.018-15.018v0h399.945c8.294 0 15.018 6.724 15.018 15.018s-6.724 15.018-15.018 15.018v0h-31.677v59.524c-0.111 46.435-20.028 88.196-51.746 117.3l-0.117 0.106-94.484 86.337 96.125 92.721c30.036 28.997 48.775 69.525 49.066 114.433v0.054zM650.199 237.387v-59.828h-271.96v60.8c0 0.014 0 0.031 0 0.048 0 37.032 15.558 70.429 40.493 94.014l0.061 0.057 93.389 87.735 95.943-87.674c25.88-23.694 42.053-57.624 42.074-95.331v-0.004zM512 461.68l-97.281 93.754c-24.253 23.521-39.383 56.329-39.642 92.672v70.334h273.602v-70.285c-0.229-36.397-15.367-69.214-39.607-92.687l-0.035-0.034z" />
</font>
</defs>
</svg>
