<?xml version="1.0" encoding="UTF-8" standalone="no"?>
<!DOCTYPE svg PUBLIC "-//W3C//DTD SVG 1.1//EN"
 "http://www.w3.org/Graphics/SVG/1.1/DTD/svg11.dtd">
<!-- Generated by graphviz version 2.47.3 (20210619.1520)
 -->
<!-- Title: dependencies Pages: 1 -->
<svg width="214pt" height="174pt"
 viewBox="0.00 0.00 214.00 173.80" xmlns="http://www.w3.org/2000/svg" xmlns:xlink="http://www.w3.org/1999/xlink">
<g id="graph0" class="graph" transform="scale(1 1) rotate(0) translate(4 169.8)">
<title>dependencies</title>
<polygon fill="white" stroke="transparent" points="-4,4 -4,-169.8 210,-169.8 210,4 -4,4"/>
<text text-anchor="middle" x="103" y="-8.2" font-family="sans-serif" font-size="14.00">dependencies</text>
<g id="clust1" class="cluster">
<title>cluster_PasswordModule</title>
<polygon fill="none" stroke="black" stroke-dasharray="1,5" points="8,-32.8 8,-157.8 198,-157.8 198,-32.8 8,-32.8"/>
</g>
<g id="clust3" class="cluster">
<title>cluster_PasswordModule_imports</title>
<polygon fill="none" stroke="black" points="16,-40.8 16,-92.8 190,-92.8 190,-40.8 16,-40.8"/>
</g>
<!-- PasswordRoutingModule -->
<g id="node1" class="node">
<title>PasswordRoutingModule</title>
<polygon fill="#8dd3c7" stroke="black" points="182.32,-84.8 179.32,-88.8 158.32,-88.8 155.32,-84.8 23.68,-84.8 23.68,-48.8 182.32,-48.8 182.32,-84.8"/>
<text text-anchor="middle" x="103" y="-62.6" font-family="Times,serif" font-size="14.00">PasswordRoutingModule</text>
</g>
<!-- PasswordModule -->
<g id="node2" class="node">
<title>PasswordModule</title>
<polygon fill="#8dd3c7" stroke="black" points="159.7,-149.8 156.7,-153.8 135.7,-153.8 132.7,-149.8 46.3,-149.8 46.3,-113.8 159.7,-113.8 159.7,-149.8"/>
<text text-anchor="middle" x="103" y="-127.6" font-family="Times,serif" font-size="14.00">PasswordModule</text>
</g>
<!-- PasswordRoutingModule&#45;&gt;PasswordModule -->
<g id="edge1" class="edge">
<title>PasswordRoutingModule&#45;&gt;PasswordModule</title>
<path fill="none" stroke="black" d="M103,-84.91C103,-84.91 103,-103.79 103,-103.79"/>
<polygon fill="black" stroke="black" points="99.5,-103.79 103,-113.79 106.5,-103.79 99.5,-103.79"/>
</g>
</g>
</svg>
