<?xml version="1.0" encoding="UTF-8" standalone="no"?>
<!DOCTYPE svg PUBLIC "-//W3C//DTD SVG 1.1//EN"
 "http://www.w3.org/Graphics/SVG/1.1/DTD/svg11.dtd">
<!-- Generated by graphviz version 2.47.3 (20210619.1520)
 -->
<!-- Title: dependencies Pages: 1 -->
<svg width="2930pt" height="174pt"
 viewBox="0.00 0.00 2930.00 173.80" xmlns="http://www.w3.org/2000/svg" xmlns:xlink="http://www.w3.org/1999/xlink">
<g id="graph0" class="graph" transform="scale(1 1) rotate(0) translate(4 169.8)">
<title>dependencies</title>
<polygon fill="white" stroke="transparent" points="-4,4 -4,-169.8 2926,-169.8 2926,4 -4,4"/>
<text text-anchor="middle" x="1461" y="-8.2" font-family="sans-serif" font-size="14.00">dependencies</text>
<g id="clust1" class="cluster">
<title>cluster_MycoursesModule</title>
<polygon fill="none" stroke="black" stroke-dasharray="1,5" points="8,-32.8 8,-157.8 2914,-157.8 2914,-32.8 8,-32.8"/>
</g>
<g id="clust2" class="cluster">
<title>cluster_MycoursesModule_declarations</title>
<polygon fill="none" stroke="black" points="126,-40.8 126,-92.8 2906,-92.8 2906,-40.8 126,-40.8"/>
</g>
<g id="clust18" class="cluster">
<title>cluster_MycoursesModule_imports</title>
<polygon fill="none" stroke="black" points="16,-40.8 16,-92.8 118,-92.8 118,-40.8 16,-40.8"/>
</g>
<!-- ActivitiesComponent -->
<g id="node1" class="node">
<title>ActivitiesComponent</title>
<polygon fill="#ffffb3" stroke="black" points="2897.77,-84.8 2762.23,-84.8 2762.23,-48.8 2897.77,-48.8 2897.77,-84.8"/>
<text text-anchor="middle" x="2830" y="-62.6" font-family="Times,serif" font-size="14.00">ActivitiesComponent</text>
</g>
<!-- MycoursesModule -->
<g id="node16" class="node">
<title>MycoursesModule</title>
<polygon fill="#8dd3c7" stroke="black" points="1626.47,-149.8 1623.47,-153.8 1602.47,-153.8 1599.47,-149.8 1505.53,-149.8 1505.53,-113.8 1626.47,-113.8 1626.47,-149.8"/>
<text text-anchor="middle" x="1566" y="-127.6" font-family="Times,serif" font-size="14.00">MycoursesModule</text>
</g>
<!-- ActivitiesComponent&#45;&gt;MycoursesModule -->
<g id="edge1" class="edge">
<title>ActivitiesComponent&#45;&gt;MycoursesModule</title>
<path fill="none" stroke="black" d="M2830,-85.12C2830,-108.46 2830,-145.8 2830,-145.8 2830,-145.8 1636.54,-145.8 1636.54,-145.8"/>
<polygon fill="black" stroke="black" points="1636.54,-142.3 1626.54,-145.8 1636.54,-149.3 1636.54,-142.3"/>
</g>
<!-- AskQuestionsComponent -->
<g id="node2" class="node">
<title>AskQuestionsComponent</title>
<polygon fill="#ffffb3" stroke="black" points="2743.88,-84.8 2584.12,-84.8 2584.12,-48.8 2743.88,-48.8 2743.88,-84.8"/>
<text text-anchor="middle" x="2664" y="-62.6" font-family="Times,serif" font-size="14.00">AskQuestionsComponent</text>
</g>
<!-- AskQuestionsComponent&#45;&gt;MycoursesModule -->
<g id="edge2" class="edge">
<title>AskQuestionsComponent&#45;&gt;MycoursesModule</title>
<path fill="none" stroke="black" d="M2664,-84.96C2664,-107.15 2664,-141.8 2664,-141.8 2664,-141.8 1636.6,-141.8 1636.6,-141.8"/>
<polygon fill="black" stroke="black" points="1636.6,-138.3 1626.6,-141.8 1636.6,-145.3 1636.6,-138.3"/>
</g>
<!-- CalendarActivityComponent -->
<g id="node3" class="node">
<title>CalendarActivityComponent</title>
<polygon fill="#ffffb3" stroke="black" points="2565.75,-84.8 2388.25,-84.8 2388.25,-48.8 2565.75,-48.8 2565.75,-84.8"/>
<text text-anchor="middle" x="2477" y="-62.6" font-family="Times,serif" font-size="14.00">CalendarActivityComponent</text>
</g>
<!-- CalendarActivityComponent&#45;&gt;MycoursesModule -->
<g id="edge3" class="edge">
<title>CalendarActivityComponent&#45;&gt;MycoursesModule</title>
<path fill="none" stroke="black" d="M2477,-85.08C2477,-106.12 2477,-137.8 2477,-137.8 2477,-137.8 1636.48,-137.8 1636.48,-137.8"/>
<polygon fill="black" stroke="black" points="1636.48,-134.3 1626.48,-137.8 1636.48,-141.3 1636.48,-134.3"/>
</g>
<!-- CalendarFilterComponent -->
<g id="node4" class="node">
<title>CalendarFilterComponent</title>
<polygon fill="#ffffb3" stroke="black" points="2370.19,-84.8 2207.81,-84.8 2207.81,-48.8 2370.19,-48.8 2370.19,-84.8"/>
<text text-anchor="middle" x="2289" y="-62.6" font-family="Times,serif" font-size="14.00">CalendarFilterComponent</text>
</g>
<!-- CalendarFilterComponent&#45;&gt;MycoursesModule -->
<g id="edge4" class="edge">
<title>CalendarFilterComponent&#45;&gt;MycoursesModule</title>
<path fill="none" stroke="black" d="M2289,-85.11C2289,-104.95 2289,-133.8 2289,-133.8 2289,-133.8 1636.71,-133.8 1636.71,-133.8"/>
<polygon fill="black" stroke="black" points="1636.71,-130.3 1626.71,-133.8 1636.71,-137.3 1636.71,-130.3"/>
</g>
<!-- CourseGalleryComponent -->
<g id="node5" class="node">
<title>CourseGalleryComponent</title>
<polygon fill="#ffffb3" stroke="black" points="2189.47,-84.8 2026.53,-84.8 2026.53,-48.8 2189.47,-48.8 2189.47,-84.8"/>
<text text-anchor="middle" x="2108" y="-62.6" font-family="Times,serif" font-size="14.00">CourseGalleryComponent</text>
</g>
<!-- CourseGalleryComponent&#45;&gt;MycoursesModule -->
<g id="edge5" class="edge">
<title>CourseGalleryComponent&#45;&gt;MycoursesModule</title>
<path fill="none" stroke="black" d="M2080.84,-84.82C2080.84,-102.17 2080.84,-125.8 2080.84,-125.8 2080.84,-125.8 1636.57,-125.8 1636.57,-125.8"/>
<polygon fill="black" stroke="black" points="1636.57,-122.3 1626.57,-125.8 1636.57,-129.3 1636.57,-122.3"/>
</g>
<!-- CourseGalleryComponent&#45;&gt;MycoursesModule -->
<g id="edge6" class="edge">
<title>CourseGalleryComponent&#45;&gt;MycoursesModule</title>
<path fill="none" stroke="black" d="M2135.16,-85.02C2135.16,-103.63 2135.16,-129.8 2135.16,-129.8 2135.16,-129.8 1636.64,-129.8 1636.64,-129.8"/>
<polygon fill="black" stroke="black" points="1636.64,-126.3 1626.64,-129.8 1636.64,-133.3 1636.64,-126.3"/>
</g>
<!-- CourseReportComponent -->
<g id="node6" class="node">
<title>CourseReportComponent</title>
<polygon fill="#ffffb3" stroke="black" points="2008.59,-84.8 1849.41,-84.8 1849.41,-48.8 2008.59,-48.8 2008.59,-84.8"/>
<text text-anchor="middle" x="1929" y="-62.6" font-family="Times,serif" font-size="14.00">CourseReportComponent</text>
</g>
<!-- CourseReportComponent&#45;&gt;MycoursesModule -->
<g id="edge7" class="edge">
<title>CourseReportComponent&#45;&gt;MycoursesModule</title>
<path fill="none" stroke="black" d="M1929,-84.81C1929,-100.85 1929,-121.8 1929,-121.8 1929,-121.8 1636.76,-121.8 1636.76,-121.8"/>
<polygon fill="black" stroke="black" points="1636.76,-118.3 1626.76,-121.8 1636.76,-125.3 1636.76,-118.3"/>
</g>
<!-- CoursedetailsComponent -->
<g id="node7" class="node">
<title>CoursedetailsComponent</title>
<polygon fill="#ffffb3" stroke="black" points="1831.54,-84.8 1674.46,-84.8 1674.46,-48.8 1831.54,-48.8 1831.54,-84.8"/>
<text text-anchor="middle" x="1753" y="-62.6" font-family="Times,serif" font-size="14.00">CoursedetailsComponent</text>
</g>
<!-- CoursedetailsComponent&#45;&gt;MycoursesModule -->
<g id="edge8" class="edge">
<title>CoursedetailsComponent&#45;&gt;MycoursesModule</title>
<path fill="none" stroke="black" d="M1753,-84.92C1753,-99.58 1753,-117.8 1753,-117.8 1753,-117.8 1636.71,-117.8 1636.71,-117.8"/>
<polygon fill="black" stroke="black" points="1636.71,-114.3 1626.71,-117.8 1636.71,-121.3 1636.71,-114.3"/>
</g>
<!-- DiscussionForumComponent -->
<g id="node8" class="node">
<title>DiscussionForumComponent</title>
<polygon fill="#ffffb3" stroke="black" points="1656.1,-84.8 1475.9,-84.8 1475.9,-48.8 1656.1,-48.8 1656.1,-84.8"/>
<text text-anchor="middle" x="1566" y="-62.6" font-family="Times,serif" font-size="14.00">DiscussionForumComponent</text>
</g>
<!-- DiscussionForumComponent&#45;&gt;MycoursesModule -->
<g id="edge9" class="edge">
<title>DiscussionForumComponent&#45;&gt;MycoursesModule</title>
<path fill="none" stroke="black" d="M1566,-84.91C1566,-84.91 1566,-103.79 1566,-103.79"/>
<polygon fill="black" stroke="black" points="1562.5,-103.79 1566,-113.79 1569.5,-103.79 1562.5,-103.79"/>
</g>
<!-- InstructorLedComponent -->
<g id="node9" class="node">
<title>InstructorLedComponent</title>
<polygon fill="#ffffb3" stroke="black" points="1457.52,-84.8 1300.48,-84.8 1300.48,-48.8 1457.52,-48.8 1457.52,-84.8"/>
<text text-anchor="middle" x="1379" y="-62.6" font-family="Times,serif" font-size="14.00">InstructorLedComponent</text>
</g>
<!-- InstructorLedComponent&#45;&gt;MycoursesModule -->
<g id="edge10" class="edge">
<title>InstructorLedComponent&#45;&gt;MycoursesModule</title>
<path fill="none" stroke="black" d="M1379,-84.92C1379,-99.58 1379,-117.8 1379,-117.8 1379,-117.8 1495.29,-117.8 1495.29,-117.8"/>
<polygon fill="black" stroke="black" points="1495.29,-121.3 1505.29,-117.8 1495.29,-114.3 1495.29,-121.3"/>
</g>
<!-- PerformancePageMobileComponent -->
<g id="node10" class="node">
<title>PerformancePageMobileComponent</title>
<polygon fill="#ffffb3" stroke="black" points="1282.5,-84.8 1061.5,-84.8 1061.5,-48.8 1282.5,-48.8 1282.5,-84.8"/>
<text text-anchor="middle" x="1172" y="-62.6" font-family="Times,serif" font-size="14.00">PerformancePageMobileComponent</text>
</g>
<!-- PerformancePageMobileComponent&#45;&gt;MycoursesModule -->
<g id="edge11" class="edge">
<title>PerformancePageMobileComponent&#45;&gt;MycoursesModule</title>
<path fill="none" stroke="black" d="M1172,-84.81C1172,-100.85 1172,-121.8 1172,-121.8 1172,-121.8 1495.3,-121.8 1495.3,-121.8"/>
<polygon fill="black" stroke="black" points="1495.3,-125.3 1505.3,-121.8 1495.3,-118.3 1495.3,-125.3"/>
</g>
<!-- ProgressionReportComponent -->
<g id="node11" class="node">
<title>ProgressionReportComponent</title>
<polygon fill="#ffffb3" stroke="black" points="1043.53,-84.8 858.47,-84.8 858.47,-48.8 1043.53,-48.8 1043.53,-84.8"/>
<text text-anchor="middle" x="951" y="-62.6" font-family="Times,serif" font-size="14.00">ProgressionReportComponent</text>
</g>
<!-- ProgressionReportComponent&#45;&gt;MycoursesModule -->
<g id="edge12" class="edge">
<title>ProgressionReportComponent&#45;&gt;MycoursesModule</title>
<path fill="none" stroke="black" d="M951,-84.82C951,-102.17 951,-125.8 951,-125.8 951,-125.8 1495.35,-125.8 1495.35,-125.8"/>
<polygon fill="black" stroke="black" points="1495.35,-129.3 1505.35,-125.8 1495.35,-122.3 1495.35,-129.3"/>
</g>
<!-- ProjectMobileComponent -->
<g id="node12" class="node">
<title>ProjectMobileComponent</title>
<polygon fill="#ffffb3" stroke="black" points="840.93,-84.8 679.07,-84.8 679.07,-48.8 840.93,-48.8 840.93,-84.8"/>
<text text-anchor="middle" x="760" y="-62.6" font-family="Times,serif" font-size="14.00">ProjectMobileComponent</text>
</g>
<!-- ProjectMobileComponent&#45;&gt;MycoursesModule -->
<g id="edge13" class="edge">
<title>ProjectMobileComponent&#45;&gt;MycoursesModule</title>
<path fill="none" stroke="black" d="M760,-85.02C760,-103.63 760,-129.8 760,-129.8 760,-129.8 1495.42,-129.8 1495.42,-129.8"/>
<polygon fill="black" stroke="black" points="1495.42,-133.3 1505.42,-129.8 1495.42,-126.3 1495.42,-133.3"/>
</g>
<!-- QuestionanswerComponent -->
<g id="node13" class="node">
<title>QuestionanswerComponent</title>
<polygon fill="#ffffb3" stroke="black" points="661.52,-84.8 490.48,-84.8 490.48,-48.8 661.52,-48.8 661.52,-84.8"/>
<text text-anchor="middle" x="576" y="-62.6" font-family="Times,serif" font-size="14.00">QuestionanswerComponent</text>
</g>
<!-- QuestionanswerComponent&#45;&gt;MycoursesModule -->
<g id="edge14" class="edge">
<title>QuestionanswerComponent&#45;&gt;MycoursesModule</title>
<path fill="none" stroke="black" d="M576,-85.11C576,-104.95 576,-133.8 576,-133.8 576,-133.8 1495.19,-133.8 1495.19,-133.8"/>
<polygon fill="black" stroke="black" points="1495.19,-137.3 1505.19,-133.8 1495.19,-130.3 1495.19,-137.3"/>
</g>
<!-- QuizReportComponent -->
<g id="node14" class="node">
<title>QuizReportComponent</title>
<polygon fill="#ffffb3" stroke="black" points="472.15,-84.8 325.85,-84.8 325.85,-48.8 472.15,-48.8 472.15,-84.8"/>
<text text-anchor="middle" x="399" y="-62.6" font-family="Times,serif" font-size="14.00">QuizReportComponent</text>
</g>
<!-- QuizReportComponent&#45;&gt;MycoursesModule -->
<g id="edge15" class="edge">
<title>QuizReportComponent&#45;&gt;MycoursesModule</title>
<path fill="none" stroke="black" d="M399,-85.08C399,-106.12 399,-137.8 399,-137.8 399,-137.8 1495.31,-137.8 1495.31,-137.8"/>
<polygon fill="black" stroke="black" points="1495.31,-141.3 1505.31,-137.8 1495.31,-134.3 1495.31,-141.3"/>
</g>
<!-- UpskillCalendarComponent -->
<g id="node15" class="node">
<title>UpskillCalendarComponent</title>
<polygon fill="#ffffb3" stroke="black" points="307.59,-84.8 134.41,-84.8 134.41,-48.8 307.59,-48.8 307.59,-84.8"/>
<text text-anchor="middle" x="221" y="-62.6" font-family="Times,serif" font-size="14.00">UpskillCalendarComponent</text>
</g>
<!-- UpskillCalendarComponent&#45;&gt;MycoursesModule -->
<g id="edge16" class="edge">
<title>UpskillCalendarComponent&#45;&gt;MycoursesModule</title>
<path fill="none" stroke="black" d="M221,-84.96C221,-107.15 221,-141.8 221,-141.8 221,-141.8 1495.15,-141.8 1495.15,-141.8"/>
<polygon fill="black" stroke="black" points="1495.15,-145.3 1505.15,-141.8 1495.15,-138.3 1495.15,-145.3"/>
</g>
<!-- CoreModule -->
<g id="node17" class="node">
<title>CoreModule</title>
<polygon fill="#8dd3c7" stroke="black" points="110.26,-84.8 107.26,-88.8 86.26,-88.8 83.26,-84.8 23.74,-84.8 23.74,-48.8 110.26,-48.8 110.26,-84.8"/>
<text text-anchor="middle" x="67" y="-62.6" font-family="Times,serif" font-size="14.00">CoreModule</text>
</g>
<!-- CoreModule&#45;&gt;MycoursesModule -->
<g id="edge17" class="edge">
<title>CoreModule&#45;&gt;MycoursesModule</title>
<path fill="none" stroke="black" d="M67,-85.12C67,-108.46 67,-145.8 67,-145.8 67,-145.8 1495.38,-145.8 1495.38,-145.8"/>
<polygon fill="black" stroke="black" points="1495.38,-149.3 1505.38,-145.8 1495.38,-142.3 1495.38,-149.3"/>
</g>
</g>
</svg>
