<?xml version="1.0" encoding="UTF-8" standalone="no"?>
<!DOCTYPE svg PUBLIC "-//W3C//DTD SVG 1.1//EN"
 "http://www.w3.org/Graphics/SVG/1.1/DTD/svg11.dtd">
<!-- Generated by graphviz version 2.47.3 (20210619.1520)
 -->
<!-- Title: dependencies Pages: 1 -->
<svg width="2912pt" height="174pt"
 viewBox="0.00 0.00 2912.00 173.80" xmlns="http://www.w3.org/2000/svg" xmlns:xlink="http://www.w3.org/1999/xlink">
<g id="graph0" class="graph" transform="scale(1 1) rotate(0) translate(4 169.8)">
<title>dependencies</title>
<polygon fill="white" stroke="transparent" points="-4,4 -4,-169.8 2908,-169.8 2908,4 -4,4"/>
<text text-anchor="middle" x="1452" y="-8.2" font-family="sans-serif" font-size="14.00">dependencies</text>
<g id="clust1" class="cluster">
<title>cluster_MycoursesModule</title>
<polygon fill="none" stroke="black" stroke-dasharray="1,5" points="8,-32.8 8,-157.8 2896,-157.8 2896,-32.8 8,-32.8"/>
</g>
<g id="clust17" class="cluster">
<title>cluster_MycoursesModule_imports</title>
<polygon fill="none" stroke="black" points="2661,-40.8 2661,-92.8 2888,-92.8 2888,-40.8 2661,-40.8"/>
</g>
<g id="clust2" class="cluster">
<title>cluster_MycoursesModule_declarations</title>
<polygon fill="none" stroke="black" points="16,-40.8 16,-92.8 2653,-92.8 2653,-40.8 16,-40.8"/>
</g>
<!-- ActivitiesComponent -->
<g id="node1" class="node">
<title>ActivitiesComponent</title>
<polygon fill="#ffffb3" stroke="black" points="2644.77,-84.8 2509.23,-84.8 2509.23,-48.8 2644.77,-48.8 2644.77,-84.8"/>
<text text-anchor="middle" x="2577" y="-62.6" font-family="Times,serif" font-size="14.00">ActivitiesComponent</text>
</g>
<!-- MycoursesModule -->
<g id="node15" class="node">
<title>MycoursesModule</title>
<polygon fill="#8dd3c7" stroke="black" points="1751.47,-149.8 1748.47,-153.8 1727.47,-153.8 1724.47,-149.8 1630.53,-149.8 1630.53,-113.8 1751.47,-113.8 1751.47,-149.8"/>
<text text-anchor="middle" x="1691" y="-127.6" font-family="Times,serif" font-size="14.00">MycoursesModule</text>
</g>
<!-- ActivitiesComponent&#45;&gt;MycoursesModule -->
<g id="edge1" class="edge">
<title>ActivitiesComponent&#45;&gt;MycoursesModule</title>
<path fill="none" stroke="black" d="M2577,-85.08C2577,-106.12 2577,-137.8 2577,-137.8 2577,-137.8 1761.55,-137.8 1761.55,-137.8"/>
<polygon fill="black" stroke="black" points="1761.55,-134.3 1751.55,-137.8 1761.55,-141.3 1761.55,-134.3"/>
</g>
<!-- AskQuestionsComponent -->
<g id="node2" class="node">
<title>AskQuestionsComponent</title>
<polygon fill="#ffffb3" stroke="black" points="2490.88,-84.8 2331.12,-84.8 2331.12,-48.8 2490.88,-48.8 2490.88,-84.8"/>
<text text-anchor="middle" x="2411" y="-62.6" font-family="Times,serif" font-size="14.00">AskQuestionsComponent</text>
</g>
<!-- AskQuestionsComponent&#45;&gt;MycoursesModule -->
<g id="edge2" class="edge">
<title>AskQuestionsComponent&#45;&gt;MycoursesModule</title>
<path fill="none" stroke="black" d="M2411,-85.11C2411,-104.95 2411,-133.8 2411,-133.8 2411,-133.8 1761.77,-133.8 1761.77,-133.8"/>
<polygon fill="black" stroke="black" points="1761.77,-130.3 1751.77,-133.8 1761.77,-137.3 1761.77,-130.3"/>
</g>
<!-- AssignmentComponent -->
<g id="node3" class="node">
<title>AssignmentComponent</title>
<polygon fill="#ffffb3" stroke="black" points="2313.21,-84.8 2164.79,-84.8 2164.79,-48.8 2313.21,-48.8 2313.21,-84.8"/>
<text text-anchor="middle" x="2239" y="-62.6" font-family="Times,serif" font-size="14.00">AssignmentComponent</text>
</g>
<!-- AssignmentComponent&#45;&gt;MycoursesModule -->
<g id="edge3" class="edge">
<title>AssignmentComponent&#45;&gt;MycoursesModule</title>
<path fill="none" stroke="black" d="M2239,-85.02C2239,-103.63 2239,-129.8 2239,-129.8 2239,-129.8 1761.48,-129.8 1761.48,-129.8"/>
<polygon fill="black" stroke="black" points="1761.48,-126.3 1751.48,-129.8 1761.48,-133.3 1761.48,-126.3"/>
</g>
<!-- CalendarActivityComponent -->
<g id="node4" class="node">
<title>CalendarActivityComponent</title>
<polygon fill="#ffffb3" stroke="black" points="2146.75,-84.8 1969.25,-84.8 1969.25,-48.8 2146.75,-48.8 2146.75,-84.8"/>
<text text-anchor="middle" x="2058" y="-62.6" font-family="Times,serif" font-size="14.00">CalendarActivityComponent</text>
</g>
<!-- CalendarActivityComponent&#45;&gt;MycoursesModule -->
<g id="edge4" class="edge">
<title>CalendarActivityComponent&#45;&gt;MycoursesModule</title>
<path fill="none" stroke="black" d="M2058,-84.82C2058,-102.17 2058,-125.8 2058,-125.8 2058,-125.8 1761.6,-125.8 1761.6,-125.8"/>
<polygon fill="black" stroke="black" points="1761.6,-122.3 1751.6,-125.8 1761.6,-129.3 1761.6,-122.3"/>
</g>
<!-- CourseGalleryComponent -->
<g id="node5" class="node">
<title>CourseGalleryComponent</title>
<polygon fill="#ffffb3" stroke="black" points="1951.47,-84.8 1788.53,-84.8 1788.53,-48.8 1951.47,-48.8 1951.47,-84.8"/>
<text text-anchor="middle" x="1870" y="-62.6" font-family="Times,serif" font-size="14.00">CourseGalleryComponent</text>
</g>
<!-- CourseGalleryComponent&#45;&gt;MycoursesModule -->
<g id="edge5" class="edge">
<title>CourseGalleryComponent&#45;&gt;MycoursesModule</title>
<path fill="none" stroke="black" d="M1842.84,-84.92C1842.84,-99.58 1842.84,-117.8 1842.84,-117.8 1842.84,-117.8 1761.88,-117.8 1761.88,-117.8"/>
<polygon fill="black" stroke="black" points="1761.88,-114.3 1751.88,-117.8 1761.88,-121.3 1761.88,-114.3"/>
</g>
<!-- CourseGalleryComponent&#45;&gt;MycoursesModule -->
<g id="edge6" class="edge">
<title>CourseGalleryComponent&#45;&gt;MycoursesModule</title>
<path fill="none" stroke="black" d="M1897.16,-84.81C1897.16,-100.85 1897.16,-121.8 1897.16,-121.8 1897.16,-121.8 1761.74,-121.8 1761.74,-121.8"/>
<polygon fill="black" stroke="black" points="1761.74,-118.3 1751.74,-121.8 1761.74,-125.3 1761.74,-118.3"/>
</g>
<!-- CourseReportComponent -->
<g id="node6" class="node">
<title>CourseReportComponent</title>
<polygon fill="#ffffb3" stroke="black" points="1770.59,-84.8 1611.41,-84.8 1611.41,-48.8 1770.59,-48.8 1770.59,-84.8"/>
<text text-anchor="middle" x="1691" y="-62.6" font-family="Times,serif" font-size="14.00">CourseReportComponent</text>
</g>
<!-- CourseReportComponent&#45;&gt;MycoursesModule -->
<g id="edge7" class="edge">
<title>CourseReportComponent&#45;&gt;MycoursesModule</title>
<path fill="none" stroke="black" d="M1691,-84.91C1691,-84.91 1691,-103.79 1691,-103.79"/>
<polygon fill="black" stroke="black" points="1687.5,-103.79 1691,-113.79 1694.5,-103.79 1687.5,-103.79"/>
</g>
<!-- CoursedetailsComponent -->
<g id="node7" class="node">
<title>CoursedetailsComponent</title>
<polygon fill="#ffffb3" stroke="black" points="1593.54,-84.8 1436.46,-84.8 1436.46,-48.8 1593.54,-48.8 1593.54,-84.8"/>
<text text-anchor="middle" x="1515" y="-62.6" font-family="Times,serif" font-size="14.00">CoursedetailsComponent</text>
</g>
<!-- CoursedetailsComponent&#45;&gt;MycoursesModule -->
<g id="edge8" class="edge">
<title>CoursedetailsComponent&#45;&gt;MycoursesModule</title>
<path fill="none" stroke="black" d="M1515,-84.92C1515,-99.58 1515,-117.8 1515,-117.8 1515,-117.8 1620.43,-117.8 1620.43,-117.8"/>
<polygon fill="black" stroke="black" points="1620.43,-121.3 1630.43,-117.8 1620.43,-114.3 1620.43,-121.3"/>
</g>
<!-- DiscussionForumComponent -->
<g id="node8" class="node">
<title>DiscussionForumComponent</title>
<polygon fill="#ffffb3" stroke="black" points="1418.1,-84.8 1237.9,-84.8 1237.9,-48.8 1418.1,-48.8 1418.1,-84.8"/>
<text text-anchor="middle" x="1328" y="-62.6" font-family="Times,serif" font-size="14.00">DiscussionForumComponent</text>
</g>
<!-- DiscussionForumComponent&#45;&gt;MycoursesModule -->
<g id="edge9" class="edge">
<title>DiscussionForumComponent&#45;&gt;MycoursesModule</title>
<path fill="none" stroke="black" d="M1328,-84.81C1328,-100.85 1328,-121.8 1328,-121.8 1328,-121.8 1620.24,-121.8 1620.24,-121.8"/>
<polygon fill="black" stroke="black" points="1620.24,-125.3 1630.24,-121.8 1620.24,-118.3 1620.24,-125.3"/>
</g>
<!-- InstructorLedComponent -->
<g id="node9" class="node">
<title>InstructorLedComponent</title>
<polygon fill="#ffffb3" stroke="black" points="1219.52,-84.8 1062.48,-84.8 1062.48,-48.8 1219.52,-48.8 1219.52,-84.8"/>
<text text-anchor="middle" x="1141" y="-62.6" font-family="Times,serif" font-size="14.00">InstructorLedComponent</text>
</g>
<!-- InstructorLedComponent&#45;&gt;MycoursesModule -->
<g id="edge10" class="edge">
<title>InstructorLedComponent&#45;&gt;MycoursesModule</title>
<path fill="none" stroke="black" d="M1141,-84.82C1141,-102.17 1141,-125.8 1141,-125.8 1141,-125.8 1620.3,-125.8 1620.3,-125.8"/>
<polygon fill="black" stroke="black" points="1620.3,-129.3 1630.3,-125.8 1620.3,-122.3 1620.3,-129.3"/>
</g>
<!-- LearnerNewMyCourseComponent -->
<g id="node10" class="node">
<title>LearnerNewMyCourseComponent</title>
<polygon fill="#ffffb3" stroke="black" points="1044.38,-84.8 833.62,-84.8 833.62,-48.8 1044.38,-48.8 1044.38,-84.8"/>
<text text-anchor="middle" x="939" y="-62.6" font-family="Times,serif" font-size="14.00">LearnerNewMyCourseComponent</text>
</g>
<!-- LearnerNewMyCourseComponent&#45;&gt;MycoursesModule -->
<g id="edge11" class="edge">
<title>LearnerNewMyCourseComponent&#45;&gt;MycoursesModule</title>
<path fill="none" stroke="black" d="M939,-85.02C939,-103.63 939,-129.8 939,-129.8 939,-129.8 1620.42,-129.8 1620.42,-129.8"/>
<polygon fill="black" stroke="black" points="1620.42,-133.3 1630.42,-129.8 1620.42,-126.3 1620.42,-133.3"/>
</g>
<!-- PerformancePageMobileComponent -->
<g id="node11" class="node">
<title>PerformancePageMobileComponent</title>
<polygon fill="#ffffb3" stroke="black" points="816.5,-84.8 595.5,-84.8 595.5,-48.8 816.5,-48.8 816.5,-84.8"/>
<text text-anchor="middle" x="706" y="-62.6" font-family="Times,serif" font-size="14.00">PerformancePageMobileComponent</text>
</g>
<!-- PerformancePageMobileComponent&#45;&gt;MycoursesModule -->
<g id="edge12" class="edge">
<title>PerformancePageMobileComponent&#45;&gt;MycoursesModule</title>
<path fill="none" stroke="black" d="M706,-85.11C706,-104.95 706,-133.8 706,-133.8 706,-133.8 1620.5,-133.8 1620.5,-133.8"/>
<polygon fill="black" stroke="black" points="1620.5,-137.3 1630.5,-133.8 1620.5,-130.3 1620.5,-137.3"/>
</g>
<!-- ProgressionReportComponent -->
<g id="node12" class="node">
<title>ProgressionReportComponent</title>
<polygon fill="#ffffb3" stroke="black" points="577.53,-84.8 392.47,-84.8 392.47,-48.8 577.53,-48.8 577.53,-84.8"/>
<text text-anchor="middle" x="485" y="-62.6" font-family="Times,serif" font-size="14.00">ProgressionReportComponent</text>
</g>
<!-- ProgressionReportComponent&#45;&gt;MycoursesModule -->
<g id="edge13" class="edge">
<title>ProgressionReportComponent&#45;&gt;MycoursesModule</title>
<path fill="none" stroke="black" d="M485,-85.08C485,-106.12 485,-137.8 485,-137.8 485,-137.8 1620.37,-137.8 1620.37,-137.8"/>
<polygon fill="black" stroke="black" points="1620.37,-141.3 1630.37,-137.8 1620.37,-134.3 1620.37,-141.3"/>
</g>
<!-- ProjectMobileComponent -->
<g id="node13" class="node">
<title>ProjectMobileComponent</title>
<polygon fill="#ffffb3" stroke="black" points="374.93,-84.8 213.07,-84.8 213.07,-48.8 374.93,-48.8 374.93,-84.8"/>
<text text-anchor="middle" x="294" y="-62.6" font-family="Times,serif" font-size="14.00">ProjectMobileComponent</text>
</g>
<!-- ProjectMobileComponent&#45;&gt;MycoursesModule -->
<g id="edge14" class="edge">
<title>ProjectMobileComponent&#45;&gt;MycoursesModule</title>
<path fill="none" stroke="black" d="M294,-84.96C294,-107.15 294,-141.8 294,-141.8 294,-141.8 1620.52,-141.8 1620.52,-141.8"/>
<polygon fill="black" stroke="black" points="1620.52,-145.3 1630.52,-141.8 1620.52,-138.3 1620.52,-145.3"/>
</g>
<!-- QuestionanswerComponent -->
<g id="node14" class="node">
<title>QuestionanswerComponent</title>
<polygon fill="#ffffb3" stroke="black" points="195.52,-84.8 24.48,-84.8 24.48,-48.8 195.52,-48.8 195.52,-84.8"/>
<text text-anchor="middle" x="110" y="-62.6" font-family="Times,serif" font-size="14.00">QuestionanswerComponent</text>
</g>
<!-- QuestionanswerComponent&#45;&gt;MycoursesModule -->
<g id="edge15" class="edge">
<title>QuestionanswerComponent&#45;&gt;MycoursesModule</title>
<path fill="none" stroke="black" d="M110,-85.12C110,-108.46 110,-145.8 110,-145.8 110,-145.8 1620.47,-145.8 1620.47,-145.8"/>
<polygon fill="black" stroke="black" points="1620.47,-149.3 1630.47,-145.8 1620.47,-142.3 1620.47,-149.3"/>
</g>
<!-- CoreModule -->
<g id="node16" class="node">
<title>CoreModule</title>
<polygon fill="#8dd3c7" stroke="black" points="2880.26,-84.8 2877.26,-88.8 2856.26,-88.8 2853.26,-84.8 2793.74,-84.8 2793.74,-48.8 2880.26,-48.8 2880.26,-84.8"/>
<text text-anchor="middle" x="2837" y="-62.6" font-family="Times,serif" font-size="14.00">CoreModule</text>
</g>
<!-- CoreModule&#45;&gt;MycoursesModule -->
<g id="edge16" class="edge">
<title>CoreModule&#45;&gt;MycoursesModule</title>
<path fill="none" stroke="black" d="M2837,-85.12C2837,-108.46 2837,-145.8 2837,-145.8 2837,-145.8 1761.8,-145.8 1761.8,-145.8"/>
<polygon fill="black" stroke="black" points="1761.8,-142.3 1751.8,-145.8 1761.8,-149.3 1761.8,-142.3"/>
</g>
<!-- MaterialModule -->
<g id="node17" class="node">
<title>MaterialModule</title>
<polygon fill="#8dd3c7" stroke="black" points="2775.47,-84.8 2772.47,-88.8 2751.47,-88.8 2748.47,-84.8 2668.53,-84.8 2668.53,-48.8 2775.47,-48.8 2775.47,-84.8"/>
<text text-anchor="middle" x="2722" y="-62.6" font-family="Times,serif" font-size="14.00">MaterialModule</text>
</g>
<!-- MaterialModule&#45;&gt;MycoursesModule -->
<g id="edge17" class="edge">
<title>MaterialModule&#45;&gt;MycoursesModule</title>
<path fill="none" stroke="black" d="M2722,-84.96C2722,-107.15 2722,-141.8 2722,-141.8 2722,-141.8 1761.64,-141.8 1761.64,-141.8"/>
<polygon fill="black" stroke="black" points="1761.64,-138.3 1751.64,-141.8 1761.64,-145.3 1761.64,-138.3"/>
</g>
</g>
</svg>
