<svg xmlns="http://www.w3.org/2000/svg" width="51.65" height="53.02" viewBox="0 0 51.65 53.02">
  <path id="Government" d="M48.65,52.02H2A1.017,1.017,0,0,1,.98,51V32.21A1.009,1.009,0,0,1,0,31.2,1.026,1.026,0,0,1,1.021,30.18h6V24.62A1.025,1.025,0,0,1,8.041,23.6h3.4V21.42h-.38a1.02,1.02,0,0,1,0-2.04h2.551A11.745,11.745,0,0,1,24.31,8.71V1.02A1.017,1.017,0,0,1,25.331,0h6.54a1.017,1.017,0,0,1,1.02,1.02V5.39a1.024,1.024,0,0,1-1.02,1.02H26.34V8.72A11.761,11.761,0,0,1,37,19.391h2.5a1.02,1.02,0,1,1,0,2.04h-.29v2.18h3.4a1.019,1.019,0,0,1,1.02,1.021v5.56h6a1.023,1.023,0,0,1,1.02,1.02,1,1,0,0,1-.98,1V51a1.017,1.017,0,0,1-1.016,1.02Zm-45.6-2h4V47.11H6.26a1.02,1.02,0,1,1,0-2.039h.79V42.15H6.26a1.02,1.02,0,1,1,0-2.039h.79V37.19H6.26a1.02,1.02,0,1,1,0-2.039h.79V32.22h-4Zm31.061-.031H36.33V38.831H34.111Zm-5.65-3.44v3.441h3.62V37.82A1.017,1.017,0,0,1,33.1,36.8h4.251a1.017,1.017,0,0,1,1.02,1.02V49.99h3.24V25.64H9.08v24.35h3.3V37.82A1.017,1.017,0,0,1,13.4,36.8h4.251a1.017,1.017,0,0,1,1.02,1.02V49.991h3.51V46.55a3.14,3.14,0,0,1,6.28,0Zm-4.251,0v3.44h2.22V46.55a1.11,1.11,0,0,0-2.22,0Zm-9.8,3.44H16.63V38.831H14.411Zm29.219,0h4V32.19h-4v2.93h.79a1.02,1.02,0,0,1,0,2.04h-.79v2.92h.79a1.02,1.02,0,0,1,0,2.04h-.79v2.92h.79a1.02,1.02,0,0,1,0,2.04h-.79ZM13.48,23.61h23.7V21.43H29.821a1.02,1.02,0,1,1,0-2.039h5.15a9.71,9.71,0,0,0-19.31,0h5.05a1.02,1.02,0,1,1,0,2.04H13.48ZM26.36,4.39h4.51V2.05H26.36Zm1.08,37H23.19a1.008,1.008,0,0,1-1.01-1.02V31.73a3.14,3.14,0,0,1,6.28,0v8.64a1.019,1.019,0,0,1-1.017,1.02Zm-3.23-2.03h2.22V34.8H24.21Zm0-7.629v1.03h2.22V31.73a1.11,1.11,0,1,0-2.22,0ZM33.1,34.8a1.024,1.024,0,0,1-1.02-1.021V29.61a1.017,1.017,0,0,1,1.02-1.02h4.251a1.017,1.017,0,0,1,1.02,1.02v4.17A1.026,1.026,0,0,1,37.35,34.8Zm1.01-2.04h2.22V30.62H34.11ZM13.39,34.8a1.031,1.031,0,0,1-1.02-1.021V29.61a1.017,1.017,0,0,1,1.02-1.02h4.251a1.017,1.017,0,0,1,1.02,1.02v4.17A1.025,1.025,0,0,1,17.64,34.8Zm1.021-2.04H16.63V30.62H14.411Zm10.46-11.42a1.033,1.033,0,0,1-.55-1.07,1,1,0,1,1,.55,1.07Z" transform="translate(0.5 0.5)" fill="#1068b2" stroke="#1068b2" stroke-width="1"/>
</svg>
