<svg xmlns="http://www.w3.org/2000/svg" width="14" height="14" viewBox="0 0 14 14">
  <path id="Link_Icon" d="M.962,13.038A3.281,3.281,0,0,1,.9,8.458L2.44,6.92a3.28,3.28,0,0,1,3.11-.79L2.092,9.588a1.641,1.641,0,0,0,2.35,2.29L7.87,8.45a3.279,3.279,0,0,1-.85,3.17L5.6,13.038a3.281,3.281,0,0,1-4.641,0ZM4.506,9.495a.82.82,0,0,1-.015-1.145L8.349,4.491A.82.82,0,0,1,9.495,5.666L5.666,9.495a.82.82,0,0,1-1.16,0ZM8.45,7.87l3.428-3.428a1.641,1.641,0,0,0-2.29-2.35L6.13,5.55a3.28,3.28,0,0,1,.79-3.11L8.458.9a3.282,3.282,0,0,1,4.58,4.7L11.621,7.02a3.285,3.285,0,0,1-3.17.85Z" fill="#777"/>
</svg>
