<svg xmlns="http://www.w3.org/2000/svg" width="13" height="16" viewBox="0 0 13 16">
  <path id="PPT_Icon" d="M.813,16a.809.809,0,0,1-.576-.225A.724.724,0,0,1,0,15.23V.77A.723.723,0,0,1,.237.225.805.805,0,0,1,.813,0H8.4A2.045,2.045,0,0,1,9.14.161a1.983,1.983,0,0,1,.644.384l2.64,2.5a1.866,1.866,0,0,1,.407.609A1.777,1.777,0,0,1,13,4.361V15.23a.724.724,0,0,1-.237.545.809.809,0,0,1-.576.225Zm.271-1.027H11.916V5.131H8.4a.806.806,0,0,1-.575-.224.721.721,0,0,1-.237-.545V1.027h-6.5ZM8.666,4.1h3.182a.868.868,0,0,0-.186-.328L9.014,1.267a.925.925,0,0,0-.347-.176ZM9.08,11V8.555H8.2v-.4h2.256v.4H9.57V11ZM5.845,11V8.157H6.934a1.1,1.1,0,0,1,.757.248.837.837,0,0,1,.28.657.81.81,0,0,1-.275.652,1.155,1.155,0,0,1-.769.232H6.34V11ZM6.34,9.547h.594a.585.585,0,0,0,.4-.124.455.455,0,0,0,.139-.358.492.492,0,0,0-.14-.368.544.544,0,0,0-.387-.142H6.34ZM3.289,11V8.157H4.377a1.1,1.1,0,0,1,.757.248.835.835,0,0,1,.28.657.809.809,0,0,1-.274.652,1.156,1.156,0,0,1-.769.232H3.783V11Zm.494-1.453h.594a.585.585,0,0,0,.4-.124.455.455,0,0,0,.139-.358.492.492,0,0,0-.14-.368.542.542,0,0,0-.387-.142H3.783Z" fill="red"/>
</svg>
