<?xml version="1.0" encoding="UTF-8" standalone="no"?>
<!DOCTYPE svg PUBLIC "-//W3C//DTD SVG 1.1//EN"
 "http://www.w3.org/Graphics/SVG/1.1/DTD/svg11.dtd">
<!-- Generated by graphviz version 2.47.3 (20210619.1520)
 -->
<!-- Title: dependencies Pages: 1 -->
<svg width="536pt" height="247pt"
 viewBox="0.00 0.00 536.00 246.80" xmlns="http://www.w3.org/2000/svg" xmlns:xlink="http://www.w3.org/1999/xlink">
<g id="graph0" class="graph" transform="scale(1 1) rotate(0) translate(4 242.8)">
<title>dependencies</title>
<polygon fill="white" stroke="transparent" points="-4,4 -4,-242.8 532,-242.8 532,4 -4,4"/>
<text text-anchor="middle" x="264" y="-8.2" font-family="sans-serif" font-size="14.00">dependencies</text>
<g id="clust1" class="cluster">
<title>cluster_PipeModule</title>
<polygon fill="none" stroke="black" stroke-dasharray="1,5" points="8,-32.8 8,-230.8 520,-230.8 520,-32.8 8,-32.8"/>
</g>
<g id="clust2" class="cluster">
<title>cluster_PipeModule_declarations</title>
<polygon fill="none" stroke="black" points="23,-40.8 23,-92.8 507,-92.8 507,-40.8 23,-40.8"/>
</g>
<g id="clust8" class="cluster">
<title>cluster_PipeModule_exports</title>
<polygon fill="none" stroke="black" points="16,-170.8 16,-222.8 512,-222.8 512,-170.8 16,-170.8"/>
</g>
<!-- FilterPipe -->
<g id="node1" class="node">
<title>FilterPipe</title>
<polygon fill="#ffffb3" stroke="black" points="498.72,-84.8 427.28,-84.8 427.28,-48.8 498.72,-48.8 498.72,-84.8"/>
<text text-anchor="middle" x="463" y="-62.6" font-family="Times,serif" font-size="14.00">FilterPipe</text>
</g>
<!-- PipeModule -->
<g id="node5" class="node">
<title>PipeModule</title>
<polygon fill="#8dd3c7" stroke="black" points="217.44,-149.8 214.44,-153.8 193.44,-153.8 190.44,-149.8 132.56,-149.8 132.56,-113.8 217.44,-113.8 217.44,-149.8"/>
<text text-anchor="middle" x="175" y="-127.6" font-family="Times,serif" font-size="14.00">PipeModule</text>
</g>
<!-- FilterPipe&#45;&gt;PipeModule -->
<g id="edge1" class="edge">
<title>FilterPipe&#45;&gt;PipeModule</title>
<path fill="none" stroke="black" d="M475.62,-85.07C475.62,-103.36 475.62,-128.8 475.62,-128.8 475.62,-128.8 227.43,-128.8 227.43,-128.8"/>
<polygon fill="black" stroke="black" points="227.43,-125.3 217.43,-128.8 227.43,-132.3 227.43,-125.3"/>
</g>
<!-- FilterPipeWithoutUnique -->
<g id="node2" class="node">
<title>FilterPipeWithoutUnique</title>
<polygon fill="#ffffb3" stroke="black" points="409.32,-84.8 250.68,-84.8 250.68,-48.8 409.32,-48.8 409.32,-84.8"/>
<text text-anchor="middle" x="330" y="-62.6" font-family="Times,serif" font-size="14.00">FilterPipeWithoutUnique</text>
</g>
<!-- FilterPipeWithoutUnique&#45;&gt;PipeModule -->
<g id="edge2" class="edge">
<title>FilterPipeWithoutUnique&#45;&gt;PipeModule</title>
<path fill="none" stroke="black" d="M356.39,-84.81C356.39,-100.85 356.39,-121.8 356.39,-121.8 356.39,-121.8 227.53,-121.8 227.53,-121.8"/>
<polygon fill="black" stroke="black" points="227.53,-118.3 217.53,-121.8 227.53,-125.3 227.53,-118.3"/>
</g>
<!-- FilterPipeforselect -->
<g id="node3" class="node">
<title>FilterPipeforselect</title>
<polygon fill="#ffffb3" stroke="black" points="232.91,-84.8 113.09,-84.8 113.09,-48.8 232.91,-48.8 232.91,-84.8"/>
<text text-anchor="middle" x="173" y="-62.6" font-family="Times,serif" font-size="14.00">FilterPipeforselect</text>
</g>
<!-- FilterPipeforselect&#45;&gt;PipeModule -->
<g id="edge3" class="edge">
<title>FilterPipeforselect&#45;&gt;PipeModule</title>
<path fill="none" stroke="black" d="M175,-84.91C175,-84.91 175,-103.79 175,-103.79"/>
<polygon fill="black" stroke="black" points="171.5,-103.79 175,-113.79 178.5,-103.79 171.5,-103.79"/>
</g>
<!-- SortPipe -->
<g id="node4" class="node">
<title>SortPipe</title>
<polygon fill="#ffffb3" stroke="black" points="95.22,-84.8 30.78,-84.8 30.78,-48.8 95.22,-48.8 95.22,-84.8"/>
<text text-anchor="middle" x="63" y="-62.6" font-family="Times,serif" font-size="14.00">SortPipe</text>
</g>
<!-- SortPipe&#45;&gt;PipeModule -->
<g id="edge4" class="edge">
<title>SortPipe&#45;&gt;PipeModule</title>
<path fill="none" stroke="black" d="M71.54,-84.82C71.54,-102.17 71.54,-125.8 71.54,-125.8 71.54,-125.8 122.62,-125.8 122.62,-125.8"/>
<polygon fill="black" stroke="black" points="122.62,-129.3 132.62,-125.8 122.62,-122.3 122.62,-129.3"/>
</g>
<!-- FilterPipe  -->
<g id="node6" class="node">
<title>FilterPipe </title>
<polygon fill="#fb8072" stroke="black" points="504.22,-214.8 429.78,-214.8 429.78,-178.8 504.22,-178.8 504.22,-214.8"/>
<text text-anchor="middle" x="467" y="-192.6" font-family="Times,serif" font-size="14.00">FilterPipe </text>
</g>
<!-- PipeModule&#45;&gt;FilterPipe  -->
<g id="edge5" class="edge">
<title>PipeModule&#45;&gt;FilterPipe </title>
<path fill="none" stroke="black" stroke-dasharray="5,2" d="M217.47,-135.8C295.24,-135.8 452.63,-135.8 452.63,-135.8 452.63,-135.8 452.63,-168.5 452.63,-168.5"/>
<polygon fill="black" stroke="black" points="449.13,-168.5 452.63,-178.5 456.13,-168.5 449.13,-168.5"/>
</g>
<!-- FilterPipeWithoutUnique  -->
<g id="node7" class="node">
<title>FilterPipeWithoutUnique </title>
<polygon fill="#fb8072" stroke="black" points="411.82,-214.8 250.18,-214.8 250.18,-178.8 411.82,-178.8 411.82,-214.8"/>
<text text-anchor="middle" x="331" y="-192.6" font-family="Times,serif" font-size="14.00">FilterPipeWithoutUnique </text>
</g>
<!-- PipeModule&#45;&gt;FilterPipeWithoutUnique  -->
<g id="edge6" class="edge">
<title>PipeModule&#45;&gt;FilterPipeWithoutUnique </title>
<path fill="none" stroke="black" stroke-dasharray="5,2" d="M217.47,-142.8C254.93,-142.8 303.61,-142.8 303.61,-142.8 303.61,-142.8 303.61,-168.52 303.61,-168.52"/>
<polygon fill="black" stroke="black" points="300.11,-168.52 303.61,-178.52 307.11,-168.52 300.11,-168.52"/>
</g>
<!-- FilterPipeforselect  -->
<g id="node8" class="node">
<title>FilterPipeforselect </title>
<polygon fill="#fb8072" stroke="black" points="232.41,-214.8 109.59,-214.8 109.59,-178.8 232.41,-178.8 232.41,-214.8"/>
<text text-anchor="middle" x="171" y="-192.6" font-family="Times,serif" font-size="14.00">FilterPipeforselect </text>
</g>
<!-- PipeModule&#45;&gt;FilterPipeforselect  -->
<g id="edge7" class="edge">
<title>PipeModule&#45;&gt;FilterPipeforselect </title>
<path fill="none" stroke="black" stroke-dasharray="5,2" d="M175,-149.91C175,-149.91 175,-168.79 175,-168.79"/>
<polygon fill="black" stroke="black" points="171.5,-168.79 175,-178.79 178.5,-168.79 171.5,-168.79"/>
</g>
<!-- SortPipe  -->
<g id="node9" class="node">
<title>SortPipe </title>
<polygon fill="#fb8072" stroke="black" points="91.72,-214.8 24.28,-214.8 24.28,-178.8 91.72,-178.8 91.72,-214.8"/>
<text text-anchor="middle" x="58" y="-192.6" font-family="Times,serif" font-size="14.00">SortPipe </text>
</g>
<!-- PipeModule&#45;&gt;SortPipe  -->
<g id="edge8" class="edge">
<title>PipeModule&#45;&gt;SortPipe </title>
<path fill="none" stroke="black" stroke-dasharray="5,2" d="M132.75,-137.8C96.89,-137.8 51.21,-137.8 51.21,-137.8 51.21,-137.8 51.21,-168.78 51.21,-168.78"/>
<polygon fill="black" stroke="black" points="47.71,-168.78 51.21,-178.78 54.71,-168.78 47.71,-168.78"/>
</g>
</g>
</svg>
