<?xml version="1.0" encoding="UTF-8" standalone="no"?>
<!DOCTYPE svg PUBLIC "-//W3C//DTD SVG 1.1//EN"
 "http://www.w3.org/Graphics/SVG/1.1/DTD/svg11.dtd">
<!-- Generated by graphviz version 2.47.3 (20210619.1520)
 -->
<!-- Title: dependencies Pages: 1 -->
<svg width="909pt" height="174pt"
 viewBox="0.00 0.00 909.00 173.80" xmlns="http://www.w3.org/2000/svg" xmlns:xlink="http://www.w3.org/1999/xlink">
<g id="graph0" class="graph" transform="scale(1 1) rotate(0) translate(4 169.8)">
<title>dependencies</title>
<polygon fill="white" stroke="transparent" points="-4,4 -4,-169.8 905,-169.8 905,4 -4,4"/>
<text text-anchor="middle" x="450.5" y="-8.2" font-family="sans-serif" font-size="14.00">dependencies</text>
<g id="clust1" class="cluster">
<title>cluster_LoginModule</title>
<polygon fill="none" stroke="black" stroke-dasharray="1,5" points="8,-32.8 8,-157.8 893,-157.8 893,-32.8 8,-32.8"/>
</g>
<g id="clust8" class="cluster">
<title>cluster_LoginModule_imports</title>
<polygon fill="none" stroke="black" points="783,-40.8 783,-92.8 885,-92.8 885,-40.8 783,-40.8"/>
</g>
<g id="clust2" class="cluster">
<title>cluster_LoginModule_declarations</title>
<polygon fill="none" stroke="black" points="16,-40.8 16,-92.8 775,-92.8 775,-40.8 16,-40.8"/>
</g>
<!-- LoginComponent -->
<g id="node1" class="node">
<title>LoginComponent</title>
<polygon fill="#ffffb3" stroke="black" points="767.28,-84.8 652.72,-84.8 652.72,-48.8 767.28,-48.8 767.28,-84.8"/>
<text text-anchor="middle" x="710" y="-62.6" font-family="Times,serif" font-size="14.00">LoginComponent</text>
</g>
<!-- LoginModule -->
<g id="node6" class="node">
<title>LoginModule</title>
<polygon fill="#8dd3c7" stroke="black" points="550.49,-149.8 547.49,-153.8 526.49,-153.8 523.49,-149.8 457.51,-149.8 457.51,-113.8 550.49,-113.8 550.49,-149.8"/>
<text text-anchor="middle" x="504" y="-127.6" font-family="Times,serif" font-size="14.00">LoginModule</text>
</g>
<!-- LoginComponent&#45;&gt;LoginModule -->
<g id="edge1" class="edge">
<title>LoginComponent&#45;&gt;LoginModule</title>
<path fill="none" stroke="black" d="M710,-84.82C710,-102.17 710,-125.8 710,-125.8 710,-125.8 560.74,-125.8 560.74,-125.8"/>
<polygon fill="black" stroke="black" points="560.74,-122.3 550.74,-125.8 560.74,-129.3 560.74,-122.3"/>
</g>
<!-- MaskingPipePipe -->
<g id="node2" class="node">
<title>MaskingPipePipe</title>
<polygon fill="#ffffb3" stroke="black" points="634.27,-84.8 519.73,-84.8 519.73,-48.8 634.27,-48.8 634.27,-84.8"/>
<text text-anchor="middle" x="577" y="-62.6" font-family="Times,serif" font-size="14.00">MaskingPipePipe</text>
</g>
<!-- MaskingPipePipe&#45;&gt;LoginModule -->
<g id="edge2" class="edge">
<title>MaskingPipePipe&#45;&gt;LoginModule</title>
<path fill="none" stroke="black" d="M535.06,-84.91C535.06,-84.91 535.06,-103.79 535.06,-103.79"/>
<polygon fill="black" stroke="black" points="531.56,-103.79 535.06,-113.79 538.56,-103.79 531.56,-103.79"/>
</g>
<!-- NewHomeComponent -->
<g id="node3" class="node">
<title>NewHomeComponent</title>
<polygon fill="#ffffb3" stroke="black" points="501.97,-84.8 360.03,-84.8 360.03,-48.8 501.97,-48.8 501.97,-84.8"/>
<text text-anchor="middle" x="431" y="-62.6" font-family="Times,serif" font-size="14.00">NewHomeComponent</text>
</g>
<!-- NewHomeComponent&#45;&gt;LoginModule -->
<g id="edge3" class="edge">
<title>NewHomeComponent&#45;&gt;LoginModule</title>
<path fill="none" stroke="black" d="M479.74,-84.91C479.74,-84.91 479.74,-103.79 479.74,-103.79"/>
<polygon fill="black" stroke="black" points="476.24,-103.79 479.74,-113.79 483.24,-103.79 476.24,-103.79"/>
</g>
<!-- PasswordComponent -->
<g id="node4" class="node">
<title>PasswordComponent</title>
<polygon fill="#ffffb3" stroke="black" points="342.49,-84.8 207.51,-84.8 207.51,-48.8 342.49,-48.8 342.49,-84.8"/>
<text text-anchor="middle" x="275" y="-62.6" font-family="Times,serif" font-size="14.00">PasswordComponent</text>
</g>
<!-- PasswordComponent&#45;&gt;LoginModule -->
<g id="edge4" class="edge">
<title>PasswordComponent&#45;&gt;LoginModule</title>
<path fill="none" stroke="black" d="M275,-84.82C275,-102.17 275,-125.8 275,-125.8 275,-125.8 447.38,-125.8 447.38,-125.8"/>
<polygon fill="black" stroke="black" points="447.38,-129.3 457.38,-125.8 447.38,-122.3 447.38,-129.3"/>
</g>
<!-- ResetpasswordComponent -->
<g id="node5" class="node">
<title>ResetpasswordComponent</title>
<polygon fill="#ffffb3" stroke="black" points="189.8,-84.8 24.2,-84.8 24.2,-48.8 189.8,-48.8 189.8,-84.8"/>
<text text-anchor="middle" x="107" y="-62.6" font-family="Times,serif" font-size="14.00">ResetpasswordComponent</text>
</g>
<!-- ResetpasswordComponent&#45;&gt;LoginModule -->
<g id="edge5" class="edge">
<title>ResetpasswordComponent&#45;&gt;LoginModule</title>
<path fill="none" stroke="black" d="M107,-85.08C107,-106.12 107,-137.8 107,-137.8 107,-137.8 447.29,-137.8 447.29,-137.8"/>
<polygon fill="black" stroke="black" points="447.29,-141.3 457.29,-137.8 447.29,-134.3 447.29,-141.3"/>
</g>
<!-- CoreModule -->
<g id="node7" class="node">
<title>CoreModule</title>
<polygon fill="#8dd3c7" stroke="black" points="877.26,-84.8 874.26,-88.8 853.26,-88.8 850.26,-84.8 790.74,-84.8 790.74,-48.8 877.26,-48.8 877.26,-84.8"/>
<text text-anchor="middle" x="834" y="-62.6" font-family="Times,serif" font-size="14.00">CoreModule</text>
</g>
<!-- CoreModule&#45;&gt;LoginModule -->
<g id="edge6" class="edge">
<title>CoreModule&#45;&gt;LoginModule</title>
<path fill="none" stroke="black" d="M834,-85.08C834,-106.12 834,-137.8 834,-137.8 834,-137.8 560.58,-137.8 560.58,-137.8"/>
<polygon fill="black" stroke="black" points="560.58,-134.3 550.58,-137.8 560.58,-141.3 560.58,-134.3"/>
</g>
</g>
</svg>
