<svg xmlns="http://www.w3.org/2000/svg" width="48.771" height="35.356" viewBox="0 0 48.771 35.356">
  <path id="College_University" data-name="College &amp; University" d="M42.44,34.5H3.97a1.33,1.33,0,1,1,0-2.66H42.44a1.33,1.33,0,1,1,2.66,0h3.98a1.33,1.33,0,1,1,0,2.66H45.1a1.33,1.33,0,1,1-2.66,0ZM38.48,29.19H14.6a1.329,1.329,0,0,1-1.33-1.329V14.97L4.82,11.86a1.344,1.344,0,0,1-.88-1.23A1.328,1.328,0,0,1,4.81,9.39L26.07,1.56a1.325,1.325,0,0,1,.92,0L48.25,9.39a1.319,1.319,0,0,1,0,2.48l-1.82.67v2.29a3.978,3.978,0,1,1-2.64,0V13.51L39.81,14.97V27.86a1.327,1.327,0,0,1-1.326,1.329ZM15.92,26.53H37.14V15.94L26.99,19.68a1.325,1.325,0,0,1-.92,0L15.92,15.94Zm28.24-8.9a1.342,1.342,0,1,0,.945-.389A1.342,1.342,0,0,0,44.16,17.63ZM9.11,10.61l17.42,6.41L43.95,10.61,26.53,4.2Z" transform="translate(-2.14 -0.973)" fill="#1068b2" stroke="#1068b2" stroke-width="1"/>
</svg>
