<svg xmlns="http://www.w3.org/2000/svg" width="60.01" height="32.328" viewBox="0 0 60.01 32.328">
  <path id="E-Learner" d="M591.89,737.03h-1.26a.939.939,0,0,0-.94.94v4.75H546.16c-.03,0-.05.01-.08.01-2.86.07-5.09,3.84-5.09,8.66,0,4.8,2.21,8.57,5.06,8.66a.373.373,0,0,0,.11.01H563.6l-2.73,6.98a.944.944,0,0,0,1.37,1.15l3.09-1.88,1.17,1.62a.929.929,0,0,0,.76.39.483.483,0,0,0,.12-.01.933.933,0,0,0,.76-.59l2.36-6.02,2.35,6.02a.947.947,0,0,0,.76.59c.04,0,.08.01.12.01a.976.976,0,0,0,.77-.39l1.17-1.62,3.09,1.88a.944.944,0,0,0,1.37-1.15l-2.73-6.98h17.44c2.9,0,5.16-3.81,5.16-8.67,0-4.19-1.68-7.61-4.02-8.46h0v-4.96a.939.939,0,0,0-.94-.94h-1.26m-2.2,1.88h2.51v6.08l-.64-.56a.943.943,0,0,0-1.24,0l-.63.56Zm-15.31,12.48c0,4-1.73,6.78-3.28,6.78h-1.74a12.931,12.931,0,0,0,0-13.56h1.74c1.55,0,3.28,2.78,3.28,6.78Zm-26.86,6.78a12.931,12.931,0,0,0,0-13.56h18.6c1.55,0,3.28,2.78,3.28,6.78s-1.73,6.78-3.28,6.78Zm-2.76-5.84h2.75c-.21,3-1.41,5.17-2.65,5.71C545.59,754.83,546.27,753.01,546.65,752.33Zm-3.76-.94c0-3.99,1.72-6.78,3.28-6.78,1.43,0,3,2.35,3.24,5.84h-3.24a.954.954,0,0,0-.69.3c-.09.1-1.95,2.19-.93,6.44a9.425,9.425,0,0,1-1.66-5.8Zm24.13,14.02-.67-.92a.944.944,0,0,0-1.26-.25l-1.45.88,1.98-5.07h3.48Zm10.33-.29-1.45-.88a.944.944,0,0,0-1.26.25l-.67.92-2.1-5.36h3.48Zm17.49-6.96h-18.6a12.931,12.931,0,0,0,0-13.56h13.45v2.47a.941.941,0,0,0,1.56.71l1.58-1.38,1.58,1.38a.941.941,0,0,0,1.56-.71v-1.99c1.15.96,2.14,3.29,2.14,6.3,0,4-1.72,6.79-3.27,6.78Zm0,0" transform="translate(-540.49 -736.53)" fill="#1068b2" stroke="#1068b2" stroke-miterlimit="10" stroke-width="1"/>
</svg>
