<svg xmlns="http://www.w3.org/2000/svg" width="27.66" height="37.011" viewBox="0 0 27.66 37.011">
  <path id="Need_Guidance_3" data-name="Need Guidance_3" d="M1302.3,395.93h-5.18v8.25l1.83-2.92a.879.879,0,0,1,1.21-.3.862.862,0,0,1,.3.3l1.84,2.93v-8.26Zm4.45,25.94V396.32a.376.376,0,0,0-.37-.37h-2.29v8.97a1.594,1.594,0,0,1-1.1,1.58,1.744,1.744,0,0,1-1.9-.93l-1.37-2.2-1.37,2.2a1.717,1.717,0,0,1-1.89.93,1.6,1.6,0,0,1-1.1-1.59v-8.99h-9.82a2.9,2.9,0,0,0-2.89,2.89v24.02a4.66,4.66,0,0,1,2.89-1.01h20.84C1306.51,421.84,1306.63,421.85,1306.75,421.87Zm0,5.53-20.31.02a.88.88,0,1,1,0-1.76l20.31-.02v-1.65a.376.376,0,0,0-.37-.37h-20.84a2.9,2.9,0,1,0,0,5.8h20.84a.363.363,0,0,0,.26-.11.38.38,0,0,0,.11-.26Zm-10.51-33.23h10.13a2.153,2.153,0,0,1,2.15,2.15v32.74a2.084,2.084,0,0,1-2.14,2.11h-20.84a4.688,4.688,0,0,1-4.68-4.66V398.82a4.7,4.7,0,0,1,4.68-4.66h10.7Z" transform="translate(-1280.86 -394.16)" fill="#fff"/>
</svg>
