<svg xmlns="http://www.w3.org/2000/svg" width="44.427" height="46.987" viewBox="0 0 44.427 46.987">
  <path id="Vocational_Courses" data-name="Vocational Courses" d="M34.917,45.778l-16.57-16.57-1.04,1.039a.748.748,0,0,1-.52.211.734.734,0,0,1-.519-.211l-6.21-6.21a.729.729,0,0,1,0-1.04l1.04-1.04-2.59-2.589-1.04,1.04a.747.747,0,0,1-.52.21.734.734,0,0,1-.52-.21L.217,14.2a.732.732,0,0,1,0-1.04l8.33-8.33a.742.742,0,0,1,.95-.07,4.43,4.43,0,0,0,5.781-.44l4.1-4.1a.73.73,0,0,1,1.04,0l3.11,3.11a.782.782,0,0,1,.211.52.718.718,0,0,1-.211.52l-8.8,8.8,2.589,2.589,8.8-8.8a.73.73,0,0,1,1.04,0l3.109,3.109a.782.782,0,0,1,.211.52.718.718,0,0,1-.211.52l-4.1,4.1a4.43,4.43,0,0,0-.44,5.781.718.718,0,0,1-.07.949l-1.08,1.08,16.56,16.54a.729.729,0,0,1,0,1.04l-5.18,5.18a.75.75,0,0,1-.519.21h-.007A.734.734,0,0,1,34.917,45.778Zm-1.55-7.73a.736.736,0,0,1,0,1.04l-1.55,1.55,3.63,3.62,4.08-4.189L23.477,24.017l-4.14,4.14,1.039,1.04,1.551-1.55a.735.735,0,1,1,1.039,1.039l-1.55,1.551,1.039,1.039,1.551-1.55a.735.735,0,0,1,1.04,1.039L23.5,32.318l1.04,1.04,1.55-1.55a.735.735,0,0,1,1.039,1.04L25.577,34.4l1.04,1.039,1.55-1.55a.735.735,0,1,1,1.039,1.04l-1.55,1.55,1.04,1.04,1.55-1.55a.736.736,0,1,1,1.04,1.04l-1.551,1.55,1.04,1.04,1.55-1.55a.736.736,0,0,1,1.04,0Zm-21.74-14.51,5.18,5.18,7.39-7.4a5.883,5.883,0,0,1,.94-7.15l3.58-3.58-2.07-2.07Zm1.55-5.7a.735.735,0,0,1,0,1.039l-1.55,1.55.52.52,4.13-4.15-2.59-2.59-4.14,4.14,1.04,1.04,1.55-1.55a.735.735,0,0,1,1.039,0Zm-1.55-5.7a.736.736,0,0,1,0,1.04L6.448,18.357l.519.52,15.02-15.03-2.07-2.07-3.58,3.58a5.882,5.882,0,0,1-7.15.93l-7.4,7.4,3.62,3.631,5.18-5.18a.735.735,0,0,1,1.039,0ZM35.968,42.1a1.465,1.465,0,0,1-1.031-2.5,1.421,1.421,0,0,1,1.031-.429,1.441,1.441,0,0,1,1.039.429,1.465,1.465,0,0,1-1.035,2.5ZM7.407,32.917a2.26,2.26,0,1,1,2.26,2.26A2.26,2.26,0,0,1,7.407,32.917Zm1.46,0a.8.8,0,1,0,.8-.8A.8.8,0,0,0,8.867,32.917Zm6.391-7.83a2.191,2.191,0,0,1,0-3.1,2.24,2.24,0,0,1,3.1,0,2.18,2.18,0,0,1,.64,1.55,2.153,2.153,0,0,1-.64,1.55,2.192,2.192,0,0,1-3.1,0Zm1.04-2.07a.726.726,0,0,0-.22.52.717.717,0,0,0,.21.52.748.748,0,0,0,1.04,0,.768.768,0,0,0,.22-.52.717.717,0,0,0-.21-.52.762.762,0,0,0-.52-.21H16.8A.717.717,0,0,0,16.3,23.017Zm22.61-1.09a2.26,2.26,0,1,1,2.26,2.26A2.26,2.26,0,0,1,38.907,21.928Zm1.46,0a.8.8,0,1,0,.8-.8A.8.8,0,0,0,40.367,21.928Zm-6.809-1.78-.52-.52-.52.52a.752.752,0,0,1-.52.211.734.734,0,0,1-.519-.211.748.748,0,0,1,0-1.039l.519-.52-.519-.52a.735.735,0,0,1,1.04-1.04l.52.519.52-.519a.735.735,0,0,1,1.04,1.04l-.519.52.519.52a.729.729,0,0,1,0,1.039.751.751,0,0,1-.519.211h0A.734.734,0,0,1,33.557,20.147Zm2.4-13.289a.73.73,0,1,1,.731.73A.731.731,0,0,1,35.957,6.858Z" transform="translate(0.5 0.5)" fill="#1068b2" stroke="#1068b2" stroke-width="1"/>
</svg>
