<?xml version="1.0" encoding="UTF-8" standalone="no"?>
<!DOCTYPE svg PUBLIC "-//W3C//DTD SVG 1.1//EN"
 "http://www.w3.org/Graphics/SVG/1.1/DTD/svg11.dtd">
<!-- Generated by graphviz version 2.47.3 (20210619.1520)
 -->
<!-- Title: dependencies Pages: 1 -->
<svg width="2034pt" height="247pt"
 viewBox="0.00 0.00 2034.00 246.80" xmlns="http://www.w3.org/2000/svg" xmlns:xlink="http://www.w3.org/1999/xlink">
<g id="graph0" class="graph" transform="scale(1 1) rotate(0) translate(4 242.8)">
<title>dependencies</title>
<polygon fill="white" stroke="transparent" points="-4,4 -4,-242.8 2030,-242.8 2030,4 -4,4"/>
<text text-anchor="middle" x="1013" y="-8.2" font-family="sans-serif" font-size="14.00">dependencies</text>
<g id="clust1" class="cluster">
<title>cluster_AppModule</title>
<polygon fill="none" stroke="black" stroke-dasharray="1,5" points="8,-32.8 8,-230.8 2018,-230.8 2018,-32.8 8,-32.8"/>
</g>
<g id="clust11" class="cluster">
<title>cluster_AppModule_providers</title>
<polygon fill="none" stroke="black" points="1269,-40.8 1269,-92.8 2010,-92.8 2010,-40.8 1269,-40.8"/>
</g>
<g id="clust2" class="cluster">
<title>cluster_AppModule_declarations</title>
<polygon fill="none" stroke="black" points="416,-40.8 416,-92.8 1261,-92.8 1261,-40.8 416,-40.8"/>
</g>
<g id="clust8" class="cluster">
<title>cluster_AppModule_imports</title>
<polygon fill="none" stroke="black" points="16,-40.8 16,-92.8 408,-92.8 408,-40.8 16,-40.8"/>
</g>
<g id="clust10" class="cluster">
<title>cluster_AppModule_bootstrap</title>
<polygon fill="none" stroke="black" points="861,-170.8 861,-222.8 985,-222.8 985,-170.8 861,-170.8"/>
</g>
<!-- AlertComponentComponent -->
<g id="node1" class="node">
<title>AlertComponentComponent</title>
<polygon fill="#ffffb3" stroke="black" points="1252.93,-84.8 1077.07,-84.8 1077.07,-48.8 1252.93,-48.8 1252.93,-84.8"/>
<text text-anchor="middle" x="1165" y="-62.6" font-family="Times,serif" font-size="14.00">AlertComponentComponent</text>
</g>
<!-- AppModule -->
<g id="node6" class="node">
<title>AppModule</title>
<polygon fill="#8dd3c7" stroke="black" points="964.66,-149.8 961.66,-153.8 940.66,-153.8 937.66,-149.8 881.34,-149.8 881.34,-113.8 964.66,-113.8 964.66,-149.8"/>
<text text-anchor="middle" x="923" y="-127.6" font-family="Times,serif" font-size="14.00">AppModule</text>
</g>
<!-- AlertComponentComponent&#45;&gt;AppModule -->
<g id="edge1" class="edge">
<title>AlertComponentComponent&#45;&gt;AppModule</title>
<path fill="none" stroke="black" d="M1165,-85.04C1165,-100.37 1165,-119.8 1165,-119.8 1165,-119.8 974.88,-119.8 974.88,-119.8"/>
<polygon fill="black" stroke="black" points="974.88,-116.3 964.88,-119.8 974.88,-123.3 974.88,-116.3"/>
</g>
<!-- AppComponent -->
<g id="node2" class="node">
<title>AppComponent</title>
<polygon fill="#ffffb3" stroke="black" points="1059.94,-84.8 954.06,-84.8 954.06,-48.8 1059.94,-48.8 1059.94,-84.8"/>
<text text-anchor="middle" x="1007" y="-62.6" font-family="Times,serif" font-size="14.00">AppComponent</text>
</g>
<!-- AppComponent&#45;&gt;AppModule -->
<g id="edge2" class="edge">
<title>AppComponent&#45;&gt;AppModule</title>
<path fill="none" stroke="black" d="M959.55,-84.91C959.55,-84.91 959.55,-103.79 959.55,-103.79"/>
<polygon fill="black" stroke="black" points="956.05,-103.79 959.55,-113.79 963.05,-103.79 956.05,-103.79"/>
</g>
<!-- KnowledgePreviewComponent -->
<g id="node3" class="node">
<title>KnowledgePreviewComponent</title>
<polygon fill="#ffffb3" stroke="black" points="935.74,-84.8 744.26,-84.8 744.26,-48.8 935.74,-48.8 935.74,-84.8"/>
<text text-anchor="middle" x="840" y="-62.6" font-family="Times,serif" font-size="14.00">KnowledgePreviewComponent</text>
</g>
<!-- KnowledgePreviewComponent&#45;&gt;AppModule -->
<g id="edge3" class="edge">
<title>KnowledgePreviewComponent&#45;&gt;AppModule</title>
<path fill="none" stroke="black" d="M908.52,-84.91C908.52,-84.91 908.52,-103.79 908.52,-103.79"/>
<polygon fill="black" stroke="black" points="905.02,-103.79 908.52,-113.79 912.02,-103.79 905.02,-103.79"/>
</g>
<!-- NotFoundComponent -->
<g id="node4" class="node">
<title>NotFoundComponent</title>
<polygon fill="#ffffb3" stroke="black" points="726.11,-84.8 587.89,-84.8 587.89,-48.8 726.11,-48.8 726.11,-84.8"/>
<text text-anchor="middle" x="657" y="-62.6" font-family="Times,serif" font-size="14.00">NotFoundComponent</text>
</g>
<!-- NotFoundComponent&#45;&gt;AppModule -->
<g id="edge4" class="edge">
<title>NotFoundComponent&#45;&gt;AppModule</title>
<path fill="none" stroke="black" d="M657,-85.04C657,-100.37 657,-119.8 657,-119.8 657,-119.8 871.14,-119.8 871.14,-119.8"/>
<polygon fill="black" stroke="black" points="871.14,-123.3 881.14,-119.8 871.14,-116.3 871.14,-123.3"/>
</g>
<!-- RedirectionComponent -->
<g id="node5" class="node">
<title>RedirectionComponent</title>
<polygon fill="#ffffb3" stroke="black" points="570.15,-84.8 423.85,-84.8 423.85,-48.8 570.15,-48.8 570.15,-84.8"/>
<text text-anchor="middle" x="497" y="-62.6" font-family="Times,serif" font-size="14.00">RedirectionComponent</text>
</g>
<!-- RedirectionComponent&#45;&gt;AppModule -->
<g id="edge5" class="edge">
<title>RedirectionComponent&#45;&gt;AppModule</title>
<path fill="none" stroke="black" d="M497,-84.83C497,-101.86 497,-124.8 497,-124.8 497,-124.8 870.99,-124.8 870.99,-124.8"/>
<polygon fill="black" stroke="black" points="870.99,-128.3 880.99,-124.8 870.99,-121.3 870.99,-128.3"/>
</g>
<!-- AppComponent  -->
<g id="node10" class="node">
<title>AppComponent </title>
<polygon fill="#80b1d3" stroke="black" points="977.44,-214.8 868.56,-214.8 868.56,-178.8 977.44,-178.8 977.44,-214.8"/>
<text text-anchor="middle" x="923" y="-192.6" font-family="Times,serif" font-size="14.00">AppComponent </text>
</g>
<!-- AppModule&#45;&gt;AppComponent  -->
<g id="edge10" class="edge">
<title>AppModule&#45;&gt;AppComponent </title>
<path fill="none" stroke="black" stroke-dasharray="1,5" d="M923,-149.91C923,-149.91 923,-168.79 923,-168.79"/>
<polygon fill="black" stroke="black" points="919.5,-168.79 923,-178.79 926.5,-168.79 919.5,-168.79"/>
</g>
<!-- AppRoutingModule -->
<g id="node7" class="node">
<title>AppRoutingModule</title>
<polygon fill="#8dd3c7" stroke="black" points="400.27,-84.8 397.27,-88.8 376.27,-88.8 373.27,-84.8 271.73,-84.8 271.73,-48.8 400.27,-48.8 400.27,-84.8"/>
<text text-anchor="middle" x="336" y="-62.6" font-family="Times,serif" font-size="14.00">AppRoutingModule</text>
</g>
<!-- AppRoutingModule&#45;&gt;AppModule -->
<g id="edge6" class="edge">
<title>AppRoutingModule&#45;&gt;AppModule</title>
<path fill="none" stroke="black" d="M336,-85.02C336,-103.63 336,-129.8 336,-129.8 336,-129.8 871.25,-129.8 871.25,-129.8"/>
<polygon fill="black" stroke="black" points="871.26,-133.3 881.25,-129.8 871.25,-126.3 871.26,-133.3"/>
</g>
<!-- GraphqlModule -->
<g id="node8" class="node">
<title>GraphqlModule</title>
<polygon fill="#8dd3c7" stroke="black" points="253.92,-84.8 250.92,-88.8 229.92,-88.8 226.92,-84.8 148.08,-84.8 148.08,-48.8 253.92,-48.8 253.92,-84.8"/>
<text text-anchor="middle" x="201" y="-62.6" font-family="Times,serif" font-size="14.00">GraphqlModule</text>
</g>
<!-- GraphqlModule&#45;&gt;AppModule -->
<g id="edge7" class="edge">
<title>GraphqlModule&#45;&gt;AppModule</title>
<path fill="none" stroke="black" d="M218.57,-85.02C218.57,-105.17 218.57,-134.8 218.57,-134.8 218.57,-134.8 871.3,-134.8 871.3,-134.8"/>
<polygon fill="black" stroke="black" points="871.3,-138.3 881.3,-134.8 871.3,-131.3 871.3,-138.3"/>
</g>
<!-- GraphqlModule&#45;&gt;AppModule -->
<g id="edge8" class="edge">
<title>GraphqlModule&#45;&gt;AppModule</title>
<path fill="none" stroke="black" d="M183.43,-84.84C183.43,-106.46 183.43,-139.8 183.43,-139.8 183.43,-139.8 871.12,-139.8 871.12,-139.8"/>
<polygon fill="black" stroke="black" points="871.12,-143.3 881.12,-139.8 871.12,-136.3 871.12,-143.3"/>
</g>
<!-- MaterialModule -->
<g id="node9" class="node">
<title>MaterialModule</title>
<polygon fill="#8dd3c7" stroke="black" points="130.47,-84.8 127.47,-88.8 106.47,-88.8 103.47,-84.8 23.53,-84.8 23.53,-48.8 130.47,-48.8 130.47,-84.8"/>
<text text-anchor="middle" x="77" y="-62.6" font-family="Times,serif" font-size="14.00">MaterialModule</text>
</g>
<!-- MaterialModule&#45;&gt;AppModule -->
<g id="edge9" class="edge">
<title>MaterialModule&#45;&gt;AppModule</title>
<path fill="none" stroke="black" d="M77,-84.89C77,-107.93 77,-144.8 77,-144.8 77,-144.8 871.34,-144.8 871.34,-144.8"/>
<polygon fill="black" stroke="black" points="871.34,-148.3 881.34,-144.8 871.34,-141.3 871.34,-148.3"/>
</g>
<!-- ErrorInterceptor -->
<g id="node11" class="node">
<title>ErrorInterceptor</title>
<ellipse fill="#fdb462" stroke="black" cx="1928" cy="-66.8" rx="73.53" ry="18"/>
<text text-anchor="middle" x="1928" y="-62.6" font-family="Times,serif" font-size="14.00">ErrorInterceptor</text>
</g>
<!-- ErrorInterceptor&#45;&gt;AppModule -->
<g id="edge11" class="edge">
<title>ErrorInterceptor&#45;&gt;AppModule</title>
<path fill="none" stroke="black" d="M1928,-84.89C1928,-107.93 1928,-144.8 1928,-144.8 1928,-144.8 974.9,-144.8 974.9,-144.8"/>
<polygon fill="black" stroke="black" points="974.9,-141.3 964.9,-144.8 974.9,-148.3 974.9,-141.3"/>
</g>
<!-- GoogleAnalyticsService -->
<g id="node12" class="node">
<title>GoogleAnalyticsService</title>
<ellipse fill="#fdb462" stroke="black" cx="1731" cy="-66.8" rx="105.35" ry="18"/>
<text text-anchor="middle" x="1731" y="-62.6" font-family="Times,serif" font-size="14.00">GoogleAnalyticsService</text>
</g>
<!-- GoogleAnalyticsService&#45;&gt;AppModule -->
<g id="edge12" class="edge">
<title>GoogleAnalyticsService&#45;&gt;AppModule</title>
<path fill="none" stroke="black" d="M1731,-84.84C1731,-106.46 1731,-139.8 1731,-139.8 1731,-139.8 974.74,-139.8 974.74,-139.8"/>
<polygon fill="black" stroke="black" points="974.74,-136.3 964.74,-139.8 974.74,-143.3 974.74,-136.3"/>
</g>
<!-- InterceptorService -->
<g id="node13" class="node">
<title>InterceptorService</title>
<ellipse fill="#fdb462" stroke="black" cx="1525" cy="-66.8" rx="82.2" ry="18"/>
<text text-anchor="middle" x="1525" y="-62.6" font-family="Times,serif" font-size="14.00">InterceptorService</text>
</g>
<!-- InterceptorService&#45;&gt;AppModule -->
<g id="edge13" class="edge">
<title>InterceptorService&#45;&gt;AppModule</title>
<path fill="none" stroke="black" d="M1497.55,-84.02C1497.55,-102.67 1497.55,-129.8 1497.55,-129.8 1497.55,-129.8 974.78,-129.8 974.78,-129.8"/>
<polygon fill="black" stroke="black" points="974.78,-126.3 964.78,-129.8 974.78,-133.3 974.78,-126.3"/>
</g>
<!-- InterceptorService&#45;&gt;AppModule -->
<g id="edge14" class="edge">
<title>InterceptorService&#45;&gt;AppModule</title>
<path fill="none" stroke="black" d="M1552.45,-83.96C1552.45,-104.1 1552.45,-134.8 1552.45,-134.8 1552.45,-134.8 974.79,-134.8 974.79,-134.8"/>
<polygon fill="black" stroke="black" points="974.79,-131.3 964.79,-134.8 974.79,-138.3 974.79,-131.3"/>
</g>
<!-- SocketioService -->
<g id="node14" class="node">
<title>SocketioService</title>
<ellipse fill="#fdb462" stroke="black" cx="1351" cy="-66.8" rx="73.57" ry="18"/>
<text text-anchor="middle" x="1351" y="-62.6" font-family="Times,serif" font-size="14.00">SocketioService</text>
</g>
<!-- SocketioService&#45;&gt;AppModule -->
<g id="edge15" class="edge">
<title>SocketioService&#45;&gt;AppModule</title>
<path fill="none" stroke="black" d="M1351,-84.83C1351,-101.86 1351,-124.8 1351,-124.8 1351,-124.8 974.82,-124.8 974.82,-124.8"/>
<polygon fill="black" stroke="black" points="974.82,-121.3 964.82,-124.8 974.82,-128.3 974.82,-121.3"/>
</g>
</g>
</svg>
