<?xml version="1.0" encoding="UTF-8" standalone="no"?>
<!DOCTYPE svg PUBLIC "-//W3C//DTD SVG 1.1//EN"
 "http://www.w3.org/Graphics/SVG/1.1/DTD/svg11.dtd">
<!-- Generated by graphviz version 2.47.3 (20210619.1520)
 -->
<!-- Title: dependencies Pages: 1 -->
<svg width="1868pt" height="247pt"
 viewBox="0.00 0.00 1868.00 246.80" xmlns="http://www.w3.org/2000/svg" xmlns:xlink="http://www.w3.org/1999/xlink">
<g id="graph0" class="graph" transform="scale(1 1) rotate(0) translate(4 242.8)">
<title>dependencies</title>
<polygon fill="white" stroke="transparent" points="-4,4 -4,-242.8 1864,-242.8 1864,4 -4,4"/>
<text text-anchor="middle" x="930" y="-8.2" font-family="sans-serif" font-size="14.00">dependencies</text>
<g id="clust1" class="cluster">
<title>cluster_AppModule</title>
<polygon fill="none" stroke="black" stroke-dasharray="1,5" points="8,-32.8 8,-230.8 1852,-230.8 1852,-32.8 8,-32.8"/>
</g>
<g id="clust2" class="cluster">
<title>cluster_AppModule_declarations</title>
<polygon fill="none" stroke="black" points="999,-40.8 999,-92.8 1844,-92.8 1844,-40.8 999,-40.8"/>
</g>
<g id="clust11" class="cluster">
<title>cluster_AppModule_providers</title>
<polygon fill="none" stroke="black" points="416,-40.8 416,-92.8 991,-92.8 991,-40.8 416,-40.8"/>
</g>
<g id="clust10" class="cluster">
<title>cluster_AppModule_bootstrap</title>
<polygon fill="none" stroke="black" points="650,-170.8 650,-222.8 774,-222.8 774,-170.8 650,-170.8"/>
</g>
<g id="clust8" class="cluster">
<title>cluster_AppModule_imports</title>
<polygon fill="none" stroke="black" points="16,-40.8 16,-92.8 408,-92.8 408,-40.8 16,-40.8"/>
</g>
<!-- AlertComponentComponent -->
<g id="node1" class="node">
<title>AlertComponentComponent</title>
<polygon fill="#ffffb3" stroke="black" points="1835.93,-84.8 1660.07,-84.8 1660.07,-48.8 1835.93,-48.8 1835.93,-84.8"/>
<text text-anchor="middle" x="1748" y="-62.6" font-family="Times,serif" font-size="14.00">AlertComponentComponent</text>
</g>
<!-- AppModule -->
<g id="node6" class="node">
<title>AppModule</title>
<polygon fill="#8dd3c7" stroke="black" points="753.66,-149.8 750.66,-153.8 729.66,-153.8 726.66,-149.8 670.34,-149.8 670.34,-113.8 753.66,-113.8 753.66,-149.8"/>
<text text-anchor="middle" x="712" y="-127.6" font-family="Times,serif" font-size="14.00">AppModule</text>
</g>
<!-- AlertComponentComponent&#45;&gt;AppModule -->
<g id="edge1" class="edge">
<title>AlertComponentComponent&#45;&gt;AppModule</title>
<path fill="none" stroke="black" d="M1748,-84.89C1748,-107.93 1748,-144.8 1748,-144.8 1748,-144.8 763.9,-144.8 763.9,-144.8"/>
<polygon fill="black" stroke="black" points="763.9,-141.3 753.9,-144.8 763.9,-148.3 763.9,-141.3"/>
</g>
<!-- AppComponent -->
<g id="node2" class="node">
<title>AppComponent</title>
<polygon fill="#ffffb3" stroke="black" points="1642.94,-84.8 1537.06,-84.8 1537.06,-48.8 1642.94,-48.8 1642.94,-84.8"/>
<text text-anchor="middle" x="1590" y="-62.6" font-family="Times,serif" font-size="14.00">AppComponent</text>
</g>
<!-- AppComponent&#45;&gt;AppModule -->
<g id="edge2" class="edge">
<title>AppComponent&#45;&gt;AppModule</title>
<path fill="none" stroke="black" d="M1590,-84.84C1590,-106.46 1590,-139.8 1590,-139.8 1590,-139.8 763.76,-139.8 763.76,-139.8"/>
<polygon fill="black" stroke="black" points="763.76,-136.3 753.76,-139.8 763.76,-143.3 763.76,-136.3"/>
</g>
<!-- KnowledgePreviewComponent -->
<g id="node3" class="node">
<title>KnowledgePreviewComponent</title>
<polygon fill="#ffffb3" stroke="black" points="1518.74,-84.8 1327.26,-84.8 1327.26,-48.8 1518.74,-48.8 1518.74,-84.8"/>
<text text-anchor="middle" x="1423" y="-62.6" font-family="Times,serif" font-size="14.00">KnowledgePreviewComponent</text>
</g>
<!-- KnowledgePreviewComponent&#45;&gt;AppModule -->
<g id="edge3" class="edge">
<title>KnowledgePreviewComponent&#45;&gt;AppModule</title>
<path fill="none" stroke="black" d="M1423,-85.02C1423,-105.17 1423,-134.8 1423,-134.8 1423,-134.8 763.82,-134.8 763.82,-134.8"/>
<polygon fill="black" stroke="black" points="763.82,-131.3 753.82,-134.8 763.82,-138.3 763.82,-131.3"/>
</g>
<!-- NotFoundComponent -->
<g id="node4" class="node">
<title>NotFoundComponent</title>
<polygon fill="#ffffb3" stroke="black" points="1309.11,-84.8 1170.89,-84.8 1170.89,-48.8 1309.11,-48.8 1309.11,-84.8"/>
<text text-anchor="middle" x="1240" y="-62.6" font-family="Times,serif" font-size="14.00">NotFoundComponent</text>
</g>
<!-- NotFoundComponent&#45;&gt;AppModule -->
<g id="edge4" class="edge">
<title>NotFoundComponent&#45;&gt;AppModule</title>
<path fill="none" stroke="black" d="M1240,-85.02C1240,-103.63 1240,-129.8 1240,-129.8 1240,-129.8 763.87,-129.8 763.87,-129.8"/>
<polygon fill="black" stroke="black" points="763.87,-126.3 753.87,-129.8 763.87,-133.3 763.87,-126.3"/>
</g>
<!-- RedirectionComponent -->
<g id="node5" class="node">
<title>RedirectionComponent</title>
<polygon fill="#ffffb3" stroke="black" points="1153.15,-84.8 1006.85,-84.8 1006.85,-48.8 1153.15,-48.8 1153.15,-84.8"/>
<text text-anchor="middle" x="1080" y="-62.6" font-family="Times,serif" font-size="14.00">RedirectionComponent</text>
</g>
<!-- RedirectionComponent&#45;&gt;AppModule -->
<g id="edge5" class="edge">
<title>RedirectionComponent&#45;&gt;AppModule</title>
<path fill="none" stroke="black" d="M1080,-84.83C1080,-101.86 1080,-124.8 1080,-124.8 1080,-124.8 763.86,-124.8 763.86,-124.8"/>
<polygon fill="black" stroke="black" points="763.86,-121.3 753.86,-124.8 763.86,-128.3 763.86,-121.3"/>
</g>
<!-- AppComponent  -->
<g id="node10" class="node">
<title>AppComponent </title>
<polygon fill="#80b1d3" stroke="black" points="766.44,-214.8 657.56,-214.8 657.56,-178.8 766.44,-178.8 766.44,-214.8"/>
<text text-anchor="middle" x="712" y="-192.6" font-family="Times,serif" font-size="14.00">AppComponent </text>
</g>
<!-- AppModule&#45;&gt;AppComponent  -->
<g id="edge10" class="edge">
<title>AppModule&#45;&gt;AppComponent </title>
<path fill="none" stroke="black" stroke-dasharray="1,5" d="M712,-149.91C712,-149.91 712,-168.79 712,-168.79"/>
<polygon fill="black" stroke="black" points="708.5,-168.79 712,-178.79 715.5,-168.79 708.5,-168.79"/>
</g>
<!-- AppRoutingModule -->
<g id="node7" class="node">
<title>AppRoutingModule</title>
<polygon fill="#8dd3c7" stroke="black" points="400.27,-84.8 397.27,-88.8 376.27,-88.8 373.27,-84.8 271.73,-84.8 271.73,-48.8 400.27,-48.8 400.27,-84.8"/>
<text text-anchor="middle" x="336" y="-62.6" font-family="Times,serif" font-size="14.00">AppRoutingModule</text>
</g>
<!-- AppRoutingModule&#45;&gt;AppModule -->
<g id="edge6" class="edge">
<title>AppRoutingModule&#45;&gt;AppModule</title>
<path fill="none" stroke="black" d="M336,-85.02C336,-103.63 336,-129.8 336,-129.8 336,-129.8 660.32,-129.8 660.32,-129.8"/>
<polygon fill="black" stroke="black" points="660.32,-133.3 670.32,-129.8 660.32,-126.3 660.32,-133.3"/>
</g>
<!-- GraphqlModule -->
<g id="node8" class="node">
<title>GraphqlModule</title>
<polygon fill="#8dd3c7" stroke="black" points="253.92,-84.8 250.92,-88.8 229.92,-88.8 226.92,-84.8 148.08,-84.8 148.08,-48.8 253.92,-48.8 253.92,-84.8"/>
<text text-anchor="middle" x="201" y="-62.6" font-family="Times,serif" font-size="14.00">GraphqlModule</text>
</g>
<!-- GraphqlModule&#45;&gt;AppModule -->
<g id="edge7" class="edge">
<title>GraphqlModule&#45;&gt;AppModule</title>
<path fill="none" stroke="black" d="M218.57,-85.02C218.57,-105.17 218.57,-134.8 218.57,-134.8 218.57,-134.8 659.93,-134.8 659.93,-134.8"/>
<polygon fill="black" stroke="black" points="659.93,-138.3 669.93,-134.8 659.93,-131.3 659.93,-138.3"/>
</g>
<!-- GraphqlModule&#45;&gt;AppModule -->
<g id="edge8" class="edge">
<title>GraphqlModule&#45;&gt;AppModule</title>
<path fill="none" stroke="black" d="M183.43,-84.84C183.43,-106.46 183.43,-139.8 183.43,-139.8 183.43,-139.8 660.08,-139.8 660.08,-139.8"/>
<polygon fill="black" stroke="black" points="660.08,-143.3 670.08,-139.8 660.08,-136.3 660.08,-143.3"/>
</g>
<!-- MaterialModule -->
<g id="node9" class="node">
<title>MaterialModule</title>
<polygon fill="#8dd3c7" stroke="black" points="130.47,-84.8 127.47,-88.8 106.47,-88.8 103.47,-84.8 23.53,-84.8 23.53,-48.8 130.47,-48.8 130.47,-84.8"/>
<text text-anchor="middle" x="77" y="-62.6" font-family="Times,serif" font-size="14.00">MaterialModule</text>
</g>
<!-- MaterialModule&#45;&gt;AppModule -->
<g id="edge9" class="edge">
<title>MaterialModule&#45;&gt;AppModule</title>
<path fill="none" stroke="black" d="M77,-84.89C77,-107.93 77,-144.8 77,-144.8 77,-144.8 660.34,-144.8 660.34,-144.8"/>
<polygon fill="black" stroke="black" points="660.34,-148.3 670.34,-144.8 660.34,-141.3 660.34,-148.3"/>
</g>
<!-- ErrorInterceptor -->
<g id="node11" class="node">
<title>ErrorInterceptor</title>
<ellipse fill="#fdb462" stroke="black" cx="909" cy="-66.8" rx="73.53" ry="18"/>
<text text-anchor="middle" x="909" y="-62.6" font-family="Times,serif" font-size="14.00">ErrorInterceptor</text>
</g>
<!-- ErrorInterceptor&#45;&gt;AppModule -->
<g id="edge11" class="edge">
<title>ErrorInterceptor&#45;&gt;AppModule</title>
<path fill="none" stroke="black" d="M909,-85.04C909,-100.37 909,-119.8 909,-119.8 909,-119.8 763.78,-119.8 763.78,-119.8"/>
<polygon fill="black" stroke="black" points="763.78,-116.3 753.78,-119.8 763.78,-123.3 763.78,-116.3"/>
</g>
<!-- GoogleAnalyticsService -->
<g id="node12" class="node">
<title>GoogleAnalyticsService</title>
<ellipse fill="#fdb462" stroke="black" cx="712" cy="-66.8" rx="105.35" ry="18"/>
<text text-anchor="middle" x="712" y="-62.6" font-family="Times,serif" font-size="14.00">GoogleAnalyticsService</text>
</g>
<!-- GoogleAnalyticsService&#45;&gt;AppModule -->
<g id="edge12" class="edge">
<title>GoogleAnalyticsService&#45;&gt;AppModule</title>
<path fill="none" stroke="black" d="M712,-84.91C712,-84.91 712,-103.79 712,-103.79"/>
<polygon fill="black" stroke="black" points="708.5,-103.79 712,-113.79 715.5,-103.79 708.5,-103.79"/>
</g>
<!-- InterceptorService -->
<g id="node13" class="node">
<title>InterceptorService</title>
<ellipse fill="#fdb462" stroke="black" cx="506" cy="-66.8" rx="82.2" ry="18"/>
<text text-anchor="middle" x="506" y="-62.6" font-family="Times,serif" font-size="14.00">InterceptorService</text>
</g>
<!-- InterceptorService&#45;&gt;AppModule -->
<g id="edge13" class="edge">
<title>InterceptorService&#45;&gt;AppModule</title>
<path fill="none" stroke="black" d="M533.45,-83.86C533.45,-99.35 533.45,-119.8 533.45,-119.8 533.45,-119.8 660.14,-119.8 660.14,-119.8"/>
<polygon fill="black" stroke="black" points="660.14,-123.3 670.14,-119.8 660.14,-116.3 660.14,-123.3"/>
</g>
<!-- InterceptorService&#45;&gt;AppModule -->
<g id="edge14" class="edge">
<title>InterceptorService&#45;&gt;AppModule</title>
<path fill="none" stroke="black" d="M478.55,-83.89C478.55,-101 478.55,-124.8 478.55,-124.8 478.55,-124.8 660.26,-124.8 660.26,-124.8"/>
<polygon fill="black" stroke="black" points="660.26,-128.3 670.26,-124.8 660.26,-121.3 660.26,-128.3"/>
</g>
</g>
</svg>
