<svg xmlns="http://www.w3.org/2000/svg" width="19.016" height="24" viewBox="0 0 19.016 24">
  <path id="Asset_Download" d="M5201.589,1280.927a3.168,3.168,0,0,1-3.154-3.148v-17.7a3.168,3.168,0,0,1,3.154-3.147h9.362a.578.578,0,0,1,.417.186l5.913,6.2a.626.626,0,0,1,.169.406v14.057a3.168,3.168,0,0,1-3.154,3.148Zm-1.994-20.853v17.7a2.009,2.009,0,0,0,1.994,1.989H5214.3a2,2,0,0,0,1.994-1.989v-13.49h-3.369a2.536,2.536,0,0,1-2.544-2.539v-3.664h-8.788A2.008,2.008,0,0,0,5199.595,1260.074Zm11.941,1.676a1.381,1.381,0,0,0,1.385,1.379h2.575l-3.96-4.156Zm-9.371,16.308c-.385,0-.7-.19-.7-.423s.316-.423.7-.423h11.552c.393,0,.709.19.709.423s-.316.423-.7.423Zm5.471-6.595-2.472-2.657a.421.421,0,0,1,.617-.574l1.739,1.87v-4.612a.423.423,0,0,1,.846,0v4.612l1.744-1.87a.421.421,0,0,1,.617.574l-2.476,2.657a.419.419,0,0,1-.616,0Z" transform="translate(-5198.435 -1256.927)"/>
</svg>
