<svg xmlns="http://www.w3.org/2000/svg" width="33.984" height="34.001" viewBox="0 0 33.984 34.001">
  <path id="Bar_Chart" data-name="Bar Chart" d="M.992,34a.993.993,0,0,1,0-1.986H2.048V20.958a.993.993,0,0,1,1-.993h3.98a.993.993,0,0,1,1,.993v11.06h1.988V24.934a.994.994,0,0,1,1-.994h3.977a.994.994,0,0,1,1,.994v7.081h1.992V16.985a1,1,0,0,1,1-.993h3.981a.994.994,0,0,1,1,.993v15.03h1.988V11.026a.994.994,0,0,1,1-.993h3.98a.994.994,0,0,1,1,.993V32.015h1.059a.993.993,0,0,1,0,1.986ZM11.916,19.844a2.984,2.984,0,0,1-1.888-2.789,2.939,2.939,0,0,1,.037-.365L7.115,15.206a2.96,2.96,0,0,1-2.066.846h0a2.985,2.985,0,1,1,2.985-3.01,2.939,2.939,0,0,1-.037.365l2.946,1.485a2.916,2.916,0,0,1,3.345-.545l4-4.028a2.994,2.994,0,0,1,2.686-4.3,2.947,2.947,0,0,1,1.652.506L26.1,3.9a2.992,2.992,0,0,1-.149-.891,3.01,3.01,0,1,1,2.985,3.01,2.955,2.955,0,0,1-1.653-.506L23.813,8.138a2.965,2.965,0,0,1-4.115,3.6l-4,4.028a2.985,2.985,0,0,1-3.783,4.078Z" fill="#203bbea8"/>
</svg>
