<svg id="_001-timetable" data-name="001-timetable" xmlns="http://www.w3.org/2000/svg" width="16" height="16" viewBox="0 0 16 16">
  <path id="Path_13329" data-name="Path 13329" d="M15.063,9.133v-7.7a.469.469,0,0,0-.469-.469H12.219v-.5a.469.469,0,0,0-.937,0v.5H9.406v-.5a.469.469,0,0,0-.937,0v.5H6.594v-.5a.469.469,0,0,0-.937,0v.5H3.781v-.5a.469.469,0,0,0-.937,0v.5H.469A.469.469,0,0,0,0,1.438V13.656a.469.469,0,0,0,.469.469H8.275a4.217,4.217,0,1,0,6.787-4.992ZM2.844,1.906v.469a.469.469,0,0,0,.938,0V1.906H5.656v.469a.469.469,0,0,0,.938,0V1.906H8.469v.469a.469.469,0,0,0,.938,0V1.906h1.875v.469a.469.469,0,0,0,.938,0V1.906h1.906V3.781H.938V1.906ZM.938,13.188V4.719H14.125V8.275A4.214,4.214,0,0,0,8.242,9.488a.466.466,0,0,0-.211-.05H7.094a.469.469,0,0,0,0,.938H7.8a4.184,4.184,0,0,0-.215.938H7.094a.469.469,0,0,0,0,.938h.495a4.177,4.177,0,0,0,.215.938Zm10.844,1.875a3.281,3.281,0,1,1,3.281-3.281A3.285,3.285,0,0,1,11.781,15.063Zm0,0" fill="#666"/>
  <path id="Path_13330" data-name="Path 13330" d="M364.344,303.875h-1.406v-1.406a.469.469,0,0,0-.937,0v1.875a.469.469,0,0,0,.469.469h1.875a.469.469,0,0,0,0-.937Zm0,0" transform="translate(-350.688 -292.563)" fill="#666"/>
  <path id="Path_13331" data-name="Path 13331" d="M92.406,182h-.937a.469.469,0,0,0,0,.938h.938a.469.469,0,0,0,0-.937Zm0,0" transform="translate(-88.156 -176.313)" fill="#666"/>
  <path id="Path_13332" data-name="Path 13332" d="M92.406,242h-.937a.469.469,0,0,0,0,.938h.938a.469.469,0,0,0,0-.937Zm0,0" transform="translate(-88.156 -234.438)" fill="#666"/>
  <path id="Path_13333" data-name="Path 13333" d="M92.406,302h-.937a.469.469,0,0,0,0,.938h.938a.469.469,0,0,0,0-.937Zm0,0" transform="translate(-88.156 -292.563)" fill="#666"/>
  <path id="Path_13334" data-name="Path 13334" d="M212.469,182.938h.938a.469.469,0,0,0,0-.937h-.937a.469.469,0,0,0,0,.938Zm0,0" transform="translate(-205.375 -176.313)" fill="#666"/>
  <path id="Path_13335" data-name="Path 13335" d="M212.469,242.938h.938a.469.469,0,0,0,0-.937h-.937a.469.469,0,0,0,0,.938Zm0,0" transform="translate(-205.375 -234.438)" fill="#666"/>
  <path id="Path_13336" data-name="Path 13336" d="M92.406,362h-.937a.469.469,0,0,0,0,.938h.938a.469.469,0,0,0,0-.937Zm0,0" transform="translate(-88.156 -350.688)" fill="#666"/>
  <path id="Path_13337" data-name="Path 13337" d="M332.469,182.938h.938a.469.469,0,0,0,0-.937h-.937a.469.469,0,0,0,0,.938Zm0,0" transform="translate(-321.625 -176.313)" fill="#666"/>
</svg>
