<svg xmlns="http://www.w3.org/2000/svg" width="24" height="19.253" viewBox="0 0 24 19.253">
  <path id="Certificate" d="M2941.158,2319.253a.417.417,0,0,1-.356-.236l-.943-1.956-.944,1.957a.418.418,0,0,1-.355.235h-.021a.418.418,0,0,1-.357-.2l-.543-.882-.974.155a.419.419,0,0,1-.4-.161.407.407,0,0,1-.043-.425l.523-1.084h-14.768a.974.974,0,0,1-.977-.967v-14.725a.973.973,0,0,1,.977-.966h22.046a.973.973,0,0,1,.977.966v14.725a.973.973,0,0,1-.977.967h-1.05l.523,1.084a.406.406,0,0,1-.043.425.419.419,0,0,1-.4.161l-.973-.155-.543.882a.418.418,0,0,1-.357.2Zm-.573-2.6c-.035.024-.072.047-.109.068l.734,1.523.369-.6a.416.416,0,0,1,.423-.193l.625.1-.659-1.365a1.261,1.261,0,0,1-1.013.368l-.051,0A.552.552,0,0,0,2940.584,2316.656Zm-2.446.993.368.6.735-1.523a1.19,1.19,0,0,1-.109-.068.556.556,0,0,0-.371-.1,1.261,1.261,0,0,1-1.013-.368l-.658,1.365.625-.1a.406.406,0,0,1,.068-.006A.415.415,0,0,1,2938.139,2317.649Zm1.4-1.56a.566.566,0,0,0,.235.094h0a.557.557,0,0,0,.161,0h0a.567.567,0,0,0,.234-.094,1.261,1.261,0,0,1,.844-.225.551.551,0,0,0,.552-.315,1.153,1.153,0,0,1,.162-.257.062.062,0,0,1,.009-.014l.01-.011a.173.173,0,0,1,.013-.015,1.269,1.269,0,0,1,.423-.314.541.541,0,0,0,.318-.545,1.232,1.232,0,0,1,.227-.835.541.541,0,0,0,0-.63,1.231,1.231,0,0,1-.227-.836.542.542,0,0,0-.318-.545,1.244,1.244,0,0,1-.617-.612.553.553,0,0,0-.552-.315,1.267,1.267,0,0,1-.844-.224.555.555,0,0,0-.637,0,1.264,1.264,0,0,1-.844.224.552.552,0,0,0-.552.315,1.244,1.244,0,0,1-.618.612.545.545,0,0,0-.318.545,1.226,1.226,0,0,1-.226.836.541.541,0,0,0,0,.631,1.224,1.224,0,0,1,.226.834.544.544,0,0,0,.318.545,1.248,1.248,0,0,1,.424.315l.014.014.01.013a.083.083,0,0,1,.009.011,1.235,1.235,0,0,1,.162.259.55.55,0,0,0,.552.315c.039,0,.079-.005.118-.005A1.258,1.258,0,0,1,2939.54,2316.089Zm2.672-5.444a.552.552,0,0,0,.271.269,1.239,1.239,0,0,1,.726,1.244.539.539,0,0,0,.1.366,1.23,1.23,0,0,1,0,1.437.539.539,0,0,0-.1.366,1.239,1.239,0,0,1-.726,1.244l-.027.014.181.376h1.386a.271.271,0,0,0,.272-.27v-14.725a.271.271,0,0,0-.272-.27h-22.046a.271.271,0,0,0-.273.27v14.725a.272.272,0,0,0,.273.27h15.1l.181-.376-.028-.014a1.237,1.237,0,0,1-.725-1.244.543.543,0,0,0-.1-.366,1.231,1.231,0,0,1,0-1.437.543.543,0,0,0,.1-.366,1.237,1.237,0,0,1,.725-1.244.545.545,0,0,0,.271-.269,1.256,1.256,0,0,1,1.258-.718.557.557,0,0,0,.371-.1,1.264,1.264,0,0,1,1.452,0,.555.555,0,0,0,.37.1c.04,0,.079-.005.118-.005A1.254,1.254,0,0,1,2942.212,2310.645Zm-4.565,2.194a2.186,2.186,0,1,1,2.187,2.163A2.177,2.177,0,0,1,2937.646,2312.838Zm.7,0a1.482,1.482,0,1,0,1.483-1.467A1.476,1.476,0,0,0,2938.35,2312.838Zm-13.549,1.677a.432.432,0,0,1-.434-.409,1.331,1.331,0,0,0-1.267-1.255.428.428,0,0,1-.412-.428v-9a.429.429,0,0,1,.412-.429,1.331,1.331,0,0,0,1.267-1.254.431.431,0,0,1,.434-.409h16.314a.429.429,0,0,1,.433.408,1.323,1.323,0,0,0,1.33,1.257.432.432,0,0,1,.3.123.426.426,0,0,1,.131.306v6.162a.352.352,0,0,1-.7,0v-5.912a2.02,2.02,0,0,1-1.736-1.647h-15.832a2.009,2.009,0,0,1-1.651,1.635v8.52a2.008,2.008,0,0,1,1.651,1.634h10.145a.348.348,0,1,1,0,.7Zm5.846-3.859a.348.348,0,1,1,0-.7h4.705a.348.348,0,1,1,0,.7Zm-4.48-2.461a.348.348,0,1,1,0-.7h13.665a.348.348,0,1,1,0,.7Zm3.471-1.9a.348.348,0,1,1,0-.7h10.2a.348.348,0,1,1,0,.7Zm-3.471,0a.348.348,0,1,1,0-.7H2928a.348.348,0,1,1,0,.7Zm0-1.887a.348.348,0,1,1,0-.7h13.665a.348.348,0,1,1,0,.7Z" transform="translate(-2921 -2300)" fill="#004072"/>
</svg>
