<svg xmlns="http://www.w3.org/2000/svg" xmlns:xlink="http://www.w3.org/1999/xlink" width="86" height="86" viewBox="0 0 86 86">
  <defs>
    <filter id="Rectangle_1" x="0" y="0" width="86" height="86" filterUnits="userSpaceOnUse">
      <feOffset dy="3" input="SourceAlpha"/>
      <feGaussianBlur stdDeviation="6" result="blur"/>
      <feFlood flood-opacity="0.259"/>
      <feComposite operator="in" in2="blur"/>
      <feComposite in="SourceGraphic"/>
    </filter>
  </defs>
  <g id="Group_15243" data-name="Group 15243" transform="translate(-298.532 -402.098)">
    <g transform="matrix(1, 0, 0, 1, 298.53, 402.1)" filter="url(#Rectangle_1)">
      <path id="Rectangle_1-2" data-name="Rectangle 1" d="M25,0h0A25,25,0,0,1,50,25h0A25,25,0,0,1,25,50h0A25,25,0,0,1,0,25H0A25,25,0,0,1,25,0Z" transform="translate(18 15)" fill="#004684"/>
    </g>
    <path id="Path_1" data-name="Path 1" d="M613.041,191.584H646.93a8.079,8.079,0,0,1,8.055,8.056v33.889a8.079,8.079,0,0,1-8.055,8.056H613.041a8.079,8.079,0,0,1-8.056-8.056V199.64a8.079,8.079,0,0,1,8.056-8.056" transform="translate(-288.453 225.514)" fill="none"/>
    <g id="close_black_24dp" transform="translate(328.355 429.52)">
      <path id="Path_15084" data-name="Path 15084" d="M0,0H26.178V26.178H0Z" fill="none"/>
      <path id="Path_15085" data-name="Path 15085" d="M20.365,6.547,18.817,5l-6.135,6.135L6.547,5,5,6.547l6.135,6.135L5,18.817l1.547,1.547,6.135-6.135,6.135,6.135,1.547-1.547L14.23,12.682Z" transform="translate(0.407 0.407)" fill="#fff"/>
    </g>
  </g>
</svg>
