<svg xmlns="http://www.w3.org/2000/svg" xmlns:xlink="http://www.w3.org/1999/xlink" width="86" height="86" viewBox="0 0 86 86">
  <defs>
    <linearGradient id="linear-gradient" x1="0.295" y1="0.722" x2="0.813" y2="0.16" gradientUnits="objectBoundingBox">
      <stop offset="0" stop-color="#27bbee"/>
      <stop offset="1" stop-color="#88bd2f"/>
    </linearGradient>
    <filter id="Rectangle_1" x="0" y="0" width="86" height="86" filterUnits="userSpaceOnUse">
      <feOffset dy="3" input="SourceAlpha"/>
      <feGaussianBlur stdDeviation="6" result="blur"/>
      <feFlood flood-opacity="0.259"/>
      <feComposite operator="in" in2="blur"/>
      <feComposite in="SourceGraphic"/>
    </filter>
  </defs>
  <g id="Group_15243" data-name="Group 15243" transform="translate(-298.532 -402.098)">
    <g transform="matrix(1, 0, 0, 1, 298.53, 402.1)" filter="url(#Rectangle_1)">
      <rect id="Rectangle_1-2" data-name="Rectangle 1" width="50" height="50" rx="25" transform="translate(18 15)" fill="url(#linear-gradient)"/>
    </g>
    <path id="Path_1" data-name="Path 1" d="M613.041,191.584H646.93a8.079,8.079,0,0,1,8.055,8.056v33.889a8.079,8.079,0,0,1-8.055,8.056H613.041a8.079,8.079,0,0,1-8.056-8.056V199.64a8.079,8.079,0,0,1,8.056-8.056" transform="translate(-288.453 225.514)" fill="none"/>
    <path id="Path_15083" data-name="Path 15083" d="M-2385.309-241.707l-11.754-6.559a3.736,3.736,0,0,1-1.623-3v-11.549a1.3,1.3,0,0,1,.73-1.338h0l12.867-7.333c1.056-.227,1.693.6,1.086,1.345l-11.808,6.838h0l10.5,5.861a3.736,3.736,0,0,1,1.623,3v11.549c0,.858-.407,1.374-.983,1.374A1.323,1.323,0,0,1-2385.309-241.707Zm-.57-17.511a1.07,1.07,0,0,1,1.084-1.056,1.07,1.07,0,0,1,1.085,1.055,1.07,1.07,0,0,1-1.084,1.055A1.07,1.07,0,0,1-2385.879-259.218Zm-3.246-1.458a.961.961,0,0,1,.366-1.328l3.53-1.982a1.015,1.015,0,0,1,1.365.356.957.957,0,0,1-.366,1.327l-3.531,1.982a1.019,1.019,0,0,1-.5.129A1.008,1.008,0,0,1-2389.125-260.676Zm-3.247-2.01a.96.96,0,0,1,.365-1.327l3.928-2.206a1.015,1.015,0,0,1,1.365.356.957.957,0,0,1-.366,1.327l-3.926,2.205a1.021,1.021,0,0,1-.5.129A1.009,1.009,0,0,1-2392.373-262.686Zm6.414-4.138a1.07,1.07,0,0,1,1.085-1.055,1.07,1.07,0,0,1,1.084,1.055,1.07,1.07,0,0,1-1.084,1.055A1.07,1.07,0,0,1-2385.958-266.824Z" transform="translate(2732.7 698.619)" fill="#fefefe" opacity="0"/>
    <g id="Group_15267" data-name="Group 15267" transform="translate(295.674 38.698)">
      <path id="Path_14924" data-name="Path 14924" d="M38.162,418.4a.467.467,0,0,1-.315-.1.592.592,0,0,1-.172-.339c-.2-.975-.469-3.795-.472-3.823a.754.754,0,0,0-.166-.29,4.179,4.179,0,0,0-.985-.82l-.2-.124a14.871,14.871,0,0,1-1.431-1,11.888,11.888,0,0,1-1.87-1.866,13.366,13.366,0,0,1-2.764-7.233c0-.092,0-.189.009-.293a19.711,19.711,0,0,1,.238-2.827,13.615,13.615,0,0,1,.428-1.806,12.148,12.148,0,0,1,.788-1.935,11.671,11.671,0,0,1,1.265-1.952,12.607,12.607,0,0,1,1.855-1.871,15.348,15.348,0,0,1,2.566-1.693,20.949,20.949,0,0,1,3.391-1.408,16.613,16.613,0,0,1,1.681-.364,18.843,18.843,0,0,1,3.056-.254,17.12,17.12,0,0,1,3.237.307,14.578,14.578,0,0,1,5.3,2.145,14.755,14.755,0,0,1,1.728,1.341,16.176,16.176,0,0,1,1.645,1.724A18.675,18.675,0,0,1,58.5,396.07a11.954,11.954,0,0,1,1.521,6.375,12.587,12.587,0,0,1-.991,4.541,13.381,13.381,0,0,1-1.3,2.362,15.643,15.643,0,0,1-1.974,2.329,10.1,10.1,0,0,1-1.682,1.263,18.8,18.8,0,0,1-2.392,1.244,18.418,18.418,0,0,1-2.773.958,12.546,12.546,0,0,1-2.841.415c-.873,0-1.516,0-1.985-.009h-.635a3.207,3.207,0,0,0-.42.014,7.028,7.028,0,0,0-2.319,1.412A6.22,6.22,0,0,1,38.162,418.4Zm-.748-22.9a3.376,3.376,0,0,0-1.849.323,3.018,3.018,0,0,0-1.314,1.247c-1.434,2.4-.994,5.479-.54,7.585a3.4,3.4,0,0,0,1.341,2.062,3.913,3.913,0,0,0,2.476.737,4.006,4.006,0,0,0,.6-.039c.046,0,4.656-.09,8.681-.09,2.364,0,4.065.03,5.058.09.181.011.357.016.525.016a3.09,3.09,0,0,0,2.063-.412,2.687,2.687,0,0,0,1.21-1.6c.054-.138.1-.26.158-.376a9.221,9.221,0,0,0,.7-4.212,9.357,9.357,0,0,0-1.284-4.092A3.137,3.137,0,0,0,54,395.773a3.4,3.4,0,0,0-1.588-.279c-.17,0-.277.009-.278.009H37.4Z" transform="translate(0.953 0)" fill="#fff"/>
      <path id="Path_14925" data-name="Path 14925" d="M42.4,398.635c-.232.077.18.382.419-2.787a8.712,8.712,0,0,0-.788-3.927c.393.034,2.142.429,2.281,1.9a8.389,8.389,0,0,1-.223,3.531,2.651,2.651,0,0,1-1.689,1.28Z" transform="translate(19.123 5.8)" fill="#fff"/>
      <path id="Path_14926" data-name="Path 14926" d="M30.2,398.635c.235.077-.179.382-.42-2.787a8.661,8.661,0,0,1,.794-3.927c-.4.034-2.155.429-2.295,1.9a8.374,8.374,0,0,0,.224,3.531,2.658,2.658,0,0,0,.715.816A2.63,2.63,0,0,0,30.2,398.635Z" transform="translate(0 5.8)" fill="#fff"/>
      <path id="Path_14927" data-name="Path 14927" d="M38.719,396.287a1.647,1.647,0,1,0-1.5-1.641A1.577,1.577,0,0,0,38.719,396.287Z" transform="translate(12.678 6.622)" fill="#fff"/>
      <path id="Path_14928" data-name="Path 14928" d="M32.578,394.758a1.746,1.746,0,0,1,1.355-1.147,2.564,2.564,0,0,1,2.807.886c.174.37-.049,1.01-.665.492a1.935,1.935,0,0,0-2.537-.245C33.219,395.139,32.776,395.572,32.578,394.758Z" transform="translate(6.382 6.968)" fill="#fff"/>
    </g>
  </g>
</svg>
