<svg xmlns="http://www.w3.org/2000/svg" width="103.422" height="90.582" viewBox="0 0 103.422 90.582">
  <g id="Group_4159" data-name="Group 4159" opacity="0.7">
    <g id="computer">
      <g id="Group_4154" data-name="Group 4154" transform="translate(0 12.123)">
        <path id="Path_2435" data-name="Path 2435" d="M221.286,419.871a1.288,1.288,0,0,1-1.046.537H204.787a1.29,1.29,0,0,1-1.221-1.7L207,408.517a1.289,1.289,0,0,1,1.221-.877h8.585a1.289,1.289,0,0,1,1.221.877l3.434,10.191A1.288,1.288,0,0,1,221.286,419.871Z" transform="translate(-168.556 -349.767)" fill="#a8b3ba"/>
        <path id="Path_2436" data-name="Path 2436" d="M260.59,419.871a1.288,1.288,0,0,1-1.046.537h-5.16a1.29,1.29,0,0,0,1.221-1.7l-3.434-10.191a1.289,1.289,0,0,0-1.221-.877h5.16a1.29,1.29,0,0,1,1.221.877l3.434,10.191A1.288,1.288,0,0,1,260.59,419.871Z" transform="translate(-207.86 -349.767)" fill="#879299"/>
        <path id="Path_2437" data-name="Path 2437" d="M87.915,76.642v48.365a6.047,6.047,0,0,1-6.041,6.041H6.041A6.047,6.047,0,0,1,0,125.008V76.642A6.049,6.049,0,0,1,6.041,70.6H81.874a6.049,6.049,0,0,1,6.041,6.042Z" transform="translate(0 -70.6)" fill="#555760"/>
        <path id="Path_2438" data-name="Path 2438" d="M451.816,76.642v48.365a6.047,6.047,0,0,1-6.041,6.041H439.34a6.041,6.041,0,0,0,6.041-6.041V76.642A6.041,6.041,0,0,0,439.34,70.6h6.436a6.049,6.049,0,0,1,6.041,6.042Z" transform="translate(-363.901 -70.6)" fill="#36383f"/>
        <path id="Path_2439" data-name="Path 2439" d="M37.476,108.105h75.045v47.57H37.476Z" transform="translate(-31.041 -101.665)" fill="#eef6ff"/>
        <path id="Path_2440" data-name="Path 2440" d="M444.524,108.105h5.151v47.57h-5.151Z" transform="translate(-368.195 -101.665)" fill="#dae6ef"/>
        <path id="Path_2441" data-name="Path 2441" d="M192.975,470.858a3.865,3.865,0,0,1-3.86,3.869H163.87a3.863,3.863,0,0,1,0-7.727h25.245A3.863,3.863,0,0,1,192.975,470.858Z" transform="translate(-132.535 -398.935)" fill="#555760"/>
        <path id="Path_2442" data-name="Path 2442" d="M308.521,470.858a3.865,3.865,0,0,1-3.86,3.869H299.51a3.863,3.863,0,0,0,0-7.727h5.151A3.863,3.863,0,0,1,308.521,470.858Z" transform="translate(-248.081 -398.935)" fill="#36383f"/>
      </g>
      <path id="Path_2443" data-name="Path 2443" d="M183.192,158.306a1.289,1.289,0,0,1-.639,1.114L164.8,169.788a1.29,1.29,0,0,1-1.3,0L145.749,159.42a1.289,1.289,0,0,1-.639-1.114l.033-17.98a1.287,1.287,0,0,1,1.288-1.286h35.441a1.287,1.287,0,0,1,1.288,1.286Z" transform="translate(-120.193 -115.166)" fill="#555760"/>
      <path id="Path_2444" data-name="Path 2444" d="M278.172,158.306a1.289,1.289,0,0,1-.639,1.114L259.78,169.788l13.457-10.368a1.4,1.4,0,0,0,.489-1.114l-.024-17.98a1.168,1.168,0,0,0-.987-1.286h4.136a1.287,1.287,0,0,1,1.288,1.286Z" transform="translate(-215.173 -115.166)" fill="#36383f"/>
      <path id="Path_2445" data-name="Path 2445" d="M396.949,110.173V123.5a.811.811,0,0,0,.811.811h3.485a.811.811,0,0,0,.811-.811V107.19Z" transform="translate(-328.789 -88.784)" fill="#36383f"/>
      <path id="Path_2446" data-name="Path 2446" d="M139,18.406a1.29,1.29,0,0,1-.639,1.113L109.056,36.636a1.29,1.29,0,0,1-1.3,0L78.449,19.518a1.288,1.288,0,0,1,0-2.225L107.758.175a1.29,1.29,0,0,1,1.3,0l29.309,17.118A1.29,1.29,0,0,1,139,18.406Z" transform="translate(-64.449 0)" fill="#52deff"/>
      <path id="Path_2447" data-name="Path 2447" d="M289.728,19.25a1.29,1.29,0,0,1-.639,1.113L259.78,37.481l22.047-17.118a1.521,1.521,0,0,0,0-2.225L259.78,1.02l29.309,17.118a1.29,1.29,0,0,1,.639,1.113Z" transform="translate(-215.173 -0.845)" fill="#55baff"/>
    </g>
    <g id="Group_4162" data-name="Group 4162" transform="translate(62.072 49.232)">
      <path id="Path_2451" data-name="Path 2451" d="M-1876.789-2486.63c1.351,9.123-15.2,17.23-15.2,17.23l-14.19-9.8-1.689-11.486,18.582-4.73S-1878.14-2495.751-1876.789-2486.63Z" transform="translate(1912.734 2503.431)" fill="#fff"/>
      <path id="interface_2_" data-name="interface (2)" d="M20.675,0A20.675,20.675,0,1,0,41.35,20.675,20.7,20.7,0,0,0,20.675,0ZM31.154,16.294l-11.2,11.2a1.721,1.721,0,0,1-2.436,0l-5.6-5.6a1.723,1.723,0,1,1,2.436-2.436l4.381,4.381,9.981-9.981a1.723,1.723,0,1,1,2.436,2.436Zm0,0" fill="#1f3777"/>
    </g>
  </g>
</svg>
