<svg xmlns="http://www.w3.org/2000/svg" width="104.914" height="93.037" viewBox="0 0 104.914 93.037">
  <g id="Group_4182" data-name="Group 4182" opacity="0.7">
    <g id="computer">
      <g id="Group_4154" data-name="Group 4154" transform="translate(0 12.102)">
        <path id="Path_2435" data-name="Path 2435" d="M221.255,419.85a1.286,1.286,0,0,1-1.044.537H204.785a1.288,1.288,0,0,1-1.219-1.7l3.428-10.173a1.287,1.287,0,0,1,1.219-.876h8.571a1.287,1.287,0,0,1,1.219.876l3.428,10.173A1.285,1.285,0,0,1,221.255,419.85Z" transform="translate(-168.617 -349.868)" fill="#a8b3ba"/>
        <path id="Path_2436" data-name="Path 2436" d="M260.573,419.85a1.286,1.286,0,0,1-1.044.537h-5.151a1.288,1.288,0,0,0,1.219-1.7l-3.428-10.173a1.287,1.287,0,0,0-1.219-.876H256.1a1.287,1.287,0,0,1,1.219.876l3.428,10.173A1.285,1.285,0,0,1,260.573,419.85Z" transform="translate(-207.934 -349.868)" fill="#879299"/>
        <path id="Path_2437" data-name="Path 2437" d="M87.762,76.632v48.281a6.037,6.037,0,0,1-6.03,6.03H6.03A6.037,6.037,0,0,1,0,124.913V76.632A6.038,6.038,0,0,1,6.03,70.6h75.7A6.038,6.038,0,0,1,87.762,76.632Z" transform="translate(0 -70.6)" fill="#555760"/>
        <path id="Path_2438" data-name="Path 2438" d="M451.795,76.632v48.281a6.037,6.037,0,0,1-6.03,6.03H439.34a6.03,6.03,0,0,0,6.03-6.03V76.632a6.03,6.03,0,0,0-6.03-6.032h6.425A6.038,6.038,0,0,1,451.795,76.632Z" transform="translate(-364.032 -70.6)" fill="#36383f"/>
        <path id="Path_2439" data-name="Path 2439" d="M37.476,108.105h74.915v47.487H37.476Z" transform="translate(-31.052 -101.676)" fill="#eef6ff"/>
        <path id="Path_2440" data-name="Path 2440" d="M444.524,108.105h5.142v47.487h-5.142Z" transform="translate(-368.328 -101.676)" fill="#dae6ef"/>
        <path id="Path_2441" data-name="Path 2441" d="M192.917,470.852a3.859,3.859,0,0,1-3.853,3.862h-25.2a3.857,3.857,0,0,1,0-7.714h25.2A3.856,3.856,0,0,1,192.917,470.852Z" transform="translate(-132.583 -399.053)" fill="#555760"/>
        <path id="Path_2442" data-name="Path 2442" d="M308.506,470.852a3.859,3.859,0,0,1-3.853,3.862H299.51a3.857,3.857,0,0,0,0-7.714h5.142A3.856,3.856,0,0,1,308.506,470.852Z" transform="translate(-248.171 -399.053)" fill="#36383f"/>
      </g>
      <path id="Path_2443" data-name="Path 2443" d="M183.126,158.272a1.287,1.287,0,0,1-.638,1.112l-17.722,10.35a1.288,1.288,0,0,1-1.3,0l-17.722-10.35a1.287,1.287,0,0,1-.638-1.112l.033-17.948a1.285,1.285,0,0,1,1.286-1.284h35.379a1.285,1.285,0,0,1,1.286,1.284Z" transform="translate(-120.237 -115.207)" fill="#555760"/>
      <path id="Path_2444" data-name="Path 2444" d="M278.14,158.272a1.287,1.287,0,0,1-.638,1.112l-17.722,10.35,13.434-10.35a1.4,1.4,0,0,0,.488-1.112l-.024-17.948a1.166,1.166,0,0,0-.986-1.284h4.129a1.285,1.285,0,0,1,1.286,1.284Z" transform="translate(-215.251 -115.207)" fill="#36383f"/>
      <path id="Path_2445" data-name="Path 2445" d="M396.949,110.167v13.3a.809.809,0,0,0,.809.809h3.479a.809.809,0,0,0,.809-.809V107.19Z" transform="translate(-328.908 -88.816)" fill="#36383f"/>
      <path id="Path_2446" data-name="Path 2446" d="M138.9,18.374a1.288,1.288,0,0,1-.638,1.111L109,36.572a1.288,1.288,0,0,1-1.3,0L78.448,19.484a1.286,1.286,0,0,1,0-2.221L107.706.175a1.288,1.288,0,0,1,1.3,0L138.26,17.263a1.288,1.288,0,0,1,.638,1.111Z" transform="translate(-64.472 0)" fill="#52deff"/>
      <path id="Path_2447" data-name="Path 2447" d="M289.676,19.219a1.288,1.288,0,0,1-.638,1.111L259.78,37.417l22.009-17.088a1.518,1.518,0,0,0,0-2.221L259.78,1.02l29.258,17.088a1.288,1.288,0,0,1,.638,1.111Z" transform="translate(-215.251 -0.845)" fill="#55baff"/>
    </g>
    <g id="Group_4183" data-name="Group 4183" transform="translate(58.26 46.227)">
      <path id="Path_2466" data-name="Path 2466" d="M-2594.065-4069.1l-21.22,2.19-3.031,2.021-3.2,23.24,6.231,6.569,18.526,4.884,5.894-2.189,6.905-6.568v-22.736l-1.684-3.2-5.221-3.2Z" transform="translate(2624.791 4073.404)" fill="#fff"/>
      <path id="Subtraction_6" data-name="Subtraction 6" d="M23.5,47A23.5,23.5,0,0,1,6.883,6.883,23.5,23.5,0,0,1,40.117,40.117,23.346,23.346,0,0,1,23.5,47ZM9.023,8.392a1.841,1.841,0,0,0-1.834,1.834v23.8a1.843,1.843,0,0,0,1.832,1.836l15.191.107L24.982,39a.062.062,0,0,0,0,.017,2.862,2.862,0,0,0,2.724,2.039h5.57a2.868,2.868,0,0,0,2.859-2.861V35.955l1.623-.088a1.841,1.841,0,0,0,1.822-1.834V10.226A1.838,1.838,0,0,0,37.75,8.392Zm18.69,31.864a2.061,2.061,0,0,1-1.961-1.464l-.844-3.313a14.159,14.159,0,0,0-.792-2.277l-.066-.154a2.626,2.626,0,0,1,2.159,1.132l.684.993v1.479a.4.4,0,0,0,.8,0V25.826a.75.75,0,0,1,1.5,0V32.9a.379.379,0,0,0,.017.115v1.623a.4.4,0,1,0,.8,0V32.41a.594.594,0,1,1,1.188,0v.452a1.453,1.453,0,0,0-.015.21v1.563a.4.4,0,0,0,.4.4h.015a.4.4,0,0,0,.4-.4v-1.7a.639.639,0,0,1,1.262.139v1.976a.4.4,0,1,0,.8,0V33.7a.648.648,0,1,1,1.3,0v4.5a2.068,2.068,0,0,1-2.063,2.064H27.713ZM24,35.175h0l-14.972-.1a1.041,1.041,0,0,1-1.037-1.037V15.055h30.8V34.033A1.038,1.038,0,0,1,37.75,35.07h-.022l-1.589.086V33.7a1.443,1.443,0,0,0-2.222-1.217,1.433,1.433,0,0,0-2.052-.634,1.389,1.389,0,0,0-.8-.743,1.372,1.372,0,0,0-.47-.083,1.391,1.391,0,0,0-.614.144V25.826a1.546,1.546,0,0,0-3.093,0V33.77l-.029-.042a3.417,3.417,0,0,0-2.814-1.477.8.8,0,0,0-.729,1.127l.068.149A13.425,13.425,0,0,1,24,35.172Zm-12.289-8.5a.581.581,0,0,0-.58.58v3.807a.581.581,0,0,0,.58.58h3.812a.581.581,0,0,0,.58-.58V29.777a.4.4,0,0,0-.8,0V30.85H11.925V27.476h1.689a.4.4,0,1,0,0-.8Zm8.49,3.577a.4.4,0,0,0,0,.8h1.36a.4.4,0,0,0,0-.8ZM13.11,28.208a.4.4,0,0,0-.251.708l.733.592a.638.638,0,0,0,.4.144.625.625,0,0,0,.442-.181l.017-.015,2.03-2.44a.4.4,0,1,0-.612-.509l-1.9,2.282L13.36,28.3A.4.4,0,0,0,13.11,28.208Zm19.4-1.251a.4.4,0,0,0,0,.8h3.237a.4.4,0,0,0,0-.8Zm-12.306,0a.4.4,0,0,0,0,.8h5.047a.4.4,0,1,0,0-.8Zm-8.49-8.72a.583.583,0,0,0-.58.58v3.807a.581.581,0,0,0,.58.58h3.812a.581.581,0,0,0,.58-.58V21.336a.4.4,0,1,0-.8,0v1.073H11.925V19.033h1.689a.4.4,0,1,0,0-.8Zm8.49,3.579a.4.4,0,0,0,0,.8H35.742a.4.4,0,0,0,0-.8Zm-7.091-2.049a.391.391,0,0,0-.308.148.4.4,0,0,0,.059.56l.733.592a.638.638,0,0,0,.4.144.625.625,0,0,0,.442-.181l.017-.015,2.03-2.44a.4.4,0,1,0-.612-.509l-1.9,2.282-.609-.492A.4.4,0,0,0,13.108,19.766ZM20.2,18.514a.4.4,0,0,0,0,.8H35.742a.4.4,0,0,0,0-.8ZM38.787,14.26H7.986V10.226A1.038,1.038,0,0,1,9.023,9.189H37.75a1.038,1.038,0,0,1,1.037,1.037V14.26ZM18.571,10.147A1.527,1.527,0,1,0,20.1,11.673,1.528,1.528,0,0,0,18.571,10.147Zm-4.025,0a1.527,1.527,0,1,0,1.528,1.526A1.528,1.528,0,0,0,14.546,10.147Zm-4.024,0a1.527,1.527,0,1,0,1.526,1.526A1.529,1.529,0,0,0,10.522,10.147ZM24.515,11.2a.4.4,0,1,0,0,.8h12.94a.4.4,0,1,0,0-.8Zm-5.944,1.2a.73.73,0,1,1,.731-.729A.73.73,0,0,1,18.571,12.4Zm-4.025,0a.73.73,0,1,1,.731-.729A.73.73,0,0,1,14.546,12.4Zm-4.024,0a.73.73,0,1,1,.729-.729A.731.731,0,0,1,10.522,12.4Z" transform="translate(-0.346 -0.19)" fill="#1f3777"/>
    </g>
  </g>
</svg>
