<svg xmlns="http://www.w3.org/2000/svg" width="95.185" height="87.915" viewBox="0 0 95.185 87.915">
  <g id="Group_4166" data-name="Group 4166" opacity="0.7">
    <g id="computer">
      <g id="Group_4154" data-name="Group 4154" transform="translate(0 12.123)">
        <path id="Path_2435" data-name="Path 2435" d="M221.286,419.871a1.288,1.288,0,0,1-1.046.537H204.787a1.29,1.29,0,0,1-1.221-1.7L207,408.517a1.289,1.289,0,0,1,1.221-.877h8.585a1.289,1.289,0,0,1,1.221.877l3.434,10.191A1.288,1.288,0,0,1,221.286,419.871Z" transform="translate(-168.556 -349.767)" fill="#a8b3ba"/>
        <path id="Path_2436" data-name="Path 2436" d="M260.59,419.871a1.288,1.288,0,0,1-1.046.537h-5.16a1.29,1.29,0,0,0,1.221-1.7l-3.434-10.191a1.289,1.289,0,0,0-1.221-.877h5.16a1.29,1.29,0,0,1,1.221.877l3.434,10.191A1.288,1.288,0,0,1,260.59,419.871Z" transform="translate(-207.86 -349.767)" fill="#879299"/>
        <path id="Path_2437" data-name="Path 2437" d="M87.915,76.642v48.365a6.047,6.047,0,0,1-6.041,6.041H6.041A6.047,6.047,0,0,1,0,125.008V76.642A6.049,6.049,0,0,1,6.041,70.6H81.874a6.049,6.049,0,0,1,6.041,6.042Z" transform="translate(0 -70.6)" fill="#555760"/>
        <path id="Path_2438" data-name="Path 2438" d="M451.816,76.642v48.365a6.047,6.047,0,0,1-6.041,6.041H439.34a6.041,6.041,0,0,0,6.041-6.041V76.642A6.041,6.041,0,0,0,439.34,70.6h6.436a6.049,6.049,0,0,1,6.041,6.042Z" transform="translate(-363.901 -70.6)" fill="#36383f"/>
        <path id="Path_2439" data-name="Path 2439" d="M37.476,108.105h75.045v47.57H37.476Z" transform="translate(-31.041 -101.665)" fill="#eef6ff"/>
        <path id="Path_2440" data-name="Path 2440" d="M444.524,108.105h5.151v47.57h-5.151Z" transform="translate(-368.195 -101.665)" fill="#dae6ef"/>
        <path id="Path_2441" data-name="Path 2441" d="M192.975,470.858a3.865,3.865,0,0,1-3.86,3.869H163.87a3.863,3.863,0,0,1,0-7.727h25.245A3.863,3.863,0,0,1,192.975,470.858Z" transform="translate(-132.535 -398.935)" fill="#555760"/>
        <path id="Path_2442" data-name="Path 2442" d="M308.521,470.858a3.865,3.865,0,0,1-3.86,3.869H299.51a3.863,3.863,0,0,0,0-7.727h5.151A3.863,3.863,0,0,1,308.521,470.858Z" transform="translate(-248.081 -398.935)" fill="#36383f"/>
      </g>
      <path id="Path_2443" data-name="Path 2443" d="M183.192,158.306a1.289,1.289,0,0,1-.639,1.114L164.8,169.788a1.29,1.29,0,0,1-1.3,0L145.749,159.42a1.289,1.289,0,0,1-.639-1.114l.033-17.98a1.287,1.287,0,0,1,1.288-1.286h35.441a1.287,1.287,0,0,1,1.288,1.286Z" transform="translate(-120.193 -115.166)" fill="#555760"/>
      <path id="Path_2444" data-name="Path 2444" d="M278.172,158.306a1.289,1.289,0,0,1-.639,1.114L259.78,169.788l13.457-10.368a1.4,1.4,0,0,0,.489-1.114l-.024-17.98a1.168,1.168,0,0,0-.987-1.286h4.136a1.287,1.287,0,0,1,1.288,1.286Z" transform="translate(-215.173 -115.166)" fill="#36383f"/>
      <path id="Path_2445" data-name="Path 2445" d="M396.949,110.173V123.5a.811.811,0,0,0,.811.811h3.485a.811.811,0,0,0,.811-.811V107.19Z" transform="translate(-328.789 -88.784)" fill="#36383f"/>
      <path id="Path_2446" data-name="Path 2446" d="M139,18.406a1.29,1.29,0,0,1-.639,1.113L109.056,36.636a1.29,1.29,0,0,1-1.3,0L78.449,19.518a1.288,1.288,0,0,1,0-2.225L107.758.175a1.29,1.29,0,0,1,1.3,0l29.309,17.118A1.29,1.29,0,0,1,139,18.406Z" transform="translate(-64.449 0)" fill="#52deff"/>
      <path id="Path_2447" data-name="Path 2447" d="M289.728,19.25a1.29,1.29,0,0,1-.639,1.113L259.78,37.481l22.047-17.118a1.521,1.521,0,0,0,0-2.225L259.78,1.02l29.309,17.118a1.29,1.29,0,0,1,.639,1.113Z" transform="translate(-215.173 -0.845)" fill="#55baff"/>
    </g>
    <g id="Group_4160" data-name="Group 4160" transform="translate(69.337 49.437)">
      <path id="Path_2450" data-name="Path 2450" d="M-1848.566-2472.328c.159,2.145-.477,2.86-.477,2.86l-.476,3.5-1.351,2.86-1.906,3.019-1.827,1.906-2.066,1.192,1.43.716s3.893,4.051,4.369,5.084,2.3,7.865,2.3,10.168-6.038,1.828-6.038,1.828h-12.791l-3.337-1.828s.318-10.883,7.23-15.252c.874-.4.953-.716.953-.716s-6.514-1.748-8.183-15.333c1.589-1.827,7.23-1.589,7.23-1.589l7.785.795S-1848.725-2474.472-1848.566-2472.328Z" transform="translate(1872.493 2476.109)" fill="#fff" stroke="#707070" stroke-width="0.5"/>
      <g id="tool" transform="translate(0 0)">
        <path id="Path_2431" data-name="Path 2431" d="M30.927,34.723c-.3-6.826-3.051-12.771-7.072-15.487,4.023-2.715,6.775-8.661,7.072-15.486.661-.325,1.026-.679,1.026-1.055,0-1.489-5.785-2.7-12.924-2.7S6.1,1.207,6.1,2.7c0,.374.366.73,1.026,1.054.3,6.824,3.051,12.771,7.072,15.487C10.181,21.951,7.428,27.9,7.131,34.723c-.66.324-1.026.679-1.026,1.056,0,1.488,5.786,2.7,12.924,2.7s12.924-1.207,12.924-2.7C31.953,35.4,31.588,35.046,30.927,34.723ZM16.6,20.218a1.106,1.106,0,0,0,0-1.964C12.418,16.612,9.4,11.04,8.916,4.372a42.974,42.974,0,0,0,10.113,1.02,42.974,42.974,0,0,0,10.113-1.02c-.48,6.668-3.5,12.24-7.687,13.881a1.106,1.106,0,0,0,0,1.964c4.186,1.642,7.207,7.214,7.688,13.881-.38-.1-.8-.193-1.24-.28C26.54,28.3,19.03,23.467,19.03,23.467S11.521,28.3,10.157,33.82c-.444.087-.859.181-1.24.28C9.4,27.431,12.418,21.86,16.6,20.218Zm2.426-2.252a32.985,32.985,0,0,1-3.5-3.325C20.633,13.546,24.79,11.123,27.045,8,24.639,13.552,19.029,17.966,19.029,17.966Z" transform="translate(-6.105)" fill="#1f3777"/>
      </g>
    </g>
  </g>
</svg>
