<svg xmlns="http://www.w3.org/2000/svg" xmlns:xlink="http://www.w3.org/1999/xlink" width="200" height="67.684" viewBox="0 0 200 67.684"><defs><style>.a{fill:none;}.b{clip-path:url(#a);}.c{fill:url(#b);}.d{fill:#1b4e9b;}.e{clip-path:url(#c);}.f{fill:url(#d);}</style><clipPath id="a"><path class="a" d="M153.468,279.806h0a2.158,2.158,0,0,0,2.939.79l8.455-4.881a2.151,2.151,0,0,0-2.151-3.727l-8.455,4.878A2.158,2.158,0,0,0,153.468,279.806Zm7.021,4.47h0a2.158,2.158,0,0,0,2.939.79l7.6-4.388a2.152,2.152,0,1,0-2.152-3.727l-7.6,4.388a2.158,2.158,0,0,0-.787,2.937Zm9.164-11.317a2.334,2.334,0,1,0-2.333-2.334,2.334,2.334,0,0,0,2.333,2.334Zm.171,16.9a2.329,2.329,0,1,0-1.651-.682,2.334,2.334,0,0,0,1.651.682Zm-28.388-13.308,27.7-16.313c2.273-.5,3.646,1.342,2.339,2.993l-25.423,15.212-.007,0,22.612,13.038c1.921,1.105,3.493,4.106,3.493,6.667v25.692c0,2.56-1.572,3.747-3.493,2.64l-25.3-14.589c-1.921-1.105-3.493-4.106-3.493-6.668V279.533a2.91,2.91,0,0,1,1.571-2.975Z" transform="translate(-139.864 -260.158)"/></clipPath><linearGradient id="b" x1="0.269" y1="0.751" x2="0.768" y2="0.208" gradientUnits="objectBoundingBox"><stop offset="0" stop-color="#27bbee"/><stop offset="1" stop-color="#88bd2f"/></linearGradient><clipPath id="c"><path class="a" d="M371.727,357.685V343.067q0-2.684-.935-3.667a4.124,4.124,0,0,0-3.092-.983,4.545,4.545,0,0,0-2.061.455,4.475,4.475,0,0,0-1.534,1.246,5.452,5.452,0,0,0-.935,1.822,7.657,7.657,0,0,0-.312,2.229v13.518h-6.232V325.475h6.232v11.7a4.817,4.817,0,0,1,1.031-1.462,6.6,6.6,0,0,1,1.606-1.174,17.716,17.716,0,0,1,2.013-.767,16.9,16.9,0,0,1,2.3-.288,8.67,8.67,0,0,1,5.92,1.99,6.965,6.965,0,0,1,2.277,5.537v16.682Zm-16.921-8.533a9.953,9.953,0,0,1-1.175,3.737,10.085,10.085,0,0,1-2.373,2.876,10.88,10.88,0,0,1-3.283,1.87,11.626,11.626,0,0,1-4,.671,11.771,11.771,0,0,1-4.387-.79,9.015,9.015,0,0,1-3.427-2.4,11.166,11.166,0,0,1-2.229-3.979,17.538,17.538,0,0,1-.79-5.537,16.869,16.869,0,0,1,.79-5.465,9.82,9.82,0,0,1,2.229-3.763,8.988,8.988,0,0,1,3.474-2.181,13.533,13.533,0,0,1,4.53-.72,13.368,13.368,0,0,1,4.194.623,9.793,9.793,0,0,1,3.308,1.822A8.731,8.731,0,0,1,353.9,338.8a10.092,10.092,0,0,1,.959,3.737h-6.279a4.309,4.309,0,0,0-1.462-2.852,4.491,4.491,0,0,0-3-1.031,5.114,5.114,0,0,0-1.87.336,3.654,3.654,0,0,0-1.51,1.126,5.914,5.914,0,0,0-1.031,2.109,11.75,11.75,0,0,0-.383,3.236q0,3.883,1.39,5.753a3.977,3.977,0,0,0,3.211,1.87,4.921,4.921,0,0,0,3.114-1,4.017,4.017,0,0,0,1.486-2.924Zm-39.643-1.632a6.734,6.734,0,0,0,1.557,4.267,4.747,4.747,0,0,0,3.716,1.582,5.218,5.218,0,0,0,2.708-.695,3.147,3.147,0,0,0,1.51-1.942h6.422a10.347,10.347,0,0,1-3.835,5.609,10.867,10.867,0,0,1-6.519,1.965q-11.79,0-11.79-12.847a14.97,14.97,0,0,1,.767-4.937,10.673,10.673,0,0,1,2.229-3.79,9.646,9.646,0,0,1,3.571-2.421,13.034,13.034,0,0,1,4.842-.839q5.465,0,8.269,3.5t2.8,10.546Zm9.827-3.931a6.542,6.542,0,0,0-.455-2.276,4.761,4.761,0,0,0-1.079-1.632,4.275,4.275,0,0,0-1.534-.958,5.182,5.182,0,0,0-1.774-.312,4.421,4.421,0,0,0-3.235,1.369,5.83,5.83,0,0,0-1.558,3.811Zm-28.57,14.094V331.417h-9.587v-5.561h25.887v5.561h-9.632v26.269Zm-9.97,0v-3.308a8,8,0,0,1-7.334,3.931,8.174,8.174,0,0,1-3.236-.623,7.211,7.211,0,0,1-2.516-1.774,8.394,8.394,0,0,1-1.654-2.732,9.951,9.951,0,0,1-.6-3.547V334.1h6.231v14.573q0,4.41,3.979,4.41a4.381,4.381,0,0,0,3.619-1.51,5.939,5.939,0,0,0,1.222-3.859V334.1h6.184v23.585Zm-24.064,0-.048-2.877a7.192,7.192,0,0,1-6.567,3.5,9.715,9.715,0,0,1-4.122-.863,9,9,0,0,1-3.211-2.493,12.079,12.079,0,0,1-2.109-3.979,17.094,17.094,0,0,1-.767-5.32,17.573,17.573,0,0,1,.647-4.914,11.6,11.6,0,0,1,1.895-3.859,8.558,8.558,0,0,1,3.043-2.517,9.147,9.147,0,0,1,4.1-.887,8.2,8.2,0,0,1,7,3.691v-11.7h6.136v32.213Zm-5.177-4.458a4.652,4.652,0,0,0,3.763-1.87,7.543,7.543,0,0,0,1.51-4.889q0-7.67-5.225-7.67-5.369,0-5.369,7.286a8.387,8.387,0,0,0,1.486,5.153,4.583,4.583,0,0,0,3.835,1.99Zm-36.815,4.458V325.855h23.393v5.561H226.865v6.808h15.58v5.609h-15.58v8.2H244.55v5.657Z" transform="translate(-220.393 -325.472)"/></clipPath><linearGradient id="d" x1="0.353" y1="0.659" x2="0.871" y2="0.097" xlink:href="#b"/></defs><g transform="translate(-139.864 -259.269)"><g transform="translate(139.864 259.737)"><g class="b" transform="translate(0 0)"><rect class="c" width="32.922" height="67.85" transform="translate(-0.002 -0.418)"/></g></g><path class="d" d="M275.622,289.737h7.037V265.191h6.523v-5.407H269.1v5.407h6.523Zm-20.9-15.835c.73-.474,5.364-3.433,5.364-7.853,0-4.806-4.291-6.78-8.54-6.78-7.682,0-9.053,5.021-9.053,7.037,0,3.219,2.918,6.137,3.3,6.523-5.149,2.574-5.321,6.566-5.321,8.325,0,5.15,3.82,9.1,10.385,9.1,2.618,0,5.493-.773,7.211-2.832l1.716,2.316h7.381l-4.763-6.264a16.1,16.1,0,0,0,3.6-10.3h-5.925a11.581,11.581,0,0,1-1.33,5.75Zm.257,9.827a4.442,4.442,0,0,1-3.776,1.632,4.392,4.392,0,0,1-4.12-4.248,5.649,5.649,0,0,1,2.017-4.248Zm-3.519-20.338a2.551,2.551,0,0,1,2.875,2.661c0,1.931-1.459,3.176-3.218,4.592-.386-.386-2.7-2.79-2.7-4.335A2.783,2.783,0,0,1,251.462,263.391ZM220.393,289.74h16.949V284.33h-9.911V259.784h-7.038Z" transform="translate(-38.142)"/><g transform="translate(182.251 294.115)"><g class="e" transform="translate(0)"><rect class="f" width="157.613" height="32.836" transform="translate(0)"/></g></g></g></svg>