<svg xmlns="http://www.w3.org/2000/svg" xmlns:xlink="http://www.w3.org/1999/xlink" width="200" height="68" viewBox="0 0 200 68"><defs><style>.a{fill:none;}.b{clip-path:url(#a);}.c{fill:url(#b);}.d{fill:#002581;}.e{clip-path:url(#c);}.f{fill:url(#d);}</style><clipPath id="a"><path class="a" d="M179.852,181.491h0a2.225,2.225,0,0,0,3.019.8l8.685-4.974a2.182,2.182,0,0,0,.809-2.994,2.22,2.22,0,0,0-3.019-.8l-8.685,4.974a2.189,2.189,0,0,0-.809,2.994m7.212,4.554h0a2.226,2.226,0,0,0,3.019.8l7.807-4.47a2.182,2.182,0,0,0,.809-2.994,2.22,2.22,0,0,0-3.019-.8l-7.807,4.47a2.189,2.189,0,0,0-.809,2.995Zm9.415-11.529a2.378,2.378,0,1,0-2.4-2.378,2.388,2.388,0,0,0,2.4,2.378Zm.176,17.225a2.378,2.378,0,1,0-2.4-2.378,2.388,2.388,0,0,0,2.4,2.378Zm-29.164-13.56,28.459-16.621c2.335-.514,3.745,1.367,2.4,3.05l-26.115,15.5-.007,0L195.46,193.39c1.973,1.128,3.588,4.185,3.588,6.793v26.178c0,2.608-1.614,3.818-3.588,2.69l-26-14.867c-1.973-1.128-3.588-4.185-3.588-6.794V181.213A2.963,2.963,0,0,1,167.491,178.182Z" transform="translate(-165.876 -161.474)"/></clipPath><linearGradient id="b" x1="0.265" y1="0.755" x2="0.773" y2="0.203" gradientUnits="objectBoundingBox"><stop offset="0" stop-color="#00b0ed"/><stop offset="1" stop-color="#53aa34"/></linearGradient><clipPath id="c"><path class="a" d="M489.62,321.37V306.638q0-2.7-.942-3.695a4.156,4.156,0,0,0-3.116-.99,4.581,4.581,0,0,0-2.077.459,4.513,4.513,0,0,0-1.546,1.256A5.513,5.513,0,0,0,481,305.5a7.731,7.731,0,0,0-.314,2.246v13.619h-6.279V288.912h6.279V300.7a4.849,4.849,0,0,1,1.038-1.473,6.651,6.651,0,0,1,1.618-1.183,9.481,9.481,0,0,1,2.029-.773,9.153,9.153,0,0,1,2.319-.29,8.741,8.741,0,0,1,5.966,2,7.012,7.012,0,0,1,2.294,5.579V321.37Zm-17.05-8.6a10.043,10.043,0,0,1-1.183,3.768,10.187,10.187,0,0,1-2.392,2.9,10.974,10.974,0,0,1-3.308,1.884,11.713,11.713,0,0,1-4.033.676,11.864,11.864,0,0,1-4.419-.8,9.081,9.081,0,0,1-3.453-2.415,11.257,11.257,0,0,1-2.246-4.009,17.666,17.666,0,0,1-.8-5.579,16.99,16.99,0,0,1,.8-5.506,9.9,9.9,0,0,1,2.246-3.792,9.067,9.067,0,0,1,3.5-2.2,13.641,13.641,0,0,1,4.564-.725,13.467,13.467,0,0,1,4.226.628,9.865,9.865,0,0,1,3.333,1.835,8.788,8.788,0,0,1,2.246,2.9,10.163,10.163,0,0,1,.966,3.767h-6.327a4.339,4.339,0,0,0-1.473-2.874,4.524,4.524,0,0,0-3.019-1.038,5.147,5.147,0,0,0-1.884.338,3.681,3.681,0,0,0-1.522,1.135,5.955,5.955,0,0,0-1.038,2.125,11.827,11.827,0,0,0-.386,3.26q0,3.912,1.4,5.8a4.008,4.008,0,0,0,3.236,1.884,4.959,4.959,0,0,0,3.14-1.014,4.051,4.051,0,0,0,1.5-2.945Zm-39.944-1.642a6.786,6.786,0,0,0,1.57,4.3,4.78,4.78,0,0,0,3.743,1.594,5.258,5.258,0,0,0,2.73-.7,3.172,3.172,0,0,0,1.522-1.956h6.472a10.422,10.422,0,0,1-3.864,5.651A10.95,10.95,0,0,1,438.23,322q-11.882,0-11.882-12.944a15.074,15.074,0,0,1,.773-4.975,10.743,10.743,0,0,1,2.245-3.817,9.707,9.707,0,0,1,3.6-2.439,13.121,13.121,0,0,1,4.878-.845q5.506,0,8.333,3.526T449,311.13Zm9.9-3.961a6.606,6.606,0,0,0-.459-2.294,4.791,4.791,0,0,0-1.087-1.642,4.315,4.315,0,0,0-1.545-.966,5.221,5.221,0,0,0-1.787-.314,4.456,4.456,0,0,0-3.26,1.376,5.874,5.874,0,0,0-1.57,3.84Zm-28.787,14.2V294.9h-9.66v-5.6h26.082v5.6h-9.708V321.37Zm-10.046,0v-3.333A8.063,8.063,0,0,1,396.3,322a8.232,8.232,0,0,1-3.26-.628,7.258,7.258,0,0,1-2.536-1.787,8.461,8.461,0,0,1-1.666-2.753,10.029,10.029,0,0,1-.6-3.575V297.606h6.279v14.683q0,4.443,4.009,4.444a4.415,4.415,0,0,0,3.647-1.521,5.984,5.984,0,0,0,1.232-3.888V297.606h6.231V321.37Zm-24.247,0-.048-2.9A7.245,7.245,0,0,1,372.782,322a9.794,9.794,0,0,1-4.154-.869,9.077,9.077,0,0,1-3.236-2.512,12.176,12.176,0,0,1-2.125-4.009,17.241,17.241,0,0,1-.773-5.362,17.716,17.716,0,0,1,.652-4.951,11.691,11.691,0,0,1,1.908-3.888,8.623,8.623,0,0,1,3.067-2.536,9.212,9.212,0,0,1,4.129-.894A8.262,8.262,0,0,1,379.3,300.7V288.912h6.183V321.37Zm-5.217-4.492a4.687,4.687,0,0,0,3.792-1.884,7.6,7.6,0,0,0,1.522-4.927q0-7.729-5.265-7.729-5.41,0-5.41,7.342a8.45,8.45,0,0,0,1.5,5.192A4.62,4.62,0,0,0,374.231,316.878Zm-37.095,4.492V289.3h23.571v5.6h-17.05v6.859h15.7v5.653h-15.7v8.257H361.48v5.7Z" transform="translate(-337.136 -288.912)"/></clipPath><linearGradient id="d" x1="0.353" y1="0.659" x2="0.871" y2="0.097" xlink:href="#b"/></defs><g transform="translate(-165.876 -161.474)"><g transform="translate(165.876 161.474)"><g class="b"><rect class="c" width="33.82" height="69.134" transform="translate(0 -0.428)"/></g></g><path class="d" d="M376.4,194.724h5v-17.45h4.639V173.43H371.763v3.844H376.4Zm-14.857-11.257c.519-.336,3.813-2.442,3.813-5.583,0-3.417-3.051-4.82-6.071-4.82-5.461,0-6.437,3.57-6.437,5,0,2.288,2.075,4.363,2.349,4.637a6.113,6.113,0,0,0-3.783,5.918c0,3.661,2.715,6.468,7.383,6.468a6.626,6.626,0,0,0,5.125-2.014l1.22,1.647h5.247L367,190.27a11.448,11.448,0,0,0,2.563-7.322h-4.209a8.228,8.228,0,0,1-.946,4.088Zm.183,6.986a3.157,3.157,0,0,1-2.685,1.158,3.122,3.122,0,0,1-2.929-3.021,4.02,4.02,0,0,1,1.435-3.021Zm-2.5-14.46a1.814,1.814,0,0,1,2.044,1.892c0,1.373-1.037,2.258-2.288,3.264-.274-.275-1.922-1.983-1.922-3.081A1.979,1.979,0,0,1,359.224,175.993Zm-22.087,18.732h12.05v-3.844H342.14V173.43h-5Z" transform="translate(-128.69 -8.672)"/><g transform="translate(207.064 192.999)"><g class="e" transform="translate(0 0)"><rect class="f" width="158.811" height="33.086"/></g></g></g></svg>