<svg xmlns="http://www.w3.org/2000/svg" width="44.991" height="31.274" viewBox="0 0 44.991 31.274">
  <g id="elearning" transform="translate(0 -78.049)">
    <path id="Path_10351" data-name="Path 10351" d="M85.679,158.689a14.648,14.648,0,0,0,11.7,0,1.622,1.622,0,0,0,1-1.5v-6.338l3.058-1.683a.875.875,0,0,0,0-1.533l-9.484-5.219a.871.871,0,0,0-.843,0l-9.483,5.219a.875.875,0,0,0,0,1.533l3.058,1.683v6.338a1.622,1.622,0,0,0,.994,1.5Zm11.377-1.5a.308.308,0,0,1-.19.284,13.372,13.372,0,0,1-10.678,0,.308.308,0,0,1-.19-.284v-5.613l5.108,2.811a.871.871,0,0,0,.843,0l2.575-1.417v3.513a.659.659,0,0,0,1.318,0v-4.239l1.214-.668Zm-5.529-13.5,8.564,4.713-4.8,2.644-3.307-3.123a.659.659,0,0,0-.9.958l3,2.832-2.546,1.4L82.962,148.4Z" transform="translate(-74.036 -58.613)" fill="#f5f5f5"/>
    <path id="Path_10352" data-name="Path 10352" d="M99.316,141.18a.659.659,0,0,0,0-1.318H96.642a.659.659,0,1,0,0,1.318Z" transform="translate(-87.549 -56.381)" fill="#f5f5f5"/>
    <path id="Path_10353" data-name="Path 10353" d="M43.148,102.991H42.63V79.682A1.635,1.635,0,0,0,41,78.049H10.411a.659.659,0,1,0,0,1.318H41a.316.316,0,0,1,.315.315v23.309H39.994V96.445a.659.659,0,0,0-1.318,0v6.546H6.315V82h32.36V93.81a.659.659,0,0,0,1.318,0V81.344a.659.659,0,0,0-.659-.659H5.656A.659.659,0,0,0,5,81.344v21.647H3.679V79.682a.316.316,0,0,1,.315-.315H7.776a.659.659,0,1,0,0-1.318H3.994a1.635,1.635,0,0,0-1.633,1.633v23.309H1.843A1.845,1.845,0,0,0,0,104.834v2.646a1.845,1.845,0,0,0,1.843,1.843H14.99a.659.659,0,0,0,0-1.318H1.843a.526.526,0,0,1-.525-.525v-2.646a.525.525,0,0,1,.525-.525H17.281l.833,1.748a1.339,1.339,0,0,0,1.2.759h6.358a1.339,1.339,0,0,0,1.2-.759l.833-1.748H43.148a.525.525,0,0,1,.525.525v2.646a.525.525,0,0,1-.525.525H17.625a.659.659,0,1,0,0,1.318H43.148a1.845,1.845,0,0,0,1.843-1.843v-2.646a1.845,1.845,0,0,0-1.843-1.843Zm-17.461,2.5a.014.014,0,0,1-.013.008H19.317a.014.014,0,0,1-.013-.008l-.562-1.181H26.25Z" fill="#f5f5f5"/>
    <path id="Path_10354" data-name="Path 10354" d="M304.849,263.613h8.514a1.014,1.014,0,0,0,1.013-1.013v-3.087a1.014,1.014,0,0,0-1.013-1.013h-8.514a1.014,1.014,0,0,0-1.013,1.013V262.6a1.014,1.014,0,0,0,1.013,1.013Zm.3-3.794h7.9V262.3h-7.9Z" transform="translate(-277.137 -164.595)" fill="#f5f5f5"/>
  </g>
</svg>
