<svg xmlns="http://www.w3.org/2000/svg" width="28" height="24" viewBox="0 0 28 24">
  <path id="Path_13423" data-name="Path 13423" d="M26.25,32H1.75a1.66,1.66,0,0,0-1.23.534A1.809,1.809,0,0,0,0,33.846V49.538a1.823,1.823,0,0,0,.52,1.3,1.64,1.64,0,0,0,1.23.548H13.125v2.769H8.75a.82.82,0,0,0-.615.274.941.941,0,0,0,0,1.3A.82.82,0,0,0,8.75,56h10.5a.82.82,0,0,0,.615-.274.941.941,0,0,0,0-1.3.82.82,0,0,0-.615-.274H14.875V51.385H26.25a1.64,1.64,0,0,0,1.23-.548,1.823,1.823,0,0,0,.52-1.3V33.846a1.809,1.809,0,0,0-.52-1.312A1.66,1.66,0,0,0,26.25,32Zm0,17.538H1.75V33.846h24.5Z" transform="translate(0 -32)" fill="#c02222"/>
</svg>
