<svg xmlns="http://www.w3.org/2000/svg" width="56.436" height="59.473" viewBox="0 0 56.436 59.473">
  <path id="Logins" d="M43.136,59.473a1.907,1.907,0,0,1-1.9-1.9v-9.5a1.906,1.906,0,0,1,1.9-1.9h8.649v-1.9a2.946,2.946,0,1,0-5.891,0H44.087a4.752,4.752,0,1,1,9.5,0v1.9h.95a1.905,1.905,0,0,1,1.9,1.9v9.5a1.907,1.907,0,0,1-1.9,1.9Zm0-1.9h11.4v-9.5h-11.4ZM6.017,56.152A6.024,6.024,0,0,1,0,50.135V46.527A14.457,14.457,0,0,1,14.439,32.087h1.04a19.389,19.389,0,0,0,17.172,0h1.04a14.475,14.475,0,0,1,11.79,6.1,12.381,12.381,0,0,0-8.636,17.958l0,.007Zm40.919-3.326a1.9,1.9,0,1,1,1.9,1.9A1.9,1.9,0,0,1,46.936,52.826ZM10.029,14.038A14.038,14.038,0,1,1,24.067,28.076,14.038,14.038,0,0,1,10.029,14.038Z" fill="#ffc107"/>
</svg>
