<svg xmlns="http://www.w3.org/2000/svg" width="24" height="24" viewBox="0 0 24 24">
  <path id="Org_Member" d="M16.969,20.485a3.519,3.519,0,0,1,2.812-3.445V15.562H12.7V17.04a3.516,3.516,0,1,1-1.405,0V15.562H4.219V17.04a3.515,3.515,0,1,1-1.407,0V14.156H11.3V12.75H7.079V9.141a3.519,3.519,0,0,1,3.515-3.515h2.812a3.519,3.519,0,0,1,3.515,3.515V12.75H12.7v1.405h8.485V17.04a3.516,3.516,0,1,1-4.219,3.445Zm1.405,0a2.109,2.109,0,1,0,2.11-2.11A2.112,2.112,0,0,0,18.375,20.485Zm-8.484,0A2.109,2.109,0,1,0,12,18.375,2.112,2.112,0,0,0,9.891,20.485Zm-8.484,0a2.109,2.109,0,1,0,2.109-2.11A2.112,2.112,0,0,0,1.407,20.485ZM8.484,9.141v2.2h7.032v-2.2a2.112,2.112,0,0,0-2.11-2.11h-.7V9.844H11.3V7.031h-.7A2.112,2.112,0,0,0,8.484,9.141Zm.7-6.329A2.813,2.813,0,1,1,12,5.625,2.815,2.815,0,0,1,9.187,2.812Zm1.407,0A1.406,1.406,0,1,0,12,1.407,1.408,1.408,0,0,0,10.594,2.812Z"/>
</svg>
