<?xml version="1.0" encoding="utf-8"?>
<!-- Generator: Adobe Illustrator 22.0.1, SVG Export Plug-In . SVG Version: 6.00 Build 0)  -->
<svg version="1.1" id="Layer_1" xmlns="http://www.w3.org/2000/svg" xmlns:xlink="http://www.w3.org/1999/xlink" x="0px" y="0px"
	 viewBox="0 0 1366 429" style="enable-background:new 0 0 1366 429;" xml:space="preserve">
<style type="text/css">
	.st0{fill:#4D7DFF;}
	.st1{fill:#5180FF;}
	.st2{fill:#5987FF;}
	.st3{fill:#6490FF;}
	.st4{fill:#80A7FF;}
	.st5{fill:#ACCAFF;}
	.st6{fill:#B5D2FF;}
	.st7{fill:#9DBFFF;}
	.st8{fill:#83AAFF;}
	.st9{fill:#78A2FF;}
	.st10{fill:#719BFF;}
	.st11{fill:#6A95FF;}
	.st12{fill:#86ACFF;}
	.st13{fill:#608DFF;}
	.st14{fill:#5383FF;}
	.st15{fill:#4877FF;}
	.st16{fill:#3F70FF;}
	.st17{fill:#3C6DFF;}
	.st18{fill:#3969FF;}
	.st19{fill:#3462FF;}
	.st20{fill:#3766FF;}
	.st21{fill:#4A7AFF;}
	.st22{fill:#6692FF;}
	.st23{fill:#749DFF;}
	.st24{fill:#BED7FF;}
	.st25{fill:#A9C8FF;}
	.st26{fill:#E7F7FF;}
	.st27{fill:#95B8FF;}
	.st28{fill:#B1CEFF;}
	.st29{fill:#8AB0FF;}
	.st30{fill:#4474FF;}
	.st31{fill:#FFFFFF;}
	.st32{fill:#F9FFFF;}
	.st33{fill:#EDFBFF;}
	.st34{fill:#7BA4FF;}
	.st35{fill:#6D98FF;}
	.st36{fill:#4171FF;}
	.st37{fill:#315EFF;}
	.st38{fill:#8DB3FF;}
	.st39{fill:#CEE5FF;}
	.st40{fill:#C8E1FF;}
	.st41{fill:#D5EBFF;}
	.st42{fill:#C1DBFF;}
	.st43{fill:#5D8AFF;}
	.st44{fill:#A5C5FF;}
	.st45{fill:#A0C1FF;}
	.st46{fill:#DBEFFF;}
	.st47{fill:#FDFFFF;}
	.st48{fill:#B8D4FF;}
	.st49{fill:#2751F9;}
	.st50{fill:#5786FF;}
	.st51{fill:#DFF1FF;}
	.st52{fill:#F1FFFF;}
	.st53{fill:#98BCFF;}
	.st54{fill:#E3F5FF;}
	.st55{fill:#D2E7FF;}
	.st56{fill:#92B6FF;}
	.st57{fill:#C5DDFF;}
	.st58{fill:#F5FFFF;}
	.st59{fill:url(#SVGID_1_);}
	.st60{clip-path:url(#SVGID_11_);}
	.st61{fill:#FBFBFB;}
	.st62{fill:#FEFEFE;}
	.st63{fill:#F8F8F8;}
	.st64{fill:#FDFDFD;}
	.st65{fill:#F7F7F7;}
	.st66{fill:#FCFCFC;}
	.st67{fill:#F3F3F3;}
	.st68{fill:#F9F9F9;}
	.st69{fill:#F6F6F6;}
	.st70{fill:#E7E7E7;}
	.st71{fill:#F1F1F1;}
	.st72{fill:#F2F2F2;}
	.st73{fill:#C1C1C1;}
	.st74{fill:#E4E4E4;}
	.st75{fill:#F0F0F0;}
	.st76{fill:#F5F5F5;}
	.st77{fill:#FAFAFA;}
	.st78{fill:#D1D1D1;}
	.st79{fill:#DEDEDE;}
	.st80{fill:#DCDCDC;}
	.st81{fill:#EAEAEA;}
	.st82{fill:#DFDFDF;}
	.st83{fill:#EEEEEE;}
	.st84{fill:#D6D6D6;}
	.st85{fill:#EDEDED;}
	.st86{fill:#ECECEC;}
	.st87{fill:#CECECE;}
	.st88{fill:#DADADA;}
	.st89{fill:#C3C3C3;}
	.st90{fill:#BABABA;}
	.st91{fill:#E0E0E0;}
	.st92{fill:#D2D2D2;}
	.st93{fill:#E3E3E3;}
	.st94{fill:#EFEFEF;}
	.st95{fill:#CFCFCF;}
	.st96{fill:#D7D7D7;}
	.st97{fill:#CDCDCD;}
	.st98{fill:#E2E2E2;}
	.st99{fill:#EBEBEB;}
	.st100{fill:#D3D3D3;}
	.st101{fill:#D8D8D8;}
	.st102{fill:#D0D0D0;}
	.st103{fill:#D9D9D9;}
	.st104{fill:#DBDBDB;}
	.st105{fill:#E1E1E1;}
	.st106{fill:#E5E5E5;}
	.st107{fill:#E9E9E9;}
	.st108{clip-path:url(#SVGID_125_);}
	.st109{fill:url(#SVGID_126_);}
	.st110{fill:url(#SVGID_127_);}
	.st111{fill:url(#SVGID_128_);}
	.st112{fill:url(#SVGID_129_);}
	.st113{fill:url(#SVGID_130_);}
	.st114{fill:url(#SVGID_131_);}
	.st115{fill:url(#SVGID_132_);}
	.st116{fill:url(#SVGID_133_);}
	.st117{fill:url(#SVGID_134_);}
	.st118{fill:url(#SVGID_135_);}
	.st119{fill:url(#SVGID_136_);}
	.st120{fill:url(#SVGID_137_);}
	.st121{fill:url(#SVGID_138_);}
	.st122{fill:url(#SVGID_139_);}
	.st123{fill:url(#SVGID_140_);}
	.st124{fill:url(#SVGID_141_);}
	.st125{fill:url(#SVGID_142_);}
	.st126{fill:url(#SVGID_143_);}
	.st127{fill:url(#SVGID_144_);}
	.st128{fill:url(#SVGID_145_);}
	.st129{fill:url(#SVGID_146_);}
	.st130{fill:url(#SVGID_147_);}
	.st131{fill:url(#SVGID_148_);}
	.st132{fill:url(#SVGID_149_);}
	.st133{fill:url(#SVGID_150_);}
	.st134{clip-path:url(#SVGID_162_);}
	.st135{fill:url(#SVGID_261_);}
</style>
<g>
	<g>
		<g>
			<polygon class="st0" points="1328.6,-0.9 1328.7,41.9 1367.9,14.6 1367.9,-1 			"/>
			<polygon class="st1" points="1368,65 1367.9,14.6 1328.7,41.9 1328.9,92.3 			"/>
			<polygon class="st2" points="1368.2,115.4 1368,65 1328.9,92.3 1329,142.8 			"/>
			<polygon class="st3" points="1368.3,165.9 1368.2,115.4 1329,142.8 1329.1,193.2 			"/>
			<polygon class="st4" points="1368.4,216.3 1368.3,165.9 1329.1,193.2 1329.2,243.6 			"/>
			<polygon class="st5" points="1368.5,266.7 1368.4,216.3 1329.2,243.6 1329.3,294 			"/>
			<polygon class="st6" points="1368.6,317.1 1368.5,266.7 1329.3,294 1329.4,344.5 			"/>
			<polygon class="st7" points="1368.7,367.6 1368.6,317.1 1329.4,344.5 1329.6,394.9 			"/>
			<polygon class="st8" points="1368.9,418 1368.7,367.6 1329.6,394.9 1329.7,445.3 			"/>
			<polygon class="st9" points="1369,468.4 1368.9,418 1329.7,445.3 1329.8,495.8 			"/>
			<polygon class="st19" points="1289.4,-0.8 1289.4,18.8 1317.7,-0.9 			"/>
			<polygon class="st20" points="1317.7,-0.9 1289.4,18.8 1289.6,69.3 1328.7,41.9 1328.6,-0.9 			"/>
			<polygon class="st20" points="1328.9,92.3 1328.7,41.9 1289.6,69.3 1289.7,119.7 			"/>
			<polygon class="st21" points="1329,142.8 1328.9,92.3 1289.7,119.7 1289.8,170.1 			"/>
			<polygon class="st22" points="1329.1,193.2 1329,142.8 1289.8,170.1 1289.9,220.5 			"/>
			<polygon class="st23" points="1329.2,243.6 1329.1,193.2 1289.9,220.5 1290,271 			"/>
			<polygon class="st7" points="1329.3,294 1329.2,243.6 1290,271 1290.2,321.4 			"/>
			<polygon class="st24" points="1329.4,344.5 1329.3,294 1290.2,321.4 1290.3,371.8 			"/>
			<polygon class="st25" points="1329.6,394.9 1329.4,344.5 1290.3,371.8 1290.4,422.2 			"/>
			<polygon class="st26" points="1329.7,445.3 1329.6,394.9 1290.4,422.2 1290.5,472.7 			"/>
			<polygon class="st19" points="1250.2,-0.7 1250.3,46.2 1289.4,18.8 1289.4,-0.8 			"/>
			<polygon class="st16" points="1289.6,69.3 1289.4,18.8 1250.3,46.2 1250.4,96.6 			"/>
			<polygon class="st1" points="1289.7,119.7 1289.6,69.3 1250.4,96.6 1250.5,147 			"/>
			<polygon class="st21" points="1289.8,170.1 1289.7,119.7 1250.5,147 1250.6,197.5 			"/>
			<polygon class="st1" points="1289.9,220.5 1289.8,170.1 1250.6,197.5 1250.7,247.9 			"/>
			<polygon class="st2" points="1290,271 1289.9,220.5 1250.7,247.9 1250.9,298.3 			"/>
			<polygon class="st4" points="1290.2,321.4 1290,271 1250.9,298.3 1251,348.7 			"/>
			<polygon class="st26" points="1290.3,371.8 1290.2,321.4 1251,348.7 1251.1,399.2 			"/>
			<polygon class="st25" points="1290.4,422.2 1290.3,371.8 1251.1,399.2 1251.2,449.6 			"/>
			<polygon class="st31" points="1290.5,472.7 1290.4,422.2 1251.2,449.6 1251.3,500 			"/>
			<polygon class="st37" points="1210.9,-0.6 1211,23.1 1245.1,-0.7 			"/>
			<polygon class="st16" points="1245.1,-0.7 1211,23.1 1211.1,73.5 1250.3,46.2 1250.2,-0.7 			"/>
			<polygon class="st17" points="1250.4,96.6 1250.3,46.2 1211.1,73.5 1211.2,123.9 			"/>
			<polygon class="st30" points="1250.5,147 1250.4,96.6 1211.2,123.9 1211.3,174.4 			"/>
			<polygon class="st36" points="1250.6,197.5 1250.5,147 1211.3,174.4 1211.4,224.8 			"/>
			<polygon class="st11" points="1250.7,247.9 1250.6,197.5 1211.4,224.8 1211.6,275.2 			"/>
			<polygon class="st38" points="1250.9,298.3 1250.7,247.9 1211.6,275.2 1211.7,325.6 			"/>
			<polygon class="st4" points="1251,348.7 1250.9,298.3 1211.7,325.6 1211.8,376.1 			"/>
			<polygon class="st39" points="1251.1,399.2 1251,348.7 1211.8,376.1 1211.9,426.5 			"/>
			<polygon class="st40" points="1251.2,449.6 1251.1,399.2 1211.9,426.5 1212,476.9 			"/>
			<polygon class="st37" points="1172.5,-0.5 1171.7,0 1171.8,50.4 1211,23.1 1210.9,-0.6 			"/>
			<polygon class="st19" points="1211.1,73.5 1211,23.1 1171.8,50.4 1171.9,100.9 			"/>
			<polygon class="st19" points="1211.2,123.9 1211.1,73.5 1171.9,100.9 1172,151.3 			"/>
			<polygon class="st1" points="1211.3,174.4 1211.2,123.9 1172,151.3 1172.2,201.7 			"/>
			<polygon class="st2" points="1211.4,224.8 1211.3,174.4 1172.2,201.7 1172.3,252.1 			"/>
			<polygon class="st7" points="1211.6,275.2 1211.4,224.8 1172.3,252.1 1172.4,302.6 			"/>
			<polygon class="st44" points="1211.7,325.6 1211.6,275.2 1172.4,302.6 1172.5,353 			"/>
			<polygon class="st12" points="1211.8,376.1 1211.7,325.6 1172.5,353 1172.6,403.4 			"/>
			<polygon class="st45" points="1211.9,426.5 1211.8,376.1 1172.6,403.4 1172.7,453.8 			"/>
			<polygon class="st7" points="1212,476.9 1211.9,426.5 1172.7,453.8 1172.9,504.3 			"/>
			<polygon class="st49" points="1132.4,-0.4 1132.5,27.4 1171.7,0 1171.7,-0.5 			"/>
			<polygon class="st17" points="1171.8,50.4 1171.7,0 1132.5,27.4 1132.6,77.8 			"/>
			<polygon class="st30" points="1171.9,100.9 1171.8,50.4 1132.6,77.8 1132.7,128.2 			"/>
			<polygon class="st21" points="1172,151.3 1171.9,100.9 1132.7,128.2 1132.9,178.6 			"/>
			<polygon class="st22" points="1172.2,201.7 1172,151.3 1132.9,178.6 1133,229.1 			"/>
			<polygon class="st50" points="1172.3,252.1 1172.2,201.7 1133,229.1 1133.1,279.5 			"/>
			<polygon class="st13" points="1172.4,302.6 1172.3,252.1 1133.1,279.5 1133.2,329.9 			"/>
			<polygon class="st8" points="1172.5,353 1172.4,302.6 1133.2,329.9 1133.3,380.3 			"/>
			<polygon class="st12" points="1172.6,403.4 1172.5,353 1133.3,380.3 1133.4,430.8 			"/>
			<polygon class="st5" points="1172.7,453.8 1172.6,403.4 1133.4,430.8 1133.6,481.2 			"/>
			<polygon class="st15" points="1093.2,-0.3 1093.2,4.3 1099.9,-0.4 			"/>
			<polygon class="st15" points="1099.9,-0.4 1093.2,4.3 1093.3,54.7 1132.5,27.4 1132.4,-0.4 			"/>
			<polygon class="st16" points="1132.6,77.8 1132.5,27.4 1093.3,54.7 1093.4,105.1 			"/>
			<polygon class="st36" points="1132.7,128.2 1132.6,77.8 1093.4,105.1 1093.6,155.5 			"/>
			<polygon class="st0" points="1132.9,178.6 1132.7,128.2 1093.6,155.5 1093.7,206 			"/>
			<polygon class="st13" points="1133,229.1 1132.9,178.6 1093.7,206 1093.8,256.4 			"/>
			<polygon class="st50" points="1133.1,279.5 1133,229.1 1093.8,256.4 1093.9,306.8 			"/>
			<polygon class="st8" points="1133.2,329.9 1133.1,279.5 1093.9,306.8 1094,357.2 			"/>
			<polygon class="st29" points="1133.3,380.3 1133.2,329.9 1094,357.2 1094.2,407.7 			"/>
			<polygon class="st10" points="1133.4,430.8 1133.3,380.3 1094.2,407.7 1094.3,458.1 			"/>
			<polygon class="st1" points="1054,-0.3 1054,31.6 1093.2,4.3 1093.2,-0.3 			"/>
			<polygon class="st36" points="1093.3,54.7 1093.2,4.3 1054,31.6 1054.2,82 			"/>
			<polygon class="st0" points="1093.4,105.1 1093.3,54.7 1054.2,82 1054.3,132.5 			"/>
			<polygon class="st1" points="1093.6,155.5 1093.4,105.1 1054.3,132.5 1054.4,182.9 			"/>
			<polygon class="st11" points="1093.7,206 1093.6,155.5 1054.4,182.9 1054.5,233.3 			"/>
			<polygon class="st34" points="1093.8,256.4 1093.7,206 1054.5,233.3 1054.6,283.7 			"/>
			<polygon class="st2" points="1093.9,306.8 1093.8,256.4 1054.6,283.7 1054.7,334.2 			"/>
			<polygon class="st4" points="1094,357.2 1093.9,306.8 1054.7,334.2 1054.9,384.6 			"/>
			<polygon class="st45" points="1094.2,407.7 1094,357.2 1054.9,384.6 1055,435 			"/>
			<polygon class="st8" points="1094.3,458.1 1094.2,407.7 1055,435 1055.1,485.4 			"/>
			<polygon class="st15" points="1014.7,-0.2 1014.7,8.5 1027.2,-0.2 			"/>
			<polygon class="st15" points="1027.2,-0.2 1014.7,8.5 1014.9,58.9 1054,31.6 1054,-0.3 			"/>
			<polygon class="st13" points="1054.2,82 1054,31.6 1014.9,58.9 1015,109.4 			"/>
			<polygon class="st15" points="1054.3,132.5 1054.2,82 1015,109.4 1015.1,159.8 			"/>
			<polygon class="st43" points="1054.4,182.9 1054.3,132.5 1015.1,159.8 1015.2,210.2 			"/>
			<polygon class="st13" points="1054.5,233.3 1054.4,182.9 1015.2,210.2 1015.3,260.7 			"/>
			<polygon class="st34" points="1054.6,283.7 1054.5,233.3 1015.3,260.7 1015.4,311.1 			"/>
			<polygon class="st34" points="1054.7,334.2 1054.6,283.7 1015.4,311.1 1015.6,361.5 			"/>
			<polygon class="st53" points="1054.9,384.6 1054.7,334.2 1015.6,361.5 1015.7,411.9 			"/>
			<polygon class="st11" points="1055,435 1054.9,384.6 1015.7,411.9 1015.8,462.4 			"/>
			<polygon class="st43" points="975.5,-0.1 975.6,35.9 1014.7,8.5 1014.7,-0.2 			"/>
			<polygon class="st13" points="1014.9,58.9 1014.7,8.5 975.6,35.9 975.7,86.3 			"/>
			<polygon class="st21" points="1015,109.4 1014.9,58.9 975.7,86.3 975.8,136.7 			"/>
			<polygon class="st50" points="1015.1,159.8 1015,109.4 975.8,136.7 975.9,187.1 			"/>
			<polygon class="st2" points="1015.2,210.2 1015.1,159.8 975.9,187.1 976,237.6 			"/>
			<polygon class="st45" points="1015.3,260.7 1015.2,210.2 976,237.6 976.2,288 			"/>
			<polygon class="st38" points="1015.4,311.1 1015.3,260.7 976.2,288 976.3,338.4 			"/>
			<polygon class="st10" points="1015.6,361.5 1015.4,311.1 976.3,338.4 976.4,388.8 			"/>
			<polygon class="st56" points="1015.7,411.9 1015.6,361.5 976.4,388.8 976.5,439.3 			"/>
			<polygon class="st23" points="1015.8,462.4 1015.7,411.9 976.5,439.3 976.6,489.7 			"/>
			<polygon class="st36" points="936.2,0 936.3,12.8 954.6,0 			"/>
			<polygon class="st50" points="954.6,0 936.3,12.8 936.4,63.2 975.6,35.9 975.5,-0.1 			"/>
			<polygon class="st22" points="975.7,86.3 975.6,35.9 936.4,63.2 936.5,113.6 			"/>
			<polygon class="st3" points="975.8,136.7 975.7,86.3 936.5,113.6 936.6,164.1 			"/>
			<polygon class="st15" points="975.9,187.1 975.8,136.7 936.6,164.1 936.7,214.5 			"/>
			<polygon class="st13" points="976,237.6 975.9,187.1 936.7,214.5 936.9,264.9 			"/>
			<polygon class="st11" points="976.2,288 976,237.6 936.9,264.9 937,315.3 			"/>
			<polygon class="st12" points="976.3,338.4 976.2,288 937,315.3 937.1,365.8 			"/>
			<polygon class="st56" points="976.4,388.8 976.3,338.4 937.1,365.8 937.2,416.2 			"/>
			<polygon class="st5" points="976.5,439.3 976.4,388.8 937.2,416.2 937.3,466.6 			"/>
			<polygon class="st15" points="897,0.1 897.1,40.1 936.3,12.8 936.2,0 			"/>
			<polygon class="st50" points="936.4,63.2 936.3,12.8 897.1,40.1 897.2,90.5 			"/>
			<polygon class="st13" points="936.5,113.6 936.4,63.2 897.2,90.5 897.3,141 			"/>
			<polygon class="st43" points="936.6,164.1 936.5,113.6 897.3,141 897.5,191.4 			"/>
			<polygon class="st43" points="936.7,214.5 936.6,164.1 897.5,191.4 897.6,241.8 			"/>
			<polygon class="st12" points="936.9,264.9 936.7,214.5 897.6,241.8 897.7,292.2 			"/>
			<polygon class="st35" points="937,315.3 936.9,264.9 897.7,292.2 897.8,342.7 			"/>
			<polygon class="st46" points="937.1,365.8 937,315.3 897.8,342.7 897.9,393.1 			"/>
			<polygon class="st5" points="937.2,416.2 937.1,365.8 897.9,393.1 898,443.5 			"/>
			<polygon class="st53" points="937.3,466.6 937.2,416.2 898,443.5 898.2,493.9 			"/>
			<polygon class="st14" points="857.8,0.2 857.8,17 882,0.1 			"/>
			<polygon class="st15" points="882,0.1 857.8,17 857.9,67.5 897.1,40.1 897,0.1 			"/>
			<polygon class="st14" points="897.2,90.5 897.1,40.1 857.9,67.5 858,117.9 			"/>
			<polygon class="st11" points="897.3,141 897.2,90.5 858,117.9 858.2,168.3 			"/>
			<polygon class="st22" points="897.5,191.4 897.3,141 858.2,168.3 858.3,218.7 			"/>
			<polygon class="st13" points="897.6,241.8 897.5,191.4 858.3,218.7 858.4,269.2 			"/>
			<polygon class="st13" points="897.7,292.2 897.6,241.8 858.4,269.2 858.5,319.6 			"/>
			<polygon class="st38" points="897.8,342.7 897.7,292.2 858.5,319.6 858.6,370 			"/>
			<polygon class="st31" points="897.9,393.1 897.8,342.7 858.6,370 858.7,420.4 			"/>
			<polygon class="st45" points="898,443.5 897.9,393.1 858.7,420.4 858.9,470.9 			"/>
			<polygon class="st50" points="818.5,0.3 818.6,44.4 857.8,17 857.8,0.2 			"/>
			<polygon class="st21" points="857.9,67.5 857.8,17 818.6,44.4 818.7,94.8 			"/>
			<polygon class="st21" points="858,117.9 857.9,67.5 818.7,94.8 818.9,145.2 			"/>
			<polygon class="st2" points="858.2,168.3 858,117.9 818.9,145.2 819,195.7 			"/>
			<polygon class="st23" points="858.3,218.7 858.2,168.3 819,195.7 819.1,246.1 			"/>
			<polygon class="st10" points="858.4,269.2 858.3,218.7 819.1,246.1 819.2,296.5 			"/>
			<polygon class="st28" points="858.5,319.6 858.4,269.2 819.2,296.5 819.3,346.9 			"/>
			<polygon class="st28" points="858.6,370 858.5,319.6 819.3,346.9 819.4,397.4 			"/>
			<polygon class="st5" points="858.7,420.4 858.6,370 819.4,397.4 819.6,447.8 			"/>
			<polygon class="st39" points="858.9,470.9 858.7,420.4 819.6,447.8 819.7,498.2 			"/>
			<polygon class="st21" points="779.3,0.4 779.3,21.3 809.4,0.3 			"/>
			<polygon class="st14" points="809.4,0.3 779.3,21.3 779.5,71.7 818.6,44.4 818.5,0.3 			"/>
			<polygon class="st21" points="818.7,94.8 818.6,44.4 779.5,71.7 779.6,122.1 			"/>
			<polygon class="st17" points="818.9,145.2 818.7,94.8 779.6,122.1 779.7,172.6 			"/>
			<polygon class="st43" points="819,195.7 818.9,145.2 779.7,172.6 779.8,223 			"/>
			<polygon class="st8" points="819.1,246.1 819,195.7 779.8,223 779.9,273.4 			"/>
			<polygon class="st45" points="819.2,296.5 819.1,246.1 779.9,273.4 780,323.8 			"/>
			<polygon class="st55" points="819.3,346.9 819.2,296.5 780,323.8 780.2,374.3 			"/>
			<polygon class="st55" points="819.4,397.4 819.3,346.9 780.2,374.3 780.3,424.7 			"/>
			<polygon class="st57" points="819.6,447.8 819.4,397.4 780.3,424.7 780.4,475.1 			"/>
			<polygon class="st23" points="740,0.5 740.2,48.6 779.3,21.3 779.3,0.4 			"/>
			<polygon class="st50" points="779.5,71.7 779.3,21.3 740.2,48.6 740.3,99.1 			"/>
			<polygon class="st15" points="779.6,122.1 779.5,71.7 740.3,99.1 740.4,149.5 			"/>
			<polygon class="st20" points="779.7,172.6 779.6,122.1 740.4,149.5 740.5,199.9 			"/>
			<polygon class="st50" points="779.8,223 779.7,172.6 740.5,199.9 740.6,250.3 			"/>
			<polygon class="st43" points="779.9,273.4 779.8,223 740.6,250.3 740.7,300.8 			"/>
			<polygon class="st56" points="780,323.8 779.9,273.4 740.7,300.8 740.9,351.2 			"/>
			<polygon class="st7" points="780.2,374.3 780,323.8 740.9,351.2 741,401.6 			"/>
			<polygon class="st58" points="780.3,424.7 780.2,374.3 741,401.6 741.1,452 			"/>
			<polygon class="st52" points="780.4,475.1 780.3,424.7 741.1,452 741.2,502.5 			"/>
			<polygon class="st23" points="700.8,0.6 700.9,25.5 736.8,0.5 			"/>
			<polygon class="st10" points="736.8,0.5 700.9,25.5 701,76 740.2,48.6 740,0.5 			"/>
			<polygon class="st36" points="740.3,99.1 740.2,48.6 701,76 701.1,126.4 			"/>
			<polygon class="st1" points="740.4,149.5 740.3,99.1 701.1,126.4 701.2,176.8 			"/>
			<polygon class="st30" points="740.5,199.9 740.4,149.5 701.2,176.8 701.3,227.3 			"/>
			<polygon class="st22" points="740.6,250.3 740.5,199.9 701.3,227.3 701.4,277.7 			"/>
			<polygon class="st1" points="740.7,300.8 740.6,250.3 701.4,277.7 701.6,328.1 			"/>
			<polygon class="st56" points="740.9,351.2 740.7,300.8 701.6,328.1 701.7,378.5 			"/>
			<polygon class="st26" points="741,401.6 740.9,351.2 701.7,378.5 701.8,429 			"/>
			<polygon class="st54" points="741.1,452 741,401.6 701.8,429 701.9,479.4 			"/>
			<polygon class="st45" points="664.2,0.6 661.6,2.5 661.7,52.9 700.9,25.5 700.8,0.6 			"/>
			<polygon class="st8" points="701,76 700.9,25.5 661.7,52.9 661.8,103.3 			"/>
			<polygon class="st13" points="701.1,126.4 701,76 661.8,103.3 661.9,153.7 			"/>
			<polygon class="st21" points="701.2,176.8 701.1,126.4 661.9,153.7 662,204.2 			"/>
			<polygon class="st11" points="701.3,227.3 701.2,176.8 662,204.2 662.2,254.6 			"/>
			<polygon class="st14" points="701.4,277.7 701.3,227.3 662.2,254.6 662.3,305 			"/>
			<polygon class="st0" points="701.6,328.1 701.4,277.7 662.3,305 662.4,355.4 			"/>
			<polygon class="st57" points="701.7,378.5 701.6,328.1 662.4,355.4 662.5,405.9 			"/>
			<polygon class="st31" points="701.8,429 701.7,378.5 662.5,405.9 662.6,456.3 			"/>
			<polygon class="st31" points="701.9,479.4 701.8,429 662.6,456.3 662.7,506.7 			"/>
		</g>
		<g>
			<polygon class="st0" points="661.6,0.7 661.6,16.2 700.9,43.4 700.8,0.6 			"/>
			<polygon class="st1" points="661.7,66.6 661.6,16.2 700.9,43.4 701,93.8 			"/>
			<polygon class="st2" points="661.8,117.1 661.7,66.6 701,93.8 701.1,144.2 			"/>
			<polygon class="st3" points="662,167.5 661.8,117.1 701.1,144.2 701.3,194.7 			"/>
			<polygon class="st4" points="662.1,217.9 662,167.5 701.3,194.7 701.4,245.1 			"/>
			<polygon class="st5" points="662.2,268.3 662.1,217.9 701.4,245.1 701.5,295.5 			"/>
			<polygon class="st6" points="662.3,318.8 662.2,268.3 701.5,295.5 701.6,345.9 			"/>
			<polygon class="st7" points="662.4,369.2 662.3,318.8 701.6,345.9 701.7,396.4 			"/>
			<polygon class="st8" points="662.5,419.6 662.4,369.2 701.7,396.4 701.8,446.8 			"/>
			<polygon class="st9" points="662.7,470.1 662.5,419.6 701.8,446.8 702,497.2 			"/>
			<polygon class="st19" points="711.8,0.5 740.1,20.1 740,0.5 			"/>
			<polygon class="st20" points="700.8,0.6 700.9,43.4 740.2,70.5 740.1,20.1 711.8,0.5 			"/>
			<polygon class="st20" points="701,93.8 700.9,43.4 740.2,70.5 740.3,121 			"/>
			<polygon class="st21" points="701.1,144.2 701,93.8 740.3,121 740.4,171.4 			"/>
			<polygon class="st22" points="701.3,194.7 701.1,144.2 740.4,171.4 740.6,221.8 			"/>
			<polygon class="st23" points="701.4,245.1 701.3,194.7 740.6,221.8 740.7,272.2 			"/>
			<polygon class="st7" points="701.5,295.5 701.4,245.1 740.7,272.2 740.8,322.7 			"/>
			<polygon class="st24" points="701.6,345.9 701.5,295.5 740.8,322.7 740.9,373.1 			"/>
			<polygon class="st25" points="701.7,396.4 701.6,345.9 740.9,373.1 741,423.5 			"/>
			<polygon class="st26" points="701.8,446.8 701.7,396.4 741,423.5 741.1,473.9 			"/>
			<polygon class="st19" points="740,0.5 740.1,20.1 779.4,47.3 779.3,0.4 			"/>
			<polygon class="st16" points="740.2,70.5 740.1,20.1 779.4,47.3 779.5,97.7 			"/>
			<polygon class="st1" points="740.3,121 740.2,70.5 779.5,97.7 779.6,148.1 			"/>
			<polygon class="st21" points="740.4,171.4 740.3,121 779.6,148.1 779.7,198.5 			"/>
			<polygon class="st1" points="740.6,221.8 740.4,171.4 779.7,198.5 779.9,249 			"/>
			<polygon class="st2" points="740.7,272.2 740.6,221.8 779.9,249 780,299.4 			"/>
			<polygon class="st4" points="740.8,322.7 740.7,272.2 780,299.4 780.1,349.8 			"/>
			<polygon class="st26" points="740.9,373.1 740.8,322.7 780.1,349.8 780.2,400.3 			"/>
			<polygon class="st25" points="741,423.5 740.9,373.1 780.2,400.3 780.3,450.7 			"/>
			<polygon class="st31" points="741.1,473.9 741,423.5 780.3,450.7 780.4,501.1 			"/>
			<polygon class="st37" points="784.4,0.4 818.6,24 818.5,0.3 			"/>
			<polygon class="st16" points="779.3,0.4 779.4,47.3 818.7,74.4 818.6,24 784.4,0.4 			"/>
			<polygon class="st17" points="779.5,97.7 779.4,47.3 818.7,74.4 818.8,124.9 			"/>
			<polygon class="st30" points="779.6,148.1 779.5,97.7 818.8,124.9 818.9,175.3 			"/>
			<polygon class="st36" points="779.7,198.5 779.6,148.1 818.9,175.3 819.1,225.7 			"/>
			<polygon class="st11" points="779.9,249 779.7,198.5 819.1,225.7 819.2,276.1 			"/>
			<polygon class="st38" points="780,299.4 779.9,249 819.2,276.1 819.3,326.6 			"/>
			<polygon class="st4" points="780.1,349.8 780,299.4 819.3,326.6 819.4,377 			"/>
			<polygon class="st39" points="780.2,400.3 780.1,349.8 819.4,377 819.5,427.4 			"/>
			<polygon class="st40" points="780.3,450.7 780.2,400.3 819.5,427.4 819.6,477.8 			"/>
			<polygon class="st37" points="818.5,0.3 818.6,24 857.9,51.2 857.8,0.7 857,0.2 			"/>
			<polygon class="st19" points="818.7,74.4 818.6,24 857.9,51.2 858,101.6 			"/>
			<polygon class="st19" points="818.8,124.9 818.7,74.4 858,101.6 858.1,152 			"/>
			<polygon class="st1" points="818.9,175.3 818.8,124.9 858.1,152 858.2,202.4 			"/>
			<polygon class="st2" points="819.1,225.7 818.9,175.3 858.2,202.4 858.4,252.9 			"/>
			<polygon class="st7" points="819.2,276.1 819.1,225.7 858.4,252.9 858.5,303.3 			"/>
			<polygon class="st44" points="819.3,326.6 819.2,276.1 858.5,303.3 858.6,353.7 			"/>
			<polygon class="st12" points="819.4,377 819.3,326.6 858.6,353.7 858.7,404.1 			"/>
			<polygon class="st45" points="819.5,427.4 819.4,377 858.7,404.1 858.8,454.6 			"/>
			<polygon class="st7" points="819.6,477.8 819.5,427.4 858.8,454.6 858.9,505 			"/>
			<polygon class="st49" points="857.8,0.2 857.8,0.7 897.1,27.9 897,0.1 			"/>
			<polygon class="st17" points="857.9,51.2 857.8,0.7 897.1,27.9 897.2,78.3 			"/>
			<polygon class="st30" points="858,101.6 857.9,51.2 897.2,78.3 897.3,128.7 			"/>
			<polygon class="st21" points="858.1,152 858,101.6 897.3,128.7 897.4,179.2 			"/>
			<polygon class="st22" points="858.2,202.4 858.1,152 897.4,179.2 897.5,229.6 			"/>
			<polygon class="st50" points="858.4,252.9 858.2,202.4 897.5,229.6 897.7,280 			"/>
			<polygon class="st13" points="858.5,303.3 858.4,252.9 897.7,280 897.8,330.5 			"/>
			<polygon class="st8" points="858.6,353.7 858.5,303.3 897.8,330.5 897.9,380.9 			"/>
			<polygon class="st12" points="858.7,404.1 858.6,353.7 897.9,380.9 898,431.3 			"/>
			<polygon class="st5" points="858.8,454.6 858.7,404.1 898,431.3 898.1,481.7 			"/>
			<polygon class="st15" points="929.6,0 936.3,4.6 936.2,0 			"/>
			<polygon class="st15" points="897,0.1 897.1,27.9 936.4,55.1 936.3,4.6 929.6,0 			"/>
			<polygon class="st16" points="897.2,78.3 897.1,27.9 936.4,55.1 936.5,105.5 			"/>
			<polygon class="st36" points="897.3,128.7 897.2,78.3 936.5,105.5 936.6,155.9 			"/>
			<polygon class="st0" points="897.4,179.2 897.3,128.7 936.6,155.9 936.7,206.3 			"/>
			<polygon class="st13" points="897.5,229.6 897.4,179.2 936.7,206.3 936.8,256.8 			"/>
			<polygon class="st50" points="897.7,280 897.5,229.6 936.8,256.8 937,307.2 			"/>
			<polygon class="st8" points="897.8,330.5 897.7,280 937,307.2 937.1,357.6 			"/>
			<polygon class="st29" points="897.9,380.9 897.8,330.5 937.1,357.6 937.2,408 			"/>
			<polygon class="st10" points="898,431.3 897.9,380.9 937.2,408 937.3,458.5 			"/>
			<polygon class="st1" points="936.2,0 936.3,4.6 975.6,31.8 975.5,-0.1 			"/>
			<polygon class="st36" points="936.4,55.1 936.3,4.6 975.6,31.8 975.7,82.2 			"/>
			<polygon class="st0" points="936.5,105.5 936.4,55.1 975.7,82.2 975.8,132.6 			"/>
			<polygon class="st1" points="936.6,155.9 936.5,105.5 975.8,132.6 975.9,183.1 			"/>
			<polygon class="st11" points="936.7,206.3 936.6,155.9 975.9,183.1 976,233.5 			"/>
			<polygon class="st34" points="936.8,256.8 936.7,206.3 976,233.5 976.1,283.9 			"/>
			<polygon class="st2" points="937,307.2 936.8,256.8 976.1,283.9 976.3,334.3 			"/>
			<polygon class="st4" points="937.1,357.6 937,307.2 976.3,334.3 976.4,384.8 			"/>
			<polygon class="st45" points="937.2,408 937.1,357.6 976.4,384.8 976.5,435.2 			"/>
			<polygon class="st8" points="937.3,458.5 937.2,408 976.5,435.2 976.6,485.6 			"/>
			<polygon class="st15" points="1002.2,-0.1 1014.7,8.5 1014.7,-0.2 			"/>
			<polygon class="st15" points="975.5,-0.1 975.6,31.8 1014.9,58.9 1014.7,8.5 1002.2,-0.1 			"/>
			<polygon class="st13" points="975.7,82.2 975.6,31.8 1014.9,58.9 1015,109.4 			"/>
			<polygon class="st15" points="975.8,132.6 975.7,82.2 1015,109.4 1015.1,159.8 			"/>
			<polygon class="st43" points="975.9,183.1 975.8,132.6 1015.1,159.8 1015.2,210.2 			"/>
			<polygon class="st13" points="976,233.5 975.9,183.1 1015.2,210.2 1015.3,260.7 			"/>
			<polygon class="st34" points="976.1,283.9 976,233.5 1015.3,260.7 1015.4,311.1 			"/>
			<polygon class="st34" points="976.3,334.3 976.1,283.9 1015.4,311.1 1015.6,361.5 			"/>
			<polygon class="st53" points="976.4,384.8 976.3,334.3 1015.6,361.5 1015.7,411.9 			"/>
			<polygon class="st11" points="976.5,435.2 976.4,384.8 1015.7,411.9 1015.8,462.4 			"/>
			<polygon class="st43" points="1014.7,-0.2 1014.7,8.5 1054,35.7 1054,-0.3 			"/>
			<polygon class="st13" points="1014.9,58.9 1014.7,8.5 1054,35.7 1054.2,86.1 			"/>
			<polygon class="st21" points="1015,109.4 1014.9,58.9 1054.2,86.1 1054.3,136.5 			"/>
			<polygon class="st50" points="1015.1,159.8 1015,109.4 1054.3,136.5 1054.4,187 			"/>
			<polygon class="st2" points="1015.2,210.2 1015.1,159.8 1054.4,187 1054.5,237.4 			"/>
			<polygon class="st45" points="1015.3,260.7 1015.2,210.2 1054.5,237.4 1054.6,287.8 			"/>
			<polygon class="st38" points="1015.4,311.1 1015.3,260.7 1054.6,287.8 1054.8,338.2 			"/>
			<polygon class="st10" points="1015.6,361.5 1015.4,311.1 1054.8,338.2 1054.9,388.7 			"/>
			<polygon class="st56" points="1015.7,411.9 1015.6,361.5 1054.9,388.7 1055,439.1 			"/>
			<polygon class="st23" points="1015.8,462.4 1015.7,411.9 1055,439.1 1055.1,489.5 			"/>
			<polygon class="st36" points="1074.8,-0.3 1093.2,12.4 1093.2,-0.3 			"/>
			<polygon class="st50" points="1054,-0.3 1054,35.7 1093.4,62.8 1093.2,12.4 1074.8,-0.3 			"/>
			<polygon class="st22" points="1054.2,86.1 1054,35.7 1093.4,62.8 1093.5,113.3 			"/>
			<polygon class="st3" points="1054.3,136.5 1054.2,86.1 1093.5,113.3 1093.6,163.7 			"/>
			<polygon class="st15" points="1054.4,187 1054.3,136.5 1093.6,163.7 1093.7,214.1 			"/>
			<polygon class="st13" points="1054.5,237.4 1054.4,187 1093.7,214.1 1093.8,264.5 			"/>
			<polygon class="st11" points="1054.6,287.8 1054.5,237.4 1093.8,264.5 1093.9,315 			"/>
			<polygon class="st12" points="1054.8,338.2 1054.6,287.8 1093.9,315 1094.1,365.4 			"/>
			<polygon class="st56" points="1054.9,388.7 1054.8,338.2 1094.1,365.4 1094.2,415.8 			"/>
			<polygon class="st5" points="1055,439.1 1054.9,388.7 1094.2,415.8 1094.3,466.2 			"/>
			<polygon class="st15" points="1093.2,-0.3 1093.2,12.4 1132.5,39.6 1132.4,-0.4 			"/>
			<polygon class="st50" points="1093.4,62.8 1093.2,12.4 1132.5,39.6 1132.7,90 			"/>
			<polygon class="st13" points="1093.5,113.3 1093.4,62.8 1132.7,90 1132.8,140.4 			"/>
			<polygon class="st43" points="1093.6,163.7 1093.5,113.3 1132.8,140.4 1132.9,190.9 			"/>
			<polygon class="st43" points="1093.7,214.1 1093.6,163.7 1132.9,190.9 1133,241.3 			"/>
			<polygon class="st12" points="1093.8,264.5 1093.7,214.1 1133,241.3 1133.1,291.7 			"/>
			<polygon class="st35" points="1093.9,315 1093.8,264.5 1133.1,291.7 1133.2,342.1 			"/>
			<polygon class="st46" points="1094.1,365.4 1093.9,315 1133.2,342.1 1133.4,392.6 			"/>
			<polygon class="st5" points="1094.2,415.8 1094.1,365.4 1133.4,392.6 1133.5,443 			"/>
			<polygon class="st53" points="1094.3,466.2 1094.2,415.8 1133.5,443 1133.6,493.4 			"/>
			<polygon class="st14" points="1147.4,-0.5 1171.7,16.3 1171.7,-0.5 			"/>
			<polygon class="st15" points="1132.4,-0.4 1132.5,39.6 1171.8,66.7 1171.7,16.3 1147.4,-0.5 			"/>
			<polygon class="st14" points="1132.7,90 1132.5,39.6 1171.8,66.7 1172,117.2 			"/>
			<polygon class="st11" points="1132.8,140.4 1132.7,90 1172,117.2 1172.1,167.6 			"/>
			<polygon class="st22" points="1132.9,190.9 1132.8,140.4 1172.1,167.6 1172.2,218 			"/>
			<polygon class="st13" points="1133,241.3 1132.9,190.9 1172.2,218 1172.3,268.4 			"/>
			<polygon class="st13" points="1133.1,291.7 1133,241.3 1172.3,268.4 1172.4,318.9 			"/>
			<polygon class="st38" points="1133.2,342.1 1133.1,291.7 1172.4,318.9 1172.5,369.3 			"/>
			<polygon class="st31" points="1133.4,392.6 1133.2,342.1 1172.5,369.3 1172.7,419.7 			"/>
			<polygon class="st45" points="1133.5,443 1133.4,392.6 1172.7,419.7 1172.8,470.1 			"/>
			<polygon class="st50" points="1171.7,-0.5 1171.7,16.3 1211,43.5 1210.9,-0.6 			"/>
			<polygon class="st21" points="1171.8,66.7 1171.7,16.3 1211,43.5 1211.1,93.9 			"/>
			<polygon class="st21" points="1172,117.2 1171.8,66.7 1211.1,93.9 1211.3,144.3 			"/>
			<polygon class="st2" points="1172.1,167.6 1172,117.2 1211.3,144.3 1211.4,194.7 			"/>
			<polygon class="st23" points="1172.2,218 1172.1,167.6 1211.4,194.7 1211.5,245.2 			"/>
			<polygon class="st10" points="1172.3,268.4 1172.2,218 1211.5,245.2 1211.6,295.6 			"/>
			<polygon class="st28" points="1172.4,318.9 1172.3,268.4 1211.6,295.6 1211.7,346 			"/>
			<polygon class="st28" points="1172.5,369.3 1172.4,318.9 1211.7,346 1211.8,396.4 			"/>
			<polygon class="st5" points="1172.7,419.7 1172.5,369.3 1211.8,396.4 1212,446.9 			"/>
			<polygon class="st39" points="1172.8,470.1 1172.7,419.7 1212,446.9 1212.1,497.3 			"/>
			<polygon class="st21" points="1220,-0.6 1250.2,20.2 1250.2,-0.7 			"/>
			<polygon class="st14" points="1210.9,-0.6 1211,43.5 1250.3,70.6 1250.2,20.2 1220,-0.6 			"/>
			<polygon class="st21" points="1211.1,93.9 1211,43.5 1250.3,70.6 1250.4,121.1 			"/>
			<polygon class="st17" points="1211.3,144.3 1211.1,93.9 1250.4,121.1 1250.6,171.5 			"/>
			<polygon class="st43" points="1211.4,194.7 1211.3,144.3 1250.6,171.5 1250.7,221.9 			"/>
			<polygon class="st8" points="1211.5,245.2 1211.4,194.7 1250.7,221.9 1250.8,272.3 			"/>
			<polygon class="st45" points="1211.6,295.6 1211.5,245.2 1250.8,272.3 1250.9,322.8 			"/>
			<polygon class="st55" points="1211.7,346 1211.6,295.6 1250.9,322.8 1251,373.2 			"/>
			<polygon class="st55" points="1211.8,396.4 1211.7,346 1251,373.2 1251.1,423.6 			"/>
			<polygon class="st57" points="1212,446.9 1211.8,396.4 1251.1,423.6 1251.3,474 			"/>
			<polygon class="st23" points="1250.2,-0.7 1250.2,20.2 1289.5,47.4 1289.4,-0.8 			"/>
			<polygon class="st50" points="1250.3,70.6 1250.2,20.2 1289.5,47.4 1289.6,97.8 			"/>
			<polygon class="st15" points="1250.4,121.1 1250.3,70.6 1289.6,97.8 1289.7,148.2 			"/>
			<polygon class="st20" points="1250.6,171.5 1250.4,121.1 1289.7,148.2 1289.9,198.6 			"/>
			<polygon class="st50" points="1250.7,221.9 1250.6,171.5 1289.9,198.6 1290,249.1 			"/>
			<polygon class="st43" points="1250.8,272.3 1250.7,221.9 1290,249.1 1290.1,299.5 			"/>
			<polygon class="st56" points="1250.9,322.8 1250.8,272.3 1290.1,299.5 1290.2,349.9 			"/>
			<polygon class="st7" points="1251,373.2 1250.9,322.8 1290.2,349.9 1290.3,400.3 			"/>
			<polygon class="st58" points="1251.1,423.6 1251,373.2 1290.3,400.3 1290.5,450.8 			"/>
			<polygon class="st52" points="1251.3,474 1251.1,423.6 1290.5,450.8 1290.6,501.2 			"/>
			<polygon class="st23" points="1292.7,-0.8 1328.7,24.1 1328.6,-0.9 			"/>
			<polygon class="st10" points="1289.4,-0.8 1289.5,47.4 1328.8,74.5 1328.7,24.1 1292.7,-0.8 			"/>
			<polygon class="st36" points="1289.6,97.8 1289.5,47.4 1328.8,74.5 1328.9,124.9 			"/>
			<polygon class="st1" points="1289.7,148.2 1289.6,97.8 1328.9,124.9 1329.1,175.4 			"/>
			<polygon class="st30" points="1289.9,198.6 1289.7,148.2 1329.1,175.4 1329.2,225.8 			"/>
			<polygon class="st22" points="1290,249.1 1289.9,198.6 1329.2,225.8 1329.3,276.2 			"/>
			<polygon class="st1" points="1290.1,299.5 1290,249.1 1329.3,276.2 1329.4,326.6 			"/>
			<polygon class="st56" points="1290.2,349.9 1290.1,299.5 1329.4,326.6 1329.5,377.1 			"/>
			<polygon class="st26" points="1290.3,400.3 1290.2,349.9 1329.5,377.1 1329.6,427.5 			"/>
			<polygon class="st54" points="1290.5,450.8 1290.3,400.3 1329.6,427.5 1329.8,477.9 			"/>
			<polygon class="st45" points="1328.6,-0.9 1328.7,24.1 1368,51.3 1367.9,0.8 1365.3,-1 			"/>
			<polygon class="st8" points="1328.8,74.5 1328.7,24.1 1368,51.3 1368.1,101.7 			"/>
			<polygon class="st13" points="1328.9,124.9 1328.8,74.5 1368.1,101.7 1368.2,152.1 			"/>
			<polygon class="st21" points="1329.1,175.4 1328.9,124.9 1368.2,152.1 1368.4,202.5 			"/>
			<polygon class="st11" points="1329.2,225.8 1329.1,175.4 1368.4,202.5 1368.5,253 			"/>
			<polygon class="st14" points="1329.3,276.2 1329.2,225.8 1368.5,253 1368.6,303.4 			"/>
			<polygon class="st0" points="1329.4,326.6 1329.3,276.2 1368.6,303.4 1368.7,353.8 			"/>
			<polygon class="st57" points="1329.5,377.1 1329.4,326.6 1368.7,353.8 1368.8,404.2 			"/>
			<polygon class="st31" points="1329.6,427.5 1329.5,377.1 1368.8,404.2 1368.9,454.7 			"/>
			<polygon class="st31" points="1329.8,477.9 1329.6,427.5 1368.9,454.7 1369.1,505.1 			"/>
		</g>
	</g>
	
		<radialGradient id="SVGID_1_" cx="578.4111" cy="250.0303" r="926.261" gradientTransform="matrix(-2.320540e-03 -1 1.0093 -2.342150e-03 256.524 1109.5135)" gradientUnits="userSpaceOnUse">
		<stop  offset="0" style="stop-color:#FFFFFF;stop-opacity:0"/>
		<stop  offset="7.384652e-02" style="stop-color:#DEDFEB;stop-opacity:7.015419e-02"/>
		<stop  offset="0.2169" style="stop-color:#A4A7C7;stop-opacity:0.2061"/>
		<stop  offset="0.36" style="stop-color:#7277A8;stop-opacity:0.342"/>
		<stop  offset="0.4999" style="stop-color:#494F8F;stop-opacity:0.4749"/>
		<stop  offset="0.6359" style="stop-color:#29317B;stop-opacity:0.6041"/>
		<stop  offset="0.7669" style="stop-color:#121B6D;stop-opacity:0.7285"/>
		<stop  offset="0.8907" style="stop-color:#050E65;stop-opacity:0.8462"/>
		<stop  offset="1" style="stop-color:#000962;stop-opacity:0.95"/>
	</radialGradient>
	<polygon class="st59" points="1367.9,-1 1370.3,1028.1 664,1029.8 661.6,0.7 	"/>
</g>
<g>
	<g>
		<g>
			<polygon class="st0" points="660.9,2.4 661,45.2 699.8,17.9 699.8,2.3 			"/>
			<polygon class="st1" points="699.9,68.3 699.8,17.9 661,45.2 661.1,95.6 			"/>
			<polygon class="st2" points="700,118.7 699.9,68.3 661.1,95.6 661.2,146 			"/>
			<polygon class="st3" points="700.1,169.1 700,118.7 661.2,146 661.3,196.5 			"/>
			<polygon class="st4" points="700.3,219.6 700.1,169.1 661.3,196.5 661.4,246.9 			"/>
			<polygon class="st5" points="700.4,270 700.3,219.6 661.4,246.9 661.6,297.3 			"/>
			<polygon class="st6" points="700.5,320.4 700.4,270 661.6,297.3 661.7,347.7 			"/>
			<polygon class="st7" points="700.6,370.8 700.5,320.4 661.7,347.7 661.8,398.2 			"/>
			<polygon class="st8" points="700.7,421.3 700.6,370.8 661.8,398.2 661.9,448.6 			"/>
			<polygon class="st9" points="700.8,471.7 700.7,421.3 661.9,448.6 662,499 			"/>
			<polygon class="st19" points="622,2.5 622,22.1 650,2.4 			"/>
			<polygon class="st20" points="650,2.4 622,22.1 622.2,72.5 661,45.2 660.9,2.4 			"/>
			<polygon class="st20" points="661.1,95.6 661,45.2 622.2,72.5 622.3,123 			"/>
			<polygon class="st21" points="661.2,146 661.1,95.6 622.3,123 622.4,173.4 			"/>
			<polygon class="st22" points="661.3,196.5 661.2,146 622.4,173.4 622.5,223.8 			"/>
			<polygon class="st23" points="661.4,246.9 661.3,196.5 622.5,223.8 622.6,274.2 			"/>
			<polygon class="st7" points="661.6,297.3 661.4,246.9 622.6,274.2 622.7,324.7 			"/>
			<polygon class="st24" points="661.7,347.7 661.6,297.3 622.7,324.7 622.9,375.1 			"/>
			<polygon class="st25" points="661.8,398.2 661.7,347.7 622.9,375.1 623,425.5 			"/>
			<polygon class="st26" points="661.9,448.6 661.8,398.2 623,425.5 623.1,475.9 			"/>
			<polygon class="st19" points="583.1,2.6 583.2,49.4 622,22.1 622,2.5 			"/>
			<polygon class="st16" points="622.2,72.5 622,22.1 583.2,49.4 583.3,99.9 			"/>
			<polygon class="st1" points="622.3,123 622.2,72.5 583.3,99.9 583.5,150.3 			"/>
			<polygon class="st21" points="622.4,173.4 622.3,123 583.5,150.3 583.6,200.7 			"/>
			<polygon class="st1" points="622.5,223.8 622.4,173.4 583.6,200.7 583.7,251.2 			"/>
			<polygon class="st2" points="622.6,274.2 622.5,223.8 583.7,251.2 583.8,301.6 			"/>
			<polygon class="st4" points="622.7,324.7 622.6,274.2 583.8,301.6 583.9,352 			"/>
			<polygon class="st26" points="622.9,375.1 622.7,324.7 583.9,352 584,402.4 			"/>
			<polygon class="st25" points="623,425.5 622.9,375.1 584,402.4 584.2,452.9 			"/>
			<polygon class="st31" points="623.1,475.9 623,425.5 584.2,452.9 584.3,503.3 			"/>
			<polygon class="st37" points="544.2,2.6 544.3,26.4 578.1,2.6 			"/>
			<polygon class="st16" points="578.1,2.6 544.3,26.4 544.4,76.8 583.2,49.4 583.1,2.6 			"/>
			<polygon class="st17" points="583.3,99.9 583.2,49.4 544.4,76.8 544.5,127.2 			"/>
			<polygon class="st30" points="583.5,150.3 583.3,99.9 544.5,127.2 544.6,177.6 			"/>
			<polygon class="st36" points="583.6,200.7 583.5,150.3 544.6,177.6 544.8,228.1 			"/>
			<polygon class="st11" points="583.7,251.2 583.6,200.7 544.8,228.1 544.9,278.5 			"/>
			<polygon class="st38" points="583.8,301.6 583.7,251.2 544.9,278.5 545,328.9 			"/>
			<polygon class="st4" points="583.9,352 583.8,301.6 545,328.9 545.1,379.3 			"/>
			<polygon class="st39" points="584,402.4 583.9,352 545.1,379.3 545.2,429.8 			"/>
			<polygon class="st40" points="584.2,452.9 584,402.4 545.2,429.8 545.3,480.2 			"/>
			<polygon class="st37" points="506.1,2.7 505.4,3.3 505.5,53.7 544.3,26.4 544.2,2.6 			"/>
			<polygon class="st19" points="544.4,76.8 544.3,26.4 505.5,53.7 505.6,104.1 			"/>
			<polygon class="st19" points="544.5,127.2 544.4,76.8 505.6,104.1 505.7,154.6 			"/>
			<polygon class="st1" points="544.6,177.6 544.5,127.2 505.7,154.6 505.8,205 			"/>
			<polygon class="st2" points="544.8,228.1 544.6,177.6 505.8,205 505.9,255.4 			"/>
			<polygon class="st7" points="544.9,278.5 544.8,228.1 505.9,255.4 506.1,305.8 			"/>
			<polygon class="st44" points="545,328.9 544.9,278.5 506.1,305.8 506.2,356.3 			"/>
			<polygon class="st12" points="545.1,379.3 545,328.9 506.2,356.3 506.3,406.7 			"/>
			<polygon class="st45" points="545.2,429.8 545.1,379.3 506.3,406.7 506.4,457.1 			"/>
			<polygon class="st49" points="466.5,2.8 466.5,30.6 505.4,3.3 505.4,2.7 			"/>
			<polygon class="st17" points="505.5,53.7 505.4,3.3 466.5,30.6 466.7,81 			"/>
			<polygon class="st30" points="505.6,104.1 505.5,53.7 466.7,81 466.8,131.5 			"/>
			<polygon class="st21" points="505.7,154.6 505.6,104.1 466.8,131.5 466.9,181.9 			"/>
			<polygon class="st22" points="505.8,205 505.7,154.6 466.9,181.9 467,232.3 			"/>
			<polygon class="st50" points="505.9,255.4 505.8,205 467,232.3 467.1,282.7 			"/>
			<polygon class="st13" points="506.1,305.8 505.9,255.4 467.1,282.7 467.3,333.2 			"/>
			<polygon class="st8" points="506.2,356.3 506.1,305.8 467.3,333.2 467.4,383.6 			"/>
			<polygon class="st12" points="506.3,406.7 506.2,356.3 467.4,383.6 467.5,434 			"/>
			<polygon class="st5" points="506.4,457.1 506.3,406.7 467.5,434 467.6,484.4 			"/>
			<polygon class="st15" points="427.6,2.9 427.6,7.5 434.2,2.9 			"/>
			<polygon class="st15" points="434.2,2.9 427.6,7.5 427.7,58 466.5,30.6 466.5,2.8 			"/>
			<polygon class="st16" points="466.7,81 466.5,30.6 427.7,58 427.9,108.4 			"/>
			<polygon class="st36" points="466.8,131.5 466.7,81 427.9,108.4 428,158.8 			"/>
			<polygon class="st0" points="466.9,181.9 466.8,131.5 428,158.8 428.1,209.2 			"/>
			<polygon class="st13" points="467,232.3 466.9,181.9 428.1,209.2 428.2,259.7 			"/>
			<polygon class="st50" points="467.1,282.7 467,232.3 428.2,259.7 428.3,310.1 			"/>
			<polygon class="st8" points="467.3,333.2 467.1,282.7 428.3,310.1 428.4,360.5 			"/>
			<polygon class="st29" points="467.4,383.6 467.3,333.2 428.4,360.5 428.6,410.9 			"/>
			<polygon class="st10" points="467.5,434 467.4,383.6 428.6,410.9 428.7,461.4 			"/>
			<polygon class="st1" points="388.7,3 388.8,34.9 427.6,7.5 427.6,2.9 			"/>
			<polygon class="st36" points="427.7,58 427.6,7.5 388.8,34.9 388.9,85.3 			"/>
			<polygon class="st0" points="427.9,108.4 427.7,58 388.9,85.3 389,135.7 			"/>
			<polygon class="st1" points="428,158.8 427.9,108.4 389,135.7 389.2,186.1 			"/>
			<polygon class="st11" points="428.1,209.2 428,158.8 389.2,186.1 389.3,236.6 			"/>
			<polygon class="st34" points="428.2,259.7 428.1,209.2 389.3,236.6 389.4,287 			"/>
			<polygon class="st2" points="428.3,310.1 428.2,259.7 389.4,287 389.5,337.4 			"/>
			<polygon class="st4" points="428.4,360.5 428.3,310.1 389.5,337.4 389.6,387.9 			"/>
			<polygon class="st45" points="428.6,410.9 428.4,360.5 389.6,387.9 389.7,438.3 			"/>
			<polygon class="st8" points="428.7,461.4 428.6,410.9 389.7,438.3 389.9,488.7 			"/>
			<polygon class="st15" points="349.9,3.1 349.9,11.8 362.3,3.1 			"/>
			<polygon class="st15" points="362.3,3.1 349.9,11.8 350,62.2 388.8,34.9 388.7,3 			"/>
			<polygon class="st13" points="388.9,85.3 388.8,34.9 350,62.2 350.1,112.6 			"/>
			<polygon class="st15" points="389,135.7 388.9,85.3 350.1,112.6 350.2,163.1 			"/>
			<polygon class="st43" points="389.2,186.1 389,135.7 350.2,163.1 350.3,213.5 			"/>
			<polygon class="st13" points="389.3,236.6 389.2,186.1 350.3,213.5 350.5,263.9 			"/>
			<polygon class="st34" points="389.4,287 389.3,236.6 350.5,263.9 350.6,314.3 			"/>
			<polygon class="st34" points="389.5,337.4 389.4,287 350.6,314.3 350.7,364.8 			"/>
			<polygon class="st53" points="389.6,387.9 389.5,337.4 350.7,364.8 350.8,415.2 			"/>
			<polygon class="st11" points="389.7,438.3 389.6,387.9 350.8,415.2 350.9,465.6 			"/>
			<polygon class="st43" points="311,3.2 311.1,39.1 349.9,11.8 349.9,3.1 			"/>
			<polygon class="st13" points="350,62.2 349.9,11.8 311.1,39.1 311.2,89.6 			"/>
			<polygon class="st21" points="350.1,112.6 350,62.2 311.2,89.6 311.3,140 			"/>
			<polygon class="st50" points="350.2,163.1 350.1,112.6 311.3,140 311.4,190.4 			"/>
			<polygon class="st2" points="350.3,213.5 350.2,163.1 311.4,190.4 311.5,240.8 			"/>
			<polygon class="st45" points="350.5,263.9 350.3,213.5 311.5,240.8 311.6,291.3 			"/>
			<polygon class="st38" points="350.6,314.3 350.5,263.9 311.6,291.3 311.8,341.7 			"/>
			<polygon class="st10" points="350.7,364.8 350.6,314.3 311.8,341.7 311.9,392.1 			"/>
			<polygon class="st56" points="350.8,415.2 350.7,364.8 311.9,392.1 312,442.5 			"/>
			<polygon class="st23" points="350.9,465.6 350.8,415.2 312,442.5 312.1,493 			"/>
			<polygon class="st36" points="272.1,3.3 272.1,16 290.3,3.2 			"/>
			<polygon class="st50" points="290.3,3.2 272.1,16 272.2,66.5 311.1,39.1 311,3.2 			"/>
			<polygon class="st22" points="311.2,89.6 311.1,39.1 272.2,66.5 272.4,116.9 			"/>
			<polygon class="st3" points="311.3,140 311.2,89.6 272.4,116.9 272.5,167.3 			"/>
			<polygon class="st15" points="311.4,190.4 311.3,140 272.5,167.3 272.6,217.7 			"/>
			<polygon class="st13" points="311.5,240.8 311.4,190.4 272.6,217.7 272.7,268.2 			"/>
			<polygon class="st11" points="311.6,291.3 311.5,240.8 272.7,268.2 272.8,318.6 			"/>
			<polygon class="st12" points="311.8,341.7 311.6,291.3 272.8,318.6 272.9,369 			"/>
			<polygon class="st56" points="311.9,392.1 311.8,341.7 272.9,369 273.1,419.4 			"/>
			<polygon class="st5" points="312,442.5 311.9,392.1 273.1,419.4 273.2,469.9 			"/>
			<polygon class="st15" points="233.2,3.4 233.3,43.4 272.1,16 272.1,3.3 			"/>
			<polygon class="st50" points="272.2,66.5 272.1,16 233.3,43.4 233.4,93.8 			"/>
			<polygon class="st13" points="272.4,116.9 272.2,66.5 233.4,93.8 233.5,144.2 			"/>
			<polygon class="st43" points="272.5,167.3 272.4,116.9 233.5,144.2 233.7,194.7 			"/>
			<polygon class="st43" points="272.6,217.7 272.5,167.3 233.7,194.7 233.8,245.1 			"/>
			<polygon class="st12" points="272.7,268.2 272.6,217.7 233.8,245.1 233.9,295.5 			"/>
			<polygon class="st35" points="272.8,318.6 272.7,268.2 233.9,295.5 234,345.9 			"/>
			<polygon class="st46" points="272.9,369 272.8,318.6 234,345.9 234.1,396.4 			"/>
			<polygon class="st5" points="273.1,419.4 272.9,369 234.1,396.4 234.2,446.8 			"/>
			<polygon class="st53" points="273.2,469.9 273.1,419.4 234.2,446.8 234.4,497.2 			"/>
			<polygon class="st14" points="194.3,3.5 194.4,20.3 218.4,3.4 			"/>
			<polygon class="st15" points="218.4,3.4 194.4,20.3 194.5,70.7 233.3,43.4 233.2,3.4 			"/>
			<polygon class="st14" points="233.4,93.8 233.3,43.4 194.5,70.7 194.6,121.1 			"/>
			<polygon class="st11" points="233.5,144.2 233.4,93.8 194.6,121.1 194.7,171.6 			"/>
			<polygon class="st22" points="233.7,194.7 233.5,144.2 194.7,171.6 194.8,222 			"/>
			<polygon class="st13" points="233.8,245.1 233.7,194.7 194.8,222 195,272.4 			"/>
			<polygon class="st13" points="233.9,295.5 233.8,245.1 195,272.4 195.1,322.9 			"/>
			<polygon class="st38" points="234,345.9 233.9,295.5 195.1,322.9 195.2,373.3 			"/>
			<polygon class="st31" points="234.1,396.4 234,345.9 195.2,373.3 195.3,423.7 			"/>
			<polygon class="st45" points="234.2,446.8 234.1,396.4 195.3,423.7 195.4,474.1 			"/>
			<polygon class="st50" points="155.5,3.5 155.6,47.6 194.4,20.3 194.3,3.5 			"/>
			<polygon class="st21" points="194.5,70.7 194.4,20.3 155.6,47.6 155.7,98.1 			"/>
			<polygon class="st21" points="194.6,121.1 194.5,70.7 155.7,98.1 155.8,148.5 			"/>
			<polygon class="st2" points="194.7,171.6 194.6,121.1 155.8,148.5 155.9,198.9 			"/>
			<polygon class="st23" points="194.8,222 194.7,171.6 155.9,198.9 156,249.3 			"/>
			<polygon class="st10" points="195,272.4 194.8,222 156,249.3 156.2,299.8 			"/>
			<polygon class="st28" points="195.1,322.9 195,272.4 156.2,299.8 156.3,350.2 			"/>
			<polygon class="st28" points="195.2,373.3 195.1,322.9 156.3,350.2 156.4,400.6 			"/>
			<polygon class="st5" points="195.3,423.7 195.2,373.3 156.4,400.6 156.5,451 			"/>
			<polygon class="st39" points="195.4,474.1 195.3,423.7 156.5,451 156.6,501.5 			"/>
			<polygon class="st21" points="116.6,3.6 116.6,24.6 146.4,3.6 			"/>
			<polygon class="st14" points="146.4,3.6 116.6,24.6 116.8,75 155.6,47.6 155.5,3.5 			"/>
			<polygon class="st21" points="155.7,98.1 155.6,47.6 116.8,75 116.9,125.4 			"/>
			<polygon class="st17" points="155.8,148.5 155.7,98.1 116.9,125.4 117,175.8 			"/>
			<polygon class="st43" points="155.9,198.9 155.8,148.5 117,175.8 117.1,226.3 			"/>
			<polygon class="st8" points="156,249.3 155.9,198.9 117.1,226.3 117.2,276.7 			"/>
			<polygon class="st45" points="156.2,299.8 156,249.3 117.2,276.7 117.3,327.1 			"/>
			<polygon class="st55" points="156.3,350.2 156.2,299.8 117.3,327.1 117.5,377.5 			"/>
			<polygon class="st55" points="156.4,400.6 156.3,350.2 117.5,377.5 117.6,428 			"/>
			<polygon class="st57" points="156.5,451 156.4,400.6 117.6,428 117.7,478.4 			"/>
			<polygon class="st23" points="77.7,3.7 77.8,51.9 116.6,24.6 116.6,3.6 			"/>
			<polygon class="st50" points="116.8,75 116.6,24.6 77.8,51.9 77.9,102.3 			"/>
			<polygon class="st15" points="116.9,125.4 116.8,75 77.9,102.3 78.1,152.7 			"/>
			<polygon class="st20" points="117,175.8 116.9,125.4 78.1,152.7 78.2,203.2 			"/>
			<polygon class="st50" points="117.1,226.3 117,175.8 78.2,203.2 78.3,253.6 			"/>
			<polygon class="st43" points="117.2,276.7 117.1,226.3 78.3,253.6 78.4,304 			"/>
			<polygon class="st56" points="117.3,327.1 117.2,276.7 78.4,304 78.5,354.4 			"/>
			<polygon class="st7" points="117.5,377.5 117.3,327.1 78.5,354.4 78.6,404.9 			"/>
			<polygon class="st58" points="117.6,428 117.5,377.5 78.6,404.9 78.8,455.3 			"/>
			<polygon class="st52" points="117.7,478.4 117.6,428 78.8,455.3 78.9,505.7 			"/>
			<polygon class="st23" points="38.8,3.8 38.9,28.8 74.5,3.7 			"/>
			<polygon class="st10" points="74.5,3.7 38.9,28.8 39,79.2 77.8,51.9 77.7,3.7 			"/>
			<polygon class="st36" points="77.9,102.3 77.8,51.9 39,79.2 39.1,129.7 			"/>
			<polygon class="st1" points="78.1,152.7 77.9,102.3 39.1,129.7 39.2,180.1 			"/>
			<polygon class="st30" points="78.2,203.2 78.1,152.7 39.2,180.1 39.4,230.5 			"/>
			<polygon class="st22" points="78.3,253.6 78.2,203.2 39.4,230.5 39.5,280.9 			"/>
			<polygon class="st1" points="78.4,304 78.3,253.6 39.5,280.9 39.6,331.4 			"/>
			<polygon class="st56" points="78.5,354.4 78.4,304 39.6,331.4 39.7,381.8 			"/>
			<polygon class="st26" points="78.6,404.9 78.5,354.4 39.7,381.8 39.8,432.2 			"/>
			<polygon class="st54" points="78.8,455.3 78.6,404.9 39.8,432.2 39.9,482.6 			"/>
			<polygon class="st45" points="2.5,3.9 0,5.7 0.1,56.1 38.9,28.8 38.8,3.8 			"/>
			<polygon class="st8" points="39,79.2 38.9,28.8 0.1,56.1 0.2,106.6 			"/>
			<polygon class="st13" points="39.1,129.7 39,79.2 0.2,106.6 0.3,157 			"/>
			<polygon class="st21" points="39.2,180.1 39.1,129.7 0.3,157 0.4,207.4 			"/>
			<polygon class="st11" points="39.4,230.5 39.2,180.1 0.4,207.4 0.5,257.8 			"/>
			<polygon class="st14" points="39.5,280.9 39.4,230.5 0.5,257.8 0.7,308.3 			"/>
			<polygon class="st0" points="39.6,331.4 39.5,280.9 0.7,308.3 0.8,358.7 			"/>
			<polygon class="st57" points="39.7,381.8 39.6,331.4 0.8,358.7 0.9,409.1 			"/>
			<polygon class="st31" points="39.8,432.2 39.7,381.8 0.9,409.1 1,459.6 			"/>
		</g>
		<g>
			<polygon class="st0" points="0,3.9 0,19.5 38.9,46.6 38.8,3.8 			"/>
			<polygon class="st1" points="0.1,69.9 0,19.5 38.9,46.6 39,97.1 			"/>
			<polygon class="st2" points="0.2,120.3 0.1,69.9 39,97.1 39.2,147.5 			"/>
			<polygon class="st3" points="0.3,170.8 0.2,120.3 39.2,147.5 39.3,197.9 			"/>
			<polygon class="st4" points="0.5,221.2 0.3,170.8 39.3,197.9 39.4,248.3 			"/>
			<polygon class="st5" points="0.6,271.6 0.5,221.2 39.4,248.3 39.5,298.8 			"/>
			<polygon class="st6" points="0.7,322 0.6,271.6 39.5,298.8 39.6,349.2 			"/>
			<polygon class="st7" points="0.8,372.5 0.7,322 39.6,349.2 39.7,399.6 			"/>
			<polygon class="st8" points="0.9,422.9 0.8,372.5 39.7,399.6 39.9,450 			"/>
			<polygon class="st9" points="1,473.3 0.9,422.9 39.9,450 40,500.5 			"/>
			<polygon class="st19" points="49.7,3.8 77.8,23.4 77.7,3.7 			"/>
			<polygon class="st20" points="38.8,3.8 38.9,46.6 77.9,73.8 77.8,23.4 49.7,3.8 			"/>
			<polygon class="st20" points="39,97.1 38.9,46.6 77.9,73.8 78,124.2 			"/>
			<polygon class="st21" points="39.2,147.5 39,97.1 78,124.2 78.1,174.6 			"/>
			<polygon class="st22" points="39.3,197.9 39.2,147.5 78.1,174.6 78.2,225.1 			"/>
			<polygon class="st23" points="39.4,248.3 39.3,197.9 78.2,225.1 78.3,275.5 			"/>
			<polygon class="st7" points="39.5,298.8 39.4,248.3 78.3,275.5 78.5,325.9 			"/>
			<polygon class="st24" points="39.6,349.2 39.5,298.8 78.5,325.9 78.6,376.4 			"/>
			<polygon class="st25" points="39.7,399.6 39.6,349.2 78.6,376.4 78.7,426.8 			"/>
			<polygon class="st26" points="39.9,450 39.7,399.6 78.7,426.8 78.8,477.2 			"/>
			<polygon class="st19" points="77.7,3.7 77.8,23.4 116.7,50.5 116.6,3.6 			"/>
			<polygon class="st16" points="77.9,73.8 77.8,23.4 116.7,50.5 116.8,101 			"/>
			<polygon class="st1" points="78,124.2 77.9,73.8 116.8,101 116.9,151.4 			"/>
			<polygon class="st21" points="78.1,174.6 78,124.2 116.9,151.4 117,201.8 			"/>
			<polygon class="st1" points="78.2,225.1 78.1,174.6 117,201.8 117.2,252.2 			"/>
			<polygon class="st2" points="78.3,275.5 78.2,225.1 117.2,252.2 117.3,302.7 			"/>
			<polygon class="st4" points="78.5,325.9 78.3,275.5 117.3,302.7 117.4,353.1 			"/>
			<polygon class="st26" points="78.6,376.4 78.5,325.9 117.4,353.1 117.5,403.5 			"/>
			<polygon class="st25" points="78.7,426.8 78.6,376.4 117.5,403.5 117.6,453.9 			"/>
			<polygon class="st31" points="78.8,477.2 78.7,426.8 117.6,453.9 117.7,504.4 			"/>
			<polygon class="st37" points="121.6,3.6 155.5,27.3 155.5,3.5 			"/>
			<polygon class="st16" points="116.6,3.6 116.7,50.5 155.6,77.7 155.5,27.3 121.6,3.6 			"/>
			<polygon class="st17" points="116.8,101 116.7,50.5 155.6,77.7 155.8,128.1 			"/>
			<polygon class="st30" points="116.9,151.4 116.8,101 155.8,128.1 155.9,178.5 			"/>
			<polygon class="st36" points="117,201.8 116.9,151.4 155.9,178.5 156,229 			"/>
			<polygon class="st11" points="117.2,252.2 117,201.8 156,229 156.1,279.4 			"/>
			<polygon class="st38" points="117.3,302.7 117.2,252.2 156.1,279.4 156.2,329.8 			"/>
			<polygon class="st4" points="117.4,353.1 117.3,302.7 156.2,329.8 156.3,380.2 			"/>
			<polygon class="st39" points="117.5,403.5 117.4,353.1 156.3,380.2 156.5,430.7 			"/>
			<polygon class="st40" points="117.6,453.9 117.5,403.5 156.5,430.7 156.6,481.1 			"/>
			<polygon class="st37" points="155.5,3.5 155.5,27.3 194.5,54.4 194.3,4 193.6,3.5 			"/>
			<polygon class="st19" points="155.6,77.7 155.5,27.3 194.5,54.4 194.6,104.9 			"/>
			<polygon class="st19" points="155.8,128.1 155.6,77.7 194.6,104.9 194.7,155.3 			"/>
			<polygon class="st1" points="155.9,178.5 155.8,128.1 194.7,155.3 194.8,205.7 			"/>
			<polygon class="st2" points="156,229 155.9,178.5 194.8,205.7 194.9,256.1 			"/>
			<polygon class="st7" points="156.1,279.4 156,229 194.9,256.1 195,306.6 			"/>
			<polygon class="st44" points="156.2,329.8 156.1,279.4 195,306.6 195.2,357 			"/>
			<polygon class="st12" points="156.3,380.2 156.2,329.8 195.2,357 195.3,407.4 			"/>
			<polygon class="st45" points="156.5,430.7 156.3,380.2 195.3,407.4 195.4,457.8 			"/>
			<polygon class="st49" points="194.3,3.5 194.3,4 233.3,31.2 233.2,3.4 			"/>
			<polygon class="st17" points="194.5,54.4 194.3,4 233.3,31.2 233.4,81.6 			"/>
			<polygon class="st30" points="194.6,104.9 194.5,54.4 233.4,81.6 233.5,132 			"/>
			<polygon class="st21" points="194.7,155.3 194.6,104.9 233.5,132 233.6,182.4 			"/>
			<polygon class="st22" points="194.8,205.7 194.7,155.3 233.6,182.4 233.8,232.9 			"/>
			<polygon class="st50" points="194.9,256.1 194.8,205.7 233.8,232.9 233.9,283.3 			"/>
			<polygon class="st13" points="195,306.6 194.9,256.1 233.9,283.3 234,333.7 			"/>
			<polygon class="st8" points="195.2,357 195,306.6 234,333.7 234.1,384.1 			"/>
			<polygon class="st12" points="195.3,407.4 195.2,357 234.1,384.1 234.2,434.6 			"/>
			<polygon class="st5" points="195.4,457.8 195.3,407.4 234.2,434.6 234.3,485 			"/>
			<polygon class="st15" points="265.5,3.3 272.1,7.9 272.1,3.3 			"/>
			<polygon class="st15" points="233.2,3.4 233.3,31.2 272.2,58.3 272.1,7.9 265.5,3.3 			"/>
			<polygon class="st16" points="233.4,81.6 233.3,31.2 272.2,58.3 272.3,108.7 			"/>
			<polygon class="st36" points="233.5,132 233.4,81.6 272.3,108.7 272.5,159.2 			"/>
			<polygon class="st0" points="233.6,182.4 233.5,132 272.5,159.2 272.6,209.6 			"/>
			<polygon class="st13" points="233.8,232.9 233.6,182.4 272.6,209.6 272.7,260 			"/>
			<polygon class="st50" points="233.9,283.3 233.8,232.9 272.7,260 272.8,310.4 			"/>
			<polygon class="st8" points="234,333.7 233.9,283.3 272.8,310.4 272.9,360.9 			"/>
			<polygon class="st29" points="234.1,384.1 234,333.7 272.9,360.9 273,411.3 			"/>
			<polygon class="st10" points="234.2,434.6 234.1,384.1 273,411.3 273.2,461.7 			"/>
			<polygon class="st1" points="272.1,3.3 272.1,7.9 311,35.1 311,3.2 			"/>
			<polygon class="st36" points="272.2,58.3 272.1,7.9 311,35.1 311.2,85.5 			"/>
			<polygon class="st0" points="272.3,108.7 272.2,58.3 311.2,85.5 311.3,135.9 			"/>
			<polygon class="st1" points="272.5,159.2 272.3,108.7 311.3,135.9 311.4,186.3 			"/>
			<polygon class="st11" points="272.6,209.6 272.5,159.2 311.4,186.3 311.5,236.8 			"/>
			<polygon class="st34" points="272.7,260 272.6,209.6 311.5,236.8 311.6,287.2 			"/>
			<polygon class="st2" points="272.8,310.4 272.7,260 311.6,287.2 311.8,337.6 			"/>
			<polygon class="st4" points="272.9,360.9 272.8,310.4 311.8,337.6 311.9,388 			"/>
			<polygon class="st45" points="273,411.3 272.9,360.9 311.9,388 312,438.5 			"/>
			<polygon class="st8" points="273.2,461.7 273,411.3 312,438.5 312.1,488.9 			"/>
			<polygon class="st15" points="337.5,3.1 349.9,11.8 349.9,3.1 			"/>
			<polygon class="st15" points="311,3.2 311,35.1 350,62.2 349.9,11.8 337.5,3.1 			"/>
			<polygon class="st13" points="311.2,85.5 311,35.1 350,62.2 350.1,112.6 			"/>
			<polygon class="st15" points="311.3,135.9 311.2,85.5 350.1,112.6 350.2,163.1 			"/>
			<polygon class="st43" points="311.4,186.3 311.3,135.9 350.2,163.1 350.3,213.5 			"/>
			<polygon class="st13" points="311.5,236.8 311.4,186.3 350.3,213.5 350.5,263.9 			"/>
			<polygon class="st34" points="311.6,287.2 311.5,236.8 350.5,263.9 350.6,314.3 			"/>
			<polygon class="st34" points="311.8,337.6 311.6,287.2 350.6,314.3 350.7,364.8 			"/>
			<polygon class="st53" points="311.9,388 311.8,337.6 350.7,364.8 350.8,415.2 			"/>
			<polygon class="st11" points="312,438.5 311.9,388 350.8,415.2 350.9,465.6 			"/>
			<polygon class="st43" points="349.9,3.1 349.9,11.8 388.8,38.9 388.7,3 			"/>
			<polygon class="st13" points="350,62.2 349.9,11.8 388.8,38.9 388.9,89.4 			"/>
			<polygon class="st21" points="350.1,112.6 350,62.2 388.9,89.4 389,139.8 			"/>
			<polygon class="st50" points="350.2,163.1 350.1,112.6 389,139.8 389.2,190.2 			"/>
			<polygon class="st2" points="350.3,213.5 350.2,163.1 389.2,190.2 389.3,240.6 			"/>
			<polygon class="st45" points="350.5,263.9 350.3,213.5 389.3,240.6 389.4,291.1 			"/>
			<polygon class="st38" points="350.6,314.3 350.5,263.9 389.4,291.1 389.5,341.5 			"/>
			<polygon class="st10" points="350.7,364.8 350.6,314.3 389.5,341.5 389.6,391.9 			"/>
			<polygon class="st56" points="350.8,415.2 350.7,364.8 389.6,391.9 389.7,442.4 			"/>
			<polygon class="st23" points="350.9,465.6 350.8,415.2 389.7,442.4 389.9,492.8 			"/>
			<polygon class="st36" points="409.4,3 427.6,15.7 427.6,2.9 			"/>
			<polygon class="st50" points="388.7,3 388.8,38.9 427.8,66.1 427.6,15.7 409.4,3 			"/>
			<polygon class="st22" points="388.9,89.4 388.8,38.9 427.8,66.1 427.9,116.5 			"/>
			<polygon class="st3" points="389,139.8 388.9,89.4 427.9,116.5 428,167 			"/>
			<polygon class="st15" points="389.2,190.2 389,139.8 428,167 428.1,217.4 			"/>
			<polygon class="st13" points="389.3,240.6 389.2,190.2 428.1,217.4 428.2,267.8 			"/>
			<polygon class="st11" points="389.4,291.1 389.3,240.6 428.2,267.8 428.3,318.2 			"/>
			<polygon class="st12" points="389.5,341.5 389.4,291.1 428.3,318.2 428.5,368.7 			"/>
			<polygon class="st56" points="389.6,391.9 389.5,341.5 428.5,368.7 428.6,419.1 			"/>
			<polygon class="st5" points="389.7,442.4 389.6,391.9 428.6,419.1 428.7,469.5 			"/>
			<polygon class="st15" points="427.6,2.9 427.6,15.7 466.6,42.8 466.5,2.8 			"/>
			<polygon class="st50" points="427.8,66.1 427.6,15.7 466.6,42.8 466.7,93.3 			"/>
			<polygon class="st13" points="427.9,116.5 427.8,66.1 466.7,93.3 466.8,143.7 			"/>
			<polygon class="st43" points="428,167 427.9,116.5 466.8,143.7 466.9,194.1 			"/>
			<polygon class="st43" points="428.1,217.4 428,167 466.9,194.1 467,244.5 			"/>
			<polygon class="st12" points="428.2,267.8 428.1,217.4 467,244.5 467.2,295 			"/>
			<polygon class="st35" points="428.3,318.2 428.2,267.8 467.2,295 467.3,345.4 			"/>
			<polygon class="st46" points="428.5,368.7 428.3,318.2 467.3,345.4 467.4,395.8 			"/>
			<polygon class="st5" points="428.6,419.1 428.5,368.7 467.4,395.8 467.5,446.2 			"/>
			<polygon class="st53" points="428.7,469.5 428.6,419.1 467.5,446.2 467.6,496.7 			"/>
			<polygon class="st14" points="481.3,2.8 505.4,19.6 505.4,2.7 			"/>
			<polygon class="st15" points="466.5,2.8 466.6,42.8 505.5,70 505.4,19.6 481.3,2.8 			"/>
			<polygon class="st14" points="466.7,93.3 466.6,42.8 505.5,70 505.6,120.4 			"/>
			<polygon class="st11" points="466.8,143.7 466.7,93.3 505.6,120.4 505.8,170.9 			"/>
			<polygon class="st22" points="466.9,194.1 466.8,143.7 505.8,170.9 505.9,221.3 			"/>
			<polygon class="st13" points="467,244.5 466.9,194.1 505.9,221.3 506,271.7 			"/>
			<polygon class="st13" points="467.2,295 467,244.5 506,271.7 506.1,322.1 			"/>
			<polygon class="st38" points="467.3,345.4 467.2,295 506.1,322.1 506.2,372.6 			"/>
			<polygon class="st31" points="467.4,395.8 467.3,345.4 506.2,372.6 506.3,423 			"/>
			<polygon class="st45" points="467.5,446.2 467.4,395.8 506.3,423 506.5,473.4 			"/>
			<polygon class="st50" points="505.4,2.7 505.4,19.6 544.3,46.7 544.2,2.6 			"/>
			<polygon class="st21" points="505.5,70 505.4,19.6 544.3,46.7 544.5,97.2 			"/>
			<polygon class="st21" points="505.6,120.4 505.5,70 544.5,97.2 544.6,147.6 			"/>
			<polygon class="st2" points="505.8,170.9 505.6,120.4 544.6,147.6 544.7,198 			"/>
			<polygon class="st23" points="505.9,221.3 505.8,170.9 544.7,198 544.8,248.4 			"/>
			<polygon class="st10" points="506,271.7 505.9,221.3 544.8,248.4 544.9,298.9 			"/>
			<polygon class="st28" points="506.1,322.1 506,271.7 544.9,298.9 545,349.3 			"/>
			<polygon class="st28" points="506.2,372.6 506.1,322.1 545,349.3 545.2,399.7 			"/>
			<polygon class="st5" points="506.3,423 506.2,372.6 545.2,399.7 545.3,450.1 			"/>
			<polygon class="st39" points="506.5,473.4 506.3,423 545.3,450.1 545.4,500.6 			"/>
			<polygon class="st21" points="553.3,2.6 583.2,23.5 583.1,2.6 			"/>
			<polygon class="st14" points="544.2,2.6 544.3,46.7 583.3,73.9 583.2,23.5 553.3,2.6 			"/>
			<polygon class="st21" points="544.5,97.2 544.3,46.7 583.3,73.9 583.4,124.3 			"/>
			<polygon class="st17" points="544.6,147.6 544.5,97.2 583.4,124.3 583.5,174.7 			"/>
			<polygon class="st43" points="544.7,198 544.6,147.6 583.5,174.7 583.6,225.2 			"/>
			<polygon class="st8" points="544.8,248.4 544.7,198 583.6,225.2 583.8,275.6 			"/>
			<polygon class="st45" points="544.9,298.9 544.8,248.4 583.8,275.6 583.9,326 			"/>
			<polygon class="st55" points="545,349.3 544.9,298.9 583.9,326 584,376.4 			"/>
			<polygon class="st55" points="545.2,399.7 545,349.3 584,376.4 584.1,426.9 			"/>
			<polygon class="st57" points="545.3,450.1 545.2,399.7 584.1,426.9 584.2,477.3 			"/>
			<polygon class="st23" points="583.1,2.6 583.2,23.5 622.1,50.6 622,2.5 			"/>
			<polygon class="st50" points="583.3,73.9 583.2,23.5 622.1,50.6 622.2,101.1 			"/>
			<polygon class="st15" points="583.4,124.3 583.3,73.9 622.2,101.1 622.3,151.5 			"/>
			<polygon class="st20" points="583.5,174.7 583.4,124.3 622.3,151.5 622.5,201.9 			"/>
			<polygon class="st50" points="583.6,225.2 583.5,174.7 622.5,201.9 622.6,252.3 			"/>
			<polygon class="st43" points="583.8,275.6 583.6,225.2 622.6,252.3 622.7,302.8 			"/>
			<polygon class="st56" points="583.9,326 583.8,275.6 622.7,302.8 622.8,353.2 			"/>
			<polygon class="st7" points="584,376.4 583.9,326 622.8,353.2 622.9,403.6 			"/>
			<polygon class="st58" points="584.1,426.9 584,376.4 622.9,403.6 623,454 			"/>
			<polygon class="st52" points="584.2,477.3 584.1,426.9 623,454 623.2,504.5 			"/>
			<polygon class="st23" points="625.2,2.5 660.9,27.4 660.9,2.4 			"/>
			<polygon class="st10" points="622,2.5 622.1,50.6 661,77.8 660.9,27.4 625.2,2.5 			"/>
			<polygon class="st36" points="622.2,101.1 622.1,50.6 661,77.8 661.2,128.2 			"/>
			<polygon class="st1" points="622.3,151.5 622.2,101.1 661.2,128.2 661.3,178.6 			"/>
			<polygon class="st30" points="622.5,201.9 622.3,151.5 661.3,178.6 661.4,229.1 			"/>
			<polygon class="st22" points="622.6,252.3 622.5,201.9 661.4,229.1 661.5,279.5 			"/>
			<polygon class="st1" points="622.7,302.8 622.6,252.3 661.5,279.5 661.6,329.9 			"/>
			<polygon class="st56" points="622.8,353.2 622.7,302.8 661.6,329.9 661.8,380.3 			"/>
			<polygon class="st26" points="622.9,403.6 622.8,353.2 661.8,380.3 661.9,430.8 			"/>
			<polygon class="st54" points="623,454 622.9,403.6 661.9,430.8 662,481.2 			"/>
			<polygon class="st45" points="660.9,2.4 660.9,27.4 699.9,54.5 699.8,4.1 697.2,2.3 			"/>
			<polygon class="st8" points="661,77.8 660.9,27.4 699.9,54.5 700,104.9 			"/>
			<polygon class="st13" points="661.2,128.2 661,77.8 700,104.9 700.1,155.4 			"/>
			<polygon class="st21" points="661.3,178.6 661.2,128.2 700.1,155.4 700.2,205.8 			"/>
			<polygon class="st11" points="661.4,229.1 661.3,178.6 700.2,205.8 700.3,256.2 			"/>
			<polygon class="st14" points="661.5,279.5 661.4,229.1 700.3,256.2 700.5,306.7 			"/>
			<polygon class="st0" points="661.6,329.9 661.5,279.5 700.5,306.7 700.6,357.1 			"/>
			<polygon class="st57" points="661.8,380.3 661.6,329.9 700.6,357.1 700.7,407.5 			"/>
			<polygon class="st31" points="661.9,430.8 661.8,380.3 700.7,407.5 700.8,457.9 			"/>
		</g>
	</g>
	
		<radialGradient id="SVGID_3_" cx="576.6892" cy="-411.591" r="926.261" gradientTransform="matrix(-2.320541e-03 -1 1 -2.320541e-03 260.2845 1109.5049)" gradientUnits="userSpaceOnUse">
		<stop  offset="0" style="stop-color:#FFFFFF;stop-opacity:0"/>
		<stop  offset="7.384652e-02" style="stop-color:#DEDFEB;stop-opacity:7.015419e-02"/>
		<stop  offset="0.2169" style="stop-color:#A4A7C7;stop-opacity:0.2061"/>
		<stop  offset="0.36" style="stop-color:#7277A8;stop-opacity:0.342"/>
		<stop  offset="0.4999" style="stop-color:#494F8F;stop-opacity:0.4749"/>
		<stop  offset="0.6359" style="stop-color:#29317B;stop-opacity:0.6041"/>
		<stop  offset="0.7669" style="stop-color:#121B6D;stop-opacity:0.7285"/>
		<stop  offset="0.8907" style="stop-color:#050E65;stop-opacity:0.8462"/>
		<stop  offset="1" style="stop-color:#000962;stop-opacity:0.95"/>
	</radialGradient>
	<polygon style="fill:url(#SVGID_3_);" points="699.8,2.3 702.1,1031.4 2.3,1033 0,3.9 	"/>
</g>
</svg>
