<svg xmlns="http://www.w3.org/2000/svg" width="115.041" height="115.041" viewBox="0 0 115.041 115.041"><defs><style>.a{fill:#fff;opacity:0.5;}.b{fill:#ffc400;}.c,.d{fill:none;stroke:#666;}.c{stroke-linecap:round;stroke-linejoin:round;stroke-width:1.592px;}.d{stroke-miterlimit:10;}.e{fill:#666;}</style></defs><g transform="translate(-469.441 -375.154)"><circle class="a" cx="57.521" cy="57.521" r="57.521" transform="translate(469.441 375.154)"/><path class="b" d="M512.362,418.14h37.272a.546.546,0,0,1,.552.552V445a.546.546,0,0,1-.552.552H512.362a.546.546,0,0,1-.552-.552V418.692A.554.554,0,0,1,512.362,418.14Z"/><line class="c" x2="38.598" transform="translate(505.55 452.2)"/><line class="c" x2="38.598" transform="translate(505.55 458.46)"/><line class="c" x2="32.338" transform="translate(505.55 464.72)"/><path class="c" d="M558.462,445.341c6.237,0,5.619,5.642,5.619,5.642a2.506,2.506,0,0,1-.011-.287,5.515,5.515,0,0,1,5.509-5.531c-5.619,0-5.509-5.951-5.509-5.951C564.07,445,558.45,445.341,558.462,445.341Z"/><circle class="d" cx="3.036" cy="3.036" r="3.036" transform="translate(573.223 429.321)"/><path class="c" d="M474.627,416.649c6.238,0,5.62,5.642,5.62,5.642a2.5,2.5,0,0,1-.011-.287,5.515,5.515,0,0,1,5.509-5.531c-5.619,0-5.509-5.951-5.509-5.951C480.236,416.307,474.616,416.649,474.627,416.649Z"/><circle class="d" cx="3.036" cy="3.036" r="3.036" transform="translate(489.389 400.63)"/><g transform="translate(1378.755 -67.238)"><g transform="translate(-871.945 473.201)"><path class="e" d="M-843.173,484.777h-.952v-8.033a2.68,2.68,0,0,0-2.677-2.678h-21.482a2.682,2.682,0,0,0-2.678,2.678v14.281a2.681,2.681,0,0,0,2.678,2.677h.893v4.464a.89.89,0,0,0,.551.824.89.89,0,0,0,.972-.193l5.095-5.094h4.152v.893a2.68,2.68,0,0,0,2.677,2.678h4.986l3.309,3.309a.894.894,0,0,0,.973.193.893.893,0,0,0,.551-.824v-2.678h.952a2.68,2.68,0,0,0,2.678-2.678v-7.14A2.68,2.68,0,0,0-843.173,484.777Zm-17.97,7.14a.891.891,0,0,0-.631.26l-3.831,3.831v-3.2a.893.893,0,0,0-.893-.891h-1.785a.894.894,0,0,1-.893-.893V476.744a.893.893,0,0,1,.893-.893H-846.8a.892.892,0,0,1,.891.893v8.033h-8.033a2.68,2.68,0,0,0-2.677,2.677v4.464Zm18.862,2.677a.894.894,0,0,1-.893.893h-1.845a.893.893,0,0,0-.893.893v1.415l-2.046-2.046a.892.892,0,0,0-.631-.262h-5.356a.893.893,0,0,1-.891-.893v-7.14a.893.893,0,0,1,.891-.893h10.77a.894.894,0,0,1,.893.893Z" transform="translate(870.961 -474.066)"/><path class="e" d="M-855.03,483.8l-1.854,1.854-.641-.641a.811.811,0,0,0-1.145,0,.809.809,0,0,0,0,1.144l1.215,1.215a.805.805,0,0,0,.572.236.806.806,0,0,0,.572-.236l2.428-2.428a.809.809,0,0,0,0-1.144.808.808,0,0,0-1.145,0Z" transform="translate(878.581 -468.11)"/><path class="e" d="M-861.89,481.89H-866.8a.81.81,0,0,0-.809.809.809.809,0,0,0,.809.809h4.907a.809.809,0,0,0,.809-.809A.81.81,0,0,0-861.89,481.89Z" transform="translate(873.118 -469.311)"/><path class="e" d="M-860.271,479.655H-866.8a.809.809,0,0,0-.809.809.81.81,0,0,0,.809.809h6.526a.81.81,0,0,0,.809-.809A.809.809,0,0,0-860.271,479.655Z" transform="translate(873.173 -470.67)"/><path class="e" d="M-866.8,479.038h13a.809.809,0,0,0,.809-.809.809.809,0,0,0-.809-.809h-13a.809.809,0,0,0-.809.809A.809.809,0,0,0-866.8,479.038Z" transform="translate(873.527 -472.028)"/></g></g></g></svg>