<svg id="students" xmlns="http://www.w3.org/2000/svg" width="40.083" height="40.083" viewBox="0 0 40.083 40.083">
  <g id="Group_11716" data-name="Group 11716">
    <g id="Group_11715" data-name="Group 11715">
      <path id="Path_10346" data-name="Path 10346" d="M40.079,23.484V2.192A2.194,2.194,0,0,0,37.887,0H2.192A2.194,2.194,0,0,0,0,2.192V23.484a2.194,2.194,0,0,0,2.192,2.192H5.518a4.042,4.042,0,0,0-2.353,3.667v.849a4.016,4.016,0,0,0,.808,2.42l-1.949.646A2.948,2.948,0,0,0,0,36.061V39.3a.783.783,0,0,0,.783.783H39.3a.783.783,0,0,0,.783-.783V36.061a2.949,2.949,0,0,0-2.024-2.8l-1.949-.646a4.016,4.016,0,0,0,.808-2.42v-.849a4.042,4.042,0,0,0-2.353-3.667h3.326A2.194,2.194,0,0,0,40.079,23.484ZM4.73,29.343h0a2.471,2.471,0,0,1,4.942,0v.849a2.471,2.471,0,0,1-1.09,2.048.787.787,0,0,0-.13.082,2.463,2.463,0,0,1-2.5,0,.786.786,0,0,0-.13-.082A2.471,2.471,0,0,1,4.73,30.192Zm8.107,9.17H1.566V36.061a1.386,1.386,0,0,1,.951-1.317l2.866-.95a4.023,4.023,0,0,0,3.638,0l2.866.95a1.386,1.386,0,0,1,.951,1.317Zm.783-4.456a2.95,2.95,0,0,0-1.242-.8l-1.949-.646a4.016,4.016,0,0,0,.808-2.42v-.849a4.042,4.042,0,0,0-2.353-3.667h9.47A4.042,4.042,0,0,0,16,29.343v.849a4.016,4.016,0,0,0,.808,2.42l-1.949.646a2.949,2.949,0,0,0-1.238.8Zm6.419-7.185a2.474,2.474,0,0,1,2.471,2.471v.849a2.471,2.471,0,0,1-1.09,2.048.787.787,0,0,0-.13.082,2.463,2.463,0,0,1-2.5,0,.783.783,0,0,0-.13-.082,2.471,2.471,0,0,1-1.089-2.048v-.849a2.474,2.474,0,0,1,2.469-2.471Zm5.636,11.642H14.4V36.061a1.386,1.386,0,0,1,.951-1.317l2.866-.95a4.023,4.023,0,0,0,3.638,0l2.866.95a1.386,1.386,0,0,1,.951,1.317v2.452Zm.783-4.456a2.95,2.95,0,0,0-1.242-.8l-1.949-.646a4.016,4.016,0,0,0,.808-2.42v-.849a4.042,4.042,0,0,0-2.353-3.667h9.47a4.042,4.042,0,0,0-2.353,3.667v.849a4.016,4.016,0,0,0,.808,2.42l-1.949.646a2.949,2.949,0,0,0-1.24.8Zm11.1.687a1.385,1.385,0,0,1,.951,1.317v2.452H27.241V36.061a1.386,1.386,0,0,1,.951-1.317l2.866-.95a4.022,4.022,0,0,0,3.638,0Zm-2.214-5.4v.849a2.471,2.471,0,0,1-1.09,2.048.789.789,0,0,0-.13.082,2.463,2.463,0,0,1-2.5,0,.79.79,0,0,0-.13-.082A2.471,2.471,0,0,1,30.4,30.194v-.849a2.471,2.471,0,0,1,4.942,0ZM5.794,24.11V7.358a.783.783,0,0,0-1.566,0V24.11H2.192a.627.627,0,0,1-.626-.626V2.192a.627.627,0,0,1,.626-.626h32.1v17.26a.783.783,0,0,0,1.566,0V1.566h2.034a.627.627,0,0,1,.626.626V23.484a.627.627,0,0,1-.626.626Z" fill="#f5f5f5"/>
    </g>
  </g>
  <g id="Group_11718" data-name="Group 11718" transform="translate(17.086 8.526)">
    <g id="Group_11717" data-name="Group 11717">
      <path id="Path_10347" data-name="Path 10347" d="M224.961,111.8l-4.085-2.618a1.693,1.693,0,0,0-2.607,1.426v5.237a1.693,1.693,0,0,0,2.607,1.426l4.085-2.618a1.693,1.693,0,0,0,0-2.851Zm-.845,1.533-4.085,2.618a.128.128,0,0,1-.2-.108V110.61a.119.119,0,0,1,.067-.112.13.13,0,0,1,.063-.017.122.122,0,0,1,.068.022l4.085,2.618a.128.128,0,0,1,0,.215Z" transform="translate(-218.269 -108.917)" fill="#f5f5f5"/>
    </g>
  </g>
  <g id="Group_11720" data-name="Group 11720" transform="translate(11.43 4.227)">
    <g id="Group_11719" data-name="Group 11719">
      <path id="Path_10348" data-name="Path 10348" d="M154.624,54a8.611,8.611,0,1,0,8.611,8.611A8.611,8.611,0,0,0,154.624,54Zm0,15.656a7.045,7.045,0,1,1,7.045-7.045,7.045,7.045,0,0,1-7.045,7.045Z" transform="translate(-146.013 -54)" fill="#f5f5f5"/>
    </g>
  </g>
  <g id="Group_11722" data-name="Group 11722" transform="translate(34.287 20.955)">
    <g id="Group_11721" data-name="Group 11721">
      <path id="Path_10349" data-name="Path 10349" d="M439.349,267.929a.782.782,0,1,0,.229.553.782.782,0,0,0-.229-.553Z" transform="translate(-438.013 -267.7)" fill="#f5f5f5"/>
    </g>
  </g>
  <g id="Group_11724" data-name="Group 11724" transform="translate(4.228 3.523)">
    <g id="Group_11723" data-name="Group 11723">
      <path id="Path_10350" data-name="Path 10350" d="M55.349,45.229a.782.782,0,1,0,.229.553.782.782,0,0,0-.229-.553Z" transform="translate(-54.013 -45)" fill="#f5f5f5"/>
    </g>
  </g>
</svg>
