<svg id="text" xmlns="http://www.w3.org/2000/svg" width="41.697" height="36.453" viewBox="0 0 41.697 36.453">
  <g id="Group_1269" data-name="Group 1269" transform="translate(0 0)">
    <path id="Path_1229" data-name="Path 1229" d="M139.323,52.978c0-7.99-7.752-14.491-17.28-14.491s-17.28,6.5-17.28,14.491,7.752,14.491,17.28,14.491a20.865,20.865,0,0,0,2.4-.138c3.67,2.331,6.379,3.607,8.058,3.794a1.627,1.627,0,0,0,.175.01,1.6,1.6,0,0,0,1.394-2.386,8.3,8.3,0,0,1-.936-4.647A13.611,13.611,0,0,0,139.323,52.978ZM117.35,55.167a2.56,2.56,0,1,1,2.56-2.56A2.56,2.56,0,0,1,117.35,55.167Zm9.386,0a2.56,2.56,0,1,1,2.56-2.56A2.56,2.56,0,0,1,126.736,55.167Z" transform="translate(-97.625 -38.487)" fill="#1f3777"/>
    <path id="Path_1230" data-name="Path 1230" d="M10.788,178.317a15.7,15.7,0,0,1-4.017-4.939,13.449,13.449,0,0,1,0-12.384c.077-.15.157-.3.239-.445C2.778,162.973,0,167.02,0,171.594a12.639,12.639,0,0,0,6.082,10.484,9.013,9.013,0,0,1-.961,5.81.533.533,0,0,0,.464.8.545.545,0,0,0,.059,0c1.935-.215,5.343-2.182,7.924-3.84a19.723,19.723,0,0,0,2.645.178,18.543,18.543,0,0,0,9.148-2.347c-.582.047-1.168.071-1.753.071A20.073,20.073,0,0,1,10.788,178.317Z" transform="translate(0 -152.232)" fill="#1f3777"/>
  </g>
</svg>
