<svg xmlns="http://www.w3.org/2000/svg" width="59.773" height="31.284" viewBox="0 0 59.773 31.284">
  <path id="User_Groups" data-name="User Groups" d="M19.817,31.279a3.351,3.351,0,0,1-3.35-3.351v-2.01a8.044,8.044,0,0,1,8.042-8.043h.58a10.8,10.8,0,0,0,9.566,0h.579a8.045,8.045,0,0,1,8.043,8.043v2.01a3.352,3.352,0,0,1-3.351,3.351Zm24.273-.855c.007-.146.042-.293.042-.447V27.3a10.219,10.219,0,0,0-2.772-6.968,7.766,7.766,0,0,1,3.889-1.075h.266a8.807,8.807,0,0,0,6.172,0h.266a7.816,7.816,0,0,1,7.82,7.82,3.352,3.352,0,0,1-3.351,3.351Zm-40.739,0A3.353,3.353,0,0,1,0,27.072a7.816,7.816,0,0,1,7.82-7.82h.266a9.407,9.407,0,0,0,3.086.558,9.407,9.407,0,0,0,3.086-.558h.266a7.759,7.759,0,0,1,3.889,1.075A10.219,10.219,0,0,0,15.639,27.3v2.681c0,.154.035.3.042.447ZM41.9,10.315a6.7,6.7,0,1,1,6.7,6.7,6.7,6.7,0,0,1-6.7-6.7Zm-37.431,0a6.7,6.7,0,1,1,6.7,6.7,6.7,6.7,0,0,1-6.7-6.7Zm17.584-2.5a6.643,6.643,0,1,1,0,.005Z" transform="translate(0 0.005)" fill="#04d004"/>
</svg>
