<svg xmlns="http://www.w3.org/2000/svg" width="46.08" height="46.079" viewBox="0 0 46.08 46.079">
  <g id="video-tutorial" transform="translate(-1 -1)">
    <path id="Path_10356" data-name="Path 10356" d="M44.849,8.432H32.177a8.171,8.171,0,0,0-16.275,0H3.23A2.232,2.232,0,0,0,1,10.662V44.849a2.232,2.232,0,0,0,2.23,2.23H44.85a2.232,2.232,0,0,0,2.23-2.23V10.662a2.232,2.232,0,0,0-2.23-2.23ZM24.04,2.486a6.689,6.689,0,1,1-6.689,6.689A6.689,6.689,0,0,1,24.04,2.486ZM3.23,9.919H15.9a8.171,8.171,0,0,0,16.275,0H44.849a.743.743,0,0,1,.743.743V33.7H21.81V28.5a6.7,6.7,0,0,0-5.421-6.565,5.2,5.2,0,1,0-7,0A6.7,6.7,0,0,0,3.973,28.5v5.2H2.486V10.662a.743.743,0,0,1,.743-.743Zm13.377,16.35V33.7H9.175V26.269H7.689V33.7H5.459V28.5a5.209,5.209,0,0,1,5.2-5.2h.525l-.553,6.226,2.257,2.257,2.257-2.257L14.6,23.3h.526a5.209,5.209,0,0,1,5.2,5.2v5.2h-2.23V26.269Zm-3,2.693-.716.716-.716-.716.5-5.666H13.1Zm-.716-7.152a3.716,3.716,0,1,1,3.716-3.716,3.716,3.716,0,0,1-3.716,3.716ZM44.849,45.593H3.23a.743.743,0,0,1-.743-.743V35.188H45.593V44.85a.743.743,0,0,1-.744.743Z" fill="#fff"/>
    <ellipse id="Ellipse_127" data-name="Ellipse 127" cx="1" cy="0.5" rx="1" ry="0.5" transform="translate(14 40)" fill="#fff"/>
    <path id="Path_10357" data-name="Path 10357" d="M42.9,50.486H19.1a3.678,3.678,0,0,0-5.907,0H7.23a2.23,2.23,0,1,0,0,4.459h5.965a3.678,3.678,0,0,0,5.907,0H42.9a2.23,2.23,0,1,0,0-4.46ZM7.23,53.459a.743.743,0,1,1,0-1.486h5.278a3.717,3.717,0,0,0,0,1.486Zm8.919,1.486a2.23,2.23,0,1,1,2.23-2.23,2.23,2.23,0,0,1-2.23,2.23ZM42.9,53.459H19.789a3.717,3.717,0,0,0,0-1.486H42.9a.743.743,0,0,1,0,1.486Z" transform="translate(-1.027 -12.326)" fill="#fff"/>
    <path id="Path_10358" data-name="Path 10358" d="M39.23,38.378H51.121a2.232,2.232,0,0,0,2.23-2.23V27.23A2.232,2.232,0,0,0,51.121,25H39.23A2.232,2.232,0,0,0,37,27.23v8.919a2.232,2.232,0,0,0,2.23,2.229ZM38.486,27.23a.743.743,0,0,1,.743-.743H51.121a.743.743,0,0,1,.743.743v8.919a.743.743,0,0,1-.743.743H39.23a.743.743,0,0,1-.743-.743Z" transform="translate(-9.244 -6.163)" fill="#fff"/>
    <path id="Path_10359" data-name="Path 10359" d="M41,29H51.4v1.486H41Z" transform="translate(-10.272 -7.19)" fill="#fff"/>
    <path id="Path_10360" data-name="Path 10360" d="M41,33H51.4v1.486H41Z" transform="translate(-10.272 -8.217)" fill="#fff"/>
    <path id="Path_10361" data-name="Path 10361" d="M53,37h1.486v1.486H53Z" transform="translate(-13.353 -9.244)" fill="#fff"/>
    <path id="Path_10362" data-name="Path 10362" d="M41,37h7.432v1.486H41Z" transform="translate(-10.272 -9.244)" fill="#fff"/>
    <path id="Path_10363" data-name="Path 10363" d="M5,15H6.486v1.486H5Z" transform="translate(-1.027 -3.595)" fill="#fff"/>
    <path id="Path_10364" data-name="Path 10364" d="M5,19H6.486v1.486H5Z" transform="translate(-1.027 -4.622)" fill="#fff"/>
    <path id="Path_10365" data-name="Path 10365" d="M5,23H6.486v1.486H5Z" transform="translate(-1.027 -5.649)" fill="#fff"/>
    <path id="Path_10366" data-name="Path 10366" d="M8.612,7.8V6.4a.4.4,0,0,0-.4-.4H3.4a.4.4,0,0,0-.4.4v4.008a.4.4,0,0,0,.4.4H8.21a.4.4,0,0,0,.4-.4v-1.4l1.6,1.6V6.2Z" transform="translate(17.393 0.595)" fill="#fff"/>
    <circle id="Ellipse_128" data-name="Ellipse 128" cx="0.5" cy="0.5" r="0.5" transform="translate(21 7)" fill="#fff"/>
  </g>
</svg>
