<svg xmlns="http://www.w3.org/2000/svg" xmlns:xlink="http://www.w3.org/1999/xlink" width="1210.796" height="186.128" viewBox="0 0 1210.796 186.128">
  <defs>
    <filter id="Rectangle_677" x="0" y="33.515" width="1210.796" height="137.97" filterUnits="userSpaceOnUse">
      <feOffset dx="-1.425" dy="0.57" input="SourceAlpha"/>
      <feGaussianBlur stdDeviation="0.57" result="blur"/>
      <feFlood flood-opacity="0.149"/>
      <feComposite operator="in" in2="blur"/>
      <feComposite in="SourceGraphic"/>
    </filter>
  </defs>
  <g id="Group_14963" data-name="Group 14963" transform="translate(-80.489 -34.461)">
    <g id="Group_14539" data-name="Group 14539">
      <g transform="matrix(1, 0, 0, 1, 80.49, 34.46)" filter="url(#Rectangle_677)">
        <rect id="Rectangle_677-2" data-name="Rectangle 677" width="1207.375" height="134.549" transform="translate(3.14 34.66)" fill="#fc0"/>
      </g>
      <path id="Path_1247" data-name="Path 1247" d="M-1191.817,73.057l36.551-37.9,38.243,36.212-36.212,37.9Z" transform="translate(1385.505 -0.692)" fill="#f2f2f2" opacity="0.2"/>
      <path id="Path_13729" data-name="Path 13729" d="M-1191.817,73.057l36.551-37.9,38.243,36.212-36.212,37.9Z" transform="translate(2366.023 -0.692)" fill="#f2f2f2" opacity="0.2"/>
      <path id="Path_1249" data-name="Path 1249" d="M-1174.8,183.587l11.728,11.2-25.306,26.489-11.93-11.4S-1174.007,183.569-1174.8,183.587Z" transform="translate(1385.505 -0.692)" fill="#f2f2f2" opacity="0.2"/>
      <circle id="Ellipse_244" data-name="Ellipse 244" cx="16.544" cy="16.544" r="16.544" transform="translate(925.493 117.058)" fill="#f2f2f2" opacity="0.2"/>
      <path id="Path_1250" data-name="Path 1250" d="M-841.647,70.576l124.342,52.8-12.269-52.8Z" transform="translate(1385.505 -0.692)" fill="#f2f2f2" opacity="0.2"/>
    </g>
    <g id="Group_14820" data-name="Group 14820" transform="translate(828.425 -80.045)" opacity="0.05">
      <g id="Group_14820-2" data-name="Group 14820" transform="translate(368.75 259.37)">
        <path id="Path_14123" data-name="Path 14123" d="M523.334,395.939a6.561,6.561,0,0,0,1.915.212c.014,0-.292-.889-.318-.943-.3-.623-1.241-1.653-2.008-1.549a.916.916,0,0,0-.735,1.148A1.914,1.914,0,0,0,523.334,395.939Z" transform="translate(-522.161 -389.711)" fill="#263238"/>
        <path id="Path_14124" data-name="Path 14124" d="M524.157,387.68a6.361,6.361,0,0,0,1.885-.3,16.241,16.241,0,0,0,.735,2.035c.167.386.347.77.532,1.152-.11-.162-.211-.306-.227-.325-.452-.523-1.633-1.267-2.345-.964a.916.916,0,0,0-.406,1.3,1.914,1.914,0,0,0,1.4.79,6.078,6.078,0,0,0,1.832-.281c.073.146.143.292.217.438.351.7.7,1.395,1.03,2.088.115.244.219.489.324.734-.1-.144-.182-.264-.2-.281-.452-.522-1.633-1.266-2.345-.964a.916.916,0,0,0-.406,1.3,1.914,1.914,0,0,0,1.4.79,5.843,5.843,0,0,0,1.783-.267c.1.254.2.508.286.758.055.172.119.334.164.51l.144.515c.079.331.163.671.232,1,.05.225.093.441.138.658-.111-.245-.34-.718-.363-.756-.368-.585-1.422-1.5-2.172-1.308a.916.916,0,0,0-.6,1.225,1.916,1.916,0,0,0,1.268.993,6.3,6.3,0,0,0,1.9-.006c.072.359.139.71.2,1.041.129.732.226,1.388.3,1.943h.507c-.088-.574-.2-1.259-.357-2.027-.072-.365-.156-.754-.246-1.153a9.944,9.944,0,0,0,1.058-.5,6.7,6.7,0,0,0,1.542.995c-.138.34-.276.669-.411.977-.281.646-.547,1.219-.782,1.706h.548c.2-.449.425-.961.656-1.528.142-.344.286-.715.431-1.1a6.293,6.293,0,0,0,1.892.147,1.915,1.915,0,0,0,1.339-.9.916.916,0,0,0-.505-1.266c-.733-.246-1.853.587-2.263,1.143-.024.033-.247.418-.384.663.058-.157.117-.308.175-.469.117-.319.225-.641.341-.987l.153-.512c.055-.17.091-.356.138-.536.1-.419.18-.848.252-1.283a6.006,6.006,0,0,0,1.8.413,1.914,1.914,0,0,0,1.459-.683.916.916,0,0,0-.308-1.328c-.688-.355-1.921.3-2.411.787-.031.03-.343.42-.51.637.041-.261.083-.522.116-.788.1-.767.168-1.547.244-2.324.023-.238.049-.475.074-.713a6.365,6.365,0,0,0,1.856.435,1.914,1.914,0,0,0,1.459-.683.915.915,0,0,0-.308-1.328c-.688-.355-1.921.3-2.411.787-.037.037-.485.6-.592.746.055-.523.115-1.043.2-1.554a16.124,16.124,0,0,1,.446-2.044,6.467,6.467,0,0,0,1.867.439,1.915,1.915,0,0,0,1.459-.683.916.916,0,0,0-.308-1.328c-.688-.355-1.921.3-2.411.787-.038.038-.52.642-.6.758.011-.039.019-.08.031-.119a11.812,11.812,0,0,1,.81-1.934c.176-.344.364-.664.553-.97a6.17,6.17,0,0,0,1.768.621,1.913,1.913,0,0,0,1.525-.519.916.916,0,0,0-.16-1.353c-.645-.428-1.942.086-2.482.517-.029.023-.3.294-.5.495.087-.137.175-.28.262-.41.324-.488.65-.914.942-1.29.168-.212.324-.4.472-.575a6.117,6.117,0,0,0,1.846-.263,1.915,1.915,0,0,0,1.115-1.163.916.916,0,0,0-.766-1.127c-.769-.083-1.684.971-1.965,1.6-.024.055-.306.951-.292.951h.017c-.146.165-.3.344-.464.543-.3.37-.638.79-.973,1.273A16.232,16.232,0,0,0,536.8,385.1a11.925,11.925,0,0,0-.862,1.941c0,.008,0,.017-.007.024,0-.227-.006-.861-.012-.909-.089-.685-.663-1.957-1.424-2.1a.916.916,0,0,0-1.056.861,1.914,1.914,0,0,0,.735,1.433,6.38,6.38,0,0,0,1.735.793,16.182,16.182,0,0,0-.509,2.1c-.074.414-.136.833-.192,1.255,0-.2-.007-.371-.01-.4-.089-.685-.663-1.957-1.424-2.1a.916.916,0,0,0-1.056.861,1.915,1.915,0,0,0,.735,1.433,6.08,6.08,0,0,0,1.683.776c-.02.162-.042.323-.061.485-.093.777-.182,1.552-.293,2.31-.039.267-.087.529-.134.791,0-.174-.006-.321-.009-.343-.089-.685-.663-1.957-1.424-2.1a.916.916,0,0,0-1.056.862,1.915,1.915,0,0,0,.735,1.433,5.836,5.836,0,0,0,1.634.76c-.056.267-.113.534-.179.79-.05.174-.085.344-.145.516l-.164.509c-.116.32-.234.65-.356.959-.083.215-.166.419-.248.625.042-.265.113-.787.114-.831a3.557,3.557,0,0,0-.477-1.73,1.082,1.082,0,0,0-.013-.2.916.916,0,0,0-1.12-.777c-.748.2-1.222,1.512-1.258,2.2,0,.041.025.485.046.765-.038-.163-.072-.321-.113-.488-.078-.331-.167-.658-.26-1.012l-.155-.512c-.048-.172-.121-.348-.181-.523-.148-.4-.317-.807-.5-1.209a6.013,6.013,0,0,0,1.725-.646,1.914,1.914,0,0,0,.84-1.374.916.916,0,0,0-.989-.938c-.77.084-1.437,1.309-1.577,1.986-.009.042-.054.539-.074.813-.11-.241-.219-.481-.338-.721-.344-.692-.713-1.383-1.079-2.073-.112-.211-.221-.423-.331-.635a6.373,6.373,0,0,0,1.788-.661,1.916,1.916,0,0,0,.84-1.375.916.916,0,0,0-.989-.938c-.769.084-1.437,1.309-1.577,1.986-.01.051-.075.766-.083.949-.242-.466-.48-.934-.695-1.4a16.144,16.144,0,0,1-.755-1.951,6.465,6.465,0,0,0,1.8-.664,1.914,1.914,0,0,0,.84-1.374.916.916,0,0,0-.989-.938c-.769.084-1.437,1.309-1.576,1.986-.011.053-.08.823-.083.963-.012-.039-.029-.077-.04-.116a11.8,11.8,0,0,1-.392-2.06c-.043-.384-.063-.754-.074-1.114a6.164,6.164,0,0,0,1.817-.457,1.915,1.915,0,0,0,.986-1.274.916.916,0,0,0-.88-1.041c-.774,0-1.572,1.144-1.785,1.8-.011.036-.089.412-.142.687,0-.163-.008-.33-.008-.486,0-.585.038-1.121.075-1.6.023-.269.049-.513.076-.74a6.134,6.134,0,0,0,1.394-1.237,1.914,1.914,0,0,0,.288-1.585.916.916,0,0,0-1.261-.518c-.687.355-.868,1.739-.755,2.421.01.059.27.962.281.955l.013-.009c-.03.218-.06.453-.087.709-.047.474-.1,1.011-.11,1.6a16.251,16.251,0,0,0,.045,1.9,11.945,11.945,0,0,0,.351,2.094c0,.008.006.016.008.024-.122-.191-.48-.715-.512-.752-.452-.523-1.633-1.267-2.345-.964a.916.916,0,0,0-.406,1.3A1.915,1.915,0,0,0,524.157,387.68Z" transform="translate(-522.515 -377.518)" fill="#263238"/>
        <path id="Path_14125" data-name="Path 14125" d="M577.415,393.57c.012.008.247-.9.255-.962.095-.684-.123-2.063-.82-2.4a.916.916,0,0,0-1.246.552,1.914,1.914,0,0,0,.33,1.576A6.554,6.554,0,0,0,577.415,393.57Z" transform="translate(-562.503 -387.044)" fill="#263238"/>
      </g>
      <g id="Group_14835" data-name="Group 14835" transform="translate(379.116 173.291)">
        <g id="Group_14834" data-name="Group 14834" transform="translate(0 0)">
          <path id="Path_14138" data-name="Path 14138" d="M614.046,201.45s-5.717,1.759-5.277,3.3,10.994,14.733,12.754,14.293,3.738-6.157,3.738-10.115S614.046,201.45,614.046,201.45Z" transform="translate(-590.222 -195.159)" fill="#fff2be" stroke="#263238" stroke-linecap="round" stroke-linejoin="round" stroke-width="1"/>
          <path id="Path_14139" data-name="Path 14139" d="M634.349,231.318l-5.394-6.521s-7.036-16.492-9.016-19.79-6.377-12.753-7.916-13.193-3.738-.66-4.4-1.1a17.809,17.809,0,0,0-6.816-1.539,90.89,90.89,0,0,1-13.853-2.638c-3.078-.88-3.3,0-7.036,1.319s-14.953,5.277-15.832,5.937.22,2.639,3.078,3.738,4.178.22,7.476-.22,8.356-1.319,9.016-1.319a35.292,35.292,0,0,1,6.377,1.1c.879.44,3.078,3.958,3.078,5.717a20.229,20.229,0,0,1-.44,3.738l-.089,15.269s6.962,7.855,11.783,10.533,7.141,2.857,7.141,2.857l7.5,6.962" transform="translate(-563.792 -186.183)" fill="#fff2be" stroke="#263238" stroke-linecap="round" stroke-linejoin="round" stroke-width="1"/>
          <path id="Path_14140" data-name="Path 14140" d="M670.173,197.181a19.885,19.885,0,0,1,3.518,5.057" transform="translate(-626.339 -192.649)" fill="#fff2be" stroke="#263238" stroke-linecap="round" stroke-linejoin="round" stroke-width="1"/>
          <g id="Group_14833" data-name="Group 14833" transform="translate(5.921 4.438)">
            <path id="Path_14141" data-name="Path 14141" d="M636.754,262.634l-16.721-18.847a102.386,102.386,0,0,1-12.754-6.6c-5.057-3.3-11.215-13.853-12.754-16.272s-4.837-7.256-7.476-9.015a38.053,38.053,0,0,1-8.576-9.455c-1.1-2.2.88-5.057,3.3-5.277s12.534,4.618,14.293,7.256a103.216,103.216,0,0,0,6.817,8.136" transform="translate(-578.162 -197.077)" fill="#fff2be" stroke="#263238" stroke-linecap="round" stroke-linejoin="round" stroke-width="1"/>
            <path id="Path_14142" data-name="Path 14142" d="M604.19,215.859s-2.639,2.639-2.858,3.958" transform="translate(-591.785 -208.069)" fill="#fff2be" stroke="#263238" stroke-linecap="round" stroke-linejoin="round" stroke-width="1"/>
            <path id="Path_14143" data-name="Path 14143" d="M608.365,216.392a25.233,25.233,0,0,1-3.3,4.178" transform="translate(-593.981 -208.382)" fill="#fff2be" stroke="#263238" stroke-linecap="round" stroke-linejoin="round" stroke-width="1"/>
            <path id="Path_14144" data-name="Path 14144" d="M588.693,200.565a18.559,18.559,0,0,0-4.838,5.717s-4.7-1.71-5.057-3.958.355-4.5,3.3-5.277S588.693,200.565,588.693,200.565Z" transform="translate(-578.486 -196.953)" fill="#fff2be" stroke="#263238" stroke-linecap="round" stroke-linejoin="round" stroke-width="1"/>
          </g>
        </g>
        <path id="Path_14145" data-name="Path 14145" d="M711.566,322.412c-.824-1.373-25.229-22.937-26.053-25.684s2.472-9.065,7.692-14.834c2.757-3.046,9.624-8.009,13.474-3.962,1.588,1.67,2.932,3.69,4.656,5.336" transform="translate(-635.285 -239.231)" fill="#fff2be" stroke="#263238" stroke-linecap="round" stroke-linejoin="round" stroke-width="1"/>
      </g>
      <g id="Group_14832" data-name="Group 14832" transform="translate(249.693 166.828)">
        <g id="Group_14822" data-name="Group 14822" transform="translate(0 32.764)">
          <g id="Group_14821" data-name="Group 14821" transform="translate(0.716)">
            <path id="Path_14126" data-name="Path 14126" d="M254.877,332.968s3.3-11.711,3.3-13.031a76.384,76.384,0,0,0-1.319-12.094c-1.1-5.937-4.4-20.669-5.277-23.089s2.419-6.816,3.3-11.874,2.859-9.895,5.5-12.973,12.094-9.895,12.094-9.895h4.837s-1.759,29.025.66,33.423,6.816,13.633,7.256,17.591-2.2,10.555-1.759,14.293-3.3,9.895-4.178,12.534a15.772,15.772,0,0,0-.44,5.995" transform="translate(-251.431 -250.013)" fill="#fff2be" stroke="#263238" stroke-linecap="round" stroke-linejoin="round" stroke-width="1"/>
            <path id="Path_14127" data-name="Path 14127" d="M292.634,268.921l-3.517,4.087s-.881,4.709-1.321,6.908a17.583,17.583,0,0,1-1.319,3.958,47.323,47.323,0,0,0,2.419,4.837,12.433,12.433,0,0,1,1.319,2.639l2.419,1.539V268.921Z" transform="translate(-272.037 -260.785)" fill="#fff2be" stroke="#263238" stroke-linecap="round" stroke-linejoin="round" stroke-width="1"/>
            <path id="Path_14128" data-name="Path 14128" d="M271.943,307.03a28.8,28.8,0,0,1,3.553-.254" transform="translate(-263.491 -283.387)" fill="#fff2be" stroke="#263238" stroke-linecap="round" stroke-linejoin="round" stroke-width="1"/>
            <path id="Path_14129" data-name="Path 14129" d="M286.725,275.364s2.538.761,2.538,1.777" transform="translate(-272.182 -264.918)" fill="#fff2be" stroke="#263238" stroke-linecap="round" stroke-linejoin="round" stroke-width="1"/>
          </g>
          <path id="Path_14130" data-name="Path 14130" d="M249.693,438.524a27.309,27.309,0,0,0,1.1-4.537v-3.3a2.811,2.811,0,0,1,1.1-1.923,46.334,46.334,0,0,1,21.426,1.373c10.713,3.571,8.241,9.34,8.241,9.34l-.55-.759" transform="translate(-249.693 -354.719)" fill="#fff2be" stroke="#263238" stroke-linecap="round" stroke-linejoin="round" stroke-width="1"/>
        </g>
        <g id="Group_14830" data-name="Group 14830" transform="translate(20.214)">
          <rect id="Rectangle_3291" data-name="Rectangle 3291" width="135.891" height="83.998" rx="9.588" fill="#263238" stroke="#263238" stroke-linecap="round" stroke-linejoin="round" stroke-width="1"/>
          <rect id="Rectangle_3292" data-name="Rectangle 3292" width="126.397" height="74.762" rx="9.588" transform="translate(4.747 4.618)" fill="#fff" stroke="#263238" stroke-linecap="round" stroke-linejoin="round" stroke-width="1"/>
          <g id="Group_14829" data-name="Group 14829" transform="translate(88.063 7.648)">
            <g id="Group_14824" data-name="Group 14824">
              <rect id="Rectangle_3293" data-name="Rectangle 3293" width="33.741" height="21.594" fill="#fff" stroke="#263238" stroke-linecap="round" stroke-linejoin="round" stroke-width="1"/>
              <rect id="Rectangle_3294" data-name="Rectangle 3294" width="33.741" height="2.405" transform="translate(0 19.189)" fill="#263238" stroke="#263238" stroke-linecap="round" stroke-linejoin="round" stroke-width="1"/>
              <rect id="Rectangle_3295" data-name="Rectangle 3295" width="33.741" height="0.702" transform="translate(0 20.041)" fill="#fff" stroke="#263238" stroke-linecap="round" stroke-linejoin="round" stroke-width="1"/>
              <g id="Group_14823" data-name="Group 14823" transform="translate(10.916 5.323)">
                <circle id="Ellipse_612" data-name="Ellipse 612" cx="4.969" cy="4.969" r="4.969" transform="matrix(0.996, -0.084, 0.084, 0.996, 0, 0.835)" fill="#0169ee"/>
                <path id="Path_14131" data-name="Path 14131" d="M552.814,211.707l-4.323-2.5V214.2Z" transform="translate(-544.567 -206.231)" fill="#fff"/>
              </g>
            </g>
            <g id="Group_14826" data-name="Group 14826" transform="translate(0 23.926)">
              <rect id="Rectangle_3296" data-name="Rectangle 3296" width="33.741" height="21.594" fill="#fff" stroke="#263238" stroke-linecap="round" stroke-linejoin="round" stroke-width="1"/>
              <rect id="Rectangle_3297" data-name="Rectangle 3297" width="33.741" height="2.405" transform="translate(0 19.189)" fill="#263238" stroke="#263238" stroke-linecap="round" stroke-linejoin="round" stroke-width="1"/>
              <rect id="Rectangle_3298" data-name="Rectangle 3298" width="33.741" height="0.702" transform="translate(0 20.041)" fill="#fff" stroke="#263238" stroke-linecap="round" stroke-linejoin="round" stroke-width="1"/>
              <g id="Group_14825" data-name="Group 14825" transform="translate(10.916 5.323)">
                <circle id="Ellipse_613" data-name="Ellipse 613" cx="4.969" cy="4.969" r="4.969" transform="matrix(0.996, -0.084, 0.084, 0.996, 0, 0.835)" fill="#0169ee"/>
                <path id="Path_14132" data-name="Path 14132" d="M552.814,269.773l-4.323-2.5v4.992Z" transform="translate(-544.567 -264.297)" fill="#fff"/>
              </g>
            </g>
            <g id="Group_14828" data-name="Group 14828" transform="translate(0 47.852)">
              <rect id="Rectangle_3299" data-name="Rectangle 3299" width="33.741" height="21.594" fill="#fff" stroke="#263238" stroke-linecap="round" stroke-linejoin="round" stroke-width="1"/>
              <rect id="Rectangle_3300" data-name="Rectangle 3300" width="33.741" height="2.405" transform="translate(0 19.189)" fill="#263238" stroke="#263238" stroke-linecap="round" stroke-linejoin="round" stroke-width="1"/>
              <rect id="Rectangle_3301" data-name="Rectangle 3301" width="33.741" height="0.702" transform="translate(0 20.041)" fill="#fff" stroke="#263238" stroke-linecap="round" stroke-linejoin="round" stroke-width="1"/>
              <g id="Group_14827" data-name="Group 14827" transform="translate(10.732 5.139)">
                <circle id="Ellipse_614" data-name="Ellipse 614" cx="4.969" cy="4.969" r="4.969" transform="matrix(0.126, -0.992, 0.992, 0.126, 0, 9.859)" fill="#0169ee"/>
                <path id="Path_14133" data-name="Path 14133" d="M552.814,327.839l-4.323-2.5v4.992Z" transform="translate(-544.382 -322.178)" fill="#fff"/>
              </g>
            </g>
          </g>
          <path id="Rectangle_3302" data-name="Rectangle 3302" d="M5.8,0H56.447a5.8,5.8,0,0,1,5.8,5.8V39.465a5.8,5.8,0,0,1-5.8,5.8H5.8a5.8,5.8,0,0,1-5.8-5.8V5.8A5.8,5.8,0,0,1,5.8,0Z" transform="translate(16.708 14.843)" fill="#f0ae00"/>
          <g id="Group_14836" data-name="Group 14836" transform="translate(40.979 32.105)">
            <circle id="Ellipse_613-2" data-name="Ellipse 613" cx="4.969" cy="4.969" r="4.969" transform="matrix(0.996, -0.084, 0.084, 0.996, 0, 0.835)" fill="#0169ee"/>
            <path id="Path_14132-2" data-name="Path 14132" d="M552.814,269.773l-4.323-2.5v4.992Z" transform="translate(-544.567 -264.297)" fill="#fff"/>
          </g>
          <line id="Line_688" data-name="Line 688" x2="25" transform="translate(23.127 65.364)" fill="none" stroke="#707070" stroke-width="1"/>
          <line id="Line_689" data-name="Line 689" x2="16" transform="translate(23.127 70.364)" fill="none" stroke="#707070" stroke-width="1"/>
          <line id="Line_692" data-name="Line 692" x2="16" transform="translate(53.952 65.364)" fill="none" stroke="#707070" stroke-width="1"/>
          <line id="Line_690" data-name="Line 690" x2="25" transform="translate(23.127 75.364)" fill="none" stroke="#707070" stroke-width="1"/>
          <line id="Line_691" data-name="Line 691" x2="25" transform="translate(53.952 70.364)" fill="none" stroke="#707070" stroke-width="1"/>
        </g>
        <g id="Group_14831" data-name="Group 14831" transform="translate(14.284 36.631)">
          <path id="Path_14134" data-name="Path 14134" d="M284.36,294.693s3.951-8.6,4.39-11.9-.44-10.994.66-14.073.44-7.037,3.079-8.576,6.157-1.1,6.816,5.057,0,15.832.22,19.13,5.937,8.136,6.157,15.172-2.2,14.293-2.859,17.371-3.3,10.335-3.3,10.335" transform="translate(-284.36 -259.399)" fill="#fff2be" stroke="#263238" stroke-linecap="round" stroke-linejoin="round" stroke-width="1"/>
          <path id="Path_14135" data-name="Path 14135" d="M299.176,267.512a9.154,9.154,0,0,1,3.97-.078,32.248,32.248,0,0,1,3.518.88,25.28,25.28,0,0,0,0-4.4s.292-2.512-1.231-3.527-4.568-.761-5.583,1.523A13.141,13.141,0,0,0,299.176,267.512Z" transform="translate(-293.039 -259.647)" fill="#fff2be" stroke="#263238" stroke-linecap="round" stroke-linejoin="round" stroke-width="1"/>
          <path id="Path_14136" data-name="Path 14136" d="M303.541,287.517s-5.076-1.523-6.345.508" transform="translate(-291.907 -275.609)" fill="#fff2be" stroke="#263238" stroke-linecap="round" stroke-linejoin="round" stroke-width="1"/>
          <path id="Path_14137" data-name="Path 14137" d="M300.275,291.378a13.614,13.614,0,0,0,4.822.254" transform="translate(-293.717 -278.201)" fill="#fff2be" stroke="#263238" stroke-linecap="round" stroke-linejoin="round" stroke-width="1"/>
        </g>
      </g>
    </g>
  </g>
</svg>
