<?xml version="1.0" encoding="UTF-8" standalone="no"?>
<!DOCTYPE svg PUBLIC "-//W3C//DTD SVG 1.1//EN"
 "http://www.w3.org/Graphics/SVG/1.1/DTD/svg11.dtd">
<!-- Generated by graphviz version 2.47.3 (20210619.1520)
 -->
<!-- Title: dependencies Pages: 1 -->
<svg width="1194pt" height="174pt"
 viewBox="0.00 0.00 1194.00 173.80" xmlns="http://www.w3.org/2000/svg" xmlns:xlink="http://www.w3.org/1999/xlink">
<g id="graph0" class="graph" transform="scale(1 1) rotate(0) translate(4 169.8)">
<title>dependencies</title>
<polygon fill="white" stroke="transparent" points="-4,4 -4,-169.8 1190,-169.8 1190,4 -4,4"/>
<text text-anchor="middle" x="593" y="-8.2" font-family="sans-serif" font-size="14.00">dependencies</text>
<g id="clust1" class="cluster">
<title>cluster_LearnerModule</title>
<polygon fill="none" stroke="black" stroke-dasharray="1,5" points="8,-32.8 8,-157.8 1178,-157.8 1178,-32.8 8,-32.8"/>
</g>
<g id="clust8" class="cluster">
<title>cluster_LearnerModule_imports</title>
<polygon fill="none" stroke="black" points="943,-40.8 943,-92.8 1170,-92.8 1170,-40.8 943,-40.8"/>
</g>
<g id="clust2" class="cluster">
<title>cluster_LearnerModule_declarations</title>
<polygon fill="none" stroke="black" points="16,-40.8 16,-92.8 935,-92.8 935,-40.8 16,-40.8"/>
</g>
<!-- ForbiddenComponent -->
<g id="node1" class="node">
<title>ForbiddenComponent</title>
<polygon fill="#ffffb3" stroke="black" points="927.38,-84.8 788.62,-84.8 788.62,-48.8 927.38,-48.8 927.38,-84.8"/>
<text text-anchor="middle" x="858" y="-62.6" font-family="Times,serif" font-size="14.00">ForbiddenComponent</text>
</g>
<!-- LearnerModule -->
<g id="node6" class="node">
<title>LearnerModule</title>
<polygon fill="#8dd3c7" stroke="black" points="762.57,-149.8 759.57,-153.8 738.57,-153.8 735.57,-149.8 659.43,-149.8 659.43,-113.8 762.57,-113.8 762.57,-149.8"/>
<text text-anchor="middle" x="711" y="-127.6" font-family="Times,serif" font-size="14.00">LearnerModule</text>
</g>
<!-- ForbiddenComponent&#45;&gt;LearnerModule -->
<g id="edge1" class="edge">
<title>ForbiddenComponent&#45;&gt;LearnerModule</title>
<path fill="none" stroke="black" d="M858,-84.83C858,-101.2 858,-122.8 858,-122.8 858,-122.8 772.83,-122.8 772.83,-122.8"/>
<polygon fill="black" stroke="black" points="772.83,-119.3 762.83,-122.8 772.83,-126.3 772.83,-119.3"/>
</g>
<!-- ProfileComponent -->
<g id="node2" class="node">
<title>ProfileComponent</title>
<polygon fill="#ffffb3" stroke="black" points="770.93,-84.8 651.07,-84.8 651.07,-48.8 770.93,-48.8 770.93,-84.8"/>
<text text-anchor="middle" x="711" y="-62.6" font-family="Times,serif" font-size="14.00">ProfileComponent</text>
</g>
<!-- ProfileComponent&#45;&gt;LearnerModule -->
<g id="edge2" class="edge">
<title>ProfileComponent&#45;&gt;LearnerModule</title>
<path fill="none" stroke="black" d="M711,-84.91C711,-84.91 711,-103.79 711,-103.79"/>
<polygon fill="black" stroke="black" points="707.5,-103.79 711,-113.79 714.5,-103.79 707.5,-103.79"/>
</g>
<!-- TermsconditionsComponent -->
<g id="node3" class="node">
<title>TermsconditionsComponent</title>
<polygon fill="#ffffb3" stroke="black" points="633.93,-84.8 458.07,-84.8 458.07,-48.8 633.93,-48.8 633.93,-84.8"/>
<text text-anchor="middle" x="546" y="-62.6" font-family="Times,serif" font-size="14.00">TermsconditionsComponent</text>
</g>
<!-- TermsconditionsComponent&#45;&gt;LearnerModule -->
<g id="edge3" class="edge">
<title>TermsconditionsComponent&#45;&gt;LearnerModule</title>
<path fill="none" stroke="black" d="M546,-84.83C546,-101.2 546,-122.8 546,-122.8 546,-122.8 649.25,-122.8 649.25,-122.8"/>
<polygon fill="black" stroke="black" points="649.25,-126.3 659.25,-122.8 649.25,-119.3 649.25,-126.3"/>
</g>
<!-- VideoPreviewModalComponent -->
<g id="node4" class="node">
<title>VideoPreviewModalComponent</title>
<polygon fill="#ffffb3" stroke="black" points="439.96,-84.8 242.04,-84.8 242.04,-48.8 439.96,-48.8 439.96,-84.8"/>
<text text-anchor="middle" x="341" y="-62.6" font-family="Times,serif" font-size="14.00">VideoPreviewModalComponent</text>
</g>
<!-- VideoPreviewModalComponent&#45;&gt;LearnerModule -->
<g id="edge4" class="edge">
<title>VideoPreviewModalComponent&#45;&gt;LearnerModule</title>
<path fill="none" stroke="black" d="M341,-84.91C341,-104.14 341,-131.8 341,-131.8 341,-131.8 649.16,-131.8 649.16,-131.8"/>
<polygon fill="black" stroke="black" points="649.16,-135.3 659.16,-131.8 649.16,-128.3 649.16,-135.3"/>
</g>
<!-- ViewAllnotificationsComponent -->
<g id="node5" class="node">
<title>ViewAllnotificationsComponent</title>
<polygon fill="#ffffb3" stroke="black" points="223.53,-84.8 24.47,-84.8 24.47,-48.8 223.53,-48.8 223.53,-84.8"/>
<text text-anchor="middle" x="124" y="-62.6" font-family="Times,serif" font-size="14.00">ViewAllnotificationsComponent</text>
</g>
<!-- ViewAllnotificationsComponent&#45;&gt;LearnerModule -->
<g id="edge5" class="edge">
<title>ViewAllnotificationsComponent&#45;&gt;LearnerModule</title>
<path fill="none" stroke="black" d="M124,-85.09C124,-107.01 124,-140.8 124,-140.8 124,-140.8 649.42,-140.8 649.42,-140.8"/>
<polygon fill="black" stroke="black" points="649.42,-144.3 659.42,-140.8 649.42,-137.3 649.42,-144.3"/>
</g>
<!-- CoreModule -->
<g id="node7" class="node">
<title>CoreModule</title>
<polygon fill="#8dd3c7" stroke="black" points="1162.26,-84.8 1159.26,-88.8 1138.26,-88.8 1135.26,-84.8 1075.74,-84.8 1075.74,-48.8 1162.26,-48.8 1162.26,-84.8"/>
<text text-anchor="middle" x="1119" y="-62.6" font-family="Times,serif" font-size="14.00">CoreModule</text>
</g>
<!-- CoreModule&#45;&gt;LearnerModule -->
<g id="edge6" class="edge">
<title>CoreModule&#45;&gt;LearnerModule</title>
<path fill="none" stroke="black" d="M1119,-85.09C1119,-107.01 1119,-140.8 1119,-140.8 1119,-140.8 772.67,-140.8 772.67,-140.8"/>
<polygon fill="black" stroke="black" points="772.67,-137.3 762.67,-140.8 772.67,-144.3 772.67,-137.3"/>
</g>
<!-- MaterialModule -->
<g id="node8" class="node">
<title>MaterialModule</title>
<polygon fill="#8dd3c7" stroke="black" points="1057.47,-84.8 1054.47,-88.8 1033.47,-88.8 1030.47,-84.8 950.53,-84.8 950.53,-48.8 1057.47,-48.8 1057.47,-84.8"/>
<text text-anchor="middle" x="1004" y="-62.6" font-family="Times,serif" font-size="14.00">MaterialModule</text>
</g>
<!-- MaterialModule&#45;&gt;LearnerModule -->
<g id="edge7" class="edge">
<title>MaterialModule&#45;&gt;LearnerModule</title>
<path fill="none" stroke="black" d="M1004,-84.91C1004,-104.14 1004,-131.8 1004,-131.8 1004,-131.8 772.71,-131.8 772.71,-131.8"/>
<polygon fill="black" stroke="black" points="772.71,-128.3 762.71,-131.8 772.71,-135.3 772.71,-128.3"/>
</g>
</g>
</svg>
