<?xml version="1.0" encoding="UTF-8" standalone="no"?>
<!DOCTYPE svg PUBLIC "-//W3C//DTD SVG 1.1//EN"
 "http://www.w3.org/Graphics/SVG/1.1/DTD/svg11.dtd">
<!-- Generated by graphviz version 2.47.3 (20210619.1520)
 -->
<!-- Title: dependencies Pages: 1 -->
<svg width="876pt" height="174pt"
 viewBox="0.00 0.00 876.00 173.80" xmlns="http://www.w3.org/2000/svg" xmlns:xlink="http://www.w3.org/1999/xlink">
<g id="graph0" class="graph" transform="scale(1 1) rotate(0) translate(4 169.8)">
<title>dependencies</title>
<polygon fill="white" stroke="transparent" points="-4,4 -4,-169.8 872,-169.8 872,4 -4,4"/>
<text text-anchor="middle" x="434" y="-8.2" font-family="sans-serif" font-size="14.00">dependencies</text>
<g id="clust1" class="cluster">
<title>cluster_LearnerModule</title>
<polygon fill="none" stroke="black" stroke-dasharray="1,5" points="8,-32.8 8,-157.8 860,-157.8 860,-32.8 8,-32.8"/>
</g>
<g id="clust2" class="cluster">
<title>cluster_LearnerModule_declarations</title>
<polygon fill="none" stroke="black" points="126,-40.8 126,-92.8 852,-92.8 852,-40.8 126,-40.8"/>
</g>
<g id="clust7" class="cluster">
<title>cluster_LearnerModule_imports</title>
<polygon fill="none" stroke="black" points="16,-40.8 16,-92.8 118,-92.8 118,-40.8 16,-40.8"/>
</g>
<!-- ForbiddenComponent -->
<g id="node1" class="node">
<title>ForbiddenComponent</title>
<polygon fill="#ffffb3" stroke="black" points="844.38,-84.8 705.62,-84.8 705.62,-48.8 844.38,-48.8 844.38,-84.8"/>
<text text-anchor="middle" x="775" y="-62.6" font-family="Times,serif" font-size="14.00">ForbiddenComponent</text>
</g>
<!-- LearnerModule -->
<g id="node5" class="node">
<title>LearnerModule</title>
<polygon fill="#8dd3c7" stroke="black" points="502.57,-149.8 499.57,-153.8 478.57,-153.8 475.57,-149.8 399.43,-149.8 399.43,-113.8 502.57,-113.8 502.57,-149.8"/>
<text text-anchor="middle" x="451" y="-127.6" font-family="Times,serif" font-size="14.00">LearnerModule</text>
</g>
<!-- ForbiddenComponent&#45;&gt;LearnerModule -->
<g id="edge1" class="edge">
<title>ForbiddenComponent&#45;&gt;LearnerModule</title>
<path fill="none" stroke="black" d="M775,-85.08C775,-106.12 775,-137.8 775,-137.8 775,-137.8 512.7,-137.8 512.7,-137.8"/>
<polygon fill="black" stroke="black" points="512.7,-134.3 502.7,-137.8 512.7,-141.3 512.7,-134.3"/>
</g>
<!-- ProfileComponent -->
<g id="node2" class="node">
<title>ProfileComponent</title>
<polygon fill="#ffffb3" stroke="black" points="687.93,-84.8 568.07,-84.8 568.07,-48.8 687.93,-48.8 687.93,-84.8"/>
<text text-anchor="middle" x="628" y="-62.6" font-family="Times,serif" font-size="14.00">ProfileComponent</text>
</g>
<!-- ProfileComponent&#45;&gt;LearnerModule -->
<g id="edge2" class="edge">
<title>ProfileComponent&#45;&gt;LearnerModule</title>
<path fill="none" stroke="black" d="M628,-84.82C628,-102.17 628,-125.8 628,-125.8 628,-125.8 512.67,-125.8 512.67,-125.8"/>
<polygon fill="black" stroke="black" points="512.67,-122.3 502.67,-125.8 512.67,-129.3 512.67,-122.3"/>
</g>
<!-- VideoPreviewModalComponent -->
<g id="node3" class="node">
<title>VideoPreviewModalComponent</title>
<polygon fill="#ffffb3" stroke="black" points="549.96,-84.8 352.04,-84.8 352.04,-48.8 549.96,-48.8 549.96,-84.8"/>
<text text-anchor="middle" x="451" y="-62.6" font-family="Times,serif" font-size="14.00">VideoPreviewModalComponent</text>
</g>
<!-- VideoPreviewModalComponent&#45;&gt;LearnerModule -->
<g id="edge3" class="edge">
<title>VideoPreviewModalComponent&#45;&gt;LearnerModule</title>
<path fill="none" stroke="black" d="M451,-84.91C451,-84.91 451,-103.79 451,-103.79"/>
<polygon fill="black" stroke="black" points="447.5,-103.79 451,-113.79 454.5,-103.79 447.5,-103.79"/>
</g>
<!-- ViewAllnotificationsComponent -->
<g id="node4" class="node">
<title>ViewAllnotificationsComponent</title>
<polygon fill="#ffffb3" stroke="black" points="333.53,-84.8 134.47,-84.8 134.47,-48.8 333.53,-48.8 333.53,-84.8"/>
<text text-anchor="middle" x="234" y="-62.6" font-family="Times,serif" font-size="14.00">ViewAllnotificationsComponent</text>
</g>
<!-- ViewAllnotificationsComponent&#45;&gt;LearnerModule -->
<g id="edge4" class="edge">
<title>ViewAllnotificationsComponent&#45;&gt;LearnerModule</title>
<path fill="none" stroke="black" d="M234,-84.82C234,-102.17 234,-125.8 234,-125.8 234,-125.8 389.3,-125.8 389.3,-125.8"/>
<polygon fill="black" stroke="black" points="389.3,-129.3 399.3,-125.8 389.3,-122.3 389.3,-129.3"/>
</g>
<!-- CoreModule -->
<g id="node6" class="node">
<title>CoreModule</title>
<polygon fill="#8dd3c7" stroke="black" points="110.26,-84.8 107.26,-88.8 86.26,-88.8 83.26,-84.8 23.74,-84.8 23.74,-48.8 110.26,-48.8 110.26,-84.8"/>
<text text-anchor="middle" x="67" y="-62.6" font-family="Times,serif" font-size="14.00">CoreModule</text>
</g>
<!-- CoreModule&#45;&gt;LearnerModule -->
<g id="edge5" class="edge">
<title>CoreModule&#45;&gt;LearnerModule</title>
<path fill="none" stroke="black" d="M67,-85.08C67,-106.12 67,-137.8 67,-137.8 67,-137.8 389.21,-137.8 389.21,-137.8"/>
<polygon fill="black" stroke="black" points="389.21,-141.3 399.21,-137.8 389.21,-134.3 389.21,-141.3"/>
</g>
</g>
</svg>
