<svg id="_006-assignment" data-name="006-assignment" xmlns="http://www.w3.org/2000/svg" width="50" height="50" viewBox="0 0 50 50">
  <path id="Path_10693" data-name="Path 10693" d="M50,25A25,25,0,1,1,25,0,25,25,0,0,1,50,25Zm0,0" fill="#382b73"/>
  <path id="Path_10694" data-name="Path 10694" d="M76.123,54.163A21.96,21.96,0,1,1,54.163,32.2,21.96,21.96,0,0,1,76.123,54.163Zm0,0" transform="translate(-29.163 -29.163)" fill="#473080"/>
  <path id="Path_10695" data-name="Path 10695" d="M150.1,124.729a6.046,6.046,0,0,0-4.532-5.853v-7.342a1.465,1.465,0,0,0-1.164-1.433,1.464,1.464,0,0,0-1.433-1.164h-5.209l-1.171-1.171h-10.33a1.463,1.463,0,0,0-1.463,1.464v21.4a21.547,21.547,0,0,0,2.334,2.6,1.464,1.464,0,0,0,1.433,1.164h15.539a1.464,1.464,0,0,0,1.464-1.464v-2.35A6.047,6.047,0,0,0,150.1,124.729Zm0,0" transform="translate(-110.095 -94.885)" fill="#382b73"/>
  <path id="Path_10696" data-name="Path 10696" d="M166.206,148.108H150.667a1.464,1.464,0,0,1-1.464-1.463V125.831a1.464,1.464,0,0,1,1.464-1.464h15.539a1.464,1.464,0,0,1,1.464,1.464v20.813A1.464,1.464,0,0,1,166.206,148.108Zm0,0" transform="translate(-132.519 -109.925)" fill="#d1d3d4"/>
  <path id="Path_10697" data-name="Path 10697" d="M166.206,146.819H150.667a1.636,1.636,0,0,1-1.464-1.766V119.934a1.637,1.637,0,0,1,1.464-1.766h15.539a1.637,1.637,0,0,1,1.464,1.766v25.118A1.636,1.636,0,0,1,166.206,146.819Zm0,0" transform="translate(-132.519 -107.012)" fill="#fff"/>
  <path id="Path_10698" data-name="Path 10698" d="M154.206,141.018H138.667a1.636,1.636,0,0,1-1.464-1.766V114.134a1.637,1.637,0,0,1,1.464-1.766h15.539a1.637,1.637,0,0,1,1.464,1.766v25.118A1.637,1.637,0,0,1,154.206,141.018Zm0,0" transform="translate(-121.861 -101.759)" fill="#d1d3d4"/>
  <path id="Path_10699" data-name="Path 10699" d="M154.206,129.908H138.667a1.463,1.463,0,0,1-1.464-1.463V107.632a1.464,1.464,0,0,1,1.464-1.464h15.539a1.464,1.464,0,0,1,1.464,1.464v20.813A1.463,1.463,0,0,1,154.206,129.908Zm0,0" transform="translate(-121.861 -93.84)" fill="#e6e7e8"/>
  <path id="Path_10700" data-name="Path 10700" d="M137.18,99.965H126.264a1.463,1.463,0,0,0-1.463,1.464v20.813a1.463,1.463,0,0,0,1.463,1.464H141.8a1.463,1.463,0,0,0,1.463-1.464v-16.19Zm0,0" transform="translate(-110.846 -88.357)" fill="#d1d3d4"/>
  <path id="Path_10701" data-name="Path 10701" d="M136.595,93.766h-10.33a1.463,1.463,0,0,0-1.463,1.463v20.813a1.463,1.463,0,0,0,1.463,1.464H141.8a1.463,1.463,0,0,0,1.463-1.464v-15.6Zm0,0" transform="translate(-110.846 -82.877)" fill="#fff"/>
  <g id="Group_13531" data-name="Group 13531" transform="translate(16.322 20.086)">
    <path id="Path_10702" data-name="Path 10702" d="M162.657,186.562H150.011a.585.585,0,0,1,0-1.171h12.646a.585.585,0,1,1,0,1.171Zm0,0" transform="translate(-149.426 -185.391)" fill="#d0d2d3"/>
    <path id="Path_10703" data-name="Path 10703" d="M162.657,224.183H150.011a.585.585,0,0,1,0-1.171h12.646a.585.585,0,1,1,0,1.171Zm0,0" transform="translate(-149.426 -219.46)" fill="#d0d2d3"/>
    <path id="Path_10704" data-name="Path 10704" d="M162.657,261.8H150.011a.586.586,0,0,1,0-1.171h12.646a.586.586,0,0,1,0,1.171Zm0,0" transform="translate(-149.426 -253.526)" fill="#d0d2d3"/>
    <path id="Path_10705" data-name="Path 10705" d="M162.657,299.425H150.011a.585.585,0,0,1,0-1.171h12.646a.585.585,0,1,1,0,1.171Zm0,0" transform="translate(-149.426 -287.599)" fill="#d0d2d3"/>
  </g>
  <path id="Path_10706" data-name="Path 10706" d="M256.4,100.438h-5.209a1.464,1.464,0,0,1-1.464-1.464V93.766Zm0,0" transform="translate(-223.133 -83.782)" fill="#bbbdbf"/>
  <path id="Path_10707" data-name="Path 10707" d="M272.284,209.578a6.044,6.044,0,1,0,4.375,7.343A6.044,6.044,0,0,0,272.284,209.578Zm0,0" transform="translate(-236.04 -186.681)" fill="#c02222"/>
  <path id="Path_10708" data-name="Path 10708" d="M283.961,222.889a4.785,4.785,0,1,0,3.572,5.747A4.785,4.785,0,0,0,283.961,222.889Zm0,0" transform="translate(-248.204 -198.825)" fill="#d04141"/>
  <path id="Icon_ionic-ios-close" data-name="Icon ionic-ios-close" d="M14.044,13.518l1.593-1.593a.373.373,0,1,0-.528-.528L13.516,12.99,11.923,11.4a.373.373,0,1,0-.528.528l1.593,1.593-1.593,1.593a.373.373,0,1,0,.528.528l1.593-1.593,1.593,1.593a.373.373,0,0,0,.528-.528Z" transform="translate(21.198 15.193)" fill="#fff"/>
</svg>
