<svg xmlns="http://www.w3.org/2000/svg" width="38.939" height="35.4" viewBox="0 0 38.939 35.4">
  <path id="Activity_Centre" data-name="Activity Centre" d="M15.3,35.38A16.123,16.123,0,0,1,.021,18.491c.021-.419.058-.842.111-1.256a.57.57,0,0,1,1.131.145c-.05.385-.084.779-.1,1.168A14.964,14.964,0,1,0,30.45,15.024a7.542,7.542,0,0,1-6.526-8.489,14.971,14.971,0,0,0-22.1,8.287.57.57,0,0,1-1.089-.339A16.112,16.112,0,0,1,24.179,5.359,7.546,7.546,0,0,1,34.333.593a.57.57,0,1,1-.444,1.049A6.41,6.41,0,1,0,35.93,3.02a.57.57,0,1,1,.806-.806A7.541,7.541,0,0,1,31.65,15.079,16.115,16.115,0,0,1,16.112,35.4C15.843,35.4,15.572,35.393,15.3,35.38ZM9.883,29.856a.787.787,0,0,1-.258-.982l3.837-8.1H10.345a.854.854,0,0,1-.6-1.457L20.5,8.519a.788.788,0,0,1,1.269.9L17.9,17.5h3.2a.854.854,0,0,1,.6,1.458L20.093,20.57a.57.57,0,1,1-.806-.806l1.126-1.127H17.5a.883.883,0,0,1-.8-1.265l3.154-6.588-8.819,8.844h2.834a.884.884,0,0,1,.8,1.261l-3.143,6.638,5.989-5.99a.57.57,0,0,1,.806.806l-7.425,7.425a.787.787,0,0,1-1.012.086ZM28.921,7.542a2.482,2.482,0,0,1,1.907-2.411V3.913a.57.57,0,1,1,1.14,0V5.131a2.485,2.485,0,0,1,1.841,1.841h2.034a.57.57,0,1,1,0,1.14H33.809a2.477,2.477,0,0,1-4.888-.57Zm1.14,0A1.337,1.337,0,1,0,31.4,6.2,1.338,1.338,0,0,0,30.061,7.542Z" transform="translate(0)"/>
</svg>
