<svg id="_001-task" data-name="001-task" xmlns="http://www.w3.org/2000/svg" width="20" height="24" viewBox="0 0 20 24">
  <path id="Path_13392" data-name="Path 13392" d="M20,1.406H12.176A2.308,2.308,0,0,0,10,0,2.308,2.308,0,0,0,7.824,1.406H0V24H20ZM6.154,2.813H9.231v-.7a.772.772,0,0,1,1.538,0v.7h3.077V4.219H6.154ZM18.462,22.594H1.538V2.813H4.615V5.625H15.385V2.813h3.077Zm0,0" fill="#c02222"/>
  <path id="Path_13393" data-name="Path 13393" d="M64.569,160.785l-3.677,3.332-6.205,5.622-1.675,4.553,5.025-1.518,9.882-8.954Zm-7.385,10.739-1.675.506.558-1.518,5.942-5.384,1.117,1.012Zm6.165-7.2-.223-.2,1.444-1.308,1.116,1.012-1.444,1.308Zm0,0" transform="translate(-50.483 -153.535)" fill="#c02222"/>
</svg>
