<svg id="Layer_5" enable-background="new 0 0 64 64" height="512" viewBox="0 0 64 64" width="512" xmlns="http://www.w3.org/2000/svg"><g><g><g><path d="m2 14v44h26c0 1.1.45 2.1 1.17 2.83.73.72 1.73 1.17 2.83 1.17s2.1-.45 2.83-1.17c.72-.73 1.17-1.73 1.17-2.83h26v-44z" fill="#f0d0b4"/></g><g><path d="m6 10h52v44h-52z" fill="#e6e9ed"/></g><g><path d="m10 42h14v8h-14z" fill="#fcd770"/></g><g><path d="m42 18h12v8h-12z" fill="#ff826e"/></g><g><path d="m58 44-10 10v-10z" fill="#b4dd7f"/></g><g><path d="m33.45 49.11c-.28.54-.84.89-1.45.89s-1.17-.35-1.45-.89l-2.55-5.11h4 4z" fill="#aab2bd"/></g><g><path d="m36 38v6h-4v-18h4z" fill="#ff826e"/></g><g><path d="m32 26v18h-4v-6-12z" fill="#b4dd7f"/></g><g><path d="m36 22c1.1 0 2 .9 2 2 0 .55-.22 1.05-.59 1.41-.36.37-.86.59-1.41.59h-4-4c-1.1 0-2-.9-2-2 0-.55.22-1.05.59-1.41.36-.37.86-.59 1.41-.59h4z" fill="#aab2bd"/></g><g><path d="m32 22h-4v-.82c0-1.38-.63-2.68-1.7-3.54-1.04-.84-1.87-1.88-2.43-3.06-.57-1.17-.87-2.46-.87-3.8 0-.26.01-.52.04-.78.39-4.48 4.15-8 8.74-8h.44c2.42 0 4.62.98 6.21 2.57 1.42 1.42 2.35 3.32 2.53 5.43.03.26.04.52.04.78 0 1.34-.3 2.63-.87 3.8-.56 1.18-1.39 2.22-2.43 3.06-1.07.86-1.7 2.16-1.7 3.54v.82z" fill="#ffeaa7"/></g><g><circle cx="32" cy="11" fill="#fcd770" r="3"/></g></g><g><path d="m59 13v-4h-17.17c-.84-4.544-4.826-8-9.61-8h-.44c-4.784 0-8.77 3.456-9.61 8h-17.17v4h-4v46h26.101c.465 2.279 2.484 4 4.899 4s4.435-1.721 4.899-4h26.101v-46zm-17.012-2h15.012v32h-10v10h-14v-2.223c.568-.237 1.054-.65 1.342-1.225l2.658-5.316v-17.42c1.161-.414 2-1.514 2-2.816s-.839-2.402-2-2.816v-.001c0-1.083.484-2.091 1.33-2.767 2.274-1.82 3.593-4.514 3.658-7.416zm15.012 35.414v6.586h-6.586zm-8 5.172v-6.586h6.586zm-21-26.586c-.552 0-1-.448-1-1s.448-1 1-1h8c.552 0 1 .448 1 1s-.448 1-1 1zm7 2v16h-2v-16zm-6 0h2v16h-2zm5.382 18-1.829 3.657c-.211.424-.895.423-1.105.001l-1.83-3.658zm-2.602-42h.439c4.291 0 7.781 3.49 7.781 7.78 0 2.376-1.064 4.59-2.92 6.074-1.274 1.019-2.017 2.523-2.07 4.146h-2.01v-6.142c1.721-.447 3-1.999 3-3.858 0-2.206-1.794-4-4-4s-4 1.794-4 4c0 1.859 1.279 3.411 3 3.858v6.142h-2.01c-.053-1.623-.796-3.126-2.07-4.146-1.856-1.484-2.92-3.698-2.92-6.074 0-4.29 3.49-7.78 7.78-7.78zm.22 10c-1.103 0-2-.897-2-2s.897-2 2-2 2 .897 2 2-.897 2-2 2zm-25-2h15.012c.064 2.902 1.383 5.596 3.658 7.417.846.676 1.33 1.684 1.33 2.767v.001c-1.161.414-2 1.514-2 2.816s.839 2.402 2 2.816v17.421l2.658 5.317c.288.574.774.987 1.342 1.224v2.221h-24zm54 46h-26v1c0 1.654-1.346 3-3 3s-3-1.346-3-3v-1h-26v-42h2v40h26 1 15 1.414 10.586v-10.586-1.414-28h2z"/><path d="m55 17h-14v10h14zm-2 8h-10v-6h10z"/><path d="m39 29h2v2h-2z"/><path d="m43 29h12v2h-12z"/><path d="m39 33h16v2h-16z"/><path d="m39 37h16v2h-16z"/><path d="m9 51h16v-10h-16zm2-8h12v6h-12z"/><path d="m9 37h16v2h-16z"/><path d="m9 33h16v2h-16z"/><path d="m9 29h16v2h-16z"/><path d="m9 25h2v2h-2z"/><path d="m13 25h10v2h-10z"/><path d="m9 21h14v2h-14z"/><path d="m9 17h14v2h-14z"/><path d="m9 13h11v2h-11z"/><path d="m45 13h2v2h-2z"/><path d="m53 13h2v2h-2z"/><path d="m49 13h2v2h-2z"/></g></g></svg>