<svg xmlns="http://www.w3.org/2000/svg" width="40" height="40" viewBox="0 0 40 40"><defs><style>.a{fill:#e6e9ed;}.b{fill:#b4dd7f;}.c{fill:#ccd1d9;}.d{fill:#fcd770;}.e{fill:#a0d468;}</style></defs><path class="a" d="M13.145,38.3H8V8H42.731V38.3Zm0,0" transform="translate(-7.341 -7.341)"/><path class="b" d="M8,8H42.731v5.269H8ZM8,8" transform="translate(-7.341 -7.341)"/><path class="c" d="M56,104v22.4H86.778V104Zm0,0" transform="translate(-51.389 -95.826)"/><path class="a" d="M86.136,145.03H72V120h33.413v25.03Zm0,0" transform="translate(-66.072 -110.958)"/><path class="d" d="M72,120h33.413v5.269H72Zm0,0" transform="translate(-66.072 -110.353)"/><path class="b" d="M121.126,239.9V232H104v13.174h11.856Zm0,0" transform="translate(-95.74 -213.477)"/><path class="e" d="M232,312v6.587h1.317l5.269-5.269V312Zm0,0" transform="translate(-213.366 -286.94)"/><path class="d" d="M248,328h17.126v13.174H248Zm0,0" transform="translate(-228.419 -301.832)"/><path d="M32,32h1.317v1.317H32Zm0,0" transform="translate(-29.365 -29.365)"/><path d="M64,32h1.317v1.317H64Zm0,0" transform="translate(-58.731 -29.365)"/><path d="M96,32h1.317v1.317H96Zm0,0" transform="translate(-88.263 -29.365)"/><path d="M40,9.032H36.129V0H0V30.968H5.161v3.871H19.355V40H37.419V34.839H40Zm-1.29,5.161H6.452V10.323H38.71ZM34.839,1.29V5.161H1.29V1.29ZM1.29,29.677V6.452H34.839V9.032H5.161V29.677Zm23.226-3.871H19.355v5.161H9.032V19.355H24.516Zm11.613,12.9H20.645V27.1H36.129Zm1.29-5.161V25.806H25.806V18.065H7.742V32.258H19.355v1.29H6.452V15.484H38.71V33.548Zm0,0"/><path d="M96,144h1.317v1.317H96Zm0,0" transform="translate(-88.263 -132.395)"/><path d="M128,144h1.317v1.317H128Zm0,0" transform="translate(-117.685 -132.395)"/><path d="M160,144h1.317v1.317H160Zm0,0" transform="translate(-147.106 -132.395)"/><path d="M128,256h13.174v1.317H128Zm0,0" transform="translate(-117.78 -235.369)"/><path d="M128,288h13.174v1.317H128Zm0,0" transform="translate(-117.78 -264.79)"/><path d="M128,320h7.9v1.317H128Zm0,0" transform="translate(-117.729 -294.212)"/><path d="M128,352h7.9v1.317H128Zm0,0" transform="translate(-117.729 -323.633)"/><path d="M272,352h13.174v1.317H272Zm0,0" transform="translate(-250.443 -323.633)"/><path d="M272,384h13.174v1.317H272Zm0,0" transform="translate(-250.443 -353.054)"/><path d="M272,416h13.174v1.317H272Zm0,0" transform="translate(-250.443 -382.587)"/><path d="M416,448h1.317v1.317H416Zm0,0" transform="translate(-382.587 -411.952)"/><path d="M272,448h10.539v1.317H272Zm0,0" transform="translate(-250.224 -411.952)"/></svg>