<svg xmlns="http://www.w3.org/2000/svg" width="34.285" height="34.285" viewBox="0 0 34.285 34.285">
  <path id="Path_3101" data-name="Path 3101" d="M56.142,32.015a14.958,14.958,0,0,1,.215,29.914l6.91-12.468h4.7l2.552-4.6H58.707l-2.552,4.6h4.409l-6.8,12.279a14.962,14.962,0,0,1-1.933-29.093L45.076,44.863h0l-2.552,4.6H54.349l2.552-4.6H47.792l7.087-12.8c.392-.038.821-.051,1.263-.051Zm0-2.185A17.142,17.142,0,1,1,39,46.972,17.15,17.15,0,0,1,56.142,29.83Z" transform="translate(-39 -29.83)" fill="#fff" fill-rule="evenodd"/>
</svg>
