<svg xmlns="http://www.w3.org/2000/svg" width="115.041" height="115.041" viewBox="0 0 115.041 115.041">
  <g id="Group_14723" data-name="Group 14723" transform="translate(-1106.303 -418)">
    <circle id="Ellipse_1" data-name="Ellipse 1" cx="57.521" cy="57.521" r="57.521" transform="translate(1106.303 418)" fill="#e2e2e2" opacity="0.352"/>
    <g id="Group_14544" data-name="Group 14544">
      <g id="Group_1" data-name="Group 1" transform="translate(636.863 42.846)">
        <line id="Line_9" data-name="Line 9" x2="38.598" transform="translate(505.55 452.2)" fill="none" stroke="#666" stroke-linecap="round" stroke-linejoin="round" stroke-width="1.592"/>
        <line id="Line_10" data-name="Line 10" x2="38.598" transform="translate(505.55 458.46)" fill="none" stroke="#666" stroke-linecap="round" stroke-linejoin="round" stroke-width="1.592"/>
        <line id="Line_11" data-name="Line 11" x2="32.338" transform="translate(505.55 464.72)" fill="none" stroke="#666" stroke-linecap="round" stroke-linejoin="round" stroke-width="1.592"/>
        <g id="Group_143" data-name="Group 143">
          <path id="Path_53" data-name="Path 53" d="M558.462,445.341c6.237,0,5.619,5.642,5.619,5.642a2.506,2.506,0,0,1-.011-.287,5.515,5.515,0,0,1,5.509-5.531c-5.619,0-5.509-5.951-5.509-5.951C564.07,445,558.45,445.341,558.462,445.341Z" fill="none" stroke="#666" stroke-linecap="round" stroke-linejoin="round" stroke-width="1.592"/>
          <circle id="Ellipse_17" data-name="Ellipse 17" cx="3.036" cy="3.036" r="3.036" transform="translate(573.223 429.321)" fill="none" stroke="#666" stroke-width="1"/>
        </g>
        <g id="Group_143-2" data-name="Group 143">
          <path id="Path_53-2" data-name="Path 53" d="M474.627,416.649c6.238,0,5.62,5.642,5.62,5.642a2.5,2.5,0,0,1-.011-.287,5.515,5.515,0,0,1,5.509-5.531c-5.619,0-5.509-5.951-5.509-5.951C480.236,416.307,474.616,416.649,474.627,416.649Z" fill="none" stroke="#666" stroke-linecap="round" stroke-linejoin="round" stroke-width="1.592"/>
          <circle id="Ellipse_17-2" data-name="Ellipse 17" cx="3.036" cy="3.036" r="3.036" transform="translate(489.389 400.63)" fill="none" stroke="#666" stroke-width="1"/>
        </g>
        <circle id="Ellipse_604" data-name="Ellipse 604" cx="12.5" cy="12.5" r="12.5" transform="translate(521.137 421.154)" fill="#ffc400"/>
      </g>
      <g id="notifications_active_black_24dp" transform="translate(1149.573 454.177)">
        <path id="Path_13760" data-name="Path 13760" d="M0,0H27.646V27.646H0Z" fill="none"/>
        <path id="Path_13761" data-name="Path 13761" d="M13.823,25.646a2.377,2.377,0,0,0,2.366-2.374H11.457A2.377,2.377,0,0,0,13.823,25.646Zm7.1-7.122V12.589c0-3.644-1.928-6.695-5.323-7.5V4.28a1.774,1.774,0,1,0-3.549,0v.807c-3.383.807-5.323,3.846-5.323,7.5v5.935L4.36,20.9v1.187H23.286V20.9Zm-2.366,1.187H9.092V12.589c0-2.944,1.786-5.341,4.731-5.341s4.731,2.4,4.731,5.341ZM8.595,4.375,6.9,2.678A12.387,12.387,0,0,0,2.03,12H4.4A10.033,10.033,0,0,1,8.595,4.375ZM23.251,12h2.366a12.463,12.463,0,0,0-4.873-9.318l-1.68,1.7A10.092,10.092,0,0,1,23.251,12Z" fill="#666"/>
      </g>
    </g>
  </g>
</svg>
