<svg xmlns="http://www.w3.org/2000/svg" width="60" height="60" viewBox="0 0 60 60">
  <g id="menu_book-24px" transform="translate(-0.5 -0.5)">
    <g id="Group_13522" data-name="Group 13522" transform="translate(0.5 0.5)">
      <rect id="Rectangle_3097" data-name="Rectangle 3097" width="60" height="60" fill="none"/>
    </g>
    <g id="Group_13525" data-name="Group 13525" transform="translate(2.458 12.063)">
      <g id="Group_13524" data-name="Group 13524">
        <path id="Path_10689" data-name="Path 10689" d="M51.076,5.729A30.064,30.064,0,0,0,42.313,4.5c-4.882,0-10.14.983-13.771,3.688C24.911,5.483,19.653,4.5,14.771,4.5S4.63,5.483,1,8.188V44.2a1.334,1.334,0,0,0,1.252,1.229c.25,0,.376-.123.626-.123a31.03,31.03,0,0,1,11.893-2.7c4.882,0,10.14.983,13.771,3.688A30.587,30.587,0,0,1,42.313,42.6a25.877,25.877,0,0,1,11.893,2.581,1.146,1.146,0,0,0,.626.123,1.334,1.334,0,0,0,1.252-1.229V8.188A17.2,17.2,0,0,0,51.076,5.729Zm0,33.187a29.6,29.6,0,0,0-8.763-1.229,30.587,30.587,0,0,0-13.771,3.688V13.1A30.587,30.587,0,0,1,42.313,9.417a29.6,29.6,0,0,1,8.763,1.229Z" transform="translate(-1 -4.5)" fill="#898989"/>
        <g id="Group_13523" data-name="Group 13523" transform="translate(30.5 11.063)">
          <path id="Path_10690" data-name="Path 10690" d="M24.062,12.688a28.748,28.748,0,0,1,6.146.639V9.59A33.2,33.2,0,0,0,24.062,9,28.288,28.288,0,0,0,13,11.04v4.081A22.822,22.822,0,0,1,24.062,12.688Z" transform="translate(-13 -9)" fill="#898989"/>
          <path id="Path_10691" data-name="Path 10691" d="M13,13.7v4.081a22.822,22.822,0,0,1,11.063-2.434,28.748,28.748,0,0,1,6.146.639V12.25a33.2,33.2,0,0,0-6.146-.59A28.741,28.741,0,0,0,13,13.7Z" transform="translate(-13 -5.121)" fill="#898989"/>
          <path id="Path_10692" data-name="Path 10692" d="M24.062,14.33A28.288,28.288,0,0,0,13,16.37v4.081a22.822,22.822,0,0,1,11.063-2.434,28.748,28.748,0,0,1,6.146.639V14.92A31.214,31.214,0,0,0,24.062,14.33Z" transform="translate(-13 -1.227)" fill="#898989"/>
        </g>
      </g>
    </g>
  </g>
</svg>
