<svg xmlns="http://www.w3.org/2000/svg" width="20.017" height="22" viewBox="0 0 20.017 22">
  <g id="head-cog-outline" transform="translate(-1.983 -1)">
    <path id="Path_1" data-name="Path 1" d="M13,3a6.991,6.991,0,0,1,3,13.31V21H9V18H8a1.993,1.993,0,0,1-2-2V13H4.5a.517.517,0,0,1-.42-.81L6,9.66A7,7,0,0,1,13,3m0-2A9.012,9.012,0,0,0,4.06,8.91L2.5,11a2.425,2.425,0,0,0-.26,2.59A2.5,2.5,0,0,0,4,14.95V16a4,4,0,0,0,3,3.87V23H18V17.47A8.866,8.866,0,0,0,22,10a9.014,9.014,0,0,0-9-9m3.1,8.42V9a.822.822,0,0,0-.06-.38l.89-.66c.07-.04.07-.18.07-.28l-.82-1.36a.222.222,0,0,0-.28-.09l-.99.42a1.735,1.735,0,0,0-.65-.42L14.1,5.2c-.03-.14-.1-.2-.22-.2H12.29a.181.181,0,0,0-.19.2l-.14,1.03a2.048,2.048,0,0,0-.66.42l-1.03-.42c-.09-.05-.17,0-.23.09l-.8,1.36c-.05.14-.05.24.05.28l.84.66c0,.14-.03.28-.03.38,0,.14.03.28.03.42l-.84.65c-.1.05-.1.14-.05.24l.8,1.4c.06.1.14.1.23.1l.99-.43a2,2,0,0,0,.7.38l.14,1.08a.179.179,0,0,0,.19.16h1.59a.219.219,0,0,0,.22-.16l.16-1.08a1.748,1.748,0,0,0,.65-.37l.99.42c.1,0,.23,0,.28-.1l.82-1.4c0-.1,0-.19-.07-.24l-.83-.65m-3,1.03A1.445,1.445,0,0,1,11.68,9,1.392,1.392,0,0,1,13.1,7.59,1.421,1.421,0,0,1,14.54,9,1.455,1.455,0,0,1,13.1,10.45Z" fill="#c02222"/>
  </g>
</svg>
