<svg xmlns="http://www.w3.org/2000/svg" width="23.999" height="24" viewBox="0 0 23.999 24">
  <g id="_003-system" data-name="003-system" transform="translate(-0.012 0)">
    <g id="Group_13591" data-name="Group 13591" transform="translate(0.012 0)">
      <g id="Group_13590" data-name="Group 13590" transform="translate(0 0)">
        <path id="Path_13407" data-name="Path 13407" d="M262.68,265.562a2.87,2.87,0,1,0-2.031-.84,2.863,2.863,0,0,0,2.031.84Zm-1.51-4.38a2.135,2.135,0,1,1,0,3.019A2.128,2.128,0,0,1,261.171,261.182Z" transform="translate(-247.811 -247.821)" fill="#c02222"/>
        <path id="Path_13408" data-name="Path 13408" d="M223.3,223.43a4.709,4.709,0,0,0-1.009,5.192.368.368,0,1,0,.678-.288,3.992,3.992,0,1,1,3.7,2.43h-.024a3.966,3.966,0,0,1-2.785-1.133.368.368,0,1,0-.514.527,4.7,4.7,0,0,0,3.3,1.342h.028a4.727,4.727,0,1,0-3.371-8.07Z" transform="translate(-211.814 -211.945)" fill="#c02222"/>
        <path id="Path_13409" data-name="Path 13409" d="M23.338,13.334h-1.25a7.274,7.274,0,0,0-.982-2.374l.883-.883a.673.673,0,0,0,0-.952l-1.28-1.28a.673.673,0,0,0-.952,0l-.883.883A7.273,7.273,0,0,0,16.5,7.747V6.5a.674.674,0,0,0-.673-.673h-1.81a.672.672,0,0,0-.52.246h-.23a5.943,5.943,0,0,0-.762-1.841l.676-.676a.612.612,0,0,0,0-.864L12.148,1.654a.611.611,0,0,0-.864,0l-.676.676a5.943,5.943,0,0,0-1.841-.762V.611A.612.612,0,0,0,8.155,0H6.693a.612.612,0,0,0-.611.611v.957A5.945,5.945,0,0,0,4.24,2.33l-.676-.676a.611.611,0,0,0-.865,0L1.666,2.688a.612.612,0,0,0,0,.864l.676.676A5.943,5.943,0,0,0,1.58,6.07H.623a.612.612,0,0,0-.611.611V8.144a.612.612,0,0,0,.611.611H1.58A5.942,5.942,0,0,0,2.342,10.6l-.676.676a.612.612,0,0,0,0,.864L2.7,13.171a.612.612,0,0,0,.865,0l.676-.676a5.942,5.942,0,0,0,1.841.762v.23a.672.672,0,0,0-.247.52v1.81a.674.674,0,0,0,.673.673h1.25a7.275,7.275,0,0,0,.982,2.374l-.883.883a.673.673,0,0,0,0,.952l1.28,1.279a.673.673,0,0,0,.952,0l.883-.883a7.273,7.273,0,0,0,2.374.982v1.25a.674.674,0,0,0,.673.673h1.81a.674.674,0,0,0,.673-.673v-1.25a7.273,7.273,0,0,0,2.374-.982l.883.883a.673.673,0,0,0,.952,0l1.279-1.28a.673.673,0,0,0,0-.952l-.883-.883a7.275,7.275,0,0,0,.982-2.374h1.25a.674.674,0,0,0,.673-.673v-1.81A.674.674,0,0,0,23.338,13.334ZM6.3,12.586a5.246,5.246,0,0,1-1.741-.721.615.615,0,0,0-.764.081l-.663.663-.9-.9.663-.663a.615.615,0,0,0,.081-.764,5.245,5.245,0,0,1-.721-1.741.615.615,0,0,0-.6-.483H.715V6.773h.939a.615.615,0,0,0,.6-.484,5.245,5.245,0,0,1,.721-1.741.615.615,0,0,0-.081-.764L2.228,3.12l.9-.9.663.663a.615.615,0,0,0,.764.081A5.245,5.245,0,0,1,6.3,2.239a.615.615,0,0,0,.484-.6V.7H8.064v.939a.615.615,0,0,0,.484.6,5.246,5.246,0,0,1,1.741.72.615.615,0,0,0,.764-.081l.663-.663.9.9-.663.663a.615.615,0,0,0-.081.764A5.245,5.245,0,0,1,12.6,6.289a.615.615,0,0,0,.6.484h.15v.975a7.273,7.273,0,0,0-2.374.982l-.883-.883-.033-.03a2.662,2.662,0,0,0-3.565-2.9.351.351,0,0,0,.246.658A1.959,1.959,0,0,1,9.362,7.7a.672.672,0,0,0-.226.149l-1.28,1.28a.671.671,0,0,0-.149.226,1.967,1.967,0,0,1-.283.021,1.961,1.961,0,0,1-1.711-2.92A.351.351,0,1,0,5.1,6.109a2.662,2.662,0,0,0,2.726,3.934c.01.011.02.023.031.034l.883.883a7.274,7.274,0,0,0-.982,2.374H6.784v-.151a.615.615,0,0,0-.484-.6Zm17.007,3.2H22.063a.678.678,0,0,0-.658.533,6.574,6.574,0,0,1-.9,2.182.677.677,0,0,0,.089.841l.88.88L20.233,21.46l-.88-.88a.677.677,0,0,0-.841-.089,6.574,6.574,0,0,1-2.182.9.678.678,0,0,0-.533.658V23.3h-1.75V22.052a.678.678,0,0,0-.533-.658,6.574,6.574,0,0,1-2.182-.9.677.677,0,0,0-.841.089l-.88.88L8.375,20.222l.88-.88a.677.677,0,0,0,.089-.841,6.574,6.574,0,0,1-.9-2.182.678.678,0,0,0-.658-.533H6.538v-1.75H7.782A.678.678,0,0,0,8.44,13.5a6.574,6.574,0,0,1,.9-2.182.677.677,0,0,0-.089-.841l-.88-.88L9.612,8.364l.88.88a.677.677,0,0,0,.841.089,6.574,6.574,0,0,1,2.182-.9.678.678,0,0,0,.533-.658V6.527H15.8V7.771a.678.678,0,0,0,.533.658,6.574,6.574,0,0,1,2.182.9.677.677,0,0,0,.841-.089l.88-.88L21.471,9.6l-.88.88a.677.677,0,0,0-.089.841,6.574,6.574,0,0,1,.9,2.182.678.678,0,0,0,.658.533h1.245v1.75Z" transform="translate(-0.012 0)" fill="#c02222"/>
      </g>
    </g>
  </g>
</svg>
