<svg id="Path_13392" data-name="Path 13392" xmlns="http://www.w3.org/2000/svg" width="17" height="20" viewBox="0 0 17 20">
  <path id="Path_13392-2" data-name="Path 13392" d="M17,1.172H10.35A1.964,1.964,0,0,0,8.5,0,1.964,1.964,0,0,0,6.65,1.172H0V20H17ZM5.231,2.344H7.846V1.761a.657.657,0,0,1,1.307,0v.583h2.615V3.516H5.231ZM15.693,18.828H1.307V2.344H3.923V4.687h9.154V2.344h2.615Zm0,0" transform="translate(0 0.001)" fill="#5c6873"/>
  <path id="Path_13393" data-name="Path 13393" d="M62.835,160.785l-3.125,2.832L54.436,168.4l-1.424,3.87,4.271-1.29,8.4-7.611Zm-6.277,9.128-1.424.43.474-1.29,5.051-4.576.949.86Zm5.24-6.12-.19-.17,1.227-1.112.949.86-1.227,1.112Zm0,0" transform="translate(-50.862 -155.022)" fill="#5c6873"/>
</svg>
