<svg xmlns="http://www.w3.org/2000/svg" width="21.973" height="20" viewBox="0 0 21.973 20">
  <path id="Course_Progression_Icon" data-name="Course Progression Icon" d="M16138.964-245a.984.984,0,0,1-.98-.98V-255.4a.989.989,0,0,1,.98-.98h4.056a.984.984,0,0,1,.98.98v9.416a.979.979,0,0,1-.98.98Zm-7.549,0a.985.985,0,0,1-.98-.98v-6.8a.985.985,0,0,1,.98-.98h4.056a.981.981,0,0,1,.98.98v6.8a.981.981,0,0,1-.98.98Zm-7.584,0a.979.979,0,0,1-.98-.98v-4.445a.979.979,0,0,1,.98-.98h4.056a.984.984,0,0,1,.98.98l0,4.445a.979.979,0,0,1-.98.98Zm-1-10.283a.852.852,0,0,1-.806-.9.847.847,0,0,1,.895-.8,29.968,29.968,0,0,0,13.428-3.46,29.786,29.786,0,0,0,2.929-1.673c.077-.053.175-.17.094-.259l-.973-.92c-.264-.255-.187-.531.179-.616l4.554-1.074c.368-.081.588.134.507.486l-1.038,4.461c-.085.348-.368.429-.632.174l-1.062-1.029a.3.3,0,0,0-.4.024,29.839,29.839,0,0,1-3.342,1.937,32.165,32.165,0,0,1-13.909,3.655C16123.013-255.276,16122.871-255.284,16122.834-255.284Z" transform="translate(-16122.027 265.001)" fill="#c02222"/>
</svg>
