<svg xmlns="http://www.w3.org/2000/svg" width="24" height="24" viewBox="0 0 24 24">
  <g id="_002-project-management" data-name="002-project-management" transform="translate(0 -0.067)">
    <g id="Group_13571" data-name="Group 13571" transform="translate(0 0.166)">
      <g id="Group_13570" data-name="Group 13570" transform="translate(0)">
        <path id="Path_13404" data-name="Path 13404" d="M23.658,8.258h0l-1.549-.221a.4.4,0,0,1-.183-.713l1.252-.939a.4.4,0,0,0,.08-.558L21.824,3.914a.4.4,0,0,0-.558-.08l-1.252.939A.4.4,0,0,1,19.38,4.4L19.6,2.85a.4.4,0,0,0-.338-.451h0L16.9,2.061a.4.4,0,0,0-.451.338h0l-.221,1.55a.4.4,0,0,1-.713.183l-.939-1.252a.4.4,0,0,0-.558-.08l-1.2.9a7.7,7.7,0,0,0-1.629,0,7.568,7.568,0,0,0-6.672,6.787c-.011.113-.015.225-.02.337H4.381a.4.4,0,0,0-.389.319l-.275,1.309-1.1-.76a.4.4,0,0,0-.508.046l-1.195,1.2a.4.4,0,0,0-.046.507l.757,1.1-1.309.275A.4.4,0,0,0,0,15.2V16.8a.4.4,0,0,0,.316.39l1.309.275-.757,1.1a.4.4,0,0,0,.046.507l1.195,1.2a.4.4,0,0,0,.508.046l1.1-.759.275,1.309a.4.4,0,0,0,.389.319H5.975a.4.4,0,0,0,.39-.316l.275-1.309,1.1.757a.4.4,0,0,0,.507-.046l.618-.621v1.135a1.588,1.588,0,0,0,.8,1.372v2.213a1.593,1.593,0,0,0,1.593,1.593h1.593a1.593,1.593,0,0,0,1.593-1.593V22.151a1.588,1.588,0,0,0,.8-1.372V19.2a1.952,1.952,0,0,1,.921-1.626,7.643,7.643,0,0,0,.937-.717l-.531-.594a6.78,6.78,0,0,1-.839.642A2.744,2.744,0,0,0,14.441,19.2v1.577a.8.8,0,0,1-.8.8H10.459a.8.8,0,0,1-.8-.8v-1.61A2.68,2.68,0,0,0,8.4,16.921,6.752,6.752,0,0,1,11.966,4.453a.433.433,0,0,0-.016.043.4.4,0,0,0,.076.3l.939,1.252a.39.39,0,0,1,.024.442.4.4,0,0,1-.4.192l-1.549-.221a.4.4,0,0,0-.451.338h0L10.253,9.16a.4.4,0,0,0,.338.451h0l1.549.221a.4.4,0,0,1,.183.713l-1.252.939a.4.4,0,0,0-.08.558l1.434,1.912a.4.4,0,0,0,.558.08l1.252-.939a.4.4,0,0,1,.633.375l-.221,1.55a.4.4,0,0,0,.338.451h0l2.365.338a.441.441,0,0,0,.056,0,.4.4,0,0,0,.395-.342l.221-1.55a.4.4,0,0,1,.713-.183l.939,1.252a.4.4,0,0,0,.558.08l1.912-1.434a.4.4,0,0,0,.08-.558l-.939-1.252a.392.392,0,0,1-.024-.442.387.387,0,0,1,.4-.191l1.549.221a.4.4,0,0,0,.451-.338h0L24,8.709A.4.4,0,0,0,23.658,8.258Zm-13.2,14.114h3.186v.8H10.459Zm0,1.593h3.186v.4a.8.8,0,0,1-.8.8H11.256a.8.8,0,0,1-.8-.8ZM7.289,17.1a7.527,7.527,0,0,0,.681.5,1.944,1.944,0,0,1,.8,1.019l-.854.853-.827-.57a.8.8,0,0,0-1.231.492l-.209.995H4.7L4.5,19.388A.8.8,0,0,0,3.264,18.9l-.828.569-.726-.724.57-.827a.8.8,0,0,0-.491-1.232L.8,16.472v-.946l.993-.209a.8.8,0,0,0,.492-1.23l-.57-.829.726-.724.828.57A.8.8,0,0,0,4.5,12.611l.07-.331a7.588,7.588,0,0,0,.316,1.351A2.39,2.39,0,1,0,7.289,17.1Zm-.618-.561a1.591,1.591,0,1,1-1.493-2.13h.015A7.544,7.544,0,0,0,6.67,16.535Zm16.253-5.968L21.769,10.4a1.2,1.2,0,0,0-1.125,1.9l.7.933-1.274.956-.7-.933a1.195,1.195,0,0,0-2.139.548l-.161,1.157-1.577-.225.165-1.155a1.195,1.195,0,0,0-1.9-1.125l-.933.7-.956-1.275.933-.7a1.2,1.2,0,0,0-.548-2.139L11.1,8.878,11.325,7.3l1.155.165a1.2,1.2,0,0,0,1.125-1.9l-.7-.934,1.274-.956.7.933a1.195,1.195,0,0,0,2.139-.548l.165-1.155,1.577.225-.165,1.155a1.195,1.195,0,0,0,1.9,1.125l.933-.7.956,1.275-.933.7A1.2,1.2,0,0,0,22,8.826l1.155.165Z" transform="translate(0 -2.057)" fill="#c02222"/>
      </g>
    </g>
    <g id="Group_13573" data-name="Group 13573" transform="translate(13.938 3.856)">
      <g id="Group_13572" data-name="Group 13572">
        <path id="Path_13405" data-name="Path 13405" d="M283.186,76.171a3.186,3.186,0,1,0,3.186,3.186A3.186,3.186,0,0,0,283.186,76.171Zm0,5.576a2.39,2.39,0,1,1,2.39-2.39A2.39,2.39,0,0,1,283.186,81.747Z" transform="translate(-280 -76.171)" fill="#c02222"/>
      </g>
    </g>
    <g id="Group_13575" data-name="Group 13575" transform="translate(11.654 17.693)">
      <g id="Group_13574" data-name="Group 13574">
        <rect id="Rectangle_1" data-name="Rectangle 1" width="0.797" height="1.195" fill="#c02222"/>
      </g>
    </g>
    <g id="Group_13577" data-name="Group 13577" transform="translate(6.473 4.61)">
      <g id="Group_13576" data-name="Group 13576">
        <path id="Path_13406" data-name="Path 13406" d="M133.882,100.461a4.779,4.779,0,0,1-.807-8.5l-.426-.674a5.576,5.576,0,0,0,.944,9.912,2.543,2.543,0,0,1,1.633,2.374h.8A3.332,3.332,0,0,0,133.882,100.461Z" transform="translate(-130.044 -91.291)" fill="#c02222"/>
      </g>
    </g>
    <g id="Group_13579" data-name="Group 13579" transform="translate(19.618 14.905)">
      <g id="Group_13578" data-name="Group 13578">
        <rect id="Rectangle_2" data-name="Rectangle 2" width="2.788" height="0.797" fill="#c02222"/>
      </g>
    </g>
    <g id="Group_13581" data-name="Group 13581" transform="translate(18.965 16.989)">
      <g id="Group_13580" data-name="Group 13580" transform="translate(0 0)">
        <rect id="Rectangle_3" data-name="Rectangle 3" width="0.797" height="3.111" transform="matrix(0.64, -0.768, 0.768, 0.64, 0, 0.612)" fill="#c02222"/>
      </g>
    </g>
    <g id="Group_13583" data-name="Group 13583" transform="translate(17.229 18.092)">
      <g id="Group_13582" data-name="Group 13582">
        <rect id="Rectangle_4" data-name="Rectangle 4" width="0.797" height="2.788" fill="#c02222"/>
      </g>
    </g>
    <g id="Group_13585" data-name="Group 13585" transform="translate(0.407 6.153)">
      <g id="Group_13584" data-name="Group 13584" transform="translate(0 0)">
        <rect id="Rectangle_5" data-name="Rectangle 5" width="3.284" height="0.796" transform="translate(0 0.796) rotate(-14.035)" fill="#c02222"/>
      </g>
    </g>
    <g id="Group_13587" data-name="Group 13587" transform="translate(1.068 2.232)">
      <g id="Group_13586" data-name="Group 13586" transform="translate(0 0)">
        <rect id="Rectangle_6" data-name="Rectangle 6" width="0.796" height="3.426" transform="matrix(0.581, -0.814, 0.814, 0.581, 0, 0.648)" fill="#c02222"/>
      </g>
    </g>
    <g id="Group_13589" data-name="Group 13589" transform="translate(4.48 0.067)">
      <g id="Group_13588" data-name="Group 13588" transform="translate(0 0)">
        <rect id="Rectangle_7" data-name="Rectangle 7" width="0.797" height="3.289" transform="matrix(0.969, -0.248, 0.248, 0.969, 0, 0.197)" fill="#c02222"/>
      </g>
    </g>
  </g>
</svg>
