<svg xmlns="http://www.w3.org/2000/svg" width="22" height="22" viewBox="0 0 22 22">
  <g id="Group_13609" data-name="Group 13609" transform="translate(-992 -353)">
    <g id="Group_13555" data-name="Group 13555" transform="translate(-1957.998 -18017.801)">
      <g id="Union_61" data-name="Union 61" transform="translate(2954.492 18375.422)" fill="none">
        <path d="M5.606,12.766a.5.5,0,0,1-.5-.5v-1a5.072,5.072,0,0,1-1.3-.5l-.68.68a.5.5,0,0,1-.707,0l-1.1-1.1a.5.5,0,0,1,0-.707l.626-.626a5.08,5.08,0,0,1-.6-1.354H.5a.5.5,0,0,1-.5-.5V5.605a.5.5,0,0,1,.5-.5h.8a5.077,5.077,0,0,1,.578-1.425L1.32,3.124a.5.5,0,0,1,0-.707l1.1-1.1a.5.5,0,0,1,.707,0l.561.561a5.073,5.073,0,0,1,1.419-.566V.5a.5.5,0,0,1,.5-.5H7.16a.5.5,0,0,1,.5.5v.874a5.08,5.08,0,0,1,1.33.594l.65-.65a.5.5,0,0,1,.707,0l1.1,1.1a.5.5,0,0,1,0,.707l-.7.7A5.072,5.072,0,0,1,11.234,5.1h1.032a.5.5,0,0,1,.5.5V7.159a.5.5,0,0,1-.5.5h-1.08a5.078,5.078,0,0,1-.512,1.209l.771.771a.5.5,0,0,1,0,.707l-1.1,1.1a.5.5,0,0,1-.707,0l-.765-.765A5.079,5.079,0,0,1,7.66,11.2v1.064a.5.5,0,0,1-.5.5Z" stroke="none"/>
        <path d="M 6.358949661254883 10.16757869720459 L 7.292030334472656 9.9033203125 C 7.604199886322021 9.814909934997559 7.904390335083008 9.68556022644043 8.184249877929688 9.51885986328125 L 9.018608093261719 9.021891593933105 L 9.509579658508301 8.184320449829102 C 9.672989845275879 7.90556001663208 9.799540519714355 7.606930255889893 9.885709762573242 7.296740055084229 L 10.14535045623779 6.362164974212646 L 9.920960426330566 5.416470050811768 C 9.843339920043945 5.08935022354126 9.721610069274902 4.773980140686035 9.559149742126465 4.479100227355957 L 9.090664863586426 3.628783702850342 L 8.268930435180664 3.109480142593384 C 7.96513032913208 2.917500019073486 7.636489868164062 2.7707200050354 7.292140007019043 2.673220157623291 L 6.358982563018799 2.409026145935059 L 5.41195011138916 2.628920078277588 C 5.045830249786377 2.713940143585205 4.695280075073242 2.853749990463257 4.370039939880371 3.044470071792603 L 3.532527446746826 3.535608053207397 L 3.035800218582153 4.369980335235596 C 2.841670036315918 4.696070194244385 2.698920011520386 5.04817008972168 2.611510038375854 5.416500091552734 L 2.387115955352783 6.362146854400635 L 2.646770000457764 7.296730041503906 C 2.744199991226196 7.647449970245361 2.892580032348633 7.981940269470215 3.087769985198975 8.290909767150879 L 3.607107162475586 9.112937927246094 L 4.457109928131104 9.58141040802002 C 4.757620334625244 9.747050285339355 5.078909873962402 9.870260238647461 5.412040233612061 9.947640419006348 L 6.358949661254883 10.16757869720459 M 7.159500122070312 12.76560020446777 L 5.606100082397461 12.76560020446777 C 5.330699920654297 12.76560020446777 5.106600284576416 12.54150009155273 5.106600284576416 12.26609992980957 L 5.106600284576416 11.26263046264648 C 4.645890235900879 11.15562057495117 4.208970069885254 10.98612022399902 3.805469989776611 10.7637300491333 L 3.125699996948242 11.44350051879883 C 3.028050184249878 11.54115009307861 2.900025129318237 11.58997535705566 2.772000074386597 11.58997535705566 C 2.643975019454956 11.58997535705566 2.515950202941895 11.54115009307861 2.418300151824951 11.44350051879883 L 1.320300102233887 10.34549999237061 C 1.12500011920929 10.15019989013672 1.12500011920929 9.833399772644043 1.320300102233887 9.638099670410156 L 1.946460127830505 9.011950492858887 C 1.684410095214844 8.597160339355469 1.480500102043152 8.142120361328125 1.346030116081238 7.658100128173828 L 0.5004001259803772 7.658100128173828 C 0.2241000980138779 7.658100128173828 1.022338835809933e-07 7.434000015258789 1.022338835809933e-07 7.158600330352783 L 1.022338835809933e-07 5.605200290679932 C 1.022338835809933e-07 5.328900337219238 0.2241000980138779 5.104800224304199 0.5004001259803772 5.104800224304199 L 1.297990083694458 5.104800224304199 C 1.418720126152039 4.596030235290527 1.615570068359375 4.116519927978516 1.875800132751465 3.679400205612183 L 1.320300102233887 3.123900175094604 C 1.12500011920929 2.928600072860718 1.12500011920929 2.611800193786621 1.320300102233887 2.416500091552734 L 2.418300151824951 1.318500161170959 C 2.515950202941895 1.220850110054016 2.643975019454956 1.172025084495544 2.772000074386597 1.172025084495544 C 2.900025129318237 1.172025084495544 3.028050184249878 1.220850110054016 3.125699996948242 1.318500161170959 L 3.687139987945557 1.879940152168274 C 4.123159885406494 1.624250054359436 4.600399971008301 1.431450128555298 5.106600284576416 1.313910126686096 L 5.106600284576416 0.5004001259803772 C 5.106600284576416 0.2241000980138779 5.330699920654297 1.022338835809933e-07 5.606100082397461 1.022338835809933e-07 L 7.159500122070312 1.022338835809933e-07 C 7.435800075531006 1.022338835809933e-07 7.659900188446045 0.2241000980138779 7.659900188446045 0.5004001259803772 L 7.659900188446045 1.374280095100403 C 8.135129928588867 1.508830070495605 8.582159996032715 1.710450053215027 8.990130424499512 1.968270063400269 L 9.639900207519531 1.318500161170959 C 9.737549781799316 1.220850110054016 9.865574836730957 1.172025084495544 9.993599891662598 1.172025084495544 C 10.12162494659424 1.172025084495544 10.24965000152588 1.220850110054016 10.34730052947998 1.318500161170959 L 11.44530010223389 2.416500091552734 C 11.64060020446777 2.611800193786621 11.64060020446777 2.928600072860718 11.44530010223389 3.123900175094604 L 10.7415599822998 3.827640056610107 C 10.9600305557251 4.224170207977295 11.1272497177124 4.652840137481689 11.23449039459229 5.104800224304199 L 12.26609992980957 5.104800224304199 C 12.54240036010742 5.104800224304199 12.76560020446777 5.328900337219238 12.76560020446777 5.605200290679932 L 12.76560020446777 7.158600330352783 C 12.76560020446777 7.434000015258789 12.54240036010742 7.658100128173828 12.26609992980957 7.658100128173828 L 11.18645000457764 7.658100128173828 C 11.06749057769775 8.086299896240234 10.89408016204834 8.49198055267334 10.67423057556152 8.867030143737793 L 11.44530010223389 9.638099670410156 C 11.64060020446777 9.833399772644043 11.64060020446777 10.15019989013672 11.44530010223389 10.34549999237061 L 10.34730052947998 11.44350051879883 C 10.24965000152588 11.54115009307861 10.12162494659424 11.58997535705566 9.993599891662598 11.58997535705566 C 9.865574836730957 11.58997535705566 9.737549781799316 11.54115009307861 9.639900207519531 11.44350051879883 L 8.875100135803223 10.67870044708252 C 8.498680114746094 10.90291023254395 8.090780258178711 11.0802001953125 7.659900188446045 11.20223045349121 L 7.659900188446045 12.26609992980957 C 7.659900188446045 12.54150009155273 7.435800075531006 12.76560020446777 7.159500122070312 12.76560020446777 Z" stroke="none" fill="#c02222"/>
      </g>
      <g id="Ellipse_59" data-name="Ellipse 59" transform="translate(2957.346 18378.275)" fill="none" stroke="#c02222" stroke-width="1.35">
        <circle cx="3.37" cy="3.37" r="3.37" stroke="none"/>
        <circle cx="3.37" cy="3.37" r="2.695" fill="none"/>
      </g>
      <g id="Ellipse_60" data-name="Ellipse 60" transform="translate(2959.912 18371.25)" fill="none" stroke="#c02222" stroke-width="1.35">
        <circle cx="1.059" cy="1.059" r="1.059" stroke="none"/>
        <circle cx="1.059" cy="1.059" r="0.384" fill="none"/>
      </g>
      <g id="Ellipse_61" data-name="Ellipse 61" transform="translate(2959.912 18390.111)" fill="none" stroke="#c02222" stroke-width="1.35">
        <circle cx="1.059" cy="1.059" r="1.059" stroke="none"/>
        <circle cx="1.059" cy="1.059" r="0.384" fill="none"/>
      </g>
      <g id="Ellipse_62" data-name="Ellipse 62" transform="translate(2950.384 18380.715)" fill="none" stroke="#c02222" stroke-width="1.35">
        <circle cx="1.059" cy="1.059" r="1.059" stroke="none"/>
        <circle cx="1.059" cy="1.059" r="0.384" fill="none"/>
      </g>
      <g id="Ellipse_63" data-name="Ellipse 63" transform="translate(2969.44 18380.715)" fill="none" stroke="#c02222" stroke-width="1.35">
        <circle cx="1.059" cy="1.059" r="1.059" stroke="none"/>
        <circle cx="1.059" cy="1.059" r="0.384" fill="none"/>
      </g>
      <g id="Group_6135" data-name="Group 6135" transform="translate(2951.711 18370.801)">
        <path id="Path_13325" data-name="Path 13325" d="M2952.667,18381.51a8.979,8.979,0,0,1,5.2-6.594" transform="translate(-2952.667 -18372.275)" fill="none" stroke="#c02222" stroke-width="1.35"/>
        <g id="Polygon_268" data-name="Polygon 268" transform="matrix(0.259, 0.966, -0.966, 0.259, 7.378, 0)" fill="none">
          <path d="M1.5.715a.5.5,0,0,1,.857,0L3.4,2.452a.5.5,0,0,1-.429.757H.883a.5.5,0,0,1-.429-.757Z" stroke="none"/>
          <path d="M 1.925565004348755 0.4718291759490967 C 2.091387510299683 0.4718291759490967 2.25721001625061 0.5527467727661133 2.354315042495728 0.7145817279815674 L 3.396785020828247 2.45203161239624 C 3.596735000610352 2.78529167175293 3.356684923171997 3.209271669387817 2.968034982681274 3.209271669387817 L 0.8830950260162354 3.209271669387817 C 0.4944450855255127 3.209271669387817 0.2543950080871582 2.78529167175293 0.4543449878692627 2.45203161239624 L 1.496814966201782 0.7145817279815674 C 1.593919992446899 0.5527467727661133 1.759742498397827 0.4718291759490967 1.925565004348755 0.4718291759490967 Z" stroke="none" fill="#c02222"/>
        </g>
      </g>
      <g id="Group_6136" data-name="Group 6136" transform="translate(2951.711 18370.801)">
        <path id="Path_13325-2" data-name="Path 13325" d="M2952.667,18381.51a8.979,8.979,0,0,1,5.2-6.594" transform="translate(-2952.667 -18372.275)" fill="none" stroke="#c02222" stroke-width="1.35"/>
        <g id="Polygon_268-2" data-name="Polygon 268" transform="matrix(0.259, 0.966, -0.966, 0.259, 7.378, 0)" fill="none">
          <path d="M1.5.715a.5.5,0,0,1,.857,0L3.4,2.452a.5.5,0,0,1-.429.757H.883a.5.5,0,0,1-.429-.757Z" stroke="none"/>
          <path d="M 1.925565004348755 0.4718291759490967 C 2.091387510299683 0.4718291759490967 2.25721001625061 0.5527467727661133 2.354315042495728 0.7145817279815674 L 3.396785020828247 2.45203161239624 C 3.596735000610352 2.78529167175293 3.356684923171997 3.209271669387817 2.968034982681274 3.209271669387817 L 0.8830950260162354 3.209271669387817 C 0.4944450855255127 3.209271669387817 0.2543950080871582 2.78529167175293 0.4543449878692627 2.45203161239624 L 1.496814966201782 0.7145817279815674 C 1.593919992446899 0.5527467727661133 1.759742498397827 0.4718291759490967 1.925565004348755 0.4718291759490967 Z" stroke="none" fill="#c02222"/>
        </g>
      </g>
      <g id="Group_6137" data-name="Group 6137" transform="translate(2961.909 18383.566)">
        <path id="Path_13325-3" data-name="Path 13325" d="M2957.87,18374.914a8.979,8.979,0,0,1-5.2,6.594" transform="translate(-2949.495 -18374.914)" fill="none" stroke="#c02222" stroke-width="1.35"/>
        <g id="Polygon_268-3" data-name="Polygon 268" transform="matrix(-0.259, -0.966, 0.966, -0.259, 0.997, 9.234)" fill="none">
          <path d="M1.5.715a.5.5,0,0,1,.857,0L3.4,2.452a.5.5,0,0,1-.429.757H.883a.5.5,0,0,1-.429-.757Z" stroke="none"/>
          <path d="M 1.925567746162415 0.4718301296234131 C 2.091392755508423 0.4718301296234131 2.257217884063721 0.5527474880218506 2.354317665100098 0.7145826816558838 L 3.396787643432617 2.452042579650879 C 3.596747875213623 2.785312652587891 3.356687784194946 3.209292650222778 2.968037605285645 3.209292650222778 L 0.8830976486206055 3.209292650222778 C 0.4944477081298828 3.209292650222778 0.2543878555297852 2.785312652587891 0.4543478488922119 2.452042579650879 L 1.496817827224731 0.7145826816558838 C 1.593917846679688 0.5527474880218506 1.759742736816406 0.4718301296234131 1.925567746162415 0.4718301296234131 Z" stroke="none" fill="#c02222"/>
        </g>
      </g>
      <g id="Group_6138" data-name="Group 6138" transform="translate(2949.998 18391.088) rotate(-90)">
        <path id="Path_13325-4" data-name="Path 13325" d="M0,6.593A8.979,8.979,0,0,1,5.2,0" transform="translate(0 2.641)" fill="none" stroke="#c02222" stroke-width="1.35"/>
        <g id="Polygon_268-4" data-name="Polygon 268" transform="matrix(0.259, 0.966, -0.966, 0.259, 7.378, 0)" fill="none">
          <path d="M1.5.715a.5.5,0,0,1,.857,0L3.4,2.452a.5.5,0,0,1-.429.757H.883a.5.5,0,0,1-.429-.757Z" stroke="none"/>
          <path d="M 1.925566554069519 0.4718301296234131 C 2.091391563415527 0.4718301296234131 2.257216453552246 0.5527474880218506 2.354316711425781 0.7145826816558838 L 3.396786451339722 2.452042579650879 C 3.596746444702148 2.785312652587891 3.356686592102051 3.209292650222778 2.968036651611328 3.209292650222778 L 0.88309645652771 3.209292650222778 C 0.4944465160369873 3.209292650222778 0.2543866634368896 2.785312652587891 0.4543466567993164 2.452042579650879 L 1.496816635131836 0.7145826816558838 C 1.593916654586792 0.5527474880218506 1.759741544723511 0.4718301296234131 1.925566554069519 0.4718301296234131 Z" stroke="none" fill="#c02222"/>
        </g>
      </g>
      <g id="Group_6139" data-name="Group 6139" transform="translate(2971.998 18372.514) rotate(90)">
        <path id="Path_13325-5" data-name="Path 13325" d="M0,6.593A8.978,8.978,0,0,1,5.2,0" transform="translate(0 2.641)" fill="none" stroke="#c02222" stroke-width="1.35"/>
        <g id="Polygon_268-5" data-name="Polygon 268" transform="matrix(0.259, 0.966, -0.966, 0.259, 7.379, 0)" fill="none">
          <path d="M1.5.715a.5.5,0,0,1,.858,0L3.4,2.452a.5.5,0,0,1-.429.757H.883a.5.5,0,0,1-.429-.757Z" stroke="none"/>
          <path d="M 1.925559043884277 0.4718518257141113 C 2.091383934020996 0.4718518257141113 2.257209062576294 0.5527718067169189 2.35430908203125 0.7146117687225342 L 3.396789073944092 2.452151775360107 C 3.596739053726196 2.785411834716797 3.356688976287842 3.209391593933105 2.968039035797119 3.209391593933105 L 0.8830790519714355 3.209391593933105 C 0.4944291114807129 3.209391593933105 0.2543790340423584 2.785411834716797 0.4543290138244629 2.452151775360107 L 1.496809005737305 0.7146117687225342 C 1.593909025192261 0.5527718067169189 1.759734153747559 0.4718518257141113 1.925559043884277 0.4718518257141113 Z" stroke="none" fill="#c02222"/>
        </g>
      </g>
    </g>
  </g>
</svg>
