<svg xmlns="http://www.w3.org/2000/svg" xmlns:xlink="http://www.w3.org/1999/xlink" width="100" height="80" viewBox="0 0 100 80">
  <defs>
    <linearGradient id="linear-gradient" x1="0.5" x2="0.5" y2="1" gradientUnits="objectBoundingBox">
      <stop offset="0" stop-color="#f1c300"/>
      <stop offset="1" stop-color="#0cb145"/>
    </linearGradient>
  </defs>
  <g id="Group_13680" data-name="Group 13680" transform="translate(-3133 -2549)">
    <rect id="Rectangle_3111" data-name="Rectangle 3111" width="100" height="80" transform="translate(3133 2549)" fill="#fff"/>
    <g id="Activities" transform="translate(2788.901 1934.988)">
      <path id="Path_27" data-name="Path 27" d="M600.375,627.14l20.256,2.959,3.414.341s3.073.4,1.878-.91a8.228,8.228,0,0,0-1.422-1.877s-1.138-7.34-6.2-11.209c-1.252-.853-11.664-5.69-16.387,4.837,1.651-.512,8.535-4.324,14.225,2.789a4.989,4.989,0,0,1-1.024.854s-4.006-6.627-13.3-2.008a21.039,21.039,0,0,0-1.436,4.225Z" transform="translate(-233.027 1.858)" fill="none"/>
      <path id="Path_28" data-name="Path 28" d="M596.186,628.136s.91-6.429,4.1-10.3a10.925,10.925,0,0,1,10.072-4.78c1.707.114,6.714-.228,11.437,7.909a47.34,47.34,0,0,1,1.992,5.8c1.423,1.764,3.755,4.837-1.707,4.951-.455,1.593-.65,10.413-12.371,10.925,1.707,3.186,4.178,9.73,6.341,12.462,1.651,2.39,2.561,3.869,5.007,3.7,3.073.114,12.917.683,12.917.683s2.447-.284,3.7,3.7c.285,1.309,1.082,6.089-4.153,6.259-5.121.285-14.111.455-23.5,0a56.251,56.251,0,0,0-5.8-8.843l-3.3,14.363-2.138-.284,4.869-18.947,7.056,10.9s20.541.784,23.67.5c.854-.341,2.016-.252.821-3.95-.284-.8-.081-1.788-3.95-1.5-4.267-.057-10.7-.4-10.7-.4s-3.674-.715-7.088-5.95a115.937,115.937,0,0,1-7.136-14.111s11.12,1.593,13.4-9.5c-1.138-.284-18.223-3.186-18.223-3.186-1.011,3.252-1.834,4.638.845,12.755-2.56-.739-10.632-5.584-14.842,6.479-1.422,5.69-4.552,19.631-4.666,20.143-.739,2.845-1.422,5.69-1.422,5.69l-.341,1.366H577.75l5.918-25.491s1.651-9.729,10.356-12.177c.854.171-.591-.569,5.042,0-1.308-3.528-.432-4.381-.49-8.136A25.373,25.373,0,0,0,596.186,628.136Z" transform="translate(-231 2)" fill="url(#linear-gradient)"/>
      <path id="Path_29" data-name="Path 29" d="M601.375,626.14l19.256,3.959,2.414.341s3.073.4,1.878-.91a8.228,8.228,0,0,0-1.422-1.877s-.138-6.34-5.2-10.209c-1.252-.853-10.664-6.69-15.387,3.837,1.651-.512,7.535-4.324,13.225,2.789a4.989,4.989,0,0,1-1.024.854s-3.006-6.627-12.3-2.008a13.244,13.244,0,0,0-1.436,3.225Z" transform="translate(-233.027 1.858)" fill="#fff"/>
      <path id="Path_31" data-name="Path 31" d="M639.487,638.152l37.2-5.087.046,28.8L643.076,663v1.772h3.77v3.316h-1.639v1.73h3.452v-5.042l15.671-.5v5.042h13.082v-1.772H666.15V664l12.4-.318L678.6,630.7l-41.108,5.9.137,22.984h1.73Z" transform="translate(-237.263 -1.406)" fill="url(#linear-gradient)"/>
      <g id="Path_32" data-name="Path 32" transform="translate(426.874 637.766)">
        <path id="Path_13425" data-name="Path 13425" d="M3.053,17.312H.424V16.253H3.053Zm3.4-3.938H.424V12.315H6.453Zm0-3.939H.424V8.377H6.453Zm0-3.938H.424V4.438H6.453Zm0-3.939H.424V.5H6.453Z" transform="translate(-0.038 -0.045)" fill="#626262"/>
        <path id="Path_13426" data-name="Path 13426" d="M2.629,16.812v-.148H.772v.148H2.629m3.4-3.938v-.149H.772v.149H6.029m0-3.939V8.787H.772v.148H6.029M6.029,5V4.848H.772V5H6.029m0-3.939V.91H.772v.148H6.029M3.4,17.722H0V15.753H3.4Zm3.4-3.938H0v-1.97H6.8Zm0-3.939H0V7.877H6.8Zm0-3.938H0V3.938H6.8Zm0-3.939H0V0H6.8Z" transform="translate(0 0)" fill="#707070"/>
      </g>
      <g id="settings" transform="translate(405.801 637.718)">
        <g id="Group_1" data-name="Group 1">
          <path id="Path_15" data-name="Path 15" d="M418.527,640.012l-.162,3.036-1.173.779-1.577-2.247-2.426,3.076,1.577,2.247-.647,1.528-2.265.04-.242,4.554,2.265-.04.486,1.505-1.82,2.309,2.1,3,1.82-2.307,1.092.739-.162,3.036,3.4-.059.162-3.036,1.173-.779,1.577,2.247,2.426-3.075-1.577-2.25.647-1.528,2.265-.04.242-4.551-2.265.04-.485-1.508,1.82-2.307-2.1-3-1.822,2.307-1.092-.739.162-3.036Z" transform="translate(-411.613 -639.953)" fill="none" stroke="#626262" stroke-linecap="round" stroke-linejoin="round" stroke-width="1.5"/>
          <ellipse id="Ellipse_1" data-name="Ellipse 1" cx="2.048" cy="2.729" rx="2.048" ry="2.729" transform="matrix(0.997, 0.071, -0.071, 0.997, 6.467, 8.354)" fill="none" stroke="#626262" stroke-linecap="round" stroke-linejoin="round" stroke-width="1.29"/>
        </g>
      </g>
      <path id="Path_34" data-name="Path 34" d="M625.406,677.529l50.982-.056v-1.849l-50.982-.028Z" transform="translate(-234.36 -3.607)" fill="#009ed8"/>
    </g>
  </g>
</svg>
