<svg id="Group_13610" data-name="Group 13610" xmlns="http://www.w3.org/2000/svg" width="29.513" height="29.513" viewBox="0 0 29.513 29.513">
  <g id="Group_13609" data-name="Group 13609" transform="translate(0 0)">
    <g id="Group_13555" data-name="Group 13555">
      <g id="Union_61" data-name="Union 61" transform="translate(5.527 5.683)" fill="none">
        <path d="M7.763,18.158a.5.5,0,0,1-.5-.5V16.019a7.217,7.217,0,0,1-1.85-.709L4.3,16.426a.5.5,0,0,1-.707,0l-1.86-1.86a.5.5,0,0,1,0-.707l1.039-1.039a7.227,7.227,0,0,1-.854-1.926H.5a.5.5,0,0,1-.5-.5V7.762a.5.5,0,0,1,.5-.5H1.846a7.218,7.218,0,0,1,.822-2.028l-.939-.939a.5.5,0,0,1,0-.707l1.86-1.861a.5.5,0,0,1,.707,0l.949.949a7.22,7.22,0,0,1,2.018-.8V.5a.5.5,0,0,1,.5-.5H10.4a.5.5,0,0,1,.5.5V1.955a7.226,7.226,0,0,1,1.893.845l1.074-1.074a.5.5,0,0,1,.707,0l1.86,1.86a.5.5,0,0,1,0,.707l-1.15,1.15a7.214,7.214,0,0,1,.7,1.817h1.678a.5.5,0,0,1,.5.5v2.632a.5.5,0,0,1-.5.5H15.911a7.222,7.222,0,0,1-.729,1.72l1.246,1.246a.5.5,0,0,1,0,.707l-1.86,1.86a.5.5,0,0,1-.707,0l-1.237-1.237a7.221,7.221,0,0,1-1.729.745v1.724a.5.5,0,0,1-.5.5Z" stroke="none"/>
        <path d="M 9.544500350952148 16.8075008392334 L 9.544500350952148 15.93351078033447 L 9.544500350952148 14.91250038146973 L 10.526930809021 14.63451099395752 C 11.01897048950195 14.49529075622559 11.49204063415527 14.29153060913086 11.93302059173584 14.02891063690186 L 12.83557033538818 13.49138069152832 L 13.5783805847168 14.2342004776001 L 14.21460056304932 14.87042045593262 L 14.87313938140869 14.21188163757324 L 14.22811031341553 13.56680107116699 L 13.49063014984131 12.82926082611084 L 14.01812076568604 11.92948055267334 C 14.27548027038574 11.49048042297363 14.47483062744141 11.02007102966309 14.61062049865723 10.53132057189941 L 14.88528060913086 9.54270076751709 L 15.91135025024414 9.54270076751709 L 16.8075008392334 9.54270076751709 L 16.8075008392334 8.611200332641602 L 15.97971057891846 8.611200332641602 L 14.91249084472656 8.611200332641602 L 14.66616058349609 7.572800636291504 C 14.5439510345459 7.05763053894043 14.35209083557129 6.560640811920166 14.0959005355835 6.095650672912598 L 13.60630035400391 5.20702075958252 L 14.32372093200684 4.489600658416748 L 14.87312030792236 3.940200567245483 L 14.21460056304932 3.281680583953857 L 13.74184036254883 3.754440546035767 L 12.9786205291748 4.517670631408691 L 12.06614017486572 3.941120624542236 C 11.5873908996582 3.638630628585815 11.06953048706055 3.407410621643066 10.52695083618164 3.253880500793457 L 9.544500350952148 2.975900650024414 L 9.544500350952148 1.954880595207214 L 9.544500350952148 1.350000619888306 L 8.613000869750977 1.350000619888306 L 8.613000869750977 1.869380593299866 L 8.613000869750977 2.9417405128479 L 7.568450450897217 3.184370517730713 C 6.991880416870117 3.318300724029541 6.439870834350586 3.538400650024414 5.927740573883057 3.838560581207275 L 5.027930736541748 4.365950584411621 L 4.290470600128174 3.628430604934692 L 3.943018913269043 3.280953168869019 L 3.284235239028931 3.940055370330811 L 3.6226806640625 4.278500556945801 L 4.365490436553955 5.021300792694092 L 3.827980518341064 5.923850536346436 C 3.521820545196533 6.43794059753418 3.296820640563965 6.992720603942871 3.159220695495605 7.572790622711182 L 2.912890672683716 8.611200332641602 L 1.845670580863953 8.611200332641602 L 1.350000619888306 8.611200332641602 L 1.350000619888306 9.54270076751709 L 1.9140305519104 9.54270076751709 L 2.940110683441162 9.54270076751709 L 3.214770555496216 10.53134059906006 C 3.368270635604858 11.08388042449951 3.602060556411743 11.61086082458496 3.909630537033081 12.0976505279541 L 4.486160755157471 13.0101203918457 L 3.722940683364868 13.77334022521973 L 3.284380674362183 14.21190071105957 L 3.942900657653809 14.87042045593262 L 4.45810079574585 14.35522079467773 L 5.175520420074463 13.63779067993164 L 6.064160823822021 14.12740039825439 C 6.537230491638184 14.38805103302002 7.043340682983398 14.58205032348633 7.568440437316895 14.70402050018311 L 8.613000869750977 14.94664096832275 L 8.613000869750977 16.01901054382324 L 8.613000869750977 16.8075008392334 L 9.544500350952148 16.8075008392334 M 10.39500045776367 18.15750122070313 L 7.763400554656982 18.15750122070313 C 7.487100601196289 18.15750122070313 7.26300048828125 17.93430137634277 7.26300048828125 17.65800094604492 L 7.26300048828125 16.01901054382324 C 6.607870578765869 15.86684036254883 5.986480712890625 15.62595081329346 5.41269063949585 15.30981063842773 L 4.296600818634033 16.42590141296387 C 4.19895076751709 16.52355003356934 4.070925712585449 16.5723762512207 3.942900657653809 16.5723762512207 C 3.814875602722168 16.5723762512207 3.686850547790527 16.52355003356934 3.589200496673584 16.42590141296387 L 1.728900551795959 14.56560039520264 C 1.533600568771362 14.37030029296875 1.533600568771362 14.05350017547607 1.728900551795959 13.8582010269165 L 2.768350601196289 12.81875038146973 C 2.395610570907593 12.22882080078125 2.105300664901733 11.58118057250977 1.9140305519104 10.8927001953125 L 0.5004006028175354 10.8927001953125 C 0.2241006046533585 10.8927001953125 6.103515488575795e-07 10.66860103607178 6.103515488575795e-07 10.39320087432861 L 6.103515488575795e-07 7.761600494384766 C 6.103515488575795e-07 7.485300540924072 0.2241006046533585 7.261200428009033 0.5004006028175354 7.261200428009033 L 1.845670580863953 7.261200428009033 C 2.017430543899536 6.537130832672119 2.297630548477173 5.855150699615479 2.668090581893921 5.233090400695801 L 1.728900551795959 4.293900489807129 C 1.533600568771362 4.098600387573242 1.533600568771362 3.781800508499146 1.728900551795959 3.586500644683838 L 3.589200496673584 1.725300669670105 C 3.686850547790527 1.628100633621216 3.814875602722168 1.579500555992126 3.942900657653809 1.579500555992126 C 4.070925712585449 1.579500555992126 4.19895076751709 1.628100633621216 4.296600818634033 1.725300669670105 L 5.245100498199463 2.67387056350708 C 5.864830493927002 2.310640573501587 6.543610572814941 2.036480665206909 7.26300048828125 1.869380593299866 L 7.26300048828125 0.5004006028175354 C 7.26300048828125 0.2241006046533585 7.487100601196289 6.103515488575795e-07 7.763400554656982 6.103515488575795e-07 L 10.39500045776367 6.103515488575795e-07 C 10.67130088806152 6.103515488575795e-07 10.89450073242188 0.2241006046533585 10.89450073242188 0.5004006028175354 L 10.89450073242188 1.954880595207214 C 11.57066059112549 2.146200656890869 12.20676040649414 2.433070659637451 12.78725051879883 2.799850702285767 L 13.86090087890625 1.726200580596924 C 13.95855045318604 1.62855064868927 14.08657550811768 1.579725623130798 14.21460056304932 1.579725623130798 C 14.34262561798096 1.579725623130798 14.4706506729126 1.62855064868927 14.56830024719238 1.726200580596924 L 16.4286003112793 3.586500644683838 C 16.6239013671875 3.781800508499146 16.6239013671875 4.098600387573242 16.4286003112793 4.293900489807129 L 15.27831077575684 5.444190502166748 C 15.58915042877197 6.008370399475098 15.82717037200928 6.618170738220215 15.97971057891846 7.261200428009033 L 17.65800094604492 7.261200428009033 C 17.93430137634277 7.261200428009033 18.15750122070313 7.485300540924072 18.15750122070313 7.761600494384766 L 18.15750122070313 10.39320087432861 C 18.15750122070313 10.66860103607178 17.93430137634277 10.8927001953125 17.65800094604492 10.8927001953125 L 15.91135025024414 10.8927001953125 C 15.74213027954102 11.50178050994873 15.49545097351074 12.07883071899414 15.18274021148682 12.6122407913208 L 16.4286003112793 13.8582010269165 C 16.6239013671875 14.05350017547607 16.6239013671875 14.37030029296875 16.4286003112793 14.56560039520264 L 14.56830024719238 16.42590141296387 C 14.4706506729126 16.52355003356934 14.34262561798096 16.5723762512207 14.21460056304932 16.5723762512207 C 14.08657550811768 16.5723762512207 13.95855045318604 16.52355003356934 13.86090087890625 16.42590141296387 L 12.6237907409668 15.1887903213501 C 12.08802032470703 15.5078706741333 11.5078010559082 15.75997066497803 10.89450073242188 15.93351078033447 L 10.89450073242188 17.65800094604492 C 10.89450073242188 17.93430137634277 10.67130088806152 18.15750122070313 10.39500045776367 18.15750122070313 Z" stroke="none" fill="#5c6873"/>
      </g>
      <g id="Ellipse_59" data-name="Ellipse 59" transform="translate(10.221 10.396)" fill="none" stroke="#5c6873" stroke-width="1.35">
        <circle cx="4.144" cy="4.144" r="4.144" stroke="none"/>
        <circle cx="4.144" cy="4.144" r="3.469" fill="none"/>
      </g>
      <g id="Ellipse_60" data-name="Ellipse 60" transform="translate(13.419 0.552)" fill="none" stroke="#5c6873" stroke-width="1.35">
        <circle cx="1.302" cy="1.302" r="1.302" stroke="none"/>
        <circle cx="1.302" cy="1.302" r="0.627" fill="none"/>
      </g>
      <g id="Ellipse_61" data-name="Ellipse 61" transform="translate(13.419 26.206)" fill="none" stroke="#5c6873" stroke-width="1.35">
        <circle cx="1.302" cy="1.302" r="1.302" stroke="none"/>
        <circle cx="1.302" cy="1.302" r="0.627" fill="none"/>
      </g>
      <g id="Ellipse_62" data-name="Ellipse 62" transform="translate(0.476 13.418)" fill="none" stroke="#5c6873" stroke-width="1.35">
        <circle cx="1.302" cy="1.302" r="1.302" stroke="none"/>
        <circle cx="1.302" cy="1.302" r="0.627" fill="none"/>
      </g>
      <g id="Ellipse_63" data-name="Ellipse 63" transform="translate(26.368 13.418)" fill="none" stroke="#5c6873" stroke-width="1.35">
        <circle cx="1.302" cy="1.302" r="1.302" stroke="none"/>
        <circle cx="1.302" cy="1.302" r="0.627" fill="none"/>
      </g>
      <g id="Group_6135" data-name="Group 6135" transform="translate(2.107)">
        <path id="Path_13325" data-name="Path 13325" d="M2952.667,18383.023a11.041,11.041,0,0,1,6.4-8.109" transform="translate(-2952.667 -18371.668)" fill="none" stroke="#5c6873" stroke-width="1.35"/>
        <g id="Polygon_268" data-name="Polygon 268" transform="matrix(0.259, 0.966, -0.966, 0.259, 9.073, 0)" fill="none">
          <path d="M1.939.715a.5.5,0,0,1,.857,0L4.281,3.189a.5.5,0,0,1-.429.757H.883a.5.5,0,0,1-.429-.757Z" stroke="none"/>
          <path d="M 2.367870807647705 0.4718272686004639 C 2.533693313598633 0.4718272686004639 2.699515819549561 0.5527446269989014 2.796620845794678 0.7145798206329346 L 4.28139066696167 3.189199686050415 C 4.481350898742676 3.522469758987427 4.241291046142578 3.946449756622314 3.852650880813599 3.946449756622314 L 0.8830907344818115 3.946449756622314 C 0.4944510459899902 3.946449756622314 0.2543907165527344 3.522469758987427 0.4543509483337402 3.189199686050415 L 1.939120769500732 0.7145798206329346 C 2.03622579574585 0.5527446269989014 2.202048301696777 0.4718272686004639 2.367870807647705 0.4718272686004639 Z" stroke="none" fill="#5c6873"/>
        </g>
      </g>
      <g id="Group_6136" data-name="Group 6136" transform="translate(2.107)">
        <path id="Path_13325-2" data-name="Path 13325" d="M2952.667,18383.023a11.041,11.041,0,0,1,6.4-8.109" transform="translate(-2952.667 -18371.668)" fill="none" stroke="#5c6873" stroke-width="1.35"/>
        <g id="Polygon_268-2" data-name="Polygon 268" transform="matrix(0.259, 0.966, -0.966, 0.259, 9.073, 0)" fill="none">
          <path d="M1.939.715a.5.5,0,0,1,.857,0L4.281,3.189a.5.5,0,0,1-.429.757H.883a.5.5,0,0,1-.429-.757Z" stroke="none"/>
          <path d="M 2.367870807647705 0.4718272686004639 C 2.533693313598633 0.4718272686004639 2.699515819549561 0.5527446269989014 2.796620845794678 0.7145798206329346 L 4.28139066696167 3.189199686050415 C 4.481350898742676 3.522469758987427 4.241291046142578 3.946449756622314 3.852650880813599 3.946449756622314 L 0.8830907344818115 3.946449756622314 C 0.4944510459899902 3.946449756622314 0.2543907165527344 3.522469758987427 0.4543509483337402 3.189199686050415 L 1.939120769500732 0.7145798206329346 C 2.03622579574585 0.5527446269989014 2.202048301696777 0.4718272686004639 2.367870807647705 0.4718272686004639 Z" stroke="none" fill="#5c6873"/>
        </g>
      </g>
      <g id="Group_6137" data-name="Group 6137" transform="translate(17.107 18.158)">
        <path id="Path_13325-3" data-name="Path 13325" d="M2959.065,18374.914a11.041,11.041,0,0,1-6.4,8.107" transform="translate(-2948.766 -18374.914)" fill="none" stroke="#5c6873" stroke-width="1.35"/>
        <g id="Polygon_268-3" data-name="Polygon 268" transform="matrix(-0.259, -0.966, 0.966, -0.259, 1.226, 11.355)" fill="none">
          <path d="M1.939.715a.5.5,0,0,1,.857,0L4.281,3.189a.5.5,0,0,1-.429.757H.883a.5.5,0,0,1-.429-.757Z" stroke="none"/>
          <path d="M 2.367874145507813 0.4718306064605713 C 2.533699035644531 0.4718306064605713 2.699524164199829 0.5527479648590088 2.796624183654785 0.714583158493042 L 4.2814040184021 3.189223051071167 C 4.481354236602783 3.522493124008179 4.241304397583008 3.946473121643066 3.852654218673706 3.946473121643066 L 0.8830940723419189 3.946473121643066 C 0.4944443702697754 3.946473121643066 0.2543940544128418 3.522493124008179 0.4543442726135254 3.189223051071167 L 1.93912410736084 0.714583158493042 C 2.036224126815796 0.5527479648590088 2.202049255371094 0.4718306064605713 2.367874145507813 0.4718306064605713 Z" stroke="none" fill="#5c6873"/>
        </g>
      </g>
      <g id="Group_6138" data-name="Group 6138" transform="translate(0 27.407) rotate(-90)">
        <path id="Path_13325-4" data-name="Path 13325" d="M0,8.107A11.041,11.041,0,0,1,6.4,0" transform="translate(0 3.248)" fill="none" stroke="#5c6873" stroke-width="1.35"/>
        <g id="Polygon_268-4" data-name="Polygon 268" transform="matrix(0.259, 0.966, -0.966, 0.259, 9.073, 0)" fill="none">
          <path d="M1.939.715a.5.5,0,0,1,.857,0L4.281,3.189a.5.5,0,0,1-.429.757H.883a.5.5,0,0,1-.429-.757Z" stroke="none"/>
          <path d="M 2.367872476577759 0.4718306064605713 C 2.533697366714478 0.4718306064605713 2.699522495269775 0.5527479648590088 2.796622514724731 0.714583158493042 L 4.281402587890625 3.189223051071167 C 4.48135232925415 3.522493124008179 4.241302490234375 3.946473121643066 3.852652549743652 3.946473121643066 L 0.8830924034118652 3.946473121643066 C 0.4944424629211426 3.946473121643066 0.2543926239013672 3.522493124008179 0.4543423652648926 3.189223051071167 L 1.939122438430786 0.714583158493042 C 2.036222457885742 0.5527479648590088 2.20204758644104 0.4718306064605713 2.367872476577759 0.4718306064605713 Z" stroke="none" fill="#5c6873"/>
        </g>
      </g>
      <g id="Group_6139" data-name="Group 6139" transform="translate(29.513 2.106) rotate(90)">
        <path id="Path_13325-5" data-name="Path 13325" d="M0,8.107A11.04,11.04,0,0,1,6.4,0" transform="translate(0 3.248)" fill="none" stroke="#5c6873" stroke-width="1.35"/>
        <g id="Polygon_268-5" data-name="Polygon 268" transform="matrix(0.259, 0.966, -0.966, 0.259, 9.074, 0)" fill="none">
          <path d="M1.939.715a.5.5,0,0,1,.858,0L4.281,3.189a.5.5,0,0,1-.429.757H.883a.5.5,0,0,1-.429-.757Z" stroke="none"/>
          <path d="M 2.367863416671753 0.4718532562255859 C 2.533688306808472 0.4718532562255859 2.69951343536377 0.5527732372283936 2.796613454818726 0.7146131992340088 L 4.281403541564941 3.189352989196777 C 4.481353282928467 3.522613048553467 4.241293430328369 3.946593284606934 3.852653503417969 3.946593284606934 L 0.8830733299255371 3.946593284606934 C 0.4944334030151367 3.946593284606934 0.2543735504150391 3.522613048553467 0.4543232917785645 3.189352989196777 L 1.93911337852478 0.7146131992340088 C 2.036213397979736 0.5527732372283936 2.202038526535034 0.4718532562255859 2.367863416671753 0.4718532562255859 Z" stroke="none" fill="#5c6873"/>
        </g>
      </g>
    </g>
  </g>
</svg>
