<svg xmlns="http://www.w3.org/2000/svg" xmlns:xlink="http://www.w3.org/1999/xlink" width="95.279" height="61.961" viewBox="0 0 95.279 61.961">
  <defs>
    <linearGradient id="linear-gradient" x1="0.5" x2="0.5" y2="1" gradientUnits="objectBoundingBox">
      <stop offset="0" stop-color="#f1c300"/>
      <stop offset="1" stop-color="#0cb145"/>
    </linearGradient>
  </defs>
  <g id="Activities_hover" transform="translate(-3135.65 -2550)">
    <g id="Activities" transform="translate(2788.901 1934.988)">
      <path id="Path_27" data-name="Path 27" d="M600.375,627.14l20.256,2.959,3.414.341s3.073.4,1.878-.91a8.228,8.228,0,0,0-1.422-1.877s-1.138-7.34-6.2-11.209c-1.252-.853-11.664-5.69-16.387,4.837,1.651-.512,8.535-4.324,14.225,2.789a4.989,4.989,0,0,1-1.024.854s-4.006-6.627-13.3-2.008a21.039,21.039,0,0,0-1.436,4.225Z" transform="translate(-233.027 1.858)" fill="none"/>
      <path id="Subtraction_4" data-name="Subtraction 4" d="M17048.414-670.027h-3.314l5.916-25.492a.038.038,0,0,1,0-.011,18.63,18.63,0,0,1,1.914-5.159,15.615,15.615,0,0,1,3.152-4.07,13.011,13.011,0,0,1,5.291-2.935,1.069,1.069,0,0,0,.2.025.324.324,0,0,0,.188-.056.911.911,0,0,1,.145-.068,3.762,3.762,0,0,1,1.174-.123c.771,0,1.893.075,3.334.222a9.782,9.782,0,0,1-.627-5.17,26.147,26.147,0,0,0,.137-2.966,25.135,25.135,0,0,0-2.391-1.035c.039-.271,1.014-6.553,4.1-10.3a10.9,10.9,0,0,1,9.057-4.825c.336,0,.676.016,1.01.047.113.008.242.013.381.02,1.99.088,6.648.294,11.061,7.893a48.606,48.606,0,0,1,1.992,5.8l0,0c.746.928,2.133,2.655,1.609,3.78-.344.737-1.461,1.13-3.322,1.17-.049.176-.1.44-.15.742-.482,2.66-1.758,9.724-12.223,10.18.592,1.1,1.277,2.617,2,4.218l.012.028.006.011c1.365,3.013,2.912,6.427,4.322,8.206l.2.284c1.473,2.139,2.361,3.43,4.447,3.43.119,0,.242,0,.367-.013,3.016.11,12.82.677,12.918.683a1.044,1.044,0,0,1,.107,0c.568,0,2.508.267,3.588,3.7.252,1.164.5,3.334-.629,4.781a4.4,4.4,0,0,1-3.521,1.479c-1.875.105-5.861.282-11.492.282-4.105,0-8.146-.095-12.008-.282a57.833,57.833,0,0,0-5.8-8.844l-3.3,14.365-2.139-.283,4.869-18.95,7.057,10.9c.135.005,14.84.564,21.152.564,1.219,0,2.064-.021,2.516-.062.086-.035.18-.066.268-.1l.01,0c.793-.267,1.613-.542.543-3.851-.031-.09-.059-.183-.078-.263-.176-.634-.357-1.291-2.635-1.291-.365,0-.779.017-1.232.051-4.141-.058-10.432-.385-10.7-.4a7.556,7.556,0,0,1-2.266-1.013,15.894,15.894,0,0,1-4.824-4.937,116.443,116.443,0,0,1-7.129-14.086l-.01-.025h0a11.329,11.329,0,0,0,1.439.079c3,0,10.186-.933,11.959-9.58-1.113-.282-18.057-3.161-18.225-3.19l-.07.223c-.045.142-.088.28-.133.416-.9,2.842-1.447,4.556,1.049,12.115-.3-.087-.684-.233-1.09-.387a14.512,14.512,0,0,0-5.133-1.193c-3.85,0-6.75,2.711-8.617,8.059-.584,2.332-1.846,7.618-4.533,19.551-.037.162-.066.295-.09.394s-.037.17-.043.2c-.75,2.887-1.418,5.682-1.42,5.693l-.346,1.365Zm25.723-53.837h0a13.746,13.746,0,0,0-6,1.636c-.2.435-.393.779-.559,1.081l-.027.047a6.764,6.764,0,0,0-.848,2.1l19.254,3.958,2.412.343a8.449,8.449,0,0,0,.924.056c.482,0,1.084-.059,1.209-.34.068-.157-.018-.367-.252-.625a8.258,8.258,0,0,0-1.422-1.876,14.471,14.471,0,0,0-.7-3.654,13.377,13.377,0,0,0-4.5-6.555,13.845,13.845,0,0,0-7.158-2.383c-3.609,0-6.379,2.091-8.229,6.216.2-.062.473-.177.785-.309l.008,0a12.026,12.026,0,0,1,4.764-1.164c2.824,0,5.4,1.436,7.666,4.267a4.96,4.96,0,0,1-1.021.854,6.422,6.422,0,0,0-1.406-1.823,7.06,7.06,0,0,0-4.893-1.823Z" transform="translate(-16698.35 1347)" fill="url(#linear-gradient)"/>
      <path id="Path_31" data-name="Path 31" d="M639.487,638.152l37.2-5.087.046,28.8L643.076,663v1.772h3.77v3.316h-1.639v1.73h3.452v-5.042l15.671-.5v5.042h13.082v-1.772H666.15V664l12.4-.318L678.6,630.7l-41.108,5.9.137,22.984h1.73Z" transform="translate(-237.263 -1.406)" fill="url(#linear-gradient)"/>
      <g id="Path_32" data-name="Path 32" transform="translate(426.874 637.766)">
        <path id="Path_13426" data-name="Path 13426" d="M2.629,16.812v-.148H.772v.148H2.629m3.4-3.938v-.149H.772v.149H6.029m0-3.939V8.787H.772v.148H6.029M6.029,5V4.848H.772V5H6.029m0-3.939V.91H.772v.148H6.029M3.4,17.722H0V15.753H3.4Zm3.4-3.938H0v-1.97H6.8Zm0-3.939H0V7.877H6.8Zm0-3.938H0V3.938H6.8Zm0-3.939H0V0H6.8Z" transform="translate(0 0)" fill="#707070"/>
      </g>
      <g id="settings" transform="translate(405.801 637.718)">
        <g id="Group_1" data-name="Group 1">
          <path id="Path_15" data-name="Path 15" d="M418.527,640.012l-.162,3.036-1.173.779-1.577-2.247-2.426,3.076,1.577,2.247-.647,1.528-2.265.04-.242,4.554,2.265-.04.486,1.505-1.82,2.309,2.1,3,1.82-2.307,1.092.739-.162,3.036,3.4-.059.162-3.036,1.173-.779,1.577,2.247,2.426-3.075-1.577-2.25.647-1.528,2.265-.04.242-4.551-2.265.04-.485-1.508,1.82-2.307-2.1-3-1.822,2.307-1.092-.739.162-3.036Z" transform="translate(-411.613 -639.953)" fill="none" stroke="#626262" stroke-linecap="round" stroke-linejoin="round" stroke-width="1.5"/>
          <ellipse id="Ellipse_1" data-name="Ellipse 1" cx="2.048" cy="2.729" rx="2.048" ry="2.729" transform="matrix(0.997, 0.071, -0.071, 0.997, 6.467, 8.354)" fill="none" stroke="#626262" stroke-linecap="round" stroke-linejoin="round" stroke-width="1.29"/>
        </g>
      </g>
      <path id="Path_34" data-name="Path 34" d="M625.406,677.529l50.982-.056v-1.849l-50.982-.028Z" transform="translate(-234.36 -3.607)" fill="#009ed8"/>
    </g>
  </g>
</svg>
