<svg xmlns="http://www.w3.org/2000/svg" xmlns:xlink="http://www.w3.org/1999/xlink" width="95.279" height="61.96" viewBox="0 0 95.279 61.96">
  <defs>
    <linearGradient id="linear-gradient" x1="0.5" x2="0.5" y2="1" gradientUnits="objectBoundingBox">
      <stop offset="0" stop-color="#f1c300"/>
      <stop offset="1" stop-color="#0cb145"/>
    </linearGradient>
    <linearGradient id="linear-gradient-3" x1="0.5" x2="0.5" y2="1" gradientUnits="objectBoundingBox">
      <stop offset="0" stop-color="#00dff1"/>
      <stop offset="1" stop-color="#0c85b1"/>
    </linearGradient>
  </defs>
  <g id="Activities_active" transform="translate(-3135.65 -2549.999)">
    <g id="Activities" transform="translate(2788.901 1934.988)">
      <path id="Path_27" data-name="Path 27" d="M600.375,627.14l20.256,2.959,3.414.341s3.073.4,1.878-.91a8.228,8.228,0,0,0-1.422-1.877s-1.138-7.34-6.2-11.209c-1.252-.853-11.664-5.69-16.387,4.837,1.651-.512,8.535-4.324,14.225,2.789a4.989,4.989,0,0,1-1.024.854s-4.006-6.627-13.3-2.008a21.039,21.039,0,0,0-1.436,4.225Z" transform="translate(-233.027 1.858)" fill="none"/>
      <path id="Subtraction_3" data-name="Subtraction 3" d="M17046.414-569.029h-1.314l5.916-25.492a.038.038,0,0,1,0-.011,18.629,18.629,0,0,1,1.914-5.159,15.613,15.613,0,0,1,3.152-4.07,13.011,13.011,0,0,1,5.291-2.935,1.283,1.283,0,0,0,.248.026,2.329,2.329,0,0,0,.469-.066c.092-.019.189-.039.3-.059a10.4,10.4,0,0,1,1.754-.12c.947,0,2.158.073,3.6.219-.092-.245-.178-.478-.26-.7l-.078-.209a16.72,16.72,0,0,1-1.482-7.227,25.224,25.224,0,0,0-2.391-1.03c.039-.271,1.014-6.557,4.1-10.3a10.908,10.908,0,0,1,9.066-4.828c.332,0,.668.015,1,.046.113.008.242.013.381.02,1.99.088,6.648.294,11.061,7.893a48.962,48.962,0,0,1,1.992,5.8l0,0c.746.927,2.133,2.654,1.609,3.777-.344.736-1.461,1.129-3.322,1.169-.027.1-.059.222-.094.368l-.023.095a13.992,13.992,0,0,1-2.77,5.946c-2.332,2.794-5.859,4.314-10.486,4.517l.271.507c1.752,3.27,5.012,9.357,7.07,11.952l.2.29,0,.005c1.42,2.058,2.357,3.418,4.434,3.418.121,0,.246,0,.373-.013,3.018.11,12.82.677,12.918.683a1.058,1.058,0,0,1,.107,0c.568,0,2.506.267,3.588,3.7.252,1.163.5,3.331-.627,4.778a4.411,4.411,0,0,1-3.523,1.482c-1.893.1-5.908.28-11.533.281-4.1,0-8.125-.094-11.967-.281-3.65-6.449-5.793-9.825-5.8-9.844l-3.3,15.361-1.139-.283,3.869-18.945,7.057,12.4c.066,0,9.236.126,16.143.126,4.072,0,6.6-.042,7.525-.126a3.491,3.491,0,0,0,1.68-1.216,4.219,4.219,0,0,0,.141-3.734c-.223-.626-.9-2.53-4.225-2.53-.23,0-.473.009-.721.027-4.15-.054-10.432-.385-10.7-.4h0s-.029,0-.078,0c-.465,0-2.937-.239-6.01-4.953-3.049-4.7-7.3-12.546-8.119-14.071l-.021-.041h0a13.548,13.548,0,0,0,1.566.079c3.268,0,11.059-.933,12.832-9.58-1.125-.28-21.025-3.157-21.225-3.185a45.4,45.4,0,0,0,2.846,10.754,18.555,18.555,0,0,0-5.176-.824c-3.84,0-8.982,1.614-11.666,9.3-1.2,4.791-3.6,15.414-4.578,19.758-.02.087-.037.16-.051.22-.02.084-.031.14-.035.165-.748,2.876-1.418,5.677-1.42,5.688l-.346,1.365Zm26.887-53.835h0a14.013,14.013,0,0,0-6.168,1.634A20.968,20.968,0,0,0,17065.7-617l20.254,2.958,3.412.339a8.521,8.521,0,0,0,.928.056c.48,0,1.082-.059,1.207-.34.068-.158-.018-.368-.254-.626a8.251,8.251,0,0,0-1.422-1.876,21.721,21.721,0,0,0-1.2-4.154,16.58,16.58,0,0,0-5-7.055,14.294,14.294,0,0,0-6.889-1.849c-2.965,0-7.02,1.16-9.5,6.687.17-.053.389-.138.664-.246l.031-.012a14.593,14.593,0,0,1,5.41-1.222,10.173,10.173,0,0,1,8.117,4.266,4.744,4.744,0,0,1-1.021.854,7.623,7.623,0,0,0-1.717-1.822,8.689,8.689,0,0,0-5.416-1.822Z" transform="translate(-16698.35 1246)" fill="url(#linear-gradient)"/>
      <path id="Path_31" data-name="Path 31" d="M639.487,638.152l37.2-5.087.046,28.8L643.076,663v1.772h3.77v3.316h-1.639v1.73h3.452v-5.042l15.671-.5v5.042h13.082v-1.772H666.15V664l12.4-.318L678.6,630.7l-41.108,5.9.137,22.984h1.73Z" transform="translate(-237.263 -1.406)" fill="url(#linear-gradient)"/>
      <g id="Path_32" data-name="Path 32" transform="translate(426.874 637.766)">
        <path id="Path_13426" data-name="Path 13426" d="M2.629,16.812v-.148H.772v.148H2.629m3.4-3.938v-.149H.772v.149H6.029m0-3.939V8.787H.772v.148H6.029M6.029,5V4.848H.772V5H6.029m0-3.939V.91H.772v.148H6.029M3.4,17.722H0V15.753H3.4Zm3.4-3.938H0v-1.97H6.8Zm0-3.939H0V7.877H6.8Zm0-3.938H0V3.938H6.8Zm0-3.939H0V0H6.8Z" transform="translate(0 0)" fill="url(#linear-gradient-3)"/>
      </g>
      <g id="settings" transform="translate(405.801 637.718)">
        <g id="Group_1" data-name="Group 1">
          <path id="Path_15" data-name="Path 15" d="M418.527,640.012l-.162,3.036-1.173.779-1.577-2.247-2.426,3.076,1.577,2.247-.647,1.528-2.265.04-.242,4.554,2.265-.04.486,1.505-1.82,2.309,2.1,3,1.82-2.307,1.092.739-.162,3.036,3.4-.059.162-3.036,1.173-.779,1.577,2.247,2.426-3.075-1.577-2.25.647-1.528,2.265-.04.242-4.551-2.265.04-.485-1.508,1.82-2.307-2.1-3-1.822,2.307-1.092-.739.162-3.036Z" transform="translate(-411.613 -639.953)" fill="none" stroke="#4ca1bf" stroke-linecap="round" stroke-linejoin="round" stroke-width="1.5"/>
          <ellipse id="Ellipse_1" data-name="Ellipse 1" cx="2.048" cy="2.729" rx="2.048" ry="2.729" transform="matrix(0.997, 0.071, -0.071, 0.997, 6.467, 8.354)" fill="none" stroke="#0c85b1" stroke-linecap="round" stroke-linejoin="round" stroke-width="1.29"/>
        </g>
      </g>
      <path id="Path_34" data-name="Path 34" d="M625.406,677.529l50.982-.056v-1.849l-50.982-.028Z" transform="translate(-234.36 -3.607)" fill="#009ed8"/>
    </g>
  </g>
</svg>
