<svg xmlns="http://www.w3.org/2000/svg" width="16.397" height="12.824" viewBox="0 0 16.397 12.824">
  <g id="colloborate_grey" transform="translate(0.157 -56.879)">
    <path id="Path_2" data-name="Path 2" d="M315.022,296.773a.234.234,0,0,0,.165-.4l-.335-.335a.234.234,0,1,0-.331.331l.335.335a.233.233,0,0,0,.166.069Z" transform="translate(-304.579 -231.433)" fill="#fff" stroke="#fff" stroke-width="0.25"/>
    <circle id="Ellipse_1" data-name="Ellipse 1" cx="0.282" cy="0.282" r="0.282" transform="translate(1.541 60.493)" fill="#fff" stroke="#fff" stroke-width="0.25"/>
    <path id="Path_3" data-name="Path 3" d="M15.962,60.427l-2.04-2.04a.232.232,0,1,0-.328.328L15.6,60.722l-1.291,1.291-3.2-3.2L12.4,57.519l.427.427a.232.232,0,1,0,.328-.328l-.459-.459a.418.418,0,0,0-.591,0l-1.357,1.357a.416.416,0,0,0-.1.438l-.539.539a.385.385,0,0,1-.3.112L6.97,59.42a.885.885,0,0,0-.756.339,1.335,1.335,0,0,1-.263-.2l-.516-.516a.418.418,0,0,0-.1-.438L3.982,57.244a.418.418,0,0,0-.591,0L.123,60.512a.418.418,0,0,0,0,.591L1.479,62.46a.418.418,0,0,0,.591,0L5.135,59.4l.488.488a1.8,1.8,0,0,0,.369.284l-.155.315a.582.582,0,0,1-.1.139l-.836.9a.482.482,0,0,0,.154.767l.354.16a1.3,1.3,0,0,0,.446.077,1.341,1.341,0,0,0,.855-.309l.681-.562a.078.078,0,0,1,.067-.016l2.015.466.062.013.032.115a.86.86,0,0,0,.22.379l3.1,3.1a.232.232,0,0,1,0,.328l-.43.43a.232.232,0,0,1-.328,0l-.347-.347h0l-.364-.364a.232.232,0,1,0-.328.328l.465.465a.232.232,0,0,1,0,.328l-.43.43a.232.232,0,0,1-.328,0L9.188,65.7a.232.232,0,0,0-.328.328l1.365,1.365a.232.232,0,0,1,0,.328l-.43.43a.232.232,0,0,1-.328,0L8.1,66.782a.23.23,0,0,0-.35.026l-.15-.151h0a.692.692,0,0,0-.263-.164.694.694,0,0,0-.165-.72l-.43-.43h0a.694.694,0,0,0-.721-.165.691.691,0,0,0-.164-.263l-.43-.43a.7.7,0,0,0-.868-.093.691.691,0,0,0-.143-.209l-.43-.43h0a.691.691,0,0,0-.47-.2l-.622-.624a.232.232,0,1,0-.328.328l.469.469L3,63.752l-.361.361a.828.828,0,0,0,0,1.169l.245.245a.821.821,0,0,0,.584.242h.015v.015a.821.821,0,0,0,.242.584l.245.245a.824.824,0,0,0,.584.242h0a.792.792,0,0,0,.232.576l.291.291a.789.789,0,0,0,.562.233h.014a.821.821,0,0,0,.242.584l.245.245A.826.826,0,0,0,7.3,68.8l.528.528a.7.7,0,0,0,.984,0l.43-.43a.692.692,0,0,0,.165-.263.694.694,0,0,0,.72-.165l.43-.43a.69.69,0,0,0,.16-.25.7.7,0,0,0,.748-.155l.43-.43a.69.69,0,0,0,.161-.253A.7.7,0,0,0,12.8,66.8l.43-.43a.7.7,0,0,0,0-.984l-.746-.746.438-.781a1.626,1.626,0,0,1,.268-.354L14.2,62.483a.416.416,0,0,0,.4-.108l1.357-1.357a.418.418,0,0,0,.005-.591ZM1.775,62.1.483,60.808l3.2-3.2,1.3,1.292Zm1.7,3.207a.36.36,0,0,1-.256-.106l-.245-.245a.363.363,0,0,1,0-.513l.361-.361a.232.232,0,0,1,.328,0l.43.43a.232.232,0,0,1,0,.328l-.361.362a.36.36,0,0,1-.26.1Zm.83.98-.245-.245a.363.363,0,0,1,0-.513l.716-.716a.232.232,0,0,1,.328,0l.43.43a.232.232,0,0,1,0,.328l-.716.716a.363.363,0,0,1-.518,0ZM5.877,67.4a.332.332,0,0,1-.467,0l-.291-.3a.331.331,0,0,1,0-.467l.967-.967a.233.233,0,0,1,.328,0h0l.43.43a.232.232,0,0,1,0,.328Zm.853,1.17a.36.36,0,0,1-.256-.106l-.245-.245a.363.363,0,0,1,0-.513l.716-.716a.233.233,0,0,1,.328,0h0l.43.43a.232.232,0,0,1,0,.328l-.716.716a.36.36,0,0,1-.256.106Zm2.18.009L8.48,69a.232.232,0,0,1-.328,0l-.527-.527.406-.406a.693.693,0,0,0,.2-.5l.677.677a.232.232,0,0,1,0,.328Zm3.944-5.4a2.09,2.09,0,0,0-.345.455l-.374.667-2.017-2.017a.4.4,0,0,1-.086-.13,2.011,2.011,0,0,0,.581-.117.232.232,0,0,0-.158-.436,1.546,1.546,0,0,1-.875.052l-2.015-.466a.545.545,0,0,0-.466.11l-.681.562a.879.879,0,0,1-.827.162l-.342-.155c-.009,0-.014-.025-.006-.028l.015-.016.822-.882a1.044,1.044,0,0,0,.173-.25l.28-.568a.423.423,0,0,1,.408-.235l2.841.185a.851.851,0,0,0,.657-.247l.511-.511L13.835,62.2Z" fill="#fff" stroke="#fff" stroke-width="0.25"/>
  </g>
</svg>
