<svg xmlns="http://www.w3.org/2000/svg" xmlns:xlink="http://www.w3.org/1999/xlink" width="100" height="80" viewBox="0 0 100 80">
  <defs>
    <linearGradient id="linear-gradient" x1="0.5" x2="0.5" y2="1" gradientUnits="objectBoundingBox">
      <stop offset="0" stop-color="#e89f7e"/>
      <stop offset="1" stop-color="#648ac7"/>
    </linearGradient>
  </defs>
  <g id="Group_13684" data-name="Group 13684" transform="translate(-3133 -2706)">
    <rect id="Rectangle_3111" data-name="Rectangle 3111" width="100" height="80" transform="translate(3133 2706)" fill="#fff"/>
    <g id="Group_13668" data-name="Group 13668" transform="translate(-0.685 0.5)">
      <g id="Forum" transform="translate(3138.685 2708)">
        <rect id="Rectangle_12" data-name="Rectangle 12" width="8" height="8" transform="translate(67.354 3)" fill="#cc541e"/>
        <rect id="Rectangle_18" data-name="Rectangle 18" width="8" height="8" transform="translate(54.675 2)" fill="#c764c4" opacity="0"/>
        <rect id="Rectangle_19" data-name="Rectangle 19" width="8" height="8" transform="translate(80.354 11.56)" fill="#4569aa"/>
        <rect id="Rectangle_19-2" data-name="Rectangle 19" width="4" height="4" transform="translate(80.354 3.56)" fill="#e6713d"/>
        <rect id="Rectangle_19-3" data-name="Rectangle 19" width="4" height="4" transform="translate(73.354 12.56)" fill="#955793"/>
        <rect id="Rectangle_14" data-name="Rectangle 14" width="7.273" height="8" transform="translate(82.354 23.069)" fill="#c764c4" opacity="0"/>
        <path id="Path_37" data-name="Path 37" d="M890.659,1191.035l-39.785-.058H838.183s-11.111-.463-12.1,10.677v35.215s.523,10.542,11.105,12.059c14.277.188,39.877,1,39.877,1l18.29,12.615s-.062-1.152,0-3.26,0-11.354,0-11.354h10.815s9.725.448,9.829-8.907c.126-10.842,0-27.287,0-27.287h-2.2s.271,24.192,0,26.232c-.476,5.813-2.223,8.554-8.774,8.339-3.391.117-11.747,0-11.747,0v12.077l-15.747-11.195-41.055-.824s-6.925-2.442-7.774-9.5c.062-6.048-.062-35.215-.062-35.215s2.491-8.351,9.537-8.3c5.819.117,52.477,0,52.477,0Z" transform="translate(-826.002 -1189.531)" fill="url(#linear-gradient)"/>
      </g>
    </g>
  </g>
</svg>
