<svg xmlns="http://www.w3.org/2000/svg" width="15.999" height="12" viewBox="0 0 15.999 12"><defs><style>.a{fill:#69727c;}</style></defs><g transform="translate(0 0)"><path class="a" d="M8.5,66.99H10v-2.5a.5.5,0,0,1,.87-.336l5,5.5a.5.5,0,0,1,0,.672l-5,5.5a.5.5,0,0,1-.37.164.517.517,0,0,1-.181-.033A.5.5,0,0,1,10,75.49v-2.5H8.609A11.96,11.96,0,0,0,.825,75.87.5.5,0,0,1,0,75.49,8.509,8.509,0,0,1,8.5,66.99Zm.109,5H10.5a.5.5,0,0,1,.5.5V74.2l3.824-4.207L11,65.783V67.49a.5.5,0,0,1-.5.5h-2A7.5,7.5,0,0,0,1.078,74.4,12.975,12.975,0,0,1,8.609,71.99Z" transform="translate(0 -63.99)"/></g></svg>