<svg xmlns="http://www.w3.org/2000/svg" xmlns:xlink="http://www.w3.org/1999/xlink" width="90.004" height="75" viewBox="0 0 90.004 75">
  <defs>
    <linearGradient id="linear-gradient" x1="0.5" x2="0.5" y2="1" gradientUnits="objectBoundingBox">
      <stop offset="0" stop-color="#00dff1"/>
      <stop offset="1" stop-color="#009ed8"/>
    </linearGradient>
  </defs>
  <g id="Instructor_Led_hover" data-name="Instructor Led_hover" transform="translate(-3137.998 -2434.5)">
    <g id="Instructor_Led" data-name="Instructor Led" transform="translate(1383.247 2099.5)">
      <path id="Subtraction_8" data-name="Subtraction 8" d="M21673.621-1989.05a7.7,7.7,0,0,1-5.482-2.746,13.044,13.044,0,0,1-2.254-5.415,9.18,9.18,0,0,1,.273-4.3,9.35,9.35,0,0,1,3.02-4.321,6.254,6.254,0,0,1,4.418-1.67,8.224,8.224,0,0,1,5.166,1.958,15.735,15.735,0,0,1,2.139,3.641,11.671,11.671,0,0,1,.6,3.753,10.274,10.274,0,0,1-.625,3.555,9.581,9.581,0,0,1-2.459,3.663A7.959,7.959,0,0,1,21673.621-1989.05Zm-.369-17.164a2.829,2.829,0,0,0-2.137,1.32,6.56,6.56,0,0,1-.646.686,7.736,7.736,0,0,0-2.211,7.766,11.748,11.748,0,0,0,2.211,4.472,6.083,6.083,0,0,0,3.57,1.573c2.008,0,3.121-1.958,4.016-3.532a8.849,8.849,0,0,0,.676-7.285,9.495,9.495,0,0,0-1.662-2.995C21675.479-2005.559,21674.23-2006.215,21673.252-2006.215Z" transform="translate(-19873.619 2366.075)" fill="url(#linear-gradient)"/>
      <path id="Subtraction_10" data-name="Subtraction 10" d="M21672.779-1985.472a.074.074,0,0,1-.053-.029c-.031-.033-.135-.172-.119-.594.049-1.112.068-2.773.074-3.319,0-.114,0-.177,0-.181h-4.486a2.549,2.549,0,0,1-1.217-.54,3.662,3.662,0,0,1-1.187-3.107c.029-2.674-.01-8.149-.037-11.175,0-.134,0-.21,0-.217a3.432,3.432,0,0,1,.744-2.224,2.156,2.156,0,0,1,1.633-.634h.051c.416.013.816.019,1.193.019.641,0,.99-.019.994-.019l14.24.005a3.058,3.058,0,0,1,.328-.016,2.68,2.68,0,0,1,2.91,2.922c.021,3.34-.033,11.487-.033,11.523a3.861,3.861,0,0,1-.807,2.659,2.931,2.931,0,0,1-2.275.875h-.086c-1.25-.019-2.482-.029-3.664-.029-1.277,0-2.049.012-2.133.013l-5.094,3.685a1.463,1.463,0,0,1-.965.381Zm-4.842-5.619,6.568.022-.752,3.467,4.486-3.467c.02,0,2.818.026,4.984.026,1.271,0,2.08-.009,2.406-.027a.878.878,0,0,0,.66-.308,1.685,1.685,0,0,0,.246-1.135c0-.418,0-10.133.037-11.974a1.923,1.923,0,0,0-.389-1.4.92.92,0,0,0-.66-.274.68.68,0,0,0-.111.008h-17.072a1.236,1.236,0,0,0-1.127.493.985.985,0,0,0-.16.493c0,.09-.021,10.706-.043,12.432a1.968,1.968,0,0,0,.393,1.423.721.721,0,0,0,.506.227Z" transform="translate(-19843.1 2376.346)" fill="url(#linear-gradient)"/>
      <path id="Subtraction_9" data-name="Subtraction 9" d="M21680.824-1985.473l-.014,0a1.433,1.433,0,0,1-.963-.381l-5.09-3.685h0c-.008,0-.738-.012-1.971-.012s-2.518.011-3.826.034h-.078a2.948,2.948,0,0,1-2.283-.877,3.935,3.935,0,0,1-.807-2.662c0-.034-.055-8.232-.037-11.523a2.685,2.685,0,0,1,2.916-2.922,3.069,3.069,0,0,1,.326.016h14.24s.352.017.994.017c.379,0,.781-.006,1.193-.017h.057a2.143,2.143,0,0,1,1.623.63,3.419,3.419,0,0,1,.742,2.222c0,.007,0,.084,0,.221-.025,3.025-.061,8.5-.035,11.171a3.667,3.667,0,0,1-1.189,3.107,2.549,2.549,0,0,1-1.217.54h-4.479c0,.017.018,2.172.07,3.5.018.419-.082.559-.115.592A.077.077,0,0,1,21680.824-1985.473Zm-5.457-5.592h0l4.486,3.467-.752-3.467,6.57-.016h.027a.721.721,0,0,0,.506-.227,1.973,1.973,0,0,0,.391-1.423c-.021-1.726-.043-12.342-.043-12.432,0-.01-.014-.987-1.283-.987h-17.076a.693.693,0,0,0-.115-.008.916.916,0,0,0-.658.273,1.921,1.921,0,0,0-.391,1.4c.041,1.846.043,11.562.043,11.975a1.662,1.662,0,0,0,.244,1.134.872.872,0,0,0,.66.309c.326.018,1.135.027,2.406.027C21672.533-1991.038,21675.342-1991.064,21675.367-1991.064Z" transform="translate(-19911 2368.89)" fill="url(#linear-gradient)"/>
      <path id="Path_38" data-name="Path 38" d="M1778.973,386.988v-2.541s.084-.406,1.45-.425c1.692,0,65.226-.13,66.194-.116a4.829,4.829,0,0,1,1.114.077c-.007-.2.134,10.741.134,10.741h3.2V384.043s.127-3.233-3.082-3.233-52.018.132-69.8.173c-.7.035-2.205.1-2.236,3.465.014.878,0,1.646,0,2.541Z" transform="translate(-13.363 -28.766)" fill="url(#linear-gradient)"/>
      <path id="Path_43" data-name="Path 43" d="M1827.634,470.807h-2.27v-6.814s2.021-6.813,9.181-6.871,18.881,0,18.881,0,7.8.751,7.391,11.086a10.3,10.3,0,0,1,0,2.714H1858.6s.635-5.139-.982-8.314c-1.27-1.617-2.541-3.042-7.564-3.1s-15.784,0-15.784,0-6.82,1.68-6.639,6.564C1827.75,469.132,1827.634,470.807,1827.634,470.807Z" transform="translate(-43.015 -76.675)" fill="#00dff1"/>
      <path id="Subtraction_11" data-name="Subtraction 11" d="M21688.58-1980.363h-.023c-10.43,0-16.523-.038-18.115-.112a4.147,4.147,0,0,1-3.172-1.538,8.974,8.974,0,0,1-1.51-5.178,17.36,17.36,0,0,1,.174-3.1h4.748V-2007.5h3.145v16.207l68.035-.055v-9.165h3.5v10.164h4.748c0,.005-.059,1.183,0,4.558a4.859,4.859,0,0,1-2.375,4.426,6.339,6.339,0,0,1-2.373.831C21743.941-1980.528,21710.332-1980.363,21688.58-1980.363Zm-21.268-8.66a15.512,15.512,0,0,0,0,2.538,4.116,4.116,0,0,0,1.35,3.813,4.351,4.351,0,0,0,1.664.865h20.35c.217,0,21.918-.024,37.568-.024,9.146,0,14.4.008,15.609.024h.125a5.037,5.037,0,0,0,3.768-1.354,3.451,3.451,0,0,0,.861-1.417v-4.445h0c-.225,0-24.273.058-31.186.288-.492,2.859-2.588,3-3,3-.045,0-.07,0-.07,0h-12.406a2.851,2.851,0,0,1-2.715-1.5,3.76,3.76,0,0,1-.414-1.5Zm33.09,0h0a2.155,2.155,0,0,0,1.449,1.981c.041,0,4.4.1,7.9.1,2.008,0,3.391-.036,4-.1a1.866,1.866,0,0,0,1.873-1.978l-15.221,0Z" transform="translate(-19907.965 2390.362)" fill="url(#linear-gradient)"/>
      <rect id="Rectangle_21" data-name="Rectangle 21" width="1.1" height="8.803" rx="0.55" transform="translate(1814.627 337.852) rotate(28.999)" fill="#00dff1"/>
      <rect id="Rectangle_22" data-name="Rectangle 22" width="1.1" height="8.803" rx="0.55" transform="translate(1799.44 335)" fill="#00dff1"/>
      <rect id="Rectangle_23" data-name="Rectangle 23" width="1.1" height="8.803" rx="0.55" transform="matrix(0.891, -0.454, 0.454, 0.891, 1784.903, 338.297)" fill="#00dff1"/>
      <circle id="Ellipse_2" data-name="Ellipse 2" cx="1.284" cy="1.284" r="1.284" transform="translate(1759.979 369.149)" fill="url(#linear-gradient)"/>
      <circle id="Ellipse_6" data-name="Ellipse 6" cx="1.284" cy="1.284" r="1.284" transform="translate(1828.247 376.573)" fill="url(#linear-gradient)"/>
      <circle id="Ellipse_3" data-name="Ellipse 3" cx="1.284" cy="1.284" r="1.284" transform="translate(1764.747 369.149)" fill="url(#linear-gradient)"/>
      <circle id="Ellipse_7" data-name="Ellipse 7" cx="1.284" cy="1.284" r="1.284" transform="translate(1833.015 376.573)" fill="url(#linear-gradient)"/>
      <circle id="Ellipse_4" data-name="Ellipse 4" cx="1.284" cy="1.284" r="1.284" transform="translate(1769.148 369.149)" fill="url(#linear-gradient)"/>
      <circle id="Ellipse_5" data-name="Ellipse 5" cx="1.284" cy="1.284" r="1.284" transform="translate(1837.417 376.573)" fill="url(#linear-gradient)"/>
    </g>
  </g>
</svg>
