<svg xmlns="http://www.w3.org/2000/svg" xmlns:xlink="http://www.w3.org/1999/xlink" width="90.004" height="75.001" viewBox="0 0 90.004 75.001">
  <defs>
    <linearGradient id="linear-gradient" x1="0.5" x2="0.5" y2="1" gradientUnits="objectBoundingBox">
      <stop offset="0" stop-color="#00dff1"/>
      <stop offset="1" stop-color="#009ed8"/>
    </linearGradient>
  </defs>
  <g id="Instructor_Led_active" data-name="Instructor Led_active" transform="translate(-3137.998 -2434.5)">
    <g id="Instructor_Led" data-name="Instructor Led" transform="translate(1383.247 2099.5)">
      <path id="Subtraction_7" data-name="Subtraction 7" d="M21673.619-1898.05a7.688,7.688,0,0,1-5.48-2.748,13.006,13.006,0,0,1-2.254-5.412,9.179,9.179,0,0,1,.273-4.3,9.339,9.339,0,0,1,3.02-4.319,6.251,6.251,0,0,1,4.42-1.672,8.213,8.213,0,0,1,5.164,1.96,15.547,15.547,0,0,1,2.139,3.635,11.671,11.671,0,0,1,.6,3.753,10.274,10.274,0,0,1-.625,3.555,9.581,9.581,0,0,1-2.459,3.663A7.969,7.969,0,0,1,21673.619-1898.05Zm-.031-17.164a5.969,5.969,0,0,0-3.955,1.858l-.113.1-.053.046a7.742,7.742,0,0,0-2.211,7.769,11.743,11.743,0,0,0,2.211,4.475,6.633,6.633,0,0,0,4.076,1.567,6.7,6.7,0,0,0,5.508-3.532,8.855,8.855,0,0,0,.68-7.282,9.462,9.462,0,0,0-1.66-3A7.144,7.144,0,0,0,21673.588-1915.215Z" transform="translate(-19873.619 2275.075)" fill="#707070"/>
      <path id="Subtraction_3" data-name="Subtraction 3" d="M21672.779-1894.47a.078.078,0,0,1-.053-.029c-.031-.033-.135-.173-.119-.594.049-1.112.068-2.773.074-3.319,0-.114,0-.177,0-.181h-4.486a2.546,2.546,0,0,1-1.217-.54,3.67,3.67,0,0,1-1.187-3.112c.029-2.67-.01-8.144-.037-11.169,0-.134,0-.21,0-.217a3.424,3.424,0,0,1,.744-2.226,2.152,2.152,0,0,1,1.627-.632h.053c.418.013.82.02,1.2.02.639,0,.99-.019.994-.019l14.24.005a3.058,3.058,0,0,1,.328-.016,2.68,2.68,0,0,1,2.91,2.922c.021,3.338-.033,11.482-.033,11.517a3.876,3.876,0,0,1-.807,2.664,2.937,2.937,0,0,1-2.275.874h-.086c-1.244-.019-2.479-.029-3.67-.029-1.275,0-2.043.012-2.127.013l-5.094,3.685a1.461,1.461,0,0,1-.965.381Zm-4.842-5.619,6.568.016-.752,3.467,4.486-3.467c.016,0,2.8.027,4.984.027,1.271,0,2.08-.009,2.406-.027a.871.871,0,0,0,.66-.309,1.67,1.67,0,0,0,.246-1.129c0-.418,0-10.134.037-11.979a1.914,1.914,0,0,0-.389-1.4.91.91,0,0,0-.656-.273.693.693,0,0,0-.115.008h-17.08a1.231,1.231,0,0,0-1.121.493.994.994,0,0,0-.158.493c0,.09-.021,10.706-.043,12.432a1.968,1.968,0,0,0,.393,1.423.721.721,0,0,0,.506.227h.027Z" transform="translate(-19843.1 2285.346)" fill="url(#linear-gradient)"/>
      <path id="Subtraction_4" data-name="Subtraction 4" d="M21680.824-1894.472l-.014,0a1.476,1.476,0,0,1-.963-.381l-5.09-3.685h0c-.008,0-.8-.013-2.127-.013-1.191,0-2.426.01-3.67.029h-.086a2.938,2.938,0,0,1-2.277-.875,3.931,3.931,0,0,1-.8-2.659c0-.034-.055-8.233-.037-11.523a2.685,2.685,0,0,1,2.916-2.922,3.069,3.069,0,0,1,.326.016l14.24-.005s.354.019.994.019c.377,0,.777-.006,1.193-.019h.049a2.163,2.163,0,0,1,1.631.632,3.428,3.428,0,0,1,.742,2.226c0,.007,0,.084,0,.221-.025,3.025-.061,8.5-.035,11.171a3.667,3.667,0,0,1-1.189,3.107,2.549,2.549,0,0,1-1.217.54h-4.479c0,.017.018,2.172.07,3.5.018.419-.082.559-.115.592A.077.077,0,0,1,21680.824-1894.472Zm-5.457-5.592h0l4.486,3.467-.752-3.467,6.57-.022h.029a.719.719,0,0,0,.506-.226,1.974,1.974,0,0,0,.389-1.419c-.021-1.726-.043-12.347-.043-12.437,0-.01-.014-.981-1.281-.981h-17.078a.693.693,0,0,0-.115-.008.916.916,0,0,0-.658.273,1.921,1.921,0,0,0-.391,1.4c.041,1.846.043,11.557.043,11.969a1.678,1.678,0,0,0,.244,1.14.878.878,0,0,0,.66.308c.326.018,1.135.027,2.406.027C21672.533-1900.037,21675.342-1900.063,21675.367-1900.063Z" transform="translate(-19911 2277.89)" fill="url(#linear-gradient)"/>
      <path id="Path_38" data-name="Path 38" d="M1777.973,386.988v-2.541a1.49,1.49,0,0,1,1.45-1.425c1.692,0,67.226-.13,68.194-.116.869.013,1.114.035,1.114,1.077-.007-.2.134,10.741.134,10.741h2.2V384.043s.127-3.233-3.082-3.233-52.018.132-69.8.173c-.7.035-2.205.1-2.236,3.465.014.878,0,1.646,0,2.541Z" transform="translate(-13.363 -28.766)" fill="url(#linear-gradient)"/>
      <path id="Path_43" data-name="Path 43" d="M1826.634,470.807h-1.27v-6.814s2.021-6.813,9.181-6.871,18.881,0,18.881,0,7.8.751,7.391,11.086a10.3,10.3,0,0,1,0,2.714H1859.6s.635-5.139-.982-8.314c-1.27-1.617-2.541-4.042-7.564-4.1s-17.784,0-17.784,0-6.756,1.617-6.639,7.564C1826.75,469.132,1826.634,470.807,1826.634,470.807Z" transform="translate(-43.015 -76.675)" fill="#707070"/>
      <path id="Subtraction_6" data-name="Subtraction 6" d="M21688.625-1889.361c-10.473,0-16.59-.039-18.182-.115a4.154,4.154,0,0,1-3.172-1.539,8.963,8.963,0,0,1-1.512-5.175,18,18,0,0,1,.17-3.085.166.166,0,0,0,0-.018l4.75,0V-1916.5h2.145v17.205l70.033-.055v-10.164h2.506v10.164h4.748c0,.012-.059,1.169,0,4.558a4.879,4.879,0,0,1-2.373,4.427,6.346,6.346,0,0,1-2.373.829h-.018l-.607,0-.705,0C21720.527-1889.419,21701.365-1889.361,21688.625-1889.361Zm39.619-1.468c9.807,0,14.477.006,15.611.022h.125a5.01,5.01,0,0,0,3.766-1.348,3.468,3.468,0,0,0,.863-1.419v-4.449h-.008c-.223,0-24.324.067-31.182.288-.492,2.857-2.586,3-3,3h-12.479a2.85,2.85,0,0,1-2.713-1.5,3.729,3.729,0,0,1-.416-1.5l-31.5-.289a15.089,15.089,0,0,0,0,2.538,4.122,4.122,0,0,0,1.35,3.816,4.348,4.348,0,0,0,1.664.862h21.117C21706.264-1890.822,21719.334-1890.829,21728.244-1890.829Zm-27.84-7.194h0a2.155,2.155,0,0,0,1.449,1.981c.041,0,4.4.1,7.9.1,2.008,0,3.391-.036,4-.1a1.866,1.866,0,0,0,1.873-1.978l-15.221,0Z" transform="translate(-19907.967 2299.362)" fill="url(#linear-gradient)"/>
      <rect id="Rectangle_21" data-name="Rectangle 21" width="1.1" height="8.803" rx="0.55" transform="translate(1814.627 337.852) rotate(28.999)" fill="#00dff1"/>
      <rect id="Rectangle_22" data-name="Rectangle 22" width="1.1" height="8.803" rx="0.55" transform="translate(1799.44 335)" fill="#00dff1"/>
      <rect id="Rectangle_23" data-name="Rectangle 23" width="1.1" height="8.803" rx="0.55" transform="matrix(0.891, -0.454, 0.454, 0.891, 1784.903, 338.297)" fill="#00dff1"/>
      <circle id="Ellipse_2" data-name="Ellipse 2" cx="1.284" cy="1.284" r="1.284" transform="translate(1759.979 369.149)" fill="url(#linear-gradient)"/>
      <circle id="Ellipse_6" data-name="Ellipse 6" cx="1.284" cy="1.284" r="1.284" transform="translate(1828.247 376.573)" fill="url(#linear-gradient)"/>
      <circle id="Ellipse_3" data-name="Ellipse 3" cx="1.284" cy="1.284" r="1.284" transform="translate(1764.747 369.149)" fill="url(#linear-gradient)"/>
      <circle id="Ellipse_7" data-name="Ellipse 7" cx="1.284" cy="1.284" r="1.284" transform="translate(1833.015 376.573)" fill="url(#linear-gradient)"/>
      <circle id="Ellipse_4" data-name="Ellipse 4" cx="1.284" cy="1.284" r="1.284" transform="translate(1769.148 369.149)" fill="url(#linear-gradient)"/>
      <circle id="Ellipse_5" data-name="Ellipse 5" cx="1.284" cy="1.284" r="1.284" transform="translate(1837.417 376.573)" fill="url(#linear-gradient)"/>
    </g>
  </g>
</svg>
