<svg xmlns="http://www.w3.org/2000/svg" width="10.121" height="12.386" viewBox="0 0 10.121 12.386"><defs><style>.a{fill:#69727c;stroke:#69727c;stroke-width:0.35px;}</style></defs><path class="a" d="M8.994,39.509H8.976a1,1,0,0,0-.676.257,1.054,1.054,0,0,0-.979-.714,1.015,1.015,0,0,0-.725.312,1.039,1.039,0,0,0-.927-.593H5.65a.952.952,0,0,0-.6.2V36.451A1.081,1.081,0,0,0,4,35.348a1.079,1.079,0,0,0-1.047,1.1l0,5L2.669,41.1a1.426,1.426,0,0,0-1.008-.529,1.4,1.4,0,0,0-1.051.372l-.246.2a.219.219,0,0,0-.054.269l2.392,4.6a2.466,2.466,0,0,0,2.172,1.365h2.7v0a2.567,2.567,0,0,0,2.476-2.643c0-.652,0-1.137,0-1.531,0-1.053,0-1.442,0-2.6A1.074,1.074,0,0,0,8.994,39.509Zm.608,3.7c0,.394,0,.881,0,1.533a2.136,2.136,0,0,1-2.045,2.207H4.873a2.031,2.031,0,0,1-1.784-1.129L.779,41.376l.114-.1L.9,41.273a.971.971,0,0,1,.729-.262.992.992,0,0,1,.7.371L3,42.2a.219.219,0,0,0,.388-.139l0-5.607A.644.644,0,0,1,4,35.785a.644.644,0,0,1,.612.666v3.381c0,.012,0,.024,0,.036s0,.01,0,.015v1.446a.219.219,0,1,0,.437,0V39.84a.613.613,0,0,1,.6-.631H5.67a.638.638,0,0,1,.614.659v1.323a.219.219,0,1,0,.437,0V40.153a.6.6,0,1,1,1.2,0v.979a.219.219,0,1,0,.437,0V40.6a.635.635,0,0,1,.615-.655h.018a.635.635,0,0,1,.607.659C9.6,41.765,9.6,42.154,9.6,43.206Zm0,0" transform="translate(-0.099 -35.173)"/></svg>