<svg xmlns="http://www.w3.org/2000/svg" width="10.127" height="12.379" viewBox="0 0 10.127 12.379">
  <path id="join_grey" d="M8.994,39.509H8.976a1,1,0,0,0-.676.257,1.054,1.054,0,0,0-.979-.714,1.015,1.015,0,0,0-.725.312,1.039,1.039,0,0,0-.927-.593H5.65a.952.952,0,0,0-.6.2v-2.52A1.081,1.081,0,0,0,4,35.348a1.079,1.079,0,0,0-1.047,1.1v5L2.669,41.1a1.426,1.426,0,0,0-1.008-.529,1.4,1.4,0,0,0-1.051.372l-.246.2a.219.219,0,0,0-.054.269l2.392,4.6a2.466,2.466,0,0,0,2.172,1.365h2.7a2.567,2.567,0,0,0,2.476-2.643V40.6a1.074,1.074,0,0,0-1.056-1.094Zm.608,3.7v1.533a2.136,2.136,0,0,1-2.045,2.207H4.873A2.031,2.031,0,0,1,3.089,45.82L.779,41.376l.114-.1.007,0a.971.971,0,0,1,.729-.262.992.992,0,0,1,.7.371L3,42.2a.219.219,0,0,0,.388-.139V36.454A.644.644,0,0,1,4,35.785a.644.644,0,0,1,.612.666v4.878a.219.219,0,1,0,.437,0V39.84a.613.613,0,0,1,.6-.631H5.67a.638.638,0,0,1,.614.659v1.323a.219.219,0,1,0,.437,0V40.153a.6.6,0,0,1,1.2,0v.979a.219.219,0,1,0,.437,0V40.6a.635.635,0,0,1,.615-.655h.018A.635.635,0,0,1,9.6,40.6c0,1.161,0,1.55,0,2.6Zm0,0" transform="translate(-0.1 -35.173)" fill="#fff" stroke="#fff" stroke-width="0.35"/>
</svg>
