<svg xmlns="http://www.w3.org/2000/svg" width="12.5" height="12.5" viewBox="0 0 12.5 12.5"><defs><style>.a{fill:#69727c;}</style></defs><g transform="translate(0 0)"><path class="a" d="M12.485.933a.972.972,0,0,0-.919-.918A9.649,9.649,0,0,0,6.729.983a9.5,9.5,0,0,0-2.773,2.3l-.029.036L2.1,3.46a.966.966,0,0,0-.736.433L.111,5.782A.669.669,0,0,0,.567,6.813l1.542.239c-.005.03-.011.06-.016.09a.971.971,0,0,0,.272.845l2.148,2.148a.974.974,0,0,0,.687.285.957.957,0,0,0,.158-.013l.09-.016.239,1.542a.669.669,0,0,0,1.031.456L8.607,11.14A.966.966,0,0,0,9.04,10.4l.141-1.831.036-.029a9.5,9.5,0,0,0,2.3-2.773A9.65,9.65,0,0,0,12.485.933ZM8.2,10.529,6.4,11.724l-.233-1.5A8.2,8.2,0,0,0,8.4,9.155L8.31,10.347a.239.239,0,0,1-.107.182ZM5.032,9.616,2.883,7.468a.237.237,0,0,1-.068-.206A6.3,6.3,0,0,1,3.1,6.174L6.325,9.4a6.326,6.326,0,0,1-1.087.287A.237.237,0,0,1,5.032,9.616ZM2.153,4.19,3.345,4.1A8.2,8.2,0,0,0,2.279,6.337L.776,6.1,1.971,4.3A.239.239,0,0,1,2.153,4.19Zm6.6,3.791a8.4,8.4,0,0,1-1.7,1.109L3.41,5.447a8.542,8.542,0,0,1,1.109-1.7A8.74,8.74,0,0,1,7.066,1.633,8.908,8.908,0,0,1,11.527.746a.24.24,0,0,1,.227.227,8.907,8.907,0,0,1-.887,4.461A8.74,8.74,0,0,1,8.748,7.981Z" transform="translate(0 0)"/><path class="a" d="M277.575,90.02a1.85,1.85,0,1,0-1.309-.541A1.846,1.846,0,0,0,277.575,90.02Zm-.786-2.636a1.111,1.111,0,1,1-.325.786A1.107,1.107,0,0,1,276.789,87.384Z" transform="translate(-269.023 -84.221)"/><path class="a" d="M.672,344.914a.369.369,0,0,0,.262-.109L2.143,343.6a.37.37,0,1,0-.524-.524L.41,344.282a.37.37,0,0,0,.262.632Z" transform="translate(-0.294 -334.608)"/><path class="a" d="M2.957,387.954a.37.37,0,0,0-.524,0L.109,390.279a.37.37,0,1,0,.524.524l2.324-2.324A.37.37,0,0,0,2.957,387.954Z" transform="translate(-0.001 -378.411)"/><path class="a" d="M91.38,432.835l-1.209,1.209a.37.37,0,1,0,.524.524l1.209-1.209a.37.37,0,0,0-.524-.524Z" transform="translate(-87.868 -422.184)"/></g></svg>