<svg xmlns="http://www.w3.org/2000/svg" width="12.5" height="12.5" viewBox="0 0 12.5 12.5"><defs><style>.a{fill:#69727c;}</style></defs><path class="a" d="M12.485.933a.972.972,0,0,0-.919-.918A9.649,9.649,0,0,0,6.729.983a9.5,9.5,0,0,0-2.773,2.3l-.029.036L2.1,3.46a.966.966,0,0,0-.736.433L.111,5.782A.669.669,0,0,0,.567,6.813l1.542.239c-.005.03-.011.06-.016.09a.971.971,0,0,0,.272.845l2.148,2.148a.974.974,0,0,0,.687.285.957.957,0,0,0,.158-.013l.09-.016.239,1.542a.669.669,0,0,0,1.031.456L8.607,11.14A.966.966,0,0,0,9.04,10.4l.141-1.831.036-.029a9.5,9.5,0,0,0,2.3-2.773A9.65,9.65,0,0,0,12.485.933ZM8.2,10.529,6.4,11.724l-.233-1.5A8.2,8.2,0,0,0,8.4,9.155L8.31,10.347a.239.239,0,0,1-.107.182ZM5.032,9.616,2.883,7.468a.237.237,0,0,1-.068-.206A6.3,6.3,0,0,1,3.1,6.174L6.325,9.4a6.326,6.326,0,0,1-1.087.287A.237.237,0,0,1,5.032,9.616ZM2.153,4.19,3.345,4.1A8.2,8.2,0,0,0,2.279,6.337L.776,6.1,1.971,4.3A.239.239,0,0,1,2.153,4.19Zm6.6,3.791a8.4,8.4,0,0,1-1.7,1.109L3.41,5.447a8.542,8.542,0,0,1,1.109-1.7A8.74,8.74,0,0,1,7.066,1.633,8.908,8.908,0,0,1,11.527.746a.24.24,0,0,1,.227.227,8.907,8.907,0,0,1-.887,4.461A8.74,8.74,0,0,1,8.748,7.981Z" transform="translate(0 0)"/></svg>