<svg xmlns="http://www.w3.org/2000/svg" width="512" height="512.002" viewBox="0 0 512 512.002">
  <path id="Path_6" data-name="Path 6" d="M248.966,509.642a27.306,27.306,0,0,1-16-20.877l-9.784-63.172c-1.228.223-2.455.447-3.683.652a39.2,39.2,0,0,1-6.458.536A39.878,39.878,0,0,1,184.9,415.094L96.907,327.1a39.775,39.775,0,0,1-11.151-34.6c.2-1.228.428-2.455.652-3.683l-63.171-9.784A27.417,27.417,0,0,1,4.562,236.821l51.154-77.372A39.581,39.581,0,0,1,85.877,141.7l74.98-5.792c.4-.489.8-.98,1.207-1.468C195.1,94.834,236.5,60.505,275.648,40.257,352.436.54,432.741-1.641,473.778.6A39.8,39.8,0,0,1,511.4,38.222c2.238,41.035.061,121.34-39.658,198.131C451.5,275.5,417.166,316.9,377.557,349.938c-.488.407-.98.8-1.469,1.207L370.3,426.124a39.572,39.572,0,0,1-17.744,30.161L275.18,507.44a27.3,27.3,0,0,1-26.213,2.2Zm3.493-91.015L262,480.191l74.011-48.933a9.768,9.768,0,0,0,4.382-7.447l3.773-48.845C314.682,394.7,283.739,409.43,252.459,418.627ZM115.344,297.449a9.722,9.722,0,0,0,2.775,8.439l87.992,87.993h0a9.729,9.729,0,0,0,8.44,2.774,259.088,259.088,0,0,0,44.534-11.741L127.058,252.887A258.1,258.1,0,0,0,115.344,297.449ZM289.432,66.9C253.7,85.383,215.676,117,185.1,153.659a349.854,349.854,0,0,0-45.417,69.431L288.905,372.311A343.923,343.923,0,0,0,358.343,326.9C395,296.324,426.618,258.3,445.1,222.57c36.454-70.475,38.42-144.725,36.349-182.714a9.838,9.838,0,0,0-9.3-9.3C466.068,30.224,459.072,30,451.3,30,410.506,30,348.632,36.281,289.432,66.9ZM88.188,171.613A9.77,9.77,0,0,0,80.742,176L31.807,250.007l61.564,9.535c9.2-31.28,23.927-62.223,43.661-91.7ZM4.395,507.607a15,15,0,0,1,0-21.213l94.154-94.155a15,15,0,1,1,21.212,21.213L25.606,507.606a15,15,0,0,1-21.211,0Zm90.061-.3a15,15,0,0,1,0-21.213l48.973-48.973a15,15,0,1,1,21.212,21.213l-48.974,48.973a15,15,0,0,1-21.212,0ZM4.7,417.544a15,15,0,0,1,0-21.213l48.972-48.974A15,15,0,0,1,74.88,368.571L25.907,417.544a15,15,0,0,1-21.212,0Zm293-203.233a75.082,75.082,0,1,1,53.031,21.931A74.507,74.507,0,0,1,297.69,214.312ZM318.9,129.462a45.046,45.046,0,1,0,31.818-13.16A44.7,44.7,0,0,0,318.9,129.462Z" transform="translate(0 0)" fill="#fff"/>
</svg>
