<svg xmlns="http://www.w3.org/2000/svg" width="23.4" height="22.4" viewBox="0 0 23.4 22.4"><defs><style>.a{fill:#69727c;stroke:#69727c;stroke-width:0.4px;}</style></defs><g transform="translate(0.2 -20.293)"><path class="a" d="M22.072,21.894H16.3a1.705,1.705,0,0,0-1.651-1.4H8.356a1.705,1.705,0,0,0-1.651,1.4H.928A.948.948,0,0,0,0,22.859V37.975a.948.948,0,0,0,.928.965H9.015L8.56,40.391H7.616a1.2,1.2,0,0,0-1.17,1.216.87.87,0,0,0,.852.885h8.4a.87.87,0,0,0,.852-.885,1.2,1.2,0,0,0-1.17-1.216H14.44l-.455-1.452h8.087A.948.948,0,0,0,23,37.975V22.859a.948.948,0,0,0-.928-.965Zm-9.225-.7h1.8a1.052,1.052,0,0,1,0,2.1h-1.8a1.8,1.8,0,0,0,0-2.1Zm-1.347,0a1.052,1.052,0,1,1-1.011,1.051A1.033,1.033,0,0,1,11.5,21.194Zm-3.145,0h1.8a1.8,1.8,0,0,0,0,2.1h-1.8a1.052,1.052,0,0,1,0-2.1Zm7.028,19.9a.507.507,0,0,1,.5.516.181.181,0,0,1-.178.185H7.3a.181.181,0,0,1-.178-.185.507.507,0,0,1,.5-.516h2.37a.351.351,0,0,0,0-.7H9.269l.455-1.452h3.554l.455,1.452h-2.19a.351.351,0,0,0,0,.7Zm6.942-16.4H6.783a.351.351,0,0,0,0,.7H22.326v10.04H19.777a.351.351,0,0,0,0,.7h2.549v1.837a.26.26,0,0,1-.254.264H.928a.26.26,0,0,1-.254-.264V36.138H18.227a.351.351,0,0,0,0-.7H16.939a2.235,2.235,0,0,0-1.591-1.481l-.007,0-2.554-.539a3.265,3.265,0,0,1-.015-.66A3.074,3.074,0,0,0,14.1,30.65c0-.069,0-.137-.008-.207-.014-.152-.023-.855-.02-1.709a2.636,2.636,0,0,0-.729-1.844,2.439,2.439,0,0,0-1.773-.766h0A2.44,2.44,0,0,0,9.8,26.89a2.636,2.636,0,0,0-.73,1.844c0,.855-.005,1.558-.02,1.714-.005.063-.008.131-.008.2a3.067,3.067,0,0,0,1.326,2.1,3.148,3.148,0,0,1-.018.653l-2.6.55-.007,0a2.235,2.235,0,0,0-1.591,1.481H.674V25.4H5.241a.351.351,0,0,0,0-.7H.674V22.859a.26.26,0,0,1,.254-.264H6.7A1.705,1.705,0,0,0,8.355,24h6.289a1.705,1.705,0,0,0,1.651-1.4h5.777a.26.26,0,0,1,.254.264V24.7ZM9.743,28.732a1.926,1.926,0,0,1,.533-1.347,1.783,1.783,0,0,1,1.3-.559h0a1.783,1.783,0,0,1,1.3.56,1.925,1.925,0,0,1,.533,1.347c0,.718,0,1.563.023,1.776,0,.045.006.093.006.143,0,.421-.425,1.011-1.2,1.661a1.019,1.019,0,0,1-.657.242h0a1.018,1.018,0,0,1-.66-.243c-.772-.649-1.2-1.239-1.2-1.66,0-.05,0-.1.005-.137.021-.217.025-1.063.023-1.782ZM12.131,33.6l-.05.056a.694.694,0,0,1-.507.253h0a.7.7,0,0,1-.507-.254L11,33.592a3.981,3.981,0,0,0,.042-.424,1.649,1.649,0,0,0,.522.086h.007a1.654,1.654,0,0,0,.516-.083,3.9,3.9,0,0,0,.041.432Zm-1.609.479.05.055a1.347,1.347,0,0,0,1,.475h.007a1.346,1.346,0,0,0,1-.474l.041-.046,2.591.546a1.537,1.537,0,0,1,1,.8H6.884a1.537,1.537,0,0,1,1-.8Z"/></g></svg>