<svg xmlns="http://www.w3.org/2000/svg" width="21.999" height="26.193" viewBox="0 0 21.999 26.193"><defs><style>.a{fill:#69727c;}</style></defs><g transform="translate(-40.994)"><path class="a" d="M62.993,16.883a2.562,2.562,0,0,0-2.046-2.507V11.613a.767.767,0,0,0-1.037-.719l-1.465.549a8.947,8.947,0,0,0-3.412-2.215,5.116,5.116,0,1,0-6.079,0,8.947,8.947,0,0,0-3.412,2.215l-1.465-.549a.767.767,0,0,0-1.037.719v2.763a2.558,2.558,0,0,0,0,5.013v2.968a.767.767,0,0,0,.5.719l8.186,3.07a.776.776,0,0,0,.539,0l8.186-3.07a.767.767,0,0,0,.5-.719V19.389A2.562,2.562,0,0,0,62.993,16.883ZM48.412,5.116A3.581,3.581,0,1,1,51.993,8.7,3.585,3.585,0,0,1,48.412,5.116Zm3.581,5.116a7.407,7.407,0,0,1,4.855,1.811l-4.855,1.821-4.855-1.821A7.407,7.407,0,0,1,51.993,10.232Zm-9.465,6.651a1.024,1.024,0,0,1,1.023-1.023h.512v2.046h-.512A1.024,1.024,0,0,1,42.529,16.883Zm2.046,2.532A1.281,1.281,0,0,0,45.6,18.162V15.6a1.281,1.281,0,0,0-1.023-1.253v-1.63l6.651,2.494v9.1l-6.651-2.494Zm8.186,4.9v-9.1l6.651-2.494v1.63A1.281,1.281,0,0,0,58.388,15.6v2.558a1.281,1.281,0,0,0,1.023,1.253v2.41Zm7.674-6.413h-.512V15.86h.512a1.023,1.023,0,1,1,0,2.046Z"/></g></svg>