<svg xmlns="http://www.w3.org/2000/svg" width="70" height="43.448" viewBox="0 0 70 43.448">
  <g id="Group_1226" data-name="Group 1226" transform="translate(-549 -1603)">
    <path id="Path_1211" data-name="Path 1211" d="M27,50H39.069v2.414H27Z" transform="translate(550.966 1581.965)" fill="#fff"/>
    <path id="Path_1212" data-name="Path 1212" d="M7,34H21.483v2.414H7Z" transform="translate(546.828 1578.655)" fill="#fff"/>
    <path id="Path_1213" data-name="Path 1213" d="M45,34H59.483v2.414H45Z" transform="translate(554.69 1578.655)" fill="#fff"/>
    <path id="Path_1214" data-name="Path 1214" d="M19,26H50.379v2.414H19Z" transform="translate(549.31 1577)" fill="#fff"/>
    <path id="Path_1215" data-name="Path 1215" d="M65.759,66.207V39.655H53.69V66.207H51.276V30H24.724V66.207H22.31V39.655H10.241V66.207H3v2.414H73V66.207ZM56.1,42.069h7.241v2.414H56.1Zm0,4.828h7.241V49.31H56.1Zm0,4.828h7.241v2.414H56.1Zm0,4.828h7.241v2.414H56.1Zm0,4.828h7.241v2.414H56.1ZM12.655,42.069H19.9v2.414H12.655Zm0,4.828H19.9V49.31H12.655Zm0,4.828H19.9v2.414H12.655Zm0,4.828H19.9v2.414H12.655Zm0,4.828H19.9v2.414H12.655ZM44.035,32.414h2.414v2.414H44.035Zm0,4.828h2.414v2.414H44.035Zm0,4.828h2.414v2.414H44.035Zm0,4.828h2.414V49.31H44.035ZM39.207,32.414h2.414v2.414H39.207Zm0,4.828h2.414v2.414H39.207Zm0,4.828h2.414v2.414H39.207Zm0,4.828h2.414V49.31H39.207ZM34.379,32.414h2.414v2.414H34.379Zm0,4.828h2.414v2.414H34.379Zm0,4.828h2.414v2.414H34.379Zm0,4.828h2.414V49.31H34.379ZM29.552,32.414h2.414v2.414H29.552Zm0,4.828h2.414v2.414H29.552Zm0,4.828h2.414v2.414H29.552Zm0,4.828h2.414V49.31H29.552Zm12.069,19.31V58.966H34.379v7.241H31.966V58.966H30.759a1.207,1.207,0,0,1-1.207-1.207V52.931a1.207,1.207,0,0,1,1.207-1.207H45.241a1.207,1.207,0,0,1,1.207,1.207v4.828a1.207,1.207,0,0,1-1.207,1.207H44.035v7.241Z" transform="translate(546 1577.828)" fill="#fff"/>
  </g>
</svg>
