<svg xmlns="http://www.w3.org/2000/svg" width="58.001" height="58.001" viewBox="0 0 58.001 58.001">
  <g id="government" transform="translate(0 0)">
    <path id="Path_1216" data-name="Path 1216" d="M221,352h7.93v18.125H221Zm0,0" transform="translate(-195.965 -312.125)" fill="#fff"/>
    <path id="Path_1217" data-name="Path 1217" d="M96.91,197.146a1.731,1.731,0,0,1,1.617-1.745,1.7,1.7,0,0,1,1.782,1.7v2.832h3.4v-2.784a1.731,1.731,0,0,1,1.617-1.745,1.7,1.7,0,0,1,1.782,1.7v2.832h3.4v-2.784a1.731,1.731,0,0,1,1.617-1.745,1.7,1.7,0,0,1,1.782,1.7v2.832h3.4v-2.784a1.731,1.731,0,0,1,1.617-1.745,1.7,1.7,0,0,1,1.782,1.7v2.832h6.91V193.7a1.7,1.7,0,0,0-1.7-1.7H91.7a1.7,1.7,0,0,0-1.7,1.7v6.231h6.91Zm0,0" transform="translate(-79.805 -170.25)" fill="#fff"/>
    <path id="Path_1218" data-name="Path 1218" d="M174.789,16.652a11.913,11.913,0,0,0-10.2-11.773V1.7a1.7,1.7,0,0,0-3.4,0v3.18A11.913,11.913,0,0,0,151,16.652v1.7h23.789Zm0,0" transform="translate(-133.895)" fill="#fff"/>
    <path id="Path_1219" data-name="Path 1219" d="M102.728,292H61.72a1.7,1.7,0,0,0-1.7,1.647l8.121,3.248a5.073,5.073,0,0,1,3.2,4.733v15.293h3.512V297.1a1.7,1.7,0,0,1,1.7-1.7H87.888a1.7,1.7,0,0,1,1.7,1.7v19.824H93.1V301.629a5.073,5.073,0,0,1,3.2-4.733l8.121-3.248A1.7,1.7,0,0,0,102.728,292Zm0,0" transform="translate(-53.224 -258.922)" fill="#fff"/>
    <path id="Path_1220" data-name="Path 1220" d="M396.295,322.565a1.7,1.7,0,0,0-1.9-.444l-11.328,4.531A1.7,1.7,0,0,0,382,328.229v15.293h5.664V332.809a1.731,1.731,0,0,1,1.617-1.746,1.7,1.7,0,0,1,1.782,1.7v10.762h5.664V323.736A1.741,1.741,0,0,0,396.295,322.565Zm0,0" transform="translate(-338.727 -285.522)" fill="#fff"/>
    <path id="Path_1221" data-name="Path 1221" d="M13.658,326.652,2.33,322.121a1.7,1.7,0,0,0-1.9.444A1.741,1.741,0,0,0,0,323.736v19.787H5.664V332.809a1.731,1.731,0,0,1,1.617-1.746,1.7,1.7,0,0,1,1.782,1.7v10.762h5.664V328.229a1.7,1.7,0,0,0-1.068-1.578Zm0,0" transform="translate(0 -285.522)" fill="#fff"/>
  </g>
</svg>
