<svg xmlns="http://www.w3.org/2000/svg" width="154.014" height="115.51" viewBox="0 0 154.014 115.51">
  <path id="Icon_awesome-image" data-name="Icon awesome-image" d="M139.575,120.01H14.439A14.439,14.439,0,0,1,0,105.571V18.939A14.439,14.439,0,0,1,14.439,4.5H139.575a14.439,14.439,0,0,1,14.439,14.439v86.633A14.439,14.439,0,0,1,139.575,120.01ZM33.69,21.345A16.845,16.845,0,1,0,50.536,38.19,16.845,16.845,0,0,0,33.69,21.345ZM19.252,100.758h115.51V67.068L108.437,40.743a3.61,3.61,0,0,0-5.105,0L62.568,81.507l-16.7-16.7a3.61,3.61,0,0,0-5.105,0L19.252,86.32Z" transform="translate(0 -4.5)" fill="#5e5e5e"/>
</svg>
