<svg xmlns="http://www.w3.org/2000/svg" width="35.466" height="39.254" viewBox="0 0 35.466 39.254">
  <path id="Icon_metro-file-pdf" data-name="Icon metro-file-pdf" d="M36.466,10.528a5.072,5.072,0,0,1,1.108,1.665,4.838,4.838,0,0,1,.462,1.928V39.355a1.977,1.977,0,0,1-.647,1.49,2.2,2.2,0,0,1-1.57.613H4.787a2.2,2.2,0,0,1-1.57-.613,1.977,1.977,0,0,1-.647-1.49V4.306a1.977,1.977,0,0,1,.647-1.49A2.2,2.2,0,0,1,4.787,2.2H25.476a5.574,5.574,0,0,1,2.032.438,5.417,5.417,0,0,1,1.755,1.051ZM26.215,5.183v8.236H34.9a2.36,2.36,0,0,0-.508-.9L27.161,5.664a2.564,2.564,0,0,0-.947-.482Zm8.866,33.471V16.223H25.476a2.2,2.2,0,0,1-1.57-.613,1.977,1.977,0,0,1-.647-1.49V5.007H5.526V38.654H35.081ZM23.213,25.664a17.663,17.663,0,0,0,1.94,1.227,24.136,24.136,0,0,1,2.7-.153q3.394,0,4.087,1.073a1.014,1.014,0,0,1,.046,1.139.062.062,0,0,1-.023.044l-.046.044v.022q-.139.832-1.639.832a9.993,9.993,0,0,1-2.655-.438,17.366,17.366,0,0,1-3-1.161,43.526,43.526,0,0,0-9.051,1.818Q12.038,35.85,9.983,35.85a1.4,1.4,0,0,1-.647-.153l-.554-.263q-.023-.022-.139-.11a.869.869,0,0,1-.139-.789,4.715,4.715,0,0,1,1.293-2,11.143,11.143,0,0,1,3.048-2.114.345.345,0,0,1,.531.131.124.124,0,0,1,.046.088q1.2-1.862,2.471-4.315a32.441,32.441,0,0,0,2.4-5.739,16.9,16.9,0,0,1-.7-3.494,8.091,8.091,0,0,1,.15-2.793q.254-.876.97-.876h.508a1,1,0,0,1,.808.329,1.675,1.675,0,0,1,.208,1.49.467.467,0,0,1-.092.175.543.543,0,0,1,.023.175v.657a27.244,27.244,0,0,1-.323,4.206,11.021,11.021,0,0,0,3.371,5.213Zm-13.3,9q1.2-.526,3.163-3.461a12.886,12.886,0,0,0-2.02,1.84A7.261,7.261,0,0,0,9.913,34.667ZM19.1,14.514a6.189,6.189,0,0,0-.046,2.892q.023-.153.162-.964,0-.066.162-.942a.483.483,0,0,1,.092-.175.062.062,0,0,1-.023-.044.043.043,0,0,0-.012-.033.043.043,0,0,1-.012-.033,1.223,1.223,0,0,0-.3-.789.062.062,0,0,1-.023.044v.044ZM16.24,28.994A35.288,35.288,0,0,1,22.8,27.219a3.485,3.485,0,0,1-.3-.208,4.087,4.087,0,0,1-.369-.3A11.651,11.651,0,0,1,19.2,22.86a28.468,28.468,0,0,1-1.917,4.315q-.693,1.227-1.039,1.818Zm14.916-.35q-.554-.526-3.233-.526a9.137,9.137,0,0,0,2.863.613,2.359,2.359,0,0,0,.416-.022q0-.022-.046-.066Z" transform="translate(-2.571 -2.203)" fill="#1f3777"/>
</svg>
