<svg id="Group_3071" data-name="Group 3071" xmlns="http://www.w3.org/2000/svg" width="32.333" height="39.276" viewBox="0 0 32.333 39.276">
  <g id="html">
    <g id="Group_2992" data-name="Group 2992" transform="translate(0)">
      <g id="Group_2991" data-name="Group 2991">
        <path id="Path_2096" data-name="Path 2096" d="M77.136,11.327,65.582.39A1.428,1.428,0,0,0,64.6,0H46.675a1.426,1.426,0,0,0-1.426,1.427V37.85a1.426,1.426,0,0,0,1.426,1.427h29.48a1.426,1.426,0,0,0,1.426-1.427V12.363A1.428,1.428,0,0,0,77.136,11.327Zm-2.407,25.1H48.1V2.853H64.034l10.7,10.124V36.423Z" transform="translate(-45.249 0)" fill="#1f3777"/>
      </g>
    </g>
    <g id="Group_3000" data-name="Group 3000" transform="translate(17.926 1.427)">
      <g id="Group_2999" data-name="Group 2999">
        <path id="Path_2100" data-name="Path 2100" d="M281.788,28.106V18.6h-2.853V29.532a1.426,1.426,0,0,0,1.426,1.427h11.554V28.106H281.788Z" transform="translate(-278.935 -18.596)" fill="#1f3777"/>
      </g>
    </g>
  </g>
  <g id="Icon_ionic-ios-videocam" data-name="Icon ionic-ios-videocam" transform="translate(3.823 12.811)">
    <path id="Path_2101" data-name="Path 2101" d="M27.327,10.8a.456.456,0,0,0-.248.072l-2.307,1.456a.228.228,0,0,0-.107.192v2.027a.228.228,0,0,0,.107.192l2.307,1.456a.479.479,0,0,0,.248.072h.555a.227.227,0,0,0,.229-.227V11.027a.229.229,0,0,0-.229-.227Z" transform="translate(-16.164 -10.117)" fill="#1f3777"/>
    <path id="Path_2102" data-name="Path 2102" d="M8.69,15.827H3.623A1.378,1.378,0,0,1,2.25,14.456V10.371A1.375,1.375,0,0,1,3.621,9H8.687a1.375,1.375,0,0,1,1.371,1.371v4.083A1.372,1.372,0,0,1,8.69,15.827Z" transform="translate(-2.25 -9)" fill="#1f3777"/>
  </g>
  <path id="Icon_metro-multitrack-audio" data-name="Icon metro-multitrack-audio" d="M9.157,16.065h1.365V7.872H9.157ZM11.888,18.8h1.365V5.141H11.888V18.8ZM6.427,13.334H7.792V10.6H6.427Zm8.192,2.731h1.365V7.872H14.619ZM17.35,10.6v2.731h1.365V10.6Z" transform="translate(8.119 14.496)" fill="#1f3777" stroke="#1f3777" stroke-width="0.4"/>
</svg>
