<svg xmlns="http://www.w3.org/2000/svg" width="62.874" height="53.721" viewBox="0 0 62.874 53.721">
  <g id="student" transform="translate(0 -37.27)">
    <g id="Group_1223" data-name="Group 1223" transform="translate(0 37.27)">
      <g id="Group_1222" data-name="Group 1222">
        <path id="Path_1222" data-name="Path 1222" d="M62.874,75.672a5.517,5.517,0,0,0-3.684-5.187V51.4l3.684-1.519L31.437,37.27,0,49.883,31.437,62.5l24.069-9.615v17.6a5.493,5.493,0,0,0-.528,10.158l-3.061,9.182,3.493,1.166,1.937-5.812,1.937,5.812,3.493-1.166-3.061-9.182A5.518,5.518,0,0,0,62.874,75.672Z" transform="translate(0 -37.27)" fill="#fff"/>
      </g>
    </g>
    <g id="Group_1225" data-name="Group 1225" transform="translate(14.859 59.81)">
      <g id="Group_1224" data-name="Group 1224">
        <path id="Path_1223" data-name="Path 1223" d="M137.578,227.477,121,220.82v4.809c0,5.251,7.127,9.21,16.578,9.21s16.578-3.959,16.578-9.21V220.82Z" transform="translate(-121 -220.82)" fill="#fff"/>
      </g>
    </g>
  </g>
</svg>
