<svg xmlns="http://www.w3.org/2000/svg" width="35.465" height="39.254" viewBox="0 0 35.465 39.254">
  <path id="Icon_metro-file-word" data-name="Icon metro-file-word" d="M36.466,10.528a5.072,5.072,0,0,1,1.108,1.665,4.839,4.839,0,0,1,.462,1.928V39.355a1.977,1.977,0,0,1-.647,1.49,2.2,2.2,0,0,1-1.57.613H4.787a2.2,2.2,0,0,1-1.57-.613,1.977,1.977,0,0,1-.647-1.49V4.306a1.977,1.977,0,0,1,.647-1.49A2.2,2.2,0,0,1,4.787,2.2H25.475a5.574,5.574,0,0,1,2.032.438,5.417,5.417,0,0,1,1.755,1.051ZM26.214,5.183v8.236H34.9a2.36,2.36,0,0,0-.508-.9L27.161,5.664a2.564,2.564,0,0,0-.947-.482ZM35.08,38.654V16.223H25.475a2.2,2.2,0,0,1-1.57-.613,1.977,1.977,0,0,1-.647-1.49V5.007H5.526V38.654H35.081ZM7.951,19.027v2.344H9.567L13.353,35.85h3.671L19.98,25.226a4.479,4.479,0,0,0,.231-1.008,4.414,4.414,0,0,0,.046-.526h.092l.069.526a4.06,4.06,0,0,1,.081.438,3.381,3.381,0,0,0,.127.57L23.582,35.85h3.671L31.04,21.371h1.616V19.027H25.729v2.344h2.078l-2.286,9.595a5.83,5.83,0,0,0-.162,1.008l-.046.46h-.092l-.069-.46q-.023-.11-.092-.46t-.115-.548L21.619,19.027H18.987L15.662,30.965q-.046.2-.1.537t-.081.471l-.092.46h-.092l-.046-.46a5.83,5.83,0,0,0-.162-1.008L12.8,21.371h2.078V19.027H7.95Z" transform="translate(-2.571 -2.203)" fill="#1f3777"/>
</svg>
